<svg width="38" height="38" viewBox="0 0 38 38" fill="none" xmlns="http://www.w3.org/2000/svg">
<rect width="38" height="38" rx="8" fill="white" fill-opacity="0.2"/>
<rect x="0.5" y="0.5" width="37" height="37" rx="7.5" stroke="white" stroke-opacity="0.2"/>
<path d="M22.4299 15.7798L21.6869 12.199C21.4432 11.0245 20.2672 10.2526 19.0927 10.4963C17.9755 10.7281 17.2429 11.8063 17.3829 12.9128C15.1992 15.6367 12.8734 16.9558 9.23532 17.7107L7.11546 18.1505C5.91232 18.4001 5.14047 19.5761 5.3901 20.7793L6.18061 24.5892C6.43024 25.7924 7.60624 26.5642 8.80938 26.3146L9.58287 26.1541L11.7434 31.3829C11.9768 31.932 12.5472 32.232 13.1201 32.1131L15.4977 31.6198C15.8414 31.5485 16.1496 31.3053 16.3253 31C16.4951 30.6659 16.5097 30.3044 16.381 29.9725L14.5302 25.5162C16.5386 25.5475 18.3379 26.0108 20.3192 27.0639C20.637 28.1633 21.7321 28.8325 22.8492 28.6007C24.0238 28.357 24.7956 27.181 24.5519 26.0065L23.8088 22.426C25.2676 21.8244 26.0936 20.1891 25.7548 18.5561C25.4101 16.8947 23.979 15.7574 22.4299 15.7799L22.4299 15.7798ZM7.38382 24.3397L6.59332 20.5297C6.48635 20.0142 6.82679 19.4953 7.3425 19.3883L9.46237 18.9484C13.0145 18.2114 15.4608 16.897 17.6754 14.4657L19.9696 25.5231C16.9993 24.1673 14.2319 23.9349 10.6511 24.6779L8.53127 25.1177C8.0157 25.2245 7.49677 24.884 7.38383 24.3397L7.38382 24.3397ZM15.2194 30.4228L12.9051 30.9328L10.8206 25.9272L10.9351 25.9035C11.7372 25.7371 12.4938 25.6399 13.1992 25.5831L15.2194 30.4228ZM23.32 26.2621C23.4269 26.7776 23.0806 27.268 22.5934 27.3691C22.1065 27.4701 21.5875 27.1297 21.4864 26.6425L18.6218 12.835C18.5148 12.3195 18.8612 11.8291 19.3483 11.728C19.8353 11.627 20.3543 11.9674 20.4553 12.4546L23.32 26.2621ZM23.5474 21.1652L22.6915 17.0401C23.5816 17.1543 24.3497 17.8315 24.5517 18.8054C24.7538 19.7794 24.29 20.7122 23.5474 21.1652L23.5474 21.1652Z" fill="#A5DAD8"/>
<path d="M31.5417 16.1776L27.4454 17.0275C27.1017 17.0988 26.9032 17.4389 26.9686 17.754C27.0399 18.0977 27.38 18.2962 27.6951 18.2309L31.7914 17.3809C32.1351 17.3096 32.3336 16.9695 32.2682 16.6544C32.2028 16.3393 31.8569 16.1122 31.5417 16.1776Z" fill="#A5DAD8"/>
<path d="M31.3535 21.6101L27.3016 20.6579C26.9568 20.58 26.6428 20.7946 26.559 21.1109C26.4811 21.4557 26.6957 21.7697 27.0119 21.8535L31.0638 22.8057C31.1557 22.8164 31.2476 22.8274 31.3335 22.8095C31.5627 22.762 31.7622 22.5712 31.8065 22.3529C31.9189 22.0307 31.6983 21.688 31.3535 21.6101Z" fill="#A5DAD8"/>
<path d="M25.1498 15.2645C25.2357 15.2467 25.3157 15.2003 25.3956 15.1537L28.7342 12.6681C29.0196 12.4595 29.0569 12.0634 28.8544 11.8066C28.6457 11.5212 28.2497 11.4839 27.9928 11.6864L24.6542 14.172C24.3688 14.3807 24.3316 14.7767 24.5341 15.0336C24.6616 15.2164 24.9205 15.3121 25.1498 15.2645Z" fill="#A5DAD8"/>
</svg>
