<svg width="38" height="38" viewBox="0 0 38 38" fill="none" xmlns="http://www.w3.org/2000/svg">
<rect width="38" height="38" rx="8" fill="#01CD74"/>
<rect x="0.5" y="0.5" width="37" height="37" rx="7.5" stroke="white" stroke-opacity="0.2"/>
<path d="M27.6695 10.6299H21.5695C20.9896 10.6299 20.5195 11.1 20.5195 11.6799V19.1299C20.5195 19.7098 20.9896 20.1799 21.5695 20.1799H27.6695C28.2494 20.1799 28.7195 19.7098 28.7195 19.1299V11.6799C28.7195 11.1 28.2494 10.6299 27.6695 10.6299Z" stroke="white" stroke-width="1.2" stroke-miterlimit="10"/>
<path d="M15.7098 9.26977H10.8898C10.0098 9.26977 9.2998 9.97977 9.2998 10.8598V17.2298C9.2998 18.1098 10.0098 18.8198 10.8898 18.8198H13.2098V18.8598C13.2098 19.5298 13.7498 20.0698 14.4198 20.0698H16.7198C17.6098 20.0698 18.3398 19.3498 18.3398 18.4498V11.8998C18.3398 10.4398 17.1598 9.25977 15.6998 9.25977L15.7098 9.26977Z" stroke="white" stroke-width="1.2" stroke-miterlimit="10"/>
<path d="M26.2467 13H22.8964C22.6381 13 22.4287 13.1621 22.4287 13.3621V15.2094C22.4287 15.4093 22.6381 15.5714 22.8964 15.5714H26.2467C26.505 15.5714 26.7144 15.4093 26.7144 15.2094V13.3621C26.7144 13.1621 26.505 13 26.2467 13Z" stroke="white" stroke-width="1.2" stroke-miterlimit="10"/>
<path d="M23.49 18.3302C23.7386 18.3302 23.94 18.1287 23.94 17.8802C23.94 17.6316 23.7386 17.4302 23.49 17.4302C23.2415 17.4302 23.04 17.6316 23.04 17.8802C23.04 18.1287 23.2415 18.3302 23.49 18.3302Z" fill="white"/>
<path d="M25.74 18.3302C25.9886 18.3302 26.19 18.1287 26.19 17.8802C26.19 17.6316 25.9886 17.4302 25.74 17.4302C25.4915 17.4302 25.29 17.6316 25.29 17.8802C25.29 18.1287 25.4915 18.3302 25.74 18.3302Z" fill="white"/>
<path d="M11.0498 18.8198V25.3298C11.0498 27.1598 12.5498 28.6698 14.3898 28.6698H14.5398C16.3698 28.6698 17.8798 27.1698 17.8798 25.3298V24.9598V23.9998" stroke="white" stroke-width="1.2" stroke-miterlimit="10"/>
<path d="M17.8799 23.9998C17.8799 23.3598 18.4099 22.8298 19.0499 22.8298C19.6899 22.8298 20.2199 23.3598 20.2199 23.9998V25.3598V25.7098V26.4598C20.2199 27.6698 21.2099 28.6598 22.4199 28.6598C23.6299 28.6598 24.6199 27.6698 24.6199 26.4598V20.0698" stroke="white" stroke-width="1.2" stroke-miterlimit="10"/>
<path d="M13.2103 18.8201V15.8001C13.2103 15.8001 13.0503 14.6801 14.7003 14.6801C16.3503 14.6801 18.3403 14.4301 18.3403 12.6001" stroke="white" stroke-width="1.2" stroke-miterlimit="10"/>
<path d="M14.6998 14.6699V13.5999C14.6998 13.5999 14.7998 12.4799 13.2098 12.4799H11.3398C11.3398 12.4799 9.2998 12.5999 9.2998 11.1299" stroke="white" stroke-width="1.2" stroke-miterlimit="10"/>
</svg>
