<svg width="38" height="38" viewBox="0 0 38 38" fill="none" xmlns="http://www.w3.org/2000/svg">
<rect width="38" height="38" rx="8" fill="white" fill-opacity="0.2"/>
<rect x="0.5" y="0.5" width="37" height="37" rx="7.5" stroke="white" stroke-opacity="0.2"/>
<path d="M14.6895 16.7798V17.4498H14.0195V16.7798H14.6895ZM15.1195 15.7798H13.5895C13.2795 15.7798 13.0195 16.0298 13.0195 16.3498V17.8798C13.0195 18.1898 13.2695 18.4498 13.5895 18.4498H15.1195C15.4295 18.4498 15.6895 18.1998 15.6895 17.8798V16.3498C15.6895 16.0398 15.4395 15.7798 15.1195 15.7798Z" fill="#A5DAD8"/>
<path d="M19.63 16.7798V17.4498H18.96V16.7798H19.63ZM20.06 15.7798H18.53C18.22 15.7798 17.96 16.0298 17.96 16.3498V17.8798C17.96 18.1898 18.21 18.4498 18.53 18.4498H20.06C20.37 18.4498 20.63 18.1998 20.63 17.8798V16.3498C20.63 16.0398 20.38 15.7798 20.06 15.7798Z" fill="#A5DAD8"/>
<path d="M24.5596 16.7798V17.4498H23.8896V16.7798H24.5596ZM24.9896 15.7798H23.4596C23.1496 15.7798 22.8896 16.0298 22.8896 16.3498V17.8798C22.8896 18.1898 23.1396 18.4498 23.4596 18.4498H24.9896C25.2996 18.4498 25.5596 18.1998 25.5596 17.8798V16.3498C25.5596 16.0398 25.3096 15.7798 24.9896 15.7798Z" fill="#A5DAD8"/>
<path d="M14.6895 20.54V21.21H14.0195V20.54H14.6895ZM15.1195 19.54H13.5895C13.2795 19.54 13.0195 19.79 13.0195 20.11V21.64C13.0195 21.95 13.2695 22.21 13.5895 22.21H15.1195C15.4295 22.21 15.6895 21.96 15.6895 21.64V20.11C15.6895 19.8 15.4395 19.54 15.1195 19.54Z" fill="#A5DAD8"/>
<path d="M19.63 20.54V21.21H18.96V20.54H19.63ZM20.06 19.54H18.53C18.22 19.54 17.96 19.79 17.96 20.11V21.64C17.96 21.95 18.21 22.21 18.53 22.21H20.06C20.37 22.21 20.63 21.96 20.63 21.64V20.11C20.63 19.8 20.38 19.54 20.06 19.54Z" fill="#A5DAD8"/>
<path d="M24.5596 20.54V21.21H23.8896V20.54H24.5596ZM24.9896 19.54H23.4596C23.1496 19.54 22.8896 19.79 22.8896 20.11V21.64C22.8896 21.95 23.1396 22.21 23.4596 22.21H24.9896C25.2996 22.21 25.5596 21.96 25.5596 21.64V20.11C25.5596 19.8 25.3096 19.54 24.9896 19.54Z" fill="#A5DAD8"/>
<path d="M14.6895 24.3101V24.9801H14.0195V24.3101H14.6895ZM15.1195 23.3101H13.5895C13.2795 23.3101 13.0195 23.5601 13.0195 23.8801V25.4101C13.0195 25.7201 13.2695 25.9801 13.5895 25.9801H15.1195C15.4295 25.9801 15.6895 25.7301 15.6895 25.4101V23.8801C15.6895 23.5701 15.4395 23.3101 15.1195 23.3101Z" fill="#A5DAD8"/>
<path d="M24.5596 24.3101V24.9801H23.8896V24.3101H24.5596ZM24.9896 23.3101H23.4596C23.1496 23.3101 22.8896 23.5601 22.8896 23.8801V25.4101C22.8896 25.7201 23.1396 25.9801 23.4596 25.9801H24.9896C25.2996 25.9801 25.5596 25.7301 25.5596 25.4101V23.8801C25.5596 23.5701 25.3096 23.3101 24.9896 23.3101Z" fill="#A5DAD8"/>
<path d="M25.6998 10.25H22.7298V12.49C22.7298 13.05 22.2698 13.51 21.7098 13.51H16.8598C16.2998 13.51 15.8398 13.05 15.8398 12.49V10.25H12.8698C11.7198 10.25 10.7998 11.18 10.7998 12.32V26.6C10.7998 27.75 11.7298 28.67 12.8698 28.67H17.0698V25.32C17.0698 24.85 17.4498 24.47 17.9198 24.47H20.6598C21.1298 24.47 21.5098 24.85 21.5098 25.32V28.67H25.7098C26.8598 28.67 27.7798 27.74 27.7798 26.6V12.33C27.7798 11.18 26.8498 10.26 25.7098 10.26L25.6998 10.25Z" stroke="#A5DAD8" stroke-width="1.5" stroke-miterlimit="10"/>
<path d="M17.8203 10.25H20.7603" stroke="#A5DAD8" stroke-width="1.5" stroke-miterlimit="10" stroke-linecap="round"/>
<path d="M19.29 11.7198V8.77979" stroke="#A5DAD8" stroke-width="1.5" stroke-miterlimit="10" stroke-linecap="round"/>
</svg>
