<svg width="38" height="38" viewBox="0 0 38 38" fill="none" xmlns="http://www.w3.org/2000/svg">
<rect width="38" height="38" rx="8" fill="white" fill-opacity="0.2"/>
<rect x="0.5" y="0.5" width="37" height="37" rx="7.5" stroke="white" stroke-opacity="0.2"/>
<path d="M13.9404 18.6401V22.9801" stroke="#A5DAD8" stroke-width="2" stroke-linecap="round"/>
<path d="M13.9404 15.02V15.74" stroke="#A5DAD8" stroke-width="2" stroke-linecap="round"/>
<path d="M23.7796 19.0001C23.7796 16.0901 26.0096 13.7101 28.8596 13.4701V12.5901C28.8596 10.6901 27.3096 9.14014 25.4096 9.14014H12.5896C10.6896 9.14014 9.13965 10.6901 9.13965 12.5901V25.4101C9.13965 27.3101 10.6896 28.8601 12.5896 28.8601H25.4096C27.3096 28.8601 28.8596 27.3101 28.8596 25.4101V24.5301C26.0196 24.2901 23.7796 21.9101 23.7796 19.0001Z" stroke="#A5DAD8" stroke-width="1.5" stroke-miterlimit="10"/>
<path d="M19.5996 9.14014V28.8601" stroke="#A5DAD8" stroke-width="1.5" stroke-miterlimit="10"/>
</svg>
