<svg width="38" height="38" viewBox="0 0 38 38" fill="none" xmlns="http://www.w3.org/2000/svg">
<rect width="38" height="38" rx="8" fill="white" fill-opacity="0.2"/>
<rect x="0.5" y="0.5" width="37" height="37" rx="7.5" stroke="white" stroke-opacity="0.2"/>
<path d="M15.9996 8.71443C13.8578 8.71443 12.1165 10.4873 12.1165 12.644C12.1165 14.8005 13.8578 16.5734 15.9996 16.5734C18.0944 16.5734 19.7945 14.8748 19.8688 12.7829V12.7827C19.8782 12.737 19.8829 12.6905 19.8829 12.644C19.8829 12.5979 19.8782 12.552 19.8693 12.5068C19.7957 10.414 18.0951 8.71436 15.9997 8.71436L15.9996 8.71443ZM15.9996 10.1047C17.3794 10.1047 18.4926 11.228 18.4926 12.644C18.4926 14.06 17.3793 15.1831 15.9996 15.1831C14.6201 15.1831 13.5068 14.06 13.5068 12.644C13.5068 11.228 14.6201 10.1047 15.9996 10.1047ZM24.5525 13.8155C22.888 13.8157 21.5389 15.2046 21.5389 16.881C21.5389 18.5578 22.8882 19.9465 24.5527 19.9465C26.1703 19.9465 27.4794 18.6326 27.5527 17.0201V17.0185C27.5619 16.9734 27.5666 16.9273 27.5666 16.881C27.5666 16.8353 27.5621 16.7897 27.5532 16.7449C27.4811 15.1311 26.1712 13.8156 24.5527 13.8154L24.5525 13.8155ZM24.5527 15.2057C25.4494 15.2057 26.1766 15.9393 26.1766 16.881C26.1766 17.8226 25.4495 18.5563 24.5527 18.5563C23.6562 18.5563 22.9291 17.8226 22.9291 16.881C22.9291 15.9395 23.6562 15.2057 24.5527 15.2057ZM15.9953 18.4731C13.6631 18.4887 11.8164 19.5631 10.6016 21.0753C9.38669 22.5875 8.76337 24.518 8.71417 26.3654V26.3837C8.71417 26.75 8.68822 27.4726 9.11823 28.1555C9.54824 28.8383 10.4494 29.3323 11.7858 29.3323H20.2143C20.4965 29.3323 20.7589 29.3099 21.0021 29.2688C21.1533 29.2873 21.3144 29.2979 21.4874 29.2979H27.6187C28.6324 29.2979 29.3727 28.9032 29.7204 28.3463C30.0681 27.7895 30.0419 27.2189 30.0419 26.9507V26.9324C30.0052 25.5405 29.5421 24.0908 28.629 22.9457C27.7162 21.8007 26.3118 20.9792 24.5578 20.9673H24.5484H24.5482C23.5262 20.9742 22.6183 21.2546 21.8619 21.7153C21.7185 21.4951 21.5643 21.2812 21.399 21.0754C20.1841 19.5632 18.3372 18.4888 16.0048 18.4731H15.9956L15.9953 18.4731ZM16 19.8635C17.9191 19.8778 19.321 20.7093 20.3146 21.946C21.1444 22.9789 21.6608 24.3084 21.8331 25.6241C21.8362 25.647 21.8391 25.67 21.8418 25.6928C21.8458 25.7259 21.8499 25.7588 21.8534 25.7917C21.8592 25.8465 21.8648 25.9013 21.8695 25.9559C21.8711 25.9741 21.8722 25.9922 21.8738 26.0105C21.8776 26.0577 21.8809 26.1049 21.8836 26.1521C21.8848 26.1703 21.8859 26.1884 21.8868 26.2063C21.8901 26.2689 21.893 26.3316 21.8948 26.394V26.3949C21.8948 26.4396 21.8944 26.4851 21.8933 26.5305V26.5347C21.8856 26.8573 21.8472 27.1896 21.7053 27.4146C21.644 27.512 21.5657 27.61 21.4373 27.6947C21.3109 27.7713 21.135 27.8359 20.8766 27.8856C20.8493 27.8907 20.8225 27.8977 20.7959 27.9062C20.6336 27.9288 20.4421 27.9415 20.2142 27.9415H11.7856C10.7457 27.9415 10.4586 27.6751 10.2944 27.4146C10.132 27.1565 10.1056 26.7575 10.1049 26.3942C10.1481 24.8411 10.6927 23.1817 11.6851 21.946C12.6787 20.7092 14.0808 19.8779 16 19.8636L16 19.8635ZM24.5523 22.3579H24.5525C25.8901 22.3684 26.8486 22.9432 27.5417 23.8124C28.2337 24.6807 28.6199 25.8609 28.6505 26.9608C28.6494 27.2254 28.6239 27.4765 28.5409 27.6098C28.4565 27.7447 28.333 27.9076 27.6185 27.9076H23.0181C23.3059 27.3037 23.2857 26.706 23.2857 26.3838C23.2859 26.3777 23.2859 26.3715 23.2857 26.3654C23.2553 25.2177 23.0031 24.0382 22.5255 22.9466C23.0826 22.5864 23.7426 22.3645 24.5523 22.358L24.5523 22.3579Z" fill="#A5DAD8"/>
</svg>
