<svg height="512" viewBox="0 0 60 60" width="512" xmlns="http://www.w3.org/2000/svg"><g id="Page-1" fill="none" fill-rule="evenodd"><g id="012---Blood-Pressure" fill="rgb(0,0,0)" fill-rule="nonzero" transform="translate(0 -1)"><path id="Shape" d="m57 43h-2v-1c0-1.6568542-1.3431458-3-3-3h-3.595c-1.1871697-.0016153-2.3133075.5258952-3.072 1.439l-3.2 3.841c-.3784482.4561006-.9403358.7200009-1.533.72h-19.6c-.5522847 0-1-.4477153-1-1v-1.184c1.1943509-.4222546 1.9947486-1.5492146 2-2.816v-11h1c2.209139 0 4-1.790861 4-4v-8c0-.5522847.4477153-1 1-1s1 .4477153 1 1v20c0 3.3137085 2.6862915 6 6 6s6-2.6862915 6-6v-.1c2.3316032-.5618232 4.2362603-2.2371433 5.091-4.478.008-.017.018-.034.025-.052.5898801-1.3810516.8907254-2.8682621.884-4.37.0638831-2.6960212-.9638429-5.3035605-2.85-7.231 1.0227319-.4266159 1.7269981-1.3822762 1.8316453-2.4854672.1046472-1.1031911-.4073694-2.1742263-1.3316453-2.7855328 2.8298811-2.0214057 4.029682-5.63949686 2.9683464-8.95127502-1.0613357-3.31177815-4.1406592-5.55852528-7.6183464-5.55852528s-6.5570107 2.24674713-7.6183464 5.55852528c-1.0613356 3.31177816.1384653 6.92986932 2.9683464 8.95127502-.9242759.6113065-1.4362925 1.6823417-1.3316453 2.7855328.1046472 1.103191.8089134 2.0588513 1.8316453 2.4854672-1.8861571 1.9274395-2.9138831 4.5349788-2.85 7.231-.0063157 1.5007283.2945213 2.9868768.884 4.367.007.018.017.035.025.052.8539322 2.2420125 2.7587266 3.9185758 5.091 4.481v.1c0 2.209139-1.790861 4-4 4s-4-1.790861-4-4v-20c0-1.6568542-1.3431458-3-3-3s-3 1.3431458-3 3v8c0 1.1045695-.8954305 2-2 2h-1v-7c-.0052514-1.2667854-.8056491-2.3937454-2-2.816v-7.184c0-4.97056275-4.0294373-9-9-9-4.97056275 0-9 4.02943725-9 9v7.184c-1.19435086.4222546-1.99474861 1.5492146-2 2.816v20c.00525139 1.2667854.80564914 2.3937454 2 2.816v5.184c.0071635 6.0721626 4.92783745 10.9928365 11 11h28.092c.3948217-.0005522.7808752.1164126 1.109.336l1.488.992c.6566892.4390336 1.4290694.6729406 2.219.672h8.985c1.4925544.0190834 2.7842473-1.0341561 3.066-2.5.1134213-.6854127-.0130213-1.3889704-.358-1.992.7190996-.444222 1.2134603-1.1752061 1.358-2.008.1134213-.6854127-.0130213-1.3889704-.358-1.992.7190996-.444222 1.2134603-1.1752061 1.358-2.008.1452913-.8727218-.1008606-1.7651597-.673-2.44l-.051-.06c.7885735-.8816518.9854714-2.1443729.502763-3.2242575-.4827085-1.0798846-1.5549029-1.7753215-2.737763-1.7757425zm-22.91-33h.91c.5522847 0 1-.44771525 1-1s-.4477153-1-1-1h-.91c.1501472-.89065623.5006299-1.73557585 1.025-2.471l.642.642c.2510745.25995658.6228779.3642126.9725073.27269716.3496295-.09151544.6226744-.3645604.7141899-.71418984.0915154-.34962943-.0127406-.72143285-.2726972-.97250732l-.642-.642c.7354242-.52437012 1.5803438-.87485276 2.471-1.025v.91c0 .55228475.4477153 1 1 1s1-.44771525 1-1v-.91c.8906562.15014724 1.7355758.50062988 2.471 1.025l-.642.642c-.2599566.25107447-.3642126.62287789-.2726972.97250732.0915155.34962944.3645604.6226744.7141899.71418984.3496294.09151544.7214328-.01274058.9725073-.27269716l.642-.642c.5243701.73542415.8748528 1.58034377 1.025 2.471h-.91c-.5522847.00000002-1 .44771526-1 1s.4477153.99999998 1 1h.91c-.1501472.8906562-.5006299 1.7355758-1.025 2.471l-.642-.642c-.3923789-.3789722-1.0160848-.3735524-1.4018186.0121814s-.3911536 1.0094397-.0121814 1.4018186l.642.642c-2.075205 1.4867033-4.866795 1.4867033-6.942 0l.642-.642c.3789722-.3923789.3735524-1.0160848-.0121814-1.4018186s-1.0094397-.3911536-1.4018186-.0121814l-.642.642c-.5243701-.7354242-.8748528-1.5803438-1.025-2.471zm2.91 9c-.5522847 0-1-.4477153-1-1s.4477153-1 1-1h6c.5522847 0 1 .4477153 1 1s-.4477153 1-1 1zm-.492 14h1.492c.5522847 0 1-.4477153 1-1s-.4477153-1-1-1h-2.511c-.2186398-.648331-.3635534-1.3192273-.432-2h2.943c.5522847 0 1-.4477153 1-1s-.4477153-1-1-1h-2.943c.0684466-.6807727.2133602-1.351669.432-2h2.511c.5522847 0 1-.4477153 1-1s-.4477153-1-1-1h-1.492c.7269831-1.2386725 2.05575-1.9995276 3.492-1.9995276s2.7650169.7608551 3.492 1.9995276h-1.492c-.5522847 0-1 .4477153-1 1s.4477153 1 1 1h2.511c.2186398.648331.3635534 1.3192273.432 2h-2.943c-.5522847 0-1 .4477153-1 1s.4477153 1 1 1h2.943c-.0684466.6807727-.2133602 1.351669-.432 2h-2.511c-.5522847 0-1 .4477153-1 1s.4477153 1 1 1h1.492c-.7269831 1.2386725-2.05575 1.9995276-3.492 1.9995276s-2.7650169-.7608551-3.492-1.9995276zm-25.508-30c3.8641657.00440864 6.9955914 3.13583434 7 7v7h-14v-7c.00440864-3.86416566 3.13583434-6.99559136 7-7zm-9 17c0-.5522847.44771525-1 1-1h16c.5522847 0 1 .4477153 1 1v20c0 .5522847-.4477153 1-1 1h-16c-.55228475 0-1-.4477153-1-1zm55 29c.2960832-.0004239.5771322.1303816.7674576.3571892s.2703573.5262964.2185424.8178108c-.1228593.4992235-.5792206.8436864-1.093.825h-.893c-.5522847 0-1 .4477153-1 1s.4477153 1 1 1c.2960832-.0004239.5771322.1303816.7674576.3571892s.2703573.5262964.2185424.8178108c-.1228593.4992235-.5792206.8436864-1.093.825h-.893c-.5522847 0-1 .4477153-1 1s.4477153 1 1 1c.2960832-.0004239.5771322.1303816.7674576.3571892s.2703573.5262964.2185424.8178108c-.1228593.4992235-.5792206.8436864-1.093.825h-8.985c-.3948217.0005522-.7808752-.1164126-1.109-.336l-1.488-.992c-.6566892-.4390336-1.4290694-.6729406-2.219-.672h-28.092c-4.96805005-.006061-8.99393904-4.0319499-9-9v-5h14v1c0 1.6568542 1.3431458 3 3 3h19.6c1.1871697.0016153 2.3133075-.5258952 3.072-1.439l3.2-3.841c.3784482-.4561006.9403358-.7200009 1.533-.72h3.595c.5522847 0 1 .4477153 1 1v1h-3c-.5522847 0-1 .4477153-1 1s.4477153 1 1 1h7c.5522847 0 1 .4477153 1 1s-.4477153 1-1 1-1 .4477153-1 1 .4477153 1 1 1z"/><path id="Shape" d="m40 10c.2651948-.00005664.5195073-.10545063.707-.293l1-1c.2599566-.25107447.3642126-.62287789.2726972-.97250732-.0915155-.34962944-.3645604-.6226744-.7141899-.71418984-.3496294-.09151544-.7214328.01274058-.9725073.27269716l-1 1c-.2859079.28599425-.3714219.71603662-.216678 1.08965456s.5192821.61725909.923678.61734544z"/><path id="Shape" d="m5 39c.55228475 0 1-.4477153 1-1v-16c0-.5522847-.44771525-1-1-1s-1 .4477153-1 1v16c0 .5522847.44771525 1 1 1z"/><path id="Shape" d="m17 39c.5522847 0 1-.4477153 1-1v-16c0-.5522847-.4477153-1-1-1s-1 .4477153-1 1v16c0 .5522847.4477153 1 1 1z"/><path id="Shape" d="m9 29h4c.5522847 0 1-.4477153 1-1s-.4477153-1-1-1h-4c-.55228475 0-1 .4477153-1 1s.44771525 1 1 1z"/><path id="Shape" d="m12 31h-2c-.55228475 0-1 .4477153-1 1s.44771525 1 1 1h2c.5522847 0 1-.4477153 1-1s-.4477153-1-1-1z"/></g></g></svg>