<svg width="35" height="35" viewBox="0 0 35 35" fill="none" xmlns="http://www.w3.org/2000/svg">
<path d="M17.5 6C23.8514 6 29 11.1486 29 17.5C29 23.8514 23.8514 29 17.5 29C11.1486 29 6 23.8514 6 17.5C6 11.1486 11.1486 6 17.5 6ZM16.7166 22.9112C17.1607 23.3647 17.8784 23.3639 18.3231 22.9055L22.127 18.9875C23.2078 17.9032 21.586 16.2766 20.505 17.3609L19.1891 18.6853C18.8894 18.9869 18.6466 18.8845 18.6466 18.4618V13.1888C18.6466 12.5551 18.1319 12.0417 17.4997 12.0417C16.8666 12.0417 16.3532 12.5586 16.3532 13.1888V18.4618C16.3532 18.8869 16.1101 18.9867 15.8106 18.6853L14.495 17.3609C13.4137 16.2766 11.7923 17.9032 12.8731 18.9875L16.7166 22.9112Z" fill="#045D98"/>
</svg>
