<svg id="Layer_3" enable-background="new 0 0 64 64" height="512" viewBox="0 0 64 64" width="512" xmlns="http://www.w3.org/2000/svg"><g><path d="m39 1h-28c-3.86 0-7 3.14-7 7v34c0 3.86 3.14 7 7 7h9v11c0 1.654 1.346 3 3 3h4c1.654 0 3-1.346 3-3v-11h9c3.86 0 7-3.14 7-7v-34c0-3.86-3.14-7-7-7zm-11 59c0 .551-.449 1-1 1h-4c-.551 0-1-.449-1-1v-11h6zm16-18c0 2.757-2.243 5-5 5h-10-8-10c-2.757 0-5-2.243-5-5v-34c0-2.757 2.243-5 5-5h28c2.757 0 5 2.243 5 5z"/><path d="m39 5h-28c-1.654 0-3 1.346-3 3v34c0 1.654 1.346 3 3 3h8v-2h-8c-.551 0-1-.449-1-1v-34c0-.551.449-1 1-1h28c.551 0 1 .449 1 1v34c0 .551-.449 1-1 1h-8v2h8c1.654 0 3-1.346 3-3v-34c0-1.654-1.346-3-3-3z"/><path d="m25 36c-2.757 0-5 2.243-5 5s2.243 5 5 5 5-2.243 5-5-2.243-5-5-5zm0 8c-1.654 0-3-1.346-3-3s1.346-3 3-3 3 1.346 3 3-1.346 3-3 3z"/><path d="m39 33v-24c0-.552-.448-1-1-1h-26c-.552 0-1 .448-1 1v24c0 .552.448 1 1 1h26c.552 0 1-.448 1-1zm-2-1h-24v-22h24z"/><path d="m19 12h2v10h-2z"/><path d="m23 22h5v-2h-4v-2h3c.552 0 1-.448 1-1v-4c0-.552-.448-1-1-1h-5v2h4v2h-3c-.552 0-1 .448-1 1v4c0 .552.448 1 1 1z"/><path d="m30 22h4c.552 0 1-.448 1-1v-8c0-.552-.448-1-1-1h-4c-.552 0-1 .448-1 1v8c0 .552.448 1 1 1zm1-8h2v6h-2z"/><path d="m30 24h2v6h-2z"/><path d="m33 24h2v6h-2z"/><path d="m32.553 34.105c-.339.17-.553.516-.553.895v6c0 .379.214.725.553.895.141.07.295.105.447.105.212 0 .423-.068.6-.2l4-3c.252-.188.4-.485.4-.8s-.148-.611-.4-.8l-4-3c-.304-.227-.708-.264-1.047-.095zm1.447 2.895 1.333 1-1.333 1z"/><path d="m16.4 34.2-4 3c-.252.189-.4.485-.4.8s.148.611.4.8l4 3c.177.132.388.2.6.2.152 0 .306-.035.447-.105.339-.17.553-.516.553-.895v-6c0-.379-.214-.725-.553-.895-.339-.169-.744-.132-1.047.095zm-.4 4.8-1.333-1 1.333-1z"/><path d="m24 57h2v2h-2z"/><path d="m24 53h2v2h-2z"/><path d="m54 57h2v2h-2z"/><path d="m54 53h2v2h-2z"/><path d="m54 49h2v2h-2z"/><path d="m54 45h2v2h-2z"/><path d="m59 23h-8c-.552 0-1 .448-1 1v8 28c0 1.654 1.346 3 3 3h4c1.654 0 3-1.346 3-3v-28-8c0-.552-.448-1-1-1zm-1 8h-2v-6h2zm0 4h-6v-2h6zm-4-10v6h-2v-6zm3 36h-4c-.551 0-1-.449-1-1v-23h6v23c0 .551-.449 1-1 1z"/><path d="m15 29h6v2h-6z"/><path d="m15 25h6v2h-6z"/><path d="m25 28c0-1.654-1.346-3-3-3v2c.551 0 1 .449 1 1s-.449 1-1 1v2c1.654 0 3-1.346 3-3z"/></g></svg>