<svg id="Icons" height="512" viewBox="0 0 74 74" width="512" xmlns="http://www.w3.org/2000/svg"><path d="m58.49 43.13a1 1 0 0 1 -1-.967 33.58 33.58 0 0 0 -.622-5.418 36.04 36.04 0 0 0 -2.054-6.826c-.055-.136-.076-.19-.094-.243-.119-.289-.27-.629-.43-.96a19.39 19.39 0 0 0 -1.753-2.993 22.677 22.677 0 0 0 -2.249-2.68c-1.487-1.526-3.781-3.345-6.3-3.373a1 1 0 0 1 .011-2h.011c2.574.029 5.166 1.365 7.7 3.972a24.5 24.5 0 0 1 2.445 2.914 21.231 21.231 0 0 1 1.933 3.3c.175.361.344.742.5 1.132.053.133.074.186.092.24a37.65 37.65 0 0 1 2.143 7.136 35.638 35.638 0 0 1 .667 5.736 1 1 0 0 1 -.967 1.032z"/><path d="m53.3 63.45a1 1 0 0 1 -.866-1.5c.459-.8.906-1.646 1.327-2.517a1 1 0 1 1 1.8.871c-.442.913-.911 1.8-1.394 2.643a1 1 0 0 1 -.867.503z"/><path d="m44.184 71.6c-.177 0-.354-.007-.532-.021a29.712 29.712 0 0 1 -10.2-2.691c-9.481-4.462-14.9-13.181-17.282-17.981a35.235 35.235 0 0 1 -1.559-3.574c-3.13-7.306-2.957-13.3.538-17.739a15.8 15.8 0 0 1 6.94-4.86 1 1 0 1 1 .692 1.876 14.063 14.063 0 0 0 -6.061 4.222c-3.007 3.823-3.09 9.131-.246 15.776a34.889 34.889 0 0 0 1.488 3.412c2.268 4.565 7.408 12.855 16.339 17.057a27.7 27.7 0 0 0 9.515 2.508 5.211 5.211 0 0 0 3.852-1.337c.253-.225.521-.495.808-.8a1 1 0 0 1 1.458 1.369c-.333.355-.644.665-.934.923a7.248 7.248 0 0 1 -4.816 1.86z"/><path d="m57.181 54.161a1.033 1.033 0 0 1 -.273-.038 1 1 0 0 1 -.69-1.235c.278-.983.509-1.987.688-2.984a1 1 0 0 1 1.969.352c-.19 1.061-.437 2.13-.732 3.176a1 1 0 0 1 -.962.729z"/><path d="m37.433 45.813a1 1 0 0 1 -.91-1.415 9.428 9.428 0 0 0 .07-7.079 10.4 10.4 0 0 1 .043-9.188c2.053-4 5.406-9.54 9.721-13.252a2.9 2.9 0 0 0 1.023-2.337 2.75 2.75 0 0 0 -1.159-2.127 2.88 2.88 0 0 0 -3.467-.021 38.168 38.168 0 0 0 -11.535 13.877 9.158 9.158 0 0 1 -4.918 4.89 3.943 3.943 0 0 0 -.956.823c-.472.474-1.118 1.124-2.113 1.959a1 1 0 0 1 -1.286-1.531c.926-.778 1.511-1.366 1.982-1.839a4.89 4.89 0 0 1 1.653-1.273 7.183 7.183 0 0 0 3.819-3.858 40.2 40.2 0 0 1 12.147-14.642 4.843 4.843 0 0 1 5.759-.068 4.794 4.794 0 0 1 2.072 3.72 4.888 4.888 0 0 1 -1.716 3.948c-4.071 3.5-7.275 8.812-9.246 12.65a8.418 8.418 0 0 0 -.009 7.432 11.323 11.323 0 0 1 -.064 8.752 1 1 0 0 1 -.91.579z"/><path d="m27.283 28.5c-.03 0-.059 0-.089 0a8.83 8.83 0 0 1 -6.47-3.155 10.517 10.517 0 0 1 -1.906-7.053l-2.973-3.454a1.737 1.737 0 0 1 .189-2.458l1.357-1.158a1.73 1.73 0 0 1 2.172-.069l2.652 1.989 1.4-1.283-1.635-2.537a1.736 1.736 0 0 1 .454-2.362l2.019-1.436a1.74 1.74 0 0 1 2.48.49l1.584 2.517 1.4-.716-.927-2.839a1.74 1.74 0 0 1 1.168-2.211l2.392-.7a1.736 1.736 0 0 1 2.093 1l1.527 3.694a5.644 5.644 0 0 1 5.787 3.341 1 1 0 0 1 -1.851.758 3.671 3.671 0 0 0 -4.362-2.017 1 1 0 0 1 -1.124-.6l-1.732-4.186-1.91.556 1.109 3.4a1 1 0 0 1 -.5 1.2l-2.979 1.52a1 1 0 0 1 -1.3-.358l-1.921-3.06-1.587 1.132 1.963 3.037a1 1 0 0 1 -.165 1.281l-2.641 2.412a1 1 0 0 1 -1.275.062l-3.146-2.361-1 .853 3.083 3.581a1 1 0 0 1 .231.8c0 .034-.482 3.562 1.458 6.007a6.925 6.925 0 0 0 5.066 2.39 1 1 0 0 1 -.086 2z"/><path d="m15.929 31.214a1.037 1.037 0 0 1 -.2-.019c-5.477-1.095-8.481-5.884-9.519-7.895a1.939 1.939 0 0 1 .425-2.325l2.845-2.575a1.955 1.955 0 0 1 2.622.011 20.229 20.229 0 0 0 8.842 4.139 1 1 0 0 1 -.382 1.963 21.921 21.921 0 0 1 -9.792-4.613l-2.791 2.559c.913 1.676 3.517 5.846 8.146 6.775a1 1 0 0 1 -.2 1.98z"/><path d="m45.73 34a.994.994 0 0 1 -.747-.335c-2.408-2.7-6.685-2.94-7.939-2.948a1 1 0 0 1 .007-2h.006c1.874.012 6.543.389 9.42 3.618a1 1 0 0 1 -.747 1.665z"/><path d="m21.969 67.936h-3.489a2.426 2.426 0 0 1 -2.423-2.423v-15.05a1 1 0 0 1 2 0v15.05a.424.424 0 0 0 .423.423h3.489a.424.424 0 0 0 .424-.423v-5.566a1 1 0 0 1 2 0v5.566a2.426 2.426 0 0 1 -2.424 2.423z"/><path d="m32.447 72h-2.68a2.426 2.426 0 0 1 -2.423-2.423v-4.977a1 1 0 1 1 2 0v4.981a.423.423 0 0 0 .423.423h2.68a.423.423 0 0 0 .423-.423v-1.6a1 1 0 0 1 2 0v1.6a2.426 2.426 0 0 1 -2.423 2.419z"/><path d="m55.188 29.279a1 1 0 0 1 -.615-1.789l6.354-4.944a1.334 1.334 0 0 0 .244-1.851l-1.571-2.082a1.332 1.332 0 0 0 -1.878-.246l-6.108 4.765a1 1 0 0 1 -1.231-1.577l6.109-4.765a3.329 3.329 0 0 1 4.7.617l1.575 2.082a3.343 3.343 0 0 1 -.611 4.635l-6.356 4.944a1 1 0 0 1 -.612.211z"/><path d="m57.847 37.554a1 1 0 0 1 -.166-1.986l7.216-1.22a1.332 1.332 0 0 0 1.091-1.521l-.412-2.576a1.329 1.329 0 0 0 -1.534-1.1l-8.142 1.372a1 1 0 0 1 -.332-1.973l8.143-1.372a3.329 3.329 0 0 1 3.84 2.756l.413 2.576a3.337 3.337 0 0 1 -2.732 3.809l-7.217 1.221a.968.968 0 0 1 -.168.014z"/><path d="m28.1 51.392a1 1 0 0 1 -.939-1.343c.88-2.417-.935-5.007-.954-5.032a7.133 7.133 0 0 1 -1.579-5.484 6.145 6.145 0 0 1 2.424-3.767.978.978 0 0 1 .152-.084c2.419-1.063 2.455-2.639 2.455-2.705a1.01 1.01 0 0 1 .983-1.007.984.984 0 0 1 1.016.949c0 .12.07 2.909-3.549 4.549a4.151 4.151 0 0 0 -1.509 2.442 5.263 5.263 0 0 0 1.236 3.937c.1.141 2.459 3.464 1.211 6.886a1 1 0 0 1 -.947.659z"/><path d="m33.3 49.924a1 1 0 0 1 -.994-.9c-.233-2.386-4.8-2.736-4.845-2.739a1 1 0 0 1 .12-2c.258.015 6.314.421 6.715 4.541a1 1 0 0 1 -.9 1.092c-.03.004-.063.006-.096.006z"/><path d="m22.441 48.1a1 1 0 0 1 -.99-.874 6.962 6.962 0 0 1 1.025-4.371c.777-1.781 1.87-3.965 2.744-4.48a1 1 0 1 1 1.015 1.725 17.721 17.721 0 0 0 -1.964 3.646 1.066 1.066 0 0 1 -.1.183 4.938 4.938 0 0 0 -.731 3.054 1 1 0 0 1 -.873 1.111 1.013 1.013 0 0 1 -.126.006z"/><path d="m48.117 61.013h-.074a1 1 0 0 1 -.925-1.071c.118-1.619-.762-2.1-.77-2.1a14.1 14.1 0 0 1 -1.223-.827 5.608 5.608 0 0 1 -2.25-4.514 5.5 5.5 0 0 1 2.192-4.438l.08-.06a3.354 3.354 0 0 0 .7-.674 4.191 4.191 0 0 0 .309-4.491 5.219 5.219 0 0 1 -.614-4.153 1 1 0 0 1 1.9.639 3.222 3.222 0 0 0 .433 2.483 6.177 6.177 0 0 1 -.426 6.725 5.3 5.3 0 0 1 -1.115 1.081 3.558 3.558 0 0 0 -1.458 2.886 3.628 3.628 0 0 0 1.453 2.919c.3.229.636.461.985.676a3.984 3.984 0 0 1 1.8 4 1 1 0 0 1 -.997.919z"/><path d="m43.875 62.636a1 1 0 0 1 -.824-.433c-4.827-7.017.445-12.189.5-12.24a1 1 0 0 1 1.385 1.443c-.169.164-4.08 4.076-.237 9.663a1 1 0 0 1 -.257 1.39.988.988 0 0 1 -.567.177z"/><path d="m38.408 58.629a1 1 0 0 1 -.957-.719 6.838 6.838 0 0 1 .7-4.931c1.156-2.043 3.338-3.5 6.486-4.337a1 1 0 0 1 .513 1.933c-2.591.687-4.353 1.817-5.24 3.359a4.79 4.79 0 0 0 -.531 3.426 1 1 0 0 1 -.966 1.269z"/></svg>