<?xml version="1.0"?>
<svg xmlns="http://www.w3.org/2000/svg" viewBox="0 0 512 512" width="512" height="512"><g id="outline"><path d="M277.657,258.343a8,8,0,0,0-11.314,11.314l8,8a8,8,0,0,0,11.314-11.314Z"/><path d="M234.343,258.343l-8,8a8,8,0,0,0,11.314,11.314l8-8a8,8,0,1,0-11.314-11.314Z"/><path d="M489.8,456.205,387.222,432.533l-10.111-6.74A67.579,67.579,0,0,0,384,396a52.059,52.059,0,0,1,52-52h52a8,8,0,0,0,0-16H436a68.077,68.077,0,0,0-68,68,51.685,51.685,0,0,1-4.36,20.812l-20.227-13.484-5.2-36.381a97.845,97.845,0,0,0,8.384-16.226,152.109,152.109,0,0,0,37.33-95.513A40.067,40.067,0,0,0,416,216V200a40.068,40.068,0,0,0-32-39.195V144c0-33.853-13.415-64.67-37.771-86.772C322.639,35.8,290.6,24,256,24s-66.629,11.8-90.229,33.226C141.414,79.34,128,110.157,128,144v16.805A40.068,40.068,0,0,0,96,200v16a40.067,40.067,0,0,0,32.072,39.208,152.109,152.109,0,0,0,37.33,95.513,97.845,97.845,0,0,0,8.384,16.226l-5.2,36.381-43.809,29.205L22.2,456.205A8,8,0,0,0,16,464v24a8,8,0,0,0,8,8H488a8,8,0,0,0,8-8V464A8,8,0,0,0,489.8,456.205ZM384,177.371A24.042,24.042,0,0,1,400,200v16a24.042,24.042,0,0,1-16,22.629ZM128,238.629A24.042,24.042,0,0,1,112,216V200a24.042,24.042,0,0,1,16-22.629ZM355.032,430.3a51.962,51.962,0,0,1-88.67-18.8A97.172,97.172,0,0,0,324.474,383.9l3.606,25.234a8,8,0,0,0,3.482,5.524ZM368,248v2.79a136.157,136.157,0,0,1-13.695,59.543A159.53,159.53,0,0,0,340.286,239,77.692,77.692,0,0,0,368,228.812ZM144,144c0-29.275,11.552-55.885,32.526-74.928C197.176,50.325,225.4,40,256,40s58.831,10.325,79.474,29.074C356.448,88.107,368,114.717,368,144v65.189l-2.112,1.666A61.461,61.461,0,0,1,332.844,223.8l-.223-.445a85.664,85.664,0,0,0-153.242,0l-.223.445a61.461,61.461,0,0,1-33.044-12.945L144,209.189ZM157.7,310.334A136.141,136.141,0,0,1,144,250.79V228.812A77.69,77.69,0,0,0,171.715,239,159.522,159.522,0,0,0,157.7,310.334Zm31.194-70.223,4.8-9.6a69.666,69.666,0,0,1,124.622,0l4.8,9.6a143.92,143.92,0,0,1,13.592,86.7A81.625,81.625,0,0,1,264,395.656V392a8,8,0,0,0,7.761-6.06l6.846-27.385A16.01,16.01,0,0,0,288,344V304a8,8,0,0,0-8-8H232a8,8,0,0,0-8,8v40a16.011,16.011,0,0,0,9.393,14.555l6.846,27.385A8,8,0,0,0,248,392v3.656a81.625,81.625,0,0,1-72.7-68.841A143.92,143.92,0,0,1,188.889,240.111ZM240,344V312h32l.008,32H240Zm21.754,16-4,16h-3.508l-4-16ZM480,480H32v-9.636L129.8,447.8a8,8,0,0,0,2.639-1.139l48-32a8,8,0,0,0,3.482-5.524l3.606-25.234a97.107,97.107,0,0,0,62.36,27.961,67.961,67.961,0,0,0,118.555,27.383l11.121,7.414A8,8,0,0,0,382.2,447.8L480,470.364Z"/><path d="M200,328a8,8,0,0,0,8-8V290.123a69.117,69.117,0,0,1,7.26-30.754l.973-1.948A69.023,69.023,0,0,1,256,222.935a69.021,69.021,0,0,1,39.767,34.487l.973,1.946A69.124,69.124,0,0,1,304,290.123V320a8,8,0,0,0,16,0V290.123a85.208,85.208,0,0,0-8.949-37.911l-.974-1.946a85.048,85.048,0,0,0-51.811-43.388,8,8,0,0,0-4.532,0,85.05,85.05,0,0,0-51.811,43.387l-.974,1.948A85.2,85.2,0,0,0,192,290.123V320A8,8,0,0,0,200,328Z"/></g></svg>
