<svg width="24" height="24" viewBox="0 0 24 24" fill="none" xmlns="http://www.w3.org/2000/svg">
<path d="M10.0139 1.1538L10.0136 1.15312H10.0831C12.6396 1.15312 14.7235 3.23209 14.7235 5.78609C14.7235 7.39858 13.8927 8.82201 12.6371 9.65304C13.0851 9.80877 13.5143 10.0038 13.9203 10.2353C14.0589 10.3139 14.1607 10.4444 14.2028 10.5983M10.0139 1.1538L14.1546 10.6115M10.0139 1.1538C7.48916 1.19094 5.4427 3.25516 5.4427 5.78625C5.4427 7.39878 6.27355 8.82227 7.52916 9.65326M10.0139 1.1538L10.0305 1.20359C7.52569 1.23188 5.4927 3.2773 5.4927 5.78625C5.4927 7.39494 6.32868 8.81365 7.58897 9.63269C7.569 9.63947 7.54906 9.64633 7.52916 9.65326M14.2028 10.5983L14.1546 10.6115M14.2028 10.5983C14.2028 10.5983 14.2028 10.5983 14.2028 10.5983L14.1546 10.6115M14.2028 10.5983C14.245 10.752 14.2241 10.9163 14.145 11.0546L14.1449 11.0547C14.0657 11.1925 13.9351 11.2933 13.7815 11.3348C13.628 11.3763 13.4644 11.3551 13.3267 11.276M14.1546 10.6115C14.1932 10.7524 14.1741 10.903 14.1016 11.0298C14.0289 11.1561 13.9092 11.2485 13.7685 11.2866C13.6278 11.3246 13.4779 11.3051 13.3515 11.2326M13.3267 11.276C13.3267 11.276 13.3267 11.276 13.3268 11.276L13.3515 11.2326M13.3267 11.276C12.3724 10.7321 11.269 10.422 10.0832 10.422C6.45367 10.422 3.5513 13.3201 3.5513 16.9422V18.7334M13.3267 11.276L13.3515 11.2326M13.3515 11.2326L3.5513 18.7334M3.5513 18.7334V18.7834H3.5013V18.7334L2.40235 16.9422C2.40235 13.5765 4.56624 10.7221 7.58218 9.68784C7.56442 9.67643 7.54675 9.6649 7.52916 9.65326M3.5513 18.7334H9.4059H9.4061C9.73521 18.7348 10.0018 19.0012 10.0031 19.3305V19.3305C10.0036 19.4895 9.94109 19.6422 9.82919 19.7549C9.71715 19.8678 9.56498 19.9315 9.4061 19.9322L9.40589 19.9322H2.94956H2.94936C2.6183 19.9308 2.35107 19.6615 2.35235 19.3305M2.35235 19.3305C2.35235 19.3305 2.35235 19.3305 2.35235 19.3304L2.40235 19.3306H2.35235V19.3305ZM2.35235 19.3305V16.9422C2.35235 13.5682 4.51285 10.7048 7.52916 9.65326M12.8712 20.2273L12.8712 20.2273C13.669 21.1039 14.8212 21.6531 16.1058 21.6531C18.5242 21.6531 20.4681 19.708 20.4681 17.2951C20.4681 14.8908 18.5379 12.951 16.1316 12.9373L16.1316 12.9373H16.1058C13.9143 12.9373 12.1085 14.5346 11.7892 16.6299C11.7892 16.6299 11.7892 16.6299 11.7892 16.6299L12.8712 20.2273ZM12.8712 20.2273C12.8651 20.2206 12.8591 20.214 12.8531 20.2075C12.8354 20.1881 12.8181 20.1694 12.8012 20.1499C12.2529 19.5178 11.8852 18.7251 11.7744 17.8512C11.7698 17.8145 11.7654 17.7784 11.7616 17.7419L12.8712 20.2273ZM15.5043 15.3647V15.3646C15.5048 15.2055 15.5685 15.0533 15.6814 14.9414C15.7943 14.8294 15.947 14.7668 16.106 14.7675C16.4351 14.7688 16.7017 15.0352 16.7031 15.3645L16.7031 15.3647V16.6978H18.0359H18.0361V16.7478C18.1818 16.7472 18.3217 16.8045 18.4252 16.9072L15.5043 15.3647ZM15.5043 15.3647V16.6978M15.5043 15.3647V16.6978M11.7404 17.1827C11.7395 17.2199 11.7394 17.2571 11.7394 17.2952C11.7394 17.446 11.7468 17.595 11.7616 17.7418L11.7404 17.1827ZM11.7404 17.1827C11.7404 17.1827 11.7404 17.1827 11.7404 17.1827L11.6904 17.1815L11.7404 17.1827ZM15.5043 16.6978H14.1714H15.5043ZM12.584 9.68764C12.5638 9.68071 12.5435 9.67387 12.5232 9.6671C12.5413 9.65569 12.5593 9.64416 12.5772 9.6325L12.584 9.68764ZM10.0831 2.35204C11.9917 2.35204 13.5247 3.8822 13.5247 5.78605C13.5247 7.68996 11.9917 9.22329 10.0831 9.22329C8.17454 9.22329 6.64156 7.68992 6.64156 5.78605C6.64156 3.8822 8.17448 2.35204 10.0831 2.35204ZM16.1058 11.7374C13.0397 11.7374 10.5397 14.2322 10.5397 17.2953C10.5397 20.3583 13.0399 22.8531 16.1058 22.8531C19.172 22.8531 21.6668 20.3583 21.6668 17.2953C21.6668 14.2322 19.1721 11.7374 16.1058 11.7374Z" fill="#444444" stroke="#444444" stroke-width="0.1"/>
</svg>
