<svg height="512" viewBox="0 0 128 128" width="512" xmlns="http://www.w3.org/2000/svg"><g><path d="m93.142 43.25h-7.048v-4.125a1.749 1.749 0 0 0 -1.75-1.75h-1.207a21.746 21.746 0 0 0 -43.479.747v34h-1.251a1.75 1.75 0 0 0 -1.75 1.75v4.252h-2.893a5.236 5.236 0 0 0 -5.231 5.229v26.521a1.75 1.75 0 0 0 1.75 1.75h22.25a1.749 1.749 0 0 0 1.75-1.75v-26.518a5.235 5.235 0 0 0 -5.229-5.229h-2.9v-4.252a1.75 1.75 0 0 0 -1.75-1.75h-1.246v-34a18.237 18.237 0 0 1 36.46-.747h-1.149a1.749 1.749 0 0 0 -1.75 1.75v4.122h-7.048a6.333 6.333 0 0 0 -6.325 6.325v25.576a6.862 6.862 0 0 0 1.966 4.823 3.374 3.374 0 0 1 .969 2.375v23.181a6.1 6.1 0 0 0 6.1 6.1h18.054a6.1 6.1 0 0 0 6.1-6.1v-23.181a3.374 3.374 0 0 1 .969-2.375 6.858 6.858 0 0 0 1.967-4.823v-25.576a6.333 6.333 0 0 0 -6.329-6.325zm-55.671 60.939v-9a3.938 3.938 0 0 1 7.875 0v9a3.938 3.938 0 1 1 -7.875 0zm13.312-20.833v24.771h-3.077a7.382 7.382 0 0 0 1.14-3.938v-9a7.438 7.438 0 0 0 -14.875 0v9a7.39 7.39 0 0 0 1.139 3.938h-3.077v-24.771a1.732 1.732 0 0 1 1.731-1.729h15.29a1.731 1.731 0 0 1 1.729 1.729zm-10.626-5.229v-2.5h2.5v2.5zm40.062-37.252h2.375v2.375h-2.375zm15.748 34.276a3.376 3.376 0 0 1 -.967 2.375 6.855 6.855 0 0 0 -1.967 4.823v23.181a2.6 2.6 0 0 1 -2.6 2.6h-18.055a2.6 2.6 0 0 1 -2.6-2.6v-23.181a6.855 6.855 0 0 0 -1.967-4.823 3.375 3.375 0 0 1 -.968-2.375v-25.576a2.828 2.828 0 0 1 2.825-2.825h23.474a2.829 2.829 0 0 1 2.825 2.825z"/><path d="m90.344 50.375h-17.875a1.749 1.749 0 0 0 -1.75 1.75v23.25a1.749 1.749 0 0 0 1.75 1.75h17.875a1.749 1.749 0 0 0 1.75-1.75v-23.25a1.749 1.749 0 0 0 -1.75-1.75zm-1.75 23.25h-14.375v-19.75h14.375z"/><path d="m81.406 85.333a8.625 8.625 0 1 0 8.625 8.625 8.635 8.635 0 0 0 -8.625-8.625zm0 13.75a5.125 5.125 0 1 1 5.125-5.125 5.131 5.131 0 0 1 -5.125 5.125z"/></g></svg>