<svg width="24" height="24" viewBox="0 0 24 24" fill="none" xmlns="http://www.w3.org/2000/svg">
<path d="M7.6363 4.2455V3H5V7.69137C4.99963 8.78394 5.39455 9.83975 6.11185 10.6639C6.82914 11.488 7.82038 12.0248 8.90256 12.1752V17.3232C8.90256 18.5124 9.37495 19.6529 10.2158 20.4937C11.0567 21.3346 12.1972 21.807 13.3863 21.807C14.5755 21.807 15.716 21.3346 16.5569 20.4937C17.3977 19.6529 17.8701 18.5124 17.8701 17.3232V14.5416C18.4174 14.3909 18.8915 14.0468 19.2045 13.5732C19.5174 13.0995 19.648 12.5285 19.5719 11.9659C19.4959 11.4033 19.2184 10.8874 18.7909 10.5138C18.3635 10.1403 17.8151 9.93441 17.2474 9.93441C16.6797 9.93441 16.1313 10.1403 15.7038 10.5138C15.2764 10.8874 14.9989 11.4033 14.9228 11.9659C14.8468 12.5285 14.9773 13.0995 15.2903 13.5732C15.6032 14.0468 16.0773 14.3909 16.6246 14.5416V17.3232C16.6246 17.7485 16.5409 18.1696 16.3781 18.5624C16.2154 18.9553 15.9769 19.3123 15.6762 19.613C15.3755 19.9137 15.0185 20.1523 14.6256 20.315C14.2327 20.4777 13.8116 20.5615 13.3863 20.5615C12.9611 20.5615 12.54 20.4777 12.1471 20.315C11.7542 20.1523 11.3972 19.9137 11.0965 19.613C10.7958 19.3123 10.5573 18.9553 10.3946 18.5624C10.2318 18.1696 10.1481 17.7485 10.1481 17.3232V12.1752C11.2264 12.0202 12.2127 11.4815 12.9258 10.6578C13.6389 9.83412 14.0309 8.78083 14.0298 7.69137V3H11.3935V4.2455H12.7844V7.69137C12.7844 8.55848 12.4399 9.39007 11.8268 10.0032C11.2136 10.6163 10.382 10.9608 9.51493 10.9608C8.64782 10.9608 7.81623 10.6163 7.20309 10.0032C6.58995 9.39007 6.2455 8.55848 6.2455 7.69137V4.2455H7.6363ZM16.1264 12.2789C16.1264 12.0614 16.191 11.8486 16.3118 11.6677C16.4327 11.4868 16.6046 11.3458 16.8056 11.2625C17.0066 11.1792 17.2278 11.1574 17.4413 11.1999C17.6547 11.2424 17.8507 11.3471 18.0046 11.501C18.1584 11.6549 18.2632 11.8509 18.3057 12.0643C18.3481 12.2777 18.3263 12.4989 18.2431 12.7C18.1598 12.901 18.0188 13.0728 17.8379 13.1937C17.6569 13.3146 17.4442 13.3791 17.2266 13.3791C16.9348 13.3791 16.655 13.2632 16.4487 13.0569C16.2423 12.8506 16.1264 12.5707 16.1264 12.2789Z" fill="#444444"/>
</svg>
