<svg width="38" height="38" viewBox="0 0 38 38" fill="none" xmlns="http://www.w3.org/2000/svg">
<rect x="0.5" y="0.5" width="37" height="37" rx="6.5" fill="#E1FFF2" stroke="#A3E8CA"/>
<path d="M30.7769 12.9836L30.7769 12.9835C30.607 12.8805 30.3967 12.8764 30.2232 12.9733L30.2232 12.9733L24.791 16.0102V14.2483V14.2482C24.7894 12.7848 23.6308 11.5969 22.1987 11.5953H22.1986L9.54237 11.5953L9.54231 11.5953C8.11017 11.5969 6.95162 12.7848 6.95 14.2482V14.2483L6.95 24.5261L6.95 24.5262C6.95162 25.9896 8.11017 27.1775 9.54231 27.1791H9.54237H22.1986H22.1987C23.6308 27.1775 24.7894 25.9896 24.791 24.5262V24.5261V22.7978L30.2234 25.8347C30.3967 25.9315 30.6072 25.9277 30.7769 25.8246L30.7769 25.8246C30.9467 25.7214 31.05 25.5348 31.05 25.3341V13.4739C31.05 13.2729 30.9464 13.0865 30.7769 12.9836ZM23.6736 24.5263C23.6729 25.3621 23.0117 26.0372 22.1982 26.0381H9.54243C8.72894 26.0372 8.06791 25.3621 8.06695 24.5263V14.2483C8.06791 13.4127 8.72895 12.7375 9.54243 12.7365H22.1986C23.0119 12.7375 23.6731 13.4127 23.674 14.2483L23.6736 24.5263ZM24.791 17.3109L29.9331 14.4366V24.3715L24.791 21.497V17.3109Z" fill="#01CD74" stroke="#01CD74" stroke-width="0.1"/>
</svg>
