<svg width="38" height="38" viewBox="0 0 38 38" fill="none" xmlns="http://www.w3.org/2000/svg">
<rect width="38" height="38" rx="7" fill="#1261A0"/>
<path d="M27.9994 23.2252V26.0854C28.0005 26.3509 27.946 26.6138 27.8394 26.8571C27.7328 27.1004 27.5765 27.3188 27.3804 27.4983C27.1844 27.6778 26.9529 27.8144 26.7009 27.8995C26.4489 27.9846 26.1818 28.0162 25.9168 27.9923C22.9772 27.6735 20.1534 26.671 17.6725 25.0653C15.3643 23.6014 13.4073 21.6484 11.9406 19.3447C10.3261 16.8574 9.32133 14.0256 9.00775 11.0786C8.98388 10.8149 9.01528 10.5492 9.09994 10.2983C9.18461 10.0474 9.32069 9.81688 9.49952 9.62136C9.67835 9.42585 9.89601 9.26963 10.1386 9.16267C10.3813 9.05571 10.6436 9.00034 10.9088 9.00009H13.7748C14.2384 8.99554 14.6879 9.15939 15.0394 9.4611C15.3909 9.76282 15.6205 10.1818 15.6854 10.64C15.8064 11.5553 16.0307 12.4541 16.3541 13.3191C16.4827 13.6603 16.5105 14.0312 16.4343 14.3878C16.3581 14.7443 16.1811 15.0716 15.9242 15.3308L14.711 16.5417C16.0709 18.9286 18.0512 20.9049 20.4429 22.2622L21.6561 21.0513C21.9159 20.795 22.2438 20.6184 22.601 20.5423C22.9583 20.4663 23.3299 20.494 23.6718 20.6223C24.5386 20.9451 25.4391 21.169 26.3563 21.2897C26.8203 21.355 27.2441 21.5883 27.5471 21.9452C27.8501 22.302 28.011 22.7576 27.9994 23.2252Z" stroke="white" stroke-width="1.4" stroke-linecap="round" stroke-linejoin="round"/>
</svg>
