<svg width="38" height="38" viewBox="0 0 38 38" fill="none" xmlns="http://www.w3.org/2000/svg">
<rect width="38" height="38" rx="7" fill="#CAE6FF"/>
<path d="M13.6818 17.0154C13.404 17.0154 13.1768 16.7881 13.1768 16.5104V8.50507C13.1768 8.22728 13.404 8 13.6818 8H23.1265C23.4043 8 23.6316 8.22728 23.6316 8.50507V16.4346C23.6316 16.7124 23.4043 16.9397 23.1265 16.9397C22.8488 16.9397 22.6215 16.7124 22.6215 16.4346V9.01013H14.1869V16.5104C14.1869 16.7881 13.9596 17.0154 13.6818 17.0154Z" fill="#2196F3"/>
<path d="M28.2532 16.5863H25.6269C25.3491 16.5863 25.1218 16.359 25.1218 16.0812C25.1218 15.8035 25.3491 15.5762 25.6269 15.5762H28.2532C28.531 15.5762 28.7583 15.8035 28.7583 16.0812C28.7583 16.359 28.531 16.5863 28.2532 16.5863Z" fill="#2196F3"/>
<path d="M11.1819 16.5863H8.50507C8.22728 16.5863 8 16.359 8 16.0812C8 15.8035 8.22728 15.5762 8.50507 15.5762H11.1819C11.4597 15.5762 11.687 15.8035 11.687 16.0812C11.687 16.359 11.4597 16.5863 11.1819 16.5863Z" fill="#2196F3"/>
<path d="M20.955 12.1923H15.8538C15.576 12.1923 15.3488 11.965 15.3488 11.6872C15.3488 11.4094 15.576 11.1821 15.8538 11.1821H20.9297C21.2075 11.1821 21.4348 11.4094 21.4348 11.6872C21.4348 11.965 21.2328 12.1923 20.955 12.1923Z" fill="#2196F3"/>
<path d="M20.9552 14.7928H15.8541C15.5763 14.7928 15.349 14.5656 15.349 14.2878C15.349 14.01 15.5763 13.7827 15.8541 13.7827H20.93C21.2078 13.7827 21.435 14.01 21.435 14.2878C21.435 14.5656 21.233 14.7928 20.9552 14.7928Z" fill="#2196F3"/>
<circle cx="24.0417" cy="24.0986" r="5.5" stroke="#2196F3"/>
<path fill-rule="evenodd" clip-rule="evenodd" d="M19.3578 27.8488C19.1013 27.5289 18.877 27.1821 18.6896 26.8134H9.01013V13.9847H11.1819C11.4597 13.9847 11.687 13.7575 11.687 13.4797C11.687 13.2019 11.4597 12.9746 11.1819 12.9746H8.50507C8.22728 12.9746 8 13.2019 8 13.4797V27.3437C8 27.6215 8.22728 27.8488 8.50507 27.8488H19.3578ZM28.8339 20.4877C28.5407 20.0992 28.2013 19.7474 27.8238 19.4405V13.9847H25.652C25.3742 13.9847 25.147 13.7575 25.147 13.4797C25.147 13.2019 25.3742 12.9746 25.652 12.9746H28.3289C28.6067 12.9746 28.8339 13.2019 28.8339 13.4797V20.4877Z" fill="#2196F3"/>
<path fill-rule="evenodd" clip-rule="evenodd" d="M26.132 18.473V8.50507C26.132 8.22728 25.9047 8 25.6269 8H11.1821C10.9043 8 10.677 8.22728 10.677 8.50507V24.8692C10.677 25.147 10.9043 25.3742 11.1821 25.3742H18.1776C18.1067 25.0467 18.0625 24.7092 18.0475 24.3641H11.6871V9.01013H25.1219V18.1958C25.47 18.2591 25.8076 18.3524 26.132 18.473Z" fill="#2196F3"/>
<path fill-rule="evenodd" clip-rule="evenodd" d="M26.132 18.4729V15.7526C26.132 15.6011 26.0562 15.4496 25.93 15.3486C25.8037 15.2476 25.6269 15.2223 25.4754 15.2728C23.9855 15.7274 20.8793 16.6617 18.051 16.6365C15.732 16.6365 13.29 15.9225 11.6486 15.4426C11.6276 15.4365 11.6068 15.4304 11.5861 15.4243L11.3336 15.3486C11.1821 15.2981 11.0053 15.3233 10.879 15.4243C10.7528 15.5253 10.677 15.6769 10.677 15.8284V24.8691C10.677 25.1468 10.9043 25.3741 11.1821 25.3741H18.1776C18.1067 25.0466 18.0625 24.7091 18.0475 24.364H11.6871H11.6619V16.5102C13.3538 16.99 15.7277 17.6214 18.0257 17.6466C20.652 17.6719 23.4299 16.9143 25.1219 16.4345V18.1957C25.47 18.259 25.8076 18.3523 26.132 18.4729Z" fill="#2196F3"/>
<line x1="20.9418" y1="24.1133" x2="27.1418" y2="24.1133" stroke="#2196F3" stroke-linecap="round"/>
<line x1="24.056" y1="27.1992" x2="24.056" y2="20.9992" stroke="#2196F3" stroke-linecap="round"/>
<path d="M15.6832 23.3543C15.1024 23.3543 14.5721 23.0513 14.269 22.5462C13.966 22.0411 13.966 21.4351 14.269 20.93L15.2287 19.2633C15.3297 19.1118 15.4812 19.0107 15.658 19.0107C15.8347 19.0107 16.0115 19.1118 16.0873 19.2633L17.0469 20.93C17.3499 21.4351 17.3499 22.0411 17.0469 22.5462C16.7944 23.0513 16.264 23.3543 15.6832 23.3543ZM15.1529 21.4351C15.0014 21.7128 15.1024 21.9401 15.1529 22.0411C15.2034 22.1421 15.3549 22.3442 15.6832 22.3442C16.0115 22.3442 16.163 22.1421 16.2135 22.0411C16.264 21.9401 16.365 21.7128 16.2135 21.4351L15.6832 20.5259L15.1529 21.4351Z" fill="#2196F3"/>
</svg>
