<svg width="38" height="38" viewBox="0 0 38 38" fill="none" xmlns="http://www.w3.org/2000/svg">
<rect width="38" height="38" rx="7" fill="#1261A0"/>
<path d="M30.7769 12.9834L30.7769 12.9834C30.607 12.8804 30.3967 12.8763 30.2232 12.9732L30.2232 12.9732L24.791 16.01V14.2482V14.2481C24.7894 12.7847 23.6308 11.5968 22.1987 11.5951H22.1986L9.54237 11.5951L9.54231 11.5951C8.11017 11.5968 6.95162 12.7847 6.95 14.2481V14.2482L6.95 24.526L6.95 24.5261C6.95162 25.9895 8.11017 27.1774 9.54231 27.179H9.54237H22.1986H22.1987C23.6308 27.1774 24.7894 25.9895 24.791 24.5261V24.526V22.7977L30.2234 25.8345C30.3967 25.9314 30.6072 25.9276 30.7769 25.8245L30.7769 25.8245C30.9467 25.7213 31.05 25.5347 31.05 25.3339V13.4738C31.05 13.2728 30.9464 13.0864 30.7769 12.9834ZM23.6736 24.5262C23.6729 25.3619 23.0117 26.037 22.1982 26.038H9.54243C8.72894 26.037 8.06791 25.3619 8.06695 24.5261V14.2482C8.06791 13.4126 8.72895 12.7373 9.54243 12.7363H22.1986C23.0119 12.7373 23.6731 13.4126 23.674 14.2482L23.6736 24.5262ZM24.791 17.3108L29.9331 14.4365V24.3714L24.791 21.4969V17.3108Z" fill="white" stroke="white" stroke-width="0.1"/>
</svg>
