<svg width="38" height="38" viewBox="0 0 38 38" fill="none" xmlns="http://www.w3.org/2000/svg">
<rect x="0.5" y="0.5" width="37" height="37" rx="6.5" fill="#E1FFF2" stroke="#A3E8CA"/>
<path d="M25.667 27H11.0003V12.3333H19.8137L21.147 11H11.0003C10.6467 11 10.3076 11.1405 10.0575 11.3905C9.80747 11.6406 9.66699 11.9797 9.66699 12.3333V27C9.66699 27.3536 9.80747 27.6928 10.0575 27.9428C10.3076 28.1929 10.6467 28.3333 11.0003 28.3333H25.667C26.0206 28.3333 26.3598 28.1929 26.6098 27.9428C26.8598 27.6928 27.0003 27.3536 27.0003 27V17L25.667 18.3333V27Z" fill="#01CD74"/>
<path d="M29.3536 10.8941L27.107 8.64744C27.0073 8.54746 26.8888 8.46814 26.7584 8.41402C26.628 8.35989 26.4882 8.33203 26.347 8.33203C26.2058 8.33203 26.066 8.35989 25.9355 8.41402C25.8051 8.46814 25.6867 8.54746 25.587 8.64744L16.447 17.8408L15.707 21.0474C15.6754 21.2029 15.6788 21.3634 15.7167 21.5174C15.7546 21.6714 15.8262 21.8151 15.9262 21.9381C16.0263 22.0611 16.1524 22.1605 16.2955 22.2289C16.4386 22.2974 16.595 22.3333 16.7536 22.3341C16.8356 22.3431 16.9183 22.3431 17.0003 22.3341L20.2336 21.6208L29.3536 12.4141C29.4536 12.3144 29.5329 12.196 29.5871 12.0655C29.6412 11.9351 29.669 11.7953 29.669 11.6541C29.669 11.5129 29.6412 11.3731 29.5871 11.2427C29.5329 11.1123 29.4536 10.9938 29.3536 10.8941V10.8941ZM19.5403 20.3874L17.1003 20.9274L17.667 18.5074L24.547 11.5808L26.427 13.4608L19.5403 20.3874ZM27.1803 12.7074L25.3003 10.8274L26.3336 9.77411L28.227 11.6674L27.1803 12.7074Z" fill="#01CD74"/>
</svg>
