<svg width="38" height="38" viewBox="0 0 38 38" fill="none" xmlns="http://www.w3.org/2000/svg">
<rect width="38" height="38" rx="7" fill="#1261A0"/>
<path d="M25.6666 27H11V12.3333H19.8133L21.1466 11H11C10.6463 11 10.3072 11.1405 10.0572 11.3905C9.8071 11.6406 9.66663 11.9797 9.66663 12.3333V27C9.66663 27.3536 9.8071 27.6928 10.0572 27.9428C10.3072 28.1929 10.6463 28.3333 11 28.3333H25.6666C26.0202 28.3333 26.3594 28.1929 26.6094 27.9428C26.8595 27.6928 27 27.3536 27 27V17L25.6666 18.3333V27Z" fill="white"/>
<path d="M29.3534 10.8931L27.1067 8.64647C27.007 8.54649 26.8886 8.46716 26.7581 8.41304C26.6277 8.35891 26.4879 8.33105 26.3467 8.33105C26.2055 8.33105 26.0657 8.35891 25.9353 8.41304C25.8049 8.46716 25.6864 8.54649 25.5867 8.64647L16.4467 17.8398L15.7067 21.0465C15.6752 21.2019 15.6785 21.3624 15.7164 21.5164C15.7543 21.6704 15.8259 21.8141 15.926 21.9371C16.0261 22.0602 16.1522 22.1595 16.2953 22.228C16.4383 22.2964 16.5948 22.3324 16.7534 22.3331C16.8354 22.3422 16.9181 22.3422 17.0001 22.3331L20.2334 21.6198L29.3534 12.4131C29.4534 12.3134 29.5327 12.195 29.5868 12.0646C29.6409 11.9341 29.6688 11.7943 29.6688 11.6531C29.6688 11.5119 29.6409 11.3721 29.5868 11.2417C29.5327 11.1113 29.4534 10.9928 29.3534 10.8931V10.8931ZM19.5401 20.3865L17.1001 20.9265L17.6667 18.5065L24.5467 11.5798L26.4267 13.4598L19.5401 20.3865ZM27.1801 12.7065L25.3001 10.8265L26.3334 9.77313L28.2267 11.6665L27.1801 12.7065Z" fill="white"/>
</svg>
