<svg width="38" height="38" viewBox="0 0 38 38" fill="none" xmlns="http://www.w3.org/2000/svg">
<rect width="38" height="38" rx="7" fill="#CAE6FF"/>
<path d="M27.2495 22.8732V25.4951C27.2505 25.7385 27.2005 25.9795 27.1028 26.2025C27.0051 26.4255 26.8618 26.6257 26.6821 26.7902C26.5024 26.9548 26.2902 27.0801 26.0592 27.158C25.8282 27.236 25.5834 27.265 25.3405 27.2431C22.6458 26.9508 20.0573 26.0319 17.7831 24.56C15.6673 23.2181 13.8734 21.4278 12.5289 19.3162C11.0489 17.0361 10.1279 14.4403 9.84048 11.7388C9.8186 11.4972 9.84738 11.2536 9.92499 11.0236C10.0026 10.7936 10.1273 10.5823 10.2913 10.4031C10.4552 10.2239 10.6547 10.0807 10.8771 9.98261C11.0996 9.88456 11.34 9.83381 11.5831 9.83358H14.2103C14.6352 9.82941 15.0472 9.9796 15.3695 10.2562C15.6917 10.5327 15.9022 10.9168 15.9617 11.3368C16.0725 12.1759 16.2782 12.9997 16.5747 13.7927C16.6925 14.1055 16.718 14.4454 16.6481 14.7723C16.5783 15.0991 16.416 15.3991 16.1806 15.6367L15.0684 16.7467C16.3151 18.9347 18.1303 20.7464 20.3227 21.9905L21.4348 20.8806C21.6729 20.6456 21.9735 20.4837 22.301 20.4139C22.6285 20.3442 22.9691 20.3697 23.2826 20.4873C24.0771 20.7832 24.9026 20.9884 25.7433 21.0991C26.1687 21.159 26.5572 21.3728 26.8349 21.6999C27.1126 22.027 27.2602 22.4446 27.2495 22.8732Z" stroke="#2196F3" stroke-width="1.4" stroke-linecap="round" stroke-linejoin="round"/>
</svg>
