<svg width="194" height="44" viewBox="0 0 194 44" fill="none" xmlns="http://www.w3.org/2000/svg">
<rect width="194" height="44" rx="10" fill="#3F51B5"/>
<circle cx="36" cy="22" r="10.25" stroke="white" stroke-width="1.5"/>
<path d="M30.001 21.9995L42.001 21.9995" stroke="white" stroke-width="1.5" stroke-linecap="round"/>
<path d="M36.0013 27.9995L36.0013 16.4995" stroke="white" stroke-width="1.5" stroke-linecap="round"/>
<path d="M59.216 22.78L61.152 17.452H61.184L63.088 22.78H59.216ZM60.352 16.076L55.904 27.5H57.456L58.736 24.06H63.568L64.816 27.5H66.496L62.032 16.076H60.352ZM68.391 23.436C68.391 23.0307 68.4337 22.636 68.519 22.252C68.6043 21.868 68.743 21.5267 68.935 21.228C69.127 20.9293 69.383 20.6893 69.703 20.508C70.023 20.3267 70.4123 20.236 70.871 20.236C71.3403 20.236 71.7403 20.3267 72.071 20.508C72.4017 20.6787 72.6683 20.908 72.871 21.196C73.0843 21.484 73.239 21.82 73.335 22.204C73.431 22.5773 73.479 22.9667 73.479 23.372C73.479 23.756 73.431 24.1347 73.335 24.508C73.2497 24.8813 73.1057 25.2173 72.903 25.516C72.7003 25.804 72.439 26.0387 72.119 26.22C71.799 26.4013 71.4097 26.492 70.951 26.492C70.5137 26.492 70.1297 26.4067 69.799 26.236C69.479 26.0653 69.2123 25.836 68.999 25.548C68.7963 25.26 68.6417 24.9347 68.535 24.572C68.439 24.1987 68.391 23.82 68.391 23.436ZM74.791 27.5V16.076H73.431V20.332H73.399C73.2497 20.0867 73.063 19.884 72.839 19.724C72.6257 19.5533 72.3963 19.42 72.151 19.324C71.9057 19.2173 71.6603 19.1427 71.415 19.1C71.1697 19.0573 70.9403 19.036 70.727 19.036C70.0977 19.036 69.543 19.1533 69.063 19.388C68.5937 19.612 68.199 19.9213 67.879 20.316C67.5697 20.7 67.335 21.1533 67.175 21.676C67.0257 22.1987 66.951 22.7533 66.951 23.34C66.951 23.9267 67.031 24.4813 67.191 25.004C67.351 25.5267 67.5857 25.9853 67.895 26.38C68.215 26.7747 68.6097 27.0893 69.079 27.324C69.559 27.5587 70.119 27.676 70.759 27.676C71.335 27.676 71.863 27.5747 72.343 27.372C72.823 27.1693 73.175 26.8387 73.399 26.38H73.431V27.5H74.791ZM77.8754 23.436C77.8754 23.0307 77.918 22.636 78.0034 22.252C78.0887 21.868 78.2274 21.5267 78.4194 21.228C78.6114 20.9293 78.8674 20.6893 79.1874 20.508C79.5074 20.3267 79.8967 20.236 80.3554 20.236C80.8247 20.236 81.2247 20.3267 81.5554 20.508C81.886 20.6787 82.1527 20.908 82.3554 21.196C82.5687 21.484 82.7234 21.82 82.8194 22.204C82.9154 22.5773 82.9634 22.9667 82.9634 23.372C82.9634 23.756 82.9154 24.1347 82.8194 24.508C82.734 24.8813 82.59 25.2173 82.3874 25.516C82.1847 25.804 81.9234 26.0387 81.6034 26.22C81.2834 26.4013 80.894 26.492 80.4354 26.492C79.998 26.492 79.614 26.4067 79.2834 26.236C78.9634 26.0653 78.6967 25.836 78.4834 25.548C78.2807 25.26 78.126 24.9347 78.0194 24.572C77.9234 24.1987 77.8754 23.82 77.8754 23.436ZM84.2754 27.5V16.076H82.9154V20.332H82.8834C82.734 20.0867 82.5474 19.884 82.3234 19.724C82.11 19.5533 81.8807 19.42 81.6354 19.324C81.39 19.2173 81.1447 19.1427 80.8994 19.1C80.654 19.0573 80.4247 19.036 80.2114 19.036C79.582 19.036 79.0274 19.1533 78.5474 19.388C78.078 19.612 77.6834 19.9213 77.3634 20.316C77.054 20.7 76.8194 21.1533 76.6594 21.676C76.51 22.1987 76.4354 22.7533 76.4354 23.34C76.4354 23.9267 76.5154 24.4813 76.6754 25.004C76.8354 25.5267 77.07 25.9853 77.3794 26.38C77.6994 26.7747 78.094 27.0893 78.5634 27.324C79.0434 27.5587 79.6034 27.676 80.2434 27.676C80.8194 27.676 81.3474 27.5747 81.8274 27.372C82.3074 27.1693 82.6594 26.8387 82.8834 26.38H82.9154V27.5H84.2754ZM91.0769 16.076V27.5H92.5169V17.996H92.5489L96.1169 27.5H97.4129L100.981 17.996H101.013V27.5H102.453V16.076H100.373L96.7569 25.676L93.1569 16.076H91.0769ZM110.502 22.572H105.75C105.772 22.252 105.841 21.9533 105.958 21.676C106.076 21.388 106.236 21.1373 106.438 20.924C106.641 20.7107 106.881 20.5453 107.158 20.428C107.446 20.3 107.766 20.236 108.118 20.236C108.46 20.236 108.769 20.3 109.046 20.428C109.334 20.5453 109.58 20.7107 109.782 20.924C109.996 21.1267 110.161 21.372 110.278 21.66C110.406 21.948 110.481 22.252 110.502 22.572ZM111.814 24.876H110.47C110.353 25.42 110.108 25.8253 109.734 26.092C109.372 26.3587 108.902 26.492 108.326 26.492C107.878 26.492 107.489 26.4173 107.158 26.268C106.828 26.1187 106.556 25.9213 106.342 25.676C106.129 25.42 105.974 25.132 105.878 24.812C105.782 24.4813 105.74 24.1347 105.75 23.772H111.942C111.964 23.2707 111.916 22.7427 111.798 22.188C111.692 21.6333 111.489 21.1213 111.19 20.652C110.902 20.1827 110.513 19.7987 110.022 19.5C109.542 19.1907 108.934 19.036 108.198 19.036C107.633 19.036 107.11 19.1427 106.63 19.356C106.161 19.5693 105.75 19.868 105.398 20.252C105.057 20.636 104.79 21.0893 104.598 21.612C104.406 22.1347 104.31 22.7107 104.31 23.34C104.332 23.9693 104.422 24.5507 104.582 25.084C104.753 25.6173 105.004 26.076 105.334 26.46C105.665 26.844 106.07 27.1427 106.55 27.356C107.041 27.5693 107.617 27.676 108.278 27.676C109.217 27.676 109.996 27.4413 110.614 26.972C111.233 26.5027 111.633 25.804 111.814 24.876ZM114.344 23.436C114.344 23.0307 114.387 22.636 114.472 22.252C114.557 21.868 114.696 21.5267 114.888 21.228C115.08 20.9293 115.336 20.6893 115.656 20.508C115.976 20.3267 116.365 20.236 116.824 20.236C117.293 20.236 117.693 20.3267 118.024 20.508C118.355 20.6787 118.621 20.908 118.824 21.196C119.037 21.484 119.192 21.82 119.288 22.204C119.384 22.5773 119.432 22.9667 119.432 23.372C119.432 23.756 119.384 24.1347 119.288 24.508C119.203 24.8813 119.059 25.2173 118.856 25.516C118.653 25.804 118.392 26.0387 118.072 26.22C117.752 26.4013 117.363 26.492 116.904 26.492C116.467 26.492 116.083 26.4067 115.752 26.236C115.432 26.0653 115.165 25.836 114.952 25.548C114.749 25.26 114.595 24.9347 114.488 24.572C114.392 24.1987 114.344 23.82 114.344 23.436ZM120.744 27.5V16.076H119.384V20.332H119.352C119.203 20.0867 119.016 19.884 118.792 19.724C118.579 19.5533 118.349 19.42 118.104 19.324C117.859 19.2173 117.613 19.1427 117.368 19.1C117.123 19.0573 116.893 19.036 116.68 19.036C116.051 19.036 115.496 19.1533 115.016 19.388C114.547 19.612 114.152 19.9213 113.832 20.316C113.523 20.7 113.288 21.1533 113.128 21.676C112.979 22.1987 112.904 22.7533 112.904 23.34C112.904 23.9267 112.984 24.4813 113.144 25.004C113.304 25.5267 113.539 25.9853 113.848 26.38C114.168 26.7747 114.563 27.0893 115.032 27.324C115.512 27.5587 116.072 27.676 116.712 27.676C117.288 27.676 117.816 27.5747 118.296 27.372C118.776 27.1693 119.128 26.8387 119.352 26.38H119.384V27.5H120.744ZM124.277 17.74V16.076H122.917V17.74H124.277ZM122.917 19.228V27.5H124.277V19.228H122.917ZM131.999 21.884H133.407C133.354 21.3933 133.226 20.972 133.023 20.62C132.821 20.2573 132.559 19.9587 132.239 19.724C131.93 19.4893 131.567 19.3187 131.151 19.212C130.746 19.0947 130.309 19.036 129.839 19.036C129.189 19.036 128.618 19.1533 128.127 19.388C127.637 19.612 127.226 19.9267 126.895 20.332C126.575 20.7267 126.335 21.196 126.175 21.74C126.015 22.2733 125.935 22.8493 125.935 23.468C125.935 24.0867 126.015 24.6573 126.175 25.18C126.346 25.692 126.591 26.1347 126.911 26.508C127.242 26.8813 127.647 27.1693 128.127 27.372C128.618 27.5747 129.178 27.676 129.807 27.676C130.863 27.676 131.695 27.3987 132.303 26.844C132.922 26.2893 133.306 25.5 133.455 24.476H132.063C131.978 25.116 131.743 25.612 131.359 25.964C130.986 26.316 130.463 26.492 129.791 26.492C129.365 26.492 128.997 26.4067 128.687 26.236C128.378 26.0653 128.127 25.8413 127.935 25.564C127.743 25.276 127.599 24.9507 127.503 24.588C127.418 24.2253 127.375 23.852 127.375 23.468C127.375 23.052 127.418 22.652 127.503 22.268C127.589 21.8733 127.727 21.5267 127.919 21.228C128.122 20.9293 128.389 20.6893 128.719 20.508C129.05 20.3267 129.461 20.236 129.951 20.236C130.527 20.236 130.986 20.38 131.327 20.668C131.669 20.956 131.893 21.3613 131.999 21.884ZM142.305 27.468C142.07 27.6067 141.745 27.676 141.329 27.676C140.977 27.676 140.694 27.58 140.481 27.388C140.278 27.1853 140.177 26.86 140.177 26.412C139.804 26.86 139.366 27.1853 138.865 27.388C138.374 27.58 137.841 27.676 137.265 27.676C136.892 27.676 136.534 27.6333 136.193 27.548C135.862 27.4627 135.574 27.3293 135.329 27.148C135.084 26.9667 134.886 26.732 134.737 26.444C134.598 26.1453 134.529 25.788 134.529 25.372C134.529 24.9027 134.609 24.5187 134.769 24.22C134.929 23.9213 135.137 23.6813 135.393 23.5C135.66 23.308 135.958 23.164 136.289 23.068C136.63 22.972 136.977 22.892 137.329 22.828C137.702 22.7533 138.054 22.7 138.385 22.668C138.726 22.6253 139.025 22.572 139.281 22.508C139.537 22.4333 139.74 22.332 139.889 22.204C140.038 22.0653 140.113 21.868 140.113 21.612C140.113 21.3133 140.054 21.0733 139.937 20.892C139.83 20.7107 139.686 20.572 139.505 20.476C139.334 20.38 139.137 20.316 138.913 20.284C138.7 20.252 138.486 20.236 138.273 20.236C137.697 20.236 137.217 20.348 136.833 20.572C136.449 20.7853 136.241 21.196 136.209 21.804H134.849C134.87 21.292 134.977 20.86 135.169 20.508C135.361 20.156 135.617 19.8733 135.937 19.66C136.257 19.436 136.62 19.276 137.025 19.18C137.441 19.084 137.884 19.036 138.353 19.036C138.726 19.036 139.094 19.0627 139.457 19.116C139.83 19.1693 140.166 19.2813 140.465 19.452C140.764 19.612 141.004 19.8413 141.185 20.14C141.366 20.4387 141.457 20.828 141.457 21.308V25.564C141.457 25.884 141.473 26.1187 141.505 26.268C141.548 26.4173 141.676 26.492 141.889 26.492C142.006 26.492 142.145 26.4653 142.305 26.412V27.468ZM140.097 23.228C139.926 23.356 139.702 23.452 139.425 23.516C139.148 23.5693 138.854 23.6173 138.545 23.66C138.246 23.692 137.942 23.7347 137.633 23.788C137.324 23.8307 137.046 23.9053 136.801 24.012C136.556 24.1187 136.353 24.2733 136.193 24.476C136.044 24.668 135.969 24.9347 135.969 25.276C135.969 25.5 136.012 25.692 136.097 25.852C136.193 26.0013 136.31 26.124 136.449 26.22C136.598 26.316 136.769 26.3853 136.961 26.428C137.153 26.4707 137.356 26.492 137.569 26.492C138.017 26.492 138.401 26.4333 138.721 26.316C139.041 26.188 139.302 26.0333 139.505 25.852C139.708 25.66 139.857 25.4573 139.953 25.244C140.049 25.02 140.097 24.812 140.097 24.62V23.228ZM145.459 19.228V16.748H144.099V19.228H142.691V20.428H144.099V25.692C144.099 26.076 144.136 26.3853 144.211 26.62C144.286 26.8547 144.398 27.036 144.547 27.164C144.707 27.292 144.91 27.3827 145.155 27.436C145.411 27.4787 145.715 27.5 146.067 27.5H147.107V26.3H146.483C146.27 26.3 146.094 26.2947 145.955 26.284C145.827 26.2627 145.726 26.2253 145.651 26.172C145.576 26.1187 145.523 26.044 145.491 25.948C145.47 25.852 145.459 25.724 145.459 25.564V20.428H147.107V19.228H145.459ZM150.058 17.74V16.076H148.698V17.74H150.058ZM148.698 19.228V27.5H150.058V19.228H148.698ZM153.157 23.372C153.157 22.8707 153.221 22.428 153.349 22.044C153.487 21.6493 153.674 21.3187 153.909 21.052C154.143 20.7853 154.415 20.5827 154.725 20.444C155.045 20.3053 155.381 20.236 155.733 20.236C156.085 20.236 156.415 20.3053 156.725 20.444C157.045 20.5827 157.322 20.7853 157.557 21.052C157.791 21.3187 157.973 21.6493 158.101 22.044C158.239 22.428 158.309 22.8707 158.309 23.372C158.309 23.8733 158.239 24.3213 158.101 24.716C157.973 25.1 157.791 25.4253 157.557 25.692C157.322 25.948 157.045 26.1453 156.725 26.284C156.415 26.4227 156.085 26.492 155.733 26.492C155.381 26.492 155.045 26.4227 154.725 26.284C154.415 26.1453 154.143 25.948 153.909 25.692C153.674 25.4253 153.487 25.1 153.349 24.716C153.221 24.3213 153.157 23.8733 153.157 23.372ZM151.717 23.372C151.717 23.98 151.802 24.5453 151.973 25.068C152.143 25.5907 152.399 26.0493 152.741 26.444C153.082 26.828 153.503 27.132 154.005 27.356C154.506 27.5693 155.082 27.676 155.733 27.676C156.394 27.676 156.97 27.5693 157.461 27.356C157.962 27.132 158.383 26.828 158.725 26.444C159.066 26.0493 159.322 25.5907 159.493 25.068C159.663 24.5453 159.749 23.98 159.749 23.372C159.749 22.764 159.663 22.1987 159.493 21.676C159.322 21.1427 159.066 20.684 158.725 20.3C158.383 19.9053 157.962 19.596 157.461 19.372C156.97 19.148 156.394 19.036 155.733 19.036C155.082 19.036 154.506 19.148 154.005 19.372C153.503 19.596 153.082 19.9053 152.741 20.3C152.399 20.684 152.143 21.1427 151.973 21.676C151.802 22.1987 151.717 22.764 151.717 23.372ZM161.352 19.228V27.5H162.712V22.828C162.712 22.4547 162.76 22.1133 162.856 21.804C162.963 21.484 163.117 21.2067 163.32 20.972C163.523 20.7373 163.773 20.556 164.072 20.428C164.381 20.3 164.744 20.236 165.16 20.236C165.683 20.236 166.093 20.3853 166.392 20.684C166.691 20.9827 166.84 21.388 166.84 21.9V27.5H168.2V22.06C168.2 21.612 168.152 21.2067 168.056 20.844C167.971 20.4707 167.816 20.1507 167.592 19.884C167.368 19.6173 167.075 19.4093 166.712 19.26C166.349 19.1107 165.896 19.036 165.352 19.036C164.125 19.036 163.229 19.5373 162.664 20.54H162.632V19.228H161.352Z" fill="white"/>
</svg>
