<svg width="65" height="65" viewBox="0 0 65 65" fill="none" xmlns="http://www.w3.org/2000/svg">
<path d="M34.2968 16.0569C34.4284 16.3081 34.6569 16.4926 34.9272 16.5658C35.198 16.639 35.4868 16.5951 35.7238 16.4436C35.9613 16.2926 36.1262 16.0482 36.1789 15.7686C36.2316 15.489 36.1677 15.1998 36.0023 14.97L33.8625 11.4953C33.5502 11.061 32.9604 10.9461 32.5116 11.2322C32.0633 11.5177 31.9083 12.1071 32.157 12.5818L34.2968 16.0569Z" fill="#1569A1" stroke="#1569A1" stroke-width="0.5"/>
<path d="M46.3946 14.8068C46.8758 14.8187 47.298 14.4842 47.4039 14.0074L48.3024 10.0402C48.4276 9.48834 48.0888 8.93735 47.5454 8.81013C47.0015 8.68291 46.4595 9.02705 46.3342 9.57894L45.4358 13.5461C45.3655 13.8124 45.4042 14.0966 45.543 14.3341C45.6813 14.5712 46.1306 14.7419 46.3946 14.8068Z" fill="#1569A1"/>
<path d="M46.1725 14.8068H46.3946M46.3946 14.8068C46.8758 14.8187 47.298 14.4842 47.4039 14.0074L48.3024 10.0402C48.4276 9.48834 48.0888 8.93735 47.5454 8.81013C47.0015 8.68291 46.4595 9.02705 46.3342 9.57894L45.4358 13.5461C45.3655 13.8124 45.4042 14.0966 45.543 14.3341C45.6813 14.5712 46.1306 14.7419 46.3946 14.8068Z" stroke="#1569A1" stroke-width="0.5"/>
<path d="M55.1271 21.7031C55.3159 21.7036 55.5016 21.6505 55.662 21.5494L59.0837 19.366C59.5109 19.0489 59.624 18.4494 59.3428 17.9936C59.0616 17.5382 58.4813 17.3808 58.0136 17.6334L54.5919 19.8168C54.2179 20.0621 54.0467 20.527 54.1697 20.9618C54.2931 21.396 54.6819 21.6972 55.1271 21.7031Z" fill="#1569A1" stroke="#1569A1" stroke-width="0.5"/>
<path d="M62.1833 33.0016L58.2772 32.0883C58.0163 32.0269 57.7419 32.0741 57.5148 32.2184C57.2877 32.3627 57.1264 32.5931 57.066 32.8582C56.9408 33.4106 57.2796 33.9616 57.823 34.0894L61.7291 35.0027H61.9512C62.5086 35.065 63.0101 34.656 63.0714 34.0894C63.1326 33.5228 62.7307 33.0126 62.1729 32.9503L62.1833 33.0016Z" fill="#1569A1" stroke="#1569A1" stroke-width="0.5"/>
<path d="M50.5773 34.4049C51.962 31.6504 52.0475 28.4078 50.8107 25.5815C49.5743 22.7552 47.147 20.6469 44.206 19.8446C41.265 19.0424 38.1244 19.6314 35.6597 21.4482C33.8456 20.8071 31.9383 20.4817 30.0175 20.4844C27.6119 20.5041 25.2553 21.1809 23.1956 22.4431C21.1356 23.7057 19.4481 25.5074 18.3095 27.66H14.8778C5.79405 27.66 1.75681 34.8356 1.75681 42.0112C1.75681 49.8532 7.15656 55.3373 14.8778 55.3373H47.1758C52.1516 55.3373 56.1587 52.6108 57.632 48.2336C58.731 44.967 58.1885 41.3609 56.1788 38.5771C54.7923 36.6203 52.8314 35.1596 50.5772 34.405L50.5773 34.4049ZM41.6247 21.5099C43.5343 21.5145 45.3803 22.2064 46.8352 23.4626C48.2897 24.7189 49.2594 26.4578 49.5712 28.3711C49.883 30.2844 49.5171 32.2482 48.5385 33.9135C48.0532 33.8462 47.5643 33.8123 47.0749 33.811H44.1479C44.1479 28.2142 41.5138 24.5033 37.8803 22.4531C39.0338 21.833 40.3193 21.5091 41.6246 21.51L41.6247 21.5099ZM55.755 47.5682C54.5136 51.1455 51.324 53.2881 47.1759 53.2881H14.8779C8.23676 53.2881 3.7755 48.7571 3.7755 42.0121C3.7755 36.3329 6.6822 29.7111 14.8779 29.7111H18.9152C19.295 29.7097 19.6424 29.4919 19.8136 29.1473C20.736 27.1869 22.181 25.5279 23.9847 24.3592C25.7884 23.1908 27.8782 22.5589 30.0176 22.5356C35.6094 22.5356 42.1293 25.4877 42.1293 33.8115V34.0472V34.7748V34.7752C42.1126 35.0576 42.2113 35.3345 42.4028 35.5399C42.5939 35.7459 42.8602 35.8621 43.1386 35.8617H47.0749C50.0353 35.8681 52.8113 37.322 54.5339 39.7671C56.1597 42.015 56.6008 44.9282 55.7144 47.5682L55.755 47.5682Z" fill="#1569A1" stroke="#1569A1" stroke-width="0.5"/>
</svg>
