<svg width="54" height="54" viewBox="0 0 54 54" fill="none" xmlns="http://www.w3.org/2000/svg">
<path d="M52.171 41.6045L32.2953 7.17881C31.1901 5.26456 29.2106 4.12158 27 4.12158C24.7894 4.12158 22.8098 5.26456 21.7046 7.17881L1.82898 41.6044C0.723675 43.5189 0.723675 45.8046 1.82898 47.719C2.93428 49.6333 4.91373 50.7762 7.12433 50.7762H46.8756C49.0861 50.7762 51.0656 49.6332 52.171 47.7191C53.2763 45.8046 53.2763 43.5189 52.171 41.6045ZM49.5326 46.1959C48.978 47.1564 47.9847 47.7299 46.8756 47.7299H7.12433C6.01507 47.7299 5.02179 47.1564 4.46726 46.1959C3.91273 45.2353 3.91273 44.0884 4.46726 43.1279L24.3431 8.70214C24.8976 7.74156 25.8909 7.16814 27.0001 7.16814C28.1091 7.16814 29.1025 7.74156 29.657 8.70214L49.5327 43.1279C50.0872 44.0884 50.0872 45.2353 49.5326 46.1959Z" fill="#FF8C00"/>
<path d="M28.523 19.3252H25.4766V34.5577H28.523V19.3252Z" fill="#FF8C00"/>
<path d="M26.9998 37.604C25.8799 37.604 24.9688 38.5151 24.9688 39.635C24.9688 40.755 25.8799 41.6661 26.9998 41.6661C28.1196 41.6661 29.0308 40.755 29.0308 39.635C29.0308 38.5151 28.1197 37.604 26.9998 37.604Z" fill="#FF8C00"/>
</svg>
