<svg width="24" height="24" viewBox="0 0 24 24" fill="none" xmlns="http://www.w3.org/2000/svg">
<path d="M18.6471 4.23527V4.79409C18.6471 5.10272 18.3969 5.35291 18.0882 5.35291C17.7796 5.35291 17.5294 5.10272 17.5294 4.79409V4.23527H13.0588V4.79409C13.0588 5.10272 12.8086 5.35291 12.5 5.35291C12.1914 5.35291 11.9412 5.10272 11.9412 4.79409V4.23527H7.47059V4.79409C7.47059 5.10272 7.22039 5.35291 6.91176 5.35291C6.60313 5.35291 6.35294 5.10272 6.35294 4.79409V4.23527H4.67647C4.36751 4.23527 4.11765 4.4853 4.11765 4.79409V6.47056H20.8824V4.79409C20.8824 4.4853 20.6325 4.23527 20.3235 4.23527H18.6471ZM18.6471 3.11762H20.3235C21.2499 3.11762 22 3.86822 22 4.79409V20.4411C22 21.367 21.2499 22.1176 20.3235 22.1176H4.67647C3.75008 22.1176 3 21.367 3 20.4411V4.79409C3 3.86822 3.75008 3.11762 4.67647 3.11762H6.35294V1.44115C6.35294 1.13252 6.60313 0.882324 6.91176 0.882324C7.22039 0.882324 7.47059 1.13252 7.47059 1.44115V3.11762H11.9412V1.44115C11.9412 1.13252 12.1914 0.882324 12.5 0.882324C12.8086 0.882324 13.0588 1.13252 13.0588 1.44115V3.11762H17.5294V1.44115C17.5294 1.13252 17.7796 0.882324 18.0882 0.882324C18.3969 0.882324 18.6471 1.13252 18.6471 1.44115V3.11762ZM20.8824 7.58821H4.11765V20.4411C4.11765 20.7499 4.36751 21 4.67647 21H20.3235C20.6325 21 20.8824 20.7499 20.8824 20.4411V7.58821ZM9.14706 10.9411C8.83843 10.9411 8.58824 10.691 8.58824 10.3823C8.58824 10.0737 8.83843 9.8235 9.14706 9.8235H15.8529C16.1616 9.8235 16.4118 10.0737 16.4118 10.3823C16.4118 10.691 16.1616 10.9411 15.8529 10.9411H9.14706ZM9.14706 14.2941C8.83843 14.2941 8.58824 14.0439 8.58824 13.7353C8.58824 13.4266 8.83843 13.1764 9.14706 13.1764H15.8529C16.1616 13.1764 16.4118 13.4266 16.4118 13.7353C16.4118 14.0439 16.1616 14.2941 15.8529 14.2941H9.14706ZM9.14706 17.647C8.83843 17.647 8.58824 17.3968 8.58824 17.0882C8.58824 16.7796 8.83843 16.5294 9.14706 16.5294H15.8529C16.1616 16.5294 16.4118 16.7796 16.4118 17.0882C16.4118 17.3968 16.1616 17.647 15.8529 17.647H9.14706Z" fill="white"/>
</svg>
