<svg width="24" height="24" viewBox="0 0 24 24" fill="none" xmlns="http://www.w3.org/2000/svg">
<path d="M18.6471 4.2353V4.79412C18.6471 5.10275 18.3969 5.35294 18.0882 5.35294C17.7796 5.35294 17.5294 5.10275 17.5294 4.79412V4.2353H13.0588V4.79412C13.0588 5.10275 12.8086 5.35294 12.5 5.35294C12.1914 5.35294 11.9412 5.10275 11.9412 4.79412V4.2353H7.47059V4.79412C7.47059 5.10275 7.22039 5.35294 6.91176 5.35294C6.60313 5.35294 6.35294 5.10275 6.35294 4.79412V4.2353H4.67647C4.36751 4.2353 4.11765 4.48534 4.11765 4.79412V6.47059H20.8824V4.79412C20.8824 4.48534 20.6325 4.2353 20.3235 4.2353H18.6471ZM18.6471 3.11765H20.3235C21.2499 3.11765 22 3.86825 22 4.79412V20.4412C22 21.367 21.2499 22.1176 20.3235 22.1176H4.67647C3.75008 22.1176 3 21.367 3 20.4412V4.79412C3 3.86825 3.75008 3.11765 4.67647 3.11765H6.35294V1.44118C6.35294 1.13255 6.60313 0.882355 6.91176 0.882355C7.22039 0.882355 7.47059 1.13255 7.47059 1.44118V3.11765H11.9412V1.44118C11.9412 1.13255 12.1914 0.882355 12.5 0.882355C12.8086 0.882355 13.0588 1.13255 13.0588 1.44118V3.11765H17.5294V1.44118C17.5294 1.13255 17.7796 0.882355 18.0882 0.882355C18.3969 0.882355 18.6471 1.13255 18.6471 1.44118V3.11765ZM20.8824 7.58824H4.11765V20.4412C4.11765 20.75 4.36751 21 4.67647 21H20.3235C20.6325 21 20.8824 20.75 20.8824 20.4412V7.58824ZM9.14706 10.9412C8.83843 10.9412 8.58824 10.691 8.58824 10.3824C8.58824 10.0737 8.83843 9.82353 9.14706 9.82353H15.8529C16.1616 9.82353 16.4118 10.0737 16.4118 10.3824C16.4118 10.691 16.1616 10.9412 15.8529 10.9412H9.14706ZM9.14706 14.2941C8.83843 14.2941 8.58824 14.0439 8.58824 13.7353C8.58824 13.4267 8.83843 13.1765 9.14706 13.1765H15.8529C16.1616 13.1765 16.4118 13.4267 16.4118 13.7353C16.4118 14.0439 16.1616 14.2941 15.8529 14.2941H9.14706ZM9.14706 17.6471C8.83843 17.6471 8.58824 17.3969 8.58824 17.0882C8.58824 16.7796 8.83843 16.5294 9.14706 16.5294H15.8529C16.1616 16.5294 16.4118 16.7796 16.4118 17.0882C16.4118 17.3969 16.1616 17.6471 15.8529 17.6471H9.14706Z" fill="#424242"/>
</svg>
