<svg width="30" height="30" viewBox="0 0 30 30" fill="none" xmlns="http://www.w3.org/2000/svg">
<path d="M21.6471 7.23575V7.79458C21.6471 8.10321 21.3969 8.3534 21.0882 8.3534C20.7796 8.3534 20.5294 8.10321 20.5294 7.79458V7.23575H16.0588V7.79458C16.0588 8.10321 15.8086 8.3534 15.5 8.3534C15.1914 8.3534 14.9412 8.10321 14.9412 7.79458V7.23575H10.4706V7.79458C10.4706 8.10321 10.2204 8.3534 9.91176 8.3534C9.60313 8.3534 9.35294 8.10321 9.35294 7.79458V7.23575H7.67647C7.36751 7.23575 7.11765 7.48579 7.11765 7.79458V9.47105H23.8824V7.79458C23.8824 7.48579 23.6325 7.23575 23.3235 7.23575H21.6471ZM21.6471 6.11811H23.3235C24.2499 6.11811 25 6.86871 25 7.79458V23.4416C25 24.3675 24.2499 25.1181 23.3235 25.1181H7.67647C6.75008 25.1181 6 24.3675 6 23.4416V7.79458C6 6.86871 6.75008 6.11811 7.67647 6.11811H9.35294V4.44164C9.35294 4.13301 9.60313 3.88281 9.91176 3.88281C10.2204 3.88281 10.4706 4.13301 10.4706 4.44164V6.11811H14.9412V4.44164C14.9412 4.13301 15.1914 3.88281 15.5 3.88281C15.8086 3.88281 16.0588 4.13301 16.0588 4.44164V6.11811H20.5294V4.44164C20.5294 4.13301 20.7796 3.88281 21.0882 3.88281C21.3969 3.88281 21.6471 4.13301 21.6471 4.44164V6.11811ZM23.8824 10.5887H7.11765V23.4416C7.11765 23.7504 7.36751 24.0005 7.67647 24.0005H23.3235C23.6325 24.0005 23.8824 23.7504 23.8824 23.4416V10.5887ZM12.1471 13.9416C11.8384 13.9416 11.5882 13.6914 11.5882 13.3828C11.5882 13.0742 11.8384 12.824 12.1471 12.824H18.8529C19.1616 12.824 19.4118 13.0742 19.4118 13.3828C19.4118 13.6914 19.1616 13.9416 18.8529 13.9416H12.1471ZM12.1471 17.2946C11.8384 17.2946 11.5882 17.0444 11.5882 16.7358C11.5882 16.4271 11.8384 16.1769 12.1471 16.1769H18.8529C19.1616 16.1769 19.4118 16.4271 19.4118 16.7358C19.4118 17.0444 19.1616 17.2946 18.8529 17.2946H12.1471ZM12.1471 20.6475C11.8384 20.6475 11.5882 20.3973 11.5882 20.0887C11.5882 19.7801 11.8384 19.5299 12.1471 19.5299H18.8529C19.1616 19.5299 19.4118 19.7801 19.4118 20.0887C19.4118 20.3973 19.1616 20.6475 18.8529 20.6475H12.1471Z" fill="white"/>
</svg>
