<svg width="24" height="24" viewBox="0 0 24 24" fill="none" xmlns="http://www.w3.org/2000/svg">
<path d="M18.7471 4.79409V4.33527H20.3235C20.5772 4.33527 20.7824 4.54051 20.7824 4.79409V6.37056H4.21765V4.79409C4.21765 4.54051 4.42276 4.33527 4.67647 4.33527H6.25294V4.79409C6.25294 5.15795 6.54791 5.45291 6.91176 5.45291C7.27562 5.45291 7.57059 5.15795 7.57059 4.79409V4.33527H11.8412V4.79409C11.8412 5.15795 12.1361 5.45291 12.5 5.45291C12.8639 5.45291 13.1588 5.15795 13.1588 4.79409V4.33527H17.4294V4.79409C17.4294 5.15795 17.7244 5.45291 18.0882 5.45291C18.4521 5.45291 18.7471 5.15795 18.7471 4.79409ZM20.3235 3.01762H18.7471V1.44115C18.7471 1.07729 18.4521 0.782324 18.0882 0.782324C17.7244 0.782324 17.4294 1.07729 17.4294 1.44115V3.01762H13.1588V1.44115C13.1588 1.07729 12.8639 0.782324 12.5 0.782324C12.1361 0.782324 11.8412 1.07729 11.8412 1.44115V3.01762H7.57059V1.44115C7.57059 1.07729 7.27562 0.782324 6.91176 0.782324C6.54791 0.782324 6.25294 1.07729 6.25294 1.44115V3.01762H4.67647C3.69483 3.01762 2.9 3.81301 2.9 4.79409V20.4411C2.9 21.4222 3.69483 22.2176 4.67647 22.2176H20.3235C21.3052 22.2176 22.1 21.4222 22.1 20.4411V4.79409C22.1 3.81301 21.3052 3.01762 20.3235 3.01762ZM4.21765 20.4411V7.68821H20.7824V20.4411C20.7824 20.6947 20.5772 20.9 20.3235 20.9H4.67647C4.42276 20.9 4.21765 20.6947 4.21765 20.4411ZM8.48824 10.3823C8.48824 10.7462 8.7832 11.0411 9.14706 11.0411H15.8529C16.2168 11.0411 16.5118 10.7462 16.5118 10.3823C16.5118 10.0185 16.2168 9.7235 15.8529 9.7235H9.14706C8.7832 9.7235 8.48824 10.0185 8.48824 10.3823ZM8.48824 13.7353C8.48824 14.0991 8.7832 14.3941 9.14706 14.3941H15.8529C16.2168 14.3941 16.5118 14.0991 16.5118 13.7353C16.5118 13.3714 16.2168 13.0764 15.8529 13.0764H9.14706C8.7832 13.0764 8.48824 13.3714 8.48824 13.7353ZM8.48824 17.0882C8.48824 17.4521 8.7832 17.747 9.14706 17.747H15.8529C16.2168 17.747 16.5118 17.4521 16.5118 17.0882C16.5118 16.7243 16.2168 16.4294 15.8529 16.4294H9.14706C8.7832 16.4294 8.48824 16.7243 8.48824 17.0882Z" fill="#DEDEDE" stroke="#DEDEDE" stroke-width="0.2"/>
</svg>
