<svg width="31" height="31" viewBox="0 0 31 31" fill="none" xmlns="http://www.w3.org/2000/svg">
<path d="M17.4744 16.2358C17.9669 16.4205 18.9382 16.2358 20.4021 18.6094" stroke="white" stroke-linecap="round"/>
<path d="M22.4266 19.2413C21.9094 16.286 18.9787 14.6852 17.7166 14.3465C17.7166 14.3465 22.8412 8.42903 23.8171 7.45312C26.8463 7.60089 28.5836 10.3137 28.9838 11.7606C28.2758 12.561 24.1814 17.2095 22.4266 19.2413Z" stroke="white" stroke-linecap="round" stroke-linejoin="round"/>
<path d="M27.2329 8.36211C28.3411 7.28464 30.5355 4.00218 27.8757 1.41625C25.2158 -1.16968 20.2352 3.1871 18.4497 5.4344" stroke="white"/>
<path d="M9.43186 10.9241L6.73995 13.1901" stroke="white" stroke-linecap="round"/>
<path d="M15.8526 21.5363C20.4012 20.5604 24.3049 23.0001 22.7035 27.829C20.4012 32.2713 15.0337 30.3195 14.5458 25.9279C14.4447 25.0182 15.0215 20.2402 18.9374 17.2109" stroke="white"/>
<path d="M8.75879 17.5806C8.82036 18.9659 11.131 22.5811 15.5225 21.6052" stroke="white"/>
<circle cx="6.7394" cy="13.3078" r="4.37954" stroke="white"/>
<path d="M18.4749 8.7518C17.9495 9.42164 17.292 9.85893 16.6734 10.0401C16.0538 10.2216 15.5164 10.1388 15.1453 9.84769C14.7741 9.55661 14.5656 9.05443 14.5942 8.40937C14.6227 7.76546 14.8907 7.02268 15.4161 6.35284C15.9415 5.68299 16.599 5.2457 17.2175 5.06454C17.8372 4.88306 18.3746 4.96586 18.7457 5.25695C19.1169 5.54803 19.3253 6.05021 19.2968 6.69526C19.2682 7.33917 19.0002 8.08195 18.4749 8.7518Z" stroke="white"/>
</svg>
