<svg width="28" height="28" viewBox="0 0 28 28" fill="none" xmlns="http://www.w3.org/2000/svg">
<path d="M11.6094 1.30811V0.808105H11.1094V1.30811H11.6094ZM15.6899 1.30811H16.1899V0.808105H15.6899V1.30811ZM11.6094 5.57558V6.07558H12.1094V5.57558H11.6094ZM10.7933 5.57558V5.07558H10.2933V5.57558H10.7933ZM16.506 5.57558H17.006V5.07558H16.506V5.57558ZM15.6899 5.57558H15.1899V6.07558H15.6899V5.57558ZM11.6094 1.80811H15.6899V0.808105H11.6094V1.80811ZM12.1094 5.57558V1.30811H11.1094V5.57558H12.1094ZM10.7933 6.07558H11.6094V5.07558H10.7933V6.07558ZM11.2933 7.36918V5.57558H10.2933V7.36918H11.2933ZM12.7933 8.86918C11.9649 8.86918 11.2933 8.19761 11.2933 7.36918H10.2933C10.2933 8.74989 11.4126 9.86918 12.7933 9.86918V8.86918ZM14.506 8.86918H12.7933V9.86918H14.506V8.86918ZM16.006 7.36918C16.006 8.19761 15.3344 8.86918 14.506 8.86918V9.86918C15.8867 9.86918 17.006 8.74989 17.006 7.36918H16.006ZM16.006 5.57558V7.36918H17.006V5.57558H16.006ZM15.6899 6.07558H16.506V5.07558H15.6899V6.07558ZM15.1899 1.30811V5.57558H16.1899V1.30811H15.1899Z" fill="#424242"/>
<path d="M16.5062 7.94873C17.7675 7.94873 18.2077 7.94873 18.9996 7.94873C20.1042 7.94873 21 8.84416 21 9.94873V25.3909C21 26.4955 20.1046 27.3909 19 27.3909H8.2998C7.19523 27.3909 6.2998 26.4955 6.2998 25.3909V9.94873C6.2998 8.84416 7.19575 7.94873 8.30032 7.94873C9.50927 7.94873 10.3276 7.94873 10.9174 7.94873" stroke="#424242"/>
<rect x="9.05444" y="11.4927" width="8.69366" height="8.69366" rx="1" stroke="#424242"/>
<line x1="10.5935" y1="14.7188" x2="14.8097" y2="14.7188" stroke="#424242" stroke-linecap="round"/>
<path d="M11.8931 4.39648L15.0867 4.39648" stroke="#424242" stroke-linecap="square"/>
<line x1="10.5935" y1="16.752" x2="12.9129" y2="16.752" stroke="#424242" stroke-linecap="round"/>
<circle cx="16.5064" cy="23.9124" r="0.641952" stroke="#424242" stroke-width="1.2"/>
</svg>
