<svg width="26" height="26" viewBox="0 0 26 26" fill="none" xmlns="http://www.w3.org/2000/svg">
<path d="M14 13.6636C14 13.6636 15 13.6636 16.2626 15.4979" stroke="#424242" stroke-width="1.3" stroke-linecap="round"/>
<path d="M18.1803 15.6636C17.7213 13.1565 15.1202 11.7986 14 11.5113C14 11.5113 18.5483 6.49144 19.4144 5.66357C22.1029 5.78893 23.6448 8.09024 24 9.31764C23.3716 9.99663 19.7377 13.94 18.1803 15.6636Z" stroke="#424242" stroke-width="1.3" stroke-linecap="round" stroke-linejoin="round"/>
<path d="M22 7.16337C22.8565 6.33069 24.7417 3.40509 22.1057 2.27787C19.5 1.16357 16.2012 3.6464 14.8213 5.38313" stroke="#424242" stroke-width="1.3"/>
<path d="M7.85117 9.62641L5.77084 11.3776" stroke="#424242" stroke-linecap="round"/>
<path d="M12.8144 17.827C16.3295 17.0728 19.3463 18.9583 18.1087 22.6901C16.3296 26.1231 12.1815 24.6147 11.8044 21.2209C11.7263 20.5179 12.1721 16.8254 15.1983 14.4844" stroke="#424242" stroke-width="1.3"/>
<path d="M7.33167 14.7681C7.37925 15.8387 9.16489 18.6325 12.5587 17.8784" stroke="#424242" stroke-width="1.3"/>
<circle cx="5.77095" cy="11.4677" r="3.12095" stroke="#424242" stroke-width="1.3"/>
<path d="M14.6334 7.78402C14.2574 8.26338 13.7941 8.56647 13.3746 8.68933C12.9536 8.81261 12.6329 8.74506 12.4303 8.58619C12.2278 8.42733 12.0857 8.13191 12.1051 7.69374C12.1245 7.25704 12.3084 6.73479 12.6844 6.25543C13.0603 5.77607 13.5237 5.47298 13.9432 5.35012C14.3641 5.22684 14.6849 5.29439 14.8874 5.45326C15.09 5.61212 15.232 5.90754 15.2126 6.34571C15.1933 6.78241 15.0094 7.30466 14.6334 7.78402Z" stroke="#424242" stroke-width="1.3"/>
</svg>
