<svg width="24" height="24" viewBox="0 0 24 24" fill="none" xmlns="http://www.w3.org/2000/svg">
<path d="M21.4286 1.71429H18V0.857143C18 0.629814 17.9097 0.411797 17.7489 0.251051C17.5882 0.0903058 17.3702 0 17.1429 0C16.9155 0 16.6975 0.0903058 16.5368 0.251051C16.376 0.411797 16.2857 0.629814 16.2857 0.857143V1.71429H7.71429V0.857143C7.71429 0.629814 7.62398 0.411797 7.46323 0.251051C7.30249 0.0903058 7.08447 0 6.85714 0C6.62981 0 6.4118 0.0903058 6.25105 0.251051C6.09031 0.411797 6 0.629814 6 0.857143V1.71429H2.57143C1.88944 1.71429 1.23539 1.9852 0.753154 2.46744C0.270918 2.94968 0 3.60373 0 4.28571V21.4286C0 22.1106 0.270918 22.7646 0.753154 23.2468C1.23539 23.7291 1.88944 24 2.57143 24H21.4286C22.1106 24 22.7646 23.7291 23.2468 23.2468C23.7291 22.7646 24 22.1106 24 21.4286V4.28571C24 3.60373 23.7291 2.94968 23.2468 2.46744C22.7646 1.9852 22.1106 1.71429 21.4286 1.71429ZM2.57143 3.42857H6V4.28571C6 4.51304 6.09031 4.73106 6.25105 4.89181C6.4118 5.05255 6.62981 5.14286 6.85714 5.14286C7.08447 5.14286 7.30249 5.05255 7.46323 4.89181C7.62398 4.73106 7.71429 4.51304 7.71429 4.28571V3.42857H16.2857V4.28571C16.2857 4.51304 16.376 4.73106 16.5368 4.89181C16.6975 5.05255 16.9155 5.14286 17.1429 5.14286C17.3702 5.14286 17.5882 5.05255 17.7489 4.89181C17.9097 4.73106 18 4.51304 18 4.28571V3.42857H21.4286C21.6559 3.42857 21.8739 3.51888 22.0347 3.67962C22.1954 3.84037 22.2857 4.05839 22.2857 4.28571V6.85714H1.71429V4.28571C1.71429 4.05839 1.80459 3.84037 1.96534 3.67962C2.12608 3.51888 2.3441 3.42857 2.57143 3.42857ZM21.4286 22.2857H2.57143C2.3441 22.2857 2.12608 22.1954 1.96534 22.0347C1.80459 21.8739 1.71429 21.6559 1.71429 21.4286V8.57143H22.2857V21.4286C22.2857 21.6559 22.1954 21.8739 22.0347 22.0347C21.8739 22.1954 21.6559 22.2857 21.4286 22.2857ZM6 18.8571C6 19.0267 5.94973 19.1924 5.85555 19.3333C5.76136 19.4743 5.62749 19.5842 5.47087 19.649C5.31425 19.7139 5.14191 19.7309 4.97564 19.6978C4.80937 19.6647 4.65664 19.5831 4.53677 19.4632C4.41689 19.3434 4.33526 19.1906 4.30218 19.0244C4.26911 18.8581 4.28609 18.6858 4.35096 18.5291C4.41584 18.3725 4.5257 18.2386 4.66665 18.1445C4.80761 18.0503 4.97333 18 5.14286 18C5.37019 18 5.5882 18.0903 5.74895 18.2511C5.90969 18.4118 6 18.6298 6 18.8571ZM9.42857 18.8571C9.42857 19.0267 9.3783 19.1924 9.28412 19.3333C9.18993 19.4743 9.05607 19.5842 8.89944 19.649C8.74282 19.7139 8.57048 19.7309 8.40421 19.6978C8.23794 19.6647 8.08521 19.5831 7.96534 19.4632C7.84546 19.3434 7.76383 19.1906 7.73076 19.0244C7.69768 18.8581 7.71466 18.6858 7.77953 18.5291C7.84441 18.3725 7.95427 18.2386 8.09523 18.1445C8.23618 18.0503 8.4019 18 8.57143 18C8.79876 18 9.01677 18.0903 9.17752 18.2511C9.33827 18.4118 9.42857 18.6298 9.42857 18.8571ZM12.8571 18.8571C12.8571 19.0267 12.8069 19.1924 12.7127 19.3333C12.6185 19.4743 12.4846 19.5842 12.328 19.649C12.1714 19.7139 11.999 19.7309 11.8328 19.6978C11.6665 19.6647 11.5138 19.5831 11.3939 19.4632C11.274 19.3434 11.1924 19.1906 11.1593 19.0244C11.1263 18.8581 11.1432 18.6858 11.2081 18.5291C11.273 18.3725 11.3828 18.2386 11.5238 18.1445C11.6648 18.0503 11.8305 18 12 18C12.2273 18 12.4453 18.0903 12.6061 18.2511C12.7668 18.4118 12.8571 18.6298 12.8571 18.8571ZM16.2857 18.8571C16.2857 19.0267 16.2354 19.1924 16.1413 19.3333C16.0471 19.4743 15.9132 19.5842 15.7566 19.649C15.6 19.7139 15.4276 19.7309 15.2614 19.6978C15.0951 19.6647 14.9424 19.5831 14.8225 19.4632C14.7026 19.3434 14.621 19.1906 14.5879 19.0244C14.5548 18.8581 14.5718 18.6858 14.6367 18.5291C14.7015 18.3725 14.8114 18.2386 14.9524 18.1445C15.0933 18.0503 15.259 18 15.4286 18C15.6559 18 15.8739 18.0903 16.0347 18.2511C16.1954 18.4118 16.2857 18.6298 16.2857 18.8571ZM6 15.4286C6 15.5981 5.94973 15.7638 5.85555 15.9048C5.76136 16.0457 5.62749 16.1556 5.47087 16.2205C5.31425 16.2853 5.14191 16.3023 4.97564 16.2692C4.80937 16.2362 4.65664 16.1545 4.53677 16.0347C4.41689 15.9148 4.33526 15.7621 4.30218 15.5958C4.26911 15.4295 4.28609 15.2572 4.35096 15.1006C4.41584 14.9439 4.5257 14.8101 4.66665 14.7159C4.80761 14.6217 4.97333 14.5714 5.14286 14.5714C5.37019 14.5714 5.5882 14.6617 5.74895 14.8225C5.90969 14.9832 6 15.2012 6 15.4286ZM9.42857 15.4286C9.42857 15.5981 9.3783 15.7638 9.28412 15.9048C9.18993 16.0457 9.05607 16.1556 8.89944 16.2205C8.74282 16.2853 8.57048 16.3023 8.40421 16.2692C8.23794 16.2362 8.08521 16.1545 7.96534 16.0347C7.84546 15.9148 7.76383 15.7621 7.73076 15.5958C7.69768 15.4295 7.71466 15.2572 7.77953 15.1006C7.84441 14.9439 7.95427 14.8101 8.09523 14.7159C8.23618 14.6217 8.4019 14.5714 8.57143 14.5714C8.79876 14.5714 9.01677 14.6617 9.17752 14.8225C9.33827 14.9832 9.42857 15.2012 9.42857 15.4286ZM12.8571 15.4286C12.8571 15.5981 12.8069 15.7638 12.7127 15.9048C12.6185 16.0457 12.4846 16.1556 12.328 16.2205C12.1714 16.2853 11.999 16.3023 11.8328 16.2692C11.6665 16.2362 11.5138 16.1545 11.3939 16.0347C11.274 15.9148 11.1924 15.7621 11.1593 15.5958C11.1263 15.4295 11.1432 15.2572 11.2081 15.1006C11.273 14.9439 11.3828 14.8101 11.5238 14.7159C11.6648 14.6217 11.8305 14.5714 12 14.5714C12.2273 14.5714 12.4453 14.6617 12.6061 14.8225C12.7668 14.9832 12.8571 15.2012 12.8571 15.4286ZM16.2857 15.4286C16.2857 15.5981 16.2354 15.7638 16.1413 15.9048C16.0471 16.0457 15.9132 16.1556 15.7566 16.2205C15.6 16.2853 15.4276 16.3023 15.2614 16.2692C15.0951 16.2362 14.9424 16.1545 14.8225 16.0347C14.7026 15.9148 14.621 15.7621 14.5879 15.5958C14.5548 15.4295 14.5718 15.2572 14.6367 15.1006C14.7015 14.9439 14.8114 14.8101 14.9524 14.7159C15.0933 14.6217 15.259 14.5714 15.4286 14.5714C15.6559 14.5714 15.8739 14.6617 16.0347 14.8225C16.1954 14.9832 16.2857 15.2012 16.2857 15.4286ZM19.7143 15.4286C19.7143 15.5981 19.664 15.7638 19.5698 15.9048C19.4756 16.0457 19.3418 16.1556 19.1852 16.2205C19.0285 16.2853 18.8562 16.3023 18.6899 16.2692C18.5237 16.2362 18.3709 16.1545 18.2511 16.0347C18.1312 15.9148 18.0495 15.7621 18.0165 15.5958C17.9834 15.4295 18.0004 15.2572 18.0652 15.1006C18.1301 14.9439 18.24 14.8101 18.3809 14.7159C18.5219 14.6217 18.6876 14.5714 18.8571 14.5714C19.0845 14.5714 19.3025 14.6617 19.4632 14.8225C19.624 14.9832 19.7143 15.2012 19.7143 15.4286ZM9.42857 12C9.42857 12.1695 9.3783 12.3352 9.28412 12.4762C9.18993 12.6172 9.05607 12.727 8.89944 12.7919C8.74282 12.8568 8.57048 12.8737 8.40421 12.8407C8.23794 12.8076 8.08521 12.726 7.96534 12.6061C7.84546 12.4862 7.76383 12.3335 7.73076 12.1672C7.69768 12.001 7.71466 11.8286 7.77953 11.672C7.84441 11.5154 7.95427 11.3815 8.09523 11.2873C8.23618 11.1931 8.4019 11.1429 8.57143 11.1429C8.79876 11.1429 9.01677 11.2332 9.17752 11.3939C9.33827 11.5547 9.42857 11.7727 9.42857 12ZM12.8571 12C12.8571 12.1695 12.8069 12.3352 12.7127 12.4762C12.6185 12.6172 12.4846 12.727 12.328 12.7919C12.1714 12.8568 11.999 12.8737 11.8328 12.8407C11.6665 12.8076 11.5138 12.726 11.3939 12.6061C11.274 12.4862 11.1924 12.3335 11.1593 12.1672C11.1263 12.001 11.1432 11.8286 11.2081 11.672C11.273 11.5154 11.3828 11.3815 11.5238 11.2873C11.6648 11.1931 11.8305 11.1429 12 11.1429C12.2273 11.1429 12.4453 11.2332 12.6061 11.3939C12.7668 11.5547 12.8571 11.7727 12.8571 12ZM16.2857 12C16.2857 12.1695 16.2354 12.3352 16.1413 12.4762C16.0471 12.6172 15.9132 12.727 15.7566 12.7919C15.6 12.8568 15.4276 12.8737 15.2614 12.8407C15.0951 12.8076 14.9424 12.726 14.8225 12.6061C14.7026 12.4862 14.621 12.3335 14.5879 12.1672C14.5548 12.001 14.5718 11.8286 14.6367 11.672C14.7015 11.5154 14.8114 11.3815 14.9524 11.2873C15.0933 11.1931 15.259 11.1429 15.4286 11.1429C15.6559 11.1429 15.8739 11.2332 16.0347 11.3939C16.1954 11.5547 16.2857 11.7727 16.2857 12ZM19.7143 12C19.7143 12.1695 19.664 12.3352 19.5698 12.4762C19.4756 12.6172 19.3418 12.727 19.1852 12.7919C19.0285 12.8568 18.8562 12.8737 18.6899 12.8407C18.5237 12.8076 18.3709 12.726 18.2511 12.6061C18.1312 12.4862 18.0495 12.3335 18.0165 12.1672C17.9834 12.001 18.0004 11.8286 18.0652 11.672C18.1301 11.5154 18.24 11.3815 18.3809 11.2873C18.5219 11.1931 18.6876 11.1429 18.8571 11.1429C19.0845 11.1429 19.3025 11.2332 19.4632 11.3939C19.624 11.5547 19.7143 11.7727 19.7143 12Z" fill="#424242"/>
</svg>
