<svg width="23" height="23" viewBox="0 0 23 23" fill="none" xmlns="http://www.w3.org/2000/svg">
<path d="M5.29778 12.9303C5.66952 12.6396 5.75538 12.1119 5.49486 11.7185L3.7311 9.07352C3.46412 8.67291 2.92945 8.55276 2.51683 8.80069L1.41158 9.46419C1.03515 9.68603 0.759074 10.045 0.64144 10.4658C0.232196 11.9513 0.530374 14.5058 4.26491 18.2403C7.22887 21.205 9.44929 22.0034 10.9824 22.0034C11.3392 22.0049 11.6946 21.9586 12.039 21.8654C12.46 21.7479 12.8189 21.4718 13.0406 21.0953L13.7058 19.9893C13.9542 19.5768 13.834 19.042 13.4332 18.7755L10.7878 17.012C10.3944 16.7522 9.86744 16.8378 9.57643 17.2088L8.83383 18.1589H8.37871C7.53385 17.6941 6.77145 17.0932 6.12191 16.3805C5.40275 15.726 4.79759 14.9561 4.33151 14.1027L4.25034 13.9541C4.20301 13.8678 4.22601 13.7598 4.30455 13.7004L5.29778 12.9303ZM3.64216 14.2956L3.72026 14.4388C4.21743 15.3513 4.86288 16.1751 5.62994 16.8762C6.33135 17.6439 7.15558 18.2896 8.06874 18.7866L8.21102 18.8644C8.53529 19.0463 8.93855 19.0073 9.22205 18.7667C9.22689 18.7626 9.2329 18.7597 9.23773 18.7551C9.28169 18.7169 9.32199 18.6744 9.35788 18.6284L10.128 17.6383C10.1929 17.5554 10.3109 17.5362 10.3987 17.5942L13.0438 19.3576C13.1337 19.4171 13.1608 19.537 13.105 19.6295L12.4398 20.7353C12.3103 20.9571 12.1 21.1202 11.8531 21.1905C10.0065 21.6968 7.4872 20.4734 4.75941 17.7455C2.03136 15.0175 0.808392 12.4978 1.31516 10.6515C1.3855 10.4046 1.54858 10.1943 1.77028 10.0648L2.87625 9.39957C2.96856 9.34418 3.08798 9.37114 3.14762 9.46081L4.91285 12.1072C4.97072 12.1952 4.95153 12.313 4.86874 12.3779L3.87864 13.1482C3.52551 13.4184 3.42457 13.907 3.64156 14.295L3.64216 14.2956Z" fill="#5E7E9B" stroke="#5E7E9B" stroke-width="0.5"/>
<path d="M20.4567 2.75056H20.1066V1.35005C20.1066 1.15678 19.9498 1 19.7564 1C19.5631 1 19.4064 1.15678 19.4064 1.35005V2.75056H17.6558V1.35005C17.6558 1.15678 17.4992 1 17.3058 1C17.1123 1 16.9557 1.15678 16.9557 1.35005V2.75056H15.2051V1.35005C15.2051 1.15678 15.0484 1 14.8551 1C14.6617 1 14.5049 1.15678 14.5049 1.35005V2.75056H12.7545V1.35005C12.7545 1.15678 12.5977 1 12.4043 1C12.211 1 12.0542 1.15678 12.0542 1.35005V2.75056H10.3037V1.35005C10.3037 1.15678 10.147 1 9.95363 1C9.76021 1 9.60358 1.15678 9.60358 1.35005V2.75056H7.85302V1.35005C7.85302 1.15678 7.69623 1 7.50297 1C7.30955 1 7.15277 1.15678 7.15277 1.35005V2.75056H5.40236V1.35005C5.40236 1.15678 5.24558 1 5.05217 1C4.8589 1 4.70211 1.15678 4.70211 1.35005V2.75056H4.35206C3.77196 2.75056 3.30176 3.22076 3.30176 3.80086V7.65173C3.30176 7.84514 3.4584 8.00192 3.65181 8.00192C3.84522 8.00192 4.00186 7.84514 4.00186 7.65173V6.25137H19.4064C19.5999 6.25137 19.7565 6.09459 19.7565 5.90132C19.7565 5.70791 19.5999 5.55112 19.4064 5.55112H4.00186V3.80071C4.00186 3.6073 4.15864 3.45052 4.35206 3.45052H20.4566C20.65 3.45052 20.8066 3.6073 20.8066 3.80071V17.8046C20.8066 17.9981 20.65 18.1547 20.4566 18.1547H14.5048C14.3115 18.1547 14.1547 18.3115 14.1547 18.5049C14.1547 18.6982 14.3115 18.8549 14.5048 18.8549H20.4566C21.0367 18.8549 21.5069 18.3847 21.5069 17.8046V3.80071C21.5069 3.22061 21.0367 2.75041 20.4566 2.75041L20.4567 2.75056Z" fill="#5E7E9B" stroke="#5E7E9B" stroke-width="0.5"/>
<path d="M6.80374 10.4571C6.61033 10.4571 6.45369 10.6139 6.45369 10.8072C6.45369 11.0006 6.61033 11.1574 6.80374 11.1574H11.005V13.608C11.005 13.8014 11.1617 13.9581 11.355 13.9581H14.8561V16.0587H13.8058C13.6124 16.0587 13.4556 16.2155 13.4556 16.4089C13.4556 16.6021 13.6124 16.7589 13.8058 16.7589H19.0573C19.2506 16.7589 19.4074 16.6021 19.4074 16.4089V8.00645C19.4074 7.81303 19.2506 7.65625 19.0573 7.65625H6.80366C6.61025 7.65625 6.45361 7.81303 6.45361 8.00645C6.45361 8.19972 6.61025 8.3565 6.80366 8.3565H7.15372V10.4571L6.80374 10.4571ZM11.7053 13.258V11.1574H14.8562V13.258H11.7053ZM11.7053 10.4571V8.35651H14.8562V10.4571H11.7053ZM18.7071 13.258H15.5561V11.1574H18.7071V13.258ZM15.5561 16.0587V13.9581H18.7071V16.0587H15.5561ZM18.7071 10.4572H15.5561V8.35658H18.7071V10.4572ZM7.85404 8.35658H11.005V10.4572H7.85404V8.35658Z" fill="#5E7E9B" stroke="#5E7E9B" stroke-width="0.5"/>
</svg>
