<svg width="19" height="19" viewBox="0 0 19 19" fill="none" xmlns="http://www.w3.org/2000/svg">
<path d="M17.7139 13.6217V16.0734C17.7148 16.3009 17.6681 16.5262 17.5768 16.7348C17.4854 16.9433 17.3514 17.1305 17.1834 17.2844C17.0153 17.4382 16.8169 17.5554 16.6009 17.6283C16.3849 17.7012 16.156 17.7283 15.9288 17.7078C13.4091 17.4345 10.9888 16.5752 8.86225 15.1989C6.88379 13.9442 5.2064 12.2702 3.9492 10.2956C2.56534 8.16366 1.70414 5.73635 1.43536 3.21033C1.41489 2.98434 1.44181 2.75657 1.51438 2.54154C1.58695 2.3265 1.70359 2.12889 1.85687 1.96131C2.01015 1.79372 2.19672 1.65983 2.40469 1.56814C2.61267 1.47646 2.83749 1.429 3.06485 1.42879H5.52137C5.91876 1.42489 6.30402 1.56533 6.60533 1.82394C6.90663 2.08255 7.10344 2.44169 7.15906 2.83441C7.26274 3.61899 7.45503 4.38935 7.73225 5.13079C7.84242 5.42329 7.86626 5.74118 7.80095 6.0468C7.73564 6.35241 7.58392 6.63293 7.36377 6.85512L6.32384 7.89299C7.48951 9.93894 9.18688 11.6329 11.2369 12.7963L12.2768 11.7584C12.4994 11.5387 12.7805 11.3873 13.0867 11.3221C13.393 11.2569 13.7115 11.2807 14.0046 11.3907C14.7475 11.6674 15.5194 11.8593 16.3055 11.9627C16.7033 12.0187 17.0665 12.2187 17.3262 12.5246C17.5859 12.8305 17.7239 13.2209 17.7139 13.6217Z" stroke="#424242" stroke-width="1.4" stroke-linecap="round" stroke-linejoin="round"/>
</svg>
