<svg width="28" height="28" viewBox="0 0 28 28" fill="none" xmlns="http://www.w3.org/2000/svg">
<path d="M6.44913 15.7388C6.90168 15.3849 7.0062 14.7426 6.68905 14.2636L4.54187 11.0437C4.21686 10.5559 3.56595 10.4097 3.06363 10.7115L1.7181 11.5192C1.25985 11.7893 0.92375 12.2263 0.780544 12.7386C0.282334 14.5471 0.645333 17.6568 5.19173 22.2033C8.80003 25.8124 11.5031 26.7844 13.3695 26.7844C13.8038 26.7862 14.2366 26.7298 14.6558 26.6164C15.1683 26.4733 15.6053 26.1372 15.8752 25.6788L16.685 24.3324C16.9874 23.8303 16.8411 23.1792 16.3531 22.8547L13.1326 20.7079C12.6537 20.3916 12.0122 20.4958 11.6579 20.9475L10.7539 22.1041H10.1998C9.17131 21.5382 8.24316 20.8067 7.45242 19.9391C6.57692 19.1423 5.8402 18.205 5.27281 17.1661L5.17398 16.9853C5.11637 16.8802 5.14437 16.7487 5.23998 16.6763L6.44913 15.7388ZM4.4336 17.401L4.52867 17.5752C5.13392 18.6862 5.91969 19.689 6.8535 20.5426C7.7074 21.4771 8.7108 22.2632 9.82248 22.8683L9.99569 22.963C10.3904 23.1844 10.8814 23.137 11.2265 22.8441C11.2324 22.8391 11.2397 22.8355 11.2456 22.83C11.2991 22.7834 11.3482 22.7317 11.3919 22.6757L12.3294 21.4703C12.4084 21.3694 12.552 21.346 12.6589 21.4166L15.879 23.5634C15.9886 23.6359 16.0216 23.7818 15.9536 23.8943L15.1438 25.2406C14.9861 25.5106 14.7301 25.7092 14.4295 25.7948C12.1815 26.4111 9.11451 24.9218 5.79373 21.6009C2.47262 18.2798 0.98379 15.2123 1.60073 12.9647C1.68635 12.6641 1.88489 12.4081 2.15479 12.2504L3.50119 11.4406C3.61356 11.3731 3.75894 11.406 3.83155 11.5151L5.98052 14.7369C6.05098 14.8439 6.02761 14.9873 5.92682 15.0663L4.72149 16.0041C4.29159 16.333 4.1687 16.9279 4.43287 17.4003L4.4336 17.401Z" fill="#DEDEDE" stroke="#DCDDDD" stroke-width="0.5"/>
<path d="M24.9033 3.34596H24.4771V1.64099C24.4771 1.40571 24.2863 1.21484 24.0508 1.21484C23.8155 1.21484 23.6246 1.40571 23.6246 1.64099V3.34596H21.4935V1.64099C21.4935 1.40571 21.3028 1.21484 21.0674 1.21484C20.8319 1.21484 20.6412 1.40571 20.6412 1.64099V3.34596H18.5101V1.64099C18.5101 1.40571 18.3193 1.21484 18.084 1.21484C17.8485 1.21484 17.6576 1.40571 17.6576 1.64099V3.34596H15.5267V1.64099C15.5267 1.40571 15.3358 1.21484 15.1004 1.21484C14.8651 1.21484 14.6742 1.40571 14.6742 1.64099V3.34596H12.5431V1.64099C12.5431 1.40571 12.3524 1.21484 12.117 1.21484C11.8815 1.21484 11.6908 1.40571 11.6908 1.64099V3.34596H9.55971V1.64099C9.55971 1.40571 9.36884 1.21484 9.13356 1.21484C8.8981 1.21484 8.70723 1.40571 8.70723 1.64099V3.34596H6.5763V1.64099C6.5763 1.40571 6.38543 1.21484 6.14997 1.21484C5.91469 1.21484 5.72382 1.40571 5.72382 1.64099V3.34596H5.29767C4.59146 3.34596 4.01904 3.91837 4.01904 4.62459V9.3126C4.01904 9.54806 4.20973 9.73893 4.44519 9.73893C4.68065 9.73893 4.87134 9.54806 4.87134 9.3126V7.60782H23.6248C23.8602 7.60782 24.0509 7.41695 24.0509 7.18167C24.0509 6.94621 23.8602 6.75534 23.6248 6.75534H4.87134V4.62441C4.87134 4.38895 5.06221 4.19808 5.29767 4.19808H24.9032C25.1387 4.19808 25.3293 4.38895 25.3293 4.62441V21.6727C25.3293 21.9081 25.1387 22.0988 24.9032 22.0988H17.6575C17.4222 22.0988 17.2313 22.2897 17.2313 22.5252C17.2313 22.7604 17.4222 22.9513 17.6575 22.9513H24.9032C25.6094 22.9513 26.1818 22.3789 26.1818 21.6727V4.62441C26.1818 3.91819 25.6094 3.34577 24.9032 3.34577L24.9033 3.34596Z" fill="#DEDEDE" stroke="#DCDDDD" stroke-width="0.5"/>
<path d="M8.28269 12.7262C8.04723 12.7262 7.85654 12.917 7.85654 13.1523C7.85654 13.3878 8.04723 13.5786 8.28269 13.5786H13.3972V16.562C13.3972 16.7975 13.5881 16.9882 13.8234 16.9882H18.0856V19.5455H16.807C16.5715 19.5455 16.3806 19.7363 16.3806 19.9718C16.3806 20.2071 16.5715 20.3979 16.807 20.3979H23.2001C23.4354 20.3979 23.6263 20.2071 23.6263 19.9718V9.74273C23.6263 9.50727 23.4354 9.31641 23.2001 9.31641H8.28259C8.04713 9.31641 7.85645 9.50727 7.85645 9.74273C7.85645 9.97802 8.04713 10.1689 8.28259 10.1689H8.70874V12.7261L8.28269 12.7262ZM14.2498 16.1359V13.5786H18.0857V16.1359H14.2498ZM14.2498 12.7262V10.1689H18.0857V12.7262H14.2498ZM22.7737 16.1359H18.9378V13.5786H22.7737V16.1359ZM18.9378 19.5455V16.9882H22.7737V19.5455H18.9378ZM22.7737 12.7262H18.9378V10.169H22.7737V12.7262ZM9.56132 10.169H13.3972V12.7262H9.56132V10.169Z" fill="#DEDEDE" stroke="#DCDDDD" stroke-width="0.5"/>
</svg>
