<svg width="24" height="24" viewBox="0 0 24 24" fill="none" xmlns="http://www.w3.org/2000/svg">
<path d="M20.6429 2.57143H17.5V1.78571C17.5 1.57733 17.4172 1.37748 17.2699 1.23013C17.1225 1.08278 16.9227 1 16.7143 1C16.5059 1 16.3061 1.08278 16.1587 1.23013C16.0114 1.37748 15.9286 1.57733 15.9286 1.78571V2.57143H8.07143V1.78571C8.07143 1.57733 7.98865 1.37748 7.8413 1.23013C7.69395 1.08278 7.4941 1 7.28571 1C7.07733 1 6.87748 1.08278 6.73013 1.23013C6.58278 1.37748 6.5 1.57733 6.5 1.78571V2.57143H3.35714C2.73199 2.57143 2.13244 2.81977 1.69039 3.26182C1.24834 3.70387 1 4.30342 1 4.92857V20.6429C1 21.268 1.24834 21.8676 1.69039 22.3096C2.13244 22.7517 2.73199 23 3.35714 23H20.6429C21.268 23 21.8676 22.7517 22.3096 22.3096C22.7517 21.8676 23 21.268 23 20.6429V4.92857C23 4.30342 22.7517 3.70387 22.3096 3.26182C21.8676 2.81977 21.268 2.57143 20.6429 2.57143ZM3.35714 4.14286H6.5V4.92857C6.5 5.13696 6.58278 5.3368 6.73013 5.48416C6.87748 5.63151 7.07733 5.71429 7.28571 5.71429C7.4941 5.71429 7.69395 5.63151 7.8413 5.48416C7.98865 5.3368 8.07143 5.13696 8.07143 4.92857V4.14286H15.9286V4.92857C15.9286 5.13696 16.0114 5.3368 16.1587 5.48416C16.3061 5.63151 16.5059 5.71429 16.7143 5.71429C16.9227 5.71429 17.1225 5.63151 17.2699 5.48416C17.4172 5.3368 17.5 5.13696 17.5 4.92857V4.14286H20.6429C20.8512 4.14286 21.0511 4.22564 21.1984 4.37299C21.3458 4.52034 21.4286 4.72019 21.4286 4.92857V7.28571H2.57143V4.92857C2.57143 4.72019 2.65421 4.52034 2.80156 4.37299C2.94891 4.22564 3.14876 4.14286 3.35714 4.14286ZM20.6429 21.4286H3.35714C3.14876 21.4286 2.94891 21.3458 2.80156 21.1984C2.65421 21.0511 2.57143 20.8512 2.57143 20.6429V8.85714H21.4286V20.6429C21.4286 20.8512 21.3458 21.0511 21.1984 21.1984C21.0511 21.3458 20.8512 21.4286 20.6429 21.4286ZM6.5 18.2857C6.5 18.4411 6.45392 18.593 6.36758 18.7222C6.28125 18.8514 6.15854 18.9522 6.01497 19.0116C5.8714 19.0711 5.71341 19.0866 5.561 19.0563C5.40859 19.026 5.26859 18.9512 5.1587 18.8413C5.04882 18.7314 4.97399 18.5914 4.94367 18.439C4.91335 18.2866 4.92891 18.1286 4.98838 17.985C5.04785 17.8415 5.14856 17.7188 5.27777 17.6324C5.40698 17.5461 5.55889 17.5 5.71429 17.5C5.92267 17.5 6.12252 17.5828 6.26987 17.7301C6.41722 17.8775 6.5 18.0773 6.5 18.2857ZM9.64286 18.2857C9.64286 18.4411 9.59678 18.593 9.51044 18.7222C9.4241 18.8514 9.30139 18.9522 9.15782 19.0116C9.01425 19.0711 8.85627 19.0866 8.70386 19.0563C8.55144 19.026 8.41144 18.9512 8.30156 18.8413C8.19167 18.7314 8.11684 18.5914 8.08653 18.439C8.05621 18.2866 8.07177 18.1286 8.13124 17.985C8.19071 17.8415 8.29141 17.7188 8.42062 17.6324C8.54983 17.5461 8.70174 17.5 8.85714 17.5C9.06553 17.5 9.26538 17.5828 9.41273 17.7301C9.56008 17.8775 9.64286 18.0773 9.64286 18.2857ZM12.7857 18.2857C12.7857 18.4411 12.7396 18.593 12.6533 18.7222C12.567 18.8514 12.4442 18.9522 12.3007 19.0116C12.1571 19.0711 11.9991 19.0866 11.8467 19.0563C11.6943 19.026 11.5543 18.9512 11.4444 18.8413C11.3345 18.7314 11.2597 18.5914 11.2294 18.439C11.1991 18.2866 11.2146 18.1286 11.2741 17.985C11.3336 17.8415 11.4343 17.7188 11.5635 17.6324C11.6927 17.5461 11.8446 17.5 12 17.5C12.2084 17.5 12.4082 17.5828 12.5556 17.7301C12.7029 17.8775 12.7857 18.0773 12.7857 18.2857ZM15.9286 18.2857C15.9286 18.4411 15.8825 18.593 15.7962 18.7222C15.7098 18.8514 15.5871 18.9522 15.4435 19.0116C15.3 19.0711 15.142 19.0866 14.9896 19.0563C14.8372 19.026 14.6972 18.9512 14.5873 18.8413C14.4774 18.7314 14.4026 18.5914 14.3722 18.439C14.3419 18.2866 14.3575 18.1286 14.417 17.985C14.4764 17.8415 14.5771 17.7188 14.7063 17.6324C14.8355 17.5461 14.9875 17.5 15.1429 17.5C15.3512 17.5 15.5511 17.5828 15.6984 17.7301C15.8458 17.8775 15.9286 18.0773 15.9286 18.2857ZM6.5 15.1429C6.5 15.2983 6.45392 15.4502 6.36758 15.5794C6.28125 15.7086 6.15854 15.8093 6.01497 15.8688C5.8714 15.9282 5.71341 15.9438 5.561 15.9135C5.40859 15.8832 5.26859 15.8083 5.1587 15.6984C5.04882 15.5886 4.97399 15.4486 4.94367 15.2961C4.91335 15.1437 4.92891 14.9857 4.98838 14.8422C5.04785 14.6986 5.14856 14.5759 5.27777 14.4896C5.40698 14.4032 5.55889 14.3571 5.71429 14.3571C5.92267 14.3571 6.12252 14.4399 6.26987 14.5873C6.41722 14.7346 6.5 14.9345 6.5 15.1429ZM9.64286 15.1429C9.64286 15.2983 9.59678 15.4502 9.51044 15.5794C9.4241 15.7086 9.30139 15.8093 9.15782 15.8688C9.01425 15.9282 8.85627 15.9438 8.70386 15.9135C8.55144 15.8832 8.41144 15.8083 8.30156 15.6984C8.19167 15.5886 8.11684 15.4486 8.08653 15.2961C8.05621 15.1437 8.07177 14.9857 8.13124 14.8422C8.19071 14.6986 8.29141 14.5759 8.42062 14.4896C8.54983 14.4032 8.70174 14.3571 8.85714 14.3571C9.06553 14.3571 9.26538 14.4399 9.41273 14.5873C9.56008 14.7346 9.64286 14.9345 9.64286 15.1429ZM12.7857 15.1429C12.7857 15.2983 12.7396 15.4502 12.6533 15.5794C12.567 15.7086 12.4442 15.8093 12.3007 15.8688C12.1571 15.9282 11.9991 15.9438 11.8467 15.9135C11.6943 15.8832 11.5543 15.8083 11.4444 15.6984C11.3345 15.5886 11.2597 15.4486 11.2294 15.2961C11.1991 15.1437 11.2146 14.9857 11.2741 14.8422C11.3336 14.6986 11.4343 14.5759 11.5635 14.4896C11.6927 14.4032 11.8446 14.3571 12 14.3571C12.2084 14.3571 12.4082 14.4399 12.5556 14.5873C12.7029 14.7346 12.7857 14.9345 12.7857 15.1429ZM15.9286 15.1429C15.9286 15.2983 15.8825 15.4502 15.7962 15.5794C15.7098 15.7086 15.5871 15.8093 15.4435 15.8688C15.3 15.9282 15.142 15.9438 14.9896 15.9135C14.8372 15.8832 14.6972 15.8083 14.5873 15.6984C14.4774 15.5886 14.4026 15.4486 14.3722 15.2961C14.3419 15.1437 14.3575 14.9857 14.417 14.8422C14.4764 14.6986 14.5771 14.5759 14.7063 14.4896C14.8355 14.4032 14.9875 14.3571 15.1429 14.3571C15.3512 14.3571 15.5511 14.4399 15.6984 14.5873C15.8458 14.7346 15.9286 14.9345 15.9286 15.1429ZM19.0714 15.1429C19.0714 15.2983 19.0253 15.4502 18.939 15.5794C18.8527 15.7086 18.73 15.8093 18.5864 15.8688C18.4428 15.9282 18.2848 15.9438 18.1324 15.9135C17.98 15.8832 17.84 15.8083 17.7301 15.6984C17.6202 15.5886 17.5454 15.4486 17.5151 15.2961C17.4848 15.1437 17.5003 14.9857 17.5598 14.8422C17.6193 14.6986 17.72 14.5759 17.8492 14.4896C17.9784 14.4032 18.1303 14.3571 18.2857 14.3571C18.4941 14.3571 18.6939 14.4399 18.8413 14.5873C18.9886 14.7346 19.0714 14.9345 19.0714 15.1429ZM9.64286 12C9.64286 12.1554 9.59678 12.3073 9.51044 12.4365C9.4241 12.5657 9.30139 12.6664 9.15782 12.7259C9.01425 12.7854 8.85627 12.8009 8.70386 12.7706C8.55144 12.7403 8.41144 12.6655 8.30156 12.5556C8.19167 12.4457 8.11684 12.3057 8.08653 12.1533C8.05621 12.0009 8.07177 11.8429 8.13124 11.6993C8.19071 11.5557 8.29141 11.433 8.42062 11.3467C8.54983 11.2604 8.70174 11.2143 8.85714 11.2143C9.06553 11.2143 9.26538 11.2971 9.41273 11.4444C9.56008 11.5918 9.64286 11.7916 9.64286 12ZM12.7857 12C12.7857 12.1554 12.7396 12.3073 12.6533 12.4365C12.567 12.5657 12.4442 12.6664 12.3007 12.7259C12.1571 12.7854 11.9991 12.8009 11.8467 12.7706C11.6943 12.7403 11.5543 12.6655 11.4444 12.5556C11.3345 12.4457 11.2597 12.3057 11.2294 12.1533C11.1991 12.0009 11.2146 11.8429 11.2741 11.6993C11.3336 11.5557 11.4343 11.433 11.5635 11.3467C11.6927 11.2604 11.8446 11.2143 12 11.2143C12.2084 11.2143 12.4082 11.2971 12.5556 11.4444C12.7029 11.5918 12.7857 11.7916 12.7857 12ZM15.9286 12C15.9286 12.1554 15.8825 12.3073 15.7962 12.4365C15.7098 12.5657 15.5871 12.6664 15.4435 12.7259C15.3 12.7854 15.142 12.8009 14.9896 12.7706C14.8372 12.7403 14.6972 12.6655 14.5873 12.5556C14.4774 12.4457 14.4026 12.3057 14.3722 12.1533C14.3419 12.0009 14.3575 11.8429 14.417 11.6993C14.4764 11.5557 14.5771 11.433 14.7063 11.3467C14.8355 11.2604 14.9875 11.2143 15.1429 11.2143C15.3512 11.2143 15.5511 11.2971 15.6984 11.4444C15.8458 11.5918 15.9286 11.7916 15.9286 12ZM19.0714 12C19.0714 12.1554 19.0253 12.3073 18.939 12.4365C18.8527 12.5657 18.73 12.6664 18.5864 12.7259C18.4428 12.7854 18.2848 12.8009 18.1324 12.7706C17.98 12.7403 17.84 12.6655 17.7301 12.5556C17.6202 12.4457 17.5454 12.3057 17.5151 12.1533C17.4848 12.0009 17.5003 11.8429 17.5598 11.6993C17.6193 11.5557 17.72 11.433 17.8492 11.3467C17.9784 11.2604 18.1303 11.2143 18.2857 11.2143C18.4941 11.2143 18.6939 11.2971 18.8413 11.4444C18.9886 11.5918 19.0714 11.7916 19.0714 12Z" fill="#DEDEDE"/>
</svg>
