<svg width="10" height="8" viewBox="0 0 10 8" fill="none" xmlns="http://www.w3.org/2000/svg">
<path d="M9.1987 6.0292C9.1987 6.17936 9.13905 6.32336 9.03287 6.42954C8.92669 6.53572 8.78268 6.59537 8.63253 6.59537H1.83841C1.68825 6.59537 1.54424 6.53572 1.43806 6.42954C1.33188 6.32336 1.27223 6.17936 1.27223 6.0292V2.63214C1.27223 2.48198 1.33188 2.33797 1.43806 2.23179C1.54424 2.12561 1.68825 2.06596 1.83841 2.06596H2.50197C2.95221 2.06571 3.38394 1.88671 3.70226 1.56829L4.17219 1.0995C4.27806 0.993589 4.42159 0.93394 4.57134 0.933608H5.89846C6.04861 0.93364 6.19259 0.993312 6.29875 1.0995L6.76754 1.56829C6.92529 1.72609 7.11259 1.85127 7.31874 1.93666C7.52488 2.02205 7.74584 2.06599 7.96897 2.06596H8.63253C8.78268 2.06596 8.92669 2.12561 9.03287 2.23179C9.13905 2.33797 9.1987 2.48198 9.1987 2.63214V6.0292ZM1.83841 1.49978C1.53809 1.49978 1.25007 1.61909 1.03771 1.83144C0.825356 2.0438 0.706055 2.33182 0.706055 2.63214L0.706055 6.0292C0.706055 6.32951 0.825356 6.61753 1.03771 6.82989C1.25007 7.04225 1.53809 7.16155 1.83841 7.16155H8.63253C8.93284 7.16155 9.22086 7.04225 9.43322 6.82989C9.64558 6.61753 9.76488 6.32951 9.76488 6.0292V2.63214C9.76488 2.33182 9.64558 2.0438 9.43322 1.83144C9.22086 1.61909 8.93284 1.49978 8.63253 1.49978H7.96897C7.66867 1.49972 7.3807 1.38038 7.16839 1.16801L6.6996 0.699211C6.48729 0.486839 6.19932 0.367496 5.89903 0.367432H4.57191C4.27161 0.367496 3.98364 0.486839 3.77133 0.699211L3.30254 1.16801C3.09023 1.38038 2.80226 1.49972 2.50197 1.49978H1.83841Z" fill="#27235E"/>
<path d="M5.23544 5.46298C4.86004 5.46298 4.50002 5.31385 4.23457 5.0484C3.96912 4.78296 3.82 4.42293 3.82 4.04754C3.82 3.67214 3.96912 3.31211 4.23457 3.04667C4.50002 2.78122 4.86004 2.63209 5.23544 2.63209C5.61084 2.63209 5.97086 2.78122 6.23631 3.04667C6.50175 3.31211 6.65088 3.67214 6.65088 4.04754C6.65088 4.42293 6.50175 4.78296 6.23631 5.0484C5.97086 5.31385 5.61084 5.46298 5.23544 5.46298ZM5.23544 6.02915C5.761 6.02915 6.26503 5.82038 6.63665 5.44875C7.00828 5.07713 7.21706 4.57309 7.21706 4.04754C7.21706 3.52198 7.00828 3.01795 6.63665 2.64632C6.26503 2.2747 5.761 2.06592 5.23544 2.06592C4.70988 2.06592 4.20585 2.2747 3.83422 2.64632C3.4626 3.01795 3.25382 3.52198 3.25382 4.04754C3.25382 4.57309 3.4626 5.07713 3.83422 5.44875C4.20585 5.82038 4.70988 6.02915 5.23544 6.02915ZM2.40456 2.91518C2.40456 2.99026 2.37473 3.06227 2.32164 3.11536C2.26855 3.16845 2.19655 3.19827 2.12147 3.19827C2.04639 3.19827 1.97438 3.16845 1.92129 3.11536C1.8682 3.06227 1.83838 2.99026 1.83838 2.91518C1.83838 2.8401 1.8682 2.7681 1.92129 2.71501C1.97438 2.66192 2.04639 2.63209 2.12147 2.63209C2.19655 2.63209 2.26855 2.66192 2.32164 2.71501C2.37473 2.7681 2.40456 2.8401 2.40456 2.91518Z" fill="#27235E"/>
</svg>
