<svg width="24" height="24" viewBox="0 0 24 24" fill="none" xmlns="http://www.w3.org/2000/svg">
<path d="M16.9853 6.17645V6.59557C16.9853 6.82704 16.7976 7.01468 16.5662 7.01468C16.3347 7.01468 16.1471 6.82704 16.1471 6.59557V6.17645H12.7941V6.59557C12.7941 6.82704 12.6065 7.01468 12.375 7.01468C12.1435 7.01468 11.9559 6.82704 11.9559 6.59557V6.17645H8.60294V6.59557C8.60294 6.82704 8.4153 7.01468 8.18382 7.01468C7.95235 7.01468 7.76471 6.82704 7.76471 6.59557V6.17645H6.50735C6.27564 6.17645 6.08824 6.36398 6.08824 6.59557V7.85292H18.6618V6.59557C18.6618 6.36398 18.4744 6.17645 18.2426 6.17645H16.9853ZM16.9853 5.33821H18.2426C18.9374 5.33821 19.5 5.90116 19.5 6.59557V18.3309C19.5 19.0253 18.9374 19.5882 18.2426 19.5882H6.50735C5.81256 19.5882 5.25 19.0253 5.25 18.3309V6.59557C5.25 5.90116 5.81256 5.33821 6.50735 5.33821H7.76471V4.08086C7.76471 3.84939 7.95235 3.66174 8.18382 3.66174C8.4153 3.66174 8.60294 3.84939 8.60294 4.08086V5.33821H11.9559V4.08086C11.9559 3.84939 12.1435 3.66174 12.375 3.66174C12.6065 3.66174 12.7941 3.84939 12.7941 4.08086V5.33821H16.1471V4.08086C16.1471 3.84939 16.3347 3.66174 16.5662 3.66174C16.7976 3.66174 16.9853 3.84939 16.9853 4.08086V5.33821ZM18.6618 8.69115H6.08824V18.3309C6.08824 18.5624 6.27564 18.75 6.50735 18.75H18.2426C18.4744 18.75 18.6618 18.5624 18.6618 18.3309V8.69115ZM9.86029 11.2059C9.62882 11.2059 9.44118 11.0182 9.44118 10.7867C9.44118 10.5553 9.62882 10.3676 9.86029 10.3676H14.8897C15.1212 10.3676 15.3088 10.5553 15.3088 10.7867C15.3088 11.0182 15.1212 11.2059 14.8897 11.2059H9.86029ZM9.86029 13.7206C9.62882 13.7206 9.44118 13.5329 9.44118 13.3014C9.44118 13.07 9.62882 12.8823 9.86029 12.8823H14.8897C15.1212 12.8823 15.3088 13.07 15.3088 13.3014C15.3088 13.5329 15.1212 13.7206 14.8897 13.7206H9.86029ZM9.86029 16.2353C9.62882 16.2353 9.44118 16.0476 9.44118 15.8162C9.44118 15.5847 9.62882 15.397 9.86029 15.397H14.8897C15.1212 15.397 15.3088 15.5847 15.3088 15.8162C15.3088 16.0476 15.1212 16.2353 14.8897 16.2353H9.86029Z" fill="#424242"/>
<circle cx="12" cy="12" r="11.5" stroke="#424242"/>
<line x1="20.3427" y1="4.3641" x2="3.34268" y2="20.3641" stroke="#424242"/>
</svg>
