<svg width="24" height="24" viewBox="0 0 24 24" fill="none" xmlns="http://www.w3.org/2000/svg">
<path d="M17.9996 14.9843V16.7908C18.0003 16.9585 17.9659 17.1245 17.8986 17.2781C17.8313 17.4318 17.7325 17.5697 17.6087 17.6831C17.4849 17.7965 17.3387 17.8828 17.1795 17.9365C17.0203 17.9903 16.8517 18.0102 16.6843 17.9951C14.8277 17.7938 13.0443 17.1606 11.4773 16.1465C10.0195 15.222 8.78356 13.9884 7.8572 12.5335C6.83752 10.9626 6.20294 9.17405 6.0049 7.31277C5.98982 7.14625 6.00965 6.97843 6.06312 6.81998C6.11659 6.66153 6.20254 6.51592 6.31548 6.39244C6.42843 6.26896 6.5659 6.1703 6.71915 6.10274C6.87239 6.03519 7.03805 6.00022 7.20558 6.00006H9.01565C9.30846 5.99718 9.59233 6.10067 9.81435 6.29122C10.0364 6.48178 10.1814 6.74641 10.2224 7.03578C10.2988 7.61389 10.4404 8.18152 10.6447 8.72785C10.7259 8.94338 10.7435 9.17761 10.6953 9.4028C10.6472 9.62799 10.5354 9.83469 10.3732 9.99841L9.60694 10.7632C10.4658 12.2707 11.7165 13.5189 13.2271 14.3761L13.9933 13.6114C14.1574 13.4495 14.3645 13.3379 14.5901 13.2899C14.8158 13.2419 15.0505 13.2594 15.2664 13.3404C15.8138 13.5443 16.3826 13.6857 16.9619 13.7619C17.2549 13.8032 17.5226 13.9505 17.714 14.1759C17.9053 14.4013 18.007 14.689 17.9996 14.9843Z" stroke="#424242" stroke-width="1.4" stroke-linecap="round" stroke-linejoin="round"/>
<circle cx="12" cy="12" r="11.3" stroke="#424242" stroke-width="1.4"/>
<line x1="20.4798" y1="4.50974" x2="3.47975" y2="20.5097" stroke="#424242" stroke-width="1.4"/>
</svg>
