<svg width="165" height="31" viewBox="0 0 165 31" fill="none" xmlns="http://www.w3.org/2000/svg">
<path d="M136.949 6.2109C136.52 5.49454 135.564 4.9692 134.084 5.73332C133.272 6.16314 132.269 7.07054 131.171 8.1212C131.123 8.16896 131.028 8.26448 130.98 8.31223C130.741 8.55102 130.311 8.50326 130.12 8.21672C129.977 7.97793 130.025 7.64363 130.216 7.4526C130.263 7.40484 130.311 7.35708 130.407 7.30932C131.266 6.5452 132.03 5.82884 132.747 5.3035C133.033 5.11247 133.32 4.92144 133.606 4.77817C134.753 4.20508 135.756 4.15732 136.567 4.49163C137.714 3.96629 138.812 3.48872 139.528 3.29769C141.582 2.67684 141.057 -0.0931036 138.86 0.00241162C136.663 0.0979268 129.356 0.909806 126.873 3.01114C125.726 3.96629 124.198 5.73332 122.956 7.59587C122.765 7.88242 122.431 8.07345 122.097 8.07345H120.521C120.091 8.07345 119.709 8.45551 119.709 8.88533V14.0909C119.709 14.5685 120.091 14.9028 120.521 14.9028C121.428 14.9028 122.909 14.855 124.198 14.7595C126.825 14.6162 129.356 13.8044 130.407 13.1835C131.362 12.6104 132.556 11.6553 133.654 10.6524C134.609 9.79272 135.66 8.88532 136.615 8.26447C137.284 7.64363 137.284 6.83175 136.949 6.2109Z" fill="#FAE100"/>
<path d="M164.269 16.0094C163.362 16.0094 161.881 16.0572 160.592 16.1527C157.965 16.296 155.434 17.1078 154.383 17.7287C153.428 18.3018 152.234 19.2569 151.136 20.2598C150.18 21.1195 149.13 22.0269 148.175 22.6477C147.506 23.0775 147.506 23.9372 147.84 24.5103C148.27 25.2266 149.225 25.752 150.706 24.9878C151.518 24.558 152.521 23.6506 153.619 22.6C153.667 22.5522 153.762 22.4567 153.81 22.4089C154.049 22.1701 154.479 22.2179 154.67 22.5044C154.813 22.7432 154.765 23.0775 154.574 23.2686C154.526 23.3163 154.479 23.3641 154.383 23.4118C153.523 24.176 152.759 24.8923 152.043 25.4177C151.756 25.6087 151.47 25.7997 151.183 25.943C150.037 26.5161 149.034 26.5638 148.222 26.2295C147.076 26.7549 145.978 27.2324 145.261 27.4235C143.208 28.0443 143.733 30.8143 145.93 30.7187C148.127 30.6232 155.434 29.8113 157.917 27.71C159.063 26.7549 160.592 24.9878 161.833 23.1253C162.024 22.8387 162.359 22.6477 162.693 22.6477H164.173C164.603 22.6477 164.985 22.2657 164.985 21.8358V16.7735C165.081 16.3437 164.699 15.9617 164.269 16.0094Z" fill="#FAE100"/>
<path d="M150.54 16.9592C152.211 15.2876 152.211 12.5655 150.54 10.8462C149.68 9.98655 148.582 9.60449 147.483 9.60449C146.385 9.60449 145.286 10.0343 144.427 10.8462L143.758 11.6103L143.042 10.8939C142.182 10.0343 141.084 9.65225 139.985 9.65225C138.839 9.65225 137.693 10.0821 136.881 10.9895C135.257 12.7087 135.353 15.3832 137.024 17.0547L143.233 23.2632C143.519 23.5497 143.949 23.5497 144.236 23.2632L150.54 16.9592Z" fill="#FAE100"/>
<path d="M12.8485 21.4046C12.8485 22.1775 12.702 22.9036 12.4092 23.583C12.1163 24.2623 11.7162 24.8571 11.209 25.3673C10.6988 25.8776 10.104 26.2792 9.42462 26.572C8.74529 26.8619 8.01765 27.0068 7.2417 27.0068H5.62035C4.8444 27.0068 4.11374 26.8619 3.42837 26.572C2.74602 26.2792 2.14971 25.8776 1.63946 25.3673C1.1292 24.8571 0.727642 24.2623 0.434773 23.583C0.144924 22.9036 0 22.1775 0 21.4046V9.14485C0 8.3689 0.144924 7.64126 0.434773 6.96193C0.727642 6.28259 1.1292 5.6878 1.63946 5.17754C2.14971 4.67031 2.74602 4.27026 3.42837 3.97739C4.11374 3.68452 4.8444 3.53809 5.62035 3.53809H7.2417C8.01765 3.53809 8.74529 3.68452 9.42462 3.97739C10.104 4.27026 10.6988 4.67031 11.209 5.17754C11.7162 5.6878 12.1163 6.28259 12.4092 6.96193C12.702 7.64126 12.8485 8.3689 12.8485 9.14485V10.0687L10.7923 10.3858V9.14485C10.7923 8.6346 10.6972 8.15906 10.507 7.71825C10.3168 7.27744 10.0572 6.89248 9.72806 6.56338C9.39896 6.23429 9.014 5.97463 8.57319 5.78441C8.13238 5.5942 7.65685 5.49909 7.14659 5.49909H5.71546C5.20521 5.49909 4.72967 5.5942 4.28886 5.78441C3.84805 5.97463 3.46158 6.23429 3.12946 6.56338C2.79433 6.89248 2.53165 7.27744 2.34144 7.71825C2.1482 8.15906 2.05159 8.6346 2.05159 9.14485V21.4046C2.05159 21.9148 2.1482 22.3888 2.34144 22.8266C2.53165 23.2674 2.79433 23.6554 3.12946 23.9906C3.46158 24.3257 3.84805 24.5884 4.28886 24.7786C4.72967 24.9688 5.20521 25.0639 5.71546 25.0639H7.14659C7.65685 25.0639 8.13238 24.9688 8.57319 24.7786C9.014 24.5884 9.39896 24.3257 9.72806 23.9906C10.0572 23.6554 10.3168 23.2674 10.507 22.8266C10.6972 22.3888 10.7923 21.9148 10.7923 21.4046V20.1636L12.8485 20.4942V21.4046ZM27.4949 26.6898L25.9823 21.3729H18.7541L17.2596 26.6898H15.1265L21.8111 3.85964H22.8935L29.6144 26.6898H27.4949ZM22.3048 8.89123L19.3112 19.4118H25.4433L22.4316 8.89123L22.3682 8.04433L22.3048 8.89123ZM45.6467 26.6898H43.2736L37.0826 16.9436H34.2611V26.6898H32.2095V3.85964H39.4512C40.2271 3.85964 40.9548 4.00456 41.6341 4.29441C42.3134 4.58728 42.9082 4.98884 43.4185 5.49909C43.9287 6.00633 44.3288 6.60263 44.6186 7.28801C44.9115 7.97338 45.0579 8.70404 45.0579 9.47999V11.3232C45.0579 12.0992 44.9115 12.8299 44.6186 13.5152C44.3288 14.2006 43.9287 14.7969 43.4185 15.3041C42.9082 15.8144 42.3134 16.216 41.6341 16.5088C40.9548 16.7987 40.2271 16.9436 39.4512 16.9436L45.6467 26.6898ZM43.0018 11.3232V9.47999C43.0018 8.96973 42.9067 8.4942 42.7165 8.05339C42.5263 7.61258 42.2666 7.2246 41.9375 6.88946C41.6084 6.55734 41.2235 6.29467 40.7827 6.10144C40.3419 5.91122 39.8663 5.81612 39.3561 5.81612H34.2611V14.9871H39.3561C39.8663 14.9871 40.3419 14.892 40.7827 14.7018C41.2235 14.5086 41.6084 14.2459 41.9375 13.9138C42.2666 13.5786 42.5263 13.1907 42.7165 12.7498C42.9067 12.309 43.0018 11.8335 43.0018 11.3232ZM62.4127 26.6898H49.5642V3.85964H62.4127V5.81612H51.6158V14.3033H60.3565V16.2597H51.6158V24.7333H62.4127V26.6898ZM78.1913 21.4046C78.1913 22.1775 78.0449 22.9036 77.752 23.583C77.4622 24.2623 77.0621 24.8571 76.5519 25.3673C76.0416 25.8776 75.4468 26.2792 74.7675 26.572C74.0881 26.8619 73.3605 27.0068 72.5845 27.0068H71.6154C70.8394 27.0068 70.1103 26.8619 69.4279 26.572C68.7425 26.2792 68.1447 25.8776 67.6345 25.3673C67.1242 24.8571 66.7242 24.2623 66.4343 23.583C66.1414 22.9036 65.995 22.1775 65.995 21.4046V20.8158L68.0511 20.4942V21.4046C68.0511 21.9148 68.1462 22.3888 68.3364 22.8266C68.5267 23.2674 68.7893 23.6554 69.1245 23.9906C69.4596 24.3257 69.8461 24.5884 70.2839 24.7786C70.7247 24.9688 71.2002 25.0639 71.7105 25.0639H72.4894C72.9997 25.0639 73.4752 24.9688 73.916 24.7786C74.3569 24.5884 74.7418 24.3257 75.0709 23.9906C75.4 23.6554 75.6597 23.2674 75.8499 22.8266C76.0401 22.3888 76.1352 21.9148 76.1352 21.4046V19.507C76.1352 18.9997 76.0401 18.5257 75.8499 18.0849C75.6597 17.6441 75.4 17.2591 75.0709 16.93C74.7418 16.6009 74.3569 16.3413 73.916 16.151C73.4752 15.9578 72.9997 15.8612 72.4894 15.8612H70.9632V13.9047H72.4894C72.9997 13.9047 73.4752 13.8096 73.916 13.6194C74.3569 13.4262 74.7418 13.165 75.0709 12.8359C75.4 12.5068 75.6597 12.1234 75.8499 11.6856C76.0401 11.2447 76.1352 10.7692 76.1352 10.259V9.14485C76.1352 8.6346 76.0401 8.15906 75.8499 7.71825C75.6597 7.27744 75.4 6.89248 75.0709 6.56338C74.7418 6.23429 74.3569 5.97463 73.916 5.78441C73.4752 5.5942 72.9997 5.49909 72.4894 5.49909H71.7105C71.2002 5.49909 70.7247 5.5942 70.2839 5.78441C69.8461 5.97463 69.4596 6.23429 69.1245 6.56338C68.7893 6.89248 68.5267 7.27744 68.3364 7.71825C68.1462 8.15906 68.0511 8.6346 68.0511 9.14485V10.0687L65.995 9.73361V9.14485C65.995 8.3689 66.1414 7.64126 66.4343 6.96193C66.7242 6.28259 67.1242 5.6878 67.6345 5.17754C68.1447 4.67031 68.7425 4.27026 69.4279 3.97739C70.1103 3.68452 70.8394 3.53809 71.6154 3.53809H72.5845C73.3605 3.53809 74.0881 3.68452 74.7675 3.97739C75.4468 4.27026 76.0416 4.67031 76.5519 5.17754C77.0621 5.6878 77.4622 6.28259 77.752 6.96193C78.0449 7.64126 78.1913 8.3689 78.1913 9.14485V9.92382C78.1913 10.4643 78.1204 10.9821 77.9785 11.4772C77.8335 11.9694 77.6312 12.4283 77.3716 12.854C77.1119 13.2797 76.8009 13.6647 76.4386 14.0089C76.0793 14.3531 75.6763 14.6475 75.2294 14.892C75.6763 15.1245 76.0793 15.4143 76.4386 15.7616C76.8009 16.1058 77.1119 16.4892 77.3716 16.9119C77.6312 17.3376 77.8335 17.798 77.9785 18.2932C78.1204 18.7853 78.1913 19.3016 78.1913 19.8421V21.4046ZM94.6403 21.4046C94.6403 22.1775 94.4938 22.9036 94.2009 23.583C93.9081 24.2623 93.508 24.8571 93.0008 25.3673C92.4905 25.8776 91.8957 26.2792 91.2164 26.572C90.5371 26.8619 89.8094 27.0068 89.0335 27.0068H88.0462C87.2733 27.0068 86.5471 26.8619 85.8678 26.572C85.1885 26.2792 84.5937 25.8776 84.0834 25.3673C83.5732 24.8571 83.1716 24.2623 82.8787 23.583C82.5889 22.9036 82.4439 22.1775 82.4439 21.4046V9.14485C82.4439 8.3689 82.5889 7.64126 82.8787 6.96193C83.1716 6.28259 83.5732 5.6878 84.0834 5.17754C84.5937 4.67031 85.1885 4.27026 85.8678 3.97739C86.5471 3.68452 87.2733 3.53809 88.0462 3.53809H89.0335C89.8094 3.53809 90.5371 3.68452 91.2164 3.97739C91.8957 4.27026 92.4905 4.67031 93.0008 5.17754C93.508 5.6878 93.9081 6.28259 94.2009 6.96193C94.4938 7.64126 94.6403 8.3689 94.6403 9.14485V9.73361L92.5841 10.0687V9.14485C92.5841 8.6346 92.489 8.15906 92.2988 7.71825C92.1086 7.27744 91.8459 6.89248 91.5108 6.56338C91.1756 6.23429 90.7877 5.97463 90.3469 5.78441C89.9061 5.5942 89.432 5.49909 88.9248 5.49909H88.1413C87.631 5.49909 87.157 5.5942 86.7192 5.78441C86.2784 5.97463 85.8935 6.23429 85.5644 6.56338C85.2353 6.89248 84.9741 7.27744 84.7809 7.71825C84.5906 8.15906 84.4955 8.6346 84.4955 9.14485V14.8286C85.0148 14.2549 85.6383 13.796 86.366 13.4518C87.0936 13.1046 87.8711 12.931 88.6983 12.931H89.0335C89.8094 12.931 90.5371 13.0774 91.2164 13.3703C91.8957 13.6632 92.4905 14.0647 93.0008 14.575C93.508 15.0822 93.9081 15.6755 94.2009 16.3548C94.4938 17.0342 94.6403 17.7618 94.6403 18.5378V21.4046ZM92.5841 21.4046V18.5378C92.5841 18.0275 92.489 17.552 92.2988 17.1112C92.1086 16.6704 91.8459 16.2854 91.5108 15.9563C91.1756 15.6272 90.7877 15.3675 90.3469 15.1773C89.9061 14.9871 89.432 14.892 88.9248 14.892H88.1413C87.631 14.892 87.157 14.9871 86.7192 15.1773C86.2784 15.3675 85.8935 15.6272 85.5644 15.9563C85.2353 16.2854 84.9741 16.6704 84.7809 17.1112C84.5906 17.552 84.4955 18.0275 84.4955 18.5378V21.4046C84.4955 21.9148 84.5906 22.3888 84.7809 22.8266C84.9741 23.2674 85.2353 23.6554 85.5644 23.9906C85.8935 24.3257 86.2784 24.5884 86.7192 24.7786C87.157 24.9688 87.631 25.0639 88.1413 25.0639H88.9248C89.432 25.0639 89.9061 24.9688 90.3469 24.7786C90.7877 24.5884 91.1756 24.3257 91.5108 23.9906C91.8459 23.6554 92.1086 23.2674 92.2988 22.8266C92.489 22.3888 92.5841 21.9148 92.5841 21.4046ZM111.071 21.4046C111.071 22.1775 110.925 22.9036 110.632 23.583C110.339 24.2623 109.939 24.8571 109.432 25.3673C108.921 25.8776 108.327 26.2792 107.647 26.572C106.968 26.8619 106.24 27.0068 105.464 27.0068H104.495C103.719 27.0068 102.989 26.8619 102.303 26.572C101.621 26.2792 101.024 25.8776 100.514 25.3673C100.004 24.8571 99.6024 24.2623 99.3095 23.583C99.0197 22.9036 98.8748 22.1775 98.8748 21.4046V21.0513H100.926V21.4046C100.926 21.9148 101.023 22.3888 101.216 22.8266C101.406 23.2674 101.669 23.6554 102.004 23.9906C102.336 24.3257 102.723 24.5884 103.164 24.7786C103.604 24.9688 104.08 25.0639 104.59 25.0639H105.369C105.879 25.0639 106.355 24.9688 106.796 24.7786C107.237 24.5884 107.622 24.3257 107.951 23.9906C108.28 23.6554 108.539 23.2674 108.73 22.8266C108.92 22.3888 109.015 21.9148 109.015 21.4046V16.9753C109.015 16.4681 108.92 15.994 108.73 15.5532C108.539 15.1124 108.28 14.7244 107.951 14.3893C107.622 14.0542 107.237 13.7915 106.796 13.6013C106.355 13.4111 105.879 13.316 105.369 13.316H104.59C104.08 13.316 103.604 13.4111 103.164 13.6013C102.723 13.7915 102.336 14.0542 102.004 14.3893C101.669 14.7244 101.406 15.1124 101.216 15.5532C101.023 15.994 100.926 16.4681 100.926 16.9753H98.8748L100.179 3.85964H109.939V5.81612H102.104L101.357 12.8359C101.846 12.3709 102.413 12.0086 103.059 11.749C103.709 11.4863 104.405 11.3549 105.147 11.3549H105.464C106.24 11.3549 106.968 11.5014 107.647 11.7943C108.327 12.0871 108.921 12.4887 109.432 12.9989C109.939 13.5062 110.339 14.1025 110.632 14.7878C110.925 15.4732 111.071 16.2024 111.071 16.9753V21.4046Z" fill="white"/>
</svg>
