<svg xmlns="http://www.w3.org/2000/svg" width="76" height="76" viewBox="0 0 76 76" fill="none">
  <path d="M37.6 0.5C27.6681 0.5 18.3407 4.3522 11.3464 11.3464C4.3522 18.3407 0.5 27.6681 0.5 37.6C0.5 47.5319 4.3522 56.8593 11.3464 63.8536C18.3407 70.8478 27.6681 74.7 37.6 74.7C47.5319 74.7 56.8593 70.8478 63.8536 63.8536C70.8478 56.8593 74.7 47.5319 74.7 37.6C74.7 27.6681 70.8478 18.3407 63.8536 11.3464C56.8593 4.3522 47.5319 0.5 37.6 0.5ZM61.7464 61.7464C55.239 68.1539 46.6657 71.7 37.6 71.7C28.5331 71.7 19.9586 68.1529 13.4508 61.7438C6.95074 55.3421 3.5 46.6725 3.5 37.6C3.5 28.5331 7.04711 19.9586 13.4562 13.4508C19.8579 6.95074 28.5275 3.5 37.6 3.5C46.6669 3.5 55.2414 7.04711 61.7492 13.4562C68.2493 19.8579 71.7 28.5275 71.7 37.6C71.7 46.6657 68.1539 55.239 61.7464 61.7464Z" fill="#52B204" stroke="#52B204"/>
  <path d="M52.4466 19.0461L52.4459 19.0468L29.5019 42.0893L22.7562 35.2485L22.7537 35.2461C22.1585 34.6508 21.2419 34.6508 20.6466 35.2461L15.1466 40.7461L15.4997 41.0991L15.1466 40.7461C15.0171 40.8756 14.9001 41.025 14.8183 41.209C14.7355 41.3953 14.7002 41.5913 14.7002 41.7996C14.7002 42.008 14.7355 42.2039 14.8183 42.3902C14.9001 42.5743 15.0171 42.7236 15.1466 42.8532L15.1493 42.8558L28.5466 56.0532C28.5471 56.0536 28.5475 56.0541 28.548 56.0545C28.6772 56.1835 28.8262 56.3 29.0096 56.3815C29.1959 56.4643 29.3919 56.4996 29.6002 56.4996C29.8085 56.4996 30.0045 56.4643 30.1908 56.3815C30.3748 56.2997 30.5242 56.1827 30.6537 56.0532L60.0537 26.6532C60.649 26.0579 60.649 25.1413 60.0537 24.5461L54.5537 19.0461C53.9585 18.4508 53.0419 18.4508 52.4466 19.0461ZM56.8887 25.604L29.5972 52.8955L18.3103 41.7966L21.7002 38.4067L28.4466 45.1532C29.0419 45.7484 29.9584 45.7484 30.5536 45.1533C30.5537 45.1532 30.5537 45.1532 30.5537 45.1532L53.5038 22.3016L56.8887 25.604Z" fill="#52B204" stroke="#52B204"/>
</svg>