<svg width="24" height="26" viewBox="0 0 24 26" fill="none" xmlns="http://www.w3.org/2000/svg">
<path d="M1.79987 4.7983C1.76956 4.66191 1.87673 4.51585 2.02404 4.4828L3.26187 4.23899L3.3022 4.23104V4.18993V3.42059V3.35944L3.24227 3.37159L1.85384 3.65303C1.85382 3.65303 1.8538 3.65304 1.85378 3.65304C1.26544 3.77074 0.852113 4.33982 0.970151 4.94992C0.970156 4.94995 0.970161 4.94997 0.970166 4.95L3.20308 16.6963L3.3022 16.6869V12.6714H3.30311L3.30132 12.662L1.80017 4.79977L1.8002 4.79977L1.79987 4.7983Z" fill="#424242" stroke="#424242" stroke-width="0.1"/>
<path d="M20.5253 3.37159L20.4654 3.35944V3.42059V4.18993V4.23104L20.5057 4.23899L21.7435 4.4828C21.8862 4.51479 21.9822 4.6403 21.967 4.80203L20.4663 12.662L20.4654 12.6618V12.6714V16.6869L20.5645 16.6963L22.7974 4.95C22.7974 4.94996 22.7974 4.94993 22.7974 4.94989C22.9153 4.34066 22.5218 3.77083 21.9137 3.65301L20.5253 3.37159Z" fill="#424242" stroke="#424242" stroke-width="0.1"/>
<path d="M17.513 12.7715H6.25444C6.02041 12.7715 5.82915 12.9627 5.82915 13.1968C5.82915 13.4308 6.02041 13.622 6.25444 13.622H17.513C17.747 13.622 17.9383 13.4308 17.9383 13.1968C17.9383 12.9627 17.747 12.7715 17.513 12.7715Z" fill="#424242" stroke="#424242" stroke-width="0.1"/>
<path d="M17.513 14.2726H6.25444C6.02041 14.2726 5.82915 14.4639 5.82915 14.6979C5.82915 14.9319 6.02041 15.1232 6.25444 15.1232H17.513C17.747 15.1232 17.9383 14.9319 17.9383 14.6979C17.9383 14.4639 17.747 14.2726 17.513 14.2726Z" fill="#424242" stroke="#424242" stroke-width="0.1"/>
<path d="M17.513 9.76921H6.25444C6.02041 9.76921 5.82915 9.96048 5.82915 10.1945C5.82915 10.4285 6.02041 10.6198 6.25444 10.6198H17.513C17.747 10.6198 17.9383 10.4285 17.9383 10.1945C17.9383 9.96048 17.747 9.76921 17.513 9.76921Z" fill="#424242" stroke="#424242" stroke-width="0.1"/>
<path d="M17.513 11.2704H6.25444C6.02041 11.2704 5.82915 11.4616 5.82915 11.6957C5.82915 11.9297 6.02041 12.1209 6.25444 12.1209H17.513C17.747 12.1209 17.9383 11.9297 17.9383 11.6957C17.9383 11.4616 17.747 11.2704 17.513 11.2704Z" fill="#424242" stroke="#424242" stroke-width="0.1"/>
<path d="M12.4466 15.7738H6.25444C6.02041 15.7738 5.82915 15.9651 5.82915 16.1991C5.82915 16.4331 6.02041 16.6244 6.25444 16.6244H12.4466C12.6807 16.6244 12.8719 16.4331 12.8719 16.1991C12.8719 15.9651 12.6807 15.7738 12.4466 15.7738Z" fill="#424242" stroke="#424242" stroke-width="0.1"/>
<path d="M7.56793 18.776C6.60211 18.776 5.82915 19.549 5.82915 20.5148C5.82915 21.4807 6.60211 22.2536 7.56793 22.2536C8.53376 22.2536 9.30672 21.4807 9.30672 20.5148C9.30672 19.549 8.53376 18.776 7.56793 18.776ZM7.56793 21.403C7.07015 21.403 6.67972 21.0126 6.67972 20.5148C6.67972 20.017 7.07015 19.6266 7.56793 19.6266C8.06572 19.6266 8.45615 20.017 8.45615 20.5148C8.45615 21.0126 8.06572 21.403 7.56793 21.403Z" fill="#424242" stroke="#424242" stroke-width="0.1"/>
<path d="M15.2028 24.9223L15.2036 24.9214L19.7062 20.1937C19.7063 20.1935 19.7065 20.1934 19.7066 20.1933C19.7905 20.1092 19.8334 20.0029 19.8334 19.8956V2.10709H19.8335L19.8334 2.10558C19.8138 1.45914 19.2849 0.95 18.6388 0.95H5.12854C4.48281 0.95 3.95269 1.45917 3.95269 2.10709V23.8924C3.95269 24.5387 4.48133 25.0687 5.12929 25.0495H14.886C15.0109 25.0495 15.1177 25.0073 15.2028 24.9223ZM18.4122 20.1896L15.3112 23.5579V20.4961H15.3115L15.311 20.4911C15.2956 20.3372 15.4179 20.2072 15.5828 20.1896H18.4122ZM5.12401 1.80037L5.124 1.80057H5.12854H18.6388C18.8193 1.80057 18.9641 1.9487 18.9641 2.10709V19.339L15.5802 19.339L15.5787 19.339C14.951 19.3586 14.4607 19.8688 14.4607 20.4961V24.2177H5.12854C4.94808 24.2177 4.80326 24.0696 4.80326 23.9112V2.10709C4.80326 1.9273 4.94959 1.78451 5.12401 1.80037Z" fill="#424242" stroke="#424242" stroke-width="0.1"/>
<rect x="9.01909" y="5.07811" width="5.91692" height="0.850571" rx="0.425285" fill="#424242" stroke="#424242" stroke-width="0.1"/>
<rect x="11.5523" y="8.46187" width="5.91692" height="0.850571" rx="0.425285" transform="rotate(-90 11.5523 8.46187)" fill="#424242" stroke="#424242" stroke-width="0.1"/>
</svg>
