<svg width="14" height="20" viewBox="0 0 14 20" fill="none" xmlns="http://www.w3.org/2000/svg">
<path fill-rule="evenodd" clip-rule="evenodd" d="M3.47817 1.6868e-06C3.19229 -0.0008929 2.95674 0.354217 3.04605 0.651627L3.35064 1.70666H0.453364C0.215988 1.70666 2.16818e-05 1.9432 0 2.20315V19.1844C0 19.4444 0.215988 19.6809 0.453364 19.6809H12.6376C12.8749 19.6809 13.0909 19.4444 13.0909 19.1844V2.20315C13.0909 1.9432 12.8749 1.70668 12.6376 1.70666H9.73319L10.0378 0.643873C10.1217 0.348291 9.88833 0.000605533 9.60568 1.6868e-06H3.47817ZM4.10156 0.992966H8.98937C8.72758 1.88873 8.4732 2.78705 8.21725 3.68483H4.87368C4.61034 2.78958 4.35497 1.89163 4.10156 0.992966ZM0.906736 2.69962H3.64109L4.10862 4.32871C4.1655 4.52902 4.34918 4.6774 4.54072 4.6778H8.5502C8.74002 4.67847 8.92298 4.53394 8.9823 4.33647L9.44983 2.69962H12.1842V18.6879H0.906736V2.69962Z" fill="#01CD74"/>
<path fill-rule="evenodd" clip-rule="evenodd" d="M6.4959 11.0777C6.38322 11.0913 6.27927 11.1505 6.20453 11.2439C6.12979 11.3372 6.08969 11.4578 6.09213 11.5819V13.2886H4.52661C4.40774 13.2908 4.29443 13.3441 4.21109 13.437C4.12775 13.5299 4.08105 13.6548 4.08105 13.785C4.08105 13.9152 4.12775 14.0402 4.21109 14.1331C4.29443 14.226 4.40774 14.2793 4.52661 14.2815H6.09213V16.0037C6.09127 16.0695 6.10236 16.1348 6.12476 16.1959C6.14716 16.2569 6.18042 16.3125 6.2226 16.3594C6.26478 16.4062 6.31505 16.4434 6.37048 16.4688C6.42592 16.4942 6.4854 16.5073 6.54549 16.5073C6.60558 16.5073 6.66507 16.4942 6.7205 16.4688C6.77593 16.4434 6.8262 16.4062 6.86839 16.3594C6.91057 16.3125 6.94383 16.2569 6.96623 16.1959C6.98862 16.1348 6.99972 16.0695 6.99886 16.0037V14.2815H8.56438C8.68326 14.2793 8.79656 14.226 8.8799 14.1331C8.96324 14.0402 9.00994 13.9152 9.00994 13.785C9.00994 13.6548 8.96324 13.5299 8.8799 13.437C8.79656 13.3441 8.68326 13.2908 8.56438 13.2886H6.99886V11.5819C6.99981 11.5154 6.98855 11.4494 6.96574 11.3877C6.94294 11.3261 6.90906 11.2701 6.86612 11.2231C6.82317 11.176 6.77203 11.1389 6.71574 11.114C6.65945 11.089 6.59915 11.0767 6.53843 11.0777C6.52426 11.077 6.51007 11.077 6.4959 11.0777Z" fill="#01CD74"/>
<path fill-rule="evenodd" clip-rule="evenodd" d="M2.43531 6.45776C2.37573 6.4577 2.31672 6.4705 2.26166 6.49543C2.20659 6.52035 2.15656 6.55693 2.11441 6.60304C2.07225 6.64916 2.03882 6.70392 2.016 6.7642C1.99319 6.82448 1.98145 6.88907 1.98145 6.95432C1.98145 7.01957 1.99319 7.08418 2.016 7.14446C2.03882 7.20474 2.07225 7.2595 2.11441 7.30562C2.15656 7.35173 2.20659 7.38831 2.26166 7.41324C2.31672 7.43816 2.37573 7.45096 2.43531 7.4509H10.6601C10.7803 7.45077 10.8956 7.3984 10.9805 7.30529C11.0654 7.21218 11.1132 7.08594 11.1132 6.95432C11.1132 6.82271 11.0654 6.69648 10.9805 6.60337C10.8956 6.51026 10.7803 6.45789 10.6601 6.45776H2.43531Z" fill="#01CD74"/>
<path fill-rule="evenodd" clip-rule="evenodd" d="M3.05354 8.72705C2.99399 8.72705 2.93503 8.73989 2.88001 8.76485C2.825 8.7898 2.77501 8.82638 2.73291 8.87249C2.6908 8.9186 2.6574 8.97333 2.63461 9.03357C2.61183 9.09382 2.6001 9.15839 2.6001 9.2236C2.6001 9.2888 2.61183 9.35337 2.63461 9.41362C2.6574 9.47386 2.6908 9.5286 2.73291 9.57471C2.77501 9.62082 2.825 9.6574 2.88001 9.68236C2.93503 9.70731 2.99399 9.72015 3.05354 9.72015H10.0414C10.1617 9.72015 10.277 9.66783 10.3621 9.57471C10.4471 9.48159 10.4949 9.35529 10.4949 9.2236C10.4949 9.0919 10.4471 8.96561 10.3621 8.87249C10.277 8.77937 10.1617 8.72705 10.0414 8.72705H3.05354Z" fill="#01CD74"/>
</svg>
