<svg width="26" height="27" viewBox="0 0 26 27" fill="none" xmlns="http://www.w3.org/2000/svg">
<path d="M24.9993 19.0043V22.6244C25.0006 22.9605 24.9318 23.2931 24.7971 23.6011C24.6625 23.909 24.465 24.1854 24.2174 24.4126C23.9698 24.6398 23.6774 24.8128 23.359 24.9204C23.0407 25.0281 22.7033 25.0681 22.3686 25.0378C18.6554 24.6344 15.0885 23.3655 11.9547 21.3332C9.03906 19.4805 6.56712 17.0086 4.7144 14.093C2.67503 10.9449 1.40589 7.3607 1.00979 3.63075C0.979639 3.29706 1.0193 2.96074 1.12624 2.64321C1.23319 2.32568 1.40508 2.0339 1.63097 1.78644C1.85686 1.53898 2.1318 1.34127 2.43829 1.20589C2.74478 1.07051 3.0761 1.00043 3.41115 1.00012H7.03129C7.61692 0.994353 8.18466 1.20173 8.62869 1.5836C9.07273 1.96547 9.36276 2.49577 9.44472 3.07566C9.59752 4.23419 9.88089 5.37171 10.2894 6.46653C10.4518 6.89844 10.4869 7.36784 10.3907 7.81911C10.2944 8.27038 10.0708 8.6846 9.7464 9.01269L8.21387 10.5452C9.9317 13.5663 12.4331 16.0677 15.4542 17.7855L16.9867 16.253C17.3148 15.9285 17.729 15.7049 18.1803 15.6087C18.6315 15.5125 19.1009 15.5476 19.5328 15.71C20.6277 16.1185 21.7652 16.4019 22.9237 16.5547C23.5099 16.6373 24.0452 16.9326 24.4279 17.3843C24.8106 17.8359 25.0139 18.4125 24.9993 19.0043Z" stroke="white" stroke-width="2" stroke-linecap="round" stroke-linejoin="round"/>
</svg>
