<svg width="24" height="24" viewBox="0 0 24 24" fill="none" xmlns="http://www.w3.org/2000/svg">
<mask id="path-1-inside-1_9622_7004" fill="white">
<path fill-rule="evenodd" clip-rule="evenodd" d="M6.16663 19.176V7.25H18.1666V19.176C18.1666 20.3168 17.2666 21.2501 16.1666 21.2501H8.16663C7.06663 21.2501 6.16663 20.3168 6.16663 19.176ZM16.8334 8.41667H7.50004V19.0833C7.50004 19.6356 7.94775 20.0833 8.50004 20.0833H15.8334C16.3857 20.0833 16.8334 19.6356 16.8334 19.0833V8.41667Z"/>
</mask>
<path fill-rule="evenodd" clip-rule="evenodd" d="M6.16663 19.176V7.25H18.1666V19.176C18.1666 20.3168 17.2666 21.2501 16.1666 21.2501H8.16663C7.06663 21.2501 6.16663 20.3168 6.16663 19.176ZM16.8334 8.41667H7.50004V19.0833C7.50004 19.6356 7.94775 20.0833 8.50004 20.0833H15.8334C16.3857 20.0833 16.8334 19.6356 16.8334 19.0833V8.41667Z" fill="#A1A1A1"/>
<path d="M6.16663 7.25V6.25H5.16663V7.25H6.16663ZM18.1666 7.25H19.1666V6.25H18.1666V7.25ZM7.50004 8.41667V7.41667H6.50004V8.41667H7.50004ZM16.8334 8.41667H17.8334V7.41667H16.8334V8.41667ZM5.16663 7.25V19.176H7.16663V7.25H5.16663ZM18.1666 6.25H6.16663V8.25H18.1666V6.25ZM19.1666 19.176V7.25H17.1666V19.176H19.1666ZM16.1666 22.2501C17.8529 22.2501 19.1666 20.8345 19.1666 19.176H17.1666C17.1666 19.7991 16.6804 20.2501 16.1666 20.2501V22.2501ZM8.16663 22.2501H16.1666V20.2501H8.16663V22.2501ZM5.16663 19.176C5.16663 20.8345 6.48038 22.2501 8.16663 22.2501V20.2501C7.65288 20.2501 7.16663 19.7991 7.16663 19.176H5.16663ZM7.50004 9.41667H16.8334V7.41667H7.50004V9.41667ZM8.50004 19.0833V8.41667H6.50004V19.0833H8.50004ZM8.50004 19.0833H8.50004H6.50004C6.50004 20.1879 7.39547 21.0833 8.50004 21.0833V19.0833ZM15.8334 19.0833H8.50004V21.0833H15.8334V19.0833ZM15.8334 19.0833V19.0833V21.0833C16.9379 21.0833 17.8334 20.1879 17.8334 19.0833H15.8334ZM15.8334 8.41667V19.0833H17.8334V8.41667H15.8334Z" fill="#676767" mask="url(#path-1-inside-1_9622_7004)"/>
<mask id="path-3-inside-2_9622_7004" fill="white">
<path fill-rule="evenodd" clip-rule="evenodd" d="M14.5 3.75H9.5L8.5 4.78704H5V6.08337H19V4.78704H15.5L14.5 3.75Z"/>
</mask>
<path fill-rule="evenodd" clip-rule="evenodd" d="M14.5 3.75H9.5L8.5 4.78704H5V6.08337H19V4.78704H15.5L14.5 3.75Z" fill="#A1A1A1"/>
<path d="M9.5 3.75V2.75H9.0751L8.78016 3.05586L9.5 3.75ZM14.5 3.75L15.2198 3.05586L14.9249 2.75H14.5V3.75ZM8.5 4.78704V5.78704H8.9249L9.21984 5.48117L8.5 4.78704ZM5 4.78704V3.78704H4V4.78704H5ZM5 6.08337H4V7.08337H5V6.08337ZM19 6.08337V7.08337H20V6.08337H19ZM19 4.78704H20V3.78704H19V4.78704ZM15.5 4.78704L14.7802 5.48117L15.0751 5.78704H15.5V4.78704ZM9.5 4.75H14.5V2.75H9.5V4.75ZM9.21984 5.48117L10.2198 4.44414L8.78016 3.05586L7.78016 4.0929L9.21984 5.48117ZM5 5.78704H8.5V3.78704H5V5.78704ZM6 6.08337V4.78704H4V6.08337H6ZM19 5.08337H5V7.08337H19V5.08337ZM18 4.78704V6.08337H20V4.78704H18ZM15.5 5.78704H19V3.78704H15.5V5.78704ZM13.7802 4.44414L14.7802 5.48117L16.2198 4.0929L15.2198 3.05586L13.7802 4.44414Z" fill="#676767" mask="url(#path-3-inside-2_9622_7004)"/>
<path d="M15.0002 5.99951L9.00024 5.99951L10.0002 3.99951L14.0002 3.99951L15.0002 5.99951Z" fill="#676767"/>
</svg>
