<svg width="24" height="24" viewBox="0 0 24 24" fill="none" xmlns="http://www.w3.org/2000/svg">
<mask id="mask0" mask-type="alpha" maskUnits="userSpaceOnUse" x="6" y="7" width="12" height="10">
<path d="M16.7859 16.5671H7.24319C7.1093 16.5671 6.99976 16.4576 6.99976 16.3237V9.64139C6.99976 9.5075 7.1093 9.39795 7.24319 9.39795H8.5334C8.66729 9.39795 8.77684 9.5075 8.77684 9.64139C8.77684 9.77528 8.66729 9.88482 8.5334 9.88482H7.48663V16.0681H16.5546V9.88482H15.5078C15.374 9.88482 15.2644 9.77528 15.2644 9.64139C15.2644 9.5075 15.374 9.39795 15.5078 9.39795H16.7981C16.9319 9.39795 17.0415 9.5075 17.0415 9.64139V16.3115C17.0293 16.4576 16.9198 16.5671 16.7859 16.5671Z" fill="black"/>
<path d="M9.73855 11.3453C9.60466 11.3453 9.49512 11.2358 9.49512 11.1019V7.24344C9.49512 7.10955 9.60466 7 9.73855 7H14.2908C14.4247 7 14.5342 7.10955 14.5342 7.24344V11.0654C14.5342 11.1993 14.4247 11.3088 14.2908 11.3088C14.1569 11.3088 14.0474 11.1993 14.0474 11.0654V7.48687H9.98199V11.1019C9.98199 11.2358 9.87244 11.3453 9.73855 11.3453Z" fill="black"/>
<path d="M16.7615 11.1382H15.4956C15.3617 11.1382 15.2522 11.0287 15.2522 10.8948C15.2522 10.7609 15.3617 10.6514 15.4956 10.6514H16.7615C16.8954 10.6514 17.0049 10.7609 17.0049 10.8948C17.0049 11.0287 16.8954 11.1382 16.7615 11.1382Z" fill="black"/>
<path d="M8.5334 11.1382H7.24319C7.1093 11.1382 6.99976 11.0287 6.99976 10.8948C6.99976 10.7609 7.1093 10.6514 7.24319 10.6514H8.5334C8.66729 10.6514 8.77684 10.7609 8.77684 10.8948C8.77684 11.0287 8.66729 11.1382 8.5334 11.1382Z" fill="black"/>
<path d="M15.4957 15.3742H8.53348C8.39959 15.3742 8.29004 15.2647 8.29004 15.1308V7.24344C8.29004 7.10955 8.39959 7 8.53348 7H15.4957C15.6296 7 15.7392 7.10955 15.7392 7.24344V15.1186C15.7392 15.2647 15.6296 15.3742 15.4957 15.3742ZM8.77691 14.8873H15.2523V7.48687H8.77691V14.8873Z" fill="black"/>
<path d="M13.2436 9.02056H10.7849C10.6511 9.02056 10.5415 8.91102 10.5415 8.77713C10.5415 8.64324 10.6511 8.53369 10.7849 8.53369H13.2315C13.3654 8.53369 13.4749 8.64324 13.4749 8.77713C13.4749 8.91102 13.3775 9.02056 13.2436 9.02056Z" fill="black"/>
<path d="M13.2436 10.274H10.7849C10.6511 10.274 10.5415 10.1644 10.5415 10.0305C10.5415 9.89666 10.6511 9.78711 10.7849 9.78711H13.2315C13.3654 9.78711 13.4749 9.89666 13.4749 10.0305C13.4749 10.1644 13.3775 10.274 13.2436 10.274Z" fill="black"/>
<path d="M15.4957 15.3745H8.53348C8.39959 15.3745 8.29004 15.265 8.29004 15.1311V10.7736C8.29004 10.7006 8.32655 10.6275 8.38741 10.5789C8.44827 10.5302 8.53347 10.518 8.60651 10.5423L8.72822 10.5789C9.51939 10.8101 10.7122 11.1631 11.8442 11.1631C13.2074 11.1753 14.7046 10.7249 15.4227 10.5058C15.4957 10.4815 15.5809 10.4937 15.6418 10.5423C15.7027 10.591 15.7392 10.6641 15.7392 10.7371V15.1189C15.7392 15.265 15.6296 15.3745 15.4957 15.3745ZM8.77691 14.8877H15.2523V11.0657C14.4368 11.297 13.0979 11.6621 11.832 11.65C10.7244 11.6378 9.58025 11.3335 8.76474 11.1022V14.8877H8.77691Z" fill="black"/>
<path d="M12.0146 14.4007C11.7346 14.4007 11.479 14.2546 11.3329 14.0112C11.1869 13.7677 11.1869 13.4756 11.3329 13.2322L11.7955 12.4288C11.8442 12.3558 11.9172 12.3071 12.0024 12.3071C12.0876 12.3071 12.1728 12.3558 12.2093 12.4288L12.6718 13.2322C12.8179 13.4756 12.8179 13.7677 12.6718 14.0112C12.5501 14.2546 12.2945 14.4007 12.0146 14.4007ZM11.7589 13.4756C11.6859 13.6095 11.7346 13.7191 11.7589 13.7677C11.7833 13.8164 11.8563 13.9138 12.0146 13.9138C12.1728 13.9138 12.2458 13.8164 12.2702 13.7677C12.2945 13.7191 12.3432 13.6095 12.2702 13.4756L12.0146 13.0374L11.7589 13.4756Z" fill="black"/>
</mask>
<g mask="url(#mask0)">
<path d="M6.49969 7.5C7.99969 5.5001 13.4996 5.50049 13.4996 5.50049L15.9996 6.50049L6.49964 16.0005C6.49964 16.0005 4.9997 9.4999 6.49969 7.5Z" fill="#424242"/>
</g>
<mask id="mask1" mask-type="alpha" maskUnits="userSpaceOnUse" x="6" y="7" width="12" height="10">
<path d="M16.7859 16.5671H7.24319C7.1093 16.5671 6.99976 16.4576 6.99976 16.3237V9.64139C6.99976 9.5075 7.1093 9.39795 7.24319 9.39795H8.5334C8.66729 9.39795 8.77684 9.5075 8.77684 9.64139C8.77684 9.77528 8.66729 9.88482 8.5334 9.88482H7.48663V16.0681H16.5546V9.88482H15.5078C15.374 9.88482 15.2644 9.77528 15.2644 9.64139C15.2644 9.5075 15.374 9.39795 15.5078 9.39795H16.7981C16.9319 9.39795 17.0415 9.5075 17.0415 9.64139V16.3115C17.0293 16.4576 16.9198 16.5671 16.7859 16.5671Z" fill="#2196F3"/>
<path d="M9.73855 11.3453C9.60466 11.3453 9.49512 11.2358 9.49512 11.1019V7.24344C9.49512 7.10955 9.60466 7 9.73855 7H14.2908C14.4247 7 14.5342 7.10955 14.5342 7.24344V11.0654C14.5342 11.1993 14.4247 11.3088 14.2908 11.3088C14.1569 11.3088 14.0474 11.1993 14.0474 11.0654V7.48687H9.98199V11.1019C9.98199 11.2358 9.87244 11.3453 9.73855 11.3453Z" fill="#2196F3"/>
<path d="M16.7615 11.1382H15.4956C15.3617 11.1382 15.2522 11.0287 15.2522 10.8948C15.2522 10.7609 15.3617 10.6514 15.4956 10.6514H16.7615C16.8954 10.6514 17.0049 10.7609 17.0049 10.8948C17.0049 11.0287 16.8954 11.1382 16.7615 11.1382Z" fill="#2196F3"/>
<path d="M8.5334 11.1382H7.24319C7.1093 11.1382 6.99976 11.0287 6.99976 10.8948C6.99976 10.7609 7.1093 10.6514 7.24319 10.6514H8.5334C8.66729 10.6514 8.77684 10.7609 8.77684 10.8948C8.77684 11.0287 8.66729 11.1382 8.5334 11.1382Z" fill="#2196F3"/>
<path d="M15.4957 15.3742H8.53348C8.39959 15.3742 8.29004 15.2647 8.29004 15.1308V7.24344C8.29004 7.10955 8.39959 7 8.53348 7H15.4957C15.6296 7 15.7392 7.10955 15.7392 7.24344V15.1186C15.7392 15.2647 15.6296 15.3742 15.4957 15.3742ZM8.77691 14.8873H15.2523V7.48687H8.77691V14.8873Z" fill="#2196F3"/>
<path d="M13.2436 9.02056H10.7849C10.6511 9.02056 10.5415 8.91102 10.5415 8.77713C10.5415 8.64324 10.6511 8.53369 10.7849 8.53369H13.2315C13.3654 8.53369 13.4749 8.64324 13.4749 8.77713C13.4749 8.91102 13.3775 9.02056 13.2436 9.02056Z" fill="#2196F3"/>
<path d="M13.2436 10.274H10.7849C10.6511 10.274 10.5415 10.1644 10.5415 10.0305C10.5415 9.89666 10.6511 9.78711 10.7849 9.78711H13.2315C13.3654 9.78711 13.4749 9.89666 13.4749 10.0305C13.4749 10.1644 13.3775 10.274 13.2436 10.274Z" fill="#2196F3"/>
<path d="M15.4957 15.3745H8.53348C8.39959 15.3745 8.29004 15.265 8.29004 15.1311V10.7736C8.29004 10.7006 8.32655 10.6275 8.38741 10.5789C8.44827 10.5302 8.53347 10.518 8.60651 10.5423L8.72822 10.5789C9.51939 10.8101 10.7122 11.1631 11.8442 11.1631C13.2074 11.1753 14.7046 10.7249 15.4227 10.5058C15.4957 10.4815 15.5809 10.4937 15.6418 10.5423C15.7027 10.591 15.7392 10.6641 15.7392 10.7371V15.1189C15.7392 15.265 15.6296 15.3745 15.4957 15.3745ZM8.77691 14.8877H15.2523V11.0657C14.4368 11.297 13.0979 11.6621 11.832 11.65C10.7244 11.6378 9.58025 11.3335 8.76474 11.1022V14.8877H8.77691Z" fill="#2196F3"/>
<path d="M12.0146 14.4007C11.7346 14.4007 11.479 14.2546 11.3329 14.0112C11.1869 13.7677 11.1869 13.4756 11.3329 13.2322L11.7955 12.4288C11.8442 12.3558 11.9172 12.3071 12.0024 12.3071C12.0876 12.3071 12.1728 12.3558 12.2093 12.4288L12.6718 13.2322C12.8179 13.4756 12.8179 13.7677 12.6718 14.0112C12.5501 14.2546 12.2945 14.4007 12.0146 14.4007ZM11.7589 13.4756C11.6859 13.6095 11.7346 13.7191 11.7589 13.7677C11.7833 13.8164 11.8563 13.9138 12.0146 13.9138C12.1728 13.9138 12.2458 13.8164 12.2702 13.7677C12.2945 13.7191 12.3432 13.6095 12.2702 13.4756L12.0146 13.0374L11.7589 13.4756Z" fill="#2196F3"/>
</mask>
<g mask="url(#mask1)">
<path d="M8.49976 17L17.4998 8L18.4998 14L17.4998 17L13.4998 18L8.49976 17Z" fill="#424242"/>
</g>
<circle cx="12.0008" cy="11.9989" r="9.81214" stroke="#424242" stroke-width="0.6"/>
<mask id="path-22-inside-1" fill="white">
<path fill-rule="evenodd" clip-rule="evenodd" d="M18.3119 6.31991L6.32004 18.3117C9.65344 21.3165 14.7941 21.2139 18.0041 18.004C21.2141 14.794 21.3167 9.65331 18.3119 6.31991ZM17.4546 5.49185L5.49198 17.4544C2.68945 14.1184 2.85743 9.13427 5.99592 5.99578C9.1344 2.8573 14.1185 2.68932 17.4546 5.49185Z"/>
</mask>
<path d="M18.3119 6.31991L18.7575 5.91818L18.3344 5.44882L17.8876 5.89565L18.3119 6.31991ZM6.32004 18.3117L5.89578 17.8875L5.44895 18.3343L5.91832 18.7574L6.32004 18.3117ZM5.49198 17.4544L5.03257 17.8404L5.45351 18.3415L5.91624 17.8787L5.49198 17.4544ZM17.4546 5.49185L17.8788 5.91611L18.3416 5.45337L17.8405 5.03244L17.4546 5.49185ZM17.8876 5.89565L5.89578 17.8875L6.74431 18.736L18.7361 6.74418L17.8876 5.89565ZM17.5798 17.5797C14.5968 20.5627 9.81925 20.6582 6.72177 17.8661L5.91832 18.7574C9.48764 21.9749 14.9914 21.8652 18.4284 18.4282L17.5798 17.5797ZM17.8662 6.72164C20.6583 9.81911 20.5628 14.5967 17.5798 17.5797L18.4284 18.4282C21.8653 14.9913 21.975 9.4875 18.7575 5.91818L17.8662 6.72164ZM5.91624 17.8787L17.8788 5.91611L17.0303 5.06758L5.06772 17.0302L5.91624 17.8787ZM5.95139 17.0685C3.3473 13.9687 3.50369 9.33654 6.42018 6.42005L5.57165 5.57152C2.21117 8.932 2.0316 14.2681 5.03257 17.8404L5.95139 17.0685ZM6.42018 6.42005C9.33667 3.50356 13.9688 3.34716 17.0686 5.95125L17.8405 5.03244C14.2682 2.03147 8.93214 2.21103 5.57165 5.57152L6.42018 6.42005Z" fill="#424242" mask="url(#path-22-inside-1)"/>
</svg>
