<svg width="18" height="18" viewBox="0 0 18 18" fill="none" xmlns="http://www.w3.org/2000/svg">
<path d="M13.5 3H4.5C3.67157 3 3 3.67157 3 4.5V13.5C3 14.3284 3.67157 15 4.5 15H13.5C14.3284 15 15 14.3284 15 13.5V4.5C15 3.67157 14.3284 3 13.5 3Z" stroke="#01CD74" stroke-linecap="round" stroke-linejoin="round"/>
<path d="M11.25 6.75H6.75V11.25H11.25V6.75Z" stroke="#01CD74" stroke-linecap="round" stroke-linejoin="round"/>
<path d="M6.75 0.75V3" stroke="#01CD74" stroke-linecap="round" stroke-linejoin="round"/>
<path d="M11.25 0.75V3" stroke="#01CD74" stroke-linecap="round" stroke-linejoin="round"/>
<path d="M6.75 15V17.25" stroke="#01CD74" stroke-linecap="round" stroke-linejoin="round"/>
<path d="M11.25 15V17.25" stroke="#01CD74" stroke-linecap="round" stroke-linejoin="round"/>
<path d="M15 6.75H17.25" stroke="#01CD74" stroke-linecap="round" stroke-linejoin="round"/>
<path d="M15 10.5H17.25" stroke="#01CD74" stroke-linecap="round" stroke-linejoin="round"/>
<path d="M0.75 6.75H3" stroke="#01CD74" stroke-linecap="round" stroke-linejoin="round"/>
<path d="M0.75 10.5H3" stroke="#01CD74" stroke-linecap="round" stroke-linejoin="round"/>
</svg>
