<svg width="18" height="20" viewBox="0 0 18 20" fill="none" xmlns="http://www.w3.org/2000/svg">
<path d="M3.11062 6.61078C3.24429 6.61078 3.37713 6.58795 3.50436 6.54313C4.24543 6.28175 4.66588 5.34388 4.43808 4.44751C4.36444 4.10945 4.19141 3.80712 3.94554 3.58689C3.69966 3.36666 3.39451 3.24068 3.07687 3.22827C2.94367 3.22833 2.81129 3.25116 2.68454 3.29592C1.94206 3.5573 1.52301 4.49517 1.74941 5.39154C1.82305 5.7296 1.99608 6.03193 2.24195 6.25216C2.48782 6.47239 2.79298 6.59837 3.11062 6.61078ZM2.8561 3.88171C2.9274 3.85636 3.00189 3.84339 3.07687 3.84327C3.27127 3.85694 3.45634 3.9393 3.6042 4.07795C3.75207 4.21661 3.85472 4.40404 3.89669 4.61202C4.03731 5.18398 3.78279 5.80051 3.33421 5.95888C3.26288 5.98411 3.1884 5.99707 3.11343 5.99731C2.91896 5.9839 2.73378 5.90162 2.58587 5.76293C2.43796 5.62423 2.33537 5.43666 2.29361 5.22856C2.14455 4.64739 2.39064 4.04315 2.8561 3.88171Z" fill="#01CD74"/>
<path d="M16.312 3.53595C16.4673 3.53595 16.5932 3.39827 16.5932 3.22842C16.5932 3.05858 16.4673 2.9209 16.312 2.9209C16.1567 2.9209 16.0308 3.05858 16.0308 3.22842C16.0308 3.39827 16.1567 3.53595 16.312 3.53595Z" fill="#01CD74"/>
<path d="M12.937 7.37939C13.0923 7.37939 13.2182 7.24172 13.2182 7.0719C13.2182 6.90207 13.0923 6.7644 12.937 6.7644C12.7817 6.7644 12.6558 6.90207 12.6558 7.0719C12.6558 7.24172 12.7817 7.37939 12.937 7.37939Z" fill="#01CD74"/>
<path d="M14.062 7.37939C14.2173 7.37939 14.3432 7.24172 14.3432 7.0719C14.3432 6.90207 14.2173 6.7644 14.062 6.7644C13.9067 6.7644 13.7808 6.90207 13.7808 7.0719C13.7808 7.24172 13.9067 7.37939 14.062 7.37939Z" fill="#01CD74"/>
<path d="M12.6558 3.53595H15.1869C15.2615 3.53595 15.3331 3.50355 15.3858 3.44588C15.4385 3.38821 15.4682 3.30998 15.4682 3.22842C15.4682 3.14686 15.4385 3.06864 15.3858 3.01097C15.3331 2.9533 15.2615 2.9209 15.1869 2.9209H12.6558C12.5812 2.9209 12.5096 2.9533 12.4569 3.01097C12.4041 3.06864 12.3745 3.14686 12.3745 3.22842C12.3745 3.30998 12.4041 3.38821 12.4569 3.44588C12.5096 3.50355 12.5812 3.53595 12.6558 3.53595Z" fill="#01CD74"/>
<path d="M16.3119 5.68848H12.937C12.8624 5.68848 12.7909 5.72088 12.7381 5.77855C12.6854 5.83622 12.6558 5.91444 12.6558 5.996C12.6558 6.07756 12.6854 6.15578 12.7381 6.21346C12.7909 6.27113 12.8624 6.30353 12.937 6.30353H16.3119C16.3865 6.30353 16.458 6.27113 16.5108 6.21346C16.5635 6.15578 16.5931 6.07756 16.5931 5.996C16.5931 5.91444 16.5635 5.83622 16.5108 5.77855C16.458 5.72088 16.3865 5.68848 16.3119 5.68848Z" fill="#01CD74"/>
<path d="M13.4995 7.99438H12.937C12.8624 7.99438 12.7909 8.02678 12.7381 8.08445C12.6854 8.14211 12.6558 8.22033 12.6558 8.30188C12.6558 8.38343 12.6854 8.46165 12.7381 8.51931C12.7909 8.57698 12.8624 8.60938 12.937 8.60938H13.4995C13.5741 8.60938 13.6456 8.57698 13.6984 8.51931C13.7511 8.46165 13.7807 8.38343 13.7807 8.30188C13.7807 8.22033 13.7511 8.14211 13.6984 8.08445C13.6456 8.02678 13.5741 7.99438 13.4995 7.99438Z" fill="#01CD74"/>
<path d="M15.187 7.99438H14.6245C14.5499 7.99438 14.4784 8.02678 14.4256 8.08445C14.3729 8.14211 14.3433 8.22033 14.3433 8.30188C14.3433 8.38343 14.3729 8.46165 14.4256 8.51931C14.4784 8.57698 14.5499 8.60938 14.6245 8.60938H15.187C15.2616 8.60938 15.3331 8.57698 15.3859 8.51931C15.4386 8.46165 15.4682 8.38343 15.4682 8.30188C15.4682 8.22033 15.4386 8.14211 15.3859 8.08445C15.3331 8.02678 15.2616 7.99438 15.187 7.99438Z" fill="#01CD74"/>
<path d="M17.437 13.0689C17.5862 13.0689 17.7292 13.0041 17.8347 12.8888C17.9402 12.7735 17.9995 12.617 17.9995 12.4539V2.30628C17.9995 2.14317 17.9402 1.98674 17.8347 1.8714C17.7292 1.75607 17.5862 1.69127 17.437 1.69127H12.3746V0.615008H13.2184C13.2929 0.615008 13.3645 0.58261 13.4172 0.524942C13.47 0.467274 13.4996 0.389059 13.4996 0.307504C13.4996 0.225949 13.47 0.147734 13.4172 0.0900659C13.3645 0.0323977 13.2929 0 13.2184 0L7.87476 0C7.80017 0 7.72864 0.0323977 7.6759 0.0900659C7.62315 0.147734 7.59352 0.225949 7.59352 0.307504C7.59352 0.389059 7.62315 0.467274 7.6759 0.524942C7.72864 0.58261 7.80017 0.615008 7.87476 0.615008H8.85911V1.23002H8.43725C8.21348 1.23002 7.99887 1.32721 7.84064 1.50021C7.68242 1.67322 7.59352 1.90786 7.59352 2.15253V4.30506C7.59352 4.54972 7.68242 4.78437 7.84064 4.95737C7.99887 5.13038 8.21348 5.22757 8.43725 5.22757H8.84083C8.84083 5.23833 8.84083 5.24909 8.84083 5.25986C8.86755 5.81029 8.89005 6.28538 8.68193 6.67899C8.44147 7.14024 8.2221 7.08951 7.62305 6.8927L7.53165 6.86195C6.88479 6.64977 6.43762 7.11872 6.07763 7.49387C5.86107 7.71835 5.65577 7.93053 5.44203 7.9951H4.94141L4.85704 7.59381C4.7872 7.23574 4.64285 6.90008 4.43518 6.61287C4.30135 6.76024 4.14829 6.88512 3.98097 6.98342C4.14123 7.20127 4.2525 7.45721 4.30581 7.73065L4.35924 7.9951H3.51552C3.44093 7.9951 3.3694 8.0275 3.31665 8.08517C3.26391 8.14284 3.23428 8.22105 3.23428 8.30261C3.23428 8.38416 3.26391 8.46238 3.31665 8.52005C3.3694 8.57771 3.44093 8.61011 3.51552 8.61011H7.4529C7.52749 8.61011 7.59903 8.64251 7.65177 8.70018C7.70451 8.75785 7.73414 8.83606 7.73414 8.91762C7.73414 8.99917 7.70451 9.07739 7.65177 9.13506C7.59903 9.19272 7.52749 9.22512 7.4529 9.22512H4.21862C4.14403 9.22512 4.0725 9.25752 4.01976 9.31519C3.96701 9.37285 3.93738 9.45107 3.93738 9.53263C3.93738 9.61418 3.96701 9.6924 4.01976 9.75006C4.0725 9.80773 4.14403 9.84013 4.21862 9.84013H4.75017L5.22687 12.1249L7.60337 11.5898C7.65742 11.5771 7.7126 11.5709 7.76789 11.5714C7.99116 11.5643 8.20897 11.6475 8.37959 11.8051L11.4733 17.5523L12.3338 17.0388C12.3825 17.006 12.4357 16.9821 12.4913 16.9681C12.5634 16.9541 12.6376 16.9637 12.7046 16.9958C12.7717 17.0278 12.8286 17.0807 12.8682 17.148C12.8947 17.1921 12.9137 17.241 12.9245 17.2925C12.9344 17.3739 12.9242 17.4567 12.895 17.5324C12.8659 17.6081 12.8187 17.6739 12.7585 17.723C12.6334 17.8091 11.8389 18.3549 11.5 18.5594C11.4682 18.5804 11.4327 18.594 11.3959 18.5994C11.2305 18.6195 11.0642 18.5719 10.929 18.4656L8.71849 14.1114C8.64965 13.9855 8.55312 13.8805 8.43769 13.8058C8.32226 13.7312 8.19159 13.6893 8.05757 13.6839H3.13584C3.0261 13.4349 2.95029 13.1697 2.91085 12.8967L2.39055 10.3813V8.30261C2.38804 7.99442 2.28135 7.69815 2.09103 7.47081C2.11566 7.40692 2.14481 7.34523 2.17822 7.28631C2.22874 7.19878 2.28818 7.11779 2.3554 7.04492C2.18114 6.95851 2.01917 6.8451 1.87448 6.7082C1.8109 6.78611 1.75307 6.86939 1.70151 6.95728C1.67015 7.0135 1.64151 7.0715 1.61573 7.13102C1.56373 7.11026 1.51067 7.09281 1.45683 7.07874L1.42168 7.07259H0.421862C0.309978 7.07259 0.202675 7.12119 0.123561 7.20769C0.0444461 7.29419 0 7.41152 0 7.53385L0 19.0653C0 19.2284 0.0592615 19.3848 0.164748 19.5001C0.270234 19.6155 0.413303 19.6803 0.562483 19.6803H1.82807C1.97725 19.6803 2.12032 19.6155 2.22581 19.5001C2.33129 19.3848 2.39055 19.2284 2.39055 19.0653V17.7322H7.78477C7.81888 17.7372 7.85175 17.7495 7.88145 17.7685C7.91115 17.7875 7.93708 17.8128 7.95773 17.8429L8.6749 19.2528C8.74435 19.3794 8.84178 19.4849 8.95825 19.5596C9.07472 19.6343 9.20648 19.6758 9.34144 19.6803H10.7898C10.8698 19.6845 10.9493 19.6654 11.0203 19.6249C11.0912 19.5843 11.151 19.5238 11.1934 19.4496C11.2309 19.3797 11.2504 19.3 11.2497 19.219C11.275 19.219 11.2989 19.219 11.3242 19.219C11.3712 19.2188 11.4181 19.2158 11.4648 19.2098C11.5742 19.1952 11.6798 19.157 11.7756 19.0975C12.1285 18.8854 12.9146 18.3442 13.0721 18.2365L13.0918 18.2212C13.2399 18.1044 13.3549 17.9444 13.4235 17.7595C13.4922 17.5745 13.5117 17.3722 13.4799 17.1756C13.4299 16.9106 13.287 16.6775 13.0817 16.5263C12.8764 16.3751 12.6251 16.3179 12.3817 16.3669C12.267 16.3935 12.1572 16.4407 12.0568 16.5068L11.6842 16.7298L8.97301 11.6975C8.29965 11.5455 7.63595 11.3462 6.98604 11.1009L5.65296 11.4084L5.32672 9.84013H5.69936C5.72295 9.8681 5.75108 9.89104 5.78233 9.90778C5.92295 9.98466 8.56099 11.3807 11.4704 11.3807C12.3957 11.392 13.3158 11.2281 14.19 10.8964C15.5446 10.3649 16.6909 9.34064 17.437 7.9951V12.4539H11.8121V11.9927C11.7011 11.9927 11.5914 11.9927 11.4803 11.9927C11.4029 11.9927 11.3256 11.9927 11.2497 11.9927V12.4539C11.2497 12.617 11.3089 12.7735 11.4144 12.8888C11.5199 13.0041 11.663 13.0689 11.8121 13.0689H13.0777V13.6839H11.5309C11.4563 13.6839 11.3848 13.7163 11.332 13.774C11.2793 13.8317 11.2497 13.9099 11.2497 13.9914C11.2497 14.073 11.2793 14.1512 11.332 14.2089C11.3848 14.2665 11.4563 14.2989 11.5309 14.2989H17.7182C17.7928 14.2989 17.8643 14.2665 17.9171 14.2089C17.9698 14.1512 17.9995 14.073 17.9995 13.9914C17.9995 13.9099 17.9698 13.8317 17.9171 13.774C17.8643 13.7163 17.7928 13.6839 17.7182 13.6839H16.1714V13.0689H17.437ZM2.53117 13.6839H2.39055V13.1827C2.42498 13.3536 2.47201 13.5213 2.53117 13.6839ZM9.34706 19.0653C9.3125 19.0605 9.27915 19.0483 9.24896 19.0293C9.21878 19.0103 9.19237 18.9849 9.17129 18.9545L8.45272 17.5446C8.38355 17.4186 8.28653 17.3135 8.17056 17.2391C8.05459 17.1647 7.92339 17.1233 7.78899 17.1187H2.39055C2.24137 17.1187 2.0983 17.1835 1.99282 17.2989C1.88733 17.4142 1.82807 17.5706 1.82807 17.7338V19.0653H0.562483V7.6876H1.35418C1.48619 7.71401 1.60568 7.78983 1.69215 7.90205C1.77861 8.01426 1.82667 8.15588 1.82807 8.30261V13.6839C1.82807 13.847 1.88733 14.0035 1.99282 14.1188C2.0983 14.2341 2.24137 14.2989 2.39055 14.2989H8.05757C8.09191 14.3038 8.12502 14.3161 8.15496 14.3351C8.18491 14.3541 8.21108 14.3794 8.23194 14.4096L10.5958 19.0653H9.34706ZM17.437 4.1513H11.8121V2.30628H17.437V4.1513ZM8.15601 4.30506V4.1513H8.57787C8.65246 4.1513 8.72399 4.11891 8.77674 4.06124C8.82948 4.00357 8.85911 3.92536 8.85911 3.8438C8.85911 3.76225 8.82948 3.68403 8.77674 3.62636C8.72399 3.56869 8.65246 3.5363 8.57787 3.5363H8.15601V2.92129H8.57787C8.65246 2.92129 8.72399 2.88889 8.77674 2.83122C8.82948 2.77355 8.85911 2.69534 8.85911 2.61378C8.85911 2.53223 8.82948 2.45401 8.77674 2.39635C8.72399 2.33868 8.65246 2.30628 8.57787 2.30628H8.15601V2.15253C8.15601 2.07097 8.18564 1.99276 8.23838 1.93509C8.29112 1.87742 8.36266 1.84502 8.43725 1.84502H9.84346C9.91805 1.84502 9.98958 1.87742 10.0423 1.93509C10.0951 1.99276 10.1247 2.07097 10.1247 2.15253V4.30506C10.1247 4.38661 10.0951 4.46483 10.0423 4.52249C9.98958 4.58016 9.91805 4.61256 9.84346 4.61256H8.43725C8.36266 4.61256 8.29112 4.58016 8.23838 4.52249C8.18564 4.46483 8.15601 4.38661 8.15601 4.30506ZM14.0016 10.3183C11.5351 11.29 8.64396 10.4444 7.11119 9.84013H7.4529C7.67667 9.84013 7.89128 9.74294 8.04951 9.56993C8.20774 9.39693 8.29663 9.16228 8.29663 8.91762C8.29663 8.67295 8.20774 8.43831 8.04951 8.2653C7.89128 8.0923 7.67667 7.9951 7.4529 7.9951H6.41371L6.46856 7.93822C6.82292 7.56921 7.05635 7.34781 7.37415 7.45082L7.46415 7.48004C8.01398 7.66146 8.6974 7.88748 9.1727 6.98495C9.46097 6.43606 9.43425 5.84258 9.40472 5.22757H9.84346C10.0672 5.22757 10.2818 5.13038 10.4401 4.95737C10.5983 4.78437 10.6872 4.54972 10.6872 4.30506V2.15253C10.6872 1.90786 10.5983 1.67322 10.4401 1.50021C10.2818 1.32721 10.0672 1.23002 9.84346 1.23002H9.42159V0.615008H11.8121V1.69127C11.663 1.69127 11.5199 1.75607 11.4144 1.8714C11.3089 1.98674 11.2497 2.14317 11.2497 2.30628V10.1476C11.4372 10.1528 11.6247 10.1528 11.8121 10.1476V4.76631H17.437V6.6959C16.6818 8.49787 15.5273 9.71713 14.0016 10.3183ZM15.6089 13.6839H13.6402V13.0689H15.6089V13.6839Z" fill="#01CD74"/>
</svg>
