<svg width="24" height="24" viewBox="0 0 24 24" fill="none" xmlns="http://www.w3.org/2000/svg">
<path d="M4.80182 8.39064C4.96519 8.39063 5.12757 8.36512 5.28307 8.31501C6.18885 8.02282 6.70276 6.97438 6.42432 5.97235C6.33431 5.59443 6.12283 5.25646 5.82231 5.01027C5.52178 4.76408 5.14881 4.62325 4.76057 4.60938C4.59776 4.60944 4.43596 4.63496 4.28103 4.685C3.37353 4.97719 2.86134 6.02563 3.13806 7.02766C3.22807 7.40558 3.43955 7.74355 3.74008 7.98974C4.0406 8.23593 4.41357 8.37676 4.80182 8.39064ZM4.49072 5.33985C4.57787 5.31151 4.66892 5.29701 4.76057 5.29688C4.99817 5.31215 5.22437 5.40422 5.4051 5.55922C5.58583 5.71422 5.7113 5.92375 5.7626 6.15625C5.93448 6.79563 5.62338 7.48485 5.0751 7.66188C4.98792 7.69009 4.89688 7.70458 4.80525 7.70485C4.56756 7.68985 4.34122 7.59788 4.16044 7.44284C3.97965 7.28779 3.85426 7.0781 3.80322 6.84547C3.62103 6.19579 3.92181 5.52031 4.49072 5.33985Z" fill="#424242"/>
<path d="M20.9375 4.95313C21.1273 4.95313 21.2813 4.79922 21.2813 4.60938C21.2813 4.41953 21.1273 4.26562 20.9375 4.26562C20.7477 4.26562 20.5938 4.41953 20.5938 4.60938C20.5938 4.79922 20.7477 4.95313 20.9375 4.95313Z" fill="#424242"/>
<path d="M16.8125 9.25C17.0023 9.25 17.1563 9.0961 17.1563 8.90625C17.1563 8.7164 17.0023 8.5625 16.8125 8.5625C16.6227 8.5625 16.4688 8.7164 16.4688 8.90625C16.4688 9.0961 16.6227 9.25 16.8125 9.25Z" fill="#424242"/>
<path d="M18.1875 9.25C18.3773 9.25 18.5313 9.0961 18.5313 8.90625C18.5313 8.7164 18.3773 8.5625 18.1875 8.5625C17.9977 8.5625 17.8438 8.7164 17.8438 8.90625C17.8438 9.0961 17.9977 9.25 18.1875 9.25Z" fill="#424242"/>
<path d="M16.4688 4.95313H19.5625C19.6537 4.95313 19.7411 4.91691 19.8056 4.85244C19.87 4.78798 19.9063 4.70054 19.9063 4.60938C19.9063 4.51821 19.87 4.43077 19.8056 4.36631C19.7411 4.30184 19.6537 4.26562 19.5625 4.26562H16.4688C16.3776 4.26562 16.2901 4.30184 16.2257 4.36631C16.1612 4.43077 16.125 4.51821 16.125 4.60938C16.125 4.70054 16.1612 4.78798 16.2257 4.85244C16.2901 4.91691 16.3776 4.95313 16.4688 4.95313Z" fill="#424242"/>
<path d="M20.9375 7.35938H16.8125C16.7213 7.35938 16.6339 7.39559 16.5694 7.46006C16.505 7.52452 16.4688 7.61196 16.4688 7.70313C16.4688 7.79429 16.505 7.88173 16.5694 7.94619C16.6339 8.01066 16.7213 8.04688 16.8125 8.04688H20.9375C21.0287 8.04688 21.1161 8.01066 21.1806 7.94619C21.245 7.88173 21.2813 7.79429 21.2813 7.70313C21.2813 7.61196 21.245 7.52452 21.1806 7.46006C21.1161 7.39559 21.0287 7.35938 20.9375 7.35938Z" fill="#424242"/>
<path d="M17.5 9.9375H16.8125C16.7213 9.9375 16.6339 9.97372 16.5694 10.0382C16.505 10.1026 16.4688 10.1901 16.4688 10.2813C16.4688 10.3724 16.505 10.4599 16.5694 10.5243C16.6339 10.5888 16.7213 10.625 16.8125 10.625H17.5C17.5912 10.625 17.6786 10.5888 17.7431 10.5243C17.8075 10.4599 17.8438 10.3724 17.8438 10.2813C17.8438 10.1901 17.8075 10.1026 17.7431 10.0382C17.6786 9.97372 17.5912 9.9375 17.5 9.9375Z" fill="#424242"/>
<path d="M19.5625 9.9375H18.875C18.7838 9.9375 18.6964 9.97372 18.6319 10.0382C18.5675 10.1026 18.5312 10.1901 18.5312 10.2813C18.5312 10.3724 18.5675 10.4599 18.6319 10.5243C18.6964 10.5888 18.7838 10.625 18.875 10.625H19.5625C19.6537 10.625 19.7411 10.5888 19.8056 10.5243C19.87 10.4599 19.9063 10.3724 19.9063 10.2813C19.9063 10.1901 19.87 10.1026 19.8056 10.0382C19.7411 9.97372 19.6537 9.9375 19.5625 9.9375Z" fill="#424242"/>
<path d="M22.3126 15.6094C22.4949 15.6094 22.6698 15.537 22.7987 15.4081C22.9276 15.2791 23.0001 15.1042 23.0001 14.9219V3.57813C23.0001 3.3958 22.9276 3.22093 22.7987 3.09199C22.6698 2.96306 22.4949 2.89063 22.3126 2.89063H16.125V1.6875H17.1563C17.2475 1.6875 17.3349 1.65129 17.3994 1.58682C17.4638 1.52235 17.5 1.43492 17.5 1.34375C17.5 1.25258 17.4638 1.16515 17.3994 1.10068C17.3349 1.03622 17.2475 1 17.1563 1H10.625C10.5339 1 10.4464 1.03622 10.382 1.10068C10.3175 1.16515 10.2813 1.25258 10.2813 1.34375C10.2813 1.43492 10.3175 1.52235 10.382 1.58682C10.4464 1.65129 10.5339 1.6875 10.625 1.6875H11.8282V2.375H11.3125C11.039 2.375 10.7767 2.48365 10.5833 2.67705C10.3899 2.87045 10.2813 3.13275 10.2813 3.40626V5.81251C10.2813 6.08602 10.3899 6.34832 10.5833 6.54172C10.7767 6.73512 11.039 6.84377 11.3125 6.84377H11.8058C11.8058 6.8558 11.8058 6.86783 11.8058 6.87986C11.8385 7.49517 11.866 8.02627 11.6116 8.46627C11.3177 8.9819 11.0496 8.92518 10.3174 8.70518L10.2057 8.6708C9.41502 8.43361 8.86846 8.95783 8.42846 9.37721C8.16377 9.62815 7.91283 9.86534 7.65158 9.93752H7.0397L6.93658 9.48893C6.85122 9.08865 6.67478 8.71343 6.42095 8.39236C6.25738 8.55711 6.07029 8.6967 5.86579 8.80658C6.06167 9.05012 6.19766 9.33623 6.26283 9.6419L6.32814 9.93752H5.29689C5.20572 9.93752 5.11828 9.97374 5.05382 10.0382C4.98935 10.1027 4.95314 10.1901 4.95314 10.2813C4.95314 10.3724 4.98935 10.4599 5.05382 10.5243C5.11828 10.5888 5.20572 10.625 5.29689 10.625H10.1094C10.2006 10.625 10.288 10.6612 10.3525 10.7257C10.4169 10.7902 10.4532 10.8776 10.4532 10.9688C10.4532 11.0599 10.4169 11.1474 10.3525 11.2118C10.288 11.2763 10.2006 11.3125 10.1094 11.3125H6.15626C6.0651 11.3125 5.97766 11.3487 5.9132 11.4132C5.84873 11.4777 5.81251 11.5651 5.81251 11.6563C5.81251 11.7474 5.84873 11.8349 5.9132 11.8993C5.97766 11.9638 6.0651 12 6.15626 12H6.80595L7.38861 14.5541L10.2933 13.956C10.3594 13.9417 10.4268 13.9348 10.4944 13.9353C10.7673 13.9274 11.0335 14.0204 11.2421 14.1966L15.0233 20.6213L16.0752 20.0472C16.1346 20.0105 16.1996 19.9838 16.2677 19.9682C16.3557 19.9526 16.4464 19.9633 16.5284 19.9991C16.6103 20.0349 16.6799 20.0941 16.7283 20.1693C16.7607 20.2186 16.784 20.2733 16.7971 20.3308C16.8092 20.4218 16.7968 20.5144 16.7611 20.599C16.7254 20.6836 16.6679 20.7572 16.5943 20.8121C16.4413 20.9083 15.4702 21.5185 15.056 21.7471C15.0171 21.7706 14.9738 21.7858 14.9288 21.7918C14.7266 21.8143 14.5233 21.761 14.3582 21.6422L11.6563 16.7747C11.5721 16.6341 11.4542 16.5167 11.3131 16.4332C11.172 16.3498 11.0123 16.3029 10.8485 16.2969H4.83282C4.69868 16.0186 4.60603 15.7221 4.55782 15.4169L3.92188 12.605V10.2813C3.91881 9.93676 3.78841 9.60557 3.55579 9.35143C3.58589 9.28001 3.62151 9.21105 3.66235 9.14518C3.7241 9.04733 3.79675 8.9568 3.87891 8.87533C3.66592 8.77874 3.46795 8.65197 3.2911 8.49893C3.2134 8.58602 3.14271 8.67912 3.07969 8.77736C3.04136 8.84022 3.00636 8.90505 2.97485 8.97158C2.91129 8.94838 2.84644 8.92887 2.78063 8.91315L2.73766 8.90627H1.51563C1.37887 8.90627 1.24772 8.9606 1.15102 9.05729C1.05432 9.15399 1 9.28514 1 9.4219V22.3126C1 22.4949 1.07243 22.6698 1.20136 22.7987C1.3303 22.9276 1.50517 23.0001 1.6875 23.0001H3.23438C3.41672 23.0001 3.59159 22.9276 3.72052 22.7987C3.84945 22.6698 3.92188 22.4949 3.92188 22.3126V20.8224H10.515C10.5567 20.8279 10.5969 20.8417 10.6332 20.863C10.6695 20.8842 10.7012 20.9125 10.7264 20.9461L11.603 22.5222C11.6879 22.6638 11.807 22.7817 11.9493 22.8652C12.0917 22.9487 12.2527 22.9951 12.4177 23.0001H14.188C14.2857 23.0048 14.383 22.9835 14.4697 22.9382C14.5564 22.8928 14.6294 22.8252 14.6813 22.7422C14.7271 22.6641 14.7509 22.575 14.75 22.4844C14.781 22.4844 14.8102 22.4844 14.8411 22.4844C14.8986 22.4843 14.956 22.4808 15.013 22.4741C15.1467 22.4578 15.2758 22.4152 15.3929 22.3487C15.8243 22.1115 16.785 21.5065 16.9775 21.3861L17.0016 21.369C17.1826 21.2385 17.3231 21.0596 17.4071 20.8529C17.491 20.6461 17.5149 20.4199 17.476 20.2002C17.4149 19.9039 17.2402 19.6433 16.9892 19.4743C16.7383 19.3053 16.4312 19.2414 16.1336 19.2961C15.9935 19.3258 15.8593 19.3787 15.7366 19.4525L15.2811 19.7018L11.9674 14.0763C11.1443 13.9064 10.3331 13.6837 9.53877 13.4094L7.90939 13.7532L7.51064 12H7.96611C7.99495 12.0313 8.02933 12.0569 8.06752 12.0757C8.23939 12.1616 11.4638 13.7222 15.0199 13.7222C16.1508 13.7348 17.2754 13.5516 18.344 13.1808C19.9995 12.5867 21.4007 11.4417 22.3126 9.93752V14.9219H15.4375V14.4063C15.3018 14.4063 15.1677 14.4063 15.0319 14.4063C14.9374 14.4063 14.8428 14.4063 14.75 14.4063V14.9219C14.75 15.1042 14.8225 15.2791 14.9514 15.4081C15.0803 15.537 15.2552 15.6094 15.4375 15.6094H16.9844V16.2969H15.0938C15.0026 16.2969 14.9152 16.3331 14.8507 16.3976C14.7863 16.4621 14.75 16.5495 14.75 16.6407C14.75 16.7318 14.7863 16.8193 14.8507 16.8837C14.9152 16.9482 15.0026 16.9844 15.0938 16.9844H22.6563C22.7475 16.9844 22.8349 16.9482 22.8994 16.8837C22.9638 16.8193 23.0001 16.7318 23.0001 16.6407C23.0001 16.5495 22.9638 16.4621 22.8994 16.3976C22.8349 16.3331 22.7475 16.2969 22.6563 16.2969H20.7657V15.6094H22.3126ZM4.09376 16.2969H3.92188V15.7366C3.96396 15.9277 4.02144 16.1151 4.09376 16.2969ZM12.4246 22.3126C12.3823 22.3073 12.3415 22.2936 12.3047 22.2724C12.2678 22.2511 12.2355 22.2227 12.2097 22.1888L11.3314 20.6127C11.2469 20.4718 11.1283 20.3543 10.9866 20.2711C10.8448 20.188 10.6845 20.1417 10.5202 20.1366H3.92188C3.73955 20.1366 3.56468 20.209 3.43575 20.338C3.30681 20.4669 3.23438 20.6418 3.23438 20.8241V22.3126H1.6875V9.59377H2.65516C2.81651 9.6233 2.96256 9.70805 3.06825 9.8335C3.17393 9.95894 3.23267 10.1173 3.23438 10.2813V16.2969C3.23438 16.4793 3.30681 16.6541 3.43575 16.7831C3.56468 16.912 3.73955 16.9844 3.92188 16.9844H10.8485C10.8904 16.9898 10.9309 17.0036 10.9675 17.0248C11.0041 17.0461 11.0361 17.0744 11.0616 17.1082L13.9508 22.3126H12.4246ZM22.3126 5.64064H15.4375V3.57813H22.3126V5.64064ZM10.9688 5.81251V5.64064H11.4844C11.5756 5.64064 11.663 5.60442 11.7275 5.53996C11.7919 5.47549 11.8282 5.38805 11.8282 5.29689C11.8282 5.20572 11.7919 5.11828 11.7275 5.05382C11.663 4.98935 11.5756 4.95314 11.4844 4.95314H10.9688V4.26563H11.4844C11.5756 4.26563 11.663 4.22942 11.7275 4.16495C11.7919 4.10049 11.8282 4.01305 11.8282 3.92188C11.8282 3.83071 11.7919 3.74328 11.7275 3.67881C11.663 3.61435 11.5756 3.57813 11.4844 3.57813H10.9688V3.40626C10.9688 3.31509 11.005 3.22765 11.0695 3.16319C11.1339 3.09872 11.2214 3.06251 11.3125 3.06251H13.0313C13.1225 3.06251 13.2099 3.09872 13.2744 3.16319C13.3388 3.22765 13.375 3.31509 13.375 3.40626V5.81251C13.375 5.90368 13.3388 5.99112 13.2744 6.05558C13.2099 6.12005 13.1225 6.15626 13.0313 6.15626H11.3125C11.2214 6.15626 11.1339 6.12005 11.0695 6.05558C11.005 5.99112 10.9688 5.90368 10.9688 5.81251ZM18.1136 12.5346C15.0989 13.6208 11.5652 12.6755 9.69174 12H10.1094C10.3829 12 10.6452 11.8914 10.8386 11.698C11.032 11.5046 11.1407 11.2423 11.1407 10.9688C11.1407 10.6953 11.032 10.433 10.8386 10.2396C10.6452 10.0462 10.3829 9.93752 10.1094 9.93752H8.83924L8.90627 9.87393C9.3394 9.46143 9.62471 9.21393 10.0131 9.32908L10.1231 9.36174C10.7952 9.56455 11.6305 9.81721 12.2114 8.8083C12.5638 8.19471 12.5311 7.53127 12.495 6.84377H13.0313C13.3048 6.84377 13.5671 6.73512 13.7605 6.54172C13.9539 6.34832 14.0625 6.08602 14.0625 5.81251V3.40626C14.0625 3.13275 13.9539 2.87045 13.7605 2.67705C13.5671 2.48365 13.3048 2.375 13.0313 2.375H12.5157V1.6875H15.4375V2.89063C15.2552 2.89063 15.0803 2.96306 14.9514 3.09199C14.8225 3.22093 14.75 3.3958 14.75 3.57813V12.3438C14.9792 12.3495 15.2084 12.3495 15.4375 12.3438V6.32814H22.3126V8.48518C21.3896 10.4996 19.9785 11.8625 18.1136 12.5346ZM20.0782 16.2969H17.6719V15.6094H20.0782V16.2969Z" fill="#424242"/>
</svg>
