<svg width="24" height="24" viewBox="0 0 24 24" fill="none" xmlns="http://www.w3.org/2000/svg">
<path d="M15.2223 11.6795C16.5129 10.1724 17.3184 7.9811 17.3184 6.32244C17.3184 3.38622 14.9322 1 11.996 1C9.05974 1 6.67352 3.38622 6.67352 6.32244C6.67352 7.9811 7.47903 10.1724 8.76958 11.6795C0.961315 14.3039 1.77982 21.5276 2.12195 23H21.87C23.0349 17.9547 19.9515 13.061 15.2223 11.6795ZM11.996 1.71024C13.8625 1.71024 15.4692 2.82323 16.1924 4.42126C14.4212 5.62953 12.6239 4.26535 12.6239 4.26535C11.368 3.53346 9.79163 3.60276 8.60502 4.43425L7.531 5.1878C8.03769 3.19567 9.8436 1.71024 11.996 1.71024ZM7.38376 6.32244C7.38376 6.26614 7.38809 6.20984 7.39242 6.15354L9.0121 5.01457C9.97352 4.33898 11.2511 4.28701 12.2645 4.87598C12.2645 4.87598 14.2436 6.39173 16.4393 5.10551C16.5432 5.49095 16.6082 5.89803 16.6082 6.31811C16.6082 8.83858 14.5424 12.7059 11.996 12.7059C9.4495 12.7059 7.38376 8.84291 7.38376 6.32244ZM21.281 22.2898H2.71525C2.17824 18.9594 3.54242 15.7591 6.05423 13.8319C6.2058 14.828 6.50029 15.785 6.93769 16.6945C5.84202 17.3831 5.32667 18.7646 5.77273 20.0335L6.36171 21.7051L7.6999 21.2331L7.46604 20.5618L6.79478 20.7957L6.43966 19.7909C6.0499 18.6823 6.63454 17.4654 7.7432 17.0756C8.84754 16.6858 10.0688 17.2705 10.4586 18.3791L10.8093 19.3839L10.1381 19.6177L10.3719 20.289L11.7101 19.8169L11.1212 18.1409C10.6101 16.6858 9.02943 15.9106 7.57431 16.3827C7.11525 15.4299 6.82076 14.4165 6.70384 13.3642C7.49202 12.8661 8.37549 12.485 9.33258 12.2469C10.1078 12.9528 11.0086 13.4031 11.9916 13.4031C12.9747 13.4031 13.8755 12.9528 14.6507 12.2469C15.768 12.524 16.7857 12.9961 17.6692 13.6283C17.4613 14.5724 17.1149 15.4689 16.6298 16.3004C16.5086 16.2657 16.383 16.2398 16.2487 16.2398C15.4649 16.2398 14.8282 16.8764 14.8282 17.6602C14.8282 18.4441 15.4649 19.0807 16.2487 19.0807C17.0326 19.0807 17.6692 18.4441 17.6692 17.6602C17.6692 17.2661 17.509 16.911 17.2448 16.6512C17.7082 15.85 18.0546 15.0012 18.2842 14.1047C20.5751 16.0752 21.7877 19.1283 21.281 22.2898ZM16.9633 17.6776C16.9633 18.0673 16.6428 18.3878 16.253 18.3878C15.8633 18.3878 15.5428 18.0717 15.5428 17.6776C15.5428 17.2835 15.8633 16.9673 16.253 16.9673C16.6471 16.9673 16.9633 17.2878 16.9633 17.6776Z" fill="#424242"/>
</svg>
