<svg width="16" height="20" viewBox="0 0 16 20" fill="none" xmlns="http://www.w3.org/2000/svg">
<path d="M14.1802 13.317C14.0098 13.1928 13.8395 13.0687 13.6407 12.9134L13.0161 12.5099C12.8458 12.4168 12.6754 12.3236 12.4767 12.1995L12.278 12.0753C12.1076 11.9822 11.9089 11.858 11.7101 11.7649C11.4546 11.6407 11.2275 11.5165 10.9719 11.4545L10.6596 11.3613L10.5177 11.6097C10.3757 11.827 9.06973 13.1928 7.82051 14.4345C6.57129 13.1618 5.26529 11.827 5.12333 11.6097L4.98138 11.3613L4.66907 11.4855C4.44194 11.5476 4.21481 11.6407 3.95929 11.7959C3.76055 11.889 3.56181 12.0132 3.36307 12.1063L3.13594 12.2305C3.07916 12.2616 3.02238 12.2926 2.96559 12.3236L2.31259 12.7272C2.02868 12.9134 1.74477 13.0997 1.51764 13.286C0.9782 13.7206 0.467156 14.1862 0.211634 14.807C-0.0154966 15.3658 -0.0154965 16.0177 0.0128948 16.5765V16.7938C0.0128948 16.8558 0.0128948 17.5388 0.0128948 18.47C0.0128948 19.1219 0.495547 19.6807 1.12016 19.6807H14.5209C15.1171 19.6807 15.6281 19.153 15.6281 18.47C15.6281 17.7871 15.6281 16.8558 15.6281 16.7938V16.6075C15.6565 16.0487 15.6565 15.3968 15.4294 14.8381C15.1739 14.1862 14.6628 13.7206 14.1802 13.317ZM12.2496 15.4279C12.4199 15.521 12.5619 15.7073 12.6186 15.9246C12.6754 16.1419 12.6754 16.3592 12.5619 16.5454C12.4767 16.7317 12.3063 16.8869 12.1076 16.949C11.9089 17.011 11.7101 17.011 11.5398 16.8869C11.3694 16.7937 11.2275 16.6075 11.1707 16.3902C11.1139 16.1729 11.1139 15.9556 11.2275 15.7693C11.3126 15.5831 11.483 15.4279 11.6817 15.3658C11.7669 15.3348 11.8237 15.3348 11.9089 15.3348C12.0224 15.3348 12.136 15.3658 12.2496 15.4279ZM14.9183 16.5454V16.7317C14.9183 16.7627 14.9183 17.011 14.9183 18.439C14.9183 18.6873 14.748 18.8736 14.5209 18.8736H1.12016C0.893026 18.8736 0.722678 18.6873 0.722678 18.439C0.722678 17.3525 0.722678 16.7937 0.722678 16.7317V16.5144C0.694287 16.0487 0.694287 15.521 0.864635 15.1175C1.06337 14.6518 1.48924 14.2793 1.91511 13.9378C2.11385 13.7516 2.36938 13.5964 2.6249 13.4101L2.96559 13.1928C3.02238 13.4722 3.07916 13.7826 3.16433 14.062C2.99398 14.1551 2.85203 14.2483 2.73846 14.4035C2.59651 14.5587 2.45455 14.745 2.36938 14.9622C2.19903 15.3658 2.14224 15.8314 2.22742 16.266L2.59651 17.9734L3.70377 17.694C3.90251 17.6319 4.01607 17.4456 3.95929 17.2283C3.90251 17.011 3.73216 16.8869 3.53342 16.949L3.10755 17.0421L2.90881 16.0798C2.85203 15.8004 2.88042 15.5521 2.99398 15.3037C3.05077 15.1795 3.13594 15.0554 3.22112 14.9622C3.36307 14.807 3.53342 14.7139 3.73216 14.6518C3.9309 14.5897 4.12964 14.6208 4.29999 14.6829C4.38516 14.7139 4.47033 14.745 4.55551 14.807C4.5839 14.8381 4.61229 14.8381 4.64068 14.8691C4.83942 15.0243 4.98138 15.2727 5.03816 15.521L5.2369 16.4833L4.81103 16.5765C4.61229 16.6385 4.49872 16.8248 4.55551 17.0421C4.61229 17.2594 4.78264 17.3836 4.98138 17.3215L6.08864 17.0421L5.71955 15.3348C5.63438 14.9002 5.40725 14.4966 5.09494 14.2483C5.03816 14.1862 4.98138 14.1551 4.92459 14.1241C4.81103 14.031 4.66907 13.9689 4.49872 13.9068C4.29999 13.8758 4.07285 13.8758 3.84572 13.8758C3.73216 13.5653 3.67538 13.2239 3.61859 12.9134C3.61859 12.8824 3.61859 12.8824 3.5902 12.8514L3.64698 12.8203C3.81733 12.7272 4.01607 12.603 4.21481 12.5099C4.38516 12.4168 4.52712 12.3547 4.69746 12.2926C5.29368 12.9755 6.99716 14.7139 7.56499 15.2727L7.79212 15.521L8.01925 15.2727C8.58708 14.7139 10.2906 12.9755 10.8868 12.2926C11.0287 12.3547 11.1991 12.4168 11.3694 12.5099C11.5398 12.603 11.7385 12.6962 11.9089 12.7893L12.1076 12.9134C12.2496 13.0066 12.3915 13.0687 12.5335 13.1618C12.4483 13.6585 12.3063 14.1241 12.0792 14.5897C11.8521 14.5587 11.6249 14.5587 11.4262 14.6518C11.0571 14.776 10.7448 15.0554 10.5745 15.4589C10.4041 15.8314 10.3757 16.266 10.4893 16.6696C10.6029 17.0731 10.8584 17.4146 11.2275 17.6009C11.4262 17.725 11.6533 17.7871 11.9089 17.7871C12.0508 17.7871 12.2212 17.7561 12.3631 17.725C12.7322 17.6009 13.0445 17.3215 13.2149 16.9179C13.3852 16.5454 13.4136 16.1108 13.3 15.7073C13.2149 15.3968 13.0161 15.1175 12.789 14.9002C12.9877 14.4656 13.1297 14.031 13.2149 13.5653L13.2716 13.5964C13.442 13.7206 13.6123 13.8447 13.7543 13.9378C14.1802 14.2793 14.606 14.6518 14.8048 15.1175C14.9467 15.521 14.9467 16.0487 14.9183 16.5454Z" fill="#01CD74"/>
<path d="M3.67503 6.27059C3.67503 6.39476 3.70342 6.54997 3.73181 6.67414C3.73181 6.73623 3.76021 6.79831 3.76021 6.8604C3.81699 7.48125 4.1009 7.94688 4.52677 8.19522C4.52677 8.19522 4.52677 8.22627 4.55516 8.22627C4.81069 9.3438 5.35012 10.1819 6.11669 10.7718C6.20186 10.8338 6.31543 10.927 6.42899 10.989C6.57095 11.0822 6.76969 11.1443 6.94004 11.2374H6.96843C7.11038 11.2995 7.25234 11.3616 7.42269 11.3926C7.53625 11.4236 7.67821 11.4236 7.79177 11.4236C7.82017 11.4236 7.84856 11.4236 7.87695 11.4236C8.01891 11.4236 8.13247 11.4236 8.24604 11.3926C8.38799 11.3616 8.52995 11.3305 8.67191 11.2374H8.7003C8.89904 11.1753 9.06939 11.0822 9.23973 10.989C9.3533 10.927 9.43847 10.8649 9.55204 10.7718C9.97791 10.4613 10.3186 10.0578 10.6025 9.59214C10.7161 9.37484 10.8296 9.15754 10.9432 8.84712C10.9716 8.75399 11 8.62982 11.0284 8.53669C11.0568 8.41252 11.0852 8.31939 11.1136 8.25731C11.1703 8.19522 11.2271 8.1021 11.3123 8.04001C11.3691 8.00897 11.3975 7.94688 11.4543 7.91584C11.795 7.57437 11.8801 7.17082 11.9085 6.82935C11.9085 6.76727 11.9369 6.70518 11.9369 6.6431C11.9653 6.51893 11.9653 6.36372 11.9937 6.23955C11.9937 6.11538 11.9937 6.02225 11.9937 5.92912V5.89808C12.0221 5.52557 11.8233 5.09097 11.4543 4.9668V4.93576V4.78055C11.4543 4.65638 11.4826 4.50116 11.511 4.40804C11.5962 4.03553 11.653 3.66302 11.653 3.29051C11.6814 2.04881 11.1136 1.0244 10.0915 0.527723C9.97791 0.465638 9.86434 0.434595 9.75078 0.37251C9.15456 0.12417 8.50156 0 7.82017 0C7.67821 0 7.53625 0 7.3943 0C6.99682 0.0310425 6.45738 0.062085 5.97473 0.310425C5.91795 0.341468 5.86116 0.37251 5.83277 0.403553C5.66243 0.527723 5.49208 0.713978 5.37851 0.900233C5.35012 0.931275 5.32173 0.962318 5.32173 0.99336C5.26495 1.08649 5.23656 1.11753 5.17977 1.17962C5.06621 1.27274 4.98103 1.33483 4.86747 1.39691C4.66873 1.49004 4.49838 1.64525 4.38482 1.86255C4.24286 2.20402 4.15768 2.57653 4.12929 3.01112C4.1009 3.44572 4.12929 3.88031 4.15768 4.22178C4.15768 4.37699 4.18608 4.53221 4.21447 4.71846C4.24286 4.81159 4.24286 4.90472 4.27125 5.02889C4.27125 5.02889 4.27125 5.02889 4.24286 5.02889C3.84538 5.12201 3.64664 5.58765 3.67503 5.99121V6.02225C3.67503 6.05329 3.67503 6.14642 3.67503 6.27059ZM4.41321 5.74287C4.4416 5.74287 4.46999 5.74287 4.46999 5.74287C4.49838 5.74287 4.52677 5.74287 4.55516 5.74287C4.58355 5.74287 4.61195 5.74287 4.64034 5.74287H4.69712L4.7539 5.71182C4.89586 5.6187 4.98103 5.46348 4.98103 5.27723C4.98103 5.02889 4.95264 4.78055 4.89586 4.56325C4.86747 4.43908 4.83908 4.31491 4.83908 4.19074C4.81069 3.88031 4.81069 3.47676 4.81069 3.07321C4.81069 2.76278 4.86747 2.51444 4.95264 2.32819C4.98103 2.2661 5.03782 2.23506 5.0946 2.20402C5.26495 2.14193 5.4069 2.01776 5.54886 1.89359C5.71921 1.73838 5.77599 1.64525 5.83277 1.52108L5.88956 1.42796C5.97473 1.30379 6.0599 1.21066 6.14508 1.14857C6.17347 1.11753 6.20186 1.11753 6.23025 1.08649C6.54256 0.931275 6.94004 0.86919 7.3943 0.838148C7.50786 0.838148 7.64982 0.838148 7.76338 0.838148C8.3596 0.838148 8.92743 0.962318 9.43847 1.17962C9.52365 1.21066 9.63721 1.27274 9.72239 1.30379C10.489 1.6763 10.8864 2.42132 10.858 3.35259C10.858 3.66302 10.8013 3.97344 10.7445 4.31491C10.7161 4.47012 10.6877 4.65638 10.6877 4.81159L10.6593 4.99784C10.6309 5.15306 10.6025 5.30827 10.6593 5.49452C10.7729 5.80495 11.0568 5.80495 11.142 5.80495C11.1703 5.83599 11.1987 5.89808 11.1987 5.96016V6.02225V6.05329C11.1987 6.14642 11.1987 6.2085 11.1987 6.30163C11.1987 6.4258 11.1703 6.51893 11.1703 6.6431C11.1703 6.70518 11.142 6.79831 11.142 6.8604C11.1136 7.13978 11.0568 7.32603 10.9148 7.4502C10.8864 7.48125 10.8296 7.51229 10.8013 7.54333C10.7161 7.63646 10.6025 7.72959 10.489 7.85376C10.347 8.04001 10.2902 8.25731 10.2618 8.44356C10.2334 8.50565 10.2334 8.56773 10.205 8.62982C10.1199 8.87816 10.0347 9.06441 9.92113 9.25067C9.69399 9.62318 9.41008 9.96465 9.09778 10.213C9.0126 10.2751 8.92743 10.3372 8.84225 10.3682C8.72869 10.4303 8.58673 10.4924 8.41638 10.5545C8.38799 10.5545 8.3596 10.5855 8.3596 10.5855C8.27443 10.6165 8.16086 10.6786 8.07569 10.6786C7.99051 10.7097 7.87695 10.7097 7.79177 10.7097C7.7066 10.7097 7.59304 10.7097 7.50786 10.6786C7.3943 10.6476 7.30912 10.6165 7.19556 10.5855L7.13877 10.5545C6.96843 10.4924 6.82647 10.4303 6.7129 10.3682C6.62773 10.3061 6.54256 10.244 6.45738 10.213C5.83277 9.74735 5.4069 9.06441 5.20816 8.13314C5.15138 7.8848 5.03782 7.76063 4.92425 7.6675L4.86747 7.63646C4.55516 7.4502 4.46999 7.07769 4.4416 6.8604C4.4416 6.79831 4.41321 6.70518 4.41321 6.6431C4.38482 6.51893 4.38482 6.4258 4.38482 6.30163C4.38482 6.2085 4.38482 6.14642 4.38482 6.05329V5.96016C4.38482 5.83599 4.41321 5.74287 4.41321 5.74287Z" fill="#01CD74"/>
</svg>
