<svg width="18" height="18" viewBox="0 0 18 18" fill="none" xmlns="http://www.w3.org/2000/svg">
<path d="M14.1433 16.1H14.1875C14.6908 16.1 15.1 15.6908 15.1 15.1875V6.00086C15.1 5.99078 15.0987 5.98228 15.0974 5.976C15.0968 5.97342 15.0962 5.97103 15.0957 5.96904C15.0931 5.93814 15.0865 5.90851 15.0766 5.8799L15.0764 5.87929L15.0727 5.86807C15.0709 5.86254 15.0679 5.85416 15.0636 5.84494L14.1433 16.1ZM14.1433 16.1L14.1432 16.1H2.8125C2.30924 16.1 1.9 15.6907 1.9 15.1875V3.81249C1.9 3.30924 2.30924 2.9 2.8125 2.9H11.9991C12.0485 2.9 12.0967 2.91005 12.1414 2.92872M14.1433 16.1L12.1414 2.92872M12.1414 2.92872C12.1414 2.92871 12.1414 2.9287 12.1414 2.92869L12.1031 3.02062L12.1415 2.92875C12.1415 2.92874 12.1415 2.92873 12.1414 2.92872ZM2.64167 3.80903V3.81249V15.1875C2.64167 15.2815 2.71842 15.3583 2.8125 15.3583H14.1875C14.2815 15.3583 14.3583 15.2815 14.3583 15.1875V6.37166H12.5408C12.0375 6.37166 11.6283 5.96241 11.6283 5.45916V3.64163H2.81246C2.71954 3.64163 2.6435 3.71653 2.64167 3.80903ZM13.8339 5.63001L12.37 4.16606V5.45917C12.37 5.55325 12.4467 5.63001 12.5408 5.63001H13.8339Z" fill="#424242" stroke="#424242" stroke-width="0.2"/>
<path d="M12.0196 8.95851V10.0418C12.0196 10.3958 11.7319 10.6835 11.3779 10.6835H9.68365V12.3778C9.68365 12.7317 9.39595 13.0194 9.04198 13.0194H7.95865C7.60469 13.0194 7.31699 12.7317 7.31699 12.3778V10.6835H5.62272C5.26876 10.6835 4.98105 10.3958 4.98105 10.0418V8.95851C4.98105 8.60454 5.26876 8.31684 5.62272 8.31684H7.31699V6.62257C7.31699 6.26861 7.60469 5.98091 7.95865 5.98091H9.04198C9.39595 5.98091 9.68365 6.26861 9.68365 6.62257V8.31684H11.3779C11.7319 8.31684 12.0196 8.60454 12.0196 8.95851ZM9.31282 9.05851C9.10802 9.05851 8.94198 8.89247 8.94198 8.68767V6.72257H8.05865V8.68767C8.05865 8.89247 7.89261 9.05851 7.68782 9.05851H5.72272V9.94184H7.68782C7.89261 9.94184 8.05865 10.1079 8.05865 10.3127V12.2778H8.94198V10.3127C8.94198 10.1079 9.10802 9.94184 9.31282 9.94184H11.2779V9.05851H9.31282Z" fill="#424242" stroke="#424242" stroke-width="0.2"/>
</svg>
