<svg width="65" height="65" viewBox="0 0 65 65" fill="none" xmlns="http://www.w3.org/2000/svg">
<path d="M31.6679 18.2985V12.2491C31.6679 11.7903 32.0394 11.418 32.4991 11.418C32.9583 11.418 33.3303 11.7894 33.3303 12.2491V18.2985C33.3303 18.7573 32.9588 19.1297 32.4991 19.1297C32.0399 19.1297 31.6679 18.7573 31.6679 18.2985ZM51.5626 30.135C51.7038 30.135 51.8463 30.0992 51.9775 30.0237L57.2161 26.9986C57.6133 26.7697 57.75 26.2606 57.5201 25.8634C57.2912 25.4661 56.7831 25.3295 56.3849 25.5593L51.1463 28.5844C50.7491 28.8134 50.6124 29.3224 50.8423 29.7196C50.9957 29.9861 51.2753 30.135 51.5626 30.135V30.135ZM43.0891 21.9668C43.2203 22.0423 43.3628 22.0781 43.504 22.0781C43.7913 22.0781 44.07 21.9288 44.2243 21.6627L47.2494 16.4242C47.4792 16.0269 47.3426 15.5188 46.9453 15.289C46.5481 15.0587 46.04 15.1957 45.8101 15.593L42.785 20.8316C42.5561 21.2288 42.6918 21.7378 43.0891 21.9668V21.9668ZM20.7748 21.6627C20.9286 21.9297 21.2078 22.0781 21.4951 22.0781C21.6362 22.0781 21.7787 22.0423 21.91 21.9668C22.3072 21.7378 22.4439 21.2288 22.214 20.8316L19.1889 15.593C18.96 15.1957 18.4523 15.0586 18.0537 15.2889C17.6565 15.5179 17.5198 16.0269 17.7497 16.4242L20.7748 21.6627ZM7.78345 26.9985L13.022 30.0236C13.1532 30.0991 13.2958 30.1349 13.4369 30.1349C13.7242 30.1349 14.0029 29.9856 14.1572 29.7195C14.3871 29.3223 14.2504 28.8142 13.8532 28.5843L8.61461 25.5592C8.21735 25.3294 7.70925 25.4665 7.4794 25.8633C7.24955 26.2614 7.38529 26.7695 7.78345 26.9985V26.9985ZM63.242 40.3095C63.242 40.7682 62.8706 41.1406 62.4109 41.1406H2.58788C2.12909 41.1406 1.75671 40.7692 1.75671 40.3095C1.75671 39.8502 2.12818 39.4783 2.58788 39.4783H16.2996C17.1475 31.2301 24.1171 24.8781 32.5005 24.8781C40.884 24.8781 47.8536 31.2292 48.7014 39.4783H62.412C62.8713 39.4783 63.2432 39.8502 63.2432 40.3095H63.242ZM17.9717 39.4783H47.0261C46.1854 32.1562 39.9682 26.5403 32.4989 26.5403C25.0289 26.5403 18.8126 32.1556 17.9717 39.4783V39.4783ZM52.7827 45.4606H31.2839C30.8251 45.4606 30.4527 45.8321 30.4527 46.2918C30.4527 46.751 30.8242 47.1229 31.2839 47.1229H52.7827C53.2415 47.1229 53.6139 46.7515 53.6139 46.2918C53.6139 45.8325 53.2424 45.4606 52.7827 45.4606ZM28.8538 51.4429H19.4115C18.9527 51.4429 18.5803 51.8144 18.5803 52.2741C18.5803 52.7333 18.9518 53.1052 19.4115 53.1052H28.8538C29.3126 53.1052 29.6849 52.7338 29.6849 52.2741C29.6849 51.8148 29.313 51.4429 28.8538 51.4429ZM25.5721 46.2917C25.5721 45.8329 25.2007 45.4605 24.741 45.4605H12.2141C11.7553 45.4605 11.383 45.832 11.383 46.2917C11.383 46.7509 11.7544 47.1228 12.2141 47.1228H24.7421C25.2009 47.1219 25.5724 46.7505 25.5724 46.2917H25.5721ZM45.5849 51.4429H34.9297C34.4709 51.4429 34.0985 51.8144 34.0985 52.2741C34.0985 52.7333 34.47 53.1052 34.9297 53.1052H45.5849C46.0437 53.1052 46.4161 52.7338 46.4161 52.2741C46.4161 51.8148 46.0437 51.4429 45.5849 51.4429Z" fill="#1569A1" stroke="#1569A1"/>
</svg>
