<svg width="24" height="24" viewBox="0 0 24 24" fill="none" xmlns="http://www.w3.org/2000/svg">
<path d="M2.54292e-07 1.65306e-06L8 9.53674e-07L8 2.66667L2.66667 2.66667L2.66667 8L9.53674e-07 8L2.54292e-07 1.65306e-06Z" fill="white"/>
<path d="M9.53674e-07 24L8 24L8 21.3333L2.66667 21.3333L2.66667 16L1.65306e-06 16L9.53674e-07 24Z" fill="white"/>
<path d="M16 24L24 24L24 16L21.3333 16L21.3333 21.3333L16 21.3333L16 24Z" fill="white"/>
<path d="M24 9.53674e-07L16 1.65306e-06L16 2.66667L21.3333 2.66667L21.3333 8L24 8L24 9.53674e-07Z" fill="white"/>
</svg>
