<svg width="24" height="24" viewBox="0 0 24 24" fill="none" xmlns="http://www.w3.org/2000/svg">
<path d="M6.68182 10.0154C6.40404 10.0154 6.17676 9.78814 6.17676 9.51035V1.50507C6.17676 1.22728 6.40404 1 6.68182 1H16.1265C16.4043 1 16.6316 1.22728 16.6316 1.50507V9.43459C16.6316 9.71238 16.4043 9.93966 16.1265 9.93966C15.8488 9.93966 15.6215 9.71238 15.6215 9.43459V2.01013H7.18689V9.51035C7.18689 9.78814 6.95961 10.0154 6.68182 10.0154Z" fill="#424242"/>
<path d="M21.2532 9.5863H18.6269C18.3491 9.5863 18.1218 9.35902 18.1218 9.08124C18.1218 8.80345 18.3491 8.57617 18.6269 8.57617H21.2532C21.531 8.57617 21.7583 8.80345 21.7583 9.08124C21.7583 9.35902 21.531 9.5863 21.2532 9.5863Z" fill="#424242"/>
<path d="M4.18191 9.5863H1.50507C1.22728 9.5863 1 9.35902 1 9.08124C1 8.80345 1.22728 8.57617 1.50507 8.57617H4.18191C4.4597 8.57617 4.68698 8.80345 4.68698 9.08124C4.68698 9.35902 4.4597 9.5863 4.18191 9.5863Z" fill="#424242"/>
<path d="M13.9549 5.19226H8.8537C8.57591 5.19226 8.34863 4.96498 8.34863 4.68719C8.34863 4.40941 8.57591 4.18213 8.8537 4.18213H13.9296C14.2074 4.18213 14.4347 4.40941 14.4347 4.68719C14.4347 4.96498 14.2326 5.19226 13.9549 5.19226Z" fill="#424242"/>
<path d="M13.9551 7.79285H8.85394C8.57616 7.79285 8.34888 7.56557 8.34888 7.28778C8.34888 7.00999 8.57616 6.78271 8.85394 6.78271H13.9298C14.2076 6.78271 14.4349 7.00999 14.4349 7.28778C14.4349 7.56557 14.2329 7.79285 13.9551 7.79285Z" fill="#424242"/>
<circle cx="17.0417" cy="17.0986" r="5.5" stroke="#424242"/>
<path fill-rule="evenodd" clip-rule="evenodd" d="M12.3578 20.8488C12.1013 20.5289 11.877 20.1821 11.6896 19.8134H2.01013V6.98474H4.18191C4.4597 6.98474 4.68698 6.75746 4.68698 6.47967C4.68698 6.20189 4.4597 5.97461 4.18191 5.97461H1.50507C1.22728 5.97461 1 6.20189 1 6.47967V20.3437C1 20.6215 1.22728 20.8488 1.50507 20.8488H12.3578ZM21.8339 13.4877C21.5407 13.0992 21.2013 12.7474 20.8238 12.4405V6.98474H18.652C18.3742 6.98474 18.147 6.75746 18.147 6.47967C18.147 6.20189 18.3742 5.97461 18.652 5.97461H21.3289C21.6067 5.97461 21.8339 6.20189 21.8339 6.47967V13.4877Z" fill="#424242"/>
<path fill-rule="evenodd" clip-rule="evenodd" d="M19.132 11.473V1.50507C19.132 1.22728 18.9047 1 18.6269 1H4.18207C3.90428 1 3.677 1.22728 3.677 1.50507V17.8692C3.677 18.147 3.90428 18.3742 4.18207 18.3742H11.1776C11.1067 18.0467 11.0625 17.7092 11.0475 17.3641H4.68713V2.01013H18.1219V11.1958C18.47 11.2591 18.8076 11.3524 19.132 11.473Z" fill="#424242"/>
<path fill-rule="evenodd" clip-rule="evenodd" d="M19.132 11.4729V8.75263C19.132 8.60111 19.0562 8.44959 18.93 8.34857C18.8037 8.24756 18.6269 8.22231 18.4754 8.27281C16.9855 8.72737 13.8793 9.66174 11.051 9.63649C8.73201 9.63649 6.28996 8.9225 4.6486 8.4426C4.62764 8.43647 4.60681 8.43038 4.58612 8.42433L4.33359 8.34857C4.18207 8.29807 4.00529 8.32332 3.87903 8.42433C3.75276 8.52535 3.677 8.67687 3.677 8.82839V17.8691C3.677 18.1468 3.90428 18.3741 4.18207 18.3741H11.1776C11.1067 18.0466 11.0625 17.7091 11.0475 17.364H4.68713H4.66188V9.51022C6.35385 9.99004 8.72765 10.6214 11.0257 10.6466C13.652 10.6719 16.4299 9.91428 18.1219 9.43446V11.1957C18.47 11.259 18.8076 11.3523 19.132 11.4729Z" fill="#424242"/>
<line x1="13.9419" y1="17.1133" x2="20.1419" y2="17.1133" stroke="#424242" stroke-linecap="round"/>
<line x1="17.0562" y1="20.1992" x2="17.0562" y2="13.9992" stroke="#424242" stroke-linecap="round"/>
<path d="M8.68321 16.3543C8.10238 16.3543 7.57207 16.0513 7.26903 15.5462C6.96599 15.0411 6.96599 14.4351 7.26903 13.93L8.22865 12.2633C8.32966 12.1118 8.48118 12.0107 8.65796 12.0107C8.83473 12.0107 9.0115 12.1118 9.08726 12.2633L10.0469 13.93C10.3499 14.4351 10.3499 15.0411 10.0469 15.5462C9.79435 16.0513 9.26404 16.3543 8.68321 16.3543ZM8.15289 14.4351C8.00137 14.7128 8.10239 14.9401 8.15289 15.0411C8.2034 15.1421 8.35492 15.3442 8.68321 15.3442C9.0115 15.3442 9.16302 15.1421 9.21353 15.0411C9.26403 14.9401 9.36505 14.7128 9.21353 14.4351L8.68321 13.5259L8.15289 14.4351Z" fill="#424242"/>
</svg>
