<svg width="54" height="54" viewBox="0 0 54 54" fill="none" xmlns="http://www.w3.org/2000/svg">
<path d="M38.1479 14.1975C38.1479 14.5386 38.2834 14.8657 38.5246 15.1068C38.7657 15.348 39.0928 15.4835 39.4339 15.4835H42.3143C42.6554 15.4835 42.9825 15.348 43.2236 15.1068C43.4648 14.8657 43.6003 14.5386 43.6003 14.1975C43.6003 13.8565 43.4648 13.5294 43.2236 13.2883C42.9825 13.0471 42.6554 12.9116 42.3143 12.9116H39.4339C39.0928 12.9116 38.7657 13.0471 38.5246 13.2883C38.2834 13.5294 38.1479 13.8565 38.1479 14.1975Z" fill="#4CAF50"/>
<path d="M18.3882 14.1975C18.3882 14.5386 18.5237 14.8657 18.7648 15.1068C19.006 15.348 19.3331 15.4835 19.6741 15.4835H22.5546C22.8956 15.4835 23.2227 15.348 23.4639 15.1068C23.705 14.8657 23.8405 14.5386 23.8405 14.1975C23.8405 13.8565 23.705 13.5294 23.4639 13.2883C23.2227 13.0471 22.8956 12.9116 22.5546 12.9116H19.6741C19.3331 12.9116 19.006 13.0471 18.7648 13.2883C18.5237 13.5294 18.3882 13.8565 18.3882 14.1975Z" fill="#4CAF50"/>
<path d="M32.2796 5.75867V2.87821C32.2796 2.53716 32.1441 2.21008 31.903 1.96892C31.6618 1.72777 31.3347 1.59229 30.9937 1.59229C30.6526 1.59229 30.3256 1.72777 30.0844 1.96892C29.8432 2.21008 29.7078 2.53716 29.7078 2.87821V5.75867C29.7078 6.09972 29.8432 6.4268 30.0844 6.66796C30.3256 6.90912 30.6526 7.0446 30.9937 7.0446C31.3347 7.0446 31.6618 6.90912 31.903 6.66796C32.1441 6.4268 32.2796 6.09972 32.2796 5.75867Z" fill="#4CAF50"/>
<path d="M38.1072 5.28532L36.0497 7.34279C35.8083 7.58425 35.6726 7.91175 35.6726 8.25323C35.6726 8.5947 35.8083 8.9222 36.0497 9.16366C36.2912 9.40512 36.6187 9.54077 36.9602 9.54077C37.3016 9.54077 37.6291 9.40512 37.8706 9.16366L39.9281 7.10618C40.1695 6.86472 40.3052 6.53723 40.3052 6.19575C40.3052 5.85427 40.1695 5.52678 39.9281 5.28532C39.6866 5.04386 39.3591 4.9082 39.0176 4.9082C38.6761 4.9082 38.3487 5.04386 38.1072 5.28532V5.28532Z" fill="#4CAF50"/>
<path d="M25.0281 9.51815C25.2828 9.51861 25.5319 9.44344 25.7438 9.30217C25.9556 9.1609 26.1208 8.9599 26.2183 8.72464C26.3159 8.48939 26.3413 8.23047 26.2915 7.98073C26.2417 7.73098 26.1189 7.50164 25.9386 7.3218L23.8811 5.26432C23.7615 5.14476 23.6196 5.04992 23.4634 4.98522C23.3072 4.92051 23.1397 4.88721 22.9707 4.88721C22.8016 4.88721 22.6341 4.92051 22.4779 4.98522C22.3217 5.04992 22.1798 5.14476 22.0602 5.26432C21.9407 5.38388 21.8458 5.52582 21.7811 5.68203C21.7164 5.83824 21.6831 6.00567 21.6831 6.17475C21.6831 6.34384 21.7164 6.51126 21.7811 6.66748C21.8458 6.82369 21.9407 6.96563 22.0602 7.08519L24.1177 9.14266C24.2372 9.26223 24.3791 9.35697 24.5354 9.42141C24.6916 9.48586 24.8591 9.51874 25.0281 9.51815Z" fill="#4CAF50"/>
<path d="M9.57184 24.3476C8.88975 24.3476 8.23559 24.6185 7.75328 25.1009C7.27096 25.5832 7 26.2373 7 26.9194V49.4282C7 50.1103 7.27096 50.7645 7.75328 51.2468C8.23559 51.7291 8.88975 52.0001 9.57184 52.0001H17.0199C17.6719 52.0017 18.3002 51.7555 18.7777 51.3115C19.2551 50.8675 19.5461 50.2587 19.5918 49.6082L21.1863 50.565C22.7042 51.4762 24.4412 51.958 26.2117 51.9589H37.0803C38.3949 51.973 39.6981 51.7137 40.9072 51.1976C44.3792 49.6545 44.9244 46.9438 44.6672 45.1435C45.5586 44.395 46.1974 43.3898 46.4965 42.2649C46.7957 41.1401 46.7406 39.9504 46.3389 38.8579C47.1996 37.8166 47.6562 36.4999 47.6249 35.1493C47.5686 34.0913 47.2019 33.0733 46.5704 32.2226C46.9648 31.3141 47.0633 30.3046 46.8519 29.3371C46.6405 28.3695 46.1299 27.4931 45.3925 26.832C45.2862 26.7325 45.1748 26.6382 45.0582 26.5491C44.4732 26.1141 43.7983 25.8153 43.083 25.6747H43.0264C39.6161 24.9494 37.322 24.9031 33.9478 24.9031C33.8192 24.1264 33.8243 22.4959 34.8428 19.4251C35.7841 16.5806 35.7018 14.2299 34.5959 12.4348C34.1398 11.7171 33.5316 11.1083 32.8143 10.6514C32.0971 10.1946 31.2882 9.90082 30.4449 9.79094H30.2855C29.695 9.78068 29.1172 9.96281 28.6393 10.3098C28.1614 10.6569 27.8094 11.15 27.6365 11.7147C27.6183 11.7753 27.6045 11.8372 27.5953 11.8999L27.2096 14.6774C27.0934 15.5118 26.8505 16.3236 26.4894 17.0847L22.7397 24.9597C22.4592 25.609 22.0268 26.1816 21.479 26.6291C20.9313 27.0766 20.284 27.3861 19.5918 27.5315V26.9194C19.5918 26.2373 19.3208 25.5832 18.8385 25.1009C18.3562 24.6185 17.702 24.3476 17.0199 24.3476H9.57184ZM9.57184 49.4282V26.9194H17.0199V49.4282H9.57184ZM19.8592 30.1188C20.999 29.9189 22.071 29.4379 22.9781 28.7194C23.8852 28.0009 24.5988 27.0676 25.0543 26.0038L28.7732 18.1494C29.2461 17.1508 29.5635 16.0858 29.7145 14.9912L30.1106 12.3936C30.1291 12.3757 30.1523 12.3632 30.1775 12.3576C30.6261 12.4287 31.055 12.5926 31.4367 12.8388C31.8184 13.0851 32.1446 13.4082 32.3944 13.7876C33.0734 14.8883 33.0734 16.56 32.3944 18.6175C31.3965 21.6214 31.0879 23.9927 31.4685 25.6695C31.5858 26.1864 31.8762 26.6478 32.2915 26.9771C32.7069 27.3064 33.2223 27.4838 33.7523 27.4801V27.4801C37.1523 27.4801 39.2509 27.511 42.4966 28.1951H42.548C42.8909 28.2571 43.2158 28.3941 43.4996 28.5963L43.6642 28.7351C44.981 29.9233 44.1477 31.4459 43.9728 31.7288C43.8084 31.9861 43.7409 32.2935 43.7823 32.596C43.8238 32.8985 43.9715 33.1764 44.1992 33.3799C44.6999 33.8867 45.0074 34.5527 45.0684 35.2625C45.0534 35.7363 44.9432 36.2023 44.7444 36.6326C44.5456 37.063 44.2622 37.4489 43.9111 37.7675C43.7185 37.9711 43.5978 38.232 43.5671 38.5105C43.5365 38.7891 43.5977 39.07 43.7414 39.3106C43.798 39.4083 45.1199 41.7075 42.5017 43.6313C42.2824 43.7963 42.1206 44.0263 42.0394 44.2885C41.9581 44.5508 41.9615 44.8319 42.0491 45.0921C42.188 45.5036 42.7332 47.6125 39.9093 48.8521C39.0141 49.2263 38.0503 49.4085 37.0803 49.3871H26.1911C24.888 49.3851 23.6098 49.0296 22.4928 48.3583L19.5918 46.6198V30.16L19.8592 30.1188Z" fill="#4CAF50"/>
<path d="M13.2986 46.9956C14.165 46.9956 14.8674 46.2932 14.8674 45.4267C14.8674 44.5603 14.165 43.8579 13.2986 43.8579C12.4321 43.8579 11.7297 44.5603 11.7297 45.4267C11.7297 46.2932 12.4321 46.9956 13.2986 46.9956Z" fill="#4CAF50"/>
</svg>
