<svg width="24" height="26" viewBox="0 0 24 26" fill="none" xmlns="http://www.w3.org/2000/svg">
<path d="M14.3139 15.9688V15.9136L14.2611 15.8972L13.5736 15.6836C12.9983 15.5049 12.6034 14.9809 12.6034 14.3877V8.84057C12.6034 8.09323 13.2212 7.48109 13.9967 7.48109H18.3908C19.1645 7.48109 19.7842 8.09466 19.7842 8.84057V14.3877C19.7842 14.9823 19.39 15.5055 18.8147 15.6838L18.1265 15.897L18.0737 15.9133V15.9686V16.6891V22.5901C18.0737 23.3345 17.4539 23.9476 16.6814 23.9476H15.7061C14.933 23.9476 14.3139 23.3346 14.3139 22.5901V16.6887V15.9688ZM5.12258 7.23673V18.816H2.26526H2.1373L2.19982 18.9276L5.62086 25.0366L5.6863 25.1535L5.75173 25.0366L9.17277 18.9276L9.23529 18.816H9.10734H6.25002V7.23673H9.10734H9.23529L9.17277 7.12509L5.75173 1.01609L5.6863 0.899236L5.62086 1.01609L2.19982 7.12509L2.1373 7.23673H2.26526H5.12258ZM17.5849 3.49633C17.5849 4.26465 16.9621 4.88749 16.1938 4.88749C15.4255 4.88749 14.8026 4.26465 14.8026 3.49633C14.8026 2.72802 15.4255 2.10517 16.1938 2.10517C16.9621 2.10517 17.5849 2.72802 17.5849 3.49633ZM13.6752 3.49633C13.6752 4.88732 14.8028 6.01493 16.1938 6.01493C17.5848 6.01493 18.7124 4.88732 18.7124 3.49633C18.7124 2.10535 17.5848 0.977734 16.1938 0.977734C14.8028 0.977734 13.6752 2.10535 13.6752 3.49633ZM19.2011 22.5901V16.7437C20.1964 16.4113 20.9116 15.4825 20.9116 14.3877V8.84057C20.9116 7.46679 19.782 6.35365 18.3908 6.35365H13.9967C12.6029 6.35365 11.4759 7.46615 11.4759 8.84057V14.3877C11.4759 15.4817 12.1924 16.4105 13.1865 16.7433V22.5901C13.1865 23.9625 14.3155 25.075 15.7061 25.075H16.6814C18.0702 25.075 19.2011 23.9635 19.2011 22.5901ZM5.6863 3.2068L7.31186 6.10929H4.06097L5.6863 3.2068ZM4.06097 19.9434H7.31186L5.6863 22.8459L4.06097 19.9434Z" fill="#424242" stroke="#424242" stroke-width="0.15"/>
</svg>
