<svg width="30" height="30" viewBox="0 0 30 30" fill="none" xmlns="http://www.w3.org/2000/svg">
<path d="M7.95612 18.6544C10.299 20.4934 12.7365 21.4662 15.0007 21.4662C15.7966 21.4625 16.5879 21.3529 17.3503 21.1405C17.5887 21.0754 17.7252 20.8431 17.6551 20.6218C17.5848 20.4005 17.3347 20.2738 17.0963 20.3389C16.4163 20.5289 15.7107 20.6274 15.0007 20.6311C10.6499 20.6311 6.91944 16.6651 6.01804 15.6214C6.88302 14.6324 7.85906 13.7319 8.92982 12.935C9.12415 12.7885 9.15379 12.5235 8.99616 12.3431C8.83838 12.1627 8.55309 12.1352 8.3586 12.2815C7.13792 13.1866 6.03937 14.2253 5.08718 15.375C4.97159 15.5218 4.97159 15.721 5.08718 15.8678C5.93257 16.8898 6.89448 17.8241 7.95612 18.6544L7.95612 18.6544Z" fill="#9D9D9D" stroke="#9D9D9D" stroke-width="0.5"/>
<path d="M24.914 15.3787C24.0687 14.3567 23.1068 13.4224 22.0451 12.5921C19.6999 10.7531 17.2647 9.78033 15.0005 9.78033C13.444 9.81149 11.9207 10.2033 10.5686 10.9201L8.36279 8.87231C8.18713 8.70923 7.90214 8.70923 7.72647 8.87231C7.55081 9.03539 7.55081 9.29996 7.72647 9.46304L21.6377 22.3777C21.8134 22.5408 22.0984 22.5408 22.2741 22.3777C22.4497 22.2146 22.4497 21.95 22.2741 21.787L20.237 19.8959C22.0286 18.8082 23.6097 17.4473 24.9138 15.8715C25.0294 15.7247 25.0296 15.5255 24.914 15.3787ZM17.3298 17.1969L13.3051 13.4604C14.051 12.9546 15.0129 12.8116 15.8915 13.0761C16.7703 13.3403 17.4592 13.9798 17.7439 14.7955C18.0285 15.6114 17.8745 16.5044 17.3298 17.1969ZM19.5783 19.2843L17.9729 17.7959C18.7403 16.8879 18.9779 15.6875 18.6086 14.5854C18.2391 13.4834 17.3098 12.6202 16.1228 12.2767C14.9359 11.9334 13.6428 12.1534 12.6643 12.8655L11.2342 11.5379C12.3931 10.9575 13.6841 10.6414 15.0005 10.6154C19.3513 10.6154 23.0817 14.5814 23.9807 15.6251C22.7374 17.0587 21.2523 18.2959 19.5825 19.2885L19.5783 19.2843Z" fill="#9D9D9D" stroke="#9D9D9D" stroke-width="0.5"/>
<path d="M15.4505 18.716C15.4505 18.6054 15.4032 18.4991 15.3188 18.4209C15.2345 18.3425 15.1201 18.2986 15.0009 18.2986C14.2367 18.2974 13.5043 18.0151 12.964 17.5135C12.4237 17.0119 12.1195 16.3319 12.1183 15.6225C12.1183 15.3919 11.9171 15.2051 11.6686 15.2051C11.4204 15.2051 11.219 15.3919 11.219 15.6225C11.2201 16.5534 11.6189 17.4458 12.328 18.1039C13.0369 18.7622 13.9982 19.1325 15.0009 19.1335C15.1201 19.1335 15.2346 19.0895 15.3188 19.0112C15.4032 18.933 15.4506 18.8267 15.4506 18.716L15.4505 18.716Z" fill="#9D9D9D" stroke="#9D9D9D" stroke-width="0.5"/>
</svg>
