<svg width="26" height="24" viewBox="0 0 26 24" fill="none" xmlns="http://www.w3.org/2000/svg">
<path d="M5.66857 19.7328H5.60206C4.63912 19.7328 3.80449 20.6343 3.80449 21.6592V22.9727C3.80449 23.3097 4.0566 23.5857 4.37876 23.5857H21.6215C21.9436 23.5857 22.1957 23.3097 22.1957 22.9727V21.6592C22.1957 20.6343 21.3611 19.7328 20.3982 19.7328H20.3317V14.1535C20.3317 9.81345 17.0504 6.28496 13.0001 6.28496C8.9498 6.28496 5.66857 9.81345 5.66857 14.1535V19.7328ZM19.2996 14.1535V19.7328H6.75886V14.1535C6.75886 10.487 9.53617 7.44828 13.0001 7.44828C16.4646 7.44828 19.2996 10.4876 19.2996 14.1535ZM4.89478 21.6592C4.89478 21.2456 5.2252 20.8961 5.60206 20.8961H20.3982C20.775 20.8961 21.1054 21.2456 21.1054 21.6592V22.4224H4.89478V21.6592Z" fill="white" stroke="white" stroke-width="0.1"/>
<path d="M13.5743 9.52485C13.5743 9.1879 13.3221 8.91191 13 8.91191C10.3477 8.91191 8.11504 11.3145 8.11504 14.1534C8.11504 14.4903 8.36714 14.7663 8.68931 14.7663C8.82374 14.7663 8.95317 14.6946 9.04761 14.5847C9.14249 14.4744 9.20533 14.3222 9.20533 14.1534C9.20533 11.9259 10.9338 10.0752 13 10.0752C13.3184 10.0752 13.5743 9.80307 13.5743 9.52485Z" fill="white" stroke="white" stroke-width="0.1"/>
<path d="M13 0.655566C12.674 0.655566 12.4839 0.935854 12.4839 1.20595V3.89551C12.4839 4.16561 12.674 4.4459 13 4.4459C13.3184 4.4459 13.5742 4.17374 13.5742 3.89551V1.20595C13.5742 0.927726 13.3184 0.655566 13 0.655566Z" fill="white" stroke="white" stroke-width="0.1"/>
<path d="M17.2286 5.69103L17.2286 5.6912L17.2326 5.69292C17.3861 5.75887 17.5431 5.77686 17.6796 5.74237C17.8168 5.70769 17.9311 5.62034 17.9961 5.48161L19.2174 3.17111C19.4084 2.89439 19.2791 2.55313 19.0276 2.41521C18.8984 2.31301 18.751 2.2953 18.6199 2.33928C18.4897 2.38296 18.3782 2.4864 18.3147 2.62169L17.0341 4.87168L17.0339 4.87159L17.0322 4.8753C16.969 5.01111 16.9538 5.17856 16.9849 5.32874C17.0159 5.47854 17.0949 5.61923 17.2286 5.69103Z" fill="white" stroke="white" stroke-width="0.1"/>
<path d="M22.7045 6.91596L22.7045 6.91589L22.7022 6.91731L20.548 8.23013C20.415 8.30214 20.3364 8.44242 20.3054 8.59175C20.2744 8.74193 20.2895 8.90938 20.3528 9.04519L20.3521 9.04551L20.3571 9.05272C20.5457 9.32272 20.8644 9.39343 21.1208 9.25578L21.1208 9.25588L21.1237 9.2541L23.2207 7.9406L23.2209 7.9409L23.2256 7.93717C23.4703 7.74009 23.6018 7.40402 23.4725 7.12654L23.4732 7.12622L23.4682 7.11902C23.2796 6.84902 22.9609 6.77831 22.7045 6.91596Z" fill="white" stroke="white" stroke-width="0.1"/>
<path d="M25.0501 13.5907C25.0501 13.2496 24.794 13.0403 24.5341 13.0403H22.0293C21.7694 13.0403 21.5132 13.2496 21.5132 13.5907C21.5132 13.7595 21.5761 13.9117 21.6709 14.0221C21.7654 14.1319 21.8948 14.2036 22.0293 14.2036H24.5341C24.6685 14.2036 24.798 14.1319 24.8924 14.0221C24.9873 13.9117 25.0501 13.7595 25.0501 13.5907Z" fill="white" stroke="white" stroke-width="0.1"/>
<path d="M6.77977 3.16618L6.77971 3.1662L6.78089 3.16844L8.00362 5.48162C8.0699 5.62287 8.20065 5.70865 8.34262 5.74253C8.48463 5.77641 8.64293 5.75983 8.77107 5.69103C8.90482 5.61923 8.98383 5.47854 9.01483 5.32874C9.04591 5.17856 9.03075 5.01111 8.96751 4.8753L8.96759 4.87526L8.96612 4.87254L7.74282 2.62082L7.74309 2.62067L7.73987 2.61606C7.64773 2.48414 7.52288 2.38214 7.38627 2.339C7.24901 2.29565 7.10174 2.31269 6.97211 2.41521C6.71216 2.55802 6.65647 2.90138 6.77977 3.16618Z" fill="white" stroke="white" stroke-width="0.1"/>
<path d="M2.77466 7.93717L2.77444 7.93744L2.77948 7.9406L4.87656 9.2541L4.8765 9.2542L4.87945 9.25578C5.00759 9.32458 5.16589 9.34116 5.30791 9.30727C5.45027 9.2733 5.58135 9.18714 5.64746 9.04519C5.7107 8.90938 5.72586 8.74193 5.69478 8.59175C5.66388 8.44242 5.58526 8.30214 5.45227 8.23013L3.29806 6.91731L3.2981 6.91725L3.29569 6.91596C3.04373 6.78069 2.71997 6.84466 2.58779 7.1226C2.39551 7.40241 2.53172 7.74153 2.77466 7.93717Z" fill="white" stroke="white" stroke-width="0.1"/>
<path d="M0.95 13.5907C0.95 13.7595 1.01283 13.9117 1.10772 14.0221C1.20216 14.1319 1.33158 14.2036 1.46602 14.2036H3.97087C4.1053 14.2036 4.23473 14.1319 4.32917 14.0221C4.42405 13.9117 4.48689 13.7595 4.48689 13.5907C4.48689 13.2496 4.23074 13.0403 3.97087 13.0403H1.46602C1.20615 13.0403 0.95 13.2496 0.95 13.5907Z" fill="white" stroke="white" stroke-width="0.1"/>
</svg>
