<svg width="24" height="24" viewBox="0 0 24 24" fill="none" xmlns="http://www.w3.org/2000/svg">
<path d="M4.60206 19.7828H4.71857V14.1535C4.71857 9.83765 7.9807 6.33496 12.0001 6.33496C16.0195 6.33496 19.2817 9.83765 19.2817 14.1535V19.7828H19.3982C20.3302 19.7828 21.1457 20.6585 21.1457 21.6592V22.9727C21.1457 23.2855 20.9127 23.5357 20.6215 23.5357H3.37876C3.0875 23.5357 2.85449 23.2855 2.85449 22.9727V21.6592C2.85449 20.6585 3.67003 19.7828 4.60206 19.7828ZM5.70886 19.7828H18.3496V14.1535C18.3496 10.4631 15.4953 7.39828 12.0001 7.39828C8.50497 7.39828 5.70886 10.4631 5.70886 14.1535V19.7828ZM19.3982 20.8461H4.60206C4.1943 20.8461 3.84478 21.2214 3.84478 21.6592V22.4724H20.1554V21.6592C20.1554 21.2214 19.8059 20.8461 19.3982 20.8461Z" fill="#F44336"/>
<path d="M12 8.96191C12.2912 8.96191 12.5243 9.21211 12.5243 9.52485C12.5243 9.77504 12.2912 10.0252 12 10.0252C9.9029 10.0252 8.15533 11.9017 8.15533 14.1534C8.15533 14.4661 7.92232 14.7163 7.68931 14.7163C7.39805 14.7163 7.16504 14.4661 7.16504 14.1534C7.16504 11.3387 9.37863 8.96191 12 8.96191Z" fill="#F44336"/>
<path d="M11.5339 1.20595C11.5339 0.955758 11.7087 0.705566 12 0.705566C12.2912 0.705566 12.5242 0.955758 12.5242 1.20595V3.89551C12.5242 4.14571 12.2912 4.3959 12 4.3959C11.7087 4.3959 11.5339 4.14571 11.5339 3.89551V1.20595Z" fill="#F44336"/>
<path d="M17.3591 2.64469C17.4756 2.3945 17.7669 2.2694 17.9999 2.45705C18.2329 2.58214 18.3494 2.89488 18.1746 3.14507L16.9513 5.45934C16.8348 5.70953 16.5436 5.77208 16.2523 5.64698C16.0193 5.52188 15.961 5.1466 16.0775 4.89641L17.3591 2.64469Z" fill="#F44336"/>
<path d="M21.7282 6.96001C21.9612 6.83491 22.2525 6.89746 22.4272 7.14765C22.5437 7.39784 22.4272 7.71058 22.1942 7.89822L20.0971 9.21173C19.8641 9.33682 19.5729 9.27427 19.3981 9.02408C19.2816 8.77389 19.3398 8.39861 19.5729 8.27351L21.7282 6.96001Z" fill="#F44336"/>
<path d="M23.5341 13.0903C23.7671 13.0903 24.0001 13.278 24.0001 13.5907C24.0001 13.9035 23.7671 14.1536 23.5341 14.1536H21.0293C20.7962 14.1536 20.5632 13.9035 20.5632 13.5907C20.5632 13.278 20.7962 13.0903 21.0293 13.0903H23.5341Z" fill="#F44336"/>
<path d="M5.8251 3.14507C5.70859 2.89488 5.76685 2.58214 5.99985 2.45705C6.23286 2.2694 6.52413 2.3945 6.69888 2.64469L7.92218 4.89641C8.03869 5.1466 7.98043 5.52188 7.74742 5.64698C7.51441 5.77208 7.1649 5.70953 7.0484 5.45934L5.8251 3.14507Z" fill="#F44336"/>
<path d="M1.80602 7.89822C1.57301 7.71058 1.4565 7.39784 1.63126 7.14765C1.74777 6.89746 2.03903 6.83491 2.27204 6.96001L4.42737 8.27351C4.66038 8.39861 4.71864 8.77389 4.60213 9.02408C4.48563 9.27427 4.13611 9.33682 3.9031 9.21173L1.80602 7.89822Z" fill="#F44336"/>
<path d="M0.466019 14.1536C0.233009 14.1536 0 13.9035 0 13.5907C0 13.278 0.233009 13.0903 0.466019 13.0903H2.97087C3.20388 13.0903 3.43689 13.278 3.43689 13.5907C3.43689 13.9035 3.20388 14.1536 2.97087 14.1536H0.466019Z" fill="#F44336"/>
</svg>
