<svg width="54" height="54" viewBox="0 0 54 54" fill="none" xmlns="http://www.w3.org/2000/svg">
<path d="M12.3884 43.8753C12.3161 43.6437 12.2773 43.3963 12.2773 43.1416C12.2773 42.2665 12.7416 41.4647 13.4868 41.0172V30.6979C13.4868 23.2094 19.6264 17.0708 27.1138 17.0708C34.6034 17.0708 40.7409 23.2083 40.7409 30.6979V41.0172C41.4871 41.4637 41.9504 42.2696 41.9504 43.1437C41.9504 43.3974 41.9106 43.6437 41.8382 43.8742C42.9628 43.9811 43.8474 44.9338 43.8474 46.0825V50.0002H10.3813V46.0825C10.3813 44.9338 11.2659 43.9822 12.3884 43.8753V43.8753ZM39.9779 43.8648C40.2053 43.7065 40.3531 43.4435 40.3531 43.1437C40.3531 42.6595 39.9611 42.2644 39.4759 42.2644H14.7518C14.2687 42.2644 13.8746 42.6585 13.8746 43.1416C13.8746 43.4403 14.0245 43.7055 14.2529 43.8648H39.9779V43.8648ZM15.0841 40.6671H39.1436V30.6979C39.1436 24.0814 33.7303 18.6681 27.1138 18.6681C20.4942 18.6681 15.0841 24.0782 15.0841 30.6979V40.6671V40.6671Z" fill="#F44336"/>
<path d="M19.0944 28.9023C19.0137 29.3341 18.5965 29.6192 18.1647 29.5385C17.7329 29.4578 17.4479 29.0407 17.5286 28.6088C18.388 24.0204 22.443 20.6445 27.1132 20.6445C27.5534 20.6445 27.9118 21.003 27.9118 21.4432C27.9118 21.8834 27.5534 22.2418 27.1132 22.2418C23.2018 22.2418 19.8134 25.058 19.0944 28.9023V28.9023Z" fill="#F44336"/>
<path d="M26.2258 4.88772C26.2258 4.39827 26.6241 4 27.1135 4C27.603 4 28.0013 4.39827 28.0013 4.88772V11.9549C28.0013 12.4443 27.603 12.8426 27.1135 12.8426C26.6241 12.8426 26.2258 12.4443 26.2258 11.9549V4.88772V4.88772Z" fill="#F44336"/>
<path d="M44.0318 11.5275C44.3776 11.1816 44.9415 11.1816 45.2874 11.5275C45.6332 11.8733 45.6332 12.4372 45.2874 12.7831L40.2901 17.7803C39.9443 18.1261 39.3804 18.1261 39.0345 17.7803C38.6887 17.4344 38.6887 16.8705 39.0345 16.5247L44.0318 11.5275Z" fill="#F44336"/>
<path d="M51.9268 28.814C52.4163 28.814 52.8145 29.2122 52.8145 29.7017C52.8145 30.1911 52.4163 30.5894 51.9268 30.5894H44.8596C44.3702 30.5894 43.9719 30.1911 43.9719 29.7017C43.9719 29.2122 44.3702 28.814 44.8596 28.814H51.9268Z" fill="#F44336"/>
<path d="M8.94006 12.7831C8.5942 12.4372 8.5942 11.8733 8.94006 11.5275C9.28593 11.1816 9.84979 11.1816 10.1957 11.5275L15.1929 16.5247C15.5387 16.8705 15.5387 17.4344 15.1929 17.7803C14.847 18.1261 14.2831 18.1261 13.9373 17.7803L8.94006 12.7831V12.7831Z" fill="#F44336"/>
<path d="M2.30056 30.5894C1.81111 30.5894 1.41284 30.1911 1.41284 29.7017C1.41284 29.2122 1.81111 28.814 2.30056 28.814H9.36772C9.85717 28.814 10.2554 29.2122 10.2554 29.7017C10.2554 30.1911 9.85717 30.5894 9.36772 30.5894H2.30056V30.5894Z" fill="#F44336"/>
</svg>
