<svg width="12" height="18" viewBox="0 0 12 18" fill="none" xmlns="http://www.w3.org/2000/svg">
<path d="M3.925 4.23677H4.875V5.20715C4.875 5.49416 5.075 5.74017 5.3125 5.74017H5.9375C6.175 5.74017 6.375 5.50783 6.375 5.20715V4.23677H7.2875C7.5875 4.23677 7.825 4.01809 7.825 3.75842V3.21172C7.825 2.95205 7.5875 2.73337 7.2875 2.73337H6.375V1.77666C6.375 1.44864 6.175 1.18896 5.9375 1.18896H5.3125C5.075 1.18896 4.875 1.44864 4.875 1.77666V2.73337H3.925C3.6625 2.73337 3.4375 2.95205 3.4375 3.21172V3.75842C3.4375 4.01809 3.65 4.23677 3.925 4.23677ZM3.6875 3.21172C3.6875 3.10239 3.8 3.00671 3.925 3.00671H5.125V1.77666C5.125 1.58532 5.225 1.46231 5.3125 1.46231H5.9375C6.025 1.46231 6.125 1.58532 6.125 1.77666V3.00671H7.2875C7.4625 3.00671 7.575 3.11605 7.575 3.21172V3.75842C7.575 3.85409 7.4625 3.96343 7.2875 3.96343H6.125V5.20715C6.125 5.34382 6.0375 5.46683 5.9375 5.46683H5.3125C5.2125 5.46683 5.125 5.35749 5.125 5.20715V3.96343H3.925C3.8 3.96343 3.6875 3.86775 3.6875 3.75842V3.21172Z" fill="#01CD74"/>
<path d="M10.25 0H1C0.45 0 0 0.492022 0 1.09338V16.4007C0 17.0021 0.45 17.4941 1 17.4941H10.25C10.8 17.4941 11.25 17.0021 11.25 16.4007V1.09338C11.25 0.492022 10.8 0 10.25 0ZM10.75 16.4007C10.75 16.7014 10.525 16.9474 10.25 16.9474H1C0.725 16.9474 0.5 16.7014 0.5 16.4007V1.09338C0.5 0.792702 0.725 0.546691 1 0.546691H10.25C10.525 0.546691 10.75 0.792702 10.75 1.09338V16.4007Z" fill="#01CD74"/>
<path d="M8 11.4805C6.7625 11.4805 5.75 12.5875 5.75 13.9406C5.75 15.2936 6.7625 16.4007 8 16.4007C9.2375 16.4007 10.25 15.2936 10.25 13.9406C10.25 12.5875 9.2375 11.4805 8 11.4805ZM8 16.1273C6.9 16.1273 6 15.1433 6 13.9406C6 12.7379 6.9 11.7538 8 11.7538C9.1 11.7538 10 12.7379 10 13.9406C10 15.1433 9.1 16.1273 8 16.1273Z" fill="#01CD74"/>
<path d="M8.21271 12.6422C8.18771 12.6422 8.15021 12.6285 8.12521 12.6285V12.4372C8.12521 12.3552 8.07521 12.3005 8.00021 12.3005C7.92521 12.3005 7.87521 12.3552 7.87521 12.4372V12.6285C7.66271 12.6559 7.43771 12.7516 7.31271 12.9566C7.17521 13.1752 7.17521 13.4622 7.31271 13.6809C7.43771 13.8996 7.66271 13.9953 7.87521 14.0636V14.952C7.82521 14.9383 7.77521 14.9246 7.72521 14.8973C7.55021 14.8153 7.42521 14.6786 7.37521 14.5146C7.35021 14.4463 7.27521 14.4053 7.21271 14.4326C7.15021 14.4599 7.11271 14.542 7.13771 14.6103C7.21271 14.8426 7.38771 15.034 7.62521 15.157C7.71271 15.198 7.80021 15.2253 7.88771 15.239V15.444C7.88771 15.526 7.93771 15.5807 8.01271 15.5807C8.08771 15.5807 8.13771 15.526 8.13771 15.444V15.2526C8.23771 15.239 8.32522 15.2253 8.41272 15.1843C8.68772 15.0613 8.90022 14.7606 8.80022 14.4053C8.70022 14.0636 8.41271 13.9543 8.13771 13.8723V12.9019C8.15021 12.9019 8.16271 12.9019 8.18771 12.9019C8.40021 12.9429 8.58771 13.1206 8.65021 13.3256C8.67521 13.3939 8.73772 13.4349 8.80022 13.4212C8.86272 13.3939 8.90021 13.3256 8.88771 13.2572C8.78771 12.9566 8.51271 12.6969 8.21271 12.6422ZM7.52521 13.5442C7.45021 13.4076 7.45021 13.2436 7.52521 13.1069C7.60021 12.9839 7.73771 12.9156 7.88771 12.9019V13.7903C7.72521 13.7356 7.60021 13.6673 7.52521 13.5442ZM8.55022 14.4873C8.61272 14.6923 8.46271 14.8563 8.31271 14.9246C8.25021 14.952 8.20021 14.9656 8.13771 14.9793V14.1593C8.32521 14.2276 8.48772 14.2959 8.55022 14.4873Z" fill="#01CD74"/>
<path d="M2.25 6.56021H9C9.075 6.56021 9.125 6.50554 9.125 6.42354C9.125 6.34153 9.075 6.28687 9 6.28687H2.25C2.175 6.28687 2.125 6.34153 2.125 6.42354C2.125 6.50554 2.175 6.56021 2.25 6.56021Z" fill="#01CD74"/>
<path d="M2.25 7.38028H9C9.075 7.38028 9.125 7.32561 9.125 7.24361C9.125 7.1616 9.075 7.10693 9 7.10693H2.25C2.175 7.10693 2.125 7.1616 2.125 7.24361C2.125 7.32561 2.175 7.38028 2.25 7.38028Z" fill="#01CD74"/>
<path d="M2.25 8.20035H9C9.075 8.20035 9.125 8.14568 9.125 8.06367C9.125 7.98167 9.075 7.927 9 7.927H2.25C2.175 7.927 2.125 7.98167 2.125 8.06367C2.125 8.14568 2.175 8.20035 2.25 8.20035Z" fill="#01CD74"/>
<path d="M2.25 9.02039H9C9.075 9.02039 9.125 8.96572 9.125 8.88373C9.125 8.80173 9.075 8.74707 9 8.74707H2.25C2.175 8.74707 2.125 8.80173 2.125 8.88373C2.125 8.96572 2.175 9.02039 2.25 9.02039Z" fill="#01CD74"/>
<path d="M2.25 9.84048H9C9.075 9.84048 9.125 9.78582 9.125 9.70381C9.125 9.62181 9.075 9.56714 9 9.56714H2.25C2.175 9.56714 2.125 9.62181 2.125 9.70381C2.125 9.78582 2.175 9.84048 2.25 9.84048Z" fill="#01CD74"/>
<path d="M2.25 10.6605H9C9.075 10.6605 9.125 10.6059 9.125 10.5239C9.125 10.4419 9.075 10.3872 9 10.3872H2.25C2.175 10.3872 2.125 10.4419 2.125 10.5239C2.125 10.6059 2.175 10.6605 2.25 10.6605Z" fill="#01CD74"/>
<path d="M2.25 11.4806H6.425C6.5625 11.3713 6.7125 11.2893 6.8625 11.2073H2.25C2.175 11.2073 2.125 11.2619 2.125 11.3439C2.125 11.4259 2.175 11.4806 2.25 11.4806Z" fill="#01CD74"/>
<path d="M2.25 12.3005H5.7C5.7625 12.2048 5.8125 12.1091 5.8875 12.0271H2.25C2.175 12.0271 2.125 12.0818 2.125 12.1638C2.125 12.2458 2.175 12.3005 2.25 12.3005Z" fill="#01CD74"/>
<path d="M2.25 13.9406H5.25C5.25 13.8449 5.25 13.7629 5.2625 13.6672H2.25C2.175 13.6672 2.125 13.7219 2.125 13.8039C2.125 13.8859 2.175 13.9406 2.25 13.9406Z" fill="#01CD74"/>
<path d="M2.25 14.7606H5.35C5.325 14.665 5.3125 14.583 5.2875 14.4873H2.25C2.175 14.4873 2.125 14.542 2.125 14.624C2.125 14.706 2.175 14.7606 2.25 14.7606Z" fill="#01CD74"/>
<path d="M2.25 15.5807H5.7C5.65 15.4987 5.6 15.403 5.55 15.3074H2.25C2.175 15.3074 2.125 15.362 2.125 15.444C2.125 15.526 2.175 15.5807 2.25 15.5807Z" fill="#01CD74"/>
<path d="M2.25 13.1205H5.35C5.375 13.0249 5.4 12.9428 5.4375 12.8472H2.25C2.175 12.8472 2.125 12.9018 2.125 12.9839C2.125 13.0659 2.175 13.1205 2.25 13.1205Z" fill="#01CD74"/>
</svg>
