<svg width="24" height="24" viewBox="0 0 24 24" fill="none" xmlns="http://www.w3.org/2000/svg">
<path d="M20.0001 11.3333H18.6667C18.6667 12.5333 18.3334 13.6666 17.7334 14.6666L18.7334 15.6666C19.5334 14.3333 19.9334 12.8666 20.0001 11.3333Z" fill="white"/>
<path d="M12.0001 2.66667C13.8668 2.66667 15.3334 4.13334 15.3334 6.00001V11.3333C15.3334 11.6 15.2668 11.8667 15.2001 12.1333L16.2668 13.2C16.5334 12.6 16.6668 12 16.6668 11.3333V6.00001C16.6668 3.40001 14.5334 1.33334 11.9334 1.40001C10.0001 1.40001 8.2001 2.66667 7.6001 4.53334L8.66676 5.53334C9.0001 3.93334 10.4001 2.80001 12.0001 2.66667Z" fill="white"/>
<path d="M16.8001 17.7334L21.4001 22.3334L22.3334 21.4001L2.66673 1.7334L1.7334 2.66673L7.3334 8.26673V11.3334C7.3334 13.9334 9.40006 16.0001 12.0001 16.0001C12.8667 16.0001 13.6667 15.8001 14.4001 15.3334L15.8667 16.8001C14.7334 17.6001 13.4001 18.0001 12.0001 18.0001C8.40006 18.1334 5.46673 15.2667 5.3334 11.7334V11.3334H4.00007C4.06673 15.4667 7.20006 18.9334 11.3334 19.3334V21.3334H9.3334C8.9334 21.3334 8.66673 21.6001 8.66673 22.0001C8.66673 22.4001 8.9334 22.6667 9.3334 22.6667H14.6667C15.0667 22.6667 15.3334 22.4001 15.3334 22.0001C15.3334 21.6001 15.0667 21.3334 14.6667 21.3334H12.6667V19.3334C14.1334 19.2001 15.6001 18.6667 16.8001 17.7334ZM9.20007 13.1334C8.86673 12.6001 8.66673 12.0001 8.66673 11.3334V9.60006L13.4001 14.3334C11.9334 15.0001 10.1334 14.5334 9.20007 13.1334Z" fill="white"/>
</svg>
