<svg width="92" height="92" viewBox="0 0 92 92" fill="none" xmlns="http://www.w3.org/2000/svg">
<path d="M25.5366 51.5954C24.6403 51.5954 24 50.9552 24 50.0588V7.80128C24 6.90491 24.6403 6.26465 25.5366 6.26465C26.433 6.26465 27.0733 7.03297 27.0733 7.80128V49.9307C27.0733 50.8271 26.433 51.5954 25.5366 51.5954Z" fill="#3F51B5"/>
<path d="M43.5913 37.4665C42.695 37.4665 42.0547 36.6981 42.0547 35.9298V10.9595C42.0547 10.0631 42.695 9.42285 43.5913 9.42285C44.4877 9.42285 45.128 10.1912 45.128 10.9595V35.8018C45.256 36.6981 44.4877 37.4665 43.5913 37.4665Z" fill="#3F51B5"/>
<path d="M65.4898 51.1537C64.5934 51.1537 63.9531 50.5134 63.9531 49.617V5.69484C63.9531 4.79847 64.5934 4.1582 65.4898 4.1582C66.3861 4.1582 67.0264 4.92652 67.0264 5.69484V49.617C67.0264 50.3853 66.2581 51.1537 65.4898 51.1537Z" fill="#3F51B5"/>
<path d="M44.4876 59.1357C43.5913 59.1357 42.951 59.776 42.951 60.6724V71.6849H38.085C37.1886 71.6849 36.5483 72.3252 36.5483 73.2216C36.5483 74.1179 37.1886 74.7582 38.085 74.7582H44.6157C45.5121 74.7582 46.1523 74.1179 46.1523 73.2216V60.5443C46.0243 59.9041 45.2559 59.1357 44.4876 59.1357Z" fill="#3F51B5"/>
<path d="M31.4273 18.9282C30.5309 18.9282 29.8906 18.1599 29.8906 17.3915V11.8853C29.8906 10.9889 30.5309 10.3486 31.4273 10.3486C32.3236 10.3486 32.9639 11.117 32.9639 11.8853V17.3915C32.9639 18.1599 32.3236 18.9282 31.4273 18.9282Z" fill="#3F51B5"/>
<path d="M58.9575 45.8613C58.0612 45.8613 57.4209 45.221 57.4209 44.3247V37.2818C57.4209 36.3854 58.0612 35.7451 58.9575 35.7451C59.8539 35.7451 60.4942 36.5134 60.4942 37.2818V44.3247C60.6222 45.221 59.8539 45.8613 58.9575 45.8613Z" fill="#3F51B5"/>
<path d="M49.8667 29.0436C48.9703 29.0436 48.3301 28.2753 48.3301 27.507V2.53664C48.3301 1.64027 48.9703 1 49.8667 1C50.7631 1 51.4033 1.76832 51.4033 2.53664V27.3789C51.5314 28.2753 50.7631 29.0436 49.8667 29.0436Z" fill="#3F51B5"/>
<circle cx="45.0191" cy="69.355" r="19.4908" stroke="#3F51B5" stroke-width="3"/>
</svg>
