<svg width="25" height="36" viewBox="0 0 25 36" fill="none" xmlns="http://www.w3.org/2000/svg">
<path fill-rule="evenodd" clip-rule="evenodd" d="M12.0518 33.8787C11.4587 33.1528 10.8091 32.3846 10.1241 31.5741L9.7852 31.1724C7.03835 31.5671 5.80261 32.4269 5.80261 32.9343C5.80261 33.2514 6.33926 33.7589 7.54676 34.1747C10.2724 35.1261 14.7 35.112 17.4258 34.1747C18.6332 33.7589 19.1699 33.2515 19.1699 32.9343C19.1699 32.4269 17.9342 31.5671 15.2086 31.1724L14.8767 31.5671C14.1847 32.3846 13.5351 33.1527 12.9419 33.8787C12.7018 34.1535 12.2778 34.1676 12.0518 33.8787ZM8.93784 30.1717C4.79288 25.2174 -0.283939 18.7058 0.0123926 11.9402C0.683238 -3.98007 24.3174 -3.98007 24.9882 11.9402C25.2777 18.7058 20.2006 25.2174 16.0485 30.1717C18.7318 30.6721 20.2994 31.6729 20.2994 32.9343C20.3135 37.0219 4.68681 37.0219 4.68681 32.9343C4.67975 31.6729 6.25453 30.665 8.93784 30.1717ZM1.13509 11.9821C0.845581 18.8675 6.70645 25.7883 10.9857 30.8412C11.5153 31.4614 12.0167 32.0604 12.4898 32.6312C12.9629 32.0604 13.4713 31.4614 14.0008 30.8341C18.28 25.7811 24.1336 18.8604 23.8514 11.9821C23.2371 -2.52838 1.74261 -2.46523 1.13509 11.9821Z" fill="white"/>
<path d="M8.01388 6C5.82577 6 3 7.90276 3 11.677C3 13.7832 4.36143 15.7532 6.15851 17.4909C7.95544 19.2286 10.2265 20.7519 12.2279 21.926C12.3953 22.0247 12.6047 22.0247 12.7721 21.926C14.7735 20.7519 17.0446 19.2286 18.8415 17.4909C20.6386 15.7532 22 13.7831 22 11.677C22 7.90263 19.1741 6 16.9861 6C14.8221 6 13.4062 7.06361 12.5001 8.2338C11.5939 7.06361 10.178 6 8.01402 6H8.01388ZM8.01388 7.03227C10.1499 7.03227 11.3119 8.16592 12.0464 9.3627C12.1415 9.51912 12.3138 9.61488 12.4999 9.61488C12.686 9.61488 12.8583 9.51912 12.9535 9.3627C13.6879 8.16588 14.85 7.03227 16.986 7.03227C18.5458 7.03227 20.9443 8.40135 20.9443 11.6771C20.9443 12.0996 20.8688 12.5333 20.7299 12.9673H14.611C14.4057 12.9673 14.2192 13.0838 14.1326 13.2656L13.3823 14.8865L11.9472 10.4835C11.8694 10.2434 11.6253 10.0933 11.37 10.1288C11.1765 10.1567 11.0147 10.287 10.9496 10.4675L10.0176 12.9673H7.48602C7.34465 12.9653 7.20844 13.0188 7.10793 13.1158C7.00725 13.2128 6.95074 13.3451 6.95074 13.4834C6.95074 13.6214 7.00725 13.7539 7.10793 13.8509C7.20844 13.948 7.34465 14.0014 7.48602 13.9994H10.3887C10.6122 13.9978 10.8102 13.859 10.8835 13.6528L11.4112 12.2416L12.7885 16.4751C12.8557 16.6771 13.0425 16.8182 13.2595 16.8308C13.4764 16.8432 13.6788 16.7244 13.7698 16.5315L14.9491 13.9995H20.2844C19.7829 14.9322 19.0235 15.8633 18.099 16.7574C16.4761 18.3268 14.3892 19.736 12.4999 20.8619C10.6104 19.736 8.52353 18.3268 6.90076 16.7574C5.20122 15.1138 4.05571 13.3353 4.05571 11.6771C4.05571 8.40134 6.45417 7.03232 8.01404 7.03232L8.01388 7.03227Z" fill="white"/>
</svg>
