<svg width="18" height="18" viewBox="0 0 18 18" fill="none" xmlns="http://www.w3.org/2000/svg">
<path d="M14.25 7.83325C14.25 11.9166 9 15.4166 9 15.4166C9 15.4166 3.75 11.9166 3.75 7.83325C3.75 6.44086 4.30312 5.10551 5.28769 4.12094C6.27226 3.13638 7.60761 2.58325 9 2.58325C10.3924 2.58325 11.7277 3.13638 12.7123 4.12094C13.6969 5.10551 14.25 6.44086 14.25 7.83325Z" stroke="#424242" stroke-linecap="round" stroke-linejoin="round"/>
<path d="M9 9.58325C9.9665 9.58325 10.75 8.79975 10.75 7.83325C10.75 6.86675 9.9665 6.08325 9 6.08325C8.0335 6.08325 7.25 6.86675 7.25 7.83325C7.25 8.79975 8.0335 9.58325 9 9.58325Z" stroke="#424242" stroke-linecap="round" stroke-linejoin="round"/>
</svg>
