<svg width="24" height="24" viewBox="0 0 24 24" fill="none" xmlns="http://www.w3.org/2000/svg">
<path fill-rule="evenodd" clip-rule="evenodd" d="M11.0018 4.00293C11.0018 3.45293 11.4518 3.00293 12.0018 3.00293C12.5518 3.00293 13.0018 3.45293 13.0018 4.00293V12.0029C13.0018 12.5529 12.5518 13.0029 12.0018 13.0029C11.4518 13.0029 11.0018 12.5529 11.0018 12.0029V4.00293ZM17.1318 7.25302C16.7618 6.86302 16.7518 6.25302 17.1418 5.86302C17.5418 5.46302 18.2018 5.47302 18.5818 5.88302C20.0818 7.48302 21.0018 9.62302 21.0018 11.993C21.0018 17.063 16.8118 21.153 11.7118 20.993C6.83176 20.843 2.86176 16.623 3.00176 11.743C3.07176 9.47302 3.98176 7.42302 5.43176 5.88302C5.81176 5.47302 6.46176 5.46302 6.86176 5.86302C7.24176 6.24302 7.24176 6.85302 6.87176 7.24302C5.71176 8.49302 5.00176 10.163 5.00176 12.003C5.00176 15.903 8.18176 19.053 12.0918 18.993C15.9218 18.953 19.0918 15.653 19.0018 11.823C18.9618 10.053 18.2618 8.45302 17.1318 7.25302Z" fill="#DEDEDE"/>
</svg>
