<svg width="24" height="24" viewBox="0 0 24 24" fill="none" xmlns="http://www.w3.org/2000/svg">
<path d="M6.58273 5.09964C6.35994 4.76877 5.90913 4.67907 5.596 4.92618C4.17575 6.047 3.09832 7.55129 2.49602 9.26779C1.81379 11.2121 1.77766 13.3248 2.39301 15.2913C3.00837 17.2578 4.24231 18.9731 5.91116 20.1817C7.58002 21.3903 9.59455 22.0278 11.6549 21.9991C13.7153 21.9704 15.7113 21.2771 17.3458 20.0225C18.9804 18.7679 20.1661 17.0189 20.7265 15.036C21.2868 13.0532 21.1919 10.9423 20.4558 9.01773C19.8059 7.31866 18.687 5.84495 17.2361 4.76411C16.9162 4.52581 16.4681 4.62803 16.2546 4.96498C16.0411 5.30193 16.1435 5.74568 16.4602 5.98825C17.6497 6.89949 18.5679 8.12544 19.1066 9.53376C19.7315 11.1677 19.8121 12.9598 19.3364 14.6432C18.8607 16.3267 17.854 17.8115 16.4663 18.8766C15.0786 19.9418 13.384 20.5304 11.6348 20.5547C9.88559 20.5791 8.17528 20.0379 6.75845 19.0118C5.34162 17.9857 4.29402 16.5295 3.77159 14.8599C3.24917 13.1904 3.27984 11.3968 3.85905 9.74605C4.35828 8.32328 5.24201 7.07224 6.40571 6.12824C6.71549 5.87695 6.80552 5.43052 6.58273 5.09964Z" fill="#424242"/>
<line x1="11.5522" y1="2.9" x2="11.5522" y2="12.4043" stroke="#424242" stroke-width="1.8" stroke-linecap="round"/>
</svg>
