<svg width="24" height="22" viewBox="0 0 24 22" fill="none" xmlns="http://www.w3.org/2000/svg">
<path d="M1.20511 1.80516L5.38181 5.98935H1.49703C1.09999 5.98935 0.719216 6.14707 0.438469 6.42782C0.157722 6.70857 0 7.08934 0 7.48638V13.4745C0 13.8715 0.157722 14.2523 0.438469 14.533C0.719216 14.8138 1.09999 14.9715 1.49703 14.9715H5.34439L10.8909 20.5629C11.0365 20.6976 11.2074 20.8021 11.3937 20.8702C11.58 20.9383 11.778 20.9687 11.9762 20.9596C12.1713 20.9596 12.3646 20.9215 12.5451 20.8473C12.8196 20.7345 13.0545 20.5427 13.2197 20.2961C13.385 20.0495 13.4732 19.7594 13.4732 19.4626V14.0508L17.882 18.4596C17.6949 18.5719 17.5152 18.6767 17.3206 18.774C17.1429 18.8633 17.008 19.0195 16.9456 19.2084C16.8831 19.3972 16.8982 19.603 16.9875 19.7807C17.0768 19.9584 17.2331 20.0933 17.4219 20.1558C17.6107 20.2182 17.8166 20.2031 17.9943 20.1138C18.3307 19.9439 18.658 19.7566 18.9748 19.5524L20.6814 21.259L21.7069 20.2111L2.24554 0.749756L1.20511 1.80516ZM11.9762 19.4626L6.19021 13.6466C6.04191 13.5228 5.85149 13.4611 5.65876 13.4745H1.49703V7.48638H5.71864C5.81768 7.48597 5.91564 7.46591 6.00687 7.42736C6.09809 7.38881 6.18076 7.33255 6.25009 7.26182L6.4447 7.06721L11.9762 12.5838V19.4626Z" fill="white"/>
<path d="M17.1336 2.01466C18.4382 2.624 19.5834 3.52807 20.479 4.65559C21.3746 5.7831 21.996 7.10324 22.2943 8.51192C22.5926 9.9206 22.5596 11.3793 22.1979 12.7731C21.8361 14.1668 21.1556 15.4575 20.21 16.5433L21.2728 17.6062C22.3892 16.3506 23.1971 14.8517 23.6321 13.2288C24.0671 11.606 24.1172 9.90396 23.7785 8.25831C23.4397 6.61266 22.7215 5.06881 21.681 3.74967C20.6404 2.43052 19.3063 1.37251 17.7848 0.659847C17.6959 0.613818 17.5988 0.586064 17.499 0.578227C17.3993 0.570391 17.299 0.58263 17.2041 0.614221C17.1091 0.645812 17.0215 0.696114 16.9463 0.762154C16.8712 0.828194 16.81 0.908632 16.7665 0.998712C16.7229 1.08879 16.6979 1.18669 16.6929 1.28661C16.6878 1.38653 16.7028 1.48645 16.737 1.58047C16.7713 1.67448 16.824 1.76068 16.8921 1.83397C16.9602 1.90726 17.0423 1.96616 17.1336 2.00717V2.01466Z" fill="white"/>
<path d="M15.4868 6.45351C16.1914 6.86458 16.7766 7.45216 17.1848 8.15833C17.593 8.86449 17.8101 9.66486 17.8147 10.4805C17.8147 11.4823 17.489 12.457 16.8866 13.2575L17.9644 14.3204C18.8398 13.2324 19.3154 11.8769 19.3118 10.4805C19.3069 9.40321 19.0213 8.3458 18.4831 7.41254C17.9449 6.47928 17.1728 5.70243 16.2428 5.15858C16.1577 5.10442 16.0624 5.06806 15.9628 5.05167C15.8632 5.03529 15.7613 5.03922 15.6632 5.06324C15.5652 5.08726 15.473 5.13086 15.3922 5.19143C15.3114 5.25199 15.2438 5.32827 15.1932 5.41567C15.1427 5.50307 15.1104 5.59979 15.0982 5.7C15.0861 5.80022 15.0943 5.90186 15.1224 5.99881C15.1505 6.09577 15.198 6.18603 15.2619 6.26417C15.3258 6.34231 15.4049 6.40671 15.4943 6.45351H15.4868Z" fill="white"/>
<path d="M11.9762 1.49822V8.34712L13.4732 9.84415V1.49822C13.4735 1.20151 13.3855 0.911427 13.2206 0.664794C13.0556 0.41816 12.8211 0.226104 12.5468 0.113011C12.2725 -8.1701e-05 11.9708 -0.02911 11.6799 0.0296116C11.3891 0.0883332 11.1222 0.232156 10.9133 0.442819L7.48511 3.87101L8.54051 4.92641L11.9762 1.49822Z" fill="white"/>
</svg>
