<svg width="24" height="25" viewBox="0 0 24 25" fill="none" xmlns="http://www.w3.org/2000/svg">
<path d="M18.7106 1.62644C16.5889 -0.523303 13.1258 -0.545754 10.976 1.58153C10.9592 1.59837 10.9479 1.6096 10.9311 1.62644L6.38467 6.17288C6.29486 6.22339 6.22189 6.29636 6.17138 6.38617L1.59687 10.9551C-0.536028 13.0936 -0.530416 16.5567 1.60248 18.6896C3.75222 20.8169 7.20976 20.8169 9.36511 18.6896L9.37073 18.684L13.9396 14.0983C13.9733 14.0758 14.0014 14.0534 14.0294 14.0253C14.0575 13.9973 14.0799 13.9692 14.1024 13.9355L18.6657 9.361C20.8154 7.23933 20.8323 3.77617 18.7106 1.62644ZM8.57369 17.8926C6.86176 19.5821 4.10583 19.5877 2.3939 17.8926C0.704421 16.1919 0.704421 13.4472 2.3939 11.7465L6.68215 7.45823L12.8339 13.6212L8.57369 17.8926ZM17.8743 8.55836L13.6253 12.8185L7.47357 6.66681L11.7281 2.41224C13.4232 0.717147 16.1792 0.717147 17.8743 2.41224C19.5694 4.10733 19.5694 6.86327 17.8743 8.55836Z" fill="#01CD74"/>
<path d="M13.5184 4.14119C13.3051 3.91667 12.9515 3.91106 12.727 4.13558L10.7849 6.04396C10.5604 6.26286 10.5604 6.61648 10.7737 6.83538C10.987 7.05428 11.3462 7.05989 11.5651 6.8466L11.5707 6.84099L13.5072 4.93261C13.7317 4.71371 13.7317 4.36009 13.5184 4.14119Z" fill="#01CD74"/>
<path d="M22.4092 14.7102C22.4092 14.7102 22.4092 14.7102 22.4036 14.7046C20.31 12.5773 16.8861 12.5548 14.7588 14.654C14.742 14.6709 14.7251 14.6877 14.7083 14.7046C12.581 16.8318 12.581 20.2782 14.7027 22.4054C16.8244 24.5327 20.2763 24.5327 22.4036 22.4111C24.5309 20.2838 24.5309 16.8375 22.4092 14.7102ZM14.2368 18.555C14.2368 16.1695 16.1733 14.2331 18.5587 14.2331C19.5073 14.2331 20.4334 14.5474 21.1856 15.1255L15.1293 21.1874C14.5511 20.4297 14.2368 19.5036 14.2368 18.555ZM21.6121 21.6084C20.0798 23.1407 17.6438 23.2979 15.9263 21.9789L21.9826 15.9226C23.3072 17.6401 23.1501 20.0761 21.6121 21.6084Z" fill="#01CD74"/>
</svg>
