<svg width="26" height="26" viewBox="0 0 26 26" fill="none" xmlns="http://www.w3.org/2000/svg">
<path d="M19.7106 2.62644C17.5889 0.476697 14.1258 0.454246 11.976 2.58153C11.9592 2.59837 11.9479 2.6096 11.9311 2.62644L7.38467 7.17288C7.29486 7.22339 7.22189 7.29636 7.17138 7.38617L2.59687 11.9551C0.463972 14.0936 0.469584 17.5567 2.60248 19.6896C4.75222 21.8169 8.20976 21.8169 10.3651 19.6896L10.3707 19.684L14.9396 15.0983C14.9733 15.0758 15.0014 15.0534 15.0294 15.0253C15.0575 14.9973 15.0799 14.9692 15.1024 14.9355L19.6657 10.361C21.8154 8.23933 21.8323 4.77617 19.7106 2.62644ZM9.57369 18.8926C7.86176 20.5821 5.10583 20.5877 3.3939 18.8926C1.70442 17.1919 1.70442 14.4472 3.3939 12.7465L7.68215 8.45823L13.8339 14.6212L9.57369 18.8926ZM18.8743 9.55836L14.6253 13.8185L8.47357 7.66681L12.7281 3.41224C14.4232 1.71715 17.1792 1.71715 18.8743 3.41224C20.5694 5.10733 20.5694 7.86327 18.8743 9.55836Z" fill="#27235E"/>
<path d="M14.5185 5.14143C14.3052 4.91692 13.9516 4.91131 13.7271 5.13582L11.7851 7.04421C11.5605 7.26311 11.5605 7.61672 11.7738 7.83562C11.9871 8.05453 12.3463 8.06014 12.5652 7.84685L12.5709 7.84124L14.5073 5.93285C14.7318 5.71395 14.7318 5.36034 14.5185 5.14143Z" fill="#27235E"/>
<path d="M23.4091 15.7102C23.4091 15.7102 23.4091 15.7102 23.4035 15.7046C21.3099 13.5773 17.886 13.5548 15.7587 15.654C15.7419 15.6709 15.7251 15.6877 15.7082 15.7046C13.5809 17.8318 13.5809 21.2782 15.7026 23.4054C17.8243 25.5327 21.2762 25.5327 23.4035 23.4111C25.5308 21.2838 25.5308 17.8375 23.4091 15.7102ZM15.2367 19.555C15.2367 17.1695 17.1732 15.2331 19.5587 15.2331C20.5073 15.2331 21.4334 15.5474 22.1855 16.1255L16.1292 22.1874C15.5511 21.4297 15.2367 20.5036 15.2367 19.555ZM22.6121 22.6084C21.0798 24.1407 18.6438 24.2979 16.9262 22.9789L22.9825 16.9226C24.3072 18.6401 24.15 21.0761 22.6121 22.6084Z" fill="#27235E"/>
</svg>
