<svg width="38" height="38" viewBox="0 0 38 38" fill="none" xmlns="http://www.w3.org/2000/svg">
<rect x="0.5" y="0.5" width="37" height="37" rx="6.5" fill="#E1FFF2" stroke="#A3E8CA"/>
<path d="M25.7106 8.62644C23.5889 6.4767 20.1258 6.45425 17.976 8.58153C17.9592 8.59837 17.9479 8.6096 17.9311 8.62644L13.3847 13.1729C13.2949 13.2234 13.2219 13.2964 13.1714 13.3862L8.59687 17.9551C6.46397 20.0936 6.46958 23.5567 8.60248 25.6896C10.7522 27.8169 14.2098 27.8169 16.3651 25.6896L16.3707 25.684L20.9396 21.0983C20.9733 21.0758 21.0014 21.0534 21.0294 21.0253C21.0575 20.9973 21.0799 20.9692 21.1024 20.9355L25.6657 16.361C27.8154 14.2393 27.8323 10.7762 25.7106 8.62644ZM15.5737 24.8926C13.8618 26.5821 11.1058 26.5877 9.3939 24.8926C7.70442 23.1919 7.70442 20.4472 9.3939 18.7465L13.6822 14.4582L19.8339 20.6212L15.5737 24.8926ZM24.8743 15.5584L20.6253 19.8185L14.4736 13.6668L18.7281 9.41224C20.4232 7.71715 23.1792 7.71715 24.8743 9.41224C26.5694 11.1073 26.5694 13.8633 24.8743 15.5584Z" fill="#01CD74"/>
<path d="M20.5184 11.1414C20.3051 10.9169 19.9515 10.9113 19.727 11.1358L17.7849 13.0442C17.5604 13.2631 17.5604 13.6167 17.7737 13.8356C17.987 14.0545 18.3462 14.0601 18.5651 13.8468L18.5707 13.8412L20.5072 11.9329C20.7317 11.7139 20.7317 11.3603 20.5184 11.1414Z" fill="#01CD74"/>
<path d="M29.4092 21.7102C29.4092 21.7102 29.4092 21.7102 29.4036 21.7046C27.31 19.5773 23.8861 19.5548 21.7588 21.654C21.742 21.6709 21.7251 21.6877 21.7083 21.7046C19.581 23.8318 19.581 27.2782 21.7027 29.4054C23.8244 31.5327 27.2763 31.5327 29.4036 29.4111C31.5309 27.2838 31.5309 23.8375 29.4092 21.7102ZM21.2368 25.555C21.2368 23.1695 23.1733 21.2331 25.5587 21.2331C26.5073 21.2331 27.4334 21.5474 28.1856 22.1255L22.1293 28.1874C21.5511 27.4297 21.2368 26.5036 21.2368 25.555ZM28.6121 28.6084C27.0798 30.1407 24.6438 30.2979 22.9263 28.9789L28.9826 22.9226C30.3072 24.6401 30.1501 27.0761 28.6121 28.6084Z" fill="#01CD74"/>
</svg>
