<svg width="65" height="65" viewBox="0 0 65 65" fill="none" xmlns="http://www.w3.org/2000/svg">
<path d="M32.7863 5.27887C32.0784 5.35652 31.5472 5.9624 31.5626 6.67469V16.7892C31.5573 17.1568 31.6997 17.5115 31.9581 17.7732C32.2164 18.0354 32.5687 18.183 32.9369 18.183C33.305 18.183 33.6573 18.0354 33.9157 17.7732C34.174 17.5115 34.3164 17.1568 34.3111 16.7892V6.67469C34.3197 6.27876 34.1573 5.89865 33.8653 5.63118C33.5729 5.36371 33.1799 5.23525 32.7864 5.27887H32.7863ZM24.4546 10.3253C24.0146 10.3191 23.598 10.5242 23.3344 10.877C23.0713 11.2298 22.9926 11.6871 23.123 12.1074L24.8198 18.0128C24.9061 18.3781 25.1381 18.692 25.4617 18.8823C25.7852 19.0722 26.1725 19.1215 26.5335 19.0185C26.8944 18.9159 27.1978 18.67 27.3728 18.3383C27.5482 18.0066 27.5799 17.6174 27.461 17.2612L25.7646 11.3558C25.6098 10.7567 25.0734 10.3344 24.4546 10.3253L24.4546 10.3253ZM41.3763 10.3253C40.7737 10.3536 40.2599 10.7716 40.1094 11.3559L38.4131 17.2613C38.2942 17.6174 38.3258 18.0066 38.5013 18.3383C38.6762 18.67 38.9796 18.9159 39.3406 19.0185C39.7015 19.1216 40.0888 19.0722 40.4124 18.8824C40.7359 18.6921 40.9679 18.3781 41.0542 18.0129L42.751 12.1075C42.8843 11.6799 42.8009 11.214 42.5272 10.8588C42.2535 10.5041 41.824 10.3047 41.3763 10.3253L41.3763 10.3253ZM14.0402 10.3469C13.5868 10.4207 13.2004 10.7169 13.0106 11.1354C12.8208 11.5538 12.8525 12.0394 13.0955 12.4296L18.1846 20.8692C18.3529 21.2182 18.6606 21.4799 19.0316 21.5906C19.4031 21.7008 19.8038 21.6495 20.135 21.4487C20.4667 21.2479 20.6978 20.9167 20.7721 20.5365C20.8468 20.1564 20.7572 19.7624 20.5257 19.4518L15.4361 11.0122C15.1518 10.5252 14.5982 10.2611 14.0402 10.3469L14.0402 10.3469ZM51.3832 10.3469C50.9859 10.4188 50.6403 10.6623 50.4385 11.0122L45.3488 19.4518C45.1173 19.7624 45.0277 20.1564 45.1025 20.5365C45.1768 20.9166 45.4078 21.2478 45.7395 21.4487C46.0707 21.6495 46.4714 21.7008 46.8429 21.5906C47.2139 21.4798 47.5217 21.2181 47.6899 20.8692L52.779 12.4296C53.0657 11.9708 53.0561 11.3861 52.7551 10.9364C52.4536 10.4873 51.9167 10.2563 51.3832 10.3469L51.3832 10.3469ZM9.14414 18.7645C8.58571 18.7688 8.08577 19.1106 7.87875 19.6287C7.67168 20.1469 7.79823 20.7389 8.19895 21.1267L12.4511 25.3573C12.7085 25.6219 13.0613 25.7719 13.4304 25.7734C13.7999 25.7753 14.1542 25.6281 14.4135 25.3655C14.6733 25.1033 14.8166 24.7471 14.8109 24.378C14.8051 24.0089 14.6512 23.6576 14.3838 23.4031L10.1316 19.194C9.8747 18.9227 9.51808 18.7674 9.1442 18.7645L9.14414 18.7645ZM56.688 18.7645C56.3289 18.7789 55.9896 18.9327 55.7432 19.194L51.4911 23.403C51.2236 23.6576 51.0697 24.0089 51.064 24.378C51.0582 24.7471 51.2015 25.1032 51.4613 25.3654C51.7207 25.6281 52.0749 25.7753 52.4445 25.7734C52.8135 25.7719 53.1663 25.6219 53.4237 25.3573L57.6759 21.1266C58.0823 20.7331 58.2065 20.1306 57.9884 19.6086C57.7698 19.0861 57.2536 18.7511 56.6879 18.7645L56.688 18.7645ZM32.9375 20.4824C21.8194 20.4824 12.4831 28.1868 10.089 38.5428C9.91692 39.2839 10.3785 40.0244 11.1196 40.1966C11.8611 40.3682 12.6012 39.9071 12.7733 39.1655C14.8815 30.0453 23.089 23.2317 32.937 23.2317C43.9219 23.2317 52.8834 31.6901 53.5951 42.4075H4.07567C4.03253 42.4056 3.98986 42.4056 3.94672 42.4075C3.58194 42.4243 3.23923 42.5858 2.99381 42.8557C2.74791 43.1256 2.61945 43.4817 2.6367 43.8465C2.65348 44.2108 2.81501 44.5535 3.08487 44.7994C3.35474 45.0448 3.71089 45.1733 4.07565 45.156H61.7982C62.1664 45.1613 62.5206 45.0189 62.7828 44.7606C63.045 44.5022 63.1921 44.1499 63.1921 43.7818C63.1921 43.4141 63.045 43.0613 62.7828 42.803C62.5206 42.5446 62.1664 42.4022 61.7982 42.4075H56.3439C55.6321 30.1801 45.4046 20.4817 32.9371 20.4817L32.9375 20.4824ZM14.5127 49.2799C14.1479 49.2967 13.8052 49.4582 13.5593 49.7281C13.3139 49.998 13.1854 50.3541 13.2022 50.7189C13.2194 51.0832 13.3805 51.4259 13.6504 51.6718C13.9202 51.9172 14.2768 52.0457 14.6411 52.0284H51.2331C51.6008 52.0337 51.9555 51.8913 52.2172 51.6329C52.4794 51.3746 52.627 51.0223 52.627 50.6541C52.627 50.2865 52.4794 49.9337 52.2172 49.6753C51.9555 49.417 51.6008 49.2746 51.2331 49.2799H14.6411C14.5985 49.278 14.5553 49.278 14.5127 49.2799L14.5127 49.2799ZM23.6392 56.1517C23.2744 56.1718 22.9327 56.3352 22.6892 56.6075C22.4457 56.8793 22.3196 57.2369 22.3397 57.6012C22.3599 57.9655 22.5238 58.3072 22.7956 58.5512C23.0673 58.7947 23.4249 58.9203 23.7892 58.9002H42.0852C42.4529 58.9054 42.8076 58.7631 43.0698 58.5047C43.3315 58.2463 43.4791 57.894 43.4791 57.5259C43.4791 57.1583 43.3315 56.8055 43.0698 56.5471C42.8076 56.2887 42.4529 56.1464 42.0852 56.1516H23.7892C23.7394 56.1488 23.689 56.1488 23.6392 56.1516L23.6392 56.1517Z" fill="#1569A1"/>
</svg>
