<svg width="65" height="65" viewBox="0 0 65 65" fill="none" xmlns="http://www.w3.org/2000/svg">
<path d="M58.2437 41.696C57.9894 41.4416 57.6043 41.3724 57.2783 41.5246C53.8749 43.1045 50.2411 43.9052 46.4777 43.9052C32.3114 43.9052 20.7863 32.3804 20.7863 18.2137C20.7863 14.4504 21.587 10.8165 23.1668 7.4132C23.3179 7.0872 23.2498 6.70209 22.9955 6.44772C22.7423 6.19396 22.3572 6.12589 22.03 6.27636C12.3818 10.7551 6.14864 20.5142 6.14864 31.1393C6.14864 46.2491 18.4413 58.5427 33.552 58.5427C44.1777 58.5427 53.9364 52.3092 58.415 42.6613C58.566 42.3353 58.4974 41.9496 58.2436 41.6959L58.2437 41.696ZM33.552 56.8314C19.3856 56.8314 7.86057 45.3067 7.86057 31.14C7.86057 21.951 12.8336 13.4535 20.7049 8.8939C19.6218 11.8757 19.0743 15.0002 19.0743 18.2138C19.0743 33.3235 31.367 45.6171 46.4776 45.6171C49.691 45.6171 52.8163 45.0696 55.7975 43.9865C51.2394 51.8578 42.7412 56.8314 33.5514 56.8314H33.552Z" fill="#1569A1" stroke="#1569A1" stroke-width="0.8"/>
<path d="M41.258 13.822C41.2161 13.7005 41.1098 13.6092 40.9779 13.5812L37.9838 12.9454L36.4179 10.4537C36.2804 10.2342 35.8972 10.2342 35.7596 10.4537L34.1938 12.9454L31.1997 13.581C31.0678 13.609 30.9612 13.7005 30.9195 13.8217C30.8779 13.9432 30.907 14.0761 30.9962 14.1721L33.023 16.3477L32.738 19.2322C32.7255 19.3593 32.7848 19.483 32.894 19.5582C32.9605 19.6038 33.0393 19.6272 33.1189 19.6272C33.1702 19.6272 33.222 19.6174 33.2706 19.5977L36.0887 18.4505L38.9069 19.5977C39.031 19.6487 39.1742 19.6333 39.2834 19.5582C39.3927 19.4833 39.4519 19.3593 39.4394 19.2322L39.1544 16.3477L41.1813 14.1721C41.2707 14.0766 41.2998 13.9435 41.2582 13.822H41.258ZM38.4706 15.9875C38.4012 16.0621 38.3672 16.1607 38.3769 16.2595L38.617 18.6925L36.24 17.7249C36.1431 17.6859 36.0336 17.6859 35.9369 17.7249L33.5597 18.6925L33.7997 16.2595C33.8094 16.1604 33.7757 16.0621 33.706 15.9875L31.9965 14.1525L34.5219 13.6163C34.6248 13.5943 34.7137 13.5336 34.7671 13.4481L36.0877 11.3464L37.4092 13.4481C37.4629 13.5336 37.5515 13.5943 37.6544 13.6163L40.1798 14.1525L38.4706 15.9875Z" fill="#1569A1" stroke="#1569A1"/>
<path d="M52.3216 28.7275L47.0399 27.554L44.278 22.9546C44.108 22.6707 43.6344 22.6707 43.4645 22.9546L40.7028 27.554L35.4205 28.7275C35.2575 28.7637 35.1258 28.882 35.0743 29.0388C35.0228 29.1959 35.0588 29.3677 35.169 29.4919L38.7441 33.5078L38.2415 38.8325C38.226 38.9968 38.2993 39.1568 38.4342 39.254C38.5692 39.3505 38.7464 39.37 38.8996 39.3052L43.8707 37.1875L48.8418 39.3052C48.9019 39.3306 48.9656 39.3433 49.0293 39.3433C49.1276 39.3433 49.2253 39.313 49.3075 39.254C49.4425 39.1571 49.5157 38.9968 49.5002 38.8325L48.9979 33.5078L52.5727 29.4919C52.6829 29.3681 52.7189 29.1959 52.6674 29.0388C52.6159 28.882 52.4845 28.7637 52.3215 28.7275L52.3216 28.7275ZM48.1527 33.0419C48.0669 33.1384 48.025 33.2659 48.0369 33.3937L48.4841 38.1345L44.0581 36.2493C43.9984 36.2239 43.9344 36.2112 43.8707 36.2112C43.807 36.2112 43.7433 36.2239 43.6832 36.2493L39.2573 38.1345L39.7048 33.3937C39.717 33.2655 39.6751 33.1384 39.5889 33.0419L36.4059 29.4665L41.1087 28.4216C41.2357 28.3933 41.3456 28.3147 41.4116 28.2042L43.8706 24.1092L46.3295 28.2042C46.3959 28.3147 46.5054 28.3933 46.6325 28.4216L51.3349 29.4665L48.1527 33.0419Z" fill="#1569A1" stroke="#1569A1"/>
</svg>
