<svg width="24" height="25" viewBox="0 0 24 25" fill="none" xmlns="http://www.w3.org/2000/svg">
<path d="M17.6161 9.83185C17.6161 8.24591 16.9861 6.72492 15.8647 5.60349C14.7432 4.48206 13.2223 3.85205 11.6363 3.85205C10.0504 3.85205 8.5294 4.48206 7.40797 5.60349C6.28654 6.72492 5.65652 8.24591 5.65652 9.83185C5.65652 16.8083 2.66663 18.8015 2.66663 18.8015H20.606C20.606 18.8015 17.6161 16.8083 17.6161 9.83185Z" stroke="#DEDEDE" stroke-width="1.5" stroke-linecap="round" stroke-linejoin="round"/>
<path d="M13.3605 22.7881C13.1852 23.0901 12.9337 23.3409 12.6311 23.5152C12.3286 23.6894 11.9855 23.7812 11.6363 23.7812C11.2871 23.7812 10.944 23.6894 10.6414 23.5152C10.3388 23.3409 10.0873 23.0901 9.91211 22.7881" stroke="#DEDEDE" stroke-width="1.5" stroke-linecap="round" stroke-linejoin="round"/>
<path d="M13.718 3.99109L13.4032 4.67183L14.1017 4.99484L14.4066 4.28826L13.718 3.99109ZM9.63539 3.9911L8.94678 4.28826L9.25169 4.99485L9.95019 4.67183L9.63539 3.9911ZM13.1489 3.11138C13.1489 3.3198 13.106 3.51624 13.0294 3.69393L14.4066 4.28826C14.5628 3.92638 14.6489 3.52797 14.6489 3.11138H13.1489ZM11.6767 1.63916C12.4898 1.63916 13.1489 2.2983 13.1489 3.11138H14.6489C14.6489 1.46987 13.3182 0.13916 11.6767 0.13916V1.63916ZM10.2045 3.11138C10.2045 2.2983 10.8636 1.63916 11.6767 1.63916V0.13916C10.0352 0.13916 8.70447 1.46987 8.70447 3.11138H10.2045ZM10.324 3.69393C10.2473 3.51625 10.2045 3.3198 10.2045 3.11138H8.70447C8.70447 3.52797 8.79061 3.92639 8.94678 4.28826L10.324 3.69393ZM9.95019 4.67183C10.4462 4.44245 11.0365 4.30604 11.6767 4.30604V2.80604C10.8255 2.80604 10.0197 2.98705 9.32059 3.31036L9.95019 4.67183ZM11.6767 4.30604C12.3169 4.30604 12.9072 4.44245 13.4032 4.67183L14.0328 3.31036C13.3337 2.98705 12.5279 2.80604 11.6767 2.80604V4.30604Z" fill="#DEDEDE"/>
</svg>
