<svg width="24" height="24" viewBox="0 0 24 24" fill="none" xmlns="http://www.w3.org/2000/svg">
<path d="M21.2716 3.23368H18.9979V2.37474C18.9979 1.06105 17.9368 0 16.6232 0C15.3095 0 14.2484 1.06105 14.2484 2.37474V3.23368H9.3221V2.37474C9.3221 1.06105 8.26105 0 6.94737 0C5.63368 0 4.57263 1.06105 4.57263 2.37474V3.23368H2.29895C1.03579 3.23368 0 4.26947 0 5.53263V21.7011C0 22.9642 1.03579 24 2.29895 24H21.2716C22.5347 24 23.5705 22.9642 23.5705 21.7011V5.53263C23.5705 4.26947 22.56 3.23368 21.2716 3.23368ZM15.5116 2.37474C15.5116 1.76842 16.0168 1.26316 16.6232 1.26316C17.2295 1.26316 17.7347 1.76842 17.7347 2.37474V5.35579C17.7347 5.96211 17.2295 6.46737 16.6232 6.46737C16.0168 6.46737 15.5116 5.96211 15.5116 5.35579V2.37474ZM5.86105 2.37474C5.86105 1.76842 6.36631 1.26316 6.97263 1.26316C7.57895 1.26316 8.08421 1.76842 8.08421 2.37474V5.35579C8.08421 5.96211 7.57895 6.46737 6.97263 6.46737C6.36631 6.46737 5.86105 5.96211 5.86105 5.35579V2.37474ZM2.32421 4.47158H4.59789V5.33053C4.59789 6.64421 5.65895 7.70526 6.97263 7.70526C8.28631 7.70526 9.34737 6.64421 9.34737 5.33053V4.47158H14.2737V5.33053C14.2737 6.64421 15.3347 7.70526 16.6484 7.70526C17.9621 7.70526 19.0232 6.64421 19.0232 5.33053V4.47158H21.2968C21.8779 4.47158 22.3326 4.95158 22.3326 5.50737V9.32211H1.26316V5.53263C1.26316 4.95158 1.74316 4.47158 2.32421 4.47158ZM21.2716 22.7368H2.32421C1.74316 22.7368 1.28842 22.2568 1.28842 21.7011V10.5853H22.3326V21.7011C22.3326 22.2821 21.8526 22.7368 21.2716 22.7368Z" fill="#5E7E9B"/>
<path d="M7.07375 12.7827H4.34533C4.01691 12.7827 3.73901 13.0606 3.73901 13.389V15.1322C3.73901 15.4606 4.01691 15.7385 4.34533 15.7385H7.07375C7.40217 15.7385 7.68007 15.4606 7.68007 15.1322V13.389C7.68007 13.0606 7.40217 12.7827 7.07375 12.7827Z" fill="#5E7E9B"/>
<path d="M19.2505 12.7827H16.5221C16.1937 12.7827 15.9158 13.0606 15.9158 13.389V15.1322C15.9158 15.4606 16.1937 15.7385 16.5221 15.7385H19.2505C19.5789 15.7385 19.8568 15.4606 19.8568 15.1322V13.389C19.8821 13.0606 19.6042 12.7827 19.2505 12.7827Z" fill="#5E7E9B"/>
<path d="M13.1621 12.7827H10.4337C10.1053 12.7827 9.82739 13.0606 9.82739 13.389V15.1322C9.82739 15.4606 10.1053 15.7385 10.4337 15.7385H13.1621C13.4905 15.7385 13.7684 15.4606 13.7684 15.1322V13.389C13.7684 13.0606 13.5158 12.7827 13.1621 12.7827Z" fill="#5E7E9B"/>
<path d="M7.07375 17.6331H4.34533C4.01691 17.6331 3.73901 17.9109 3.73901 18.2394V19.9825C3.73901 20.311 4.01691 20.5888 4.34533 20.5888H7.07375C7.40217 20.5888 7.68007 20.311 7.68007 19.9825V18.2394C7.68007 17.9109 7.40217 17.6331 7.07375 17.6331Z" fill="#5E7E9B"/>
<path d="M19.2505 17.6331H16.5221C16.1937 17.6331 15.9158 17.9109 15.9158 18.2394V19.9825C15.9158 20.311 16.1937 20.5888 16.5221 20.5888H19.2505C19.5789 20.5888 19.8568 20.311 19.8568 19.9825V18.2394C19.8821 17.9109 19.6042 17.6331 19.2505 17.6331Z" fill="#5E7E9B"/>
<path d="M13.1621 17.6331H10.4337C10.1053 17.6331 9.82739 17.9109 9.82739 18.2394V19.9825C9.82739 20.311 10.1053 20.5888 10.4337 20.5888H13.1621C13.4905 20.5888 13.7684 20.311 13.7684 19.9825V18.2394C13.7684 17.9109 13.5158 17.6331 13.1621 17.6331Z" fill="#5E7E9B"/>
</svg>
