<svg width="30" height="30" viewBox="0 0 30 30" fill="none" xmlns="http://www.w3.org/2000/svg">
<path d="M10.5874 18.4549H17.6379C17.9018 18.4549 18.1159 18.2393 18.1159 17.9736C18.1159 17.7078 17.9018 17.4922 17.6379 17.4922H10.5874C10.3235 17.4922 10.1094 17.7078 10.1094 17.9736C10.1094 18.2393 10.3231 18.4549 10.5874 18.4549Z" fill="white"/>
<path d="M10.5874 20.3807H20.5061C20.77 20.3807 20.9841 20.1651 20.9841 19.8993C20.9841 19.6336 20.77 19.418 20.5061 19.418H10.5874C10.3235 19.418 10.1094 19.6336 10.1094 19.8993C10.1094 20.1651 10.3231 20.3807 10.5874 20.3807Z" fill="white"/>
<path d="M10.5874 22.3065H17.6379C17.9018 22.3065 18.1159 22.0908 18.1159 21.8251C18.1159 21.5594 17.9018 21.3438 17.6379 21.3438H10.5874C10.3235 21.3438 10.1094 21.5594 10.1094 21.8251C10.1094 22.0908 10.3231 22.3065 10.5874 22.3065Z" fill="white"/>
<path d="M10.5874 24.2323H20.5061C20.77 24.2323 20.9841 24.0166 20.9841 23.7509C20.9841 23.4852 20.77 23.2695 20.5061 23.2695H10.5874C10.3235 23.2695 10.1094 23.4852 10.1094 23.7509C10.1094 24.0166 10.3231 24.2323 10.5874 24.2323Z" fill="white"/>
<path d="M16.0249 12.2469H17.8892V14.1243C17.8892 14.39 18.1034 14.6057 18.3673 14.6057H20.2794C20.5433 14.6057 20.7574 14.39 20.7574 14.1243V12.2469H22.6218C22.8856 12.2469 23.0998 12.0313 23.0998 11.7656V9.84009C23.0998 9.57437 22.8856 9.35872 22.6218 9.35872H20.7574V7.48137C20.7574 7.21565 20.5433 7 20.2794 7H18.3673C18.1034 7 17.8892 7.21565 17.8892 7.48137V9.35872H16.0249C15.761 9.35872 15.5469 9.57437 15.5469 9.84009V11.7656C15.5469 12.0313 15.761 12.2469 16.0249 12.2469ZM16.5029 10.3215H18.3673C18.6311 10.3215 18.8453 10.1058 18.8453 9.84009V7.96274H19.8014V9.84009C19.8014 10.1058 20.0155 10.3215 20.2794 10.3215H22.1437V11.2842H20.2794C20.0155 11.2842 19.8014 11.4999 19.8014 11.7656V13.6429H18.8453V11.7656C18.8453 11.4999 18.6311 11.2842 18.3673 11.2842H16.5029V10.3215V10.3215Z" fill="white"/>
<path d="M17.1119 14.9419L13.4808 11.2858C14.1844 10.4112 14.6075 9.2997 14.6075 8.08905C14.6075 7.19659 14.3785 6.35708 13.9755 5.62732C13.7949 5.29855 13.5783 4.99191 13.3316 4.71272C12.4057 3.66285 11.0553 3 9.55375 3C6.76731 3 4.5 5.28314 4.5 8.08905C4.5 10.1931 5.77491 12.0031 7.58761 12.7771C7.87777 12.9008 8.18132 12.9981 8.49587 13.0655C8.83718 13.1396 9.19093 13.1781 9.55375 13.1781C10.7565 13.1781 11.8603 12.7516 12.7288 12.0435L16.3595 15.6995C16.4632 15.804 16.5995 15.8565 16.7357 15.8565C16.8719 15.8565 17.0082 15.804 17.1119 15.6995C17.3199 15.4901 17.3199 15.1512 17.1119 14.9419ZM9.55375 12.1066C9.18758 12.1066 8.83288 12.0565 8.49587 11.9631C8.17511 11.8741 7.8706 11.746 7.58761 11.5838C6.3801 10.8926 5.5641 9.58467 5.5641 8.08905C5.5641 5.8733 7.35385 4.07105 9.55375 4.07105C10.3492 4.07105 11.0911 4.30692 11.7145 4.71272C12.094 4.95918 12.4291 5.26918 12.7054 5.62732C13.2308 6.30798 13.5439 7.16193 13.5439 8.08905C13.5439 10.3043 11.7541 12.1066 9.55375 12.1066Z" fill="white"/>
<path d="M24.9883 6.87906V24.8342C24.9883 26.0285 24.0231 27.0004 22.8371 27.0004H9.73903C8.55304 27.0004 7.58789 26.0285 7.58789 24.8342V12.7773C7.87806 12.901 8.18161 12.9982 8.49615 13.0656V24.8342C8.49615 25.5245 9.05354 26.0858 9.73903 26.0858H22.8371C23.5226 26.0858 24.08 25.5245 24.08 24.8342V6.87906C24.08 6.18877 23.5226 5.6275 22.8371 5.6275H13.9758C13.7951 5.29872 13.5786 4.99209 13.3319 4.71289H22.8371C24.0231 4.71289 24.9883 5.68478 24.9883 6.87906Z" fill="white"/>
</svg>
