<svg width="26" height="26" viewBox="0 0 26 26" fill="none" xmlns="http://www.w3.org/2000/svg">
<path d="M8.55272 16.4664H15.6263C15.8911 16.4664 16.1059 16.25 16.1059 15.9834C16.1059 15.7168 15.8911 15.5005 15.6263 15.5005H8.55272C8.28798 15.5005 8.07312 15.7168 8.07312 15.9834C8.07312 16.25 8.2875 16.4664 8.55272 16.4664Z" fill="#424242"/>
<path d="M8.55272 18.399H18.5039C18.7686 18.399 18.9835 18.1826 18.9835 17.9161C18.9835 17.6495 18.7686 17.4331 18.5039 17.4331H8.55272C8.28798 17.4331 8.07312 17.6495 8.07312 17.9161C8.07312 18.1826 8.2875 18.399 8.55272 18.399Z" fill="#424242"/>
<path d="M8.55272 20.3306H15.6263C15.8911 20.3306 16.1059 20.1143 16.1059 19.8477C16.1059 19.5811 15.8911 19.3647 15.6263 19.3647H8.55272C8.28798 19.3647 8.07312 19.5811 8.07312 19.8477C8.07312 20.1143 8.2875 20.3306 8.55272 20.3306Z" fill="#424242"/>
<path d="M8.55272 22.2623H18.5039C18.7686 22.2623 18.9835 22.0459 18.9835 21.7793C18.9835 21.5127 18.7686 21.2964 18.5039 21.2964H8.55272C8.28798 21.2964 8.07312 21.5127 8.07312 21.7793C8.07312 22.0459 8.2875 22.2623 8.55272 22.2623Z" fill="#424242"/>
<path d="M14.0078 10.2368H15.8782V12.1203C15.8782 12.3869 16.0931 12.6032 16.3578 12.6032H18.2762C18.541 12.6032 18.7558 12.3869 18.7558 12.1203V10.2368H20.6263C20.891 10.2368 21.1059 10.0204 21.1059 9.75385V7.82205C21.1059 7.55546 20.891 7.3391 20.6263 7.3391H18.7558V5.4556C18.7558 5.18902 18.541 4.97266 18.2762 4.97266H16.3578C16.0931 4.97266 15.8782 5.18902 15.8782 5.4556V7.3391H14.0078C13.7431 7.3391 13.5282 7.55546 13.5282 7.82205V9.75385C13.5282 10.0204 13.7431 10.2368 14.0078 10.2368ZM14.4874 8.305H16.3578C16.6226 8.305 16.8374 8.08864 16.8374 7.82205V5.93855H17.7966V7.82205C17.7966 8.08864 18.0115 8.305 18.2762 8.305H20.1467V9.2709H18.2762C18.0115 9.2709 17.7966 9.48726 17.7966 9.75385V11.6373H16.8374V9.75385C16.8374 9.48726 16.6226 9.2709 16.3578 9.2709H14.4874V8.305V8.305Z" fill="#424242"/>
<path d="M15.0983 12.9414L11.4553 9.27344C12.1613 8.39593 12.5857 7.2808 12.5857 6.06618C12.5857 5.17079 12.356 4.32853 11.9517 3.59638C11.7704 3.26653 11.5531 2.95889 11.3057 2.67878C10.3767 1.62547 9.0218 0.960449 7.51538 0.960449C4.7198 0.960449 2.44507 3.25107 2.44507 6.06618C2.44507 8.17715 3.72416 9.99304 5.5428 10.7696C5.83391 10.8937 6.13846 10.9913 6.45403 11.0589C6.79647 11.1333 7.15137 11.1719 7.51538 11.1719C8.72205 11.1719 9.82945 10.744 10.7009 10.0336L14.3434 13.7016C14.4475 13.8064 14.5842 13.859 14.7209 13.859C14.8576 13.859 14.9942 13.8064 15.0983 13.7016C15.3069 13.4915 15.3069 13.1515 15.0983 12.9414ZM7.51538 10.0969C7.14801 10.0969 6.79215 10.0466 6.45403 9.95295C6.13222 9.86361 5.82672 9.73514 5.5428 9.57239C4.33133 8.87887 3.51265 7.5667 3.51265 6.06618C3.51265 3.84317 5.30827 2.03501 7.51538 2.03501C8.31344 2.03501 9.05777 2.27165 9.68317 2.67878C10.064 2.92605 10.4002 3.23707 10.6774 3.59638C11.2045 4.27927 11.5186 5.13602 11.5186 6.06618C11.5186 8.28871 9.72298 10.0969 7.51538 10.0969Z" fill="#424242"/>
<path d="M23 4.85198V22.866C23 24.0642 22.0317 25.0392 20.8418 25.0392H7.7008C6.51091 25.0392 5.5426 24.0642 5.5426 22.866V10.7695C5.83372 10.8937 6.13826 10.9912 6.45384 11.0588V22.866C6.45384 23.5585 7.01305 24.1216 7.7008 24.1216H20.8418C21.5295 24.1216 22.0888 23.5585 22.0888 22.866V4.85198C22.0888 4.15943 21.5295 3.59631 20.8418 3.59631H11.9515C11.7702 3.26646 11.5529 2.95882 11.3055 2.67871H20.8418C22.0317 2.67871 23 3.65378 23 4.85198Z" fill="#424242"/>
</svg>
