<svg width="30" height="30" viewBox="0 0 30 30" fill="none" xmlns="http://www.w3.org/2000/svg">
<path d="M16.8477 15.8477C17.2529 15.9996 18.0522 15.8477 19.2567 17.8007" stroke="white" stroke-width="1.3" stroke-linecap="round"/>
<path d="M20.9234 18.3207C20.4979 15.889 18.0864 14.5718 17.0479 14.2932C17.0479 14.2932 21.2645 9.4241 22.0675 8.62109C24.5601 8.74268 25.9895 10.9749 26.3188 12.1654C25.7362 12.824 22.3673 16.6489 20.9234 18.3207Z" stroke="white" stroke-width="1.3" stroke-linecap="round" stroke-linejoin="round"/>
<path d="M24.8784 9.36951C25.7903 8.48294 27.5958 5.78204 25.4073 3.65428C23.2187 1.52651 19.1205 5.11138 17.6514 6.96051" stroke="white" stroke-width="1.3"/>
<path d="M10.2296 11.4779L8.0146 13.3424" stroke="white" stroke-linecap="round"/>
<path d="M15.5145 20.2094C19.2572 19.4064 22.4692 21.4139 21.1516 25.3872C19.2572 29.0424 14.8407 27.4364 14.4392 23.8229C14.356 23.0744 14.8307 19.1429 18.0527 16.6504" stroke="white" stroke-width="1.3"/>
<path d="M9.67676 16.9531C9.72742 18.093 11.6286 21.0677 15.2421 20.2647" stroke="white" stroke-width="1.3"/>
<circle cx="8.01501" cy="13.4388" r="3.36501" stroke="white" stroke-width="1.3"/>
<path d="M17.4841 9.543C17.079 10.0595 16.5785 10.3878 16.1225 10.5213C15.6651 10.6553 15.3085 10.5839 15.0793 10.4042C14.8502 10.2245 14.6959 9.89521 14.717 9.41905C14.7381 8.94436 14.9376 8.38005 15.3427 7.86355C15.7478 7.34705 16.2483 7.01879 16.7043 6.88524C17.1617 6.75127 17.5183 6.82263 17.7474 7.00232C17.9765 7.18201 18.1308 7.51134 18.1097 7.9875C18.0887 8.46219 17.8891 9.0265 17.4841 9.543Z" stroke="white" stroke-width="1.3"/>
</svg>
