<svg width="18" height="18" viewBox="0 0 18 18" fill="none" xmlns="http://www.w3.org/2000/svg">
<path d="M14.8333 11.8699V13.6199C14.834 13.7824 14.8007 13.9432 14.7356 14.092C14.6705 14.2409 14.5751 14.3745 14.4554 14.4843C14.3357 14.5941 14.1943 14.6778 14.0404 14.7298C13.8865 14.7819 13.7235 14.8012 13.5617 14.7866C11.7667 14.5915 10.0424 13.9781 8.5275 12.9957C7.11807 12.1001 5.92311 10.9052 5.0275 9.49573C4.04166 7.97393 3.42814 6.24131 3.23667 4.43823C3.22209 4.27692 3.24126 4.11434 3.29296 3.96084C3.34466 3.80735 3.42775 3.6663 3.53695 3.54667C3.64615 3.42705 3.77905 3.33147 3.92721 3.26603C4.07537 3.20059 4.23553 3.16671 4.3975 3.16656H6.1475C6.4306 3.16377 6.70505 3.26402 6.9197 3.44862C7.13434 3.63322 7.27455 3.88957 7.31417 4.16989C7.38803 4.72993 7.52501 5.27982 7.7225 5.80906C7.80099 6.01785 7.81797 6.24476 7.77145 6.46291C7.72492 6.68105 7.61684 6.88129 7.46 7.03989L6.71917 7.78073C7.54958 9.24113 8.75877 10.4503 10.2192 11.2807L10.96 10.5399C11.1186 10.3831 11.3188 10.275 11.537 10.2284C11.7551 10.1819 11.982 10.1989 12.1908 10.2774C12.7201 10.4749 13.27 10.6119 13.83 10.6857C14.1134 10.7257 14.3722 10.8684 14.5571 11.0868C14.7421 11.3051 14.8404 11.5838 14.8333 11.8699Z" stroke="#424242" stroke-linecap="round" stroke-linejoin="round"/>
</svg>
