<svg width="24" height="24" viewBox="0 0 24 24" fill="none" xmlns="http://www.w3.org/2000/svg">
<path d="M19.7139 15.6217V18.0734C19.7148 18.3009 19.6681 18.5262 19.5768 18.7348C19.4854 18.9433 19.3514 19.1305 19.1834 19.2844C19.0153 19.4382 18.8169 19.5554 18.6009 19.6283C18.3849 19.7012 18.156 19.7283 17.9288 19.7078C15.4091 19.4345 12.9888 18.5752 10.8622 17.1989C8.88379 15.9442 7.2064 14.2702 5.9492 12.2956C4.56534 10.1637 3.70414 7.73635 3.43536 5.21033C3.41489 4.98434 3.44181 4.75657 3.51438 4.54154C3.58695 4.3265 3.70359 4.12889 3.85687 3.96131C4.01015 3.79372 4.19672 3.65983 4.40469 3.56814C4.61267 3.47646 4.83749 3.429 5.06485 3.42879H7.52137C7.91876 3.42489 8.30402 3.56533 8.60533 3.82394C8.90663 4.08255 9.10344 4.44169 9.15906 4.83441C9.26274 5.61899 9.45503 6.38935 9.73225 7.13079C9.84242 7.42329 9.86626 7.74118 9.80095 8.0468C9.73564 8.35241 9.58392 8.63293 9.36377 8.85512L8.32384 9.89299C9.48951 11.9389 11.1869 13.6329 13.2369 14.7963L14.2768 13.7584C14.4994 13.5387 14.7805 13.3873 15.0867 13.3221C15.393 13.2569 15.7115 13.2807 16.0046 13.3907C16.7475 13.6674 17.5194 13.8593 18.3055 13.9627C18.7033 14.0187 19.0665 14.2187 19.3262 14.5246C19.5859 14.8305 19.7239 15.2209 19.7139 15.6217Z" stroke="#5E7E9B" stroke-width="1.4" stroke-linecap="round" stroke-linejoin="round"/>
</svg>
