<svg width="24" height="24" viewBox="0 0 24 24" fill="none" xmlns="http://www.w3.org/2000/svg">
<path d="M7.1059 3C5.86243 3 4.5376 3.5533 3.48176 4.51073C2.42592 5.46815 1.63941 6.85377 1.59335 8.49648C1.56635 9.45937 1.75572 10.4042 2.09157 11.301H1.19959C1.13144 11.3 1.06378 11.3126 1.00054 11.338C0.9373 11.3634 0.87974 11.4012 0.831206 11.449C0.782673 11.4969 0.744134 11.5539 0.717829 11.6168C0.691524 11.6796 0.677979 11.7471 0.677979 11.8153C0.677979 11.8834 0.691524 11.9509 0.717829 12.0138C0.744134 12.0766 0.782673 12.1337 0.831206 12.1815C0.87974 12.2294 0.9373 12.2671 1.00054 12.2925C1.06378 12.3179 1.13144 12.3305 1.19959 12.3296H7.29072C7.381 12.3312 7.47011 12.309 7.5491 12.2653C7.62809 12.2216 7.69418 12.1578 7.74073 12.0804L9.03449 9.8706L11.0033 15.5117C11.0381 15.6108 11.1025 15.6968 11.1877 15.7581C11.2729 15.8195 11.3748 15.8534 11.4798 15.8551C11.5848 15.8569 11.6878 15.8264 11.775 15.7679C11.8622 15.7094 11.9294 15.6256 11.9676 15.5278L13.7033 11.076L14.5551 14.2823C14.5836 14.384 14.6427 14.4745 14.7244 14.5414C14.8062 14.6083 14.9065 14.6485 15.0119 14.6564C15.1172 14.6643 15.2224 14.6396 15.3132 14.5856C15.404 14.5316 15.476 14.4509 15.5194 14.3546L16.4033 12.3296H17.8899C17.9581 12.3305 18.0257 12.3179 18.089 12.2925C18.1522 12.2671 18.2098 12.2294 18.2583 12.1815C18.3069 12.1337 18.3454 12.0766 18.3717 12.0138C18.398 11.9509 18.4115 11.8834 18.4115 11.8153C18.4115 11.7471 18.398 11.6796 18.3717 11.6168C18.3454 11.5539 18.3069 11.4969 18.2583 11.449C18.2098 11.4012 18.1522 11.3634 18.089 11.338C18.0257 11.3126 17.9581 11.3 17.8899 11.301H16.0658C15.9661 11.3024 15.869 11.3328 15.7862 11.3884C15.7035 11.4441 15.6387 11.5226 15.5997 11.6144L15.1658 12.6028L14.2899 9.30006C14.2613 9.19652 14.2009 9.10454 14.1173 9.03704C14.0337 8.96954 13.9311 8.92991 13.8239 8.9237C13.7166 8.9175 13.6101 8.94504 13.5193 9.00245C13.4285 9.05986 13.358 9.14426 13.3176 9.24381L11.5175 13.8564L9.63717 8.48041C9.59714 8.36591 9.51793 8.26924 9.41353 8.20749C9.30913 8.14573 9.18626 8.12286 9.06663 8.14291C8.99315 8.15627 8.92345 8.18547 8.86239 8.22849C8.80133 8.27151 8.75037 8.32731 8.71306 8.39202L7.00143 11.301H3.20854C2.81591 10.3914 2.59562 9.4669 2.62193 8.52862C2.6593 7.19566 3.29205 6.07281 4.17284 5.27413C5.05362 4.47544 6.18278 4.02858 7.1059 4.02858C8.8473 4.02858 9.92322 4.68301 10.6015 5.33842C11.2797 5.99382 11.5175 6.61611 11.5175 6.61611C11.5541 6.71451 11.6199 6.79937 11.7061 6.85929C11.7923 6.91922 11.8947 6.95133 11.9997 6.95133C12.1047 6.95133 12.2071 6.91922 12.2933 6.85929C12.3795 6.79937 12.4453 6.71451 12.4818 6.61611C12.4818 6.61611 12.7197 5.99382 13.3979 5.33842C14.0762 4.68301 15.1521 4.02858 16.8935 4.02858C17.8166 4.02858 18.9458 4.47544 19.8266 5.27413C20.7073 6.07281 21.3401 7.19566 21.3775 8.52862C21.4037 9.4627 21.181 10.3963 20.7909 11.301H19.915C19.8468 11.3 19.7791 11.3126 19.7159 11.338C19.6527 11.3634 19.5951 11.4012 19.5466 11.449C19.498 11.4969 19.4595 11.5539 19.4332 11.6168C19.4069 11.6796 19.3933 11.7471 19.3933 11.8153C19.3933 11.8834 19.4069 11.9509 19.4332 12.0138C19.4595 12.0766 19.498 12.1337 19.5466 12.1815C19.5951 12.2294 19.6527 12.2671 19.7159 12.2925C19.7791 12.3179 19.8468 12.3305 19.915 12.3296H20.2685C19.9712 12.8408 19.6306 13.3387 19.248 13.8242C17.9512 15.4697 16.2602 16.9228 14.8122 18.0028C14.757 18.0426 14.7102 18.0929 14.6746 18.1509C14.6389 18.2089 14.6151 18.2733 14.6046 18.3406C14.594 18.4078 14.5969 18.4764 14.6131 18.5425C14.6293 18.6086 14.6584 18.6709 14.6988 18.7256C14.7392 18.7804 14.7901 18.8266 14.8485 18.8616C14.9069 18.8965 14.9716 18.9195 15.039 18.9293C15.1063 18.9391 15.175 18.9353 15.2409 18.9184C15.3068 18.9014 15.3687 18.8716 15.4229 18.8305C16.9162 17.7167 18.6684 16.2222 20.0516 14.4671C20.5838 13.7917 21.0637 13.0803 21.4498 12.3296H22.7998C22.868 12.3305 22.9356 12.3179 22.9989 12.2925C23.0621 12.2671 23.1197 12.2294 23.1682 12.1815C23.2167 12.1337 23.2553 12.0766 23.2816 12.0138C23.3079 11.9509 23.3214 11.8834 23.3214 11.8153C23.3214 11.7471 23.3079 11.6796 23.2816 11.6168C23.2553 11.5539 23.2167 11.4969 23.1682 11.449C23.1197 11.4012 23.0621 11.3634 22.9989 11.338C22.9356 11.3126 22.868 11.3 22.7998 11.301H21.9078C22.2454 10.4037 22.4331 9.46194 22.406 8.49648C22.36 6.85377 21.5735 5.46815 20.5176 4.51073C19.4618 3.5533 18.137 3 16.8935 3C14.8853 3 13.514 3.79585 12.6827 4.59912C12.3648 4.90632 12.1807 5.19051 11.9997 5.45895C11.8187 5.19051 11.6346 4.90632 11.3167 4.59912C10.4854 3.79585 9.11406 3 7.1059 3ZM4.34962 13.6072C4.25059 13.6044 4.15283 13.6301 4.0681 13.6815C3.98336 13.7328 3.91526 13.8075 3.87197 13.8966C3.82868 13.9858 3.81206 14.0855 3.82409 14.1838C3.83612 14.2822 3.8763 14.3749 3.9398 14.451C6.95204 18.2865 11.7506 20.9359 11.7506 20.9359C11.8699 21.002 12.0106 21.0179 12.1418 20.9802C12.2729 20.9426 12.3836 20.8543 12.4497 20.735C12.5158 20.6156 12.5317 20.4749 12.494 20.3438C12.4564 20.2127 12.3682 20.1019 12.2488 20.0359C12.2488 20.0359 7.56739 17.4119 4.74338 13.8162C4.69762 13.754 4.63847 13.703 4.57031 13.6668C4.50215 13.6307 4.42672 13.6103 4.34962 13.6072V13.6072Z" fill="#424242"/>
</svg>
