<svg width="47" height="47" viewBox="0 0 47 47" fill="none" xmlns="http://www.w3.org/2000/svg">
<path d="M11 0.5C5.20101 0.5 0.5 5.20101 0.5 11V36C0.5 41.799 5.20101 46.5 11 46.5H36C41.799 46.5 46.5 41.799 46.5 36V11C46.5 5.20101 41.799 0.5 36 0.5H11Z" fill="#1261A0"/>
<path d="M34.1 23.5V23.4997C34.0959 21.8549 33.7109 20.2335 32.9753 18.7623C32.245 17.3016 31.1886 16.0284 29.888 15.0412H31.8824H31.9824V14.9412V13.7059V13.6059H31.8824H27.4706H27.3706V13.7059V18.1177V18.2176H27.4706H28.7059H28.8059V18.1177V16.0324C30.578 17.2933 31.8441 19.1436 32.3776 21.2526C32.9129 23.3696 32.6748 25.6082 31.7061 27.5652C30.7373 29.5223 29.1017 31.0691 27.0937 31.9271C25.0857 32.7852 22.8372 32.8981 20.7534 32.2455C18.6696 31.5928 16.8872 30.2176 15.7274 28.3674C14.5676 26.5172 14.1065 24.3136 14.4272 22.1537C14.7479 19.9937 15.8293 18.0192 17.4767 16.5858C19.124 15.1524 21.2291 14.3543 23.4127 14.3353L23.5118 14.3344V14.2353V13V12.8992L23.411 12.9C21.3183 12.9176 19.2778 13.5542 17.5464 14.7296C15.8149 15.905 14.4702 17.5665 13.6815 19.5049C12.8929 21.4433 12.6956 23.5717 13.1147 25.622C13.5337 27.6724 14.5502 29.5527 16.0361 31.0263C17.522 32.4998 19.4109 33.5005 21.4646 33.9023C23.5183 34.3042 25.645 34.0892 27.5768 33.2843C29.5085 32.4795 31.1588 31.1209 32.3196 29.3797C33.4805 27.6385 34.0999 25.5926 34.1 23.5Z" fill="white" stroke="white" stroke-width="0.2"/>
<path d="M11 0.5C5.20101 0.5 0.5 5.20101 0.5 11V36C0.5 41.799 5.20101 46.5 11 46.5H36C41.799 46.5 46.5 41.799 46.5 36V11C46.5 5.20101 41.799 0.5 36 0.5H11Z" stroke="#1261A0"/>
</svg>
