<svg width="263" height="40" viewBox="0 0 263 40" fill="none" xmlns="http://www.w3.org/2000/svg">
<path d="M36.5094 0H3.56398C1.59565 0 0 1.59273 0 3.55745V36.4425C0 38.4073 1.59565 40 3.56398 40H36.5094C38.4777 40 40.0733 38.4073 40.0733 36.4425V3.55745C40.0733 1.59273 38.4777 0 36.5094 0Z" fill="#27255E"/>
<path d="M30.39 9.40918L22.7702 32.3227H17.0679L9.63342 9.40918H14.8297L19.9404 25.5173H20.0046L25.1795 9.40918H30.39Z" fill="#FDEB01"/>
<path d="M81.0946 0H48.1492C46.1809 0 44.5852 1.59273 44.5852 3.55745V36.4425C44.5852 38.4073 46.1809 40 48.1492 40H81.0946C83.0629 40 84.6585 38.4073 84.6585 36.4425V3.55745C84.6585 1.59273 83.0629 0 81.0946 0Z" fill="#27255E"/>
<path d="M62.0667 32.3227V9.40918H67.1132V32.3227H62.0667Z" fill="#FDEB01"/>
<path d="M125.68 0H92.7346C90.7663 0 89.1707 1.59273 89.1707 3.55745V36.4425C89.1707 38.4073 90.7663 40 92.7346 40H125.68C127.648 40 129.244 38.4073 129.244 36.4425V3.55745C129.244 1.59273 127.648 0 125.68 0Z" fill="#27255E"/>
<path d="M99.499 32.3227V28.3419L111.809 13.6461H100.461V9.40918H118.531V13.3864L106.217 28.0858H118.851V32.3227H99.499Z" fill="#FDEB01"/>
<path d="M170.265 0H137.32C135.352 0 133.756 1.59273 133.756 3.55745V36.4425C133.756 38.4073 135.352 40 137.32 40H170.265C172.234 40 173.829 38.4073 173.829 36.4425V3.55745C173.829 1.59273 172.234 0 170.265 0Z" fill="#27255E"/>
<path d="M144.084 32.3227V28.3419L156.394 13.6461H145.064V9.40918H163.134V13.3864L150.802 28.0858H163.437V32.3227H144.084Z" fill="#FDEB01"/>
<path d="M214.851 0H181.905C179.937 0 178.341 1.59273 178.341 3.55745V36.4425C178.341 38.4073 179.937 40 181.905 40H214.851C216.819 40 218.415 38.4073 218.415 36.4425V3.55745C218.415 1.59273 216.819 0 214.851 0Z" fill="#27255E"/>
<path d="M188.652 32.3227V9.40918H193.698V18.2032H202.99V9.40918H208.036V32.3227H202.99V22.4366H193.698V32.3227H188.652Z" fill="#FDEB01"/>
<path d="M259.436 0H226.491C224.522 0 222.927 1.59273 222.927 3.55745V36.4425C222.927 38.4073 224.522 40 226.491 40H259.436C261.404 40 263 38.4073 263 36.4425V3.55745C263 1.59273 261.404 0 259.436 0Z" fill="#27255E"/>
<path d="M240.372 32.3227V23.4006L231.919 9.40918H237.621L242.988 18.4593L248.334 9.40918H253.958L245.44 23.5287V32.3227H240.372Z" fill="#FDEB01"/>
</svg>
