<svg width="24" height="24" viewBox="0 0 24 24" fill="none" xmlns="http://www.w3.org/2000/svg">
<path d="M19.5859 6.46901C19.8589 6.26993 20.2434 6.32898 20.4254 6.61368C21.5846 8.42681 22.131 10.5711 21.9735 12.7282C21.8011 15.0893 20.7966 17.3126 19.1388 19.0027C17.481 20.6927 15.2774 21.7398 12.9201 21.9576C10.7664 22.1566 8.612 21.6516 6.7769 20.5276C6.48874 20.3511 6.4223 19.9678 6.61609 19.6909C6.80988 19.4141 7.19041 19.3488 7.48006 19.5229C9.07658 20.4821 10.9423 20.9114 12.8075 20.7391C14.8764 20.5479 16.8103 19.629 18.2652 18.1457C19.7201 16.6625 20.6017 14.7112 20.753 12.6391C20.8894 10.771 20.4243 8.91381 19.4345 7.33606C19.2549 7.04981 19.3128 6.6681 19.5859 6.46901Z" fill="#424242"/>
<path d="M7.40021 21.9233L6.56543 19.6538L8.8877 19" stroke="#424242" stroke-width="1.4" stroke-linecap="round" stroke-linejoin="round"/>
<path d="M4.41413 17.531C4.14109 17.7301 3.7566 17.671 3.57457 17.3863C2.4154 15.5732 1.86905 13.4289 2.02655 11.2718C2.19894 8.91071 3.2034 6.68735 4.86119 4.99733C6.51898 3.30731 8.72259 2.26024 11.0799 2.04242C13.2336 1.84342 15.388 2.34838 17.2231 3.47243C17.5113 3.64894 17.5777 4.03222 17.3839 4.30905C17.1901 4.58588 16.8096 4.65117 16.5199 4.47713C14.9234 3.51786 13.0577 3.0886 11.1925 3.26094C9.12365 3.45211 7.1897 4.37105 5.73478 5.85426C4.27985 7.33747 3.39831 9.28875 3.24702 11.3609C3.11062 13.229 3.57571 15.0862 4.56555 16.6639C4.74513 16.9502 4.68718 17.3319 4.41413 17.531Z" fill="#424242"/>
<path d="M16.5998 2.07674L17.4346 4.34619L15.1123 5.00004" stroke="#424242" stroke-width="1.4" stroke-linecap="round" stroke-linejoin="round"/>
<path d="M15.3 11.6001H9.70002C9.2582 11.6001 8.90002 11.9583 8.90002 12.4001V15.2001C8.90002 15.6419 9.2582 16.0001 9.70002 16.0001H15.3C15.7419 16.0001 16.1 15.6419 16.1 15.2001V12.4001C16.1 11.9583 15.7419 11.6001 15.3 11.6001Z" stroke="#424242" stroke-width="1.4" stroke-linecap="round" stroke-linejoin="round"/>
<path d="M10.5 11.6V10C10.5 9.46957 10.7107 8.96086 11.0858 8.58579C11.4609 8.21071 11.9696 8 12.5 8C13.0305 8 13.5392 8.21071 13.9142 8.58579C14.2893 8.96086 14.5 9.46957 14.5 10V11.6" stroke="#424242" stroke-width="1.4" stroke-linecap="round" stroke-linejoin="round"/>
</svg>
