<svg width="24" height="24" viewBox="0 0 24 24" fill="none" xmlns="http://www.w3.org/2000/svg">
<path d="M22 23V6C22 5.44772 21.5496 5 20.9974 5C19.4057 5 20.582 5 18.5 5M5.5 5C3.418 5 4.59427 5 3.00264 5C2.45036 5 2 5.44772 2 6L2 22C2 22.5523 2.44772 23 3 23H12" stroke="#424242"/>
<path d="M7.5 5L16.5 5" stroke="#424242"/>
<line x1="2" y1="9.5" x2="22" y2="9.5" stroke="#424242"/>
<rect x="5.5" y="2.5" width="2" height="5" rx="1" stroke="#424242"/>
<rect x="16.5" y="2.5" width="2" height="5" rx="1" stroke="#424242"/>
<rect x="4" y="11" width="1" height="1" fill="#424242"/>
<rect x="4" y="13" width="1" height="1" fill="#424242"/>
<rect x="8" y="13" width="1" height="1" fill="#424242"/>
<rect x="10" y="13" width="8" height="1" fill="#424242"/>
<rect x="17" y="17" width="4" height="1" transform="rotate(-90 17 17)" fill="#424242"/>
<rect x="4" y="15" width="1" height="1" fill="#424242"/>
<rect x="6" y="11" width="1" height="1" fill="#424242"/>
<rect x="6" y="15" width="1" height="1" fill="#424242"/>
<rect x="8" y="11" width="1" height="1" fill="#424242"/>
<rect x="8" y="15" width="1" height="1" fill="#424242"/>
<rect x="15.5" y="18.5" width="4" height="4" stroke="#424242"/>
<path d="M16 15.5L17.5 17L19 15.5" stroke="#424242" stroke-linecap="round" stroke-linejoin="round"/>
</svg>
