<svg width="24" height="24" viewBox="0 0 24 24" fill="none" xmlns="http://www.w3.org/2000/svg">
<path d="M19.5325 4.10389H17.4286V2.70131C17.4286 2.31398 17.1146 2 16.7273 2C16.3399 2 16.026 2.31398 16.026 2.70131V4.10389H7.61037V2.70131C7.61037 2.31398 7.29639 2 6.9091 2C6.52181 2 6.20779 2.31398 6.20779 2.70131V4.10389H4.10389C2.94194 4.10389 2 5.04584 2 6.20779V19.5325C2 20.6944 2.94194 21.6364 4.10389 21.6364H19.5325C20.6944 21.6364 21.6364 20.6944 21.6364 19.5325V6.20779C21.6364 5.04584 20.6944 4.10389 19.5325 4.10389ZM20.2337 19.5325C20.2337 19.9198 19.9198 20.2338 19.5324 20.2338H4.10389C3.71656 20.2338 3.40258 19.9198 3.40258 19.5325V10.4156H20.2337V19.5325ZM20.2337 9.013H3.40258V6.20779C3.40258 5.82046 3.71656 5.50648 4.10389 5.50648H6.20779V6.90906C6.20779 7.29639 6.52177 7.61037 6.9091 7.61037C7.29643 7.61037 7.61041 7.29639 7.61041 6.90906V5.50648H16.026V6.90906C16.026 7.29639 16.34 7.61037 16.7273 7.61037C17.1146 7.61037 17.4286 7.29639 17.4286 6.90906V5.50648H19.5325C19.9198 5.50648 20.2338 5.82046 20.2338 6.20779V9.013H20.2337Z" fill="white"/>
<path d="M16.5046 12.0235C16.2328 11.761 15.802 11.761 15.5302 12.0235L10.4156 17.1381L8.10622 14.8287C7.82762 14.5596 7.38366 14.5674 7.11459 14.8459C6.8521 15.1177 6.8521 15.5485 7.11459 15.8203L9.9198 18.6255C10.1937 18.8993 10.6376 18.8993 10.9114 18.6255L16.5218 13.0152C16.7909 12.7366 16.7831 12.2926 16.5046 12.0235Z" fill="white"/>
</svg>
