<svg width="24" height="24" viewBox="0 0 24 24" fill="none" xmlns="http://www.w3.org/2000/svg">
<path d="M20.6385 2.57826H17.4897V1.79109C17.4897 1.58231 17.4068 1.38209 17.2592 1.23447C17.1116 1.08684 16.9113 1.00391 16.7026 1.00391C16.4938 1.00391 16.2936 1.08684 16.1459 1.23447C15.9983 1.38209 15.9154 1.58231 15.9154 1.79109V2.57826H8.0436V1.79109C8.0436 1.58231 7.96066 1.38209 7.81304 1.23447C7.66541 1.08684 7.46519 1.00391 7.25642 1.00391C7.04764 1.00391 6.84742 1.08684 6.6998 1.23447C6.55217 1.38209 6.46924 1.58231 6.46924 1.79109V2.57826H3.32052C2.6942 2.57826 2.09354 2.82707 1.65066 3.26994C1.20779 3.71282 0.958984 4.31348 0.958984 4.9398V20.6834C0.958984 21.3097 1.20779 21.9104 1.65066 22.3532C2.09354 22.7961 2.6942 23.0449 3.32052 23.0449H20.6385C21.2648 23.0449 21.8654 22.7961 22.3083 22.3532C22.7512 21.9104 23 21.3097 23 20.6834V4.9398C23 4.31348 22.7512 3.71282 22.3083 3.26994C21.8654 2.82707 21.2648 2.57826 20.6385 2.57826ZM3.32052 4.15262H6.46924V4.9398C6.46924 5.14857 6.55217 5.3488 6.6998 5.49642C6.84742 5.64405 7.04764 5.72698 7.25642 5.72698C7.46519 5.72698 7.66541 5.64405 7.81304 5.49642C7.96066 5.3488 8.0436 5.14857 8.0436 4.9398V4.15262H15.9154V4.9398C15.9154 5.14857 15.9983 5.3488 16.1459 5.49642C16.2936 5.64405 16.4938 5.72698 16.7026 5.72698C16.9113 5.72698 17.1116 5.64405 17.2592 5.49642C17.4068 5.3488 17.4897 5.14857 17.4897 4.9398V4.15262H20.6385C20.8472 4.15262 21.0475 4.23556 21.1951 4.38318C21.3427 4.53081 21.4256 4.73103 21.4256 4.9398V7.30134H2.53334V4.9398C2.53334 4.73103 2.61628 4.53081 2.7639 4.38318C2.91153 4.23556 3.11175 4.15262 3.32052 4.15262ZM20.6385 21.4706H3.32052C3.11175 21.4706 2.91153 21.3876 2.7639 21.24C2.61628 21.0924 2.53334 20.8922 2.53334 20.6834V8.8757H21.4256V20.6834C21.4256 20.8922 21.3427 21.0924 21.1951 21.24C21.0475 21.3876 20.8472 21.4706 20.6385 21.4706ZM15.9154 15.1731C15.9154 15.3288 15.8692 15.481 15.7827 15.6105C15.6962 15.7399 15.5733 15.8408 15.4294 15.9004C15.2856 15.96 15.1273 15.9756 14.9746 15.9452C14.8219 15.9148 14.6817 15.8398 14.5716 15.7297C14.4615 15.6197 14.3865 15.4794 14.3562 15.3267C14.3258 15.174 14.3414 15.0157 14.401 14.8719C14.4605 14.7281 14.5614 14.6051 14.6909 14.5186C14.8203 14.4321 14.9725 14.386 15.1282 14.386C15.337 14.386 15.5372 14.4689 15.6848 14.6165C15.8325 14.7641 15.9154 14.9644 15.9154 15.1731ZM19.0641 15.1731C19.0641 15.3288 19.0179 15.481 18.9314 15.6105C18.8449 15.7399 18.722 15.8408 18.5782 15.9004C18.4343 15.96 18.2761 15.9756 18.1234 15.9452C17.9707 15.9148 17.8304 15.8398 17.7203 15.7297C17.6102 15.6197 17.5352 15.4794 17.5049 15.3267C17.4745 15.174 17.4901 15.0157 17.5497 14.8719C17.6092 14.7281 17.7101 14.6051 17.8396 14.5186C17.969 14.4321 18.1212 14.386 18.2769 14.386C18.4857 14.386 18.6859 14.4689 18.8335 14.6165C18.9812 14.7641 19.0641 14.9644 19.0641 15.1731ZM12.7667 12.0244C12.7667 12.1801 12.7205 12.3323 12.634 12.4617C12.5475 12.5912 12.4246 12.6921 12.2807 12.7517C12.1369 12.8113 11.9786 12.8268 11.8259 12.7965C11.6732 12.7661 11.533 12.6911 11.4229 12.581C11.3128 12.4709 11.2378 12.3307 11.2074 12.178C11.1771 12.0253 11.1927 11.867 11.2522 11.7232C11.3118 11.5793 11.4127 11.4564 11.5422 11.3699C11.6716 11.2834 11.8238 11.2372 11.9795 11.2372C12.1883 11.2372 12.3885 11.3202 12.5361 11.4678C12.6837 11.6154 12.7667 11.8156 12.7667 12.0244ZM15.9154 12.0244C15.9154 12.1801 15.8692 12.3323 15.7827 12.4617C15.6962 12.5912 15.5733 12.6921 15.4294 12.7517C15.2856 12.8113 15.1273 12.8268 14.9746 12.7965C14.8219 12.7661 14.6817 12.6911 14.5716 12.581C14.4615 12.4709 14.3865 12.3307 14.3562 12.178C14.3258 12.0253 14.3414 11.867 14.401 11.7232C14.4605 11.5793 14.5614 11.4564 14.6909 11.3699C14.8203 11.2834 14.9725 11.2372 15.1282 11.2372C15.337 11.2372 15.5372 11.3202 15.6848 11.4678C15.8325 11.6154 15.9154 11.8156 15.9154 12.0244ZM19.0641 12.0244C19.0641 12.1801 19.0179 12.3323 18.9314 12.4617C18.8449 12.5912 18.722 12.6921 18.5782 12.7517C18.4343 12.8113 18.2761 12.8268 18.1234 12.7965C17.9707 12.7661 17.8304 12.6911 17.7203 12.581C17.6102 12.4709 17.5352 12.3307 17.5049 12.178C17.4745 12.0253 17.4901 11.867 17.5497 11.7232C17.6092 11.5793 17.7101 11.4564 17.8396 11.3699C17.969 11.2834 18.1212 11.2372 18.2769 11.2372C18.4857 11.2372 18.6859 11.3202 18.8335 11.4678C18.9812 11.6154 19.0641 11.8156 19.0641 12.0244Z" fill="#DEDEDE"/>
<path d="M15.3386 17.8213L13.3735 16.3471C13.2329 16.2427 13.0598 16.1922 12.8853 16.2046C12.7107 16.2169 12.5463 16.2913 12.4218 16.4144L11.4449 17.3691C11.4007 17.417 11.3315 17.4327 11.271 17.4085C10.447 17.0821 9.69896 16.5896 9.07359 15.9616C8.44823 15.3336 7.95868 14.5835 7.63571 13.7582C7.61142 13.6975 7.62705 13.6284 7.675 13.584L8.64067 12.6181C8.7637 12.4936 8.83814 12.3292 8.85042 12.1547C8.86282 11.98 8.81229 11.8068 8.708 11.6663L7.23419 9.70073C7.1339 9.56706 6.9907 9.47218 6.82864 9.43172C6.66658 9.39138 6.49561 9.40793 6.34438 9.4789L4.55627 10.3212H4.55614C4.41463 10.3865 4.29805 10.496 4.22413 10.6333C4.15021 10.7704 4.12294 10.928 4.14633 11.0822C4.52022 13.5736 5.67169 15.883 7.43628 17.6807C9.22595 19.4107 11.5103 20.5393 13.9714 20.9098H14.0782C14.2165 20.9099 14.3519 20.8704 14.4685 20.7957C14.5849 20.7211 14.6775 20.6144 14.7351 20.4887L15.5772 18.7001V18.6999C15.6434 18.5482 15.6558 18.3783 15.6125 18.2185C15.5691 18.0588 15.4724 17.9185 15.3386 17.8212L15.3386 17.8213ZM15.0579 18.4755L14.2158 20.2641H14.2157C14.185 20.3305 14.1138 20.3685 14.0416 20.3568C11.7679 20.0124 9.65127 18.9886 7.96959 17.4196L7.64392 17.0939L7.64405 17.094C6.07422 15.4083 5.05066 13.2873 4.70767 11.0092C4.69591 10.9369 4.73391 10.8657 4.80033 10.835L6.59129 9.99272C6.66224 9.95976 6.74638 9.98083 6.79342 10.0433L8.26723 12.0088C8.31608 12.075 8.30897 12.1671 8.25043 12.225L7.28476 13.1909H7.28463C7.18448 13.2904 7.11559 13.4171 7.08664 13.5554C7.05769 13.6936 7.06997 13.8374 7.12192 13.9687C7.47242 14.8662 8.00462 15.6815 8.68529 16.3634C9.36597 17.0452 10.1804 17.5788 11.0772 17.9307C11.2085 17.9826 11.3522 17.9948 11.4904 17.966C11.6286 17.937 11.7553 17.8681 11.8548 17.7678L12.8205 16.8019C12.8777 16.742 12.9708 16.7348 13.0366 16.7849L15.0016 18.2591C15.0644 18.3071 15.0855 18.3924 15.0521 18.4642L15.0579 18.4755Z" fill="#DEDEDE" stroke="#DEDEDE" stroke-width="0.5"/>
</svg>
