<svg width="24" height="24" viewBox="0 0 24 24" fill="none" xmlns="http://www.w3.org/2000/svg">
<path d="M11.5 8.43701C10.7711 8.43701 10.0586 8.65315 9.45254 9.05809C8.8465 9.46303 8.37415 10.0386 8.09522 10.712C7.81629 11.3854 7.74331 12.1264 7.88551 12.8412C8.02771 13.5561 8.37869 14.2127 8.89409 14.7281C9.40948 15.2435 10.0661 15.5945 10.781 15.7367C11.4959 15.8789 12.2369 15.8059 12.9102 15.527C13.5836 15.2481 14.1592 14.7757 14.5641 14.1697C14.9691 13.5637 15.1852 12.8511 15.1852 12.1223C15.1841 11.1452 14.7955 10.2085 14.1046 9.51762C13.4137 8.82674 12.477 8.43812 11.5 8.43701ZM11.5 14.4674C11.0361 14.4674 10.5827 14.3299 10.1971 14.0722C9.81139 13.8145 9.51081 13.4482 9.33331 13.0197C9.15581 12.5912 9.10937 12.1197 9.19985 11.6648C9.29034 11.2098 9.5137 10.792 9.84168 10.464C10.1697 10.136 10.5875 9.91266 11.0424 9.82217C11.4974 9.73168 11.9689 9.77812 12.3974 9.95562C12.8259 10.1331 13.1922 10.4337 13.4499 10.8194C13.7076 11.205 13.8451 11.6584 13.8451 12.1223C13.8444 12.744 13.5971 13.3401 13.1575 13.7798C12.7178 14.2194 12.1217 14.4667 11.5 14.4674Z" fill="#424242"/>
<path d="M20.6942 14.9003L19.3637 13.805C19.5996 12.6961 19.5996 11.5499 19.3637 10.4409L20.6942 9.34567C20.8476 9.21995 20.9513 9.0437 20.9866 8.8485C21.022 8.6533 20.9867 8.45189 20.8871 8.28034L19.5213 5.91495C19.4226 5.74284 19.2658 5.61152 19.079 5.54453C18.8923 5.47753 18.6878 5.47924 18.5021 5.54935L16.8873 6.15436C16.0461 5.39431 15.0536 4.82071 13.9751 4.4712L13.6918 2.77218C13.6597 2.57637 13.5589 2.39839 13.4075 2.27013C13.2561 2.14187 13.064 2.07173 12.8656 2.07227H10.1342C9.93581 2.07174 9.7437 2.14188 9.59231 2.27012C9.44092 2.39837 9.34015 2.57634 9.30805 2.77213L9.02487 4.4712C7.94635 4.8207 6.95391 5.3943 6.11268 6.15436L4.49766 5.54927C4.31205 5.47921 4.10756 5.47752 3.92083 5.54452C3.7341 5.61152 3.57732 5.74283 3.4786 5.91491L2.11292 8.28047C2.01332 8.45202 1.97804 8.65344 2.01342 8.84864C2.04879 9.04383 2.1525 9.22006 2.30598 9.34576L3.63631 10.4409C3.40046 11.5499 3.40046 12.6961 3.63631 13.805L2.30585 14.9003C2.1524 15.026 2.04872 15.2022 2.01337 15.3974C1.97802 15.5926 2.01331 15.7941 2.11292 15.9656L3.47864 18.331C3.57738 18.5031 3.73418 18.6344 3.92094 18.7014C4.1077 18.7684 4.31221 18.7667 4.49783 18.6966L6.11272 18.0916C6.95396 18.8517 7.94639 19.4252 9.02492 19.7747L9.30809 21.4738C9.34018 21.6696 9.44094 21.8475 9.59232 21.9758C9.74371 22.1041 9.93581 22.1742 10.1342 22.1737H12.8656C13.064 22.1742 13.2561 22.1041 13.4075 21.9758C13.5589 21.8476 13.6597 21.6696 13.6918 21.4738L13.975 19.7747C15.0535 19.4252 16.0459 18.8516 16.8872 18.0916L18.5021 18.6967C18.6878 18.7667 18.8922 18.7684 19.079 18.7014C19.2657 18.6344 19.4225 18.5031 19.5212 18.331L20.8868 15.9655C20.9864 15.794 21.0218 15.5926 20.9865 15.3974C20.9512 15.2023 20.8476 15.026 20.6942 14.9003ZM18.5736 17.2923L16.5589 16.5375L16.2538 16.8447C15.4145 17.6907 14.3646 18.2975 13.2125 18.6024L12.7937 18.7128L12.44 20.8336H10.5601L10.2066 18.7128L9.78781 18.6024C8.6357 18.2975 7.5858 17.6907 6.74642 16.8447L6.44134 16.5375L4.4263 17.2923L3.48651 15.6643L5.1461 14.298L5.03303 13.8804C4.72207 12.7294 4.72207 11.5165 5.03303 10.3656L5.1461 9.94796L3.48651 8.58174L4.42651 6.9536L6.44121 7.70841L6.74629 7.40128C7.58567 6.55524 8.63557 5.94846 9.78768 5.64354L10.2065 5.53315L10.56 3.41236H12.44L12.7936 5.53315L13.2123 5.64354C14.3644 5.94846 15.4143 6.55524 16.2537 7.40128L16.5588 7.70841L18.5735 6.9536L19.5135 8.58169L17.854 9.94796L17.967 10.3656C18.278 11.5165 18.278 12.7294 17.967 13.8804L17.854 14.298L19.5135 15.6642L18.5736 17.2923Z" fill="#424242"/>
</svg>
