<svg width="79" height="79" viewBox="0 0 79 79" fill="none" xmlns="http://www.w3.org/2000/svg">
<path d="M55.7288 21.2568C55.7288 21.7507 55.9276 22.2243 56.2817 22.5736C56.6357 22.9228 57.1158 23.119 57.6165 23.119H61.845C62.3457 23.119 62.8259 22.9228 63.1799 22.5736C63.5339 22.2243 63.7328 21.7507 63.7328 21.2568C63.7328 20.7629 63.5339 20.2892 63.1799 19.94C62.8259 19.5907 62.3457 19.3945 61.845 19.3945H57.6165C57.1158 19.3945 56.6357 19.5907 56.2817 19.94C55.9276 20.2892 55.7288 20.7629 55.7288 21.2568Z" fill="#3F51B5"/>
<path d="M26.7178 21.2568C26.7178 21.7507 26.9167 22.2243 27.2707 22.5736C27.6247 22.9228 28.1049 23.119 28.6055 23.119H32.8341C33.3347 23.119 33.8149 22.9228 34.1689 22.5736C34.5229 22.2243 34.7218 21.7507 34.7218 21.2568C34.7218 20.7629 34.5229 20.2892 34.1689 19.94C33.8149 19.5907 33.3347 19.3945 32.8341 19.3945H28.6055C28.1049 19.3945 27.6247 19.5907 27.2707 19.94C26.9167 20.2892 26.7178 20.7629 26.7178 21.2568Z" fill="#3F51B5"/>
<path d="M47.113 9.03366V4.86224C47.113 4.36834 46.9141 3.89468 46.5601 3.54544C46.2061 3.1962 45.7259 3 45.2253 3C44.7246 3 44.2445 3.1962 43.8904 3.54544C43.5364 3.89468 43.3375 4.36834 43.3375 4.86224V9.03366C43.3375 9.52755 43.5364 10.0012 43.8904 10.3505C44.2445 10.6997 44.7246 10.8959 45.2253 10.8959C45.7259 10.8959 46.2061 10.6997 46.5601 10.3505C46.9141 10.0012 47.113 9.52755 47.113 9.03366Z" fill="#3F51B5"/>
<path d="M55.6682 8.34886L52.6478 11.3284C52.2934 11.6781 52.0942 12.1524 52.0942 12.6469C52.0942 13.1414 52.2934 13.6157 52.6478 13.9654C53.0023 14.3151 53.4831 14.5115 53.9844 14.5115C54.4857 14.5115 54.9664 14.3151 55.3209 13.9654L58.3413 10.9858C58.6957 10.6361 58.8949 10.1618 58.8949 9.66733C58.8949 9.17281 58.6957 8.69854 58.3413 8.34886C57.9868 7.99918 57.506 7.80273 57.0047 7.80273C56.5035 7.80273 56.0227 7.99918 55.6682 8.34886V8.34886Z" fill="#3F51B5"/>
<path d="M36.4662 14.4789C36.84 14.4795 37.2057 14.3707 37.5167 14.1661C37.8278 13.9615 38.0703 13.6704 38.2134 13.3297C38.3566 12.989 38.394 12.6141 38.3208 12.2524C38.2477 11.8907 38.0674 11.5586 37.8027 11.2982L34.7823 8.31859C34.6068 8.14544 34.3984 8.0081 34.1691 7.91439C33.9398 7.82069 33.694 7.77246 33.4458 7.77246C33.1976 7.77246 32.9518 7.82069 32.7225 7.91439C32.4932 8.0081 32.2848 8.14544 32.1093 8.31859C31.9338 8.49173 31.7945 8.69728 31.6995 8.9235C31.6046 9.14973 31.5557 9.39219 31.5557 9.63705C31.5557 9.88191 31.6046 10.1244 31.6995 10.3506C31.7945 10.5768 31.9338 10.7824 32.1093 10.9555L35.1297 13.9351C35.305 14.1083 35.5134 14.2455 35.7428 14.3388C35.9722 14.4321 36.2181 14.4797 36.4662 14.4789Z" fill="#3F51B5"/>
<path d="M13.7755 35.9542C12.7742 35.9542 11.8139 36.3466 11.1058 37.0451C10.3978 37.7435 10 38.6909 10 39.6787V72.2753C10 73.2631 10.3978 74.2105 11.1058 74.9089C11.8139 75.6074 12.7742 75.9998 13.7755 75.9998H24.7093C25.6665 76.0021 26.5888 75.6457 27.2897 75.0027C27.9906 74.3596 28.4178 73.478 28.4848 72.536L30.8256 73.9215C33.0539 75.2412 35.6038 75.9389 38.2029 75.9402H54.1581C56.0879 75.9606 58.001 75.5852 59.776 74.8378C64.8729 72.6031 65.6733 68.6775 65.2958 66.0703C66.6042 64.9863 67.542 63.5306 67.9812 61.9016C68.4203 60.2727 68.3395 58.5497 67.7498 56.9677C69.0133 55.4597 69.6835 53.5529 69.6376 51.597C69.555 50.0648 69.0166 48.5906 68.0896 47.3586C68.6687 46.043 68.8133 44.581 68.5029 43.1798C68.1925 41.7787 67.443 40.5094 66.3605 39.552C66.2044 39.408 66.0408 39.2715 65.8697 39.1424C65.0109 38.5124 64.0202 38.0797 62.9701 37.876H62.887C57.8807 36.8257 54.513 36.7587 49.5595 36.7587C49.3708 35.6339 49.3783 33.2726 50.8734 28.8255C52.2552 24.7063 52.1344 21.3021 50.511 18.7024C49.8414 17.663 48.9486 16.7813 47.8956 16.1197C46.8427 15.4582 45.6553 15.0328 44.4173 14.8736H44.1833C43.3164 14.8588 42.4682 15.1225 41.7666 15.6251C41.0651 16.1277 40.5484 16.8418 40.2945 17.6596C40.2678 17.7474 40.2476 17.837 40.2341 17.9277L39.6678 21.9502C39.4972 23.1585 39.1407 24.334 38.6106 25.4363L33.106 36.8406C32.6942 37.781 32.0595 38.6101 31.2553 39.2582C30.4512 39.9064 29.501 40.3545 28.4848 40.5651V39.6787C28.4848 38.6909 28.087 37.7435 27.379 37.0451C26.6709 36.3466 25.7106 35.9542 24.7093 35.9542H13.7755ZM13.7755 72.2753V39.6787H24.7093V72.2753H13.7755ZM28.8774 44.3119C30.5506 44.0224 32.1243 43.3259 33.4559 42.2854C34.7875 41.2449 35.8351 39.8932 36.5039 38.3528L41.9633 26.9782C42.6574 25.532 43.1234 23.9896 43.3451 22.4045L43.9265 18.6428C43.9537 18.6168 43.9877 18.5987 44.0247 18.5907C44.6833 18.6936 45.3129 18.931 45.8733 19.2875C46.4337 19.6441 46.9125 20.112 47.2792 20.6615C48.2759 22.2556 48.2759 24.6765 47.2792 27.6561C45.8143 32.0062 45.3612 35.4402 45.92 37.8686C46.0921 38.6172 46.5184 39.2853 47.1281 39.7621C47.7379 40.239 48.4945 40.496 49.2726 40.4906V40.4906C54.2638 40.4906 57.3446 40.5353 62.1093 41.526H62.1848C62.6881 41.6159 63.1651 41.8143 63.5817 42.107L63.8233 42.3082C65.7564 44.0289 64.5331 46.2338 64.2764 46.6435C64.035 47.016 63.9358 47.4612 63.9967 47.8993C64.0576 48.3374 64.2745 48.7398 64.6086 49.0346C65.3437 49.7684 65.7952 50.733 65.8847 51.7609C65.8627 52.4471 65.7009 53.1218 65.409 53.7451C65.1172 54.3683 64.7011 54.9272 64.1858 55.3885C63.9031 55.6834 63.7258 56.0612 63.6808 56.4646C63.6358 56.868 63.7256 57.2748 63.9366 57.6232C64.0197 57.7648 65.9603 61.0944 62.1168 63.8803C61.7948 64.1194 61.5573 64.4524 61.438 64.8322C61.3187 65.2119 61.3237 65.6191 61.4523 65.9958C61.6562 66.5918 62.4566 69.6458 58.3111 71.441C56.9969 71.9829 55.5821 72.2468 54.1581 72.2157H38.1727C36.2597 72.2129 34.3833 71.698 32.7435 70.7259L28.4848 68.2082V44.3715L28.8774 44.3119Z" fill="#3F51B5"/>
<path d="M19.2423 68.7519C20.5142 68.7519 21.5453 67.7347 21.5453 66.4799C21.5453 65.2252 20.5142 64.208 19.2423 64.208C17.9703 64.208 16.9392 65.2252 16.9392 66.4799C16.9392 67.7347 17.9703 68.7519 19.2423 68.7519Z" fill="#3F51B5"/>
</svg>
