<svg width="24" height="24" viewBox="0 0 24 24" fill="none" xmlns="http://www.w3.org/2000/svg">
<path d="M12 21C7.02943 21 3 16.9706 3 12C3 7.02943 7.02943 3 12 3C16.9706 3 21 7.02943 21 12C21 16.9706 16.9706 21 12 21ZM6.70757 17.9995C8.118 19.2445 9.97076 20.0001 12 20.0001C14.0292 20.0001 15.8819 19.2445 17.2924 17.9995L15.1645 15.8715C14.3025 16.5768 13.2008 17.0001 12.0001 17.0001C10.7994 17.0001 9.69767 16.5768 8.83569 15.8715L6.70757 17.9995ZM6.00043 17.2923L8.12837 15.1644C7.42307 14.3024 6.99986 13.2007 6.99986 12C6.99986 10.7993 7.42307 9.69759 8.12837 8.8356L6.00043 6.70766C4.75539 8.11809 3.99986 9.97084 3.99986 12.0001C3.99986 14.0293 4.75539 15.882 6.00043 17.2925V17.2923ZM6.70757 6.00034L8.83551 8.12829C9.6975 7.42299 10.7992 6.99977 11.9999 6.99977C13.2006 6.99977 14.3023 7.42299 15.1643 8.12829L17.2923 6.00034C15.8818 4.7553 14.0291 3.99977 11.9998 3.99977C9.97059 3.99977 8.11791 4.7553 6.7074 6.00034H6.70757ZM17.9996 6.70749L15.8716 8.83543C16.5769 9.69741 17.0001 10.7991 17.0001 11.9998C17.0001 13.2005 16.5769 14.3022 15.8716 15.1642L17.9996 17.2922C19.2446 15.8817 20.0001 14.029 20.0001 11.9997C20.0001 9.9705 19.2446 8.11783 17.9996 6.70731V6.70749ZM12 15.9998C14.2092 15.9998 15.9999 14.209 15.9999 11.9998C15.9999 9.79067 14.2092 7.99989 12 7.99989C9.79084 7.99989 8.00006 9.79067 8.00006 11.9998C8.00006 14.209 9.79084 15.9998 12 15.9998Z" fill="#424242" stroke="#424242" stroke-width="0.2"/>
</svg>
