<svg width="24" height="24" viewBox="0 0 24 24" fill="none" xmlns="http://www.w3.org/2000/svg">
<path d="M12 22C10.0222 22 8.08879 21.4135 6.4443 20.3147C4.79981 19.2159 3.51809 17.6541 2.76121 15.8268C2.00433 13.9996 1.8063 11.9889 2.19215 10.0491C2.578 8.10929 3.53041 6.32746 4.92894 4.92894C6.32746 3.53041 8.10929 2.578 10.0491 2.19215C11.9889 1.8063 13.9996 2.00433 15.8268 2.76121C17.6541 3.51809 19.2159 4.79981 20.3147 6.4443C21.4135 8.08879 22 10.0222 22 12C22 14.6522 20.9464 17.1957 19.0711 19.0711C17.1957 20.9464 14.6522 22 12 22ZM12 3.42858C10.3047 3.42858 8.64754 3.93128 7.23797 4.87312C5.82841 5.81496 4.72979 7.15364 4.08104 8.71986C3.43229 10.2861 3.26254 12.0095 3.59327 13.6722C3.924 15.3349 4.74035 16.8622 5.93909 18.0609C7.13782 19.2597 8.66511 20.076 10.3278 20.4067C11.9905 20.7375 13.7139 20.5677 15.2801 19.919C16.8464 19.2702 18.185 18.1716 19.1269 16.762C20.0687 15.3525 20.5714 13.6953 20.5714 12C20.5714 9.72672 19.6684 7.54654 18.0609 5.93909C16.4535 4.33163 14.2733 3.42858 12 3.42858Z" fill="#BABABA"/>
<path d="M15.2786 16.2856L11.2858 12.2927V5.57129H12.7143V11.6999L16.2858 15.2784L15.2786 16.2856Z" fill="#BABABA"/>
</svg>
