<svg width="24" height="24" viewBox="0 0 24 24" fill="none" xmlns="http://www.w3.org/2000/svg">
<path d="M19 22V19.6667C19 18.429 18.5259 17.242 17.682 16.3668C16.8381 15.4917 15.6935 15 14.5 15H5.5C4.30653 15 3.16193 15.4917 2.31802 16.3668C1.47411 17.242 1 18.429 1 19.6667V22" stroke="#DEDEDE" stroke-width="1.1" stroke-linecap="round" stroke-linejoin="round"/>
<path d="M9.5 12C11.9853 12 14 9.98528 14 7.5C14 5.01472 11.9853 3 9.5 3C7.01472 3 5 5.01472 5 7.5C5 9.98528 7.01472 12 9.5 12Z" stroke="#DEDEDE" stroke-width="1.1" stroke-linecap="round" stroke-linejoin="round"/>
<path d="M23 22V19.615C22.9993 18.5581 22.7044 17.5314 22.1614 16.6961C21.6184 15.8608 20.8581 15.2642 20 15" stroke="#DEDEDE" stroke-width="1.1" stroke-linecap="round" stroke-linejoin="round"/>
<path d="M15 3C16.1442 3.25583 17.1584 3.83694 17.8826 4.65172C18.6069 5.46649 19 6.46858 19 7.5C19 8.53142 18.6069 9.53351 17.8826 10.3483C17.1584 11.1631 16.1442 11.7442 15 12" stroke="#DEDEDE" stroke-width="1.1" stroke-linecap="round" stroke-linejoin="round"/>
</svg>
