<svg width="24" height="24" viewBox="0 0 24 24" fill="none" xmlns="http://www.w3.org/2000/svg">
<path d="M17 20V18C17 16.9391 16.5786 15.9217 15.8284 15.1716C15.0783 14.4214 14.0609 14 13 14H5C3.93913 14 2.92172 14.4214 2.17157 15.1716C1.42143 15.9217 1 16.9391 1 18V20" stroke="#3F51B5" stroke-width="1.5" stroke-linecap="round" stroke-linejoin="round"/>
<path d="M9 11C11.2091 11 13 9.20914 13 7C13 4.79086 11.2091 3 9 3C6.79086 3 5 4.79086 5 7C5 9.20914 6.79086 11 9 11Z" stroke="#3F51B5" stroke-width="1.5" stroke-linecap="round" stroke-linejoin="round"/>
<path d="M21 19.87V17.87C20.9993 16.9837 20.7044 16.1228 20.1614 15.4223C19.6184 14.7219 18.8581 14.2216 18 14" stroke="#3F51B5" stroke-width="1.5" stroke-linecap="round" stroke-linejoin="round"/>
<path d="M14 3.12988C14.8604 3.35018 15.623 3.85058 16.1676 4.55219C16.7122 5.2538 17.0078 6.11671 17.0078 7.00488C17.0078 7.89305 16.7122 8.75596 16.1676 9.45757C15.623 10.1592 14.8604 10.6596 14 10.8799" stroke="#3F51B5" stroke-width="1.5" stroke-linecap="round" stroke-linejoin="round"/>
</svg>
