<svg width="222" height="44" viewBox="0 0 222 44" fill="none" xmlns="http://www.w3.org/2000/svg">
<rect width="222" height="44" rx="10" fill="#3F51B5"/>
<path d="M36.0001 25.4288L36.0001 14.4288" stroke="white" stroke-width="1.5" stroke-linecap="round"/>
<path d="M41.1429 19.1428L36 14L30.8572 19.1428" stroke="white" stroke-width="1.5" stroke-linecap="round"/>
<path d="M28 25.4286V28.8572C28 29.2381 28.2286 30 29.1429 30C30.0571 30 38.6667 30 42.8571 30C43.4286 30 44 30 44 28.8572V25.4286" stroke="white" stroke-width="1.5" stroke-linecap="round"/>
<path d="M66.368 23.372V16.076H64.848V23.372C64.848 24.396 64.592 25.1747 64.08 25.708C63.5787 26.2307 62.8427 26.492 61.872 26.492C60.848 26.492 60.064 26.2307 59.52 25.708C58.976 25.1747 58.704 24.396 58.704 23.372V16.076H57.184V23.372C57.184 24.8973 57.5947 26.012 58.416 26.716C59.248 27.4093 60.4 27.756 61.872 27.756C63.312 27.756 64.4213 27.3933 65.2 26.668C65.9787 25.932 66.368 24.8333 66.368 23.372ZM68.6189 19.228V30.652H69.9789V26.396H70.0109C70.1602 26.6413 70.3415 26.8493 70.5549 27.02C70.7789 27.18 71.0135 27.308 71.2589 27.404C71.5042 27.5 71.7495 27.5693 71.9949 27.612C72.2509 27.6547 72.4802 27.676 72.6829 27.676C73.3122 27.676 73.8615 27.564 74.3309 27.34C74.8109 27.116 75.2055 26.812 75.5149 26.428C75.8349 26.0333 76.0695 25.5747 76.2189 25.052C76.3789 24.5293 76.4589 23.9747 76.4589 23.388C76.4589 22.8013 76.3789 22.2467 76.2189 21.724C76.0589 21.2013 75.8189 20.7427 75.4989 20.348C75.1895 19.9427 74.7949 19.6227 74.3149 19.388C73.8455 19.1533 73.2909 19.036 72.6509 19.036C72.0749 19.036 71.5469 19.1427 71.0669 19.356C70.5869 19.5587 70.2349 19.8893 70.0109 20.348H69.9789V19.228H68.6189ZM75.0189 23.292C75.0189 23.6973 74.9762 24.092 74.8909 24.476C74.8055 24.86 74.6669 25.2013 74.4749 25.5C74.2829 25.7987 74.0269 26.0387 73.7069 26.22C73.3975 26.4013 73.0082 26.492 72.5389 26.492C72.0695 26.492 71.6695 26.4067 71.3389 26.236C71.0082 26.0547 70.7362 25.82 70.5229 25.532C70.3202 25.244 70.1709 24.9133 70.0749 24.54C69.9789 24.156 69.9309 23.7613 69.9309 23.356C69.9309 22.972 69.9735 22.5933 70.0589 22.22C70.1549 21.8467 70.3042 21.516 70.5069 21.228C70.7095 20.9293 70.9709 20.6893 71.2909 20.508C71.6109 20.3267 72.0002 20.236 72.4589 20.236C72.8962 20.236 73.2749 20.3213 73.5949 20.492C73.9255 20.6627 74.1922 20.892 74.3949 21.18C74.6082 21.468 74.7629 21.7987 74.8589 22.172C74.9655 22.5347 75.0189 22.908 75.0189 23.292ZM78.1353 16.076V27.5H79.4953V16.076H78.1353ZM82.5941 23.372C82.5941 22.8707 82.6581 22.428 82.7861 22.044C82.9248 21.6493 83.1115 21.3187 83.3461 21.052C83.5808 20.7853 83.8528 20.5827 84.1621 20.444C84.4821 20.3053 84.8181 20.236 85.1701 20.236C85.5221 20.236 85.8528 20.3053 86.1621 20.444C86.4821 20.5827 86.7595 20.7853 86.9941 21.052C87.2288 21.3187 87.4101 21.6493 87.5381 22.044C87.6768 22.428 87.7461 22.8707 87.7461 23.372C87.7461 23.8733 87.6768 24.3213 87.5381 24.716C87.4101 25.1 87.2288 25.4253 86.9941 25.692C86.7595 25.948 86.4821 26.1453 86.1621 26.284C85.8528 26.4227 85.5221 26.492 85.1701 26.492C84.8181 26.492 84.4821 26.4227 84.1621 26.284C83.8528 26.1453 83.5808 25.948 83.3461 25.692C83.1115 25.4253 82.9248 25.1 82.7861 24.716C82.6581 24.3213 82.5941 23.8733 82.5941 23.372ZM81.1541 23.372C81.1541 23.98 81.2395 24.5453 81.4101 25.068C81.5808 25.5907 81.8368 26.0493 82.1781 26.444C82.5195 26.828 82.9408 27.132 83.4421 27.356C83.9435 27.5693 84.5195 27.676 85.1701 27.676C85.8315 27.676 86.4075 27.5693 86.8981 27.356C87.3995 27.132 87.8208 26.828 88.1621 26.444C88.5035 26.0493 88.7595 25.5907 88.9301 25.068C89.1008 24.5453 89.1861 23.98 89.1861 23.372C89.1861 22.764 89.1008 22.1987 88.9301 21.676C88.7595 21.1427 88.5035 20.684 88.1621 20.3C87.8208 19.9053 87.3995 19.596 86.8981 19.372C86.4075 19.148 85.8315 19.036 85.1701 19.036C84.5195 19.036 83.9435 19.148 83.4421 19.372C82.9408 19.596 82.5195 19.9053 82.1781 20.3C81.8368 20.684 81.5808 21.1427 81.4101 21.676C81.2395 22.1987 81.1541 22.764 81.1541 23.372ZM98.1176 27.468C97.883 27.6067 97.5576 27.676 97.1416 27.676C96.7896 27.676 96.507 27.58 96.2936 27.388C96.091 27.1853 95.9896 26.86 95.9896 26.412C95.6163 26.86 95.179 27.1853 94.6776 27.388C94.187 27.58 93.6536 27.676 93.0776 27.676C92.7043 27.676 92.347 27.6333 92.0056 27.548C91.675 27.4627 91.387 27.3293 91.1416 27.148C90.8963 26.9667 90.699 26.732 90.5496 26.444C90.411 26.1453 90.3416 25.788 90.3416 25.372C90.3416 24.9027 90.4216 24.5187 90.5816 24.22C90.7416 23.9213 90.9496 23.6813 91.2056 23.5C91.4723 23.308 91.771 23.164 92.1016 23.068C92.443 22.972 92.7896 22.892 93.1416 22.828C93.515 22.7533 93.867 22.7 94.1976 22.668C94.539 22.6253 94.8376 22.572 95.0936 22.508C95.3496 22.4333 95.5523 22.332 95.7016 22.204C95.851 22.0653 95.9256 21.868 95.9256 21.612C95.9256 21.3133 95.867 21.0733 95.7496 20.892C95.643 20.7107 95.499 20.572 95.3176 20.476C95.147 20.38 94.9496 20.316 94.7256 20.284C94.5123 20.252 94.299 20.236 94.0856 20.236C93.5096 20.236 93.0296 20.348 92.6456 20.572C92.2616 20.7853 92.0536 21.196 92.0216 21.804H90.6616C90.683 21.292 90.7896 20.86 90.9816 20.508C91.1736 20.156 91.4296 19.8733 91.7496 19.66C92.0696 19.436 92.4323 19.276 92.8376 19.18C93.2536 19.084 93.6963 19.036 94.1656 19.036C94.539 19.036 94.907 19.0627 95.2696 19.116C95.643 19.1693 95.979 19.2813 96.2776 19.452C96.5763 19.612 96.8163 19.8413 96.9976 20.14C97.179 20.4387 97.2696 20.828 97.2696 21.308V25.564C97.2696 25.884 97.2856 26.1187 97.3176 26.268C97.3603 26.4173 97.4883 26.492 97.7016 26.492C97.819 26.492 97.9576 26.4653 98.1176 26.412V27.468ZM95.9096 23.228C95.739 23.356 95.515 23.452 95.2376 23.516C94.9603 23.5693 94.667 23.6173 94.3576 23.66C94.059 23.692 93.755 23.7347 93.4456 23.788C93.1363 23.8307 92.859 23.9053 92.6136 24.012C92.3683 24.1187 92.1656 24.2733 92.0056 24.476C91.8563 24.668 91.7816 24.9347 91.7816 25.276C91.7816 25.5 91.8243 25.692 91.9096 25.852C92.0056 26.0013 92.123 26.124 92.2616 26.22C92.411 26.316 92.5816 26.3853 92.7736 26.428C92.9656 26.4707 93.1683 26.492 93.3816 26.492C93.8296 26.492 94.2136 26.4333 94.5336 26.316C94.8536 26.188 95.115 26.0333 95.3176 25.852C95.5203 25.66 95.6696 25.4573 95.7656 25.244C95.8616 25.02 95.9096 24.812 95.9096 24.62V23.228ZM100.375 23.436C100.375 23.0307 100.418 22.636 100.503 22.252C100.589 21.868 100.727 21.5267 100.919 21.228C101.111 20.9293 101.367 20.6893 101.687 20.508C102.007 20.3267 102.397 20.236 102.855 20.236C103.325 20.236 103.725 20.3267 104.055 20.508C104.386 20.6787 104.653 20.908 104.855 21.196C105.069 21.484 105.223 21.82 105.319 22.204C105.415 22.5773 105.463 22.9667 105.463 23.372C105.463 23.756 105.415 24.1347 105.319 24.508C105.234 24.8813 105.09 25.2173 104.887 25.516C104.685 25.804 104.423 26.0387 104.103 26.22C103.783 26.4013 103.394 26.492 102.935 26.492C102.498 26.492 102.114 26.4067 101.783 26.236C101.463 26.0653 101.197 25.836 100.983 25.548C100.781 25.26 100.626 24.9347 100.519 24.572C100.423 24.1987 100.375 23.82 100.375 23.436ZM106.775 27.5V16.076H105.415V20.332H105.383C105.234 20.0867 105.047 19.884 104.823 19.724C104.61 19.5533 104.381 19.42 104.135 19.324C103.89 19.2173 103.645 19.1427 103.399 19.1C103.154 19.0573 102.925 19.036 102.711 19.036C102.082 19.036 101.527 19.1533 101.047 19.388C100.578 19.612 100.183 19.9213 99.8634 20.316C99.554 20.7 99.3194 21.1533 99.1594 21.676C99.01 22.1987 98.9354 22.7533 98.9354 23.34C98.9354 23.9267 99.0154 24.4813 99.1754 25.004C99.3354 25.5267 99.57 25.9853 99.8794 26.38C100.199 26.7747 100.594 27.0893 101.063 27.324C101.543 27.5587 102.103 27.676 102.743 27.676C103.319 27.676 103.847 27.5747 104.327 27.372C104.807 27.1693 105.159 26.8387 105.383 26.38H105.415V27.5H106.775ZM115.065 21.548V17.356H118.041C118.905 17.356 119.534 17.5373 119.929 17.9C120.334 18.252 120.537 18.7693 120.537 19.452C120.537 20.1347 120.334 20.6573 119.929 21.02C119.534 21.3827 118.905 21.5587 118.041 21.548H115.065ZM113.545 16.076V27.5H115.065V22.828H118.553C119.705 22.8387 120.574 22.5453 121.161 21.948C121.758 21.3507 122.057 20.5187 122.057 19.452C122.057 18.3853 121.758 17.5587 121.161 16.972C120.574 16.3747 119.705 16.076 118.553 16.076H113.545ZM123.648 19.228V27.5H125.008V23.82C125.008 23.2867 125.061 22.8173 125.168 22.412C125.275 21.996 125.445 21.644 125.68 21.356C125.915 21.068 126.224 20.8493 126.608 20.7C126.992 20.5507 127.456 20.476 128 20.476V19.036C127.264 19.0147 126.656 19.164 126.176 19.484C125.696 19.804 125.291 20.3 124.96 20.972H124.928V19.228H123.648ZM134.487 22.572H129.735C129.756 22.252 129.825 21.9533 129.943 21.676C130.06 21.388 130.22 21.1373 130.423 20.924C130.625 20.7107 130.865 20.5453 131.143 20.428C131.431 20.3 131.751 20.236 132.103 20.236C132.444 20.236 132.753 20.3 133.031 20.428C133.319 20.5453 133.564 20.7107 133.767 20.924C133.98 21.1267 134.145 21.372 134.263 21.66C134.391 21.948 134.465 22.252 134.487 22.572ZM135.799 24.876H134.455C134.337 25.42 134.092 25.8253 133.719 26.092C133.356 26.3587 132.887 26.492 132.311 26.492C131.863 26.492 131.473 26.4173 131.143 26.268C130.812 26.1187 130.54 25.9213 130.327 25.676C130.113 25.42 129.959 25.132 129.863 24.812C129.767 24.4813 129.724 24.1347 129.735 23.772H135.927C135.948 23.2707 135.9 22.7427 135.783 22.188C135.676 21.6333 135.473 21.1213 135.175 20.652C134.887 20.1827 134.497 19.7987 134.007 19.5C133.527 19.1907 132.919 19.036 132.183 19.036C131.617 19.036 131.095 19.1427 130.615 19.356C130.145 19.5693 129.735 19.868 129.383 20.252C129.041 20.636 128.775 21.0893 128.583 21.612C128.391 22.1347 128.295 22.7107 128.295 23.34C128.316 23.9693 128.407 24.5507 128.567 25.084C128.737 25.6173 128.988 26.076 129.319 26.46C129.649 26.844 130.055 27.1427 130.535 27.356C131.025 27.5693 131.601 27.676 132.263 27.676C133.201 27.676 133.98 27.4413 134.599 26.972C135.217 26.5027 135.617 25.804 135.799 24.876ZM138.169 24.892H136.809C136.83 25.404 136.937 25.8413 137.129 26.204C137.321 26.556 137.577 26.844 137.897 27.068C138.217 27.2813 138.585 27.436 139.001 27.532C139.417 27.628 139.854 27.676 140.312 27.676C140.729 27.676 141.145 27.6333 141.561 27.548C141.987 27.4733 142.366 27.3347 142.697 27.132C143.038 26.9293 143.31 26.6627 143.513 26.332C143.726 26.0013 143.833 25.5853 143.833 25.084C143.833 24.6893 143.753 24.3587 143.593 24.092C143.443 23.8253 143.241 23.6067 142.985 23.436C142.739 23.2547 142.451 23.1107 142.121 23.004C141.801 22.8973 141.47 22.8067 141.129 22.732C140.809 22.6573 140.489 22.588 140.169 22.524C139.849 22.4493 139.561 22.364 139.305 22.268C139.049 22.1613 138.835 22.0333 138.664 21.884C138.504 21.724 138.424 21.5267 138.424 21.292C138.424 21.0787 138.478 20.908 138.585 20.78C138.691 20.6413 138.83 20.5347 139.001 20.46C139.171 20.3747 139.358 20.316 139.561 20.284C139.774 20.252 139.982 20.236 140.185 20.236C140.409 20.236 140.627 20.2627 140.841 20.316C141.065 20.3587 141.267 20.4333 141.449 20.54C141.63 20.6467 141.779 20.7907 141.897 20.972C142.014 21.1427 142.083 21.3613 142.105 21.628H143.465C143.433 21.1267 143.326 20.7107 143.145 20.38C142.963 20.0387 142.718 19.772 142.409 19.58C142.11 19.3773 141.763 19.2387 141.369 19.164C140.974 19.0787 140.542 19.036 140.073 19.036C139.71 19.036 139.342 19.084 138.969 19.18C138.606 19.2653 138.275 19.404 137.977 19.596C137.689 19.7773 137.449 20.0173 137.257 20.316C137.075 20.6147 136.985 20.972 136.985 21.388C136.985 21.9213 137.118 22.3373 137.385 22.636C137.651 22.9347 137.982 23.1693 138.377 23.34C138.782 23.5 139.219 23.628 139.689 23.724C140.158 23.8093 140.59 23.9107 140.985 24.028C141.39 24.1347 141.726 24.2787 141.993 24.46C142.259 24.6413 142.393 24.908 142.393 25.26C142.393 25.516 142.329 25.7293 142.201 25.9C142.073 26.06 141.907 26.1827 141.705 26.268C141.513 26.3533 141.299 26.412 141.065 26.444C140.83 26.476 140.606 26.492 140.393 26.492C140.115 26.492 139.843 26.4653 139.577 26.412C139.321 26.3587 139.086 26.2733 138.873 26.156C138.67 26.028 138.505 25.8627 138.377 25.66C138.249 25.4467 138.179 25.1907 138.169 24.892ZM150.953 21.884H152.361C152.307 21.3933 152.179 20.972 151.977 20.62C151.774 20.2573 151.513 19.9587 151.193 19.724C150.883 19.4893 150.521 19.3187 150.105 19.212C149.699 19.0947 149.262 19.036 148.793 19.036C148.142 19.036 147.571 19.1533 147.081 19.388C146.59 19.612 146.179 19.9267 145.849 20.332C145.529 20.7267 145.289 21.196 145.129 21.74C144.969 22.2733 144.889 22.8493 144.889 23.468C144.889 24.0867 144.969 24.6573 145.129 25.18C145.299 25.692 145.545 26.1347 145.865 26.508C146.195 26.8813 146.601 27.1693 147.081 27.372C147.571 27.5747 148.131 27.676 148.761 27.676C149.817 27.676 150.649 27.3987 151.257 26.844C151.875 26.2893 152.259 25.5 152.409 24.476H151.017C150.931 25.116 150.697 25.612 150.313 25.964C149.939 26.316 149.417 26.492 148.745 26.492C148.318 26.492 147.95 26.4067 147.641 26.236C147.331 26.0653 147.081 25.8413 146.889 25.564C146.697 25.276 146.553 24.9507 146.457 24.588C146.371 24.2253 146.329 23.852 146.329 23.468C146.329 23.052 146.371 22.652 146.457 22.268C146.542 21.8733 146.681 21.5267 146.873 21.228C147.075 20.9293 147.342 20.6893 147.673 20.508C148.003 20.3267 148.414 20.236 148.905 20.236C149.481 20.236 149.939 20.38 150.281 20.668C150.622 20.956 150.846 21.3613 150.953 21.884ZM153.882 19.228V27.5H155.242V23.82C155.242 23.2867 155.296 22.8173 155.402 22.412C155.509 21.996 155.68 21.644 155.914 21.356C156.149 21.068 156.458 20.8493 156.842 20.7C157.226 20.5507 157.69 20.476 158.234 20.476V19.036C157.498 19.0147 156.89 19.164 156.41 19.484C155.93 19.804 155.525 20.3 155.194 20.972H155.162V19.228H153.882ZM160.698 17.74V16.076H159.338V17.74H160.698ZM159.338 19.228V27.5H160.698V19.228H159.338ZM162.853 19.228V30.652H164.213V26.396H164.245C164.395 26.6413 164.576 26.8493 164.789 27.02C165.013 27.18 165.248 27.308 165.493 27.404C165.739 27.5 165.984 27.5693 166.229 27.612C166.485 27.6547 166.715 27.676 166.917 27.676C167.547 27.676 168.096 27.564 168.565 27.34C169.045 27.116 169.44 26.812 169.749 26.428C170.069 26.0333 170.304 25.5747 170.453 25.052C170.613 24.5293 170.693 23.9747 170.693 23.388C170.693 22.8013 170.613 22.2467 170.453 21.724C170.293 21.2013 170.053 20.7427 169.733 20.348C169.424 19.9427 169.029 19.6227 168.549 19.388C168.08 19.1533 167.525 19.036 166.885 19.036C166.309 19.036 165.781 19.1427 165.301 19.356C164.821 19.5587 164.469 19.8893 164.245 20.348H164.213V19.228H162.853ZM169.253 23.292C169.253 23.6973 169.211 24.092 169.125 24.476C169.04 24.86 168.901 25.2013 168.709 25.5C168.517 25.7987 168.261 26.0387 167.941 26.22C167.632 26.4013 167.243 26.492 166.773 26.492C166.304 26.492 165.904 26.4067 165.573 26.236C165.243 26.0547 164.971 25.82 164.757 25.532C164.555 25.244 164.405 24.9133 164.309 24.54C164.213 24.156 164.165 23.7613 164.165 23.356C164.165 22.972 164.208 22.5933 164.293 22.22C164.389 21.8467 164.539 21.516 164.741 21.228C164.944 20.9293 165.205 20.6893 165.525 20.508C165.845 20.3267 166.235 20.236 166.693 20.236C167.131 20.236 167.509 20.3213 167.829 20.492C168.16 20.6627 168.427 20.892 168.629 21.18C168.843 21.468 168.997 21.7987 169.093 22.172C169.2 22.5347 169.253 22.908 169.253 23.292ZM174.178 19.228V16.748H172.818V19.228H171.41V20.428H172.818V25.692C172.818 26.076 172.855 26.3853 172.93 26.62C173.004 26.8547 173.116 27.036 173.266 27.164C173.426 27.292 173.628 27.3827 173.874 27.436C174.13 27.4787 174.434 27.5 174.786 27.5H175.826V26.3H175.202C174.988 26.3 174.812 26.2947 174.674 26.284C174.546 26.2627 174.444 26.2253 174.37 26.172C174.295 26.1187 174.242 26.044 174.21 25.948C174.188 25.852 174.178 25.724 174.178 25.564V20.428H175.826V19.228H174.178ZM178.777 17.74V16.076H177.417V17.74H178.777ZM177.417 19.228V27.5H178.777V19.228H177.417ZM181.875 23.372C181.875 22.8707 181.939 22.428 182.067 22.044C182.206 21.6493 182.393 21.3187 182.627 21.052C182.862 20.7853 183.134 20.5827 183.443 20.444C183.763 20.3053 184.099 20.236 184.451 20.236C184.803 20.236 185.134 20.3053 185.443 20.444C185.763 20.5827 186.041 20.7853 186.275 21.052C186.51 21.3187 186.691 21.6493 186.819 22.044C186.958 22.428 187.027 22.8707 187.027 23.372C187.027 23.8733 186.958 24.3213 186.819 24.716C186.691 25.1 186.51 25.4253 186.275 25.692C186.041 25.948 185.763 26.1453 185.443 26.284C185.134 26.4227 184.803 26.492 184.451 26.492C184.099 26.492 183.763 26.4227 183.443 26.284C183.134 26.1453 182.862 25.948 182.627 25.692C182.393 25.4253 182.206 25.1 182.067 24.716C181.939 24.3213 181.875 23.8733 181.875 23.372ZM180.435 23.372C180.435 23.98 180.521 24.5453 180.691 25.068C180.862 25.5907 181.118 26.0493 181.459 26.444C181.801 26.828 182.222 27.132 182.723 27.356C183.225 27.5693 183.801 27.676 184.451 27.676C185.113 27.676 185.689 27.5693 186.179 27.356C186.681 27.132 187.102 26.828 187.443 26.444C187.785 26.0493 188.041 25.5907 188.211 25.068C188.382 24.5453 188.467 23.98 188.467 23.372C188.467 22.764 188.382 22.1987 188.211 21.676C188.041 21.1427 187.785 20.684 187.443 20.3C187.102 19.9053 186.681 19.596 186.179 19.372C185.689 19.148 185.113 19.036 184.451 19.036C183.801 19.036 183.225 19.148 182.723 19.372C182.222 19.596 181.801 19.9053 181.459 20.3C181.118 20.684 180.862 21.1427 180.691 21.676C180.521 22.1987 180.435 22.764 180.435 23.372ZM190.071 19.228V27.5H191.431V22.828C191.431 22.4547 191.479 22.1133 191.575 21.804C191.682 21.484 191.836 21.2067 192.039 20.972C192.242 20.7373 192.492 20.556 192.791 20.428C193.1 20.3 193.463 20.236 193.879 20.236C194.402 20.236 194.812 20.3853 195.111 20.684C195.41 20.9827 195.559 21.388 195.559 21.9V27.5H196.919V22.06C196.919 21.612 196.871 21.2067 196.775 20.844C196.69 20.4707 196.535 20.1507 196.311 19.884C196.087 19.6173 195.794 19.4093 195.431 19.26C195.068 19.1107 194.615 19.036 194.071 19.036C192.844 19.036 191.948 19.5373 191.383 20.54H191.351V19.228H190.071Z" fill="white"/>
</svg>
