<svg width="92" height="92" viewBox="0 0 92 92" fill="none" xmlns="http://www.w3.org/2000/svg">
<path d="M45.4001 61.7497L47.9981 60.2497C47.3375 59.111 46.3898 58.1654 45.2496 57.5074C44.1094 56.8494 42.8165 56.5019 41.5001 56.4997H35.296C37.6267 55.2141 39.4637 53.1901 40.5182 50.7462C41.5727 48.3023 41.7847 45.5772 41.1209 42.9997C40.4572 40.4221 38.9553 38.1383 36.8516 36.5077C34.7478 34.8771 32.1617 33.9922 29.5 33.9922C26.8384 33.9922 24.2522 34.8771 22.1485 36.5077C20.0448 38.1383 18.5429 40.4221 17.8791 42.9997C17.2154 45.5772 17.4274 48.3023 18.4819 50.7462C19.5363 53.1901 21.3734 55.2141 23.704 56.4997H17.5C15.5116 56.5021 13.6053 57.293 12.1993 58.699C10.7933 60.105 10.0024 62.0113 10 63.9997V90.9997H13V63.9997C13 62.8062 13.4741 61.6616 14.318 60.8177C15.1619 59.9738 16.3065 59.4997 17.5 59.4997H41.5001C42.2901 59.501 43.066 59.7094 43.7503 60.1042C44.4346 60.499 45.0035 61.0664 45.4001 61.7497ZM20.5 45.9997C20.5 44.2196 21.0279 42.4796 22.0168 40.9995C23.0057 39.5195 24.4113 38.3659 26.0559 37.6847C27.7004 37.0035 29.51 36.8253 31.2558 37.1726C33.0017 37.5198 34.6053 38.377 35.864 39.6357C37.1227 40.8944 37.9798 42.498 38.3271 44.2438C38.6744 45.9897 38.4962 47.7993 37.815 49.4438C37.1338 51.0883 35.9802 52.494 34.5002 53.4829C33.0201 54.4718 31.2801 54.9997 29.5 54.9997C27.1138 54.9973 24.826 54.0483 23.1387 52.361C21.4514 50.6737 20.5024 48.3859 20.5 45.9997Z" fill="#3F51B5"/>
<path d="M20.5005 67H17.5005V91H20.5005V67Z" fill="#3F51B5"/>
<path d="M71.5 15.1975L67.6675 17.7475L69.3325 20.2435L73.8325 17.2435C74.0372 17.1069 74.2052 16.922 74.3216 16.7052C74.438 16.4883 74.4993 16.2461 74.5 16V7H71.5V15.1975Z" fill="#3F51B5"/>
<path d="M85.0001 20.4996C85.233 20.4996 85.4627 20.4453 85.671 20.3412C85.8792 20.2371 86.0604 20.0859 86.2001 19.8996L90.7001 13.9341C90.8673 13.7112 90.9691 13.4462 90.9941 13.1688C91.0191 12.8913 90.9664 12.6124 90.8418 12.3632C90.7172 12.1141 90.5257 11.9045 90.2887 11.7581C90.0518 11.6116 89.7787 11.534 89.5001 11.534L86.1611 11.5221C85.5085 8.63653 83.9262 6.04526 81.6574 4.14671C79.3885 2.24815 76.5589 1.14742 73.6035 1.01379C70.6481 0.88015 67.7307 1.721 65.2998 3.40705C62.8688 5.09309 61.0591 7.53097 60.1487 10.3458C59.2384 13.1607 59.2778 16.1966 60.2611 18.9868C61.2443 21.7771 63.1169 24.1671 65.5908 25.7893C68.0647 27.4116 71.0031 28.1763 73.954 27.9659C76.9049 27.7554 79.7049 26.5815 81.9236 24.6246L79.9391 22.3746C78.2364 23.8776 76.0923 24.7879 73.8283 24.9692C71.5644 25.1504 69.3028 24.5927 67.3826 23.3797C65.4625 22.1667 63.9875 20.3638 63.1788 18.2415C62.37 16.1192 62.2712 13.7919 62.8972 11.6087C63.5232 9.42546 64.8402 7.50407 66.6506 6.13273C68.461 4.76138 70.6673 4.01401 72.9384 4.00273C75.2095 3.99145 77.4231 4.71687 79.2471 6.07017C81.071 7.42346 82.407 9.33167 83.0546 11.5085L80.5001 11.4995C80.2216 11.4995 79.9485 11.5771 79.7115 11.7236C79.4746 11.87 79.2831 12.0796 79.1585 12.3287C79.0339 12.5779 78.9812 12.8568 79.0062 13.1343C79.0312 13.4117 79.133 13.6767 79.3001 13.8996L83.8001 19.8996C83.9399 20.0859 84.121 20.2371 84.3293 20.3412C84.5376 20.4453 84.7673 20.4996 85.0001 20.4996ZM83.5091 14.5116L86.5001 14.5236L85.0001 16.5036L83.5091 14.5116Z" fill="#3F51B5"/>
<path d="M50.7535 72.2676L45.8034 80.2911L43.2399 78.3771L41.4399 80.7771L45.3174 83.6706C45.5771 83.8653 45.8929 83.9706 46.2175 83.9706C46.3115 83.971 46.4055 83.9625 46.498 83.9451C46.7034 83.9071 46.8986 83.8267 47.0712 83.7089C47.2437 83.5911 47.3898 83.4386 47.5 83.2611L53.3125 73.8441L50.7535 72.2676Z" fill="#3F51B5"/>
<path d="M61.0001 77.5C61.0001 74.83 60.2083 72.2199 58.7249 69.9998C57.2415 67.7797 55.1331 66.0494 52.6663 65.0276C50.1995 64.0059 47.4851 63.7385 44.8663 64.2594C42.2476 64.7803 39.8421 66.0661 37.9541 67.9541C36.0661 69.8421 34.7803 72.2476 34.2594 74.8663C33.7385 77.4851 34.0058 80.1995 35.0276 82.6663C36.0494 85.1331 37.7798 87.2415 39.9998 88.7249C42.2199 90.2083 44.83 91 47.5 91C51.0791 90.9957 54.5104 89.572 57.0412 87.0412C59.572 84.5104 60.9957 81.0791 61.0001 77.5V77.5ZM37 77.5C37 75.4233 37.6158 73.3932 38.7696 71.6665C39.9233 69.9398 41.5632 68.594 43.4818 67.7993C45.4005 67.0046 47.5117 66.7966 49.5485 67.2018C51.5853 67.6069 53.4562 68.6069 54.9247 70.0754C56.3931 71.5438 57.3931 73.4148 57.7983 75.4516C58.2034 77.4884 57.9955 79.5996 57.2008 81.5182C56.4061 83.4368 55.0602 85.0767 53.3335 86.2305C51.6068 87.3842 49.5767 88 47.5 88C44.7162 87.9969 42.0474 86.8896 40.0789 84.9212C38.1105 82.9527 37.0032 80.2838 37 77.5V77.5Z" fill="#3F51B5"/>
<path d="M58.0005 49H52.0005V52H58.0005V49Z" fill="#3F51B5"/>
<path d="M7.00001 49H1V52H7.00001V49Z" fill="#3F51B5"/>
<path d="M31 19H28V25H31V19Z" fill="#3F51B5"/>
<path d="M50.7129 27.1656L46.4702 31.4082L48.5915 33.5295L52.8342 29.2869L50.7129 27.1656Z" fill="#3F51B5"/>
<path d="M8.28734 27.1648L6.16602 29.2861L10.4087 33.5288L12.53 31.4075L8.28734 27.1648Z" fill="#3F51B5"/>
</svg>
