<svg width="26" height="24" viewBox="0 0 26 24" fill="none" xmlns="http://www.w3.org/2000/svg">
<path d="M24.7769 5.98355L24.7769 5.98354C24.607 5.88048 24.3967 5.87642 24.2232 5.97327L24.2232 5.97329L18.791 9.01017V7.24828V7.24822C18.7894 5.78482 17.6308 4.59692 16.1987 4.59526H16.1986L3.54237 4.59526L3.54231 4.59526C2.11017 4.59692 0.951618 5.78482 0.95 7.24822V7.24828L0.95 17.5261L0.95 17.5262C0.951618 18.9896 2.11017 20.1775 3.54231 20.1791H3.54237H16.1986H16.1987C17.6308 20.1775 18.7894 18.9896 18.791 17.5262V17.5261V15.7978L24.2234 18.8347C24.3967 18.9315 24.6072 18.9277 24.7769 18.8246L24.7769 18.8246C24.9467 18.7214 25.05 18.5348 25.05 18.3341V6.47388C25.05 6.27292 24.9464 6.08655 24.7769 5.98355ZM17.6736 17.5263C17.6729 18.3621 17.0117 19.0372 16.1982 19.0381H3.54243C2.72894 19.0372 2.06791 18.3621 2.06695 17.5263V7.24834C2.06791 6.41274 2.72895 5.73745 3.54243 5.73647H16.1986C17.0119 5.73745 17.6731 6.41275 17.674 7.24834L17.6736 17.5263ZM18.791 10.3109L23.9331 7.43661V17.3715L18.791 14.497V10.3109Z" fill="#5E7E9B" stroke="#5E7E9B" stroke-width="0.1"/>
</svg>
