<svg width="26" height="19" viewBox="0 0 26 19" fill="none" xmlns="http://www.w3.org/2000/svg">
<path d="M17.6809 18.5798L17.6809 18.5798C17.4223 18.5736 17.2092 18.3753 17.1839 18.1179L17.1839 18.1178L15.8945 4.82129L13.985 14.0627L13.985 14.0627L13.8871 14.0425C13.8476 14.2335 13.6795 14.3701 13.4843 14.3701C13.2892 14.3701 13.121 14.2339 13.0816 14.0429L17.6809 18.5798ZM17.6809 18.5798H17.6833M17.6809 18.5798H17.6833M17.6833 18.5798H17.6833M17.6833 18.5798H17.6833M17.6833 18.5798H17.6833M17.6833 18.5798H17.6833M17.6833 18.5798H17.6833M17.6833 18.5798H17.6833M17.6833 18.5798H17.6834M17.6833 18.5798H17.6834M17.6834 18.5798H17.6834M17.6834 18.5798H17.6834M17.6834 18.5798H17.6834M17.6834 18.5798H17.6834M17.6834 18.5798H17.6834M17.6834 18.5798H17.6834M17.6834 18.5798H17.6834M17.6834 18.5798H17.6834M17.6834 18.5798H17.6834M17.6834 18.5798H17.6834M17.6834 18.5798H17.6835M17.6834 18.5798H17.6835M17.6835 18.5798H17.6835M17.6835 18.5798H17.6835M17.6835 18.5798H17.6835M17.6835 18.5798H17.6835M17.6835 18.5798H17.6835M17.6835 18.5798H17.6835M17.6835 18.5798H17.6835M17.6835 18.5798H17.6835M17.6835 18.5798H17.6835M17.6835 18.5798H17.6835M17.6835 18.5798H17.6836M17.6835 18.5798H17.6836M17.6836 18.5798H17.6836M17.6836 18.5798H17.6836M17.6836 18.5798H17.6836M17.6836 18.5798H17.6836M17.6836 18.5798H17.6836M17.6836 18.5798H17.6836M17.6836 18.5798H17.6836M17.6836 18.5798H17.6836M17.6836 18.5798H17.6836M17.6836 18.5798H17.6836M17.6836 18.5798H17.6837M17.6836 18.5798H17.6837M17.6837 18.5798H17.6837M17.6837 18.5798H17.6837M17.6837 18.5798H17.6837M17.6837 18.5798H17.6837M17.6837 18.5798H17.6837M17.6837 18.5798H17.6837M17.6837 18.5798H17.6837M17.6837 18.5798H17.6837M17.6837 18.5798H17.6838M17.6837 18.5798H17.6838M17.6838 18.5798H17.6838M17.6838 18.5798H17.6838M17.6838 18.5798H17.6838M17.6838 18.5798H17.6838M17.6838 18.5798H17.6838M17.6838 18.5798H17.6838M17.6838 18.5798H17.6838M17.6838 18.5798H17.6838M17.6838 18.5798H17.6838M17.6838 18.5798H17.6838M17.6838 18.5798H17.6839M17.6838 18.5798H17.6839M17.6839 18.5798H17.6839M17.6839 18.5798H17.6839M17.6839 18.5798H17.6839M17.6839 18.5798H17.6839M17.6839 18.5798H17.6839M17.6839 18.5798H17.6839M17.6839 18.5798H17.6839M17.6839 18.5798H17.6839M17.6839 18.5798H17.6839M17.6839 18.5798H17.6839M17.6839 18.5798H17.684M17.6839 18.5798H17.684M17.684 18.5798H17.684M17.684 18.5798H17.684M17.684 18.5798H17.684M17.684 18.5798H17.684M17.684 18.5798H17.684M17.684 18.5798H17.684M17.684 18.5798H17.684M17.684 18.5798H17.684M17.684 18.5798H17.684M17.684 18.5798H17.684M17.684 18.5798H17.6841M17.684 18.5798H17.6841M17.6841 18.5798H17.6841M17.6841 18.5798H17.6841M17.6841 18.5798H17.6841M17.6841 18.5798H17.6841M17.6841 18.5798H17.6841M17.6841 18.5798H17.6841M17.6841 18.5798H17.6841M17.6841 18.5798H17.6841M17.6841 18.5798H17.6841M17.6841 18.5798H17.6841M17.6841 18.5798H17.6842M17.6841 18.5798H17.6842M17.6842 18.5798H17.6842M17.6842 18.5798H17.6842M17.6842 18.5798H17.6842M17.6842 18.5798H17.6842M17.6842 18.5798H17.6842M17.6842 18.5798H17.6842M17.6842 18.5798H17.6842M17.6842 18.5798H17.6842M17.6842 18.5798H17.6843M17.6842 18.5798H17.6843M17.6843 18.5798H17.6843M17.6843 18.5798H17.6843M17.6843 18.5798H17.6843M17.6843 18.5798H17.6843M17.6843 18.5798H17.6843M17.6843 18.5798H17.6843M17.6843 18.5798H17.6843M17.6843 18.5798H17.6843M17.6843 18.5798H17.6843M17.6843 18.5798H17.6843M17.6843 18.5798H17.6844M17.6843 18.5798H17.6844M17.6844 18.5798H17.6844M17.6844 18.5798H17.6844M17.6844 18.5798H17.6844M17.6844 18.5798H17.6844M17.6844 18.5798H17.6844M17.6844 18.5798H17.6844M17.6844 18.5798H17.6844M17.6844 18.5798H17.6844M17.6844 18.5798H17.6844M17.6844 18.5798H17.6844M17.6844 18.5798H17.6845M17.6844 18.5798H17.6845M17.6845 18.5798H17.6845M17.6845 18.5798H17.6845M17.6845 18.5798H17.6845M17.6845 18.5798H17.6845M17.6845 18.5798H17.6845M17.6845 18.5798H17.6845M17.6845 18.5798H17.6845M17.6845 18.5798H17.6845M17.6845 18.5798H17.6846M17.6845 18.5798H17.6846M17.6846 18.5798H17.6846M17.6846 18.5798H17.6846M17.6846 18.5798H17.6846M17.6846 18.5798H17.6846M17.6846 18.5798H17.6846M17.6846 18.5798H17.6846M17.6846 18.5798H17.6846M17.6846 18.5798H17.6846M17.6846 18.5798H17.6846M17.6846 18.5798H17.6846M17.6846 18.5798H17.6847M17.6846 18.5798H17.6847M17.6847 18.5798H17.6847M17.6847 18.5798H17.6847M17.6847 18.5798H17.6847M17.6847 18.5798H17.6847M17.6847 18.5798H17.6847M17.6847 18.5798H17.6847M17.6847 18.5798H17.6847M17.6847 18.5798H17.6847M17.6847 18.5798H17.6847M17.6847 18.5798H17.6847M17.6847 18.5798H17.6848M17.6847 18.5798H17.6848M17.6848 18.5798H17.6848M17.6848 18.5798H17.6848M17.6848 18.5798H17.6848M17.6848 18.5798H17.6848M17.6848 18.5798H17.6848M17.6848 18.5798H17.6848M17.6848 18.5798H17.6848M17.6848 18.5798H17.6848M17.6848 18.5798H17.6849M17.6848 18.5798H17.6849M17.6849 18.5798H17.6849M17.6849 18.5798H17.6849M17.6849 18.5798H17.6849M17.6849 18.5798H17.6849M17.6849 18.5798H17.6849M17.6849 18.5798H17.6849M17.6849 18.5798H17.6849M17.6849 18.5798H17.6849M17.6849 18.5798H17.6849M17.6849 18.5798H17.6849M17.6849 18.5798H17.685M17.6849 18.5798H17.685M17.685 18.5798H17.685M17.685 18.5798H17.685M17.685 18.5798H17.685M17.685 18.5798H17.685M17.685 18.5798H17.685M17.685 18.5798H17.685M17.685 18.5798H17.685M17.685 18.5798H17.685M17.685 18.5798H17.685M17.685 18.5798H17.685M17.685 18.5798H17.6851M17.685 18.5798H17.6851M17.6851 18.5798H17.6851M17.6851 18.5798H17.6851M17.6851 18.5798H17.6851M17.6851 18.5798H17.6851M17.6851 18.5798H17.6851M17.6851 18.5798H17.6851M17.6851 18.5798H17.6851M17.6851 18.5798H17.6851M17.6851 18.5798H17.6852M17.6851 18.5798H17.6852M17.6852 18.5798H17.6852M17.6852 18.5798H17.6852M17.6852 18.5798H17.6852M17.6852 18.5798H17.6852M17.6852 18.5798H17.6852M17.6852 18.5798H17.6852M17.6852 18.5798H17.6852M17.6852 18.5798H17.6852M17.6852 18.5798H17.6852M17.6852 18.5798H17.6852M17.6852 18.5798H17.6853M17.6852 18.5798H17.6853M17.6853 18.5798H17.6853M17.6853 18.5798H17.6853M17.6853 18.5798H17.6853M17.6853 18.5798H17.6853M17.6853 18.5798H17.6853M17.6853 18.5798H17.6853M17.6853 18.5798H17.6853M17.6853 18.5798H17.6853M17.6853 18.5798H17.6854M17.6853 18.5798H17.6854M17.6854 18.5798H17.6854M17.6854 18.5798H17.6854M17.6854 18.5798H17.6854M17.6854 18.5798H17.6854M17.6854 18.5798H17.6854M17.6854 18.5798H17.6854M17.6854 18.5798H17.6854M17.6854 18.5798H17.6854M17.6854 18.5798H17.6854M17.6854 18.5798H17.6854M17.6854 18.5798H17.6855M17.6854 18.5798H17.6855M17.6855 18.5798H17.6855M17.6855 18.5798H17.6855M17.6855 18.5798H17.6855M17.6855 18.5798H17.6855M17.6855 18.5798H17.6855M17.6855 18.5798H17.6855M17.6855 18.5798H17.6855M17.6855 18.5798H17.6855M17.6855 18.5798H17.6855M17.6855 18.5798H17.6855M17.6855 18.5798H17.6856M17.6855 18.5798H17.6856M17.6856 18.5798H17.6856M17.6856 18.5798H17.6856M17.6856 18.5798H17.6856M17.6856 18.5798H17.6856M17.6856 18.5798H17.6856M17.6856 18.5798H17.6856M17.6856 18.5798H17.6856M17.6856 18.5798H17.6856M17.6856 18.5798H17.6857M17.6856 18.5798H17.6857M17.6857 18.5798H17.6857M17.6857 18.5798H17.6857M17.6857 18.5798H17.6857M17.6857 18.5798H17.6857M17.6857 18.5798H17.6857M17.6857 18.5798H17.6857M17.6857 18.5798H17.6857M17.6857 18.5798H17.6857M17.6857 18.5798H17.6857M17.6857 18.5798H17.6857M17.6857 18.5798H17.6858M17.6857 18.5798H17.6858M17.6858 18.5798H17.6858M17.6858 18.5798H17.6858M17.6858 18.5798H17.6858M17.6858 18.5798H17.6858M17.6858 18.5798H17.6858M17.6858 18.5798H17.6858M17.6858 18.5798H17.6858M17.6858 18.5798H17.6858M17.6858 18.5798H17.6859M17.6858 18.5798H17.6859M17.6859 18.5798H17.6859M17.6859 18.5798H17.6859M17.6859 18.5798H17.6859M17.6859 18.5798H17.6859M17.6859 18.5798H17.6859M17.6859 18.5798H17.6859M17.6859 18.5798H17.6859M17.6859 18.5798H17.6859M17.6859 18.5798H17.6859M17.6859 18.5798H17.6859M17.6859 18.5798H17.686M17.6859 18.5798H17.686M17.686 18.5798H17.686M17.686 18.5798H17.686M17.686 18.5798H17.686M17.686 18.5798H17.686M17.686 18.5798H17.686M17.686 18.5798H17.686M17.686 18.5798H17.686M17.686 18.5798H17.686M17.686 18.5798H17.6861M17.686 18.5798H17.6861M17.6861 18.5798H17.6861M17.6861 18.5798H17.6861M17.6861 18.5798H17.6861M17.6861 18.5798H17.6861M17.6861 18.5798H17.6861M17.6861 18.5798H17.6861M17.6861 18.5798H17.6861M17.6861 18.5798H17.6861M17.6861 18.5798H17.6861M17.6861 18.5798H17.6861M17.6861 18.5798H17.6862M17.6861 18.5798H17.6862M17.6862 18.5798H17.6862M17.6862 18.5798H17.6862M17.6862 18.5798H17.6862M17.6862 18.5798H17.6862M17.6862 18.5798H17.6862M17.6862 18.5798H17.6862M17.6862 18.5798H17.6862M17.6862 18.5798H17.6862M17.6862 18.5798H17.6863M17.6862 18.5798H17.6863M17.6863 18.5798H17.6863M17.6863 18.5798H17.6863M17.6863 18.5798H17.6863M17.6863 18.5798H17.6863M17.6863 18.5798H17.6863M17.6863 18.5798H17.6863M17.6863 18.5798H17.6863M17.6863 18.5798H17.6863M17.6863 18.5798H17.6863M17.6863 18.5798H17.6863M17.6863 18.5798H17.6864M17.6863 18.5798H17.6864M17.6864 18.5798H17.6864M17.6864 18.5798H17.6864M17.6864 18.5798H17.6864M17.6864 18.5798H17.6864M17.6864 18.5798H17.6864M17.6864 18.5798H17.6864M17.6864 18.5798H17.6864M17.6864 18.5798H17.6864M17.6864 18.5798H17.6865M17.6864 18.5798H17.6865M17.6865 18.5798H17.6865M17.6865 18.5798H17.6865M17.6865 18.5798H17.6865M17.6865 18.5798H17.6865M17.6865 18.5798H17.6865M17.6865 18.5798H17.6865M17.6865 18.5798H17.6865M17.6865 18.5798H17.6865M17.6865 18.5798H17.6865M17.6865 18.5798H17.6865M17.6865 18.5798H17.6866M17.6865 18.5798H17.6866M17.6866 18.5798H17.6866M17.6866 18.5798H17.6866M17.6866 18.5798H17.6866M17.6866 18.5798H17.6866M17.6866 18.5798H17.6866M17.6866 18.5798H17.6866M17.6866 18.5798H17.6866M17.6866 18.5798H17.6866M17.6866 18.5798H17.6867M17.6866 18.5798H17.6867M17.6867 18.5798H17.6867M17.6867 18.5798H17.6867M17.6867 18.5798H17.6867M17.6867 18.5798H17.6867M17.6867 18.5798H17.6867M17.6867 18.5798H17.6867M17.6867 18.5798H17.6867M17.6867 18.5798H17.6867M17.6867 18.5798H17.6867M17.6867 18.5798H17.6867M17.6867 18.5798H17.6868M17.6867 18.5798H17.6868M17.6868 18.5798H17.6868M17.6868 18.5798H17.6868M17.6868 18.5798H17.6868M17.6868 18.5798H17.6868M17.6868 18.5798H17.6868M17.6868 18.5798H17.6868M17.6868 18.5798H17.6868M17.6868 18.5798H17.6868M17.6868 18.5798H17.6869M17.6868 18.5798H17.6869M17.6869 18.5798H17.6869M17.6869 18.5798H17.6869M17.6869 18.5798H17.6869M17.6869 18.5798H17.6869M17.6869 18.5798H17.6869M17.6869 18.5798H17.6869M17.6869 18.5798H17.6869M17.6869 18.5798H17.6869M17.6869 18.5798H17.6869M17.6869 18.5798H17.6869M17.6869 18.5798H17.687M17.6869 18.5798H17.687M17.687 18.5798H17.687M17.687 18.5798H17.687M17.687 18.5798H17.687M17.687 18.5798H17.687M17.687 18.5798H17.687M17.687 18.5798H17.687M17.687 18.5798H17.687M17.687 18.5798H17.687M17.687 18.5798H17.6871M17.687 18.5798H17.6871M17.6871 18.5798H17.6871M17.6871 18.5798H17.6871M17.6871 18.5798H17.6871M17.6871 18.5798H17.6871M17.6871 18.5798H17.6871M17.6871 18.5798H17.6871M17.6871 18.5798H17.6871M17.6871 18.5798H17.6871M17.6871 18.5798H17.6871M17.6871 18.5798H17.6871M17.6871 18.5798H17.6872M17.6871 18.5798H17.6872M17.6872 18.5798H17.6872M17.6872 18.5798H17.6872M17.6872 18.5798H17.6872M17.6872 18.5798H17.6872M17.6872 18.5798H17.6872M17.6872 18.5798H17.6872M17.6872 18.5798H17.6872M17.6872 18.5798H17.6872M17.6872 18.5798H17.6873M17.6872 18.5798H17.6873M17.6873 18.5798H17.6873M17.6873 18.5798H17.6873M17.6873 18.5798H17.6873M17.6873 18.5798H17.6873M17.6873 18.5798H17.6873M17.6873 18.5798H17.6873M17.6873 18.5798H17.6873M17.6873 18.5798H17.6873M17.6873 18.5798H17.6873M17.6873 18.5798H17.6873M17.6873 18.5798H17.6874M17.6873 18.5798H17.6874M17.6874 18.5798H17.6874M17.6874 18.5798H17.6874M17.6874 18.5798H17.6874M17.6874 18.5798H17.6874M17.6874 18.5798H17.6874M17.6874 18.5798H17.6874M17.6874 18.5798H17.6874M17.6874 18.5798H17.6874M17.6874 18.5798H17.6875M17.6874 18.5798H17.6875M17.6875 18.5798H17.6875M17.6875 18.5798H17.6875M17.6875 18.5798H17.6875M17.6875 18.5798H17.6875M17.6875 18.5798H17.6875M17.6875 18.5798H17.6875M17.6875 18.5798H17.6875M17.6875 18.5798H17.6875M17.6875 18.5798H17.6875M17.6875 18.5798H17.6875M17.6875 18.5798H17.6876M17.6875 18.5798H17.6876M17.6876 18.5798H17.6876M17.6876 18.5798H17.6876M17.6876 18.5798H17.6876M17.6876 18.5798H17.6876M17.6876 18.5798H17.6876M17.6876 18.5798H17.6876M17.6876 18.5798H17.6876M17.6876 18.5798H17.6876M17.6876 18.5798H17.6877M17.6876 18.5798H17.6877M17.6877 18.5798H17.6877M17.6877 18.5798H17.6877M17.6877 18.5798H17.6877M17.6877 18.5798H17.6877M17.6877 18.5798H17.6877M17.6877 18.5798H17.6877M17.6877 18.5798H17.6877M17.6877 18.5798H17.6877M17.6877 18.5798H17.6877M17.6877 18.5798H17.6877M17.6877 18.5798H17.6878M17.6877 18.5798H17.6878M17.6878 18.5798H17.6878M17.6878 18.5798H17.6878M17.6878 18.5798H17.6878M17.6878 18.5798H17.6878M17.6878 18.5798H17.6878M17.6878 18.5798H17.6878M17.6878 18.5798H17.6878M17.6878 18.5798H17.6878M17.6878 18.5798H17.6879M17.6878 18.5798H17.6879M17.6879 18.5798H17.6879M17.6879 18.5798H17.6879M17.6879 18.5798H17.6879M17.6879 18.5798H17.6879M17.6879 18.5798H17.6879M17.6879 18.5798H17.6879M17.6879 18.5798H17.6879M17.6879 18.5798H17.6879M17.6879 18.5798H17.6879M17.6879 18.5798H17.6879M17.6879 18.5798H17.688M17.6879 18.5798H17.688M17.688 18.5798H17.688M17.688 18.5798H17.688M17.688 18.5798H17.688M17.688 18.5798H17.688M17.688 18.5798H17.688M17.688 18.5798H17.688M17.688 18.5798H17.688M17.688 18.5798H17.688M17.688 18.5798H17.6881M17.688 18.5798H17.6881M17.6881 18.5798H17.6881M17.6881 18.5798H17.6881M17.6881 18.5798H17.6881M17.6881 18.5798H17.6881M17.6881 18.5798H17.6881M17.6881 18.5798H17.6881M17.6881 18.5798H17.6881M17.6881 18.5798H17.6881M17.6881 18.5798H17.6881M17.6881 18.5798H17.6881M17.6881 18.5798H17.6882M17.6881 18.5798H17.6882M17.6882 18.5798H17.6882M17.6882 18.5798H17.6882M17.6882 18.5798H17.6882M17.6882 18.5798H17.6882M17.6882 18.5798H17.6882M17.6882 18.5798H17.6882M17.6882 18.5798H17.6882M17.6882 18.5798H17.6882M17.6882 18.5798H17.6883M17.6882 18.5798H17.6883M17.6883 18.5798H17.6883M17.6883 18.5798H17.6883M17.6883 18.5798H17.6883M17.6883 18.5798H17.6883M17.6883 18.5798H17.6883M17.6883 18.5798H17.6883M17.6883 18.5798H17.6883M17.6883 18.5798H17.6883M17.6883 18.5798H17.6883M17.6883 18.5798H17.6883M17.6883 18.5798H17.6884M17.6883 18.5798H17.6884M17.6884 18.5798H17.6884M17.6884 18.5798H17.6884M17.6884 18.5798H17.6884M17.6884 18.5798H17.6884M17.6884 18.5798H17.6884M17.6884 18.5798H17.6884M17.6884 18.5798H17.6884M17.6884 18.5798H17.6884M17.6884 18.5798H17.6885M17.6884 18.5798H17.6885M17.6885 18.5798H17.6885M17.6885 18.5798H17.6885M17.6885 18.5798H17.6885M17.6885 18.5798H17.6885M17.6885 18.5798H17.6885M17.6885 18.5798H17.6885M17.6885 18.5798H17.6885M17.6885 18.5798H17.6885M17.6885 18.5798H17.6885M17.6885 18.5798H17.6885M17.6885 18.5798H17.6886M17.6885 18.5798H17.6886M17.6886 18.5798H17.6886M17.6886 18.5798H17.6886M17.6886 18.5798H17.6886M17.6886 18.5798H17.6886M17.6886 18.5798H17.6886M17.6886 18.5798H17.6886M17.6886 18.5798H17.6886M17.6886 18.5798H17.6886M17.6886 18.5798H17.6887M17.6886 18.5798H17.6887M17.6887 18.5798H17.6887M17.6887 18.5798H17.6887M17.6887 18.5798H17.6887M17.6887 18.5798H17.6887M17.6887 18.5798H17.6887M17.6887 18.5798H17.6887M17.6887 18.5798H17.6887M17.6887 18.5798H17.6887M17.6887 18.5798H17.6887M17.6887 18.5798H17.6887M17.6887 18.5798H17.6888M17.6887 18.5798H17.6888M17.6888 18.5798H17.6888M17.6888 18.5798H17.6888M17.6888 18.5798H17.6888M17.6888 18.5798H17.6888M17.6888 18.5798H17.6888M17.6888 18.5798H17.6888M17.6888 18.5798H17.6888M17.6888 18.5798H17.6888M17.6888 18.5798H17.6889M17.6888 18.5798H17.6889M17.6889 18.5798H17.6889M17.6889 18.5798H17.6889M17.6889 18.5798H17.6889M17.6889 18.5798H17.6889M17.6889 18.5798H17.6889M17.6889 18.5798H17.6889M17.6889 18.5798H17.6889M17.6889 18.5798H17.6889M17.6889 18.5798H17.6889M17.6889 18.5798H17.6889M17.6889 18.5798H17.689M17.6889 18.5798H17.689M17.689 18.5798H17.689M17.689 18.5798H17.689M17.689 18.5798H17.689M17.689 18.5798H17.689M17.689 18.5798H17.689M17.689 18.5798H17.689M17.689 18.5798H17.689M17.689 18.5798H17.689M17.689 18.5798H17.6891M17.689 18.5798H17.6891M17.6891 18.5798H17.6891M17.6891 18.5798H17.6891M17.6891 18.5798H17.6891M17.6891 18.5798H17.6891M17.6891 18.5798H17.6891M17.6891 18.5798H17.6891M17.6891 18.5798H17.6891M17.6891 18.5798H17.6891M17.6891 18.5798H17.6891M17.6891 18.5798H17.6891M17.6891 18.5798H17.6892M17.6891 18.5798H17.6892M17.6892 18.5798H17.6892M17.6892 18.5798H17.6892M17.6892 18.5798H17.6892M17.6892 18.5798H17.6892M17.6892 18.5798H17.6892M17.6892 18.5798H17.6892M17.6892 18.5798H17.6892M17.6892 18.5798H17.6892M17.6892 18.5798H17.6893M17.6892 18.5798H17.6893M17.6893 18.5798H17.6893M17.6893 18.5798H17.6893M17.6893 18.5798H17.6893M17.6893 18.5798H17.6893M17.6893 18.5798H17.6893M17.6893 18.5798H17.6893M17.6893 18.5798H17.6893M17.6893 18.5798H17.6893M17.6893 18.5798H17.6893M17.6893 18.5798H17.6893M17.6893 18.5798H17.6894M17.6893 18.5798H17.6894M17.6894 18.5798H17.6894M17.6894 18.5798H17.6894M17.6894 18.5798H17.6894M17.6894 18.5798H17.6894M17.6894 18.5798H17.6894M17.6894 18.5798H17.6894M17.6894 18.5798H17.6894M17.6894 18.5798H17.6894M17.6894 18.5798H17.6895M17.6894 18.5798H17.6895M17.6895 18.5798H17.6895M17.6895 18.5798H17.6895M17.6895 18.5798H17.6895M17.6895 18.5798H17.6895M17.6895 18.5798H17.6895M17.6895 18.5798H17.6895M17.6895 18.5798H17.6895M17.6895 18.5798H17.6895M17.6895 18.5798H17.6895M17.6895 18.5798H17.6895M17.6895 18.5798H17.6896M17.6895 18.5798H17.6896M17.6896 18.5798H17.6896M17.6896 18.5798H17.6896M17.6896 18.5798H17.6896M17.6896 18.5798H17.6896M17.6896 18.5798H17.6896M17.6896 18.5798H17.6896M17.6896 18.5798H17.6896M17.6896 18.5798H17.6896M17.6896 18.5798H17.6897M17.6896 18.5798H17.6897M17.6897 18.5798H17.6897M17.6897 18.5798H17.6897M17.6897 18.5798H17.6897M17.6897 18.5798H17.6897M17.6897 18.5798H17.6897M17.6897 18.5798H17.6897M17.6897 18.5798H17.6897M17.6897 18.5798H17.6897M17.6897 18.5798H17.6897M17.6897 18.5798H17.6897M17.6897 18.5798H17.6898M17.6897 18.5798H17.6898M17.6898 18.5798H17.6898M17.6898 18.5798H17.6898M17.6898 18.5798H17.6898M17.6898 18.5798H17.6898M17.6898 18.5798H17.6898M17.6898 18.5798H17.6898M17.6898 18.5798H17.6898M17.6898 18.5798H17.6898M17.6898 18.5798H17.6899M17.6898 18.5798H17.6899M17.6899 18.5798H17.6899M17.6899 18.5798H17.6899M17.6899 18.5798H17.6899M17.6899 18.5798H17.6899M17.6899 18.5798H17.6899M17.6899 18.5798H17.6899M17.6899 18.5798H17.6899M17.6899 18.5798H17.6899M17.6899 18.5798H17.6899M17.6899 18.5798H17.6899M17.6899 18.5798H17.69M17.6899 18.5798H17.69M17.69 18.5798H17.69M17.69 18.5798H17.69M17.69 18.5798H17.69M17.69 18.5798H17.69M17.69 18.5798H17.69M17.69 18.5798H17.69M17.69 18.5798H17.69M17.69 18.5798H17.69M17.69 18.5798H17.6901M17.69 18.5798H17.6901M17.6901 18.5798H17.6901M17.6901 18.5798H17.6901M17.6901 18.5798H17.6901M17.6901 18.5798H17.6901M17.6901 18.5798H17.6901M17.6901 18.5798H17.6901M17.6901 18.5798H17.6901M17.6901 18.5798H17.6901M17.6901 18.5798H17.6901M17.6901 18.5798H17.6901M17.6901 18.5798H17.6902M17.6901 18.5798H17.6902M17.6902 18.5798H17.6902M17.6902 18.5798H17.6902M17.6902 18.5798H17.6902M17.6902 18.5798H17.6902M17.6902 18.5798H17.6902M17.6902 18.5798H17.6902M17.6902 18.5798H17.6902M17.6902 18.5798H17.6902M17.6902 18.5798H17.6902M17.6902 18.5798H17.6902M17.6902 18.5798H17.6903M17.6902 18.5798H17.6903M17.6903 18.5798H17.6903M17.6903 18.5798H17.6903M17.6903 18.5798H17.6903M17.6903 18.5798H17.6903M17.6903 18.5798H17.6903M17.6903 18.5798H17.6903M17.6903 18.5798H17.6903M17.6903 18.5798H17.6903M17.6903 18.5798H17.6904M17.6903 18.5798H17.6904M17.6904 18.5798H17.6904M17.6904 18.5798H17.6904M17.6904 18.5798H17.6904M17.6904 18.5798H17.6904M17.6904 18.5798H17.6904M17.6904 18.5798H17.6904M17.6904 18.5798H17.6904M17.6904 18.5798H17.6904M17.6904 18.5798H17.6904M17.6904 18.5798H17.6904M17.6904 18.5798H17.6905M17.6904 18.5798H17.6905M17.6905 18.5798H17.6905M17.6905 18.5798H17.6905M17.6905 18.5798H17.6905M17.6905 18.5798H17.6905M17.6905 18.5798H17.6905M17.6905 18.5798H17.6905M17.6905 18.5798H17.6905M17.6905 18.5798H17.6905M17.6905 18.5798H17.6906M17.6905 18.5798H17.6906M17.6906 18.5798H17.6906M17.6906 18.5798H17.6906M17.6906 18.5798H17.6906M17.6906 18.5798H17.6906M17.6906 18.5798H17.6906M17.6906 18.5798H17.6906M17.6906 18.5798H17.6906M17.6906 18.5798H17.6906M17.6906 18.5798H17.6906M17.6906 18.5798H17.6906M17.6906 18.5798H17.6907M17.6906 18.5798H17.6907M17.6907 18.5798H17.6907M17.6907 18.5798H17.6907M17.6907 18.5798H17.6907M17.6907 18.5798H17.6907M17.6907 18.5798H17.6907M17.6907 18.5798H17.6907M17.6907 18.5798H17.6907M17.6907 18.5798H17.6907M17.6907 18.5798H17.6907M17.6907 18.5798H17.6907M17.6907 18.5798H17.6908M17.6907 18.5798H17.6908M17.6908 18.5798H17.6908M17.6908 18.5798H17.6908M17.6908 18.5798H17.6908M17.6908 18.5798H17.6908M17.6908 18.5798H17.6908M17.6908 18.5798H17.6908M17.6908 18.5798H17.6908M17.6908 18.5798H17.6908M17.6908 18.5798H17.6909M17.6908 18.5798H17.6909M17.6909 18.5798H17.6909M17.6909 18.5798H17.6909M17.6909 18.5798H17.6909M17.6909 18.5798H17.6909M17.6909 18.5798H17.6909M17.6909 18.5798H17.6909M17.6909 18.5798H17.6909M17.6909 18.5798H17.6909M17.6909 18.5798H17.6909M17.6909 18.5798H17.6909M17.6909 18.5798H17.691M17.6909 18.5798H17.691M17.691 18.5798H17.691M17.691 18.5798H17.691M17.691 18.5798H17.691M17.691 18.5798H17.691M17.691 18.5798H17.691M17.691 18.5798H17.691M17.691 18.5798H17.691M17.691 18.5798H17.691M17.691 18.5798H17.691M17.691 18.5798H17.691M17.691 18.5798H17.6911M17.691 18.5798H17.6911M17.6911 18.5798H17.6911M17.6911 18.5798H17.6911M17.6911 18.5798H17.6911M17.6911 18.5798H17.6911M17.6911 18.5798H17.6911M17.6911 18.5798H17.6911M17.6911 18.5798H17.6911M17.6911 18.5798H17.6911M17.6911 18.5798H17.6912M17.6911 18.5798H17.6912M17.6912 18.5798H17.6912M17.6912 18.5798H17.6912M17.6912 18.5798H17.6912M17.6912 18.5798H17.6912M17.6912 18.5798H17.6912M17.6912 18.5798H17.6912M17.6912 18.5798H17.6912M17.6912 18.5798H17.6912M17.6912 18.5798H17.6912M17.6912 18.5798H17.6912M17.6912 18.5798H17.6913M17.6912 18.5798H17.6913M17.6913 18.5798H17.6913M17.6913 18.5798H17.6913M17.6913 18.5798H17.6913M17.6913 18.5798H17.6913M17.6913 18.5798H17.6913M17.6913 18.5798H17.6913M17.6913 18.5798H17.6913M17.6913 18.5798H17.6913M17.6913 18.5798H17.6913M17.6913 18.5798H17.6913M17.6913 18.5798H17.6914M17.6913 18.5798H17.6914M17.6914 18.5798H17.6914M17.6914 18.5798H17.6914M17.6914 18.5798H17.6914M17.6914 18.5798H17.6914M17.6914 18.5798H17.6914M17.6914 18.5798H17.6914M17.6914 18.5798H17.6914M17.6914 18.5798H17.6914M17.6914 18.5798H17.6915M17.6914 18.5798H17.6915M17.6915 18.5798H17.6915M17.6915 18.5798H17.6915M17.6915 18.5798H17.6915M17.6915 18.5798H17.6915M17.6915 18.5798H17.6915M17.6915 18.5798H17.6915M17.6915 18.5798H17.6915M17.6915 18.5798H17.6915M17.6915 18.5798H17.6915M17.6915 18.5798H17.6915M17.6915 18.5798H17.6916M17.6915 18.5798H17.6916M17.6916 18.5798H17.6916M17.6916 18.5798H17.6916M17.6916 18.5798H17.6916M17.6916 18.5798H17.6916M17.6916 18.5798H17.6916M17.6916 18.5798H17.6916M17.6916 18.5798H17.6916M17.6916 18.5798H17.6916M17.6916 18.5798H17.6916M17.6916 18.5798H17.6916M17.6916 18.5798H17.6917M17.6916 18.5798H17.6917M17.6917 18.5798H17.6917M17.6917 18.5798H17.6917M17.6917 18.5798H17.6917M17.6917 18.5798H17.6917M17.6917 18.5798H17.6917M17.6917 18.5798H17.6917M17.6917 18.5798H17.6917M17.6917 18.5798H17.6917M17.6917 18.5798H17.6917M17.6917 18.5798H17.6917M17.6917 18.5798H17.6918M17.6917 18.5798H17.6918M17.6918 18.5798H17.6918M17.6918 18.5798H17.6918M17.6918 18.5798H17.6918M17.6918 18.5798H17.6918M17.6918 18.5798H17.6918M17.6918 18.5798H17.6918M17.6918 18.5798H17.6918M17.6918 18.5798H17.6918M17.6918 18.5798H17.6919M17.6918 18.5798H17.6919M17.6919 18.5798H17.6919M17.6919 18.5798H17.6919M17.6919 18.5798H17.6919M17.6919 18.5798H17.6919M17.6919 18.5798H17.6919M17.6919 18.5798H17.6919M17.6919 18.5798H17.6919M17.6919 18.5798H17.6919M17.6919 18.5798H17.6919M17.6919 18.5798H17.6919M17.6919 18.5798H17.692M17.6919 18.5798H17.692M17.692 18.5798H17.692M17.692 18.5798H17.692M17.692 18.5798H17.692M17.692 18.5798H17.692M17.692 18.5798H17.692M17.692 18.5798H17.692M17.692 18.5798H17.692M17.692 18.5798H17.692M17.692 18.5798H17.692M17.692 18.5798H17.692M17.692 18.5798H17.6921M17.692 18.5798H17.6921M17.6921 18.5798H17.6921M17.6921 18.5798H17.6921M17.6921 18.5798H17.6921M17.6921 18.5798H17.6921M17.6921 18.5798H17.6921M17.6921 18.5798H17.6921M17.6921 18.5798H17.6921M17.6921 18.5798H17.6921M17.6921 18.5798H17.6921M17.6921 18.5798H17.6921M17.6921 18.5798H17.6922M17.6921 18.5798H17.6922M17.6922 18.5798H17.6922M17.6922 18.5798H17.6922M17.6922 18.5798H17.6922M17.6922 18.5798H17.6922M17.6922 18.5798H17.6922M17.6922 18.5798H17.6922M17.6922 18.5798H17.6922M17.6922 18.5798H17.6922M17.6922 18.5798H17.6922M17.6922 18.5798H17.6922M17.6922 18.5798H17.6923M17.6922 18.5798H17.6923M17.6923 18.5798H17.6923M17.6923 18.5798H17.6923M17.6923 18.5798H17.6923M17.6923 18.5798H17.6923M17.6923 18.5798H17.6923M17.6923 18.5798H17.6923M17.6923 18.5798H17.6923M17.6923 18.5798H17.6923M17.6923 18.5798H17.6924M17.6923 18.5798H17.6924M17.6924 18.5798H17.6924M17.6924 18.5798H17.6924M17.6924 18.5798H17.6924M17.6924 18.5798H17.6924M17.6924 18.5798H17.6924M17.6924 18.5798H17.6924M17.6924 18.5798H17.6924M17.6924 18.5798H17.6924M17.6924 18.5798C17.9457 18.5798 18.162 18.3937 18.1983 18.1421L17.6924 18.5798ZM11.9551 9.10451L12.9837 14.0631L12.5435 7.40589C12.5078 7.23192 12.3645 7.10113 12.1885 7.08079L12.2002 6.98148C12.2001 6.98147 12.2 6.98146 12.2 6.98145C11.9809 6.95571 11.7704 7.0741 11.6776 7.27412L10.7695 9.22911H1.41147C1.12877 9.22911 0.9 9.45776 0.9 9.74016C0.9 10.0225 1.12912 10.2516 1.41147 10.2516H11.0961C11.295 10.2516 11.4756 10.1359 11.5596 9.95552L11.5596 9.95545L11.9551 9.10451ZM13.4828 11.4389L12.6414 7.38579L18.3557 9.94658L17.7932 13.8167L16.5854 1.36167L16.5854 1.36154C16.5606 1.10992 16.3563 0.913698 16.1033 0.900275L16.1033 0.900236L16.1005 0.900166C15.8576 0.894066 15.628 1.05754 15.5758 1.30729L15.5758 1.3075L13.4828 11.4389ZM18.8612 9.50855C18.6074 9.50855 18.3916 9.69514 18.3558 9.94625L18.1983 18.1419L19.304 10.5311H24.5889C24.8714 10.5311 25.1 10.3019 25.1 10.02C25.1 9.7378 24.8714 9.50855 24.5889 9.50855H18.8612Z" fill="#424242" stroke="#424242" stroke-width="0.2"/>
</svg>
