<svg width="30" height="30" viewBox="0 0 30 30" fill="none" xmlns="http://www.w3.org/2000/svg">
<path d="M24.8785 14.6423C23.7623 13.26 19.7522 8.75 14.9999 8.75C10.2496 8.75 6.23825 13.2598 5.12178 14.6419C4.95941 14.8428 4.95941 15.158 5.12178 15.359C6.23849 16.7412 10.2504 21.25 14.9999 21.25C19.7514 21.25 23.762 16.7409 24.8785 15.359C25.0405 15.1582 25.0405 14.8433 24.8785 14.6424V14.6423ZM14.9999 20.2075C10.9501 20.2075 7.41938 16.5898 6.06453 15.0007C7.4189 13.4105 10.9493 9.79248 14.9999 9.79248C19.0522 9.79248 22.5817 13.4107 23.9353 15.0007C22.5812 16.5901 19.0514 20.2075 14.9999 20.2075V20.2075ZM12.5679 15.0007C12.5679 16.5741 13.6589 17.854 14.9999 17.854C16.341 17.854 17.432 16.5741 17.432 15.0007C17.432 13.4267 16.341 12.1463 14.9999 12.1463C13.6589 12.1463 12.5679 13.4267 12.5679 15.0007ZM16.5436 15.0007C16.5436 15.9991 15.851 16.8115 14.9998 16.8115C14.1487 16.8115 13.4561 15.9991 13.4561 15.0007C13.4561 14.0017 14.1487 13.1889 14.9998 13.1889C15.851 13.1887 16.5436 14.0017 16.5436 15.0007Z" fill="#9D9D9D" stroke="#9D9D9D" stroke-width="0.5"/>
</svg>
