<svg width="26" height="26" viewBox="0 0 26 26" fill="none" xmlns="http://www.w3.org/2000/svg">
<path d="M3 9.625H7.82759L9.75862 14L12.6552 7L13.6207 10.5H17" stroke="#27235E" stroke-width="1.2" stroke-linecap="round" stroke-linejoin="round"/>
<path d="M24.7339 14.0493C24.5632 13.6483 24.3171 13.2849 24.0094 12.9794C23.7014 12.6731 23.3383 12.4296 22.9398 12.2623C22.5266 12.0881 22.0834 11.999 21.6359 12C21.0082 12 20.3958 12.1744 19.8635 12.5039C19.7362 12.5828 19.6152 12.6693 19.5006 12.7636C19.386 12.6693 19.2651 12.5828 19.1377 12.5039C18.6055 12.1744 17.993 12 17.3653 12C16.9133 12 16.4753 12.0879 16.0615 12.2623C15.6616 12.4303 15.3013 12.6719 14.9919 12.9794C14.6838 13.2845 14.4376 13.648 14.2674 14.0493C14.0904 14.4667 14 14.9098 14 15.366C14 15.7962 14.0866 16.2446 14.2585 16.7007C14.4024 17.0819 14.6086 17.4773 14.8722 17.8765C15.2898 18.5084 15.8641 19.1674 16.5771 19.8354C17.7588 20.9427 18.9289 21.7077 18.9786 21.7387L19.2804 21.9351C19.414 22.0216 19.5859 22.0216 19.7196 21.9351L20.0214 21.7387C20.0711 21.7064 21.2399 20.9427 22.4228 19.8354C23.1359 19.1674 23.7101 18.5084 24.1278 17.8765C24.3914 17.4773 24.5989 17.0819 24.7415 16.7007C24.9134 16.2446 25 15.7962 25 15.366C25.0013 14.9098 24.9109 14.4667 24.7339 14.0493V14.0493Z" stroke="#27235E" stroke-width="1.2"/>
<path fill-rule="evenodd" clip-rule="evenodd" d="M5 5.2H17C17.9941 5.2 18.8 6.00589 18.8 7V12.3206C18.9156 12.3751 19.0284 12.4362 19.1377 12.5039C19.2651 12.5828 19.386 12.6693 19.5006 12.7636C19.6152 12.6693 19.7362 12.5828 19.8635 12.5039C19.9085 12.4761 19.954 12.4494 20 12.4238V7C20 5.34315 18.6569 4 17 4H5C3.34315 4 2 5.34315 2 7V19C2 20.6569 3.34315 22 5 22H17C17.6066 22 18.1711 21.82 18.6431 21.5104C18.3886 21.3315 18.01 21.0547 17.5781 20.7052C17.3966 20.7667 17.2022 20.8 17 20.8H5C4.00589 20.8 3.2 19.9941 3.2 19V7C3.2 6.00589 4.00589 5.2 5 5.2Z" fill="#27235E"/>
</svg>
