<svg width="24" height="24" viewBox="0 0 24 24" fill="none" xmlns="http://www.w3.org/2000/svg">
<path d="M19.0548 12.6943L19.1061 12.643V12.5706V5.95514C19.1061 4.63779 18.0433 3.575 16.726 3.575H3.70514C2.38779 3.575 1.325 4.63779 1.325 5.95514V18.0571C1.325 19.3624 2.38841 20.4231 3.70326 20.4373H3.70514H16.726C17.3061 20.4373 17.8585 20.2253 18.2709 19.8698L18.4273 19.735L18.2687 19.6028C18.1916 19.5386 18.1175 19.4741 18.0418 19.4083L18.0412 19.4078C17.9661 19.3425 17.8895 19.2759 17.8093 19.209L17.7022 19.1198L17.5912 19.2043C17.345 19.3919 17.0539 19.4966 16.726 19.4966H3.70514C2.90923 19.4966 2.26566 18.8531 2.26566 18.0571V5.95514C2.26566 5.15923 2.90923 4.51566 3.70514 4.51566H16.7128C17.5087 4.51566 18.1523 5.15923 18.1523 5.95514V12.5706V12.6371L18.1965 12.6868C18.2258 12.7198 18.2537 12.7503 18.2804 12.7795C18.3569 12.8633 18.4235 12.9362 18.4858 13.0253L18.6292 13.2301L18.7726 13.0253C18.857 12.9047 18.9548 12.7944 19.0548 12.6943Z" fill="white" stroke="white" stroke-width="0.35"/>
<path d="M8.72546 14.5079L8.7259 14.5091C8.78946 14.6785 8.9572 14.8064 9.15228 14.8064H9.15235H9.15243H9.15251H9.15258H9.15266H9.15273H9.15281H9.15288H9.15296H9.15303H9.15311H9.15318H9.15325H9.15333H9.1534H9.15347H9.15354H9.15361H9.15368H9.15376H9.15383H9.1539H9.15397H9.15404H9.15411H9.15418H9.15424H9.15431H9.15438H9.15445H9.15452H9.15458H9.15465H9.15472H9.15479H9.15485H9.15492H9.15498H9.15505H9.15511H9.15518H9.15524H9.15531H9.15537H9.15543H9.1555H9.15556H9.15562H9.15569H9.15575H9.15581H9.15587H9.15593H9.15599H9.15605H9.15611H9.15617H9.15623H9.15629H9.15635H9.15641H9.15647H9.15653H9.15658H9.15664H9.1567H9.15676H9.15681H9.15687H9.15693H9.15698H9.15704H9.15709H9.15715H9.1572H9.15726H9.15731H9.15736H9.15742H9.15747H9.15752H9.15757H9.15763H9.15768H9.15773H9.15778H9.15783H9.15788H9.15793H9.15798H9.15803H9.15808H9.15813H9.15818H9.15823H9.15828H9.15832H9.15837H9.15842H9.15847H9.15851H9.15856H9.15861H9.15865H9.1587H9.15874H9.15879H9.15883H9.15888H9.15892H9.15896H9.15901H9.15905H9.15909H9.15914H9.15918H9.15922H9.15926H9.1593H9.15934H9.15938H9.15942H9.15946H9.1595H9.15954H9.15958H9.15962H9.15966H9.1597H9.15974H9.15978H9.15981H9.15985H9.15989H9.15992H9.15996H9.16H9.16003H9.16007H9.1601H9.16014H9.16017H9.1602H9.16024H9.16027H9.1603H9.16034H9.16037H9.1604H9.16043H9.16047H9.1605H9.16053H9.16056H9.16059H9.16062H9.16065H9.16068H9.16071H9.16074H9.16077H9.16079H9.16082H9.16085H9.16088H9.16091H9.16093H9.16096H9.16098H9.16101H9.16104H9.16106H9.16109H9.16111H9.16114H9.16116H9.16118H9.16121H9.16123H9.16125H9.16128H9.1613H9.16132H9.16134H9.16137H9.16139H9.16141H9.16143H9.16145H9.16147H9.16149H9.16151H9.16153H9.16154H9.16156H9.16158H9.1616H9.16162H9.16163H9.16165H9.16167H9.16168H9.1617H9.16172H9.16173H9.16175H9.16176H9.16178H9.16179H9.1618H9.16182H9.16183H9.16184H9.16186H9.16187H9.16188H9.16189H9.16191H9.16192H9.16193H9.16194H9.16195H9.16196H9.16197H9.16198H9.16199H9.162H9.162H9.16201H9.16202H9.16203H9.16204H9.16204H9.16206H9.16207H9.16208H9.16209H9.1621H9.1621H9.16211H9.16212L9.16212 14.7298L9.16969 14.8055C9.36241 14.7862 9.53057 14.6668 9.59394 14.4767L9.59414 14.4768L9.59647 14.4684L11.3428 8.2165L11.6174 10.1019L11.6172 10.102L11.619 10.111C11.6599 10.3159 11.8434 10.488 12.0662 10.488H15.9646C16.2086 10.488 16.4072 10.2783 16.4276 10.0532L16.4283 10.0453V10.0373C16.4283 9.78317 16.2319 9.58669 15.9777 9.58669H12.4668L11.9375 5.98228L11.9377 5.98225L11.9359 5.97339C11.8941 5.76453 11.7248 5.61787 11.5192 5.59731L11.5192 5.5973L11.5176 5.59716C11.4089 5.58727 11.3044 5.61169 11.2177 5.67237C11.1317 5.73258 11.0747 5.82036 11.0454 5.91804L11.0454 5.91803L11.0445 5.92131L9.10292 12.8816L7.74137 9.18924L7.74104 9.18834C7.67748 9.01885 7.50974 8.89102 7.31466 8.89102H2.09058C1.83642 8.89102 1.63994 9.08751 1.63994 9.34167C1.63994 9.59583 1.83642 9.79231 2.09058 9.79231H6.99557L8.72546 14.5079Z" fill="white" stroke="white" stroke-width="0.35"/>
<path d="M16.5568 12C15.0242 12 14 13.2625 14 14.6678C14 15.9862 14.7463 17.1256 15.6587 18.0251C16.5712 18.9243 17.6602 19.5909 18.4073 19.9777C18.4655 20.0074 18.5345 20.0074 18.5927 19.9777C19.3399 19.5909 20.4288 18.9242 21.3413 18.0251C22.2537 17.1258 23 15.9863 23 14.6678C23 13.2625 21.9758 12 20.4432 12C19.5396 12 18.9394 12.4622 18.5 13.087C18.0605 12.4622 17.4602 12 16.5568 12H16.5568ZM16.5568 12.4104C17.433 12.4104 17.9131 12.8489 18.3242 13.5391C18.3611 13.6013 18.4279 13.6394 18.5 13.6394C18.5721 13.6394 18.6389 13.6013 18.6758 13.5391C19.0869 12.849 19.567 12.4104 20.4432 12.4104C21.7551 12.4104 22.5909 13.4577 22.5909 14.6678C22.5909 15.8297 21.9222 16.874 21.0536 17.7299C20.2166 18.5547 19.2165 19.1821 18.5 19.5608C17.7835 19.1821 16.7834 18.5547 15.9465 17.7299C15.0779 16.8738 14.4092 15.8296 14.4092 14.6678C14.4092 13.4577 15.2449 12.4104 16.5569 12.4104H16.5568Z" fill="white" stroke="white" stroke-width="0.8"/>
</svg>
