<svg width="179" height="28" viewBox="0 0 179 28" fill="none" xmlns="http://www.w3.org/2000/svg">
<path d="M2.42567 0.5H24.8486C25.9121 0.5 26.7743 1.36215 26.7743 2.42567V24.8486C26.7743 25.9121 25.9121 26.7743 24.8486 26.7743H2.42567C1.36215 26.7743 0.5 25.9121 0.5 24.8486V2.42567C0.5 1.36215 1.36215 0.5 2.42567 0.5Z" stroke="#FDEB01"/>
<path d="M20.6838 6.41602L15.4977 22.0398H11.6166L6.55664 6.41602H10.0933L13.5717 17.3995H13.6153L17.1374 6.41602H20.6838Z" fill="#FDEB01"/>
<path d="M32.7709 0.5H55.1938C56.2573 0.5 57.1195 1.36215 57.1195 2.42567V24.8486C57.1195 25.9121 56.2573 26.7743 55.1938 26.7743H32.7709C31.7074 26.7743 30.8452 25.9121 30.8452 24.8486V2.42567C30.8452 1.36215 31.7074 0.5 32.7709 0.5Z" stroke="#FDEB01"/>
<path d="M42.2432 22.0398V6.41602H45.6779V22.0398H42.2432Z" fill="#FDEB01"/>
<path d="M63.1159 0.5H85.5388C86.6023 0.5 87.4644 1.36215 87.4644 2.42567V24.8486C87.4644 25.9121 86.6023 26.7743 85.5388 26.7743H63.1159C62.0523 26.7743 61.1902 25.9121 61.1902 24.8486V2.42567C61.1902 1.36215 62.0523 0.5 63.1159 0.5Z" stroke="#FDEB01"/>
<path d="M67.72 22.0398V19.3254L76.0982 9.30499H68.3749V6.41602H80.6731V9.12792L72.2924 19.1508H80.8914V22.0398H67.72Z" fill="#FDEB01"/>
<path d="M93.4611 0.5H115.884C116.948 0.5 117.81 1.36215 117.81 2.42567V24.8486C117.81 25.9121 116.948 26.7743 115.884 26.7743H93.4611C92.3976 26.7743 91.5354 25.9121 91.5354 24.8486V2.42567C91.5354 1.36215 92.3976 0.5 93.4611 0.5Z" stroke="#FDEB01"/>
<path d="M98.0649 22.0398V19.3254L106.443 9.30499H98.732V6.41602H111.03V9.12792L102.637 19.1508H111.236V22.0398H98.0649Z" fill="#FDEB01"/>
<path d="M123.806 0.5H146.229C147.293 0.5 148.155 1.36215 148.155 2.42567V24.8486C148.155 25.9121 147.293 26.7743 146.229 26.7743H123.806C122.743 26.7743 121.881 25.9121 121.881 24.8486V2.42567C121.881 1.36215 122.743 0.5 123.806 0.5Z" stroke="#FDEB01"/>
<path d="M128.398 22.0398V6.41602H131.833V12.4123H138.157V6.41602H141.591V22.0398H138.157V15.2988H131.833V22.0398H128.398Z" fill="#FDEB01"/>
<path d="M154.151 0.5H176.574C177.638 0.5 178.5 1.36215 178.5 2.42567V24.8486C178.5 25.9121 177.638 26.7743 176.574 26.7743H154.151C153.088 26.7743 152.226 25.9121 152.226 24.8486V2.42567C152.226 1.36215 153.088 0.5 154.151 0.5Z" stroke="#FDEB01"/>
<path d="M163.6 22.0398V15.9562L157.846 6.41602H161.727L165.38 12.5869L169.018 6.41602H172.846L167.049 16.0435V22.0398H163.6Z" fill="#FDEB01"/>
</svg>
