<svg width="26" height="26" viewBox="0 0 26 26" fill="none" xmlns="http://www.w3.org/2000/svg">
<path d="M24.5033 1.64594L24.5033 1.64597C24.9484 2.15143 25.1558 2.82328 25.0731 3.49103V3.49144L25.0725 3.49575C25.0722 3.49843 25.0718 3.50079 25.0715 3.50278M24.5033 1.64594L25.0731 3.48932C25.0733 3.48606 25.0734 3.48249 25.0734 3.47867H24.9234M24.5033 1.64594C24.0579 1.14035 23.4163 0.85 22.743 0.85H3.19476C2.52069 0.85 1.87863 1.14076 1.43321 1.64798C0.98774 2.15528 0.782395 2.83002 0.869716 3.50029L0.869826 3.5011L3.44951 22.4924C3.44953 22.4926 3.44956 22.4928 3.44958 22.493C3.59941 23.6603 4.60046 24.5402 5.7787 24.5402H20.1591C21.3372 24.5402 22.3384 23.6604 22.4878 22.4952L22.4878 22.4958L22.3391 22.4756L22.4879 22.4946L25.0715 3.50278M24.5033 1.64594L25.0723 3.49754M25.0715 3.50278C25.0713 3.50403 25.0711 3.50513 25.071 3.50606L25.0708 3.50686M25.0715 3.50278L25.0717 3.50151L25.0723 3.49754M25.0708 3.50686C25.0711 3.50533 25.0714 3.50353 25.0717 3.5015C25.0718 3.50026 25.072 3.49893 25.0722 3.49753L24.9441 3.48129L24.9234 3.47867M25.0708 3.50686L25.0699 3.51159L25.0697 3.51213C25.0699 3.51131 25.0703 3.50949 25.0708 3.50686ZM24.9234 3.47867C25.003 2.85154 24.8088 2.21993 24.3908 1.74509L24.9231 3.48129C24.9231 3.48067 24.9232 3.48017 24.9233 3.47971C24.9234 3.47934 24.9234 3.47901 24.9234 3.47867ZM25.0723 3.49754C25.0723 3.49711 25.0724 3.49668 25.0724 3.49625L25.0723 3.49754ZM21.622 22.38L21.6218 22.3811C21.528 23.1139 20.8991 23.6668 20.1591 23.6668H5.77871C5.03885 23.6668 4.40978 23.114 4.31561 22.3792L4.31546 22.3781L1.73573 3.38607C1.73571 3.38595 1.73569 3.38583 1.73568 3.38571C1.68093 2.9658 1.81 2.54249 2.08939 2.22449L2.08945 2.22443C2.36898 1.90592 2.77177 1.72338 3.19476 1.72338H22.743C23.1653 1.72338 23.5682 1.9056 23.8482 2.22349L23.8482 2.22351C24.1286 2.5419 24.2588 2.96523 24.2062 3.38555C24.2062 3.38584 24.2061 3.38613 24.2061 3.38643L21.622 22.38Z" fill="#424242" stroke="#424242" stroke-width="0.3"/>
<mask id="path-2-inside-1" fill="white">
<path d="M5.18661 7.22407C6.01734 6.00201 7.13148 4.99915 8.43391 4.30113C9.73634 3.60311 11.1883 3.23067 12.666 3.21561C14.1436 3.20055 15.6029 3.54332 16.9192 4.21465C18.2356 4.88598 19.37 5.86593 20.2254 7.07081L15.2927 10.5731C15.0024 10.1642 14.6175 9.8317 14.1708 9.60391C13.7241 9.37612 13.229 9.25981 12.7276 9.26492C12.2262 9.27003 11.7335 9.3964 11.2916 9.63325C10.8497 9.8701 10.4716 10.2104 10.1897 10.6251L5.18661 7.22407Z"/>
</mask>
<path d="M5.18661 7.22407C6.01734 6.00201 7.13148 4.99915 8.43391 4.30113C9.73634 3.60311 11.1883 3.23067 12.666 3.21561C14.1436 3.20055 15.6029 3.54332 16.9192 4.21465C18.2356 4.88598 19.37 5.86593 20.2254 7.07081L15.2927 10.5731C15.0024 10.1642 14.6175 9.8317 14.1708 9.60391C13.7241 9.37612 13.229 9.25981 12.7276 9.26492C12.2262 9.27003 11.7335 9.3964 11.2916 9.63325C10.8497 9.8701 10.4716 10.2104 10.1897 10.6251L5.18661 7.22407Z" stroke="#424242" stroke-width="3" stroke-linecap="round" stroke-linejoin="round" mask="url(#path-2-inside-1)"/>
<line x1="12.9724" y1="11.4761" x2="12.9724" y2="20.2969" stroke="#424242" stroke-width="1.5" stroke-linecap="round"/>
<path d="M12.7836 6.0498L12.7836 8.48131" stroke="#424242" stroke-width="1.5" stroke-linecap="round"/>
</svg>
