<svg width="36" height="36" viewBox="0 0 36 36" fill="none" xmlns="http://www.w3.org/2000/svg">
<path d="M16.3015 2.73175C17.0841 1.47312 18.9159 1.47312 19.6985 2.73175L23.6013 9.00882C23.8766 9.45166 24.314 9.76945 24.8202 9.89446L31.9961 11.6665C33.435 12.0218 34.001 13.764 33.0458 14.8972L28.282 20.5487C27.9459 20.9474 27.7788 21.4616 27.8164 21.9817L28.3485 29.3539C28.4552 30.8322 26.9733 31.9089 25.6004 31.3506L18.7534 28.5664C18.2703 28.3699 17.7297 28.3699 17.2466 28.5664L10.3996 31.3506C9.02674 31.9089 7.54475 30.8322 7.65146 29.3539L8.18361 21.9817C8.22115 21.4616 8.05408 20.9474 7.718 20.5487L2.95418 14.8972C1.99897 13.764 2.56504 12.0218 4.00389 11.6665L11.1798 9.89446C11.686 9.76945 12.1234 9.45166 12.3987 9.00882L16.3015 2.73175Z" fill="#0D7F70"/>
<path d="M23.309 30.4112L25.6193 31.3506C26.9922 31.9089 28.4742 30.8322 28.3675 29.3539L27.8353 21.9817C27.7978 21.4616 27.9648 20.9474 28.3009 20.5487L33.0647 14.8972C34.02 13.764 33.4539 12.0218 32.015 11.6665L24.8392 9.89446C24.3329 9.76945 23.8955 9.45166 23.6202 9.00882L19.7174 2.73175C18.9348 1.47312 17.103 1.47312 16.3204 2.73175L12.4177 9.00882C12.1423 9.45166 11.7049 9.76945 11.1987 9.89446L4.02281 11.6665C2.58396 12.0218 2.01789 13.764 2.9731 14.8972L7.73692 20.5487C8.073 20.9474 8.24007 21.4616 8.20253 21.9817L7.67038 29.3539C7.56367 30.8322 9.04566 31.9089 10.4186 31.3506L17.2655 28.5664C17.7486 28.3699 18.2893 28.3699 18.7723 28.5664L19.3692 28.8091" stroke="#443F89" stroke-linecap="round" stroke-linejoin="round"/>
</svg>
