<svg width="24" height="24" viewBox="0 0 24 24" fill="none" xmlns="http://www.w3.org/2000/svg">
<path d="M11.9681 4.00011C11.8191 4.00281 11.668 4.05574 11.5212 4.15162L2.30937 11.4241C2.07281 11.6592 1.90642 12.1649 2.15025 12.4771C2.39409 12.7892 2.90711 12.831 3.20321 12.5681L11.9683 5.65181L20.7334 12.5681C21.0295 12.8312 21.5533 12.7973 21.7864 12.4771C21.9908 12.196 21.9406 11.6583 21.6272 11.4241L12.4154 4.15162C12.2639 4.04509 12.1173 3.9974 11.9685 4.00011H11.9681ZM6.15012 11.0986L4.69553 12.2502V19.2729V19.2727C4.69553 19.4655 4.77213 19.6505 4.90859 19.7869C5.04488 19.9232 5.22988 19.9998 5.42282 20H10.0287C10.2217 19.9998 10.4067 19.9232 10.543 19.7869C10.6794 19.6505 10.756 19.4655 10.756 19.2727V16.3638C10.756 15.6798 11.2841 15.1517 11.9681 15.1517C12.6521 15.1517 13.1802 15.6798 13.1802 16.3638V19.2727C13.1802 19.4655 13.2568 19.6505 13.3933 19.7869C13.5295 19.9232 13.7145 19.9998 13.9075 20H18.5134C18.7063 19.9998 18.8913 19.9232 19.0276 19.7869C19.1641 19.6505 19.2407 19.4655 19.2407 19.2727V12.25L17.7861 11.0984V18.5449H14.6346V16.3633C14.6346 14.8986 13.4327 13.6966 11.968 13.6966C10.5033 13.6966 9.3013 14.8986 9.3013 16.3633V18.5449H6.14984V11.0984L6.15012 11.0986Z" fill="#322D76"/>
</svg>
