<svg width="24" height="24" viewBox="0 0 24 24" fill="none" xmlns="http://www.w3.org/2000/svg">
<path d="M8.35767 8.50476C8.35767 9.08614 7.88644 9.55738 7.30506 9.55738C6.72368 9.55738 6.25244 9.08614 6.25244 8.50476C6.25244 7.92338 6.72368 7.45215 7.30506 7.45215C7.88644 7.45215 8.35767 7.92338 8.35767 8.50476Z" fill="#322D76"/>
<path d="M12.0631 8.50476C12.0631 9.08614 11.5919 9.55738 11.0105 9.55738C10.4291 9.55738 9.95789 9.08614 9.95789 8.50476C9.95789 7.92338 10.4291 7.45215 11.0105 7.45215C11.5919 7.45215 12.0631 7.92338 12.0631 8.50476Z" fill="#322D76"/>
<path d="M8.35767 12.0438C8.35767 12.6252 7.88644 13.0964 7.30506 13.0964C6.72368 13.0964 6.25244 12.6252 6.25244 12.0438C6.25244 11.4624 6.72368 10.9912 7.30506 10.9912C7.88644 10.9912 8.35767 11.4624 8.35767 12.0438Z" fill="#322D76"/>
<path d="M12.0631 12.0438C12.0631 12.6252 11.5919 13.0964 11.0105 13.0964C10.4291 13.0964 9.95789 12.6252 9.95789 12.0438C9.95789 11.4624 10.4291 10.9912 11.0105 10.9912C11.5919 10.9912 12.0631 11.4624 12.0631 12.0438Z" fill="#322D76"/>
<path d="M8.35767 15.578C8.35767 16.1594 7.88644 16.6306 7.30506 16.6306C6.72368 16.6306 6.25244 16.1594 6.25244 15.578C6.25244 14.9966 6.72368 14.5254 7.30506 14.5254C7.88644 14.5254 8.35767 14.9966 8.35767 15.578Z" fill="#322D76"/>
<path d="M12.0631 15.578C12.0631 16.1594 11.5919 16.6306 11.0105 16.6306C10.4291 16.6306 9.95789 16.1594 9.95789 15.578C9.95789 14.9966 10.4291 14.5254 11.0105 14.5254C11.5919 14.5254 12.0631 14.9966 12.0631 15.578Z" fill="#322D76"/>
<path d="M16.1048 13.3051H18.2101C18.5469 13.3051 18.8416 13.0104 18.8416 12.6736C18.8416 12.3367 18.5469 12.042 18.2101 12.042H16.1048C15.768 12.042 15.4733 12.3367 15.4733 12.6736C15.4733 13.0104 15.768 13.3051 16.1048 13.3051Z" fill="#322D76"/>
<path d="M16.1048 15.4106H18.2101C18.5469 15.4106 18.8416 15.1159 18.8416 14.779C18.8416 14.4422 18.5469 14.1475 18.2101 14.1475H16.1048C15.768 14.1475 15.4733 14.4422 15.4733 14.779C15.4733 15.1159 15.768 15.4106 16.1048 15.4106Z" fill="#322D76"/>
<path d="M16.1048 17.5161H18.2101C18.5469 17.5161 18.8416 17.2213 18.8416 16.8845C18.8416 16.5477 18.5469 16.2529 18.2101 16.2529H16.1048C15.768 16.2529 15.4733 16.5477 15.4733 16.8845C15.4733 17.2213 15.768 17.5161 16.1048 17.5161Z" fill="#322D76"/>
<path d="M21.3684 18.7364H20.7369V11.3683C20.7369 10.3157 19.8948 9.4736 18.8421 9.4736H15.4738C15.2633 9.4736 15.0527 9.51571 14.8422 9.59992V5.89471C14.8422 4.84209 14.0001 4 12.9475 4H5.36866C4.31605 4 3.47395 4.84209 3.47395 5.89471V18.7369H2.84238C2.50555 18.7369 2.21082 19.0316 2.21082 19.3684C2.21082 19.7053 2.50555 20 2.84238 20H21.3684C21.7053 20 22 19.7053 22 19.3684C22 19.0316 21.7053 18.7369 21.3684 18.7369V18.7364ZM15.4738 10.7365H18.8421C19.179 10.7365 19.4737 11.0312 19.4737 11.3681V18.7361H14.8422V11.3681C14.8422 11.0312 15.1369 10.7365 15.4738 10.7365ZM4.73733 5.89471C4.73733 5.55787 5.03207 5.26314 5.3689 5.26314H12.9477C13.2846 5.26314 13.5793 5.55787 13.5793 5.89471V18.7369H4.73733V5.89471Z" fill="#322D76"/>
</svg>
