<svg width="24" height="24" viewBox="0 0 24 24" fill="none" xmlns="http://www.w3.org/2000/svg">
<line x1="4.00012" y1="19.0557" x2="20.5" y2="19.0557" stroke="#322D76" stroke-linecap="round"/>
<line x1="8.78638" y1="15.9453" x2="20.2298" y2="15.9453" stroke="#322D76" stroke-linecap="round"/>
<line x1="17.1189" y1="19.5557" x2="17.1189" y2="16.4448" stroke="#322D76"/>
<line x1="12.4529" y1="19.5557" x2="12.4529" y2="16.4448" stroke="#322D76"/>
<path d="M10.6196 15.6669V12.2783C10.6196 12.0022 10.8435 11.7783 11.1196 11.7783H17.8968C18.1729 11.7783 18.3968 12.0022 18.3968 12.2783V15.6669" stroke="#322D76"/>
<line x1="6.58997" y1="19.0557" x2="6.58997" y2="10.4831" stroke="#322D76" stroke-linecap="round"/>
<path d="M8.98297 8.78628C8.98297 10.0293 8.66709 11.1308 8.1828 11.9057C7.69411 12.6876 7.083 13.0726 6.49155 13.0726C5.90009 13.0726 5.28898 12.6876 4.80029 11.9057C4.316 11.1308 4.00012 10.0293 4.00012 8.78628C4.00012 7.5433 4.316 6.44173 4.80029 5.66687C5.28898 4.88496 5.90009 4.5 6.49155 4.5C7.083 4.5 7.69411 4.88496 8.1828 5.66687C8.66709 6.44173 8.98297 7.5433 8.98297 8.78628Z" stroke="#322D76"/>
</svg>
