<svg width="45" height="45" viewBox="0 0 45 45" fill="none" xmlns="http://www.w3.org/2000/svg">
<rect width="45" height="45" rx="10" fill="#01CD74"/>
<rect x="0.5" y="0.5" width="44" height="44" rx="9.5" stroke="white" stroke-opacity="0.2"/>
<path d="M21.9997 27.098C24.8154 27.098 27.098 24.8154 27.098 21.9997C27.098 19.184 24.8154 16.9014 21.9997 16.9014C19.184 16.9014 16.9014 19.184 16.9014 21.9997C16.9014 24.8154 19.184 27.098 21.9997 27.098Z" stroke="white" stroke-width="1.5" stroke-miterlimit="10"/>
<path d="M33.4215 20.4134V23.6917C33.4215 24.2051 33.0015 24.6251 32.4882 24.6251H30.6098C30.4348 25.2201 30.2015 25.7917 29.9098 26.3284L31.2282 27.6467C31.5898 28.0084 31.5898 28.6034 31.2282 28.9651L28.9182 31.2751C28.5565 31.6367 27.9615 31.6367 27.5998 31.2751L26.2582 29.9334C25.7332 30.2251 25.1615 30.4584 24.5782 30.6334V32.5351C24.5782 33.0484 24.1582 33.4684 23.6448 33.4684H20.3665C19.8532 33.4684 19.4332 33.0484 19.4332 32.5351V30.6334C18.8382 30.4584 18.2782 30.2251 17.7415 29.9451L16.4115 31.2751C16.0498 31.6367 15.4548 31.6367 15.0932 31.2751L12.7832 28.9651C12.4098 28.6034 12.4098 28.0084 12.7832 27.6467L14.1015 26.3284C13.8098 25.7917 13.5765 25.2201 13.4015 24.6251H11.5232C11.0098 24.6251 10.5898 24.2051 10.5898 23.6917V20.4134C10.5898 19.9001 11.0098 19.4801 11.5232 19.4801H13.3665C13.5415 18.8734 13.7748 18.2901 14.0665 17.7417L12.7832 16.4584C12.4098 16.0967 12.4098 15.5017 12.7832 15.1401L15.0932 12.8301C15.4548 12.4567 16.0498 12.4567 16.4115 12.8301L17.6715 14.0901C18.2315 13.7984 18.8148 13.5534 19.4332 13.3667V11.5701C19.4332 11.0567 19.8532 10.6367 20.3665 10.6367H23.6448C24.1582 10.6367 24.5782 11.0567 24.5782 11.5701V13.3667C25.1965 13.5534 25.7798 13.7984 26.3282 14.1017L27.5998 12.8301C27.9615 12.4567 28.5565 12.4567 28.9182 12.8301L31.2282 15.1401C31.5898 15.5017 31.5898 16.0967 31.2282 16.4584L29.9448 17.7417C30.2365 18.2901 30.4698 18.8734 30.6448 19.4801H32.4882C33.0015 19.4801 33.4215 19.9001 33.4215 20.4134Z" stroke="white" stroke-width="1.5" stroke-miterlimit="10"/>
</svg>
