<svg width="45" height="45" viewBox="0 0 45 45" fill="none" xmlns="http://www.w3.org/2000/svg">
<rect width="45" height="45" rx="10" fill="#01CD74"/>
<rect x="0.5" y="0.5" width="44" height="44" rx="9.5" stroke="white" stroke-opacity="0.2"/>
<path d="M16.9718 19.4098V20.1915H16.1901V19.4098H16.9718ZM17.4734 18.2432H15.6884C15.3268 18.2432 15.0234 18.5348 15.0234 18.9082V20.6932C15.0234 21.0548 15.3151 21.3582 15.6884 21.3582H17.4734C17.8351 21.3582 18.1384 21.0665 18.1384 20.6932V18.9082C18.1384 18.5465 17.8468 18.2432 17.4734 18.2432Z" fill="white"/>
<path d="M22.7354 19.4098V20.1915H21.9538V19.4098H22.7354ZM23.2371 18.2432H21.4521C21.0904 18.2432 20.7871 18.5348 20.7871 18.9082V20.6932C20.7871 21.0548 21.0788 21.3582 21.4521 21.3582H23.2371C23.5988 21.3582 23.9021 21.0665 23.9021 20.6932V18.9082C23.9021 18.5465 23.6104 18.2432 23.2371 18.2432Z" fill="white"/>
<path d="M28.4864 19.4098V20.1915H27.7048V19.4098H28.4864ZM28.9881 18.2432H27.2031C26.8414 18.2432 26.5381 18.5348 26.5381 18.9082V20.6932C26.5381 21.0548 26.8298 21.3582 27.2031 21.3582H28.9881C29.3498 21.3582 29.6531 21.0665 29.6531 20.6932V18.9082C29.6531 18.5465 29.3614 18.2432 28.9881 18.2432Z" fill="white"/>
<path d="M16.9718 23.7965V24.5782H16.1901V23.7965H16.9718ZM17.4734 22.6299H15.6884C15.3268 22.6299 15.0234 22.9215 15.0234 23.2949V25.0799C15.0234 25.4415 15.3151 25.7449 15.6884 25.7449H17.4734C17.8351 25.7449 18.1384 25.4532 18.1384 25.0799V23.2949C18.1384 22.9332 17.8468 22.6299 17.4734 22.6299Z" fill="white"/>
<path d="M22.7354 23.7965V24.5782H21.9538V23.7965H22.7354ZM23.2371 22.6299H21.4521C21.0904 22.6299 20.7871 22.9215 20.7871 23.2949V25.0799C20.7871 25.4415 21.0788 25.7449 21.4521 25.7449H23.2371C23.5988 25.7449 23.9021 25.4532 23.9021 25.0799V23.2949C23.9021 22.9332 23.6104 22.6299 23.2371 22.6299Z" fill="white"/>
<path d="M28.4864 23.7965V24.5782H27.7048V23.7965H28.4864ZM28.9881 22.6299H27.2031C26.8414 22.6299 26.5381 22.9215 26.5381 23.2949V25.0799C26.5381 25.4415 26.8298 25.7449 27.2031 25.7449H28.9881C29.3498 25.7449 29.6531 25.4532 29.6531 25.0799V23.2949C29.6531 22.9332 29.3614 22.6299 28.9881 22.6299Z" fill="white"/>
<path d="M16.9718 28.195V28.9767H16.1901V28.195H16.9718ZM17.4734 27.0283H15.6884C15.3268 27.0283 15.0234 27.32 15.0234 27.6933V29.4783C15.0234 29.84 15.3151 30.1433 15.6884 30.1433H17.4734C17.8351 30.1433 18.1384 29.8517 18.1384 29.4783V27.6933C18.1384 27.3317 17.8468 27.0283 17.4734 27.0283Z" fill="white"/>
<path d="M28.4864 28.195V28.9767H27.7048V28.195H28.4864ZM28.9881 27.0283H27.2031C26.8414 27.0283 26.5381 27.32 26.5381 27.6933V29.4783C26.5381 29.84 26.8298 30.1433 27.2031 30.1433H28.9881C29.3498 30.1433 29.6531 29.8517 29.6531 29.4783V27.6933C29.6531 27.3317 29.3614 27.0283 28.9881 27.0283Z" fill="white"/>
<path d="M29.8169 11.792H26.3519V14.4053C26.3519 15.0587 25.8153 15.5953 25.1619 15.5953H19.5036C18.8503 15.5953 18.3136 15.0587 18.3136 14.4053V11.792H14.8486C13.5069 11.792 12.4336 12.877 12.4336 14.207V30.867C12.4336 32.2087 13.5186 33.282 14.8486 33.282H19.7486V29.3737C19.7486 28.8253 20.1919 28.382 20.7403 28.382H23.9369C24.4853 28.382 24.9286 28.8253 24.9286 29.3737V33.282H29.8286C31.1703 33.282 32.2436 32.197 32.2436 30.867V14.2187C32.2436 12.877 31.1586 11.8037 29.8286 11.8037L29.8169 11.792Z" stroke="white" stroke-width="1.5" stroke-miterlimit="10"/>
<path d="M20.623 11.792H24.053" stroke="white" stroke-width="1.5" stroke-miterlimit="10" stroke-linecap="round"/>
<path d="M22.3379 13.5071V10.0771" stroke="white" stroke-width="1.5" stroke-miterlimit="10" stroke-linecap="round"/>
</svg>
