<svg width="45" height="45" viewBox="0 0 45 45" fill="none" xmlns="http://www.w3.org/2000/svg">
<rect width="45" height="45" rx="10" fill="#01CD74"/>
<rect x="0.5" y="0.5" width="44" height="44" rx="9.5" stroke="white" stroke-opacity="0.2"/>
<path d="M11.9434 11.7305H22.0351C22.7584 11.7305 23.3417 12.3021 23.3417 13.0021V18.8821C23.3417 19.5821 22.7584 20.1538 22.0351 20.1538H11.9434C11.2201 20.1538 10.6367 19.5821 10.6367 18.8821V13.0138C10.6367 12.3138 11.2201 11.7421 11.9434 11.7421V11.7305Z" stroke="white" stroke-width="1.5" stroke-miterlimit="10"/>
<path d="M26.0596 21.8329V13.0129C26.0596 12.3129 26.5612 11.7412 27.1679 11.7412H32.2779C32.8846 11.7412 33.3862 12.3129 33.3862 13.0129V21.8445C33.3862 22.5445 32.8846 23.1162 32.2779 23.1162H27.1679C26.5612 23.1162 26.0596 22.5445 26.0596 21.8445V21.8329Z" stroke="white" stroke-width="1.5" stroke-miterlimit="10"/>
<path d="M32.08 34.27H21.9883C21.265 34.27 20.6816 33.6983 20.6816 32.9983V27.1183C20.6816 26.4183 21.265 25.8467 21.9883 25.8467H32.08C32.8033 25.8467 33.3866 26.4183 33.3866 27.1183V32.9983C33.3866 33.6983 32.8033 34.27 32.08 34.27Z" stroke="white" stroke-width="1.5" stroke-miterlimit="10"/>
<path d="M17.9633 24.1662V32.9979C17.9633 33.6979 17.4617 34.2695 16.855 34.2695H11.7333C11.1267 34.2695 10.625 33.6979 10.625 32.9979V24.1662C10.625 23.4662 11.1267 22.8945 11.7333 22.8945H16.8433C17.45 22.8945 17.9517 23.4662 17.9517 24.1662H17.9633Z" stroke="white" stroke-width="1.5" stroke-miterlimit="10"/>
</svg>
