<svg width="20" height="20" viewBox="0 0 20 20" fill="none" xmlns="http://www.w3.org/2000/svg">
<mask id="path-1-inside-1" fill="white">
<path d="M17.6794 14.48V10.32C17.6794 9.44733 17.3552 8.60578 16.7697 7.95858C16.1843 7.31139 15.3793 6.9047 14.511 6.81739L14.4478 7.45427C15.1581 7.52588 15.8165 7.8587 16.2954 8.38819C16.7742 8.91769 17.0394 9.60613 17.0394 10.32V13.2H14.7994V11.92H14.1594V18.96H5.83944V12.24C5.83944 12.189 5.82725 12.1388 5.80389 12.0934C5.78053 12.0481 5.74667 12.009 5.70514 11.9794C5.66361 11.9498 5.6156 11.9306 5.56512 11.9233C5.51465 11.916 5.46316 11.9209 5.41496 11.9375L4.64964 12.202L6.39596 8.12714C6.69707 8.9451 7.2675 9.63628 8.0135 10.0871C8.75949 10.5379 9.63665 10.7215 10.5008 10.6077C11.365 10.4939 12.1647 10.0895 12.7686 9.46098C13.3725 8.83245 13.7445 8.01717 13.8237 7.14914C13.8341 7.03478 13.8394 6.91714 13.8394 6.80002V6.16002C14.1789 6.16002 14.5045 6.02517 14.7445 5.78512C14.9846 5.54507 15.1194 5.2195 15.1194 4.88002C15.1194 4.54055 14.9846 4.21497 14.7445 3.97493C14.5045 3.73488 14.1789 3.60002 13.8394 3.60002V3.28002C13.8386 2.51646 13.5349 1.78442 12.995 1.2445C12.455 0.704585 11.723 0.400882 10.9594 0.400024H7.43944C7.14335 0.400107 6.85643 0.502772 6.62751 0.690553C6.39858 0.878333 6.24178 1.13963 6.1838 1.42998C6.05372 1.37852 5.91426 1.35503 5.7745 1.36107C5.63474 1.3671 5.49782 1.40251 5.37266 1.465C5.2475 1.52749 5.13692 1.61565 5.04811 1.72373C4.9593 1.83182 4.89426 1.9574 4.85724 2.0923C4.85672 2.09418 4.8562 2.0961 4.85572 2.09802L4.65648 2.8811L5.27672 3.03894L5.47512 2.25922C5.4996 2.17185 5.55658 2.09716 5.63437 2.05044C5.71215 2.00372 5.80486 1.98853 5.89349 2.00796C5.98212 2.02739 6.05997 2.07999 6.11107 2.15496C6.16218 2.22994 6.18267 2.32162 6.16836 2.41122C6.16836 2.41122 6.02436 3.3217 6.0238 3.32442C5.98072 3.59674 6.30424 3.79598 6.5278 3.6333L8.09944 2.4911C8.19708 2.42226 8.31772 2.39419 8.43573 2.41286C8.55374 2.43153 8.65982 2.49547 8.73144 2.5911L9.68568 3.90402C9.75459 4.00133 9.78285 4.12167 9.76446 4.23949C9.74607 4.3573 9.68248 4.4633 9.5872 4.53498L6.29492 6.8587C6.24655 6.89283 6.2086 6.9397 6.18528 6.9941L3.97588 12.1493C3.82303 12.5007 3.54459 12.7824 3.19503 12.9394C2.84546 13.0964 2.4499 13.1173 2.08572 12.9981C1.15496 12.6879 0.757715 11.5181 1.25772 10.6852L4.83384 4.72466C4.84986 4.69799 4.86189 4.66911 4.86956 4.63894L5.11384 3.67894L4.4936 3.5211L4.26088 4.43562C4.26088 4.43562 0.711435 10.3513 0.708715 10.356C-0.00376472 11.5434 0.570435 13.1677 1.88344 13.6053C2.27079 13.731 2.68546 13.7466 3.08119 13.6505C3.47691 13.5543 3.83815 13.3501 4.1246 13.0606L5.19944 12.6892V19.28C5.19944 19.3649 5.23315 19.4463 5.29316 19.5063C5.35317 19.5663 5.43457 19.6 5.51944 19.6H17.3594C17.4443 19.6 17.5257 19.5663 17.5857 19.5063C17.6457 19.4463 17.6794 19.3649 17.6794 19.28V15.12H17.0394V18.96H14.7994V13.84H17.0394V14.48H17.6794ZM13.8394 4.24002C14.0092 4.24002 14.172 4.30745 14.292 4.42748C14.412 4.5475 14.4794 4.71029 14.4794 4.88002C14.4794 5.04976 14.412 5.21255 14.292 5.33257C14.172 5.4526 14.0092 5.52002 13.8394 5.52002V4.24002ZM9.32584 2.32002L9.24944 2.2149C9.0791 1.98052 8.82264 1.8234 8.53646 1.7781C8.25029 1.7328 7.95783 1.80303 7.72344 1.97334L7.27544 2.29878C7.21034 2.28165 7.14842 2.25416 7.09204 2.21738C7.00271 2.15891 6.92925 2.07924 6.8782 1.98548C6.82714 1.89172 6.80008 1.78678 6.79944 1.68002C6.79944 1.51029 6.86686 1.3475 6.98689 1.22748C7.10691 1.10745 7.2697 1.04002 7.43944 1.04002H10.9594C11.5533 1.04069 12.1227 1.2769 12.5426 1.69684C12.9626 2.11678 13.1988 2.68614 13.1994 3.28002V3.5033L12.5057 2.46254C12.4765 2.41871 12.4369 2.38277 12.3904 2.3579C12.344 2.33304 12.2921 2.32003 12.2394 2.32002H9.32584ZM8.46096 6.11314C8.81994 6.10761 9.17362 6.02563 9.49844 5.87266L9.32152 5.50574L9.95828 5.0563L9.96188 5.0537C10.1963 4.88336 10.3534 4.62689 10.3987 4.34069C10.444 4.0545 10.3738 3.76203 10.2034 3.52762L9.79092 2.96002H12.0682L13.1994 4.6569V6.80002C13.1994 6.89798 13.195 6.99602 13.1863 7.0913C13.1151 7.87158 12.7601 8.59861 12.1886 9.13459C11.6171 9.67057 10.8688 9.97824 10.0856 9.9993C9.30233 10.0204 8.53859 9.75333 7.93911 9.24883C7.33963 8.74433 6.94607 8.03742 6.83304 7.2621L8.46096 6.11314ZM11.5994 6.11422C11.2197 6.11665 10.8442 6.03418 10.5004 5.87283L10.7784 5.29634C11.2695 5.5331 11.9294 5.5331 12.4204 5.29634L12.6984 5.87283C12.3547 6.03418 11.9792 6.11665 11.5994 6.11422ZM8.90292 8.42562L8.53596 7.90127C8.96537 7.60217 9.47612 7.44183 9.99944 7.44183C10.5227 7.44183 11.0335 7.60217 11.4629 7.90127L11.096 8.42562C10.7742 8.20152 10.3915 8.08138 9.99944 8.08138C9.60734 8.08138 9.22466 8.20152 8.90292 8.42562ZM12.1134 10.9859L12.3654 11.5741C11.6174 11.8931 10.8126 12.0574 9.9994 12.0574C9.18622 12.0574 8.38143 11.8931 7.6334 11.5741L7.8854 10.9859C8.55376 11.2709 9.27283 11.4177 9.9994 11.4177C10.726 11.4177 11.445 11.2709 12.1134 10.9859ZM17.2657 3.0539C17.3132 3.10139 17.3446 3.16262 17.3553 3.22892C17.3661 3.29522 17.3557 3.36322 17.3257 3.4233L16.6857 4.7033L16.1133 4.41706L16.6501 3.34322L16.1732 2.8663C16.1257 2.81882 16.0943 2.75759 16.0835 2.69129C16.0728 2.62499 16.0831 2.55698 16.1132 2.4969L16.7532 1.2169L17.3256 1.50314L16.7888 2.57682L17.2657 3.0539ZM19.1834 4.3259L19.619 4.7947L18.7397 5.6119L19.019 6.22578C19.0468 6.28692 19.0547 6.35525 19.0415 6.42111C19.0284 6.48697 18.9948 6.54702 18.9456 6.59274L17.8973 7.56695L17.4616 7.0981L18.341 6.2809L18.0617 5.66698C18.0339 5.60586 18.026 5.53753 18.0392 5.47168C18.0523 5.40583 18.0859 5.34579 18.1351 5.30007L19.1834 4.3259Z"/>
</mask>
<path d="M17.6794 14.48V10.32C17.6794 9.44733 17.3552 8.60578 16.7697 7.95858C16.1843 7.31139 15.3793 6.9047 14.511 6.81739L14.4478 7.45427C15.1581 7.52588 15.8165 7.8587 16.2954 8.38819C16.7742 8.91769 17.0394 9.60613 17.0394 10.32V13.2H14.7994V11.92H14.1594V18.96H5.83944V12.24C5.83944 12.189 5.82725 12.1388 5.80389 12.0934C5.78053 12.0481 5.74667 12.009 5.70514 11.9794C5.66361 11.9498 5.6156 11.9306 5.56512 11.9233C5.51465 11.916 5.46316 11.9209 5.41496 11.9375L4.64964 12.202L6.39596 8.12714C6.69707 8.9451 7.2675 9.63628 8.0135 10.0871C8.75949 10.5379 9.63665 10.7215 10.5008 10.6077C11.365 10.4939 12.1647 10.0895 12.7686 9.46098C13.3725 8.83245 13.7445 8.01717 13.8237 7.14914C13.8341 7.03478 13.8394 6.91714 13.8394 6.80002V6.16002C14.1789 6.16002 14.5045 6.02517 14.7445 5.78512C14.9846 5.54507 15.1194 5.2195 15.1194 4.88002C15.1194 4.54055 14.9846 4.21497 14.7445 3.97493C14.5045 3.73488 14.1789 3.60002 13.8394 3.60002V3.28002C13.8386 2.51646 13.5349 1.78442 12.995 1.2445C12.455 0.704585 11.723 0.400882 10.9594 0.400024H7.43944C7.14335 0.400107 6.85643 0.502772 6.62751 0.690553C6.39858 0.878333 6.24178 1.13963 6.1838 1.42998C6.05372 1.37852 5.91426 1.35503 5.7745 1.36107C5.63474 1.3671 5.49782 1.40251 5.37266 1.465C5.2475 1.52749 5.13692 1.61565 5.04811 1.72373C4.9593 1.83182 4.89426 1.9574 4.85724 2.0923C4.85672 2.09418 4.8562 2.0961 4.85572 2.09802L4.65648 2.8811L5.27672 3.03894L5.47512 2.25922C5.4996 2.17185 5.55658 2.09716 5.63437 2.05044C5.71215 2.00372 5.80486 1.98853 5.89349 2.00796C5.98212 2.02739 6.05997 2.07999 6.11107 2.15496C6.16218 2.22994 6.18267 2.32162 6.16836 2.41122C6.16836 2.41122 6.02436 3.3217 6.0238 3.32442C5.98072 3.59674 6.30424 3.79598 6.5278 3.6333L8.09944 2.4911C8.19708 2.42226 8.31772 2.39419 8.43573 2.41286C8.55374 2.43153 8.65982 2.49547 8.73144 2.5911L9.68568 3.90402C9.75459 4.00133 9.78285 4.12167 9.76446 4.23949C9.74607 4.3573 9.68248 4.4633 9.5872 4.53498L6.29492 6.8587C6.24655 6.89283 6.2086 6.9397 6.18528 6.9941L3.97588 12.1493C3.82303 12.5007 3.54459 12.7824 3.19503 12.9394C2.84546 13.0964 2.4499 13.1173 2.08572 12.9981C1.15496 12.6879 0.757715 11.5181 1.25772 10.6852L4.83384 4.72466C4.84986 4.69799 4.86189 4.66911 4.86956 4.63894L5.11384 3.67894L4.4936 3.5211L4.26088 4.43562C4.26088 4.43562 0.711435 10.3513 0.708715 10.356C-0.00376472 11.5434 0.570435 13.1677 1.88344 13.6053C2.27079 13.731 2.68546 13.7466 3.08119 13.6505C3.47691 13.5543 3.83815 13.3501 4.1246 13.0606L5.19944 12.6892V19.28C5.19944 19.3649 5.23315 19.4463 5.29316 19.5063C5.35317 19.5663 5.43457 19.6 5.51944 19.6H17.3594C17.4443 19.6 17.5257 19.5663 17.5857 19.5063C17.6457 19.4463 17.6794 19.3649 17.6794 19.28V15.12H17.0394V18.96H14.7994V13.84H17.0394V14.48H17.6794ZM13.8394 4.24002C14.0092 4.24002 14.172 4.30745 14.292 4.42748C14.412 4.5475 14.4794 4.71029 14.4794 4.88002C14.4794 5.04976 14.412 5.21255 14.292 5.33257C14.172 5.4526 14.0092 5.52002 13.8394 5.52002V4.24002ZM9.32584 2.32002L9.24944 2.2149C9.0791 1.98052 8.82264 1.8234 8.53646 1.7781C8.25029 1.7328 7.95783 1.80303 7.72344 1.97334L7.27544 2.29878C7.21034 2.28165 7.14842 2.25416 7.09204 2.21738C7.00271 2.15891 6.92925 2.07924 6.8782 1.98548C6.82714 1.89172 6.80008 1.78678 6.79944 1.68002C6.79944 1.51029 6.86686 1.3475 6.98689 1.22748C7.10691 1.10745 7.2697 1.04002 7.43944 1.04002H10.9594C11.5533 1.04069 12.1227 1.2769 12.5426 1.69684C12.9626 2.11678 13.1988 2.68614 13.1994 3.28002V3.5033L12.5057 2.46254C12.4765 2.41871 12.4369 2.38277 12.3904 2.3579C12.344 2.33304 12.2921 2.32003 12.2394 2.32002H9.32584ZM8.46096 6.11314C8.81994 6.10761 9.17362 6.02563 9.49844 5.87266L9.32152 5.50574L9.95828 5.0563L9.96188 5.0537C10.1963 4.88336 10.3534 4.62689 10.3987 4.34069C10.444 4.0545 10.3738 3.76203 10.2034 3.52762L9.79092 2.96002H12.0682L13.1994 4.6569V6.80002C13.1994 6.89798 13.195 6.99602 13.1863 7.0913C13.1151 7.87158 12.7601 8.59861 12.1886 9.13459C11.6171 9.67057 10.8688 9.97824 10.0856 9.9993C9.30233 10.0204 8.53859 9.75333 7.93911 9.24883C7.33963 8.74433 6.94607 8.03742 6.83304 7.2621L8.46096 6.11314ZM11.5994 6.11422C11.2197 6.11665 10.8442 6.03418 10.5004 5.87283L10.7784 5.29634C11.2695 5.5331 11.9294 5.5331 12.4204 5.29634L12.6984 5.87283C12.3547 6.03418 11.9792 6.11665 11.5994 6.11422ZM8.90292 8.42562L8.53596 7.90127C8.96537 7.60217 9.47612 7.44183 9.99944 7.44183C10.5227 7.44183 11.0335 7.60217 11.4629 7.90127L11.096 8.42562C10.7742 8.20152 10.3915 8.08138 9.99944 8.08138C9.60734 8.08138 9.22466 8.20152 8.90292 8.42562ZM12.1134 10.9859L12.3654 11.5741C11.6174 11.8931 10.8126 12.0574 9.9994 12.0574C9.18622 12.0574 8.38143 11.8931 7.6334 11.5741L7.8854 10.9859C8.55376 11.2709 9.27283 11.4177 9.9994 11.4177C10.726 11.4177 11.445 11.2709 12.1134 10.9859ZM17.2657 3.0539C17.3132 3.10139 17.3446 3.16262 17.3553 3.22892C17.3661 3.29522 17.3557 3.36322 17.3257 3.4233L16.6857 4.7033L16.1133 4.41706L16.6501 3.34322L16.1732 2.8663C16.1257 2.81882 16.0943 2.75759 16.0835 2.69129C16.0728 2.62499 16.0831 2.55698 16.1132 2.4969L16.7532 1.2169L17.3256 1.50314L16.7888 2.57682L17.2657 3.0539ZM19.1834 4.3259L19.619 4.7947L18.7397 5.6119L19.019 6.22578C19.0468 6.28692 19.0547 6.35525 19.0415 6.42111C19.0284 6.48697 18.9948 6.54702 18.9456 6.59274L17.8973 7.56695L17.4616 7.0981L18.341 6.2809L18.0617 5.66698C18.0339 5.60586 18.026 5.53753 18.0392 5.47168C18.0523 5.40583 18.0859 5.34579 18.1351 5.30007L19.1834 4.3259Z" stroke="#041F56" mask="url(#path-1-inside-1)"/>
</svg>
