<svg width="14" height="20" viewBox="0 0 14 20" fill="none" xmlns="http://www.w3.org/2000/svg">
<path d="M13.7037 10.8211C13.7635 10.7344 13.7766 10.6237 13.7386 10.5251L12.1594 6.41987C12.1504 5.52163 11.9418 4.63618 11.5536 3.83522C12.6736 3.24546 13.44 2.07138 13.44 0.720024C13.44 0.543384 13.2966 0.400024 13.12 0.400024H6.08C2.72736 0.400024 0 3.12738 0 6.48002V10.64C0 10.6557 0.00672004 10.6695 0.00896004 10.6845L0.0032 10.6855L0.64 15.1427V19.28C0.64 19.4567 0.78336 19.6 0.96 19.6H7.04C7.21664 19.6 7.36 19.4567 7.36 19.28V16.08H11.52C11.6966 16.08 11.84 15.9367 11.84 15.76V14.48C11.84 14.3034 11.6966 14.16 11.52 14.16H10.56C10.0307 14.16 9.6 13.7293 9.6 13.2C9.6 12.6707 10.0307 12.24 10.56 12.24H11.52C11.6966 12.24 11.84 12.0967 11.84 11.92V10.96H13.44C13.5456 10.96 13.6442 10.9082 13.7037 10.8211ZM0.64 6.48002C0.64 3.48034 3.08032 1.04002 6.08 1.04002H12.7824C12.6227 2.4781 11.4 3.60002 9.92 3.60002H3.52C3.34336 3.60002 3.2 3.74338 3.2 3.92002V5.23234C2.47072 5.38082 1.92 6.02723 1.92 6.80002C1.92 7.56642 2.46144 8.20866 3.18208 8.36419C3.04192 9.46562 2.09888 10.32 0.96 10.32H0.64V6.48002ZM11.52 10.32C11.3434 10.32 11.2 10.4634 11.2 10.64V11.6H10.56C9.67776 11.6 8.96 12.3178 8.96 13.2C8.96 14.0823 9.67776 14.8 10.56 14.8H11.2V15.44H7.04C6.86336 15.44 6.72 15.5834 6.72 15.76V18.96H1.28V15.12C1.28 15.105 1.27904 15.0896 1.2768 15.0746L0.68896 10.96H0.96C2.54784 10.96 3.84 9.66786 3.84 8.08002C3.84 7.90339 3.69664 7.76003 3.52 7.76003C2.99072 7.76003 2.56 7.3293 2.56 6.80002C2.56 6.27074 2.99072 5.84002 3.52 5.84002C3.69664 5.84002 3.84 5.69666 3.84 5.52002V4.24002H9.92C10.2826 4.24002 10.6323 4.18466 10.9616 4.08258C11.3264 4.82306 11.52 5.64578 11.52 6.48002C11.52 6.51938 11.527 6.55842 11.5411 6.5949L12.9741 10.32H11.52Z" fill="#041F56"/>
</svg>
