<svg width="20" height="16" viewBox="0 0 20 16" fill="none" xmlns="http://www.w3.org/2000/svg">
<path d="M18.64 5.35999C18.0736 5.35999 17.68 5.61279 17.68 5.97439V7.07199C17.1744 6.07039 16.4 5.35999 15.44 5.35999H6.48002C6.39516 5.35999 6.31376 5.3937 6.25375 5.45372C6.19374 5.51373 6.16002 5.59512 6.16002 5.67999V9.14559C6.02432 9.00687 5.84868 8.91401 5.65762 8.87999C5.90828 8.60491 6.07358 8.26291 6.13343 7.89561C6.19328 7.5283 6.1451 7.15152 5.99474 6.81109C5.84438 6.47067 5.59833 6.18128 5.28652 5.97813C4.9747 5.77498 4.61058 5.66683 4.23842 5.66683C3.86627 5.66683 3.50214 5.77498 3.19033 5.97813C2.87852 6.18128 2.63247 6.47067 2.48211 6.81109C2.33175 7.15152 2.28357 7.5283 2.34342 7.89561C2.40327 8.26291 2.56857 8.60491 2.81922 8.87999C2.63388 8.90201 2.45969 8.98017 2.32002 9.10399V1.00799C2.32002 0.57599 1.89762 0.23999 1.36002 0.23999C0.822424 0.23999 0.400024 0.57599 0.400024 1.00799V14.832C0.400024 15.28 0.822424 15.6 1.36002 15.6C1.89762 15.6 2.32002 15.28 2.32002 14.832V12.72H17.68V14.9856C17.68 15.3472 18.0736 15.6 18.64 15.6C19.2064 15.6 19.6 15.3472 19.6 14.9856V5.97439C19.6 5.61279 19.2064 5.35999 18.64 5.35999ZM6.80002 5.99999H15.44C16.6464 5.99999 17.568 7.79839 17.68 9.51999H6.80002V5.99999ZM4.24002 6.31999C4.49318 6.31999 4.74066 6.39506 4.95115 6.53571C5.16165 6.67636 5.32571 6.87627 5.42259 7.11016C5.51947 7.34405 5.54482 7.60141 5.49543 7.84971C5.44604 8.098 5.32413 8.32608 5.14512 8.50509C4.96611 8.6841 4.73804 8.80601 4.48974 8.8554C4.24144 8.90479 3.98408 8.87944 3.75019 8.78256C3.5163 8.68568 3.31639 8.52162 3.17574 8.31112C3.0351 8.10063 2.96002 7.85315 2.96002 7.59999C2.96002 7.26051 3.09488 6.93494 3.33493 6.69489C3.57497 6.45485 3.90055 6.31999 4.24002 6.31999ZM1.68002 14.832C1.64155 14.8783 1.59213 14.9142 1.53626 14.9366C1.48038 14.9589 1.4198 14.967 1.36002 14.96C1.14882 14.96 1.04002 14.8576 1.04002 14.832V1.00799C1.04002 0.98239 1.14882 0.87999 1.36002 0.87999C1.4198 0.873011 1.48038 0.881061 1.53626 0.903413C1.59213 0.925765 1.64155 0.96171 1.68002 1.00799V14.832ZM2.32002 12.08V10.16C2.40038 10.1535 2.47534 10.117 2.52992 10.0577C2.58451 9.99835 2.61468 9.92061 2.61442 9.83999C2.61442 9.75512 2.64814 9.67373 2.70815 9.61372C2.76816 9.55371 2.84956 9.51999 2.93442 9.51999H5.52002C5.60489 9.51999 5.68629 9.55371 5.7463 9.61372C5.80631 9.67373 5.84002 9.75512 5.84002 9.83999C5.84002 9.92486 5.87374 10.0063 5.93375 10.0663C5.99376 10.1263 6.07516 10.16 6.16002 10.16H17.68V12.08H2.32002ZM18.96 14.9024C18.7536 14.9791 18.5265 14.9791 18.32 14.9024V6.05759C18.5265 5.98085 18.7536 5.98085 18.96 6.05759V14.9024Z" fill="#041F56"/>
</svg>
