<svg width="20" height="20" viewBox="0 0 20 20" fill="none" xmlns="http://www.w3.org/2000/svg">
<path d="M17.1991 7.36591L17.955 6.9881L17.3072 6.34026L19.4545 4.99842L19.1262 4.47321L16.3187 6.22815L16.9095 6.81902L16.5937 6.97695C16.2948 6.80911 15.9808 6.66356 15.6492 6.54836L15.1611 6.37866L16.4627 4.42583H15.4017L16.1741 2.36679L15.594 2.14939L14.508 5.04519H15.3051L14.5569 6.16777L13.3092 5.73391C12.8119 5.5608 12.4774 5.0904 12.4774 4.56364V4.27811C13.7521 3.44508 14.783 2.26335 15.4392 0.839147L15.6414 0.400024H4.35863L4.56085 0.839147C5.21706 2.26366 6.24797 3.44508 7.5226 4.27811V4.56364C7.5226 5.0904 7.18815 5.56049 6.69081 5.7336L4.35089 6.54743C1.98774 7.36962 0.400024 9.60271 0.400024 12.1049V16.1936C0.400024 18.0718 1.92828 19.6 3.80648 19.6H4.42583H5.16689H19.6V12.1049C19.6 10.2013 18.6794 8.45535 17.1991 7.36591ZM5.34279 1.01938H14.657C13.6737 2.83997 12.003 4.17468 10 4.72436C7.99703 4.17468 6.32632 2.83997 5.34279 1.01938ZM18.9807 18.9807H15.8839V13.4817C15.8839 12.7171 16.1815 11.9984 16.7222 11.4577L16.2843 11.0198C15.6266 11.6775 15.2645 12.5518 15.2645 13.4817V18.9807H5.83362L9.52312 15.5547L10.7024 15.3581C11.1505 15.2834 11.5574 15.0741 11.8785 14.7526L14.3621 12.269C14.5445 12.0869 14.6452 11.8442 14.6452 11.5859C14.6452 11.1914 14.407 10.8526 14.0676 10.7024C14.2395 10.5221 14.3355 10.2877 14.3355 10.0375C14.3355 9.64297 14.0974 9.30418 13.758 9.15399C13.9298 8.97375 14.0258 8.73933 14.0258 8.48911C14.0258 7.95615 13.5923 7.5226 13.0593 7.5226C12.8011 7.5226 12.5583 7.62325 12.3759 7.80565L12.0835 8.09799C11.9327 7.75982 11.5949 7.5226 11.2013 7.5226C10.943 7.5226 10.7002 7.62325 10.5178 7.80565L9.33329 8.99017C9.22211 8.4504 8.90748 7.96916 8.43925 7.65577C8.30919 7.56875 8.15744 7.5226 8.00075 7.5226C7.56658 7.5226 7.21293 7.87626 7.21293 8.31042V8.6297C7.21293 9.03104 7.05654 9.40885 6.77288 9.69251L6.29969 10.1657C5.8903 10.5751 5.66485 11.1195 5.66485 11.6986V12.6589L4.73582 13.5879V13.4817C4.73582 12.5518 4.37381 11.6775 3.71605 11.0198L3.27817 11.4577C3.81855 11.9984 4.11615 12.7171 4.11615 13.4817V14.2073L2.03915 16.2843L2.47703 16.7222L6.2839 12.9153V11.6986C6.2839 11.2852 6.44493 10.8962 6.73726 10.6036L7.21045 10.1304C7.61148 9.72968 7.83228 9.19672 7.83228 8.6297V8.31042C7.83228 8.18408 7.98898 8.09984 8.09489 8.17045C8.51202 8.45009 8.76131 8.91677 8.76131 9.41938V9.56214L7.61334 10.7101L7.59755 10.7259L8.03543 11.1638L8.05122 11.148L9.38067 9.81855L10.9557 8.24353C11.0213 8.17819 11.1084 8.14196 11.2013 8.14196C11.3926 8.14196 11.5484 8.29773 11.5484 8.48911C11.5484 8.58201 11.5122 8.66903 11.4468 8.73468L9.16173 11.0198L9.59961 11.4577L11.8847 9.17257L12.8138 8.24353C12.8794 8.17819 12.9664 8.14196 13.0593 8.14196C13.2507 8.14196 13.4065 8.29773 13.4065 8.48911C13.4065 8.58201 13.3702 8.66903 13.3049 8.73468L12.6855 9.35404L10.0908 11.9488L10.5286 12.3867L13.1234 9.79192C13.1891 9.72658 13.2761 9.69035 13.369 9.69035C13.5604 9.69035 13.7162 9.84611 13.7162 10.0375C13.7162 10.1304 13.6799 10.2174 13.6146 10.2831L12.9952 10.9024L11.0198 12.8779L11.4577 13.3157L13.4331 11.3403C13.4988 11.275 13.5858 11.2387 13.6787 11.2387C13.8701 11.2387 14.0258 11.3945 14.0258 11.5859C14.0258 11.6788 13.9896 11.7658 13.9243 11.8315L11.4406 14.3151C11.2112 14.5445 10.9207 14.6941 10.6005 14.7474L9.23822 14.9744L4.92348 18.9807H4.42583H3.80648C2.26986 18.9807 1.01938 17.7302 1.01938 16.1936V12.1049C1.01938 9.86624 2.43987 7.8679 4.55435 7.13241L6.89427 6.31858C7.61551 6.06774 8.10356 5.39915 8.13577 4.64137C8.69566 4.94113 9.29303 5.17928 9.92106 5.34464L10 5.36539L10.0787 5.34464C10.7067 5.17928 11.3044 4.94113 11.864 4.64137C11.8962 5.39915 12.3842 6.06774 13.1055 6.31858L14.2017 6.69979L13.7679 7.35073L14.2832 7.69417L14.8059 6.91006L15.4454 7.13241C15.6033 7.18722 15.756 7.25133 15.9059 7.32008L14.1968 8.17448L14.4739 8.72849L16.5689 7.68085C18.0476 8.63559 18.9807 10.2911 18.9807 12.1049V18.9807Z" fill="#041F56"/>
</svg>
