<svg width="18" height="20" viewBox="0 0 18 20" fill="none" xmlns="http://www.w3.org/2000/svg">
<path d="M8.53876 0.400024C8.49256 0.400274 8.44786 0.416465 8.41224 0.445875C8.37661 0.475285 8.35226 0.516105 8.34329 0.561406L7.99395 2.1947C7.98223 2.22235 7.97688 2.25228 7.9783 2.28228C7.97973 2.31227 7.98788 2.34157 8.00217 2.36799C8.01645 2.39441 8.0365 2.41728 8.06083 2.43491C8.08516 2.45254 8.11314 2.46448 8.14271 2.46984L8.52368 2.5462L8.22136 3.3127C8.21142 3.33721 8.20643 3.36346 8.2067 3.38991C8.20696 3.41636 8.21247 3.4425 8.22289 3.46681C8.23332 3.49112 8.24847 3.51313 8.26746 3.53156C8.28644 3.55 8.30889 3.56448 8.33351 3.57418C8.35813 3.58389 8.38443 3.58863 8.4109 3.58813C8.43736 3.58762 8.46346 3.58188 8.48769 3.57124C8.51192 3.56059 8.5338 3.54525 8.55206 3.52611C8.57033 3.50696 8.58461 3.48439 8.5941 3.45969L8.96826 2.51079C8.99532 2.47111 9.0072 2.42303 9.00175 2.37532C8.9963 2.32761 8.97388 2.28344 8.93857 2.25088C8.90288 2.21615 8.85553 2.19595 8.80575 2.19422L8.42032 2.11697L8.73515 0.64513C8.74191 0.6157 8.74193 0.585114 8.7352 0.555677C8.72846 0.526241 8.71515 0.498709 8.69627 0.475139C8.67738 0.451569 8.65341 0.432573 8.62614 0.419571C8.59887 0.40657 8.56901 0.399908 8.5388 0.40007L8.53876 0.400024ZM6.2612 1.49528C6.22983 1.49454 6.19873 1.50117 6.1704 1.51464C6.14207 1.52812 6.1173 1.54806 6.09809 1.57285C6.07888 1.59765 6.06576 1.6266 6.05979 1.65738C6.05382 1.68817 6.05517 1.71992 6.06373 1.75009C6.17951 2.18165 6.29529 2.61339 6.41097 3.04495C6.41715 3.07103 6.4285 3.09561 6.44436 3.11723C6.46021 3.13884 6.48025 3.15706 6.50327 3.17079C6.5263 3.18453 6.55186 3.1935 6.57842 3.19719C6.60499 3.20087 6.63202 3.19919 6.65792 3.19224C6.68382 3.18529 6.70806 3.17321 6.7292 3.15673C6.75034 3.14024 6.76796 3.11967 6.78101 3.09625C6.79406 3.07284 6.80226 3.04704 6.80515 3.02039C6.80804 2.99375 6.80555 2.96679 6.79782 2.94112C6.68204 2.50956 6.56659 2.07816 6.45089 1.6466C6.4402 1.60409 6.41586 1.56625 6.38159 1.5389C6.34732 1.51155 6.30502 1.4962 6.26117 1.49519L6.2612 1.49528ZM10.7204 1.49563C10.7138 1.49533 10.7071 1.49536 10.7005 1.49572C10.6578 1.49801 10.6169 1.51391 10.5839 1.54107C10.5509 1.56824 10.5274 1.60525 10.517 1.64669C10.4012 2.07825 10.2854 2.50968 10.1697 2.94123C10.1627 2.96671 10.1608 2.99333 10.1641 3.01955C10.1674 3.04576 10.1758 3.07107 10.189 3.09401C10.2021 3.11694 10.2197 3.13705 10.2406 3.15318C10.2615 3.16931 10.2855 3.18114 10.311 3.18799C10.3365 3.19484 10.3632 3.19657 10.3894 3.19309C10.4156 3.1896 10.4409 3.18096 10.4637 3.16767C10.4866 3.15439 10.5066 3.13672 10.5226 3.11568C10.5385 3.09463 10.5502 3.07063 10.5569 3.04506C10.6727 2.6135 10.7882 2.18178 10.9039 1.75022C10.9121 1.72119 10.9137 1.69068 10.9084 1.66096C10.9032 1.63125 10.8913 1.6031 10.8737 1.57862C10.856 1.55414 10.8331 1.53395 10.8065 1.51958C10.78 1.50521 10.7505 1.49702 10.7204 1.49563H10.7204ZM13.2325 1.7088C13.2034 1.70825 13.1745 1.71405 13.1479 1.72578C13.1212 1.73752 13.0974 1.75492 13.0782 1.77678L11.9559 3.01993C11.917 3.05061 11.8908 3.09462 11.8824 3.14346C11.8742 3.18488 11.8793 3.22783 11.8969 3.2662C11.9146 3.30457 11.9439 3.33638 11.9807 3.35708L12.2413 3.58596L11.5959 4.0988C11.5745 4.11487 11.5565 4.13506 11.543 4.1582C11.5295 4.18133 11.5208 4.20694 11.5174 4.23349C11.514 4.26005 11.516 4.28703 11.5232 4.31282C11.5304 4.33861 11.5427 4.3627 11.5593 4.38366C11.576 4.40461 11.5967 4.42201 11.6202 4.43483C11.6438 4.44764 11.6696 4.45562 11.6963 4.45827C11.7229 4.46093 11.7499 4.45821 11.7755 4.45028C11.801 4.44236 11.8248 4.42938 11.8453 4.41213L12.6578 3.76671C12.7004 3.74133 12.732 3.70111 12.7466 3.65381C12.7604 3.61122 12.7595 3.56523 12.7441 3.52319C12.7287 3.48115 12.6997 3.44548 12.6616 3.42189L12.3666 3.16253L13.3755 2.04509C13.4017 2.01678 13.4193 1.98147 13.4259 1.94343C13.4326 1.9054 13.4281 1.86625 13.413 1.83069C13.3979 1.79514 13.3729 1.76471 13.3409 1.74306C13.3089 1.72141 13.2713 1.70948 13.2327 1.70869L13.2325 1.7088ZM3.64356 1.70916C3.60548 1.71106 3.56872 1.72376 3.53762 1.74581C3.50651 1.76785 3.48234 1.79831 3.46795 1.8336C3.45357 1.86889 3.44956 1.90756 3.45639 1.94505C3.46322 1.98254 3.48062 2.0173 3.50653 2.04526L4.51551 3.16288L4.22063 3.42208C4.18452 3.44444 4.15645 3.4777 4.14049 3.51705C4.1191 3.56546 4.11775 3.62038 4.13675 3.66978C4.15575 3.71919 4.19355 3.75907 4.24188 3.7807L5.03653 4.41221C5.05702 4.42948 5.08076 4.44245 5.10635 4.45039C5.13195 4.45832 5.15888 4.46105 5.18554 4.4584C5.21221 4.45575 5.23807 4.44778 5.2616 4.43496C5.28513 4.42215 5.30585 4.40474 5.32253 4.38378C5.33921 4.36282 5.35151 4.33872 5.35871 4.31292C5.36591 4.28713 5.36786 4.26015 5.36444 4.23358C5.36102 4.20702 5.3523 4.1814 5.3388 4.15827C5.32531 4.13513 5.3073 4.11494 5.28586 4.09888L4.6407 3.58593L4.93244 3.32963C4.93319 3.3289 4.93393 3.32816 4.93466 3.32742C4.93617 3.32596 4.93765 3.32447 4.93911 3.32297C4.95952 3.30326 4.9755 3.27944 4.986 3.25309C4.99651 3.22675 5.00129 3.19846 5.00004 3.17013C4.99878 3.14179 4.99152 3.11405 4.97873 3.08873C4.96594 3.06341 4.94792 3.0411 4.92585 3.02326L3.80173 1.77808C3.78181 1.75544 3.75702 1.73758 3.72923 1.72585C3.70145 1.71412 3.67136 1.70882 3.64123 1.71033L3.64356 1.70916ZM10.2427 3.27761C10.236 3.2773 10.2294 3.27733 10.2228 3.27768C10.18 3.27993 10.1391 3.2958 10.1061 3.32297C10.073 3.35013 10.0495 3.38718 10.039 3.42866C10.0236 3.48352 10.0096 3.53845 9.99498 3.59335C9.98132 3.64463 9.98858 3.69923 10.0152 3.74517C10.0417 3.79111 10.0855 3.82464 10.1368 3.83838C10.188 3.85213 10.2427 3.84498 10.2887 3.81851C10.3347 3.79204 10.3684 3.7484 10.3822 3.69717C10.3977 3.6423 10.4115 3.58715 10.4263 3.53225C10.4345 3.50322 10.4361 3.47271 10.4308 3.44299C10.4256 3.41328 10.4137 3.38514 10.3961 3.36066C10.3784 3.33618 10.3555 3.31599 10.3289 3.30162C10.3024 3.28725 10.2729 3.27908 10.2428 3.27768L10.2427 3.27761ZM6.73887 3.27768C6.70753 3.27696 6.67647 3.28359 6.64817 3.29705C6.61987 3.3105 6.59512 3.33041 6.57592 3.35517C6.55672 3.37992 6.54358 3.40883 6.53759 3.43957C6.53159 3.47031 6.5329 3.50204 6.5414 3.53219C6.55688 3.58706 6.57109 3.6422 6.58568 3.6971C6.59183 3.72321 6.60317 3.74783 6.61901 3.76947C6.63486 3.79112 6.6549 3.80936 6.67794 3.82312C6.70097 3.83688 6.72654 3.84587 6.75313 3.84956C6.77971 3.85325 6.80676 3.85158 6.83268 3.84462C6.8586 3.83767 6.88286 3.82557 6.90401 3.80906C6.92516 3.79256 6.94279 3.77198 6.95583 3.74854C6.96887 3.72509 6.97707 3.69927 6.97993 3.6726C6.9828 3.64593 6.98027 3.61895 6.97251 3.59328C6.95703 3.53841 6.94326 3.48349 6.92845 3.42859C6.91768 3.38616 6.8933 3.34842 6.85904 3.32116C6.82478 3.29389 6.78252 3.27859 6.73873 3.27761L6.73887 3.27768ZM9.51872 3.97434C9.48221 3.97507 9.44593 3.97657 9.40959 3.9788C9.26437 3.98983 9.12072 4.01307 8.98066 4.05098C8.74198 4.11518 8.51406 4.21901 8.30637 4.35876C7.86238 4.13257 7.38028 4.04229 6.91141 4.07523C6.06253 4.13477 5.25702 4.59711 4.7998 5.38128C4.09409 6.59161 4.47567 8.13363 5.63985 8.89069V9.12229C5.31457 9.20774 5.07841 9.51923 5.07841 9.87665C5.07841 10.2353 5.31619 10.5478 5.64322 10.632C5.71804 12.2745 7.07201 13.5801 8.73491 13.5801C10.3988 13.5801 11.7529 12.273 11.8263 10.6292C12.1479 10.5411 12.3807 10.2315 12.3807 9.87665C12.3807 9.52306 12.1496 9.21447 11.8297 9.1251V8.97966C12.4701 8.87274 12.9351 8.28886 12.9421 7.62937C12.9487 6.96978 12.4654 6.42127 11.8334 6.32318C11.84 6.0992 11.8134 5.87629 11.7572 5.66179C11.6822 5.38056 11.554 5.11342 11.3766 4.87723C11.199 4.64104 10.9722 4.43591 10.7016 4.27889C10.431 4.12194 10.1404 4.02684 9.84792 3.99035C9.73835 3.9771 9.6281 3.97044 9.51876 3.97266L9.51872 3.97434ZM9.52761 4.37456C9.61749 4.37234 9.7078 4.37678 9.79799 4.38781C10.0382 4.41773 10.2763 4.4954 10.4999 4.62521C10.7235 4.75494 10.9096 4.92356 11.0557 5.11797C11.2018 5.31234 11.3078 5.53283 11.3698 5.76512C11.4317 5.99738 11.4497 6.24148 11.4198 6.48344C11.4198 6.48394 11.4198 6.48443 11.4198 6.48492C11.4192 6.48859 11.4187 6.49227 11.4183 6.49596C11.4156 6.52739 11.4204 6.55901 11.4323 6.58825C11.4441 6.61749 11.4627 6.64351 11.4865 6.6642C11.5104 6.68489 11.5387 6.69968 11.5694 6.70733C11.6 6.71498 11.632 6.71529 11.6627 6.70824C12.1613 6.72372 12.5463 7.12275 12.5409 7.62493C12.5365 8.13928 12.154 8.57513 11.6544 8.59558C11.4094 8.52627 11.1894 8.41274 11.0003 8.26551C10.8108 8.11808 10.6524 7.9367 10.5313 7.73317C10.5163 7.69685 10.4908 7.66577 10.4582 7.6438C10.4255 7.62183 10.3872 7.60996 10.3478 7.60965C10.3456 7.60973 10.3434 7.60984 10.3412 7.60999C10.3397 7.60995 10.3382 7.60994 10.3367 7.60994C10.3352 7.61007 10.3337 7.61021 10.3323 7.61038C10.33 7.61055 10.3278 7.61076 10.3256 7.61101C10.2858 7.61476 10.248 7.63035 10.2171 7.65575C10.1862 7.68116 10.1636 7.71524 10.1523 7.75358C9.82446 8.46599 9.17698 9.04549 8.41343 9.20807L8.41195 9.20868L8.41047 9.20904C7.69832 9.37374 6.59822 9.06559 5.98626 8.63345C5.98479 8.63269 5.98331 8.63195 5.98182 8.63123C5.97963 8.6297 5.97741 8.62822 5.97516 8.62679C5.97223 8.62523 5.96927 8.62375 5.96627 8.62235C4.89083 8.00457 4.52571 6.64983 5.14692 5.58439C5.7606 4.53187 7.10657 4.16302 8.17844 4.74553C8.2139 4.77886 8.2603 4.79813 8.30895 4.79977C8.3576 4.8014 8.40517 4.78529 8.4428 4.75443C8.63606 4.60766 8.85518 4.50121 9.08584 4.43906C9.22996 4.40034 9.37867 4.37864 9.52856 4.37531L9.52761 4.37456ZM3.43825 7.3789C3.02818 7.38771 2.63223 7.60493 2.4129 7.98535L0.0903313 12.0136C0.07925 12.0297 0.0705943 12.0474 0.0646377 12.066C-0.10183 12.5698 0.060203 13.1435 0.470503 13.483C1.40402 14.4163 2.34787 15.4861 3.29401 16.4367V19.3999C3.29404 19.453 3.31517 19.5039 3.35273 19.5414C3.3903 19.5789 3.44124 19.6 3.49435 19.6H14.1076C14.1607 19.6 14.2116 19.5789 14.2491 19.5413C14.2866 19.5038 14.3077 19.453 14.3077 19.3999V16.4377C15.2538 15.4872 16.1976 14.4175 17.131 13.4841C17.5391 13.1476 17.7015 12.5801 17.5416 12.0787C17.541 12.075 17.5403 12.0713 17.5394 12.0676C17.5394 12.0671 17.5394 12.0662 17.5394 12.0654C17.5387 12.0639 17.538 12.0624 17.5372 12.061C17.5365 12.058 17.5358 12.055 17.535 12.0521C17.5303 12.0396 17.5244 12.0276 17.5173 12.0162L15.1929 7.98497C14.9422 7.5502 14.4606 7.32934 13.9911 7.38725C13.8346 7.40717 13.6796 7.45677 13.5348 7.54043C12.9552 7.87527 12.7963 8.60137 13.0843 9.18725L14.6231 12.3186C14.1282 12.7757 13.3484 13.2842 12.8235 13.7868L9.8061 13.789C9.80561 13.789 9.80511 13.789 9.80462 13.789C9.79945 13.7891 9.79429 13.7893 9.78915 13.7898C9.78766 13.7899 9.78618 13.79 9.7847 13.7901C9.77877 13.7906 9.77287 13.7914 9.767 13.7924C9.76651 13.7924 9.76601 13.7925 9.76552 13.7926C9.75956 13.7938 9.75365 13.7953 9.74783 13.797C9.74634 13.7973 9.74486 13.7975 9.74338 13.7978C9.73816 13.7991 9.733 13.8005 9.72791 13.8022C9.72642 13.8027 9.72493 13.8032 9.72346 13.8037C9.71896 13.8058 9.71454 13.808 9.71021 13.8104C9.70872 13.8111 9.70724 13.8118 9.70577 13.8126C9.70202 13.8147 9.69834 13.8169 9.69473 13.8193C9.69248 13.8207 9.69026 13.8222 9.68807 13.8237C9.68428 13.8265 9.6806 13.8295 9.67703 13.8326C9.67553 13.834 9.67405 13.8355 9.67259 13.837C9.66877 13.8406 9.66509 13.8442 9.66156 13.8481C9.66081 13.8488 9.66007 13.8495 9.65934 13.8503C9.65552 13.8538 9.65184 13.8575 9.6483 13.8613C9.64755 13.8628 9.6468 13.8643 9.64608 13.8658C9.64299 13.8693 9.64003 13.873 9.6372 13.8768C9.63569 13.8782 9.63421 13.8797 9.63275 13.8812C9.63041 13.8848 9.62819 13.8885 9.62609 13.8923C9.62457 13.8945 9.62308 13.8967 9.62165 13.8989C9.62009 13.9019 9.61861 13.9048 9.61721 13.9078C9.61565 13.9107 9.61417 13.9137 9.61276 13.9167C9.61192 13.9204 9.61118 13.924 9.61054 13.9277C9.60973 13.9307 9.60899 13.9336 9.60832 13.9366C9.60751 13.9396 9.60677 13.9425 9.6061 13.9455C9.60526 13.9492 9.60451 13.9528 9.60387 13.9565C9.60331 13.9595 9.60282 13.9624 9.60239 13.9654C9.60175 13.9698 9.60126 13.9743 9.60091 13.9787C9.60081 13.9824 9.60081 13.986 9.60091 13.9897C9.60091 14.3495 9.26082 14.662 8.7994 14.662C8.33795 14.662 7.99777 14.3495 7.99777 13.9897C7.99775 13.989 7.99773 13.9882 7.9977 13.9875C7.99777 13.9845 7.99777 13.9816 7.9977 13.9786C7.99576 13.9263 7.97344 13.8769 7.93551 13.8409C7.89757 13.8048 7.84704 13.7851 7.79471 13.7858C7.78536 13.7859 7.77604 13.7866 7.76679 13.788L4.78002 13.7858C4.25506 13.2831 3.47536 12.7746 2.98053 12.3174L4.51935 9.18622C4.8073 8.60033 4.6484 7.87424 4.06887 7.5394C3.9241 7.45572 3.76896 7.40547 3.61248 7.38621C3.55383 7.37954 3.49493 7.37518 3.43649 7.37733L3.43825 7.3789ZM3.48408 7.77676C3.61491 7.78121 3.74725 7.81659 3.87007 7.88744C4.26284 8.11436 4.36897 8.58881 4.16143 9.01107L2.57222 12.2448C2.54287 12.2865 2.53053 12.3378 2.53772 12.3882C2.54109 12.4167 2.55052 12.4441 2.56537 12.4685C2.58022 12.493 2.60016 12.514 2.62382 12.5302C3.18535 13.0802 4.06632 13.6381 4.55973 14.1293C4.56046 14.1298 4.5612 14.1303 4.56195 14.1307C4.56552 14.1338 4.5692 14.1368 4.57298 14.1396C4.57444 14.1411 4.57592 14.1426 4.57743 14.1441C4.58102 14.1472 4.58473 14.1501 4.58853 14.153C4.59001 14.1537 4.59148 14.1545 4.59297 14.1552C4.59731 14.1576 4.60173 14.1598 4.60623 14.1618C4.60771 14.1626 4.60918 14.1633 4.61067 14.1641C4.61574 14.1665 4.6209 14.1687 4.62615 14.1707C4.62689 14.171 4.62763 14.1712 4.62837 14.1715C4.63347 14.1732 4.63863 14.1746 4.64385 14.1759C4.64532 14.1764 4.6468 14.1769 4.64829 14.1774C4.65338 14.1791 4.65855 14.1806 4.66377 14.1818C4.66525 14.1821 4.66672 14.1824 4.66821 14.1826C4.67334 14.1835 4.6785 14.1843 4.68369 14.1848C4.68443 14.1849 4.68517 14.185 4.68591 14.185C4.69105 14.1855 4.69622 14.1857 4.70138 14.1857L7.62053 14.188C7.72656 14.6938 8.22664 15.0602 8.80185 15.0602C9.37708 15.0602 9.87713 14.6938 9.98319 14.188L12.9023 14.1857C12.9045 14.1857 12.9067 14.1855 12.9089 14.1854C12.9104 14.1853 12.9119 14.1852 12.9134 14.185C12.9193 14.1848 12.9252 14.1843 12.9311 14.1835C12.9311 14.1835 12.9311 14.1835 12.9311 14.1835C12.9378 14.1823 12.9444 14.1809 12.951 14.179C12.951 14.179 12.951 14.1789 12.951 14.1788C12.9702 14.174 12.9886 14.1664 13.0056 14.1562C13.0061 14.156 13.0066 14.1558 13.0071 14.1556C13.0124 14.1522 13.0176 14.1485 13.0226 14.1446C13.0226 14.1446 13.0226 14.1445 13.0227 14.1445C13.0318 14.1378 13.0403 14.1303 13.0481 14.1221C13.5425 13.6317 14.421 13.0751 14.9809 12.5263C15.0241 12.4965 15.0538 12.451 15.0637 12.3995C15.0697 12.3719 15.0698 12.3434 15.064 12.3159C15.0582 12.2883 15.0467 12.2622 15.0301 12.2394L13.4422 9.00813C13.2345 8.58584 13.3408 8.1114 13.7335 7.88448C14.1265 7.65741 14.6171 7.78907 14.8439 8.18248L17.1635 12.2054C17.2675 12.5448 17.148 12.9537 16.8715 13.1769C16.8661 13.181 16.8609 13.1855 16.856 13.1902C15.8942 14.1513 14.9342 15.2409 13.9851 16.1909C13.9636 16.2078 13.9457 16.229 13.9326 16.2531C13.9196 16.2772 13.9116 16.3037 13.9092 16.331C13.9092 16.3325 13.9092 16.334 13.9092 16.3354C13.9091 16.3391 13.9091 16.3428 13.9092 16.3465C13.9091 16.3494 13.9091 16.3524 13.9091 16.3554V19.1948H3.69629V16.4249C3.69679 16.412 3.69605 16.3991 3.69407 16.3864C3.69994 16.3545 3.69797 16.3217 3.68834 16.2907C3.6787 16.2597 3.66168 16.2316 3.63875 16.2086C2.68374 15.2543 1.71795 14.1565 0.749901 13.1891C0.744971 13.1845 0.739813 13.18 0.734433 13.1759C0.458915 12.9527 0.338548 12.544 0.44246 12.2045L2.76173 8.18145C2.9178 7.91096 3.19828 7.76422 3.4861 7.77272L3.48408 7.77676ZM10.3695 8.20226C10.4817 8.34261 10.6104 8.47062 10.7541 8.58252C10.9527 8.73703 11.1795 8.86063 11.4286 8.94537V10.4893C11.4286 11.9835 10.2307 13.1803 8.73458 13.1803C7.23847 13.1803 6.04026 11.9835 6.04026 10.4893V9.14192C6.74854 9.54192 7.71756 9.77971 8.49761 9.60034C9.29722 9.42966 9.96505 8.8897 10.3695 8.20226ZM5.63952 9.55561V10.199C5.54433 10.1339 5.4788 10.0179 5.4788 9.8773C5.4788 9.73672 5.54434 9.62058 5.63952 9.55561ZM11.8293 9.56226C11.919 9.62846 11.9796 9.74136 11.9796 9.87683C11.9796 10.0123 11.919 10.1252 11.8293 10.1914V9.56226ZM8.73458 11.668C8.42798 11.668 8.15654 11.8349 7.9732 12.078C7.95734 12.099 7.94578 12.1229 7.93918 12.1484C7.93258 12.1738 7.93106 12.2003 7.93472 12.2264C7.93838 12.2525 7.94714 12.2775 7.9605 12.3002C7.97386 12.3229 7.99156 12.3427 8.01258 12.3585C8.03361 12.3744 8.05756 12.3859 8.08305 12.3925C8.10854 12.3991 8.13507 12.4005 8.16114 12.3969C8.18721 12.3932 8.2123 12.3844 8.23497 12.3711C8.25765 12.3577 8.27746 12.34 8.29328 12.3189C8.41769 12.154 8.57164 12.0685 8.73458 12.0685C8.89751 12.0685 9.05121 12.154 9.17557 12.3189C9.19124 12.3404 9.21102 12.3585 9.23375 12.3722C9.25649 12.386 9.28172 12.395 9.308 12.3989C9.33428 12.4028 9.36106 12.4014 9.3868 12.3949C9.41255 12.3883 9.43673 12.3767 9.45795 12.3608C9.47916 12.3448 9.49699 12.3248 9.51039 12.3018C9.52378 12.2789 9.53249 12.2536 9.53599 12.2272C9.53949 12.2009 9.53772 12.1742 9.53079 12.1485C9.52385 12.1229 9.51188 12.0989 9.49558 12.078C9.31229 11.8349 9.04118 11.668 8.73458 11.668Z" fill="#041F56"/>
</svg>
