<svg width="15" height="17" viewBox="0 0 15 17" fill="none" xmlns="http://www.w3.org/2000/svg">
<path d="M12.3451 16.6001H5.17812C5.14672 16.6004 5.11569 16.5934 5.08752 16.5795C5.05936 16.5656 5.03487 16.5453 5.01603 16.5202L0.639707 10.7062C0.618702 10.6779 0.605481 10.6446 0.601359 10.6095C0.597238 10.5745 0.60236 10.539 0.616216 10.5066C0.630311 10.469 1.01556 9.55519 1.79075 9.37431C2.24647 9.2686 2.73038 9.43304 3.21194 9.86292C4.15157 10.6804 4.81166 11.2841 5.18282 11.6224V3.04121C5.17884 2.71432 5.29695 2.39769 5.51404 2.15326C5.65518 2.01641 5.8234 1.9106 6.00788 1.84264C6.19236 1.77467 6.38901 1.74605 6.58521 1.75862C6.88517 1.75163 7.18405 1.79694 7.46846 1.89251C7.58592 1.47673 7.89834 0.790797 8.68528 0.673344C8.93063 0.621069 9.18419 0.620603 9.42972 0.671976C9.67526 0.723348 9.90736 0.825427 10.1112 0.971676C10.2995 1.13935 10.4504 1.34483 10.554 1.57473C10.6577 1.80463 10.7117 2.05378 10.7125 2.30595V3.71539H14.706C14.7602 3.71539 14.8121 3.73693 14.8505 3.77525C14.8888 3.81358 14.9103 3.86556 14.9103 3.91976V5.8601C14.9103 5.88683 14.905 5.91329 14.8947 5.93795C14.8844 5.96262 14.8693 5.98499 14.8503 6.00379C14.8313 6.02258 14.8088 6.03741 14.784 6.04742C14.7592 6.05743 14.7327 6.06243 14.706 6.06212H11.5277C11.4741 6.06212 11.4227 6.04083 11.3848 6.00295C11.3469 5.96506 11.3256 5.91368 11.3256 5.8601C11.3256 5.80652 11.3469 5.75513 11.3848 5.71725C11.4227 5.67936 11.4741 5.65808 11.5277 5.65808H14.5063V4.10299H10.5129C10.4595 4.10238 10.4084 4.0809 10.3707 4.04315C10.3329 4.00539 10.3115 3.95436 10.3108 3.90097V2.31065C10.312 2.11677 10.2724 1.92481 10.1947 1.74718C10.117 1.56955 10.0029 1.41019 9.85982 1.2794C9.69823 1.17053 9.51629 1.09546 9.32494 1.05873C9.13359 1.02199 8.93678 1.02434 8.74636 1.06564C7.94063 1.18544 7.80673 2.20259 7.80673 2.24018C7.80213 2.28297 7.78398 2.32317 7.75494 2.35493C7.72589 2.38668 7.68746 2.40834 7.64525 2.41673C7.60304 2.42512 7.55925 2.41981 7.52027 2.40157C7.48128 2.38333 7.44914 2.35313 7.42853 2.31535C7.37215 2.23078 6.95872 2.15091 6.58756 2.15091C6.44758 2.13929 6.3067 2.15666 6.17372 2.20192C6.04075 2.24719 5.91854 2.31939 5.81472 2.41401C5.66529 2.57885 5.58168 2.79288 5.57981 3.01537V12.0828C5.57923 12.1221 5.56742 12.1605 5.54578 12.1934C5.52414 12.2263 5.49357 12.2523 5.45766 12.2684C5.42167 12.2847 5.3816 12.2899 5.34265 12.2832C5.3037 12.2765 5.26766 12.2582 5.23919 12.2308C5.23919 12.2308 4.42406 11.4673 2.94885 10.1659C2.56595 9.83003 2.20889 9.69613 1.88941 9.76896C1.44309 9.87232 1.14946 10.3492 1.0414 10.5606L5.27913 16.196H12.2206C12.5918 15.5054 14.6143 11.5402 13.2848 10.0884C12.223 8.94443 10.5669 8.3783 10.5504 8.37361C10.5102 8.35992 10.4752 8.334 10.4503 8.29947C10.4255 8.26494 10.412 8.22352 10.4119 8.18098V6.05037H8.08392C8.03034 6.05037 7.97896 6.02909 7.94107 5.9912C7.90319 5.95332 7.8819 5.90193 7.8819 5.84835C7.8819 5.79477 7.90319 5.74339 7.94107 5.7055C7.97896 5.66762 8.03034 5.64633 8.08392 5.64633H10.6021C10.6289 5.64602 10.6554 5.65102 10.6802 5.66103C10.7049 5.67104 10.7275 5.68588 10.7465 5.70467C10.7655 5.72346 10.7806 5.74583 10.7909 5.7705C10.8012 5.79516 10.8065 5.82162 10.8065 5.84835V8.04474C11.2434 8.20917 12.6106 8.78469 13.569 9.81594C15.2345 11.613 12.6294 16.2994 12.519 16.4991C12.5013 16.5296 12.476 16.555 12.4455 16.5727C12.415 16.5904 12.3804 16.5999 12.3451 16.6001Z" fill="#041F56"/>
</svg>
