<svg width="20" height="20" viewBox="0 0 20 20" fill="none" xmlns="http://www.w3.org/2000/svg">
<path d="M19.3808 10.7597C19.0029 9.57672 18.1903 8.61294 17.0904 8.04223C15.9868 7.47152 14.732 7.36569 13.549 7.73987C12.4605 8.08758 11.561 8.80569 10.9789 9.77703C10.5329 9.80727 9.52758 10.2344 9.07404 10.6236V4.73514C9.07026 2.34648 7.1238 0.400024 4.73514 0.400024C2.34648 0.400024 0.400024 2.34648 0.400024 4.73514V15.2611C0.400024 17.6536 2.34648 19.6 4.73514 19.6C6.26585 19.6 7.67562 18.7836 8.4542 17.491C8.81325 17.8803 9.24034 18.2054 9.72412 18.4624C12.6003 19.978 15.2762 17.9484 15.8356 16.7238C17.2227 16.4517 18.4284 15.5597 19.0785 14.3049C19.6492 13.1975 19.755 11.9427 19.3808 10.7597ZM11.8596 10.3062C12.4945 10.3251 13.1257 10.4573 13.704 10.7597C14.6602 11.2548 15.3632 12.0901 15.692 13.1144C15.9868 14.0403 15.9377 15.0192 15.5597 15.9036L8.4353 12.2186C8.94176 11.3984 10.2381 10.257 11.8596 10.3062ZM4.73514 1.01987C6.78365 1.01987 8.45042 2.68664 8.45042 4.73514V9.6901H1.01987V4.73514C1.01987 2.68664 2.68664 1.01987 4.73514 1.01987ZM4.73514 18.9802C2.68664 18.9802 1.01987 17.3134 1.01987 15.2649V10.3099H8.45042V11.1792C6.06176 13.874 7.77388 16.5991 8.03089 16.9733C7.39593 18.1978 6.12223 18.9802 4.73514 18.9802ZM10.0076 17.9106C9.05136 17.4155 7.05955 15.7033 8.15184 12.7666L15.2762 16.4517C13.549 18.9802 10.9638 18.4057 10.0076 17.9106ZM16.1947 15.9906C16.531 15.1137 16.5915 14.1651 16.3685 13.2504L18.3717 14.286C17.869 15.091 17.0942 15.6958 16.1947 15.9906ZM18.6589 13.7342L16.0775 12.4C15.6466 11.4589 14.9248 10.6917 13.9912 10.2117C13.2958 9.85262 12.5436 9.67876 11.784 9.6901C12.2791 9.05514 12.9518 8.5827 13.7342 8.33325C14.7585 8.00821 15.8507 8.09892 16.8032 8.59404C17.7594 9.08916 18.4624 9.92443 18.7912 10.9487C19.0822 11.8709 19.0331 12.8498 18.6589 13.7342Z" fill="#041F56"/>
</svg>
