<svg width="22" height="20" viewBox="0 0 22 20" fill="none" xmlns="http://www.w3.org/2000/svg">
<mask id="path-1-inside-1" fill="white">
<path d="M14.761 0.400024C11.2348 0.400024 8.30381 1.93747 8.13746 7.47417L6.31679 10.2119C6.01733 10.6623 6.29032 11.2808 6.80827 11.3253L8.20039 11.4447C8.20039 14.5992 8.10363 16.3451 11.6901 15.3841V19.6H18.7865V14.1203C20.451 12.7842 21.392 10.7299 21.392 8.13149C21.392 3.34225 18.4232 0.400024 14.761 0.400024ZM3.02477 11.7425C2.94116 11.7425 2.85792 11.7521 2.77711 11.7728C2.77086 11.7752 2.76459 11.7761 2.75834 11.7778C2.66454 11.8039 2.57411 11.8444 2.49023 11.8989C1.92602 12.2656 1.87473 13.0323 2.23852 13.5338C2.58456 14.0109 3.18472 14.1603 3.70315 14.0213L6.64625 13.2327C7.03746 13.1338 6.88012 12.5463 6.49185 12.6562L3.54904 13.4447C3.23946 13.5274 2.90944 13.4424 2.7215 13.1834C2.54299 12.9373 2.56711 12.5607 2.81534 12.3994C2.88755 12.3524 2.99467 12.3303 3.07931 12.3441C3.16395 12.358 3.21629 12.3905 3.25169 12.4589C3.25906 12.4733 3.26682 12.5305 3.26098 12.5535C2.88648 12.6583 3.02966 13.2191 3.40857 13.1316C3.63753 13.0807 3.79237 12.8826 3.83879 12.703C3.8852 12.5235 3.86566 12.3471 3.78179 12.1849C3.65395 11.9376 3.41266 11.7938 3.17533 11.7552C3.12527 11.7469 3.07494 11.7427 3.02478 11.7424L3.02477 11.7425ZM1.21764 13.0916C1.13403 13.0916 1.05079 13.1013 0.96998 13.122C0.963733 13.1243 0.957456 13.1253 0.951211 13.1269C0.857403 13.1531 0.76708 13.1935 0.683199 13.2481C0.118985 13.6147 0.0675986 14.3816 0.431388 14.8831C0.777429 15.3601 1.37759 15.5094 1.89602 15.3705L7.43903 13.8853C7.83044 13.7865 7.67291 13.1988 7.28452 13.3089L1.74191 14.794C1.43233 14.8766 1.1023 14.7916 0.914363 14.5327C0.735856 14.2866 0.759973 13.9098 1.00821 13.7485C1.08041 13.7015 1.18763 13.6796 1.27227 13.6934C1.3569 13.7073 1.40916 13.7397 1.44456 13.8082C1.45193 13.8225 1.45969 13.8796 1.45385 13.9026C1.07935 14.0074 1.22263 14.5683 1.60153 14.4807C1.8305 14.4299 1.98524 14.2317 2.03166 14.0522C2.07808 13.8726 2.05853 13.6962 1.97466 13.534C1.84681 13.2868 1.60553 13.143 1.3682 13.1043C1.31814 13.096 1.26781 13.0918 1.21764 13.0916L1.21764 13.0916ZM7.02718 14.2569C6.9951 14.2569 6.96074 14.2602 6.92434 14.2704L6.92424 14.2705L2.96935 15.3302C2.45103 15.4695 2.00588 15.8985 1.94472 16.4846C1.88043 17.1008 2.30827 17.7393 2.98022 17.7747C3.22389 17.7876 3.45925 17.7088 3.64546 17.5567C3.83167 17.4045 3.96876 17.1593 3.95585 16.8813C3.94739 16.6988 3.8761 16.5363 3.74613 16.404C3.61615 16.2717 3.38303 16.1776 3.15932 16.248C2.79497 16.3655 2.94802 16.9113 3.32035 16.8222H3.32045C3.337 16.8391 3.35896 16.8927 3.35967 16.9088C3.36324 16.9858 3.33429 17.0402 3.26789 17.0944C3.20148 17.1487 3.09763 17.1832 3.01164 17.1787C2.71599 17.1632 2.50679 16.8488 2.53834 16.5465C2.57156 16.2281 2.81473 15.9894 3.12425 15.9064L7.07875 14.8468C7.43328 14.7571 7.33729 14.2663 7.02718 14.2568V14.2569Z"/>
</mask>
<path d="M8.13746 7.47417L8.97014 8.02792L9.12842 7.78991L9.13701 7.5042L8.13746 7.47417ZM6.31679 10.2119L5.48411 9.65813L5.48403 9.65826L6.31679 10.2119ZM6.80827 11.3253L6.72266 12.3216L6.72279 12.3216L6.80827 11.3253ZM8.20039 11.4447H9.20039V10.5269L8.28586 10.4484L8.20039 11.4447ZM11.6901 15.3841H12.6901V14.0809L11.4313 14.4182L11.6901 15.3841ZM11.6901 19.6H10.6901V20.6H11.6901V19.6ZM18.7865 19.6V20.6H19.7865V19.6H18.7865ZM18.7865 14.1203L18.1605 13.3405L17.7865 13.6407V14.1203H18.7865ZM21.392 8.13149H20.392V8.13149L21.392 8.13149ZM3.02477 11.7425V12.7425H3.98398L4.02391 11.7841L3.02477 11.7425ZM2.77711 11.7728L2.52926 10.804L2.47599 10.8176L2.42452 10.837L2.77711 11.7728ZM2.75834 11.7778L2.50302 10.8108L2.48992 10.8145L2.75834 11.7778ZM2.49023 11.8989L1.94533 11.0604L1.94532 11.0604L2.49023 11.8989ZM2.23852 13.5338L3.04799 12.9467L3.04798 12.9467L2.23852 13.5338ZM3.70315 14.0213L3.44433 13.0554L3.44431 13.0554L3.70315 14.0213ZM6.64625 13.2327L6.40103 12.2631L6.38743 12.2668L6.64625 13.2327ZM6.49185 12.6562L6.7507 13.6222L6.76423 13.6184L6.49185 12.6562ZM3.54904 13.4447L3.80705 14.4109L3.80787 14.4107L3.54904 13.4447ZM2.7215 13.1834L1.91203 13.7706L1.91219 13.7708L2.7215 13.1834ZM2.81534 12.3994L3.36025 13.2379L3.36031 13.2378L2.81534 12.3994ZM3.07931 12.3441L3.24128 11.3573L3.24022 11.3572L3.07931 12.3441ZM3.25169 12.4589L4.14141 12.0024L4.13997 11.9996L3.25169 12.4589ZM3.26098 12.5535L3.53048 13.5165L4.08772 13.3605L4.23019 12.7997L3.26098 12.5535ZM3.40857 13.1316L3.1919 12.1553L3.18339 12.1572L3.40857 13.1316ZM3.83879 12.703L4.80695 12.9534L4.80697 12.9533L3.83879 12.703ZM3.78179 12.1849L2.89351 12.6442L2.89353 12.6442L3.78179 12.1849ZM3.17533 11.7552L3.01289 12.7419L3.01464 12.7422L3.17533 11.7552ZM3.02478 11.7424L3.02947 10.7425L2.06576 10.7379L2.02564 11.7008L3.02478 11.7424ZM1.21764 13.0916V14.0916H2.20214L2.21752 13.1073L1.21764 13.0916ZM0.96998 13.122L0.722132 12.1532L0.668792 12.1668L0.617272 12.1862L0.96998 13.122ZM0.951211 13.1269L0.695976 12.1599L0.682814 12.1636L0.951211 13.1269ZM0.683199 13.2481L1.22811 14.0865L1.22827 14.0864L0.683199 13.2481ZM0.431388 14.8831L1.24084 14.2959L1.24084 14.2959L0.431388 14.8831ZM1.89602 15.3705L2.15482 16.3364L2.15483 16.3364L1.89602 15.3705ZM7.43903 13.8853L7.19422 12.9157L7.18721 12.9175L7.18022 12.9194L7.43903 13.8853ZM7.28452 13.3089L7.54333 14.2748L7.55031 14.2729L7.55727 14.271L7.28452 13.3089ZM1.74191 14.794L1.99991 15.7601L2.00072 15.7599L1.74191 14.794ZM0.914363 14.5327L0.1049 15.1199L0.105062 15.1201L0.914363 14.5327ZM1.00821 13.7485L1.55311 14.587L1.55356 14.5867L1.00821 13.7485ZM1.27227 13.6934L1.43426 12.7066L1.43317 12.7064L1.27227 13.6934ZM1.44456 13.8082L2.33427 13.3516L2.33285 13.3489L1.44456 13.8082ZM1.45385 13.9026L1.72335 14.8656L2.28058 14.7097L2.42306 14.1488L1.45385 13.9026ZM1.60153 14.4807L1.38477 13.5045L1.37636 13.5064L1.60153 14.4807ZM2.03166 14.0522L1.06351 13.8018L1.0635 13.8018L2.03166 14.0522ZM1.97466 13.534L2.86294 13.0747L2.86292 13.0747L1.97466 13.534ZM1.3682 13.1043L1.20576 14.091L1.20741 14.0913L1.3682 13.1043ZM1.21764 13.0916L1.22234 12.0916L0.233219 12.0869L0.217765 13.0759L1.21764 13.0916ZM7.02718 14.2569V15.2569H8.02718V14.2569H7.02718ZM6.92434 14.2704L6.65636 13.3069L6.4008 13.378L6.21407 13.5664L6.92434 14.2704ZM6.92424 14.2705L7.18306 15.2364L7.4442 15.1664L7.63451 14.9744L6.92424 14.2705ZM2.96935 15.3302L2.71054 14.3642L2.70981 14.3644L2.96935 15.3302ZM1.94472 16.4846L0.950123 16.3808L0.950123 16.3808L1.94472 16.4846ZM2.98022 17.7747L3.0333 16.7761L3.03289 16.7761L2.98022 17.7747ZM3.64546 17.5567L4.27816 18.3311L4.27822 18.331L3.64546 17.5567ZM3.95585 16.8813L2.95693 16.9276L2.95693 16.9276L3.95585 16.8813ZM3.74613 16.404L3.03282 17.1049L3.03288 17.1049L3.74613 16.404ZM3.15932 16.248L2.85893 15.2942L2.85235 15.2963L3.15932 16.248ZM3.32035 16.8222V15.8222H3.20236L3.08761 15.8496L3.32035 16.8222ZM3.32045 16.8222L4.03605 16.1237L3.74176 15.8222H3.32045V16.8222ZM3.35967 16.9088L2.36065 16.9531L2.36074 16.9551L3.35967 16.9088ZM3.26789 17.0944L2.63519 16.32L2.63508 16.3201L3.26789 17.0944ZM3.01164 17.1787L2.95914 18.1773L2.95941 18.1773L3.01164 17.1787ZM2.53834 16.5465L3.53294 16.6503L3.53294 16.6502L2.53834 16.5465ZM3.12425 15.9064L2.86544 14.9405L2.86538 14.9405L3.12425 15.9064ZM7.07875 14.8468L6.83353 13.8772L6.81993 13.8809L7.07875 14.8468ZM7.02718 14.2568L7.05769 13.2573L6.02718 13.2258V14.2568H7.02718ZM14.761 -0.599976C12.8713 -0.599976 10.9711 -0.190089 9.51976 1.11802C8.05546 2.43781 7.22608 4.50945 7.13791 7.44414L9.13701 7.5042C9.21518 4.90218 9.93445 3.43675 10.8588 2.60364C11.7961 1.75886 13.1245 1.40002 14.761 1.40002V-0.599976ZM7.30478 6.92041L5.48411 9.65813L7.14947 10.7656L8.97014 8.02792L7.30478 6.92041ZM5.48403 9.65826C4.81292 10.6677 5.36128 12.2047 6.72266 12.3216L6.89387 10.329C7.0434 10.3418 7.13794 10.4425 7.17084 10.517C7.20278 10.5894 7.20252 10.6858 7.14956 10.7655L5.48403 9.65826ZM6.72279 12.3216L8.11491 12.4411L8.28586 10.4484L6.89374 10.329L6.72279 12.3216ZM7.20039 11.4447C7.20039 12.2114 7.19351 12.963 7.24444 13.6053C7.29436 14.2348 7.40744 14.9103 7.74161 15.4702C8.11712 16.0994 8.71013 16.4851 9.47655 16.6055C10.1776 16.7156 11.0047 16.6031 11.9489 16.3501L11.4313 14.4182C10.5823 14.6457 10.0766 14.6752 9.78702 14.6297C9.56289 14.5945 9.50763 14.5267 9.45902 14.4453C9.36908 14.2945 9.28219 14.0021 9.23818 13.4472C9.19518 12.9049 9.20039 12.2554 9.20039 11.4447H7.20039ZM10.6901 15.3841V19.6H12.6901V15.3841H10.6901ZM11.6901 20.6H18.7865V18.6H11.6901V20.6ZM19.7865 19.6V14.1203H17.7865V19.6H19.7865ZM19.4125 14.9002C21.349 13.3457 22.392 10.9843 22.392 8.13149L20.392 8.13149C20.392 10.4754 19.5529 12.2227 18.1605 13.3405L19.4125 14.9002ZM22.392 8.13149C22.392 2.89235 19.0725 -0.599976 14.761 -0.599976V1.40002C17.7738 1.40002 20.392 3.79215 20.392 8.13149H22.392ZM3.02477 10.7425C2.86443 10.7425 2.69745 10.761 2.52926 10.804L3.02496 12.7416L3.02477 12.7425V10.7425ZM2.42452 10.837C2.48161 10.8155 2.52747 10.8048 2.539 10.8021C2.5423 10.8013 2.54471 10.8007 2.54474 10.8007C2.54616 10.8004 2.54249 10.8012 2.54061 10.8017C2.53549 10.8028 2.521 10.8062 2.50304 10.8109L3.01364 12.7446C2.9988 12.7485 2.98745 12.7511 2.98545 12.7516C2.98514 12.7516 2.98303 12.7521 2.98602 12.7514C2.98761 12.7511 2.99159 12.7502 2.99645 12.749C3.01425 12.7449 3.06637 12.7325 3.1297 12.7086L2.42452 10.837ZM2.48992 10.8145C2.29888 10.8677 2.11512 10.95 1.94533 11.0604L3.03513 12.7374C3.03311 12.7387 3.03021 12.7401 3.02676 12.7411L2.48992 10.8145ZM1.94532 11.0604C0.80968 11.7984 0.796835 13.2495 1.42907 14.121L3.04798 12.9467C3.01767 12.9049 3.00191 12.8433 3.00851 12.791C3.01134 12.7686 3.01726 12.7563 3.02009 12.7515C3.02184 12.7486 3.02459 12.7442 3.03515 12.7374L1.94532 11.0604ZM1.42905 14.121C2.05661 14.9862 3.11023 15.2155 3.962 14.9873L3.44431 13.0554C3.25921 13.105 3.11251 13.0356 3.04799 12.9467L1.42905 14.121ZM3.96198 14.9873L6.90508 14.1986L6.38743 12.2668L3.44433 13.0554L3.96198 14.9873ZM6.89145 14.2022C7.25403 14.1105 7.56134 13.8767 7.73321 13.5386C7.89338 13.2235 7.90205 12.8865 7.82731 12.6074C7.75257 12.3284 7.57664 12.0408 7.28035 11.8479C6.9624 11.6409 6.57932 11.5921 6.21946 11.694L6.76423 13.6184C6.59851 13.6653 6.3807 13.6487 6.18923 13.5241C6.01942 13.4135 5.93117 13.2584 5.8954 13.1248C5.85963 12.9913 5.85855 12.8129 5.95032 12.6323C6.0538 12.4287 6.23408 12.3055 6.40106 12.2632L6.89145 14.2022ZM6.23302 11.6903L3.29022 12.4788L3.80787 14.4107L6.75067 13.6221L6.23302 11.6903ZM3.29104 12.4786C3.30167 12.4757 3.33087 12.4706 3.37628 12.4841C3.42668 12.4992 3.48697 12.5357 3.5308 12.596L1.91219 13.7708C2.38928 14.4281 3.17906 14.5786 3.80705 14.4109L3.29104 12.4786ZM3.53096 12.5963C3.59186 12.6802 3.61232 12.7716 3.60327 12.8607C3.59371 12.9548 3.53812 13.1223 3.36025 13.2379L2.27044 11.5609C1.84433 11.8378 1.65256 12.2743 1.61352 12.6585C1.57497 13.0378 1.67263 13.4406 1.91203 13.7706L3.53096 12.5963ZM3.36031 13.2378C3.27448 13.2936 3.19873 13.3171 3.1466 13.328C3.09436 13.3388 3.01706 13.3472 2.9184 13.3311L3.24022 11.3572C2.91282 11.3038 2.55359 11.3768 2.27038 11.5609L3.36031 13.2378ZM2.91734 13.3309C2.87341 13.3237 2.7616 13.2998 2.636 13.2176C2.49987 13.1284 2.4129 13.0139 2.36342 12.9182L4.13997 11.9996C4.05508 11.8354 3.92424 11.6705 3.73192 11.5446C3.55015 11.4255 3.36985 11.3784 3.24128 11.3573L2.91734 13.3309ZM2.36198 12.9154C2.32385 12.8411 2.30451 12.7795 2.29763 12.7568C2.28855 12.727 2.2829 12.7028 2.27965 12.6878C2.27314 12.6577 2.26963 12.6332 2.26755 12.6146C2.26548 12.5963 2.26312 12.5687 2.26303 12.5334C2.26298 12.5131 2.26244 12.4227 2.29177 12.3072L4.23019 12.7997C4.28182 12.5965 4.25784 12.4162 4.25504 12.3913C4.25082 12.3538 4.24436 12.3108 4.2345 12.2653C4.23074 12.2479 4.20734 12.1309 4.1414 12.0024L2.36198 12.9154ZM2.99148 11.5905C1.36417 12.0459 1.98296 14.4874 3.63375 14.1059L3.18339 12.1572C3.35019 12.1187 3.55976 12.1451 3.74012 12.2693C3.90172 12.3806 3.98688 12.533 4.02117 12.6673C4.05546 12.8016 4.05378 12.9762 3.96531 13.1513C3.86658 13.3467 3.69534 13.4703 3.53048 13.5165L2.99148 11.5905ZM3.62523 14.1078C4.29674 13.9588 4.68748 13.4154 4.80695 12.9534L2.87063 12.4527C2.88994 12.378 2.92248 12.3246 2.96116 12.2832C3.00379 12.2375 3.07984 12.1802 3.19191 12.1553L3.62523 14.1078ZM4.80697 12.9533C4.91412 12.5387 4.86855 12.1094 4.67005 11.7255L2.89353 12.6442C2.88125 12.6205 2.86957 12.587 2.86517 12.547C2.86078 12.5071 2.86507 12.4742 2.87061 12.4528L4.80697 12.9533ZM4.67007 11.7256C4.37521 11.1553 3.83608 10.8496 3.33602 10.7682L3.01464 12.7422C2.99528 12.739 2.97765 12.7325 2.95924 12.72C2.93842 12.7059 2.91255 12.681 2.89351 12.6442L4.67007 11.7256ZM3.33777 10.7684C3.23578 10.7516 3.13271 10.7429 3.02947 10.7425L3.02008 12.7424C3.01718 12.7424 3.01476 12.7422 3.01289 12.7419L3.33777 10.7684ZM2.02564 11.7008L2.02564 11.7009L4.02391 11.7841L4.02391 11.7841L2.02564 11.7008ZM1.21764 12.0916C1.05717 12.0916 0.89021 12.1102 0.722132 12.1532L1.21783 14.0908L1.21764 14.0916V12.0916ZM0.617272 12.1862C0.67441 12.1647 0.720313 12.1539 0.731868 12.1512C0.735174 12.1505 0.737593 12.1499 0.737627 12.1499C0.739066 12.1496 0.735379 12.1504 0.733522 12.1508C0.72841 12.152 0.713942 12.1553 0.696 12.16L1.20642 14.0938C1.1916 14.0977 1.18026 14.1003 1.17828 14.1007C1.17798 14.1008 1.17586 14.1013 1.17887 14.1006C1.18046 14.1003 1.18445 14.0994 1.18932 14.0982C1.20714 14.094 1.2593 14.0816 1.32269 14.0577L0.617272 12.1862ZM0.682814 12.1636C0.491591 12.2169 0.307887 12.2993 0.138132 12.4097L1.22827 14.0864C1.22627 14.0877 1.22322 14.0892 1.21961 14.0902L0.682814 12.1636ZM0.138283 12.4096C-0.997248 13.1475 -1.01038 14.5986 -0.378066 15.4703L1.24084 14.2959C1.21058 14.2542 1.19481 14.1926 1.20142 14.1402C1.20425 14.1178 1.21018 14.1055 1.21302 14.1007C1.2148 14.0978 1.21756 14.0934 1.22811 14.0865L0.138283 12.4096ZM-0.378068 15.4703C0.249561 16.3355 1.30322 16.5646 2.15482 16.3364L1.63722 14.4046C1.45196 14.4542 1.3053 14.3848 1.24084 14.2959L-0.378068 15.4703ZM2.15483 16.3364L7.69784 14.8512L7.18022 12.9194L1.63721 14.4046L2.15483 16.3364ZM7.68383 14.8549C8.0465 14.7633 8.35402 14.5296 8.52602 14.1913C8.6863 13.8761 8.69491 13.539 8.6201 13.2598C8.54529 12.9807 8.36924 12.6932 8.07285 12.5004C7.75479 12.2935 7.37164 12.2448 7.01178 12.3468L7.55727 14.271C7.3916 14.3179 7.17379 14.3014 6.98226 14.1768C6.81241 14.0664 6.7241 13.9112 6.68829 13.7776C6.65248 13.6441 6.65137 13.4655 6.74323 13.2848C6.84682 13.0811 7.02726 12.9579 7.19422 12.9157L7.68383 14.8549ZM7.02571 12.343L1.4831 13.828L2.00072 15.7599L7.54333 14.2748L7.02571 12.343ZM1.48391 13.8278C1.49453 13.825 1.52373 13.8198 1.56914 13.8334C1.61955 13.8485 1.67984 13.8849 1.72366 13.9453L0.105062 15.1201C0.582144 15.7774 1.37193 15.9278 1.99991 15.7601L1.48391 13.8278ZM1.72383 13.9455C1.78476 14.0295 1.80518 14.1209 1.79613 14.2099C1.78659 14.3038 1.73105 14.4714 1.55311 14.587L0.46331 12.91C0.0371313 13.187 -0.154583 13.6235 -0.19362 14.0077C-0.232158 14.387 -0.134537 14.7898 0.1049 15.1199L1.72383 13.9455ZM1.55356 14.5867C1.46713 14.6429 1.39089 14.6665 1.33879 14.6773C1.28649 14.6881 1.20951 14.6964 1.11138 14.6804L1.43317 12.7064C1.10701 12.6532 0.7473 12.7252 0.462866 12.9103L1.55356 14.5867ZM1.11029 14.6802C1.06627 14.673 0.954312 14.649 0.828596 14.5666C0.692386 14.4773 0.605573 14.3628 0.556269 14.2675L2.33285 13.3489C2.24814 13.1851 2.1175 13.0201 1.92516 12.894C1.74331 12.7748 1.5629 12.7277 1.43426 12.7066L1.11029 14.6802ZM0.554848 14.2647C0.516795 14.1905 0.497467 14.129 0.490567 14.1063C0.481484 14.0765 0.475824 14.0523 0.472565 14.0373C0.466042 14.0071 0.46252 13.9826 0.460429 13.964C0.458357 13.9456 0.455984 13.9179 0.4559 13.8825C0.455851 13.8622 0.455325 13.7718 0.484632 13.6564L2.42306 14.1488C2.47469 13.9456 2.45071 13.7655 2.44789 13.7403C2.44366 13.7028 2.43719 13.6599 2.42732 13.6142C2.42352 13.5967 2.40011 13.48 2.33427 13.3517L0.554848 14.2647ZM1.18434 12.9396C-0.451791 13.3975 0.184852 15.8345 1.82671 15.455L1.37636 13.5064C1.54317 13.4678 1.75271 13.4943 1.93302 13.6184C2.09458 13.7296 2.17974 13.882 2.21405 14.0163C2.24835 14.1506 2.24672 14.3252 2.15825 14.5003C2.05952 14.6958 1.88823 14.8195 1.72335 14.8656L1.18434 12.9396ZM1.81829 15.4569C2.48996 15.3078 2.88041 14.7643 2.99982 14.3025L1.0635 13.8018C1.08277 13.7273 1.11524 13.6739 1.15395 13.6324C1.19659 13.5867 1.27268 13.5294 1.38478 13.5045L1.81829 15.4569ZM2.99981 14.3025C3.10704 13.8879 3.06138 13.4585 2.86294 13.0747L1.08637 13.9933C1.07412 13.9696 1.06244 13.9361 1.05804 13.8962C1.05365 13.8563 1.05793 13.8234 1.06351 13.8018L2.99981 14.3025ZM2.86292 13.0747C2.56805 12.5045 2.02895 12.1987 1.52899 12.1173L1.20741 14.0913C1.18809 14.0881 1.1705 14.0816 1.15211 14.0692C1.13131 14.0551 1.10544 14.0302 1.0864 13.9934L2.86292 13.0747ZM1.53063 12.1176C1.42883 12.1008 1.32577 12.0921 1.22234 12.0916L1.21295 14.0916C1.20986 14.0915 1.20744 14.0913 1.20576 14.091L1.53063 12.1176ZM0.217765 13.0759L0.217764 13.076L2.21752 13.1073L2.21752 13.1072L0.217765 13.0759ZM7.02718 13.2569C6.92487 13.2569 6.79766 13.2676 6.65636 13.3069L7.19232 15.2338C7.12382 15.2528 7.06532 15.2569 7.02718 15.2569V13.2569ZM6.21407 13.5664L6.21397 13.5665L7.63451 14.9744L7.63461 14.9743L6.21407 13.5664ZM6.66542 13.3045L2.71054 14.3642L3.22817 16.2961L7.18306 15.2364L6.66542 13.3045ZM2.70981 14.3644C1.85943 14.593 1.0611 15.3173 0.950123 16.3808L2.93932 16.5884C2.95067 16.4797 3.04264 16.346 3.2289 16.2959L2.70981 14.3644ZM0.950123 16.3808C0.838384 17.4517 1.57507 18.702 2.92756 18.7733L3.03289 16.7761C3.02033 16.7754 3.01576 16.773 3.01277 16.7713C3.00796 16.7687 2.99667 16.761 2.98301 16.743C2.95112 16.7009 2.93397 16.6397 2.93932 16.5884L0.950123 16.3808ZM2.92715 18.7733C3.4228 18.7996 3.90193 18.6385 4.27816 18.3311L3.01276 16.7823C3.01415 16.7811 3.01701 16.7793 3.02134 16.7779C3.02582 16.7764 3.03017 16.7759 3.0333 16.7761L2.92715 18.7733ZM4.27822 18.331C4.67036 18.0106 4.98454 17.4763 4.95478 16.8349L2.95693 16.9276C2.955 16.8861 2.96497 16.8516 2.97593 16.829C2.98563 16.8091 2.99759 16.7947 3.0127 16.7823L4.27822 18.331ZM4.95478 16.8349C4.93475 16.4033 4.75957 16.0086 4.45937 15.7031L3.03288 17.1049C3.01727 17.089 2.99708 17.0626 2.98097 17.026C2.96481 16.9891 2.95817 16.9543 2.95693 16.9276L4.95478 16.8349ZM4.45944 15.7032C4.12484 15.3626 3.51486 15.0876 2.85894 15.2942L3.45971 17.2018C3.35032 17.2363 3.25584 17.2247 3.19607 17.2065C3.14181 17.1899 3.08689 17.1599 3.03282 17.1049L4.45944 15.7032ZM2.85235 15.2963C1.26766 15.8074 1.93247 18.1825 3.55308 17.7947L3.08761 15.8496C3.25353 15.8099 3.46035 15.8343 3.63961 15.9532C3.80091 16.0602 3.88899 16.209 3.92643 16.3425C3.96387 16.476 3.96603 16.649 3.8839 16.8242C3.79262 17.019 3.62866 17.1474 3.4663 17.1997L2.85235 15.2963ZM3.32035 17.8222H3.32045V15.8222H3.32035V17.8222ZM2.60485 17.5207C2.5211 17.4349 2.47608 17.3557 2.46612 17.3383C2.44853 17.3077 2.4368 17.2826 2.4294 17.2656C2.42195 17.2485 2.41267 17.2254 2.40319 17.1958C2.39846 17.181 2.39121 17.157 2.38408 17.1261C2.37872 17.1028 2.36443 17.0384 2.36065 16.9531L4.35869 16.8645C4.35217 16.7175 4.31317 16.6023 4.30794 16.5859C4.29363 16.5412 4.27769 16.5006 4.26259 16.466C4.25273 16.4434 4.18317 16.2744 4.03605 16.1237L2.60485 17.5207ZM2.36074 16.9551C2.35579 16.8485 2.37352 16.7062 2.44666 16.5608C2.51436 16.4262 2.59965 16.3491 2.63519 16.32L3.90059 17.8688C4.00254 17.7855 4.1355 17.6541 4.23338 17.4595C4.3367 17.2541 4.36711 17.0461 4.35859 16.8625L2.36074 16.9551ZM2.63508 16.3201C2.71236 16.257 2.78332 16.2256 2.83388 16.2089C2.88431 16.1923 2.96161 16.1747 3.06386 16.1801L2.95941 18.1773C3.29672 18.195 3.64414 18.0784 3.90071 17.8687L2.63508 16.3201ZM3.06413 16.1801C3.27626 16.1912 3.40822 16.3087 3.46343 16.3853C3.51576 16.4579 3.5437 16.5471 3.53294 16.6503L1.54374 16.4427C1.50143 16.8482 1.61819 17.2458 1.84115 17.555C2.06699 17.8682 2.45136 18.1506 2.95914 18.1773L3.06413 16.1801ZM3.53294 16.6502C3.52522 16.7242 3.49135 16.7859 3.45507 16.8244C3.42236 16.8591 3.39416 16.8694 3.38313 16.8723L2.86538 14.9405C2.23641 15.1091 1.62802 15.635 1.54374 16.4427L3.53294 16.6502ZM3.38307 16.8723L7.33757 15.8127L6.81993 13.8809L2.86544 14.9405L3.38307 16.8723ZM7.32394 15.8163C7.64844 15.7342 7.93514 15.5366 8.11653 15.2406C8.28881 14.9594 8.32912 14.6509 8.29301 14.3865C8.22573 13.8937 7.81818 13.2805 7.05769 13.2573L6.99667 15.2564C6.54629 15.2426 6.34179 14.8796 6.3114 14.657C6.29374 14.5276 6.31095 14.3593 6.4112 14.1957C6.52057 14.0172 6.68632 13.9146 6.83355 13.8773L7.32394 15.8163ZM6.02718 14.2568V14.2569H8.02718V14.2568H6.02718Z" fill="#041F56" mask="url(#path-1-inside-1)"/>
</svg>
