<svg width="20" height="20" viewBox="0 0 20 20" fill="none" xmlns="http://www.w3.org/2000/svg">
<path d="M17.36 15.76H12.88V14.4253C14.6147 13.488 15.8445 11.7331 16.0493 9.68003H16.4C17.2823 9.68003 18 8.96227 18 8.08002C18 7.19778 17.2823 6.48002 16.4 6.48002H16.08C16.08 5.44418 15.7875 4.44802 15.2387 3.58082L16.0186 2.5085C16.0896 2.41122 16.0995 2.28226 16.0448 2.17506C15.9907 2.06754 15.8803 2.00002 15.76 2.00002H15.2727L15.7373 0.839064C15.7767 0.740504 15.7645 0.628824 15.705 0.540824C15.6455 0.452824 15.5463 0.400024 15.44 0.400024H11.92C11.8259 0.400024 11.7367 0.441304 11.6759 0.513304C11.6151 0.585304 11.5888 0.680024 11.6042 0.772824L11.6656 1.1405C11.3287 1.07554 10.9856 1.04002 10.64 1.04002H5.52002C5.2573 1.04002 5.01762 0.873304 4.92322 0.625624C4.87074 0.486424 4.72802 0.403544 4.58178 0.422104C3.99522 0.500824 3.45282 0.816984 3.09378 1.29026C2.73122 1.7677 2.57794 2.36194 2.6621 2.96322C2.7805 3.80482 3.39138 4.48546 4.19042 4.75458C4.01762 5.32098 3.9245 5.89922 3.9213 6.48002H3.60002C2.71778 6.48002 2.00002 7.19778 2.00002 8.08002C2.00002 8.96227 2.71778 9.68003 3.60002 9.68003H3.95074C4.15554 11.7331 5.3853 13.488 7.12002 14.4253V15.76H2.64002C1.40514 15.76 0.400024 16.7648 0.400024 18V19.28C0.400024 19.4567 0.543064 19.6 0.720024 19.6H19.28C19.457 19.6 19.6 19.4567 19.6 19.28V18C19.6 16.7648 18.5949 15.76 17.36 15.76ZM16.4 7.12002C16.9293 7.12002 17.36 7.55075 17.36 8.08002C17.36 8.60931 16.9293 9.04002 16.4 9.04002H16.08V7.12002H16.4ZM15.44 6.44802C14.76 6.31106 14.2423 5.74402 14.1744 5.04418L14.8304 4.1421C15.2237 4.84482 15.4349 5.63234 15.44 6.44802ZM14.9674 1.04002L14.5027 2.20098C14.4634 2.29954 14.4755 2.41122 14.5351 2.49922C14.5946 2.58722 14.6938 2.64002 14.8 2.64002H15.1315L13.52 4.85602V2.64002C13.52 2.46338 13.377 2.32002 13.2 2.32002H12.5111L12.2979 1.04002H14.9674ZM3.29602 2.87394C3.23586 2.4429 3.34466 2.01794 3.60354 1.67682C3.81922 1.39266 4.1149 1.19266 4.45154 1.09986C4.68514 1.45506 5.08674 1.68002 5.52002 1.68002H10.64C11.0256 1.68002 11.4074 1.72898 11.7789 1.82018L11.9242 2.6925C11.9501 2.84674 12.0835 2.96002 12.24 2.96002H12.88V4.24002H4.94722C4.11522 4.24002 3.40578 3.65282 3.29602 2.87394ZM2.64002 8.08002C2.64002 7.55075 3.07074 7.12002 3.60002 7.12002H3.92002V9.04002H3.60002C3.07074 9.04002 2.64002 8.60931 2.64002 8.08002ZM4.56002 9.07267V6.51266C4.56002 5.96162 4.65186 5.41218 4.82274 4.87458C4.86434 4.8765 4.9053 4.88002 4.94722 4.88002H12.88V5.84002C12.88 5.97858 12.9693 6.10146 13.1008 6.14434C13.1338 6.1549 13.1667 6.16002 13.2 6.16002C13.3002 6.16002 13.3975 6.11266 13.4589 6.02818L13.6851 5.71714C13.9779 6.4477 14.64 6.98082 15.44 7.09474V9.07234C15.44 12.072 12.9997 14.5123 10 14.5123C7.00035 14.5123 4.56002 12.0723 4.56002 9.07267ZM10 15.1527C10.7914 15.1527 11.5459 14.9962 12.24 14.7197V15.9027L10 17.3027L7.76003 15.9027V14.7197C8.45411 14.9959 9.20866 15.1527 10 15.1527ZM18.96 18.96H1.04002V18C1.04002 17.1178 1.75778 16.4 2.64002 16.4H7.34818L9.83043 17.9514C9.9341 18.016 10.0659 18.016 10.1699 17.9514L12.6519 16.4H17.36C18.2423 16.4 18.96 17.1178 18.96 18V18.96Z" fill="#041F56"/>
</svg>
