<svg width="38" height="38" viewBox="0 0 38 38" fill="none" xmlns="http://www.w3.org/2000/svg">
<rect width="38" height="38" rx="8" fill="white" fill-opacity="0.2"/>
<rect x="0.5" y="0.5" width="37" height="37" rx="7.5" stroke="white" stroke-opacity="0.2"/>
<path d="M27.6695 10.6299H21.5695C20.9896 10.6299 20.5195 11.1 20.5195 11.6799V19.1299C20.5195 19.7098 20.9896 20.1799 21.5695 20.1799H27.6695C28.2494 20.1799 28.7195 19.7098 28.7195 19.1299V11.6799C28.7195 11.1 28.2494 10.6299 27.6695 10.6299Z" stroke="#A5DAD8" stroke-width="1.2" stroke-miterlimit="10"/>
<path d="M15.7108 9.26977H10.8908C10.0108 9.26977 9.30078 9.97977 9.30078 10.8598V17.2298C9.30078 18.1098 10.0108 18.8198 10.8908 18.8198H13.2108V18.8598C13.2108 19.5298 13.7508 20.0698 14.4208 20.0698H16.7208C17.6108 20.0698 18.3408 19.3498 18.3408 18.4498V11.8998C18.3408 10.4398 17.1608 9.25977 15.7008 9.25977L15.7108 9.26977Z" stroke="#A5DAD8" stroke-width="1.2" stroke-miterlimit="10"/>
<path d="M26.2477 13H22.8974C22.6391 13 22.4297 13.1621 22.4297 13.3621V15.2094C22.4297 15.4093 22.6391 15.5714 22.8974 15.5714H26.2477C26.506 15.5714 26.7154 15.4093 26.7154 15.2094V13.3621C26.7154 13.1621 26.506 13 26.2477 13Z" stroke="#A5DAD8" stroke-width="1.2" stroke-miterlimit="10"/>
<path d="M23.4891 18.3297C23.7376 18.3297 23.9391 18.1282 23.9391 17.8797C23.9391 17.6312 23.7376 17.4297 23.4891 17.4297C23.2405 17.4297 23.0391 17.6312 23.0391 17.8797C23.0391 18.1282 23.2405 18.3297 23.4891 18.3297Z" fill="#A5DAD8"/>
<path d="M25.7391 18.3297C25.9876 18.3297 26.1891 18.1282 26.1891 17.8797C26.1891 17.6312 25.9876 17.4297 25.7391 17.4297C25.4905 17.4297 25.2891 17.6312 25.2891 17.8797C25.2891 18.1282 25.4905 18.3297 25.7391 18.3297Z" fill="#A5DAD8"/>
<path d="M11.0508 18.8203V25.3303C11.0508 27.1603 12.5508 28.6703 14.3908 28.6703H14.5408C16.3708 28.6703 17.8808 27.1703 17.8808 25.3303V24.9603V24.0003" stroke="#A5DAD8" stroke-width="1.2" stroke-miterlimit="10"/>
<path d="M17.8789 24.0003C17.8789 23.3603 18.4089 22.8303 19.0489 22.8303C19.6889 22.8303 20.2189 23.3603 20.2189 24.0003V25.3603V25.7103V26.4603C20.2189 27.6703 21.2089 28.6603 22.4189 28.6603C23.6289 28.6603 24.6189 27.6703 24.6189 26.4603V20.0703" stroke="#A5DAD8" stroke-width="1.2" stroke-miterlimit="10"/>
<path d="M13.2113 18.8196V15.7996C13.2113 15.7996 13.0513 14.6796 14.7013 14.6796C16.3513 14.6796 18.3413 14.4296 18.3413 12.5996" stroke="#A5DAD8" stroke-width="1.2" stroke-miterlimit="10"/>
<path d="M14.7008 14.6699V13.5999C14.7008 13.5999 14.8008 12.4799 13.2108 12.4799H11.3408C11.3408 12.4799 9.30078 12.5999 9.30078 11.1299" stroke="#A5DAD8" stroke-width="1.2" stroke-miterlimit="10"/>
</svg>
