<svg width="38" height="38" viewBox="0 0 38 38" fill="none" xmlns="http://www.w3.org/2000/svg">
<rect width="38" height="38" rx="8" fill="#01CD74"/>
<rect x="0.5" y="0.5" width="37" height="37" rx="7.5" stroke="white" stroke-opacity="0.2"/>
<path d="M15.6406 18.1318C15.6406 17.5796 16.0883 17.1318 16.6406 17.1318H21.2821C21.8344 17.1318 22.2821 17.5796 22.2821 18.1318V29.9996H15.6406V18.1318Z" stroke="white" stroke-width="1.5"/>
<path d="M22.2812 20.4531H27.9227C28.475 20.4531 28.9227 20.9008 28.9227 21.4531V30.0002H22.2812V20.4531Z" stroke="white" stroke-width="1.5"/>
<path d="M9 25.6035C9 25.0512 9.44772 24.6035 10 24.6035H15.6414V29.9997H9V25.6035Z" stroke="white" stroke-width="1.5"/>
<path d="M19.1224 8.14635C19.1373 8.10029 19.2025 8.10029 19.2175 8.14635L20.044 10.6902C20.0507 10.7108 20.0699 10.7248 20.0916 10.7248L22.7664 10.7248C22.8148 10.7248 22.835 10.7868 22.7958 10.8152L20.6318 12.3875C20.6143 12.4002 20.607 12.4228 20.6137 12.4434L21.4402 14.9872C21.4552 15.0333 21.4025 15.0716 21.3633 15.0432L19.1993 13.4709C19.1818 13.4582 19.1581 13.4582 19.1405 13.4709L16.9766 15.0432C16.9374 15.0716 16.8847 15.0333 16.8996 14.9872L17.7262 12.4434C17.7329 12.4228 17.7255 12.4002 17.708 12.3875L15.5441 10.8152C15.5049 10.7868 15.525 10.7248 15.5734 10.7248L18.2483 10.7248C18.2699 10.7248 18.2891 10.7108 18.2958 10.6902L19.1224 8.14635Z" stroke="white" stroke-width="1.2"/>
</svg>
