<svg width="38" height="38" viewBox="0 0 38 38" fill="none" xmlns="http://www.w3.org/2000/svg">
<rect width="38" height="38" rx="8" fill="#01CD74"/>
<rect x="0.5" y="0.5" width="37" height="37" rx="7.5" stroke="white" stroke-opacity="0.2"/>
<path d="M10.875 12C10.875 14.826 13.174 17.125 16 17.125C18.826 17.125 21.125 14.826 21.125 12C21.125 9.17396 18.826 6.875 16 6.875C13.174 6.875 10.875 9.17396 10.875 12ZM12.125 12C12.125 9.86304 13.863 8.125 16 8.125C18.137 8.125 19.875 9.86304 19.875 12C19.875 14.137 18.137 15.875 16 15.875C13.863 15.875 12.125 14.137 12.125 12Z" fill="white" stroke="white" stroke-width="0.25"/>
<path d="M7.5 28.125H13.5C13.845 28.125 14.125 27.845 14.125 27.5C14.125 27.155 13.845 26.875 13.5 26.875H8.125V23.5C8.125 21.639 9.63904 20.125 11.5 20.125H20.5C21.4192 20.125 22.3041 20.5032 22.9262 21.1599C23.1634 21.4108 23.5597 21.4225 23.8101 21.1836C24.0612 20.946 24.0711 20.5499 23.8336 20.2999C22.9748 19.3938 21.7609 18.875 20.5 18.875H11.5C8.94996 18.875 6.875 20.95 6.875 23.5V27.5C6.875 27.845 7.15496 28.125 7.5 28.125Z" fill="white" stroke="white" stroke-width="0.25"/>
<path d="M21.4563 29.015L20.0588 26.2201L20.0587 26.2198C19.9525 26.0088 19.7364 25.875 19.5 25.875H16.5C16.155 25.875 15.875 26.155 15.875 26.5C15.875 26.845 16.155 27.125 16.5 27.125H19.1137L20.9412 30.7799C21.0475 30.9925 21.2639 31.125 21.5 31.125H21.5H21.5001H21.5001H21.5001H21.5001H21.5002H21.5002H21.5002H21.5003H21.5003H21.5003H21.5004H21.5004H21.5004H21.5004H21.5005H21.5005H21.5005H21.5006H21.5006H21.5006H21.5006H21.5007H21.5007H21.5007H21.5008H21.5008H21.5008H21.5009H21.5009H21.5009H21.5009H21.501H21.501H21.501H21.5011H21.5011H21.5011H21.5011H21.5012H21.5012H21.5012H21.5013H21.5013H21.5013H21.5013H21.5014H21.5014H21.5014H21.5015H21.5015H21.5015H21.5016H21.5016H21.5016H21.5016H21.5017H21.5017H21.5017H21.5018H21.5018H21.5018H21.5018H21.5019H21.5019H21.5019H21.502H21.502H21.502H21.5021H21.5021H21.5021H21.5021H21.5022H21.5022H21.5022H21.5023H21.5023H21.5023H21.5023H21.5024H21.5024H21.5024H21.5025H21.5025H21.5025H21.5025H21.5026H21.5026H21.5026H21.5027H21.5027H21.5027H21.5028H21.5028H21.5028H21.5028H21.5029H21.5029H21.5029H21.503H21.503H21.503H21.503H21.5031H21.5031H21.5031H21.5032H21.5032H21.5032H21.5033H21.5033H21.5033H21.5033H21.5034H21.5034H21.5034H21.5035H21.5035H21.5035H21.5035H21.5036H21.5036H21.5036H21.5037H21.5037H21.5037H21.5038H21.5038H21.5038H21.5038H21.5039H21.5039H21.5039H21.504H21.504H21.504H21.504H21.5041H21.5041H21.5041H21.5042H21.5042H21.5042H21.5042H21.5043H21.5043H21.5043H21.5044H21.5044H21.5044H21.5045H21.5045H21.5045H21.5045H21.5046H21.5046H21.5046H21.5047H21.5047H21.5047H21.5047H21.5048H21.5048H21.5048H21.5049H21.5049H21.5049H21.505H21.505H21.505H21.505H21.5051H21.5051H21.5051H21.5052H21.5052H21.5052H21.5052H21.5053H21.5053H21.5053H21.5054H21.5054H21.5054H21.5054H21.5055H21.5055H21.5055H21.5056H21.5056H21.5056H21.5057H21.5057H21.5057H21.5057H21.5058H21.5058H21.5058H21.5059H21.5059H21.5059H21.5059H21.506H21.506H21.506H21.5061H21.5061H21.5061H21.5062H21.5062H21.5062H21.5062H21.5063H21.5063H21.5063H21.5064H21.5064H21.5064H21.5064H21.5065H21.5065H21.5065H21.5066H21.5066H21.5066H21.5067H21.5067H21.5067H21.5067H21.5068H21.5068H21.5068H21.5069H21.5069H21.5069H21.5069H21.507H21.507H21.507H21.5071H21.5071H21.5071H21.5071H21.5072H21.5072H21.5072H21.5073H21.5073H21.5073H21.5074H21.5074H21.5074H21.5074H21.5075H21.5075H21.5075H21.5076H21.5076H21.5076H21.5076H21.5077H21.5077H21.5077H21.5078H21.5078H21.5078H21.5079H21.5079H21.5079H21.5079H21.508H21.508H21.508H21.5081H21.5081H21.5081H21.5081H21.5082H21.5082H21.5082H21.5083H21.5083H21.5083H21.5084H21.5084H21.5084H21.5084H21.5085H21.5085H21.5085H21.5086H21.5086H21.5086H21.5086H21.5087H21.5087H21.5087H21.5088H21.5088H21.5088H21.5088H21.5089H21.5089H21.5089H21.509H21.509H21.509H21.5091H21.5091H21.5091H21.5091H21.5092H21.5092H21.5092H21.5093H21.5093H21.5093H21.5093H21.5094H21.5094H21.5094H21.5095H21.5095H21.5095H21.5096H21.5096H21.5096H21.5096H21.5097H21.5097H21.5097H21.5098H21.5098H21.5098H21.5098H21.5099H21.5099H21.5099H21.51H21.51H21.51H21.51H21.5101H21.5101H21.5101H21.5102H21.5102H21.5102H21.5103H21.5103H21.5103H21.5103H21.5104H21.5104H21.5104H21.5105H21.5105H21.5105H21.5105H21.5106H21.5106H21.5106H21.5107H21.5107H21.5107H21.5108H21.5108H21.5108H21.5108H21.5109H21.5109H21.5109H21.511H21.511H21.511H21.511H21.5111H21.5111H21.5111H21.5112H21.5112H21.5112H21.5113H21.5113H21.5113H21.5113H21.5114H21.5114H21.5114H21.5115H21.5115H21.5115H21.5115H21.5116H21.5116H21.5116H21.5117H21.5117H21.5117H21.5117H21.5118H21.5118H21.5118H21.5119H21.5119H21.5119H21.512H21.512H21.512H21.512H21.5121H21.5121H21.5121H21.5122H21.5122H21.5122H21.5122H21.5123H21.5123H21.5123H21.5124H21.5124H21.5124H21.5125H21.5125H21.5125H21.5125H21.5126H21.5126H21.5126H21.5127H21.5127H21.5127H21.5127H21.5128H21.5128H21.5128H21.5129H21.5129H21.5129H21.513H21.513H21.513H21.513H21.5131H21.5131H21.5131H21.5132H21.5132H21.5132H21.5132H21.5133H21.5133H21.5133H21.5134H21.5134H21.5134H21.5134H21.5135H21.5135H21.5135H21.5136H21.5136H21.5136H21.5137H21.5137H21.5137H21.5137H21.5138H21.5138H21.5138H21.5139H21.5139H21.5139H21.5139H21.514H21.514H21.514H21.5141H21.5141H21.5141H21.5142H21.5142H21.5142H21.5142H21.5143H21.5143H21.5143H21.5144H21.5144H21.5144H21.5144H21.5145H21.5145H21.5145H21.5146H21.5146H21.5146H21.5146H21.5147H21.5147H21.5147H21.5148H21.5148H21.5148H21.5149H21.5149H21.5149H21.5149H21.515H21.515V31.1251L21.5188 31.1249C21.7624 31.1174 21.9787 30.9699 22.0748 30.7464L22.0749 30.7462L24.5437 24.985L26.9412 29.7799L26.9413 29.7802C27.0475 29.9912 27.2636 30.125 27.5 30.125H30.5C30.845 30.125 31.125 29.845 31.125 29.5C31.125 29.155 30.845 28.875 30.5 28.875H27.8863L25.0588 23.2201C24.9473 22.9971 24.7183 22.8834 24.4895 22.8751L24.4895 22.8748L24.4812 22.8751C24.2376 22.8826 24.0213 23.0301 23.9252 23.2536L23.9251 23.2538L21.4563 29.015Z" fill="white" stroke="white" stroke-width="0.25"/>
</svg>
