<svg width="38" height="38" viewBox="0 0 38 38" fill="none" xmlns="http://www.w3.org/2000/svg">
<rect width="38" height="38" rx="8" fill="#01CD74"/>
<rect x="0.5" y="0.5" width="37" height="37" rx="7.5" stroke="white" stroke-opacity="0.2"/>
<path d="M20.6081 11.4297H11.6181C10.6295 11.4297 9.82812 12.2311 9.82812 13.2197V27.0397C9.82812 28.0283 10.6295 28.8297 11.6181 28.8297H20.6081C21.5967 28.8297 22.3981 28.0283 22.3981 27.0397V13.2197C22.3981 12.2311 21.5967 11.4297 20.6081 11.4297Z" stroke="white" stroke-width="1.5" stroke-miterlimit="10"/>
<path d="M15.6797 11.4496L21.3897 9.31961C22.3097 8.97961 23.3497 9.44961 23.6897 10.3696L28.5097 23.3196C28.8497 24.2396 28.3797 25.2796 27.4597 25.6196L22.1797 27.5796" stroke="white" stroke-width="1.5" stroke-miterlimit="10"/>
<path d="M12.1445 15.5713H19.8588" stroke="white" stroke-width="1.5" stroke-miterlimit="10" stroke-linecap="round"/>
<path d="M12.1445 18.1426H19.8588" stroke="white" stroke-width="1.5" stroke-miterlimit="10" stroke-linecap="round"/>
<path d="M12.1445 20.7139H19.8588" stroke="white" stroke-width="1.5" stroke-miterlimit="10" stroke-linecap="round"/>
<path d="M12.1445 23.2861L17.2874 23.2861" stroke="white" stroke-width="1.5" stroke-miterlimit="10" stroke-linecap="round"/>
</svg>
