<svg width="38" height="38" viewBox="0 0 38 38" fill="none" xmlns="http://www.w3.org/2000/svg">
<rect width="38" height="38" rx="8" fill="white" fill-opacity="0.2"/>
<rect x="0.5" y="0.5" width="37" height="37" rx="7.5" stroke="white" stroke-opacity="0.2"/>
<path d="M16.0006 8.71394C13.8588 8.71394 12.1175 10.4868 12.1175 12.6435C12.1175 14.8 13.8588 16.5729 16.0006 16.5729C18.0954 16.5729 19.7955 14.8743 19.8698 12.7824V12.7822C19.8792 12.7366 19.8839 12.69 19.8839 12.6435C19.8839 12.5974 19.8792 12.5515 19.8703 12.5063C19.7966 10.4136 18.096 8.71387 16.0006 8.71387L16.0006 8.71394ZM16.0006 10.1042C17.3803 10.1042 18.4936 11.2275 18.4936 12.6435C18.4936 14.0595 17.3803 15.1826 16.0006 15.1826C14.6211 15.1826 13.5078 14.0595 13.5078 12.6435C13.5078 11.2275 14.6211 10.1042 16.0006 10.1042ZM24.5535 13.815C22.8889 13.8152 21.5398 15.2041 21.5398 16.8805C21.5398 18.5573 22.8892 19.946 24.5537 19.946C26.1713 19.946 27.4803 18.6321 27.5537 17.0196V17.0181C27.5629 16.9729 27.5676 16.9268 27.5676 16.8805C27.5676 16.8348 27.5631 16.7892 27.5542 16.7444C27.4821 15.1307 26.1722 13.8151 24.5537 13.8149L24.5535 13.815ZM24.5537 15.2052C25.4504 15.2052 26.1776 15.9388 26.1776 16.8805C26.1776 17.8222 25.4504 18.5558 24.5537 18.5558C23.6572 18.5558 22.9301 17.8222 22.9301 16.8805C22.9301 15.939 23.6572 15.2052 24.5537 15.2052ZM15.9962 18.4726C13.6641 18.4882 11.8174 19.5626 10.6025 21.0748C9.38767 22.587 8.76434 24.5176 8.71514 26.3649V26.3832C8.71514 26.7495 8.68919 27.4722 9.1192 28.155C9.54921 28.8378 10.4504 29.3318 11.7867 29.3318H20.2153C20.4974 29.3318 20.7599 29.3094 21.0031 29.2683C21.1543 29.2869 21.3154 29.2974 21.4884 29.2974H27.6196C28.6334 29.2974 29.3737 28.9027 29.7214 28.3459C30.069 27.789 30.0429 27.2185 30.0429 26.9502V26.9319C30.0062 25.54 29.543 24.0903 28.63 22.9453C27.7171 21.8002 26.3128 20.9787 24.5588 20.9668H24.5494H24.5492C23.5271 20.9737 22.6193 21.2541 21.8628 21.7148C21.7194 21.4946 21.5653 21.2807 21.3999 21.0749C20.1851 19.5627 18.3382 18.4883 16.0058 18.4727H15.9966L15.9962 18.4726ZM16.0009 19.863C17.9201 19.8774 19.322 20.7088 20.3156 21.9455C21.1454 22.9785 21.6618 24.3079 21.834 25.6236C21.8372 25.6465 21.8401 25.6695 21.8428 25.6923C21.8468 25.7254 21.8508 25.7583 21.8544 25.7912C21.8602 25.846 21.8658 25.9009 21.8705 25.9554C21.8721 25.9736 21.8732 25.9917 21.8748 26.01C21.8786 26.0572 21.8819 26.1044 21.8846 26.1517C21.8857 26.1698 21.8868 26.1879 21.8877 26.2058C21.8911 26.2684 21.894 26.3311 21.8958 26.3935V26.3944C21.8958 26.4391 21.8953 26.4846 21.8942 26.53V26.5342C21.8866 26.8569 21.8481 27.1891 21.7063 27.4142C21.645 27.5115 21.5667 27.6095 21.4383 27.6943C21.3119 27.7708 21.136 27.8354 20.8776 27.8851C20.8503 27.8902 20.8235 27.8972 20.7968 27.9057C20.6346 27.9283 20.4431 27.941 20.2151 27.941H11.7866C10.7467 27.941 10.4596 27.6746 10.2954 27.4141C10.133 27.156 10.1066 26.757 10.1059 26.3937C10.1491 24.8406 10.6937 23.1812 11.6861 21.9455C12.6797 20.7087 14.0818 19.8774 16.001 19.8631L16.0009 19.863ZM24.5532 22.3574H24.5535C25.8911 22.3679 26.8496 22.9427 27.5427 23.8119C28.2347 24.6802 28.6208 25.8604 28.6515 26.9603C28.6504 27.2249 28.6249 27.476 28.5419 27.6093C28.4575 27.7442 28.334 27.9071 27.6194 27.9071H23.0191C23.3068 27.3032 23.2867 26.7055 23.2867 26.3833C23.2869 26.3773 23.2869 26.371 23.2867 26.365C23.2563 25.2172 23.0041 24.0377 22.5265 22.9461C23.0836 22.5859 23.7436 22.364 24.5533 22.3575L24.5532 22.3574Z" fill="#A5DAD8"/>
</svg>
