<svg width="26" height="25" viewBox="0 0 26 25" fill="none" xmlns="http://www.w3.org/2000/svg">
<path d="M12.2619 6.73145C13.8281 6.73145 15.3532 7.01995 16.8368 7.67947C19.0626 10.1523 18.98 13.9854 16.5483 16.335C14.1577 18.6842 10.366 18.6842 7.93445 16.335C5.54386 13.9858 5.42019 10.1939 7.64595 7.7212C9.17079 7.06139 10.6958 6.73171 12.2621 6.73171L12.2619 6.73145ZM12.2619 5.74222C8.01656 5.74222 4.14219 7.88541 0.432757 12.2544C-0.144252 12.9139 -0.144252 13.9032 0.432757 14.6036C4.10105 19.0137 8.05763 21.1158 12.2619 21.1158C13.457 21.1158 14.6111 20.9509 15.724 20.6213C15.9299 20.5802 16.095 20.4976 16.301 20.4565C16.5483 20.3739 16.7132 20.0854 16.6306 19.7969C16.5481 19.5496 16.2596 19.3847 15.9711 19.5084C15.7651 19.591 15.6414 19.591 15.4352 19.6732C14.4048 19.9617 13.3331 20.1266 12.2203 20.1266C8.30488 20.1266 4.67752 18.2307 1.17476 13.9854C0.92739 13.6969 0.96879 13.2025 1.17476 12.955C2.6998 11.1415 4.22464 9.78149 5.74968 8.79227C4.47224 11.4711 5.00812 14.8506 7.27498 17.0352C10.0364 19.7554 14.4878 19.7554 17.2905 17.0352C19.5574 14.8094 20.0932 11.4299 18.7741 8.6684C20.3403 9.65763 21.8654 11.059 23.3902 12.8723C23.5962 13.1197 23.5962 13.6553 23.3902 13.9027C23.0192 14.356 22.6073 14.8094 22.2362 15.2215C22.0302 15.4275 22.0714 15.7574 22.2362 15.9222C22.4421 16.1282 22.772 16.087 22.9369 15.9222C23.3491 15.51 23.7612 15.0155 24.1734 14.562C24.7504 13.9024 24.7504 12.9132 24.1734 12.2128C20.4229 7.84404 16.5075 5.74219 12.2622 5.74219L12.2619 5.74222Z" fill="#424242"/>
<path d="M12.262 8.66708C14.0756 8.66708 15.5593 10.1507 15.5593 11.9643C15.5593 13.7779 14.0756 15.2204 12.262 15.2204C10.4485 15.2204 8.96481 13.7779 8.96481 11.9643C8.96481 10.1096 10.4485 8.66708 12.262 8.66708ZM12.262 7.63672C9.91284 7.63672 7.97559 9.57397 7.97559 11.9232C7.97559 14.2724 9.91284 16.2096 12.262 16.2096C14.6526 16.2096 16.5485 14.3138 16.5485 11.9232C16.5485 9.57371 14.6526 7.63672 12.262 7.63672Z" fill="#424242"/>
<path d="M20.9996 17.4035C22.5246 17.4035 23.761 18.6401 23.761 20.1237C23.761 21.6488 22.5244 22.8439 20.9996 22.8439C19.4746 22.8439 18.2382 21.6488 18.2382 20.1237C18.2382 18.6401 19.4745 17.4035 20.9996 17.4035V17.4035ZM20.9996 16.332C18.8976 16.332 17.1665 18.0631 17.1665 20.1651C17.1665 22.2672 18.8976 23.9982 20.9996 23.9982C23.1017 23.9982 24.8327 22.2672 24.8327 20.1651C24.8327 18.0219 23.1017 16.332 20.9996 16.332Z" fill="#424242"/>
<path d="M19.4748 19.5898C19.1863 19.5898 18.939 19.8372 18.939 20.1257C18.939 20.4142 19.1863 20.6616 19.4748 20.6616H22.4836C22.7721 20.6616 23.0194 20.4142 23.0194 20.1257C23.0194 19.8372 22.7721 19.5898 22.4836 19.5898H19.4748Z" fill="#424242"/>
<path d="M12.2618 9.61719C12.0144 9.61719 11.8496 9.82315 11.8496 10.0294C11.8496 10.2767 12.0556 10.4416 12.2618 10.4416C12.7151 10.4416 13.1685 10.6475 13.4158 11.0186C13.7043 11.3896 13.7869 11.8429 13.6632 12.2963C13.6221 12.5436 13.7457 12.7496 13.9517 12.8321C14.1991 12.8733 14.405 12.7496 14.4876 12.5436C14.6935 11.843 14.5287 11.1011 14.0754 10.5241C13.6632 9.94685 13.0036 9.61723 12.2618 9.61723V9.61719Z" fill="#424242"/>
<path d="M12.6737 1C12.3852 1 12.1792 1.20597 12.1792 1.49447V4.091C12.1792 4.37951 12.4266 4.58547 12.6737 4.58547C12.9622 4.58547 13.1681 4.3795 13.1681 4.091V1.49447C13.1681 1.24736 12.9208 1.0414 12.6737 1V1Z" fill="#424242"/>
<path d="M8.34701 1.45486C8.0585 1.5374 7.93482 1.78451 7.97596 2.07301L8.63551 4.54588C8.71806 4.83439 8.96516 4.99921 9.25366 4.91693C9.54217 4.83439 9.66585 4.58728 9.62471 4.29878L8.96516 1.82591C8.88288 1.53715 8.63551 1.37232 8.34701 1.45486V1.45486Z" fill="#424242"/>
<path d="M4.71888 2.68728C4.47152 2.81097 4.38923 3.14062 4.51292 3.38797L5.79062 5.61376C5.9143 5.86113 6.24395 5.94341 6.4913 5.77858C6.73867 5.6549 6.82095 5.32525 6.65613 5.0779L5.41956 2.85211C5.25474 2.605 4.96623 2.52246 4.71888 2.68728H4.71888Z" fill="#424242"/>
<path d="M1.38104 4.95526C1.17507 5.16122 1.17507 5.49112 1.38104 5.65594L3.19462 7.46952C3.40058 7.67549 3.73049 7.67549 3.8953 7.46952C4.10127 7.26356 4.10127 6.93365 3.8953 6.76884L2.08172 4.95526C1.8755 4.74929 1.58699 4.74929 1.38104 4.95526Z" fill="#424242"/>
<path d="M16.9611 1.45484C16.6726 1.3723 16.4252 1.53739 16.3429 1.82589L15.6834 4.29876C15.6008 4.58727 15.7659 4.83463 16.0544 4.91691C16.3429 4.99945 16.5903 4.83437 16.6726 4.54586L17.3321 2.07299C17.4144 1.78449 17.2496 1.53713 16.9611 1.45484V1.45484Z" fill="#424242"/>
<path d="M20.5878 2.68962C20.3404 2.56594 20.0519 2.64848 19.8871 2.89559L18.6094 5.08018C18.4857 5.32755 18.5682 5.61605 18.7742 5.78087C19.0216 5.90455 19.3101 5.82201 19.4749 5.61604L20.7526 3.39025C20.9177 3.14288 20.8351 2.81324 20.5878 2.68956V2.68962Z" fill="#424242"/>
<path d="M23.2259 4.95526L21.4123 6.76884C21.2063 6.9748 21.2063 7.3047 21.4123 7.46952C21.6183 7.67549 21.9482 7.67549 22.113 7.46952L23.9266 5.65594C24.1325 5.44997 24.1325 5.12007 23.9266 4.95526C23.7615 4.74929 23.4318 4.74929 23.2259 4.95526Z" fill="#424242"/>
</svg>
