<svg width="28" height="28" viewBox="0 0 28 28" fill="none" xmlns="http://www.w3.org/2000/svg">
<mask id="path-1-outside-1" maskUnits="userSpaceOnUse" x="0" y="4" width="23" height="23" fill="black">
<rect fill="white" y="4" width="23" height="23"/>
<path d="M21.3284 20.3786L18.6696 17.7304C18.2423 17.288 17.7366 17.0554 17.2062 17.0554C16.6775 17.0554 16.1657 17.2872 15.7251 17.726L14.0692 19.3753L13.9811 19.3246C13.8396 19.2435 13.694 19.1708 13.5533 19.1008C13.3826 19.0157 13.2065 18.9263 13.0517 18.828C11.6011 17.9106 10.281 16.7139 9.01615 15.1695C8.36538 14.3487 7.94245 13.6767 7.64339 12.988L7.60579 12.9012L7.67657 12.8378C8.09419 12.4615 8.48616 12.0658 8.85157 11.693C8.98473 11.5564 9.12453 11.4172 9.25991 11.2824C9.71469 10.829 9.95535 10.313 9.95535 9.78955C9.95535 9.26213 9.71513 8.74616 9.26035 8.29717L7.94157 6.98368C7.79071 6.83386 7.65091 6.69022 7.50315 6.53865L7.489 6.52411C7.2041 6.23198 6.89884 5.9231 6.5958 5.64331C6.16402 5.22163 5.65748 5 5.12882 5C4.6037 5 4.09096 5.22339 3.64547 5.64639L1.99313 7.29211C1.41447 7.86888 1.08622 8.57035 1.01853 9.37757C0.935801 10.4113 1.12869 11.5133 1.6255 12.8457C2.39526 14.9268 3.55655 16.8562 5.27923 18.9183C7.36778 21.4048 9.88766 23.3708 12.7694 24.7619C13.8666 25.28 15.3331 25.8881 16.9359 25.9916L16.9452 25.9921C17.0421 25.996 17.1336 26 17.2283 26C18.2901 26 19.1435 25.6347 19.838 24.8839L19.8513 24.8672C20.0946 24.5746 20.3649 24.3133 20.6511 24.0366L20.7148 23.9753C20.9639 23.7374 21.1608 23.5431 21.3351 23.3616C22.2243 22.4389 22.2212 21.2682 21.3284 20.3786ZM20.7392 22.8134C20.5454 23.0201 20.3401 23.2192 20.1468 23.4034L20.0968 23.4514C19.8057 23.7334 19.504 24.0247 19.2324 24.3486L19.2279 24.3538C18.6918 24.9297 18.0574 25.1981 17.2327 25.1981C17.1562 25.1981 17.0766 25.1937 16.9947 25.1893C15.522 25.095 14.1568 24.5252 13.1322 24.0397C10.3562 22.7015 7.92874 20.8073 5.91628 18.409C4.25642 16.4196 3.13893 14.5659 2.3988 12.576C1.94004 11.3564 1.76043 10.3628 1.83342 9.44851V9.44719C1.8896 8.82503 2.13248 8.30862 2.57532 7.86756L4.22103 6.22845C4.50239 5.95747 4.81605 5.81515 5.12882 5.81515C5.43805 5.81515 5.74508 5.96055 6.01759 6.23594C6.27595 6.47432 6.51927 6.72063 6.77718 6.98147L6.89575 7.10132C6.97184 7.17975 7.04837 7.25686 7.12579 7.33485C7.20233 7.4124 7.2793 7.49039 7.35628 7.56926L8.67329 8.88099C8.975 9.18149 9.12807 9.48993 9.12807 9.79836C9.12807 10.1068 8.975 10.4152 8.67329 10.7157C8.60516 10.7836 8.53703 10.8528 8.4689 10.9215C8.39989 10.9916 8.33088 11.0612 8.26186 11.1299L8.16984 11.2225C7.79115 11.6045 7.43281 11.9653 7.0382 12.3139L7.01873 12.3328C6.70817 12.6421 6.74445 12.921 6.82983 13.1757C6.83071 13.1797 6.83204 13.1828 6.83337 13.1859C6.83602 13.1925 6.83868 13.1986 6.84133 13.2057C7.18242 14.0213 7.65534 14.7866 8.37379 15.6864C9.68637 17.2986 11.0706 18.5548 12.6057 19.526C12.7592 19.6255 12.9229 19.7079 13.0813 19.7877C13.114 19.8044 13.1468 19.8207 13.1791 19.837C13.3432 19.919 13.5175 20.0071 13.671 20.1041C13.6794 20.1085 13.6874 20.1133 13.6954 20.1177C13.7011 20.1208 13.7069 20.1239 13.7131 20.1274C13.8396 20.1922 13.9604 20.2235 14.0829 20.2235C14.3864 20.2235 14.5832 20.0269 14.6483 19.9626L16.3028 18.3147C16.5855 18.0327 16.8983 17.8838 17.2062 17.8838C17.6181 17.8838 17.9331 18.1539 18.0848 18.3165L20.7507 20.9672C21.3324 21.5466 21.3284 22.2023 20.7392 22.8134Z"/>
</mask>
<path d="M21.3284 20.3786L18.6696 17.7304C18.2423 17.288 17.7366 17.0554 17.2062 17.0554C16.6775 17.0554 16.1657 17.2872 15.7251 17.726L14.0692 19.3753L13.9811 19.3246C13.8396 19.2435 13.694 19.1708 13.5533 19.1008C13.3826 19.0157 13.2065 18.9263 13.0517 18.828C11.6011 17.9106 10.281 16.7139 9.01615 15.1695C8.36538 14.3487 7.94245 13.6767 7.64339 12.988L7.60579 12.9012L7.67657 12.8378C8.09419 12.4615 8.48616 12.0658 8.85157 11.693C8.98473 11.5564 9.12453 11.4172 9.25991 11.2824C9.71469 10.829 9.95535 10.313 9.95535 9.78955C9.95535 9.26213 9.71513 8.74616 9.26035 8.29717L7.94157 6.98368C7.79071 6.83386 7.65091 6.69022 7.50315 6.53865L7.489 6.52411C7.2041 6.23198 6.89884 5.9231 6.5958 5.64331C6.16402 5.22163 5.65748 5 5.12882 5C4.6037 5 4.09096 5.22339 3.64547 5.64639L1.99313 7.29211C1.41447 7.86888 1.08622 8.57035 1.01853 9.37757C0.935801 10.4113 1.12869 11.5133 1.6255 12.8457C2.39526 14.9268 3.55655 16.8562 5.27923 18.9183C7.36778 21.4048 9.88766 23.3708 12.7694 24.7619C13.8666 25.28 15.3331 25.8881 16.9359 25.9916L16.9452 25.9921C17.0421 25.996 17.1336 26 17.2283 26C18.2901 26 19.1435 25.6347 19.838 24.8839L19.8513 24.8672C20.0946 24.5746 20.3649 24.3133 20.6511 24.0366L20.7148 23.9753C20.9639 23.7374 21.1608 23.5431 21.3351 23.3616C22.2243 22.4389 22.2212 21.2682 21.3284 20.3786ZM20.7392 22.8134C20.5454 23.0201 20.3401 23.2192 20.1468 23.4034L20.0968 23.4514C19.8057 23.7334 19.504 24.0247 19.2324 24.3486L19.2279 24.3538C18.6918 24.9297 18.0574 25.1981 17.2327 25.1981C17.1562 25.1981 17.0766 25.1937 16.9947 25.1893C15.522 25.095 14.1568 24.5252 13.1322 24.0397C10.3562 22.7015 7.92874 20.8073 5.91628 18.409C4.25642 16.4196 3.13893 14.5659 2.3988 12.576C1.94004 11.3564 1.76043 10.3628 1.83342 9.44851V9.44719C1.8896 8.82503 2.13248 8.30862 2.57532 7.86756L4.22103 6.22845C4.50239 5.95747 4.81605 5.81515 5.12882 5.81515C5.43805 5.81515 5.74508 5.96055 6.01759 6.23594C6.27595 6.47432 6.51927 6.72063 6.77718 6.98147L6.89575 7.10132C6.97184 7.17975 7.04837 7.25686 7.12579 7.33485C7.20233 7.4124 7.2793 7.49039 7.35628 7.56926L8.67329 8.88099C8.975 9.18149 9.12807 9.48993 9.12807 9.79836C9.12807 10.1068 8.975 10.4152 8.67329 10.7157C8.60516 10.7836 8.53703 10.8528 8.4689 10.9215C8.39989 10.9916 8.33088 11.0612 8.26186 11.1299L8.16984 11.2225C7.79115 11.6045 7.43281 11.9653 7.0382 12.3139L7.01873 12.3328C6.70817 12.6421 6.74445 12.921 6.82983 13.1757C6.83071 13.1797 6.83204 13.1828 6.83337 13.1859C6.83602 13.1925 6.83868 13.1986 6.84133 13.2057C7.18242 14.0213 7.65534 14.7866 8.37379 15.6864C9.68637 17.2986 11.0706 18.5548 12.6057 19.526C12.7592 19.6255 12.9229 19.7079 13.0813 19.7877C13.114 19.8044 13.1468 19.8207 13.1791 19.837C13.3432 19.919 13.5175 20.0071 13.671 20.1041C13.6794 20.1085 13.6874 20.1133 13.6954 20.1177C13.7011 20.1208 13.7069 20.1239 13.7131 20.1274C13.8396 20.1922 13.9604 20.2235 14.0829 20.2235C14.3864 20.2235 14.5832 20.0269 14.6483 19.9626L16.3028 18.3147C16.5855 18.0327 16.8983 17.8838 17.2062 17.8838C17.6181 17.8838 17.9331 18.1539 18.0848 18.3165L20.7507 20.9672C21.3324 21.5466 21.3284 22.2023 20.7392 22.8134Z" fill="#F44336"/>
<path d="M21.3284 20.3786L21.4696 20.2369L21.4696 20.2369L21.3284 20.3786ZM18.6696 17.7304L18.5258 17.8694L18.5285 17.8721L18.6696 17.7304ZM14.0692 19.3753L13.9694 19.5486L14.102 19.6249L14.2103 19.517L14.0692 19.3753ZM13.9811 19.3246L14.0809 19.1513L14.0805 19.151L13.9811 19.3246ZM13.5533 19.1008L13.4642 19.2798L13.5533 19.1008ZM13.0517 18.828L13.1588 18.6591L13.1586 18.659L13.0517 18.828ZM9.01615 15.1695L8.8594 15.2938L8.86141 15.2963L9.01615 15.1695ZM7.64339 12.988L7.45987 13.0675L7.45994 13.0677L7.64339 12.988ZM7.60579 12.9012L7.47229 12.7523L7.36499 12.8485L7.42227 12.9807L7.60579 12.9012ZM7.67657 12.8378L7.81007 12.9867L7.81045 12.9864L7.67657 12.8378ZM8.85157 11.693L8.9944 11.833L8.99478 11.8326L8.85157 11.693ZM9.25991 11.2824L9.40104 11.4241L9.40111 11.424L9.25991 11.2824ZM9.26035 8.29717L9.11921 8.43887L9.11983 8.43949L9.26035 8.29717ZM7.94157 6.98368L8.08271 6.84197L8.0825 6.84176L7.94157 6.98368ZM7.50315 6.53865L7.35986 6.67817L7.35994 6.67826L7.50315 6.53865ZM7.489 6.52411L7.6323 6.38459L7.63218 6.38447L7.489 6.52411ZM6.5958 5.64331L6.45601 5.78645L6.46013 5.79025L6.5958 5.64331ZM3.64547 5.64639L3.50772 5.50131L3.50433 5.50469L3.64547 5.64639ZM1.99313 7.29211L1.85199 7.15041L1.85193 7.15046L1.99313 7.29211ZM1.01853 9.37757L0.819227 9.36086L0.819167 9.36162L1.01853 9.37757ZM1.6255 12.8457L1.81307 12.7763L1.81289 12.7758L1.6255 12.8457ZM5.27923 18.9183L5.12575 19.0466L5.12609 19.047L5.27923 18.9183ZM12.7694 24.7619L12.6825 24.942L12.684 24.9427L12.7694 24.7619ZM16.9359 25.9916L16.923 26.1912L16.9264 26.1914L16.9359 25.9916ZM16.9452 25.9921L16.9357 26.1918L16.937 26.1919L16.9452 25.9921ZM19.838 24.8839L19.9848 25.0197L19.99 25.0141L19.9947 25.0081L19.838 24.8839ZM19.8513 24.8672L19.6975 24.7392L19.6945 24.7429L19.8513 24.8672ZM20.6511 24.0366L20.5125 23.8924L20.5121 23.8928L20.6511 24.0366ZM20.7148 23.9753L20.5767 23.8307L20.5762 23.8312L20.7148 23.9753ZM21.3351 23.3616L21.1911 23.2228L21.1908 23.223L21.3351 23.3616ZM20.7392 22.8134L20.5952 22.6746L20.5933 22.6766L20.7392 22.8134ZM20.1468 23.4034L20.0088 23.2586L20.0082 23.2592L20.1468 23.4034ZM20.0968 23.4514L19.9582 23.3072L19.9577 23.3078L20.0968 23.4514ZM19.2324 24.3486L19.0791 24.22L19.079 24.2202L19.2324 24.3486ZM19.2279 24.3538L19.3745 24.4903L19.3813 24.4822L19.2279 24.3538ZM16.9947 25.1893L16.982 25.3889L16.984 25.389L16.9947 25.1893ZM13.1322 24.0397L13.0453 24.2198L13.0465 24.2204L13.1322 24.0397ZM5.91628 18.409L5.76272 18.5371L5.76308 18.5375L5.91628 18.409ZM2.3988 12.576L2.58626 12.5063L2.586 12.5056L2.3988 12.576ZM1.83342 9.44851L2.03279 9.46443L2.03342 9.45648V9.44851H1.83342ZM1.83342 9.44719L1.63423 9.4292L1.63342 9.43818V9.44719H1.83342ZM2.57532 7.86756L2.71645 8.00927L2.71645 8.00927L2.57532 7.86756ZM4.22103 6.22845L4.08227 6.08438L4.07989 6.08675L4.22103 6.22845ZM6.01759 6.23594L5.87528 6.37677L5.88197 6.38293L6.01759 6.23594ZM6.77718 6.98147L6.63497 7.12209L6.635 7.12213L6.77718 6.98147ZM6.89575 7.10132L7.0393 6.96205L7.03793 6.96067L6.89575 7.10132ZM7.12579 7.33485L7.26814 7.19436L7.26773 7.19395L7.12579 7.33485ZM7.35628 7.56926L7.21313 7.70897L7.21514 7.71097L7.35628 7.56926ZM8.67329 8.88099L8.81443 8.73929L8.81443 8.73929L8.67329 8.88099ZM8.4689 10.9215L8.32685 10.7807L8.32642 10.7812L8.4689 10.9215ZM8.26186 11.1299L8.12072 10.9882L8.12005 10.9889L8.26186 11.1299ZM8.16984 11.2225L8.02803 11.0814L8.02781 11.0816L8.16984 11.2225ZM7.0382 12.3139L6.90565 12.1638L6.8987 12.1706L7.0382 12.3139ZM7.01873 12.3328L6.87923 12.1895L6.8776 12.1911L7.01873 12.3328ZM6.82983 13.1757L7.02503 13.1322L7.02276 13.122L7.01946 13.1122L6.82983 13.1757ZM6.83337 13.1859L7.01902 13.1113L7.01708 13.1068L6.83337 13.1859ZM6.84133 13.2057L6.65404 13.2762L6.65682 13.2829L6.84133 13.2057ZM8.37379 15.6864L8.21749 15.8112L8.21869 15.8127L8.37379 15.6864ZM12.6057 19.526L12.7146 19.3582L12.7127 19.3569L12.6057 19.526ZM13.0813 19.7877L13.1724 19.6096L13.1713 19.6091L13.0813 19.7877ZM13.1791 19.837L13.089 20.0156L13.0897 20.016L13.1791 19.837ZM13.671 20.1041L13.5642 20.2732L13.571 20.2775L13.5782 20.2812L13.671 20.1041ZM13.6954 20.1177L13.5985 20.2927L13.6008 20.294L13.6954 20.1177ZM13.7131 20.1274L13.614 20.3014L13.6219 20.3054L13.7131 20.1274ZM14.6483 19.9626L14.7889 20.1048L14.7894 20.1043L14.6483 19.9626ZM16.3028 18.3147L16.444 18.4564L16.4441 18.4563L16.3028 18.3147ZM18.0848 18.3165L17.9385 18.453L17.9438 18.4583L18.0848 18.3165ZM20.7507 20.9672L20.8918 20.8255L20.8917 20.8254L20.7507 20.9672ZM21.4696 20.2369L18.8108 17.5887L18.5285 17.8721L21.1873 20.5203L21.4696 20.2369ZM18.8135 17.5915C18.3548 17.1167 17.7994 16.8554 17.2062 16.8554V17.2554C17.6739 17.2554 18.1298 17.4594 18.5258 17.8694L18.8135 17.5915ZM17.2062 16.8554C16.6154 16.8554 16.0549 17.1152 15.5839 17.5843L15.8662 17.8677C16.2765 17.4591 16.7397 17.2554 17.2062 17.2554V16.8554ZM15.5839 17.5843L13.928 19.2336L14.2103 19.517L15.8662 17.8677L15.5839 17.5843ZM14.1689 19.2019L14.0809 19.1513L13.8814 19.4979L13.9694 19.5486L14.1689 19.2019ZM14.0805 19.151C13.9332 19.0666 13.7826 18.9915 13.6425 18.9217L13.4642 19.2798C13.6055 19.3501 13.746 19.4204 13.8818 19.4981L14.0805 19.151ZM13.6425 18.9217C13.4712 18.8364 13.3038 18.7511 13.1588 18.6591L12.9445 18.9969C13.1092 19.1014 13.294 19.195 13.4642 19.2798L13.6425 18.9217ZM13.1586 18.659C11.7287 17.7547 10.4243 16.5733 9.17088 15.0428L8.86141 15.2963C10.1376 16.8546 11.4734 18.0665 12.9448 18.997L13.1586 18.659ZM9.17287 15.0453C8.52899 14.2331 8.11684 13.5762 7.82684 12.9084L7.45994 13.0677C7.76806 13.7772 8.20177 14.4642 8.85942 15.2938L9.17287 15.0453ZM7.82691 12.9085L7.78931 12.8217L7.42227 12.9807L7.45987 13.0675L7.82691 12.9085ZM7.73929 13.0501L7.81007 12.9867L7.54308 12.6888L7.47229 12.7523L7.73929 13.0501ZM7.81045 12.9864C8.23312 12.6055 8.62889 12.2059 8.9944 11.833L8.70875 11.553C8.34342 11.9257 7.95527 12.3174 7.5427 12.6892L7.81045 12.9864ZM8.99478 11.8326C9.12674 11.6973 9.26548 11.5591 9.40104 11.4241L9.11877 11.1407C8.98359 11.2753 8.84273 11.4156 8.70837 11.5534L8.99478 11.8326ZM9.40111 11.424C9.88437 10.9422 10.1553 10.3778 10.1553 9.78955H9.75535C9.75535 10.2482 9.545 10.7157 9.1187 11.1407L9.40111 11.424ZM10.1553 9.78955C10.1553 9.19766 9.88511 8.63293 9.40086 8.15484L9.11983 8.43949C9.54515 8.85939 9.75535 9.32659 9.75535 9.78955H10.1553ZM9.40148 8.15546L8.0827 6.84197L7.80043 7.12538L9.11921 8.43887L9.40148 8.15546ZM8.0825 6.84176C7.93301 6.69331 7.79439 6.55089 7.64637 6.39904L7.35994 6.67826C7.50744 6.82956 7.64841 6.97442 7.80064 7.12559L8.0825 6.84176ZM7.64645 6.39913L7.6323 6.38459L7.3457 6.66363L7.35986 6.67817L7.64645 6.39913ZM7.63218 6.38447C7.34705 6.09211 7.03867 5.77999 6.73147 5.49636L6.46013 5.79025C6.75902 6.06621 7.06114 6.37184 7.34582 6.66375L7.63218 6.38447ZM6.73554 5.50022C6.27199 5.04752 5.71703 4.8 5.12882 4.8V5.2C5.59794 5.2 6.05606 5.39575 6.45606 5.78639L6.73554 5.50022ZM5.12882 4.8C4.54384 4.8 3.98367 5.04948 3.50776 5.50136L3.78318 5.79143C4.19825 5.39731 4.66355 5.2 5.12882 5.2V4.8ZM3.50433 5.50469L1.85199 7.15041L2.13426 7.43382L3.78661 5.7881L3.50433 5.50469ZM1.85193 7.15046C1.24012 7.76029 0.89092 8.50587 0.819229 9.36086L1.21783 9.39428C1.28151 8.63483 1.58883 7.97748 2.13432 7.43376L1.85193 7.15046ZM0.819167 9.36162C0.733409 10.4332 0.93465 11.5653 1.4381 12.9156L1.81289 12.7758C1.32272 11.4612 1.13819 10.3894 1.21789 9.39353L0.819167 9.36162ZM1.43792 12.9151C2.21708 15.0216 3.39143 16.9705 5.12575 19.0466L5.43272 18.7901C3.72167 16.7419 2.57344 14.832 1.81307 12.7763L1.43792 12.9151ZM5.12609 19.047C7.23254 21.5547 9.77487 23.5385 12.6825 24.942L12.8564 24.5817C10.0005 23.2032 7.50302 21.2548 5.43238 18.7897L5.12609 19.047ZM12.684 24.9427C13.7861 25.4632 15.2809 26.0851 16.923 26.1912L16.9488 25.792C15.3853 25.691 13.947 25.0969 12.8548 24.581L12.684 24.9427ZM16.9264 26.1914L16.9357 26.1918L16.9547 25.7923L16.9454 25.7919L16.9264 26.1914ZM16.937 26.1919C17.0328 26.1958 17.1287 26.2 17.2283 26.2V25.8C17.1386 25.8 17.0514 25.7962 16.9534 25.7922L16.937 26.1919ZM17.2283 26.2C18.3435 26.2 19.2509 25.8131 19.9848 25.0197L19.6912 24.7481C19.036 25.4563 18.2367 25.8 17.2283 25.8V26.2ZM19.9947 25.0081L20.008 24.9914L19.6945 24.7429L19.6813 24.7597L19.9947 25.0081ZM20.0051 24.995C20.2402 24.7122 20.5026 24.4584 20.7901 24.1804L20.5121 23.8928C20.2273 24.1682 19.9489 24.4369 19.6975 24.7393L20.0051 24.995ZM20.7897 24.1808L20.8535 24.1195L20.5762 23.8312L20.5125 23.8924L20.7897 24.1808ZM20.853 24.12C21.1032 23.8809 21.3023 23.6844 21.4793 23.5001L21.1908 23.223C21.0192 23.4018 20.8246 23.5939 20.5767 23.8307L20.853 24.12ZM21.4791 23.5003C21.9535 23.0081 22.2014 22.4366 22.2 21.8572C22.1986 21.2774 21.9478 20.7134 21.4696 20.2369L21.1873 20.5202C21.6019 20.9334 21.7989 21.3995 21.8 21.8581C21.8011 22.3171 21.6058 22.7924 21.1911 23.2228L21.4791 23.5003ZM20.5933 22.6766C20.4035 22.879 20.2015 23.075 20.0088 23.2586L20.2848 23.5482C20.4787 23.3635 20.6873 23.1611 20.8851 22.9502L20.5933 22.6766ZM20.0082 23.2592L19.9582 23.3072L20.2354 23.5957L20.2854 23.5476L20.0082 23.2592ZM19.9577 23.3078C19.668 23.5884 19.3586 23.8869 19.0791 24.22L19.3856 24.4771C19.6494 24.1625 19.9435 23.8784 20.236 23.5951L19.9577 23.3078ZM19.079 24.2202L19.0746 24.2255L19.3813 24.4822L19.3858 24.4769L19.079 24.2202ZM19.0816 24.2176C18.5852 24.7506 18.0049 24.9981 17.2327 24.9981V25.3981C18.1099 25.3981 18.7983 25.1088 19.3743 24.4901L19.0816 24.2176ZM17.2327 24.9981C17.1626 24.9981 17.0887 24.994 17.0055 24.9895L16.984 25.389C17.0644 25.3933 17.1498 25.3981 17.2327 25.3981V24.9981ZM17.0075 24.9897C15.5746 24.8979 14.238 24.3424 13.2178 23.8589L13.0465 24.2204C14.0755 24.7081 15.4694 25.292 16.982 25.3888L17.0075 24.9897ZM13.219 23.8595C10.4689 22.5339 8.06403 20.6574 6.06949 18.2804L5.76308 18.5375C7.79344 20.9572 10.2434 22.8692 13.0453 24.2198L13.219 23.8595ZM6.06985 18.2809C4.42144 16.3052 3.31696 14.4708 2.58625 12.5063L2.21135 12.6458C2.96089 14.6609 4.0914 16.534 5.76272 18.5371L6.06985 18.2809ZM2.586 12.5056C2.13353 11.3027 1.9629 10.3397 2.03279 9.46443L1.63405 9.43259C1.55795 10.3858 1.74654 11.4101 2.21161 12.6465L2.586 12.5056ZM2.03342 9.44851V9.44719H1.63342V9.44851H2.03342ZM2.03261 9.46518C2.08456 8.88993 2.3068 8.41728 2.71645 8.00927L2.43418 7.72586C1.95816 8.19997 1.69465 8.76013 1.63423 9.4292L2.03261 9.46518ZM2.71645 8.00927L4.36216 6.37016L4.07989 6.08675L2.43418 7.72586L2.71645 8.00927ZM4.35976 6.37251C4.61338 6.12825 4.87965 6.01515 5.12882 6.01515V5.61515C4.75245 5.61515 4.3914 5.78669 4.08229 6.0844L4.35976 6.37251ZM5.12882 6.01515C5.37186 6.01515 5.63042 6.12902 5.87543 6.37662L6.15975 6.09526C5.85974 5.79208 5.50425 5.61515 5.12882 5.61515V6.01515ZM5.88197 6.38293C6.13637 6.61766 6.37644 6.86063 6.63497 7.12209L6.9194 6.84085C6.6621 6.58062 6.41553 6.33098 6.15321 6.08895L5.88197 6.38293ZM6.635 7.12213L6.75356 7.24198L7.03793 6.96067L6.91937 6.84082L6.635 7.12213ZM6.7522 7.24059C6.82922 7.31997 6.90656 7.39789 6.98385 7.47575L7.26773 7.19395C7.19019 7.11584 7.11446 7.03953 7.03929 6.96206L6.7522 7.24059ZM6.98344 7.47534C7.06005 7.55296 7.13663 7.63055 7.21315 7.70895L7.49941 7.42957C7.42198 7.35023 7.34461 7.27184 7.26814 7.19436L6.98344 7.47534ZM7.21514 7.71097L8.53215 9.0227L8.81443 8.73929L7.49742 7.42756L7.21514 7.71097ZM8.53215 9.0227C8.8109 9.30033 8.92807 9.5608 8.92807 9.79836H9.32807C9.32807 9.41906 9.1391 9.06266 8.81443 8.73929L8.53215 9.0227ZM8.92807 9.79836C8.92807 10.0359 8.8109 10.2964 8.53215 10.574L8.81443 10.8574C9.1391 10.5341 9.32807 10.1777 9.32807 9.79836H8.92807ZM8.53215 10.574C8.46341 10.6425 8.39438 10.7126 8.32685 10.7807L8.61095 11.0623C8.67969 10.993 8.74691 10.9247 8.81443 10.8574L8.53215 10.574ZM8.32642 10.7812C8.25769 10.8509 8.18915 10.9201 8.12072 10.9882L8.403 11.2716C8.4726 11.2023 8.54209 11.1322 8.61138 11.0619L8.32642 10.7812ZM8.12005 10.9889L8.02803 11.0814L8.31166 11.3635L8.40368 11.2709L8.12005 10.9889ZM8.02781 11.0816C7.64851 11.4643 7.29468 11.8205 6.9058 12.164L7.17059 12.4638C7.57095 12.1102 7.9338 11.7447 8.31188 11.3633L8.02781 11.0816ZM6.8987 12.1706L6.87923 12.1895L7.15823 12.4761L7.1777 12.4572L6.8987 12.1706ZM6.8776 12.1911C6.69644 12.3715 6.60354 12.5573 6.57763 12.7478C6.55241 12.9332 6.59392 13.1013 6.6402 13.2393L7.01946 13.1122C6.98035 12.9955 6.96104 12.8968 6.97398 12.8017C6.98622 12.7117 7.03047 12.6034 7.15987 12.4745L6.8776 12.1911ZM6.63463 13.2193C6.64006 13.2436 6.64851 13.2623 6.64965 13.2649L7.01708 13.1068C7.01557 13.1033 7.02137 13.1158 7.02503 13.1322L6.63463 13.2193ZM6.64778 13.2604C6.65283 13.273 6.65238 13.2714 6.65416 13.2762L7.0285 13.1352C7.02497 13.1258 7.01922 13.112 7.01896 13.1113L6.64778 13.2604ZM6.65682 13.2829C7.00685 14.1198 7.49078 14.9011 8.2175 15.8112L8.53008 15.5616C7.8199 14.6722 7.35799 13.9227 7.02585 13.1285L6.65682 13.2829ZM8.21869 15.8127C9.54296 17.4392 10.943 18.7107 12.4988 19.695L12.7127 19.3569C11.1983 18.3989 9.82978 17.158 8.52889 15.5601L8.21869 15.8127ZM12.4969 19.6937C12.6611 19.8002 12.8346 19.8874 12.9914 19.9663L13.1713 19.6091C13.0113 19.5285 12.8574 19.4508 12.7146 19.3582L12.4969 19.6937ZM12.9902 19.9657C13.0235 19.9828 13.058 20 13.089 20.0156L13.2692 19.6585C13.2355 19.6415 13.2046 19.6261 13.1724 19.6096L12.9902 19.9657ZM13.0897 20.016C13.2548 20.0984 13.4204 20.1823 13.5642 20.2732L13.7778 19.9349C13.6146 19.8319 13.4316 19.7396 13.2684 19.6581L13.0897 20.016ZM13.5782 20.2812C13.5789 20.2816 13.5803 20.2824 13.5839 20.2844C13.5865 20.2859 13.5928 20.2895 13.5985 20.2927L13.7922 19.9427C13.7899 19.9415 13.7882 19.9405 13.7828 19.9374C13.7783 19.9348 13.7716 19.9309 13.7639 19.9269L13.5782 20.2812ZM13.6008 20.294C13.6068 20.2972 13.6104 20.2991 13.6141 20.3012L13.812 19.9536C13.8033 19.9486 13.7954 19.9444 13.7899 19.9415L13.6008 20.294ZM13.6219 20.3054C13.7723 20.3824 13.9241 20.4235 14.0829 20.4235V20.0235C13.9966 20.0235 13.9069 20.002 13.8042 19.9494L13.6219 20.3054ZM14.0829 20.4235C14.4743 20.4235 14.7228 20.1702 14.7889 20.1048L14.5076 19.8204C14.4437 19.8837 14.2984 20.0235 14.0829 20.0235V20.4235ZM14.7894 20.1043L16.444 18.4564L16.1617 18.173L14.5071 19.8209L14.7894 20.1043ZM16.4441 18.4563C16.7008 18.2002 16.9655 18.0838 17.2062 18.0838V17.6838C16.8311 17.6838 16.4703 17.8651 16.1616 18.1731L16.4441 18.4563ZM17.2062 18.0838C17.5322 18.0838 17.7971 18.3013 17.9386 18.4529L18.231 18.18C18.069 18.0064 17.704 17.6838 17.2062 17.6838V18.0838ZM17.9438 18.4583L20.6097 21.109L20.8917 20.8254L18.2258 18.1746L17.9438 18.4583ZM20.6095 21.1089C20.8737 21.372 20.9856 21.6321 20.9841 21.8772C20.9825 22.1237 20.8661 22.3937 20.5952 22.6746L20.8831 22.9523C21.2015 22.6221 21.3817 22.2587 21.384 21.8797C21.3864 21.4993 21.2094 21.1419 20.8918 20.8255L20.6095 21.1089Z" fill="#F44336" mask="url(#path-1-outside-1)"/>
<path d="M13.0236 4.14856C12.805 4.14856 12.6108 4.10821 12.4408 4.02751C12.2788 3.93948 12.1453 3.82944 12.04 3.69739C11.9348 3.558 11.8538 3.40394 11.7972 3.23521C11.7486 3.05915 11.7243 2.87941 11.7243 2.69601C11.7243 2.51995 11.7526 2.34755 11.8093 2.17882C11.866 2.01009 11.951 1.8597 12.0643 1.72765C12.1777 1.5956 12.3153 1.48923 12.4772 1.40853C12.6391 1.32783 12.8212 1.28748 13.0236 1.28748C13.2422 1.28748 13.4365 1.32783 13.6065 1.40853C13.7765 1.48923 13.9182 1.59927 14.0315 1.73865C14.1529 1.8707 14.242 2.02476 14.2986 2.20083C14.3634 2.36956 14.3958 2.54195 14.3958 2.71802C14.3958 2.90876 14.3675 3.09216 14.3108 3.26823C14.2541 3.43696 14.1691 3.58735 14.0558 3.7194C13.9424 3.85144 13.8008 3.95782 13.6308 4.03851C13.4608 4.11188 13.2584 4.14856 13.0236 4.14856ZM11.785 5.8762H10.1457C10.1943 6.21366 10.2955 6.51444 10.4493 6.77854C10.6031 7.04264 10.8014 7.26639 11.0443 7.44979C11.2872 7.6332 11.5665 7.76891 11.8822 7.85695C12.1979 7.95232 12.5379 8 12.9022 8C13.5093 8 14.0234 7.88262 14.4444 7.64787C14.8653 7.40578 15.2094 7.09399 15.4765 6.71252C15.7437 6.3237 15.938 5.89088 16.0594 5.41403C16.1808 4.93718 16.2415 4.46034 16.2415 3.98349C16.2415 3.49931 16.193 3.0188 16.0958 2.54195C15.9987 2.06511 15.8246 1.63961 15.5737 1.26547C15.3227 0.883998 14.9868 0.579551 14.5658 0.352132C14.1529 0.117377 13.6227 0 12.975 0C12.5298 0 12.125 0.073361 11.7607 0.220083C11.3965 0.366805 11.0807 0.568547 10.8136 0.825309C10.5545 1.07474 10.3521 1.37185 10.2064 1.71664C10.0688 2.0541 10 2.42091 10 2.81706C10 3.12517 10.0526 3.42962 10.1579 3.7304C10.2631 4.03118 10.4291 4.29895 10.6557 4.5337C10.8986 4.77579 11.1941 4.9702 11.5422 5.11692C11.8903 5.2563 12.2465 5.326 12.6108 5.326C13.0236 5.326 13.3879 5.25997 13.7036 5.12792C14.0194 4.99587 14.2946 4.77579 14.5294 4.46768L14.5536 4.48968C14.5375 4.70243 14.501 4.94452 14.4444 5.21596C14.3958 5.48739 14.3108 5.74415 14.1894 5.98625C14.0679 6.221 13.906 6.42274 13.7036 6.59147C13.5012 6.75287 13.2422 6.83356 12.9265 6.83356C12.6269 6.83356 12.376 6.73819 12.1736 6.54746C11.9712 6.35672 11.8417 6.13297 11.785 5.8762Z" fill="#F44336"/>
<path d="M21.2525 7.85695V0.154058H19.8804C19.8318 0.447501 19.7306 0.69326 19.5768 0.891335C19.423 1.08941 19.2327 1.2508 19.0061 1.37552C18.7875 1.49289 18.5365 1.57726 18.2532 1.62861C17.978 1.67263 17.6906 1.69097 17.391 1.68363V2.86107H19.5282V7.85695H21.2525Z" fill="#F44336"/>
<path d="M28 7.85695V0.154058H26.6278C26.5793 0.447501 26.4781 0.69326 26.3243 0.891335C26.1704 1.08941 25.9802 1.2508 25.7535 1.37552C25.535 1.49289 25.284 1.57726 25.0007 1.62861C24.7254 1.67263 24.438 1.69097 24.1385 1.68363V2.86107H26.2757V7.85695H28Z" fill="#F44336"/>
</svg>
