<svg width="22" height="23" viewBox="0 0 22 23" fill="none" xmlns="http://www.w3.org/2000/svg">
<path d="M9.26796 5.42871C10.0378 4.09538 11.9623 4.09538 12.7321 5.42871L18.1756 14.8573C18.9454 16.1906 17.9832 17.8573 16.4436 17.8573H5.55642C4.01682 17.8573 3.05457 16.1906 3.82437 14.8573L9.26796 5.42871Z" fill="#FF9900"/>
<path d="M9.78888 15.375C9.78888 15.1716 9.87184 14.9989 10.0377 14.8567C10.2036 14.7144 10.4053 14.6431 10.6423 14.6431C10.8511 14.6431 11.0315 14.7144 11.1837 14.8567C11.3359 14.9989 11.4122 15.1716 11.4122 15.375C11.4122 15.5703 11.3359 15.741 11.1837 15.8874C11.0315 16.0338 10.851 16.107 10.6423 16.107C10.4053 16.107 10.2036 16.0338 10.0377 15.8874C9.87184 15.741 9.78888 15.5703 9.78888 15.375ZM9.86872 8.20854C9.86872 8.0014 9.93917 7.8414 10.0802 7.72869C10.2211 7.61598 10.4036 7.55957 10.6278 7.55957C10.8519 7.55957 11.0166 7.61826 11.1216 7.73552C11.2265 7.85277 11.2792 8.01041 11.2792 8.20854C11.2792 8.85778 11.2679 9.15935 11.2459 10.6286C11.2237 12.0979 11.2127 12.5608 11.2127 13.2098C11.2127 13.3452 11.1493 13.4512 11.0226 13.5277C10.8958 13.6043 10.7642 13.6426 10.6278 13.6426C10.2283 13.6426 10.0284 13.4984 10.0284 13.2098C10.0284 12.5608 10.0018 12.0979 9.94859 10.6286C9.8953 9.15932 9.86872 8.85775 9.86872 8.20854Z" fill="white"/>
</svg>
