<svg width="24" height="24" viewBox="0 0 24 24" fill="none" xmlns="http://www.w3.org/2000/svg">
<path d="M17 15.0909L18.0588 16L20 14" stroke="#322D76" stroke-linecap="round" stroke-linejoin="round"/>
<circle cx="18.5" cy="14.5" r="4" stroke="#322D76"/>
<path fill-rule="evenodd" clip-rule="evenodd" d="M15.9668 5.54735V5.01283H17.5703C17.8659 5.01283 18.1049 5.25199 18.1049 5.54735V7.15093H2.06905V5.54735C2.06905 5.25199 2.30806 5.01283 2.60358 5.01283H4.20716V5.54735C4.20716 5.84256 4.44648 6.08188 4.74169 6.08188C5.0369 6.08188 5.27622 5.84256 5.27622 5.54735V5.01283H9.55243V5.54735C9.55243 5.84256 9.79175 6.08188 10.087 6.08188C10.3822 6.08188 10.6215 5.84256 10.6215 5.54735V5.01283H14.8977V5.54735C14.8977 5.84256 15.137 6.08188 15.4322 6.08188C15.7274 6.08188 15.9668 5.84256 15.9668 5.54735ZM17.5703 3.94377H15.9668V2.34019C15.9668 2.04498 15.7274 1.80566 15.4322 1.80566C15.137 1.80566 14.8977 2.04498 14.8977 2.34019V3.94377H10.6215V2.34019C10.6215 2.04498 10.3822 1.80566 10.087 1.80566C9.79175 1.80566 9.55243 2.04498 9.55243 2.34019V3.94377H5.27622V2.34019C5.27622 2.04498 5.0369 1.80566 4.74169 1.80566C4.44648 1.80566 4.20716 2.04498 4.20716 2.34019V3.94377H2.60358C1.71747 3.94377 1 4.66174 1 5.54735V20.5141C1 21.3997 1.71747 22.1177 2.60358 22.1177H17.5703C18.4564 22.1177 19.1739 21.3997 19.1739 20.5141V18.5824C19.0169 18.5998 18.8573 18.6087 18.6957 18.6087C18.4953 18.6087 18.298 18.595 18.1049 18.5685V20.5141C18.1049 20.8095 17.8659 21.0486 17.5703 21.0486H2.60358C2.30806 21.0486 2.06905 20.8095 2.06905 20.5141V8.21999H18.1049V10.0402C18.298 10.0137 18.4953 10 18.6957 10C18.8573 10 19.0169 10.0089 19.1739 10.0263V5.54735C19.1739 4.66174 18.4564 3.94377 17.5703 3.94377ZM4.55115 11.5691C4.25594 11.5691 4.01662 11.3297 4.01662 11.0345C4.01662 10.7393 4.25594 10.5 4.55115 10.5H10.9655C11.2607 10.5 11.5 10.7393 11.5 11.0345C11.5 11.3297 11.2607 11.5691 10.9655 11.5691H4.55115ZM4.01662 14.2417C4.01662 14.5369 4.25594 14.7762 4.55115 14.7762H10.9655C11.2607 14.7762 11.5 14.5369 11.5 14.2417C11.5 13.9465 11.2607 13.7072 10.9655 13.7072H4.55115C4.25594 13.7072 4.01662 13.9465 4.01662 14.2417ZM4.55115 17.9834C4.25594 17.9834 4.01662 17.7441 4.01662 17.4488C4.01662 17.1536 4.25594 16.9143 4.55115 16.9143H10.9655C11.2607 16.9143 11.5 17.1536 11.5 17.4488C11.5 17.7441 11.2607 17.9834 10.9655 17.9834H4.55115Z" fill="#322D76"/>
</svg>
