<svg width="24" height="24" viewBox="0 0 24 24" fill="none" xmlns="http://www.w3.org/2000/svg">
<rect x="5" y="9" width="1" height="1" fill="#322D76"/>
<rect x="5" y="11" width="1" height="1" fill="#322D76"/>
<rect x="9" y="11" width="1" height="1" fill="#322D76"/>
<rect x="11" y="11" width="6" height="1" fill="#322D76"/>
<rect x="16" y="15" width="4" height="1" transform="rotate(-90 16 15)" fill="#322D76"/>
<path d="M15 13.5L16.5 15L18 13.5" stroke="#322D76" stroke-linecap="round" stroke-linejoin="round"/>
<rect x="5" y="13" width="1" height="1" fill="#322D76"/>
<rect x="7" y="9" width="1" height="1" fill="#322D76"/>
<rect x="7" y="13" width="1" height="1" fill="#322D76"/>
<rect x="9" y="9" width="1" height="1" fill="#322D76"/>
<rect x="9" y="13" width="1" height="1" fill="#322D76"/>
<rect x="14.5" y="17.5" width="4" height="4" stroke="#322D76"/>
<path fill-rule="evenodd" clip-rule="evenodd" d="M18.6471 4.79409V4.23527H20.3235C20.6325 4.23527 20.8824 4.4853 20.8824 4.79409V6.47056H4.11765V4.79409C4.11765 4.4853 4.36751 4.23527 4.67647 4.23527H6.35294V4.79409C6.35294 5.10272 6.60313 5.35291 6.91176 5.35291C7.22039 5.35291 7.47059 5.10272 7.47059 4.79409V4.23527H11.9412V4.79409C11.9412 5.10272 12.1914 5.35291 12.5 5.35291C12.8086 5.35291 13.0588 5.10272 13.0588 4.79409V4.23527H17.5294V4.79409C17.5294 5.10272 17.7796 5.35291 18.0882 5.35291C18.3969 5.35291 18.6471 5.10272 18.6471 4.79409ZM20.3235 3.11762H18.6471V1.44115C18.6471 1.13252 18.3969 0.882324 18.0882 0.882324C17.7796 0.882324 17.5294 1.13252 17.5294 1.44115V3.11762H13.0588V1.44115C13.0588 1.13252 12.8086 0.882324 12.5 0.882324C12.1914 0.882324 11.9412 1.13252 11.9412 1.44115V3.11762H7.47059V1.44115C7.47059 1.13252 7.22039 0.882324 6.91176 0.882324C6.60313 0.882324 6.35294 1.13252 6.35294 1.44115V3.11762H4.67647C3.75008 3.11762 3 3.86822 3 4.79409V20.4411C3 21.367 3.75008 22.1176 4.67647 22.1176H13V21H4.67647C4.36751 21 4.11765 20.7499 4.11765 20.4411V7.58821H20.8824V20.4411C20.8824 20.7499 20.6325 21 20.3235 21H20V22.1176H20.3235C21.2499 22.1176 22 21.367 22 20.4411V4.79409C22 3.86822 21.2499 3.11762 20.3235 3.11762Z" fill="#322D76"/>
</svg>
