<svg width="28" height="28" viewBox="0 0 28 28" fill="none" xmlns="http://www.w3.org/2000/svg">
<path d="M24 2H16.8C16.2698 2.00071 15.7614 2.21161 15.3864 2.58642C15.0116 2.96142 14.8007 3.46981 14.8 4V15.2C14.8007 15.7302 15.0116 16.2386 15.3864 16.6136C15.7614 16.9884 16.2698 17.1993 16.8 17.2H19V22.8C19 22.9061 18.9579 23.0079 18.8829 23.0829C18.8079 23.1579 18.7061 23.2 18.6 23.2H9.4C9.17911 23.2 9 23.0209 9 22.8V17.2H11.2C11.7302 17.1993 12.2386 16.9884 12.6136 16.6136C12.9884 16.2386 13.1993 15.7302 13.2 15.2V4C13.1993 3.46981 12.9884 2.96142 12.6136 2.58642C12.2386 2.2116 11.7302 2.00073 11.2 2H4C3.46981 2.00071 2.96142 2.21161 2.58642 2.58642C2.2116 2.96142 2.00073 3.46981 2 4V15.2C2.00071 15.7302 2.21161 16.2386 2.58642 16.6136C2.96142 16.9884 3.46981 17.1993 4 17.2H6.2V24C6.20071 24.5302 6.41161 25.0386 6.78642 25.4136C7.16142 25.7884 7.66981 25.9993 8.2 26H19.8C20.3302 25.9993 20.8386 25.7884 21.2136 25.4136C21.5884 25.0386 21.7993 24.5302 21.8 24V17.2H24C24.5302 17.1993 25.0386 16.9884 25.4136 16.6136C25.7884 16.2386 25.9993 15.7302 26 15.2V4C25.9993 3.46981 25.7884 2.96142 25.4136 2.58642C25.0386 2.2116 24.5302 2.00073 24 2ZM11.2 2.8C11.5182 2.8 11.8236 2.92643 12.0485 3.15143C12.2735 3.37643 12.4 3.68181 12.4 3.99998V15.2C12.4 15.5182 12.2736 15.8236 12.0485 16.0485C11.8235 16.2735 11.5182 16.4 11.2 16.4H7.01609L8.19447 15.4935C9.07822 14.8101 9.59698 13.7571 9.6 12.64V6.55995C9.59679 5.44297 9.07803 4.38994 8.19447 3.70674L7.01609 2.79995L11.2 2.8ZM5.70377 16.4H4.00018C3.68197 16.4 3.37659 16.2736 3.15163 16.0486C2.92667 15.8236 2.80021 15.5182 2.80021 15.2V4.00002C2.80021 3.68181 2.92663 3.37643 3.15163 3.15147C3.37664 2.92651 3.68201 2.80005 4.00018 2.80005H5.70377L7.70734 4.34075C8.39447 4.87237 8.79771 5.69129 8.80018 6.56005V12.64C8.79768 13.5086 8.39447 14.3274 7.70734 14.8588L5.70377 16.4ZM21.0002 24C21.0002 24.3182 20.8738 24.6236 20.6488 24.8485C20.4238 25.0735 20.1184 25.2 19.8003 25.2H8.20025C7.88204 25.2 7.57666 25.0735 7.3517 24.8485C7.12674 24.6235 7.00027 24.3182 7.00027 24V17.2H8.20027V22.8C8.20027 23.1182 8.3267 23.4236 8.5517 23.6485C8.7767 23.8735 9.08208 24 9.40025 24H18.6003C18.9185 24 19.2238 23.8736 19.4488 23.6485C19.6738 23.4235 19.8002 23.1182 19.8002 22.8V17.2H21.0002V24ZM25.2002 15.2C25.2002 15.5182 25.0738 15.8236 24.8488 16.0485C24.6238 16.2735 24.3184 16.4 24.0003 16.4H16.8003C16.482 16.4 16.1767 16.2736 15.9517 16.0485C15.7267 15.8235 15.6003 15.5182 15.6003 15.2V4C15.6003 3.68179 15.7267 3.37641 15.9517 3.15145C16.1767 2.92649 16.4821 2.80002 16.8003 2.80002H24.0003C24.3185 2.80002 24.6238 2.92645 24.8488 3.15145C25.0738 3.37645 25.2002 3.68183 25.2002 4V15.2Z" fill="#424242" stroke="#424242" stroke-width="0.2"/>
<path d="M23.1999 3.59766H17.5999C17.2817 3.59766 16.9763 3.72408 16.7513 3.94908C16.5264 4.17409 16.3999 4.47946 16.3999 4.79763V9.59763C16.3999 9.91585 16.5263 10.2212 16.7513 10.4462C16.9763 10.6711 17.2817 10.7976 17.5999 10.7976H23.1999C23.5181 10.7976 23.8235 10.6712 24.0484 10.4462C24.2734 10.2212 24.3999 9.91581 24.3999 9.59763V4.79763C24.3999 4.47942 24.2734 4.17404 24.0484 3.94908C23.8234 3.72412 23.5181 3.59766 23.1999 3.59766V3.59766ZM23.5999 9.59766C23.5999 9.70373 23.5577 9.80551 23.4827 9.88051C23.4077 9.95551 23.306 9.99766 23.1999 9.99766H17.5999C17.379 9.99766 17.1999 9.81855 17.1999 9.59766V4.79766C17.1999 4.57676 17.379 4.39766 17.5999 4.39766H23.1999C23.306 4.39766 23.4077 4.4398 23.4827 4.5148C23.5577 4.5898 23.5999 4.69159 23.5999 4.79766V9.59766Z" fill="#424242" stroke="#424242" stroke-width="0.2"/>
<path d="M21.1202 5.39929C20.8647 5.39858 20.6144 5.47251 20.4002 5.61215C20.1335 5.43857 19.8131 5.36715 19.4979 5.41108C19.1828 5.45501 18.894 5.61143 18.6851 5.85126C18.476 6.09126 18.3606 6.39859 18.3603 6.71699C18.3338 7.67055 18.9006 8.47466 20.0438 9.10771C20.2649 9.22932 20.5327 9.22932 20.7538 9.10771C21.8974 8.47448 22.4642 7.67055 22.4377 6.72806H22.4379C22.4386 6.37734 22.3004 6.04074 22.0535 5.79164C21.8065 5.54254 21.471 5.40146 21.1202 5.39932L21.1202 5.39929ZM20.4002 8.38965C19.549 7.90965 19.1438 7.37036 19.1602 6.72802C19.1583 6.43856 19.3908 6.20213 19.6802 6.19929C19.8381 6.19911 19.9874 6.27143 20.0851 6.39572C20.1636 6.48697 20.2781 6.53947 20.3986 6.53947C20.5192 6.53947 20.6336 6.48697 20.7122 6.39572C20.8106 6.27054 20.9611 6.19804 21.1202 6.19929C21.2611 6.20144 21.3952 6.25965 21.4929 6.36108C21.5904 6.46269 21.6436 6.59894 21.6402 6.73965C21.6567 7.37055 21.2515 7.91053 20.4002 8.38966L20.4002 8.38965Z" fill="#424242" stroke="#424242" stroke-width="0.2"/>
<path d="M18.0003 12.4023C17.6821 12.4023 17.3767 12.5288 17.1517 12.7538C16.9268 12.9788 16.8003 13.2841 16.8003 13.6023C16.8003 13.9205 16.9267 14.2259 17.1517 14.4509C17.3767 14.6758 17.6821 14.8023 18.0003 14.8023C18.3184 14.8023 18.6239 14.6759 18.8488 14.4509C19.0738 14.2259 19.2002 13.9205 19.2002 13.6023C19.2002 13.2841 19.0738 12.9787 18.8488 12.7538C18.6238 12.5288 18.3184 12.4023 18.0003 12.4023ZM18.0003 14.0023C17.8385 14.0023 17.6926 13.9048 17.6308 13.7554C17.5688 13.6059 17.603 13.434 17.7174 13.3195C17.8319 13.205 18.0038 13.1709 18.1533 13.2329C18.3028 13.2947 18.4003 13.4406 18.4003 13.6023C18.4003 13.7084 18.3581 13.8102 18.2831 13.8852C18.2081 13.9602 18.1063 14.0023 18.0003 14.0023Z" fill="#424242" stroke="#424242" stroke-width="0.2"/>
<path d="M22.8006 12.4023C22.4824 12.4023 22.177 12.5288 21.952 12.7538C21.7271 12.9788 21.6006 13.2841 21.6006 13.6023C21.6006 13.9205 21.727 14.2259 21.952 14.4509C22.177 14.6758 22.4824 14.8023 22.8006 14.8023C23.1187 14.8023 23.4242 14.6759 23.6491 14.4509C23.8741 14.2259 24.0005 13.9205 24.0005 13.6023C24.0005 13.2841 23.8741 12.9787 23.6491 12.7538C23.4241 12.5288 23.1187 12.4023 22.8006 12.4023ZM22.8006 14.0023C22.6388 14.0023 22.4929 13.9048 22.4311 13.7554C22.3691 13.6059 22.4032 13.434 22.5177 13.3195C22.6322 13.205 22.8041 13.1709 22.9536 13.2329C23.1031 13.2947 23.2006 13.4406 23.2006 13.6023C23.2006 13.7084 23.1584 13.8102 23.0834 13.8852C23.0084 13.9602 22.9066 14.0023 22.8006 14.0023Z" fill="#424242" stroke="#424242" stroke-width="0.2"/>
</svg>
