<svg width="18" height="18" viewBox="0 0 18 18" fill="none" xmlns="http://www.w3.org/2000/svg">
<path d="M11.8375 16.0013C11.6881 16.0018 11.5405 15.9688 11.4055 15.9048C11.2705 15.8407 11.1516 15.7473 11.0575 15.6313L6.22749 9.63125C6.08041 9.45232 6 9.22788 6 8.99625C6 8.76463 6.08041 8.54018 6.22749 8.36125L11.2275 2.36125C11.3972 2.15704 11.6411 2.02861 11.9056 2.00423C12.17 1.97985 12.4333 2.06151 12.6375 2.23125C12.8417 2.40099 12.9701 2.6449 12.9945 2.90933C13.0189 3.17375 12.9372 3.43704 12.7675 3.64125L8.29749 9.00125L12.6175 14.3613C12.7398 14.508 12.8174 14.6868 12.8413 14.8763C12.8652 15.0659 12.8343 15.2583 12.7522 15.4308C12.6702 15.6034 12.5404 15.7488 12.3783 15.8499C12.2162 15.9509 12.0285 16.0035 11.8375 16.0013Z" fill="#444444"/>
</svg>
