<svg width="36" height="36" viewBox="0 0 36 36" fill="none" xmlns="http://www.w3.org/2000/svg">
<path d="M20.1719 18.8086C20.7136 19.0117 21.7818 18.8086 23.3917 21.4189" stroke="white" stroke-width="1.3" stroke-linecap="round"/>
<path d="M25.6175 22.1128C25.0487 18.8626 21.8256 17.102 20.4375 16.7296C20.4375 16.7296 26.0734 10.2217 27.1467 9.14844C30.4782 9.31095 32.3888 12.2944 32.8289 13.8857C32.0502 14.766 27.5473 19.8783 25.6175 22.1128Z" stroke="white" stroke-width="1.3" stroke-linecap="round" stroke-linejoin="round"/>
<path d="M30.9056 10.1501C32.1244 8.9651 34.5377 5.35514 31.6125 2.51121C28.6873 -0.332719 23.2098 4.45874 21.2461 6.93025" stroke="white" stroke-width="1.3"/>
<path d="M11.3267 12.9668L8.36624 15.4589" stroke="white" stroke-linecap="round"/>
<path d="M18.3901 24.6397C23.3925 23.5664 27.6856 26.2496 25.9244 31.5603C23.3925 36.4457 17.4895 34.2992 16.9528 29.4694C16.8417 28.469 17.476 23.2143 21.7825 19.8828" stroke="white" stroke-width="1.3"/>
<path d="M10.5859 20.2891C10.6537 21.8126 13.1948 25.7885 18.0245 24.7153" stroke="white" stroke-width="1.3"/>
<circle cx="8.36637" cy="15.589" r="4.71637" stroke="white" stroke-width="1.3"/>
<path d="M21.1955 10.5175C20.6292 11.2396 19.9231 11.7073 19.265 11.9C18.6055 12.0932 18.0504 12.0007 17.6743 11.7057C17.2981 11.4107 17.0761 10.8936 17.1065 10.2071C17.1368 9.52208 17.4228 8.72486 17.9891 8.00273C18.5555 7.2806 19.2616 6.81292 19.9197 6.6202C20.5791 6.42706 21.1342 6.51947 21.5104 6.8145C21.8866 7.10952 22.1086 7.6266 22.0782 8.3131C22.0478 8.99812 21.7619 9.79534 21.1955 10.5175Z" stroke="white" stroke-width="1.3"/>
</svg>
