<svg width="24" height="24" viewBox="0 0 24 24" fill="none" xmlns="http://www.w3.org/2000/svg">
<path d="M13.4482 12.5381C13.8094 12.6735 14.5215 12.5381 15.5948 14.2783" stroke="white" stroke-linecap="round"/>
<path d="M17.0793 14.7415C16.7001 12.5747 14.5514 11.401 13.626 11.1528C13.626 11.1528 17.3833 6.81415 18.0988 6.09863C20.3198 6.20697 21.5935 8.19597 21.8869 9.2568C21.3678 9.84364 18.3659 13.2518 17.0793 14.7415Z" stroke="white" stroke-linecap="round" stroke-linejoin="round"/>
<path d="M20.6027 6.76541C21.4153 5.97543 23.0241 3.56879 21.074 1.67284C19.1239 -0.223115 15.4722 2.97119 14.1631 4.61886" stroke="white"/>
<path d="M7.55181 8.64387L5.57814 10.3052" stroke="white" stroke-linecap="round"/>
<path d="M12.2597 16.4242C15.5946 15.7087 18.4567 17.4975 17.2826 21.0379C15.5947 24.2949 11.6593 22.8638 11.3016 19.644C11.2274 18.9771 11.6504 15.4739 14.5214 13.2529" stroke="white"/>
<path d="M7.05859 13.5244C7.10374 14.5401 8.79782 17.1907 12.0176 16.4752" stroke="white"/>
<circle cx="5.57758" cy="10.3911" r="3.07758" stroke="white"/>
<path d="M14.0772 6.96888C13.7073 7.44061 13.2479 7.74358 12.824 7.86773C12.399 7.9922 12.0528 7.92969 11.8233 7.74972C11.5939 7.56975 11.4507 7.24847 11.4703 6.80606C11.4898 6.36479 11.6746 5.8464 12.0446 5.37467C12.4145 4.90294 12.874 4.59997 13.2979 4.47582C13.7229 4.35135 14.069 4.41386 14.2985 4.59383C14.5279 4.7738 14.6711 5.09508 14.6515 5.53749C14.632 5.97876 14.4472 6.49715 14.0772 6.96888Z" stroke="white"/>
</svg>
