<svg width="17" height="17" viewBox="0 0 17 17" fill="none" xmlns="http://www.w3.org/2000/svg">
<path d="M15.0217 2.24337H13.4161V1.64747C13.4161 0.736105 12.6668 0 11.7391 0C10.8113 0 10.062 0.736105 10.062 1.64747V2.24337H6.58315V1.64747C6.58315 0.736105 5.83385 0 4.90614 0C3.97843 0 3.22913 0.736105 3.22913 1.64747V2.24337H1.62349C0.731461 2.24337 0 2.96195 0 3.83826V15.0551C0 15.9314 0.731461 16.65 1.62349 16.65H15.0217C15.9137 16.65 16.6452 15.9314 16.6452 15.0551V3.83826C16.6452 2.96195 15.9316 2.24337 15.0217 2.24337ZM10.9541 1.64747C10.9541 1.22684 11.3109 0.876316 11.7391 0.876316C12.1672 0.876316 12.524 1.22684 12.524 1.64747V3.71558C12.524 4.13621 12.1672 4.48674 11.7391 4.48674C11.3109 4.48674 10.9541 4.13621 10.9541 3.71558V1.64747ZM4.139 1.64747C4.139 1.22684 4.49581 0.876316 4.92398 0.876316C5.35215 0.876316 5.70896 1.22684 5.70896 1.64747V3.71558C5.70896 4.13621 5.35215 4.48674 4.92398 4.48674C4.49581 4.48674 4.139 4.13621 4.139 3.71558V1.64747ZM1.64133 3.10216H3.24697V3.69805C3.24697 4.60942 3.99627 5.34553 4.92398 5.34553C5.85169 5.34553 6.60099 4.60942 6.60099 3.69805V3.10216H10.0799V3.69805C10.0799 4.60942 10.8292 5.34553 11.7569 5.34553C12.6846 5.34553 13.4339 4.60942 13.4339 3.69805V3.10216H15.0395C15.4499 3.10216 15.771 3.43516 15.771 3.82074V6.46721H0.892025V3.83826C0.892025 3.43516 1.231 3.10216 1.64133 3.10216ZM15.0217 15.7737H1.64133C1.231 15.7737 0.909866 15.4407 0.909866 15.0551V7.34353H15.771V15.0551C15.771 15.4582 15.432 15.7737 15.0217 15.7737Z" fill="#9D9D9D"/>
<path d="M4.99533 8.86792H3.06855C2.83663 8.86792 2.64038 9.06071 2.64038 9.28855V10.4979C2.64038 10.7257 2.83663 10.9185 3.06855 10.9185H4.99533C5.22725 10.9185 5.4235 10.7257 5.4235 10.4979V9.28855C5.4235 9.06071 5.22725 8.86792 4.99533 8.86792Z" fill="#9D9D9D"/>
<path d="M13.5944 8.86792H11.6677C11.4357 8.86792 11.2395 9.06071 11.2395 9.28855V10.4979C11.2395 10.7257 11.4357 10.9185 11.6677 10.9185H13.5944C13.8264 10.9185 14.0226 10.7257 14.0226 10.4979V9.28855C14.0405 9.06071 13.8442 8.86792 13.5944 8.86792Z" fill="#9D9D9D"/>
<path d="M9.29489 8.86792H7.36811C7.13619 8.86792 6.93994 9.06071 6.93994 9.28855V10.4979C6.93994 10.7257 7.13619 10.9185 7.36811 10.9185H9.29489C9.52681 10.9185 9.72306 10.7257 9.72306 10.4979V9.28855C9.72306 9.06071 9.54466 8.86792 9.29489 8.86792Z" fill="#9D9D9D"/>
<path d="M4.99533 12.2332H3.06855C2.83663 12.2332 2.64038 12.4259 2.64038 12.6538V13.8631C2.64038 14.0909 2.83663 14.2837 3.06855 14.2837H4.99533C5.22725 14.2837 5.4235 14.0909 5.4235 13.8631V12.6538C5.4235 12.4259 5.22725 12.2332 4.99533 12.2332Z" fill="#9D9D9D"/>
<path d="M13.5944 12.2332H11.6677C11.4357 12.2332 11.2395 12.4259 11.2395 12.6538V13.8631C11.2395 14.0909 11.4357 14.2837 11.6677 14.2837H13.5944C13.8264 14.2837 14.0226 14.0909 14.0226 13.8631V12.6538C14.0405 12.4259 13.8442 12.2332 13.5944 12.2332Z" fill="#9D9D9D"/>
<path d="M9.29489 12.2332H7.36811C7.13619 12.2332 6.93994 12.4259 6.93994 12.6538V13.8631C6.93994 14.0909 7.13619 14.2837 7.36811 14.2837H9.29489C9.52681 14.2837 9.72306 14.0909 9.72306 13.8631V12.6538C9.72306 12.4259 9.54466 12.2332 9.29489 12.2332Z" fill="#9D9D9D"/>
</svg>
