<svg width="24" height="24" viewBox="0 0 24 24" fill="none" xmlns="http://www.w3.org/2000/svg">
<path d="M21.2716 3.23368H18.9979V2.37474C18.9979 1.06105 17.9368 0 16.6232 0C15.3095 0 14.2484 1.06105 14.2484 2.37474V3.23368H9.3221V2.37474C9.3221 1.06105 8.26105 0 6.94737 0C5.63368 0 4.57263 1.06105 4.57263 2.37474V3.23368H2.29895C1.03579 3.23368 0 4.26947 0 5.53263V21.7011C0 22.9642 1.03579 24 2.29895 24H21.2716C22.5347 24 23.5705 22.9642 23.5705 21.7011V5.53263C23.5705 4.26947 22.56 3.23368 21.2716 3.23368ZM15.5116 2.37474C15.5116 1.76842 16.0168 1.26316 16.6232 1.26316C17.2295 1.26316 17.7347 1.76842 17.7347 2.37474V5.35579C17.7347 5.96211 17.2295 6.46737 16.6232 6.46737C16.0168 6.46737 15.5116 5.96211 15.5116 5.35579V2.37474ZM5.86105 2.37474C5.86105 1.76842 6.36631 1.26316 6.97263 1.26316C7.57895 1.26316 8.08421 1.76842 8.08421 2.37474V5.35579C8.08421 5.96211 7.57895 6.46737 6.97263 6.46737C6.36631 6.46737 5.86105 5.96211 5.86105 5.35579V2.37474ZM2.32421 4.47158H4.59789V5.33053C4.59789 6.64421 5.65895 7.70526 6.97263 7.70526C8.28631 7.70526 9.34737 6.64421 9.34737 5.33053V4.47158H14.2737V5.33053C14.2737 6.64421 15.3347 7.70526 16.6484 7.70526C17.9621 7.70526 19.0232 6.64421 19.0232 5.33053V4.47158H21.2968C21.8779 4.47158 22.3326 4.95158 22.3326 5.50737V9.32211H1.26316V5.53263C1.26316 4.95158 1.74316 4.47158 2.32421 4.47158ZM21.2716 22.7368H2.32421C1.74316 22.7368 1.28842 22.2568 1.28842 21.7011V10.5853H22.3326V21.7011C22.3326 22.2821 21.8526 22.7368 21.2716 22.7368Z" fill="#01CD74"/>
<path d="M7.07399 12.7832H4.34557C4.01715 12.7832 3.73926 13.0611 3.73926 13.3895V15.1327C3.73926 15.4611 4.01715 15.739 4.34557 15.739H7.07399C7.40241 15.739 7.68031 15.4611 7.68031 15.1327V13.3895C7.68031 13.0611 7.40241 12.7832 7.07399 12.7832Z" fill="#01CD74"/>
<path d="M19.2508 12.7832H16.5223C16.1939 12.7832 15.916 13.0611 15.916 13.3895V15.1327C15.916 15.4611 16.1939 15.739 16.5223 15.739H19.2508C19.5792 15.739 19.8571 15.4611 19.8571 15.1327V13.3895C19.8823 13.0611 19.6044 12.7832 19.2508 12.7832Z" fill="#01CD74"/>
<path d="M13.1619 12.7832H10.4335C10.105 12.7832 9.82715 13.0611 9.82715 13.3895V15.1327C9.82715 15.4611 10.105 15.739 10.4335 15.739H13.1619C13.4903 15.739 13.7682 15.4611 13.7682 15.1327V13.3895C13.7682 13.0611 13.5156 12.7832 13.1619 12.7832Z" fill="#01CD74"/>
<path d="M7.07399 17.6328H4.34557C4.01715 17.6328 3.73926 17.9107 3.73926 18.2391V19.9823C3.73926 20.3107 4.01715 20.5886 4.34557 20.5886H7.07399C7.40241 20.5886 7.68031 20.3107 7.68031 19.9823V18.2391C7.68031 17.9107 7.40241 17.6328 7.07399 17.6328Z" fill="#01CD74"/>
<path d="M19.2508 17.6328H16.5223C16.1939 17.6328 15.916 17.9107 15.916 18.2391V19.9823C15.916 20.3107 16.1939 20.5886 16.5223 20.5886H19.2508C19.5792 20.5886 19.8571 20.3107 19.8571 19.9823V18.2391C19.8823 17.9107 19.6044 17.6328 19.2508 17.6328Z" fill="#01CD74"/>
<path d="M13.1619 17.6328H10.4335C10.105 17.6328 9.82715 17.9107 9.82715 18.2391V19.9823C9.82715 20.3107 10.105 20.5886 10.4335 20.5886H13.1619C13.4903 20.5886 13.7682 20.3107 13.7682 19.9823V18.2391C13.7682 17.9107 13.5156 17.6328 13.1619 17.6328Z" fill="#01CD74"/>
</svg>
