<svg width="24" height="24" viewBox="0 0 24 24" fill="none" xmlns="http://www.w3.org/2000/svg">
<g id="Group 1247">
<g id="Group">
<g id="Group_2">
<g id="Group_3">
<path id="Vector" d="M19.7263 4.69474H17.8316V3.97895C17.8316 2.88421 16.9474 2 15.8526 2C14.7579 2 13.8737 2.88421 13.8737 3.97895V4.69474H9.76842V3.97895C9.76842 2.88421 8.88421 2 7.78947 2C6.69474 2 5.81053 2.88421 5.81053 3.97895V4.69474H3.91579C2.86316 4.69474 2 5.55789 2 6.61053V20.0842C2 21.1368 2.86316 22 3.91579 22H19.7263C20.7789 22 21.6421 21.1368 21.6421 20.0842V6.61053C21.6421 5.55789 20.8 4.69474 19.7263 4.69474ZM14.9263 3.97895C14.9263 3.47368 15.3474 3.05263 15.8526 3.05263C16.3579 3.05263 16.7789 3.47368 16.7789 3.97895V6.46316C16.7789 6.96842 16.3579 7.38947 15.8526 7.38947C15.3474 7.38947 14.9263 6.96842 14.9263 6.46316V3.97895ZM6.88421 3.97895C6.88421 3.47368 7.30526 3.05263 7.81052 3.05263C8.31579 3.05263 8.73684 3.47368 8.73684 3.97895V6.46316C8.73684 6.96842 8.31579 7.38947 7.81052 7.38947C7.30526 7.38947 6.88421 6.96842 6.88421 6.46316V3.97895ZM3.93684 5.72632H5.83158V6.44211C5.83158 7.53684 6.71579 8.42105 7.81052 8.42105C8.90526 8.42105 9.78947 7.53684 9.78947 6.44211V5.72632H13.8947V6.44211C13.8947 7.53684 14.7789 8.42105 15.8737 8.42105C16.9684 8.42105 17.8526 7.53684 17.8526 6.44211V5.72632H19.7474C20.2316 5.72632 20.6105 6.12632 20.6105 6.58947V9.76842H3.05263V6.61053C3.05263 6.12632 3.45263 5.72632 3.93684 5.72632ZM19.7263 20.9474H3.93684C3.45263 20.9474 3.07368 20.5474 3.07368 20.0842V10.8211H20.6105V20.0842C20.6105 20.5684 20.2105 20.9474 19.7263 20.9474Z" fill="#01CD74"/>
<path id="Vector_2" d="M7.89516 12.6523H5.62147C5.34779 12.6523 5.11621 12.8839 5.11621 13.1576V14.6102C5.11621 14.8839 5.34779 15.1155 5.62147 15.1155H7.89516C8.16884 15.1155 8.40042 14.8839 8.40042 14.6102V13.1576C8.40042 12.8839 8.16884 12.6523 7.89516 12.6523Z" fill="#01CD74"/>
<path id="Vector_3" d="M18.0426 12.6523H15.7689C15.4952 12.6523 15.2637 12.8839 15.2637 13.1576V14.6102C15.2637 14.8839 15.4952 15.1155 15.7689 15.1155H18.0426C18.3163 15.1155 18.5479 14.8839 18.5479 14.6102V13.1576C18.5689 12.8839 18.3374 12.6523 18.0426 12.6523Z" fill="#01CD74"/>
<path id="Vector_4" d="M12.9684 12.6523H10.6947C10.421 12.6523 10.1895 12.8839 10.1895 13.1576V14.6102C10.1895 14.8839 10.421 15.1155 10.6947 15.1155H12.9684C13.2421 15.1155 13.4737 14.8839 13.4737 14.6102V13.1576C13.4737 12.8839 13.2631 12.6523 12.9684 12.6523Z" fill="#01CD74"/>
<path id="Vector_5" d="M7.89516 16.6943H5.62147C5.34779 16.6943 5.11621 16.9259 5.11621 17.1996V18.6522C5.11621 18.9259 5.34779 19.1575 5.62147 19.1575H7.89516C8.16884 19.1575 8.40042 18.9259 8.40042 18.6522V17.1996C8.40042 16.9259 8.16884 16.6943 7.89516 16.6943Z" fill="#01CD74"/>
<path id="Vector_6" d="M18.0426 16.6943H15.7689C15.4952 16.6943 15.2637 16.9259 15.2637 17.1996V18.6522C15.2637 18.9259 15.4952 19.1575 15.7689 19.1575H18.0426C18.3163 19.1575 18.5479 18.9259 18.5479 18.6522V17.1996C18.5689 16.9259 18.3374 16.6943 18.0426 16.6943Z" fill="#01CD74"/>
<path id="Vector_7" d="M12.9684 16.6943H10.6947C10.421 16.6943 10.1895 16.9259 10.1895 17.1996V18.6522C10.1895 18.9259 10.421 19.1575 10.6947 19.1575H12.9684C13.2421 19.1575 13.4737 18.9259 13.4737 18.6522V17.1996C13.4737 16.9259 13.2631 16.6943 12.9684 16.6943Z" fill="#01CD74"/>
</g>
</g>
</g>
</g>
</svg>
