<svg width="24" height="24" viewBox="0 0 24 24" fill="none" xmlns="http://www.w3.org/2000/svg">
<path d="M20.9994 16.4765V19.1862C21.0005 19.4377 20.946 19.6867 20.8394 19.9172C20.7328 20.1477 20.5765 20.3546 20.3804 20.5247C20.1844 20.6947 19.9529 20.8242 19.7009 20.9048C19.4489 20.9854 19.1818 21.0153 18.9168 20.9927C15.9772 20.6907 13.1534 19.7409 10.6725 18.2197C8.36425 16.8329 6.4073 14.9827 4.94057 12.8003C3.32607 10.4439 2.32133 7.76107 2.00775 4.96915C1.98388 4.71938 2.01528 4.46764 2.09994 4.22996C2.18461 3.99229 2.32069 3.77389 2.49952 3.58866C2.67835 3.40343 2.89601 3.25544 3.13865 3.15411C3.38128 3.05278 3.64358 3.00032 3.90883 3.00009H6.77477C7.2384 2.99577 7.68786 3.151 8.03938 3.43683C8.39091 3.72267 8.62052 4.11961 8.6854 4.55366C8.80637 5.42084 9.0307 6.27229 9.35413 7.09177C9.48266 7.41507 9.51047 7.76642 9.43428 8.1042C9.35809 8.44198 9.18108 8.75203 8.92423 8.99761L7.71098 10.1447C9.07093 12.406 11.0512 14.2784 13.4429 15.5642L14.6561 14.4171C14.9159 14.1742 15.2438 14.0069 15.601 13.9348C15.9583 13.8628 16.3299 13.8891 16.6718 14.0106C17.5386 14.3164 18.4391 14.5285 19.3563 14.6429C19.8203 14.7048 20.2441 14.9258 20.5471 15.2639C20.8501 15.6019 21.011 16.0335 20.9994 16.4765Z" stroke="#2196F3" stroke-width="1.5" stroke-linecap="round" stroke-linejoin="round"/>
</svg>
