<svg width="27" height="28" viewBox="0 0 27 28" fill="none" xmlns="http://www.w3.org/2000/svg">
<circle cx="13.7059" cy="13.9999" r="12.2941" fill="#FFC107" stroke="white" stroke-width="2"/>
<path d="M19.4706 17.2939C19.4706 17.5123 19.3838 17.7218 19.2294 17.8762C19.0749 18.0307 18.8654 18.1174 18.647 18.1174H8.76467C8.54626 18.1174 8.33679 18.0307 8.18235 17.8762C8.02791 17.7218 7.94114 17.5123 7.94114 17.2939V12.3527C7.94114 12.1343 8.02791 11.9248 8.18235 11.7704C8.33679 11.6159 8.54626 11.5292 8.76467 11.5292H9.72985C10.3848 11.5288 11.0127 11.2685 11.4757 10.8053L12.1593 10.1234C12.3133 9.96937 12.522 9.88261 12.7399 9.88212H14.6702C14.8886 9.88217 15.098 9.96896 15.2524 10.1234L15.9343 10.8053C16.1638 11.0348 16.4362 11.2169 16.7361 11.3411C17.0359 11.4653 17.3573 11.5292 17.6819 11.5292H18.647C18.8654 11.5292 19.0749 11.6159 19.2294 11.7704C19.3838 11.9248 19.4706 12.1343 19.4706 12.3527V17.2939ZM8.76467 10.7057C8.32785 10.7057 7.90891 10.8792 7.60003 11.1881C7.29114 11.4969 7.11761 11.9159 7.11761 12.3527V17.2939C7.11761 17.7307 7.29114 18.1497 7.60003 18.4585C7.90891 18.7674 8.32785 18.9409 8.76467 18.9409H18.647C19.0839 18.9409 19.5028 18.7674 19.8117 18.4585C20.1206 18.1497 20.2941 17.7307 20.2941 17.2939V12.3527C20.2941 11.9159 20.1206 11.4969 19.8117 11.1881C19.5028 10.8792 19.0839 10.7057 18.647 10.7057H17.6819C17.2451 10.7056 16.8262 10.532 16.5174 10.2231L15.8355 9.54118C15.5267 9.23228 15.1078 9.05869 14.671 9.05859H12.7407C12.3039 9.05869 11.885 9.23228 11.5762 9.54118L10.8943 10.2231C10.5855 10.532 10.1666 10.7056 9.72985 10.7057H8.76467Z" fill="#27235E"/>
<path d="M13.7058 16.4705C13.1598 16.4705 12.6361 16.2536 12.25 15.8675C11.8639 15.4814 11.647 14.9577 11.647 14.4116C11.647 13.8656 11.8639 13.3419 12.25 12.9558C12.6361 12.5697 13.1598 12.3528 13.7058 12.3528C14.2519 12.3528 14.7755 12.5697 15.1616 12.9558C15.5477 13.3419 15.7646 13.8656 15.7646 14.4116C15.7646 14.9577 15.5477 15.4814 15.1616 15.8675C14.7755 16.2536 14.2519 16.4705 13.7058 16.4705ZM13.7058 17.294C14.4703 17.294 15.2034 16.9903 15.744 16.4498C16.2845 15.9092 16.5882 15.1761 16.5882 14.4116C16.5882 13.6472 16.2845 12.9141 15.744 12.3735C15.2034 11.833 14.4703 11.5293 13.7058 11.5293C12.9414 11.5293 12.2082 11.833 11.6677 12.3735C11.1271 12.9141 10.8235 13.6472 10.8235 14.4116C10.8235 15.1761 11.1271 15.9092 11.6677 16.4498C12.2082 16.9903 12.9414 17.294 13.7058 17.294ZM9.58818 12.7646C9.58818 12.8738 9.5448 12.9785 9.46757 13.0558C9.39035 13.133 9.28562 13.1764 9.17641 13.1764C9.06721 13.1764 8.96247 13.133 8.88525 13.0558C8.80803 12.9785 8.76465 12.8738 8.76465 12.7646C8.76465 12.6554 8.80803 12.5507 8.88525 12.4734C8.96247 12.3962 9.06721 12.3528 9.17641 12.3528C9.28562 12.3528 9.39035 12.3962 9.46757 12.4734C9.5448 12.5507 9.58818 12.6554 9.58818 12.7646Z" fill="#27235E"/>
</svg>
