<svg width="24" height="24" viewBox="0 0 24 24" fill="none" xmlns="http://www.w3.org/2000/svg">
<path d="M18.5125 8.7099L18.5124 8.70992L15.4489 10.4165V9.513L15.4489 9.51289C15.4479 8.62441 14.7417 7.90101 13.866 7.9H13.8659L6.48305 7.9L6.48294 7.9C5.60724 7.90101 4.90099 8.62441 4.9 9.51289V9.513L4.9 15.487L4.9 15.4871C4.90099 16.3756 5.60724 17.099 6.48294 17.1H6.48305L13.8659 17.1L13.866 17.1C14.7417 17.099 15.4479 16.3756 15.4489 15.4871V15.487V14.603L18.5126 16.3096C18.6358 16.3782 18.7857 16.3755 18.9065 16.3025L18.9065 16.3024C19.0271 16.2294 19.1 16.0977 19.1 15.9566V9.06288C19.1 8.92162 19.0269 8.79008 18.9065 8.71717L18.8547 8.80272L18.9064 8.71714C18.7857 8.64414 18.6359 8.64122 18.5125 8.7099ZM14.6555 15.487C14.655 15.9349 14.2998 16.2944 13.8655 16.2949H6.48317C6.04892 16.2944 5.69374 15.9349 5.69322 15.487V9.51312C5.69322 9.5131 5.69322 9.51308 5.69322 9.51307C5.69376 9.06527 6.04894 8.70572 6.48317 8.7052H13.8657C13.8658 8.7052 13.8658 8.7052 13.8658 8.7052C14.2999 8.70575 14.6552 9.06532 14.6557 9.51312L14.6555 15.487ZM15.4489 11.3349L18.3068 9.7431V15.2765L15.4489 13.6846V11.3349Z" fill="#424242" stroke="#424242" stroke-width="0.2"/>
<circle cx="12" cy="12" r="10.5" stroke="#424242"/>
<line x1="19.6761" y1="5.0306" x2="4.09272" y2="19.6973" stroke="#424242"/>
</svg>
