<svg width="30" height="30" viewBox="0 0 30 30" fill="none" xmlns="http://www.w3.org/2000/svg">
<path d="M28.4659 11.3605L27.6801 11.4865C25.8122 11.7882 23.897 11.4659 22.2305 10.5695C21.7916 10.3334 21.3749 10.0584 20.9851 9.74783C20.9709 9.73658 20.9561 9.72596 20.9407 9.71637L17.9424 7.34721C17.7413 7.18825 17.6145 6.95346 17.5915 6.69825C17.5686 6.44283 17.6517 6.18929 17.8215 5.99718C17.9957 5.81948 18.2307 5.71427 18.479 5.70219C18.7276 5.6901 18.9715 5.77198 19.1622 5.93177L21.6453 7.89507C21.742 7.97632 21.8674 8.01507 21.993 8.00236C22.1186 7.98965 22.2336 7.92653 22.312 7.82757C22.3903 7.7284 22.4251 7.60195 22.4086 7.47674C22.392 7.35153 22.3255 7.23862 22.2241 7.1632L19.7409 5.20049C19.4268 4.94632 19.0407 4.79695 18.6372 4.77361C18.2337 4.75049 17.833 4.85424 17.4916 5.07069L16.5741 4.46926C16.2458 4.25363 15.842 4.18592 15.4612 4.28259L11.8258 5.20051C11.5775 5.26343 11.3143 5.22134 11.0979 5.08447C10.8814 4.94738 10.7308 4.72759 10.6812 4.47636C10.6471 4.22928 10.7071 3.97866 10.8489 3.77386C10.991 3.56907 11.2048 3.4249 11.4479 3.37032L16.8441 2.00301C17.4119 1.86176 18.0119 1.93655 18.5274 2.21301L24.2341 5.28778C25.3841 5.9113 26.6714 6.23775 27.9795 6.23796C28.1783 6.23796 28.3772 6.23046 28.5764 6.21546C28.8303 6.19234 29.0189 5.96963 28.9993 5.71525C28.9799 5.46088 28.7599 5.26921 28.5053 5.28484C27.1778 5.38526 25.8493 5.10109 24.6787 4.46628L18.9715 1.39088V1.39108C18.2513 1.00484 17.4131 0.900254 16.62 1.09754L11.219 2.46527C10.7427 2.57569 10.3267 2.86402 10.0565 3.2713C9.78605 3.6788 9.68189 4.17423 9.76543 4.65588C9.86502 5.15797 10.1665 5.59732 10.5992 5.87086C11.0319 6.14441 11.5581 6.22815 12.0544 6.10253L15.6902 5.18318C15.8181 5.15026 15.954 5.17359 16.0635 5.24713L16.8633 5.77026C16.7021 6.08109 16.6325 6.4317 16.6631 6.78065C16.71 7.28982 16.9629 7.75793 17.3631 8.07649L20.4029 10.4798H20.4031C20.4171 10.4908 20.4319 10.501 20.4469 10.5106C20.8679 10.8421 21.317 11.1364 21.7889 11.3902C23.1793 12.1381 24.7333 12.5293 26.3119 12.529C26.8202 12.5292 27.3275 12.4881 27.8291 12.4063L28.6131 12.2802C28.861 12.2329 29.0264 11.9973 28.9866 11.7481C28.9466 11.4988 28.7158 11.3265 28.4656 11.359L28.4659 11.3605Z" fill="#01CD74"/>
<path d="M15.0061 8.93372C13.3971 8.93372 11.854 9.57286 10.7163 10.7106C9.5786 11.8483 8.93945 13.3914 8.93945 15.0004C8.93945 16.6093 9.5786 18.1525 10.7163 19.2902C11.854 20.4279 13.3971 21.067 15.0061 21.067C16.6151 21.067 18.1582 20.4279 19.2959 19.2902C20.4336 18.1525 21.0728 16.6093 21.0728 15.0004C21.0709 13.3921 20.4311 11.85 19.2938 10.7126C18.1565 9.57531 16.6145 8.93558 15.0061 8.93372V8.93372ZM18.2728 16.4004H16.4061V18.267H13.6061V16.4004H11.7394V13.6004H13.6061V11.7337H16.4061V13.6004H18.2728V16.4004Z" fill="#01CD74"/>
<path d="M22.6634 12.8805C22.5424 12.9063 22.4365 12.9792 22.3692 13.083C22.3019 13.1869 22.2788 13.3134 22.3047 13.4344C22.7801 15.6394 22.2322 17.9411 20.8145 19.6957C19.3968 21.4501 17.2611 22.4691 15.0054 22.4672C14.9588 22.4672 14.9121 22.4635 14.8654 22.4601L14.7367 22.4526V22.4528C14.479 22.443 14.2621 22.6439 14.2523 22.9016C14.2425 23.1595 14.4433 23.3764 14.7013 23.3862L14.8006 23.3922C14.8688 23.3968 14.9365 23.4012 15.005 23.4012V23.401C17.5429 23.4032 19.9454 22.2572 21.541 20.2837C23.1364 18.3099 23.7532 15.7204 23.2189 13.2394C23.1931 13.1182 23.1199 13.0121 23.0158 12.9446C22.9116 12.8774 22.7847 12.8542 22.6635 12.8807L22.6634 12.8805Z" fill="#01CD74"/>
<path d="M7.24971 17.1321C7.39075 17.1323 7.52429 17.0688 7.61304 16.9592C7.70179 16.8496 7.73616 16.7059 7.70658 16.5679C7.23075 14.3627 7.77804 12.0606 9.19596 10.3056C10.6137 8.55079 12.7493 7.53181 15.0055 7.53367C15.0522 7.53367 15.0989 7.53701 15.1455 7.54013L15.2772 7.54763C15.4014 7.55451 15.5233 7.51034 15.6143 7.42534C15.7053 7.34055 15.758 7.22221 15.7601 7.09784C15.7645 6.97409 15.7197 6.85368 15.6353 6.76305C15.551 6.67264 15.4341 6.61909 15.3103 6.61472L15.2091 6.6091C15.1403 6.60451 15.0737 6.60035 15.0056 6.60035C12.4674 6.59785 10.0645 7.74386 8.46904 9.71783C6.87363 11.692 6.25715 14.2818 6.79219 16.7626C6.83823 16.9784 7.02927 17.1326 7.24989 17.1318L7.24971 17.1321Z" fill="#01CD74"/>
<path d="M19.4102 24.1268C18.9787 23.8521 18.4525 23.7687 17.9571 23.8962L14.3213 24.8156C14.1933 24.8481 14.0577 24.8247 13.9479 24.7516L13.1481 24.2285C13.3094 23.9177 13.379 23.5671 13.3483 23.2181C13.3015 22.7089 13.0486 22.2408 12.6483 21.9223L9.60857 19.519H9.60836C9.5944 19.5079 9.57961 19.4977 9.56461 19.4881C9.14357 19.1567 8.69443 18.8623 8.22253 18.6086C6.37545 17.615 4.25273 17.2579 2.18255 17.5925L1.3986 17.7185C1.14402 17.7592 0.970899 17.9985 1.01152 18.2531C1.05215 18.5077 1.29152 18.6808 1.54608 18.6402L2.33189 18.5141C4.19978 18.2125 6.11503 18.5348 7.78148 19.4312C8.22044 19.6673 8.6371 19.9422 9.02692 20.2529C9.04192 20.2643 9.05754 20.2747 9.07358 20.2843L12.0719 22.6549C12.2732 22.8139 12.4 23.0485 12.4228 23.3039C12.4457 23.5593 12.3625 23.8128 12.1928 24.005C12.0186 24.1824 11.7838 24.2879 11.5353 24.2999C11.2867 24.312 11.0428 24.2302 10.8521 24.0704L8.36898 22.1071C8.16648 21.9569 7.88127 21.9946 7.72482 22.1923C7.56836 22.3902 7.59732 22.6764 7.79024 22.8387L10.2711 24.8002C10.6225 25.0802 11.0584 25.2333 11.5078 25.2352C11.868 25.2341 12.22 25.1283 12.5209 24.9304L13.438 25.5295C13.7657 25.7466 14.1698 25.8151 14.5509 25.7185L18.1863 24.8001C18.4346 24.7372 18.6977 24.7793 18.9142 24.9162C19.1306 25.0533 19.2812 25.273 19.3308 25.5243C19.365 25.7714 19.305 26.022 19.1631 26.2268C19.021 26.4316 18.8073 26.5757 18.5642 26.6303L13.1679 27.9976C12.6002 28.1387 12.0002 28.0639 11.4846 27.7876L5.77797 24.7129C4.45046 23.9933 2.9438 23.6712 1.43799 23.7851C1.31341 23.7928 1.19695 23.8501 1.11486 23.9443C1.03278 24.0387 0.991945 24.1618 1.00132 24.2864C1.0109 24.411 1.06986 24.5266 1.16528 24.6072C1.2607 24.6878 1.38444 24.727 1.50903 24.7158C2.83676 24.6155 4.16507 24.8997 5.33568 25.5343L11.0429 28.6097V28.6095C11.52 28.8662 12.0533 29.0003 12.595 29.0001C12.8641 28.9999 13.1322 28.9674 13.3935 28.9031L18.793 27.5353C19.2692 27.4249 19.6852 27.1366 19.9555 26.7293C20.2259 26.3218 20.3301 25.8264 20.2465 25.3447C20.1486 24.8405 19.8459 24.3995 19.4107 24.1268L19.4102 24.1268Z" fill="#01CD74"/>
</svg>
