<svg width="70" height="105" viewBox="0 0 70 105" fill="none" xmlns="http://www.w3.org/2000/svg">
<g opacity="0.25">
<path d="M17.0859 7.73452C17.0859 10.0863 18.999 11.9993 21.3507 11.9993H48.654C51.0058 11.9993 52.9188 10.0863 52.9188 7.73452L52.9181 7.70743C52.9181 5.35566 51.005 3.44263 48.6533 3.44263L21.35 3.44336C18.999 3.44336 17.086 5.35639 17.086 7.70741L17.0859 7.73452Z" fill="#006595"/>
<path d="M64.059 1.72263H53.4889C52.1214 0.610095 50.4113 0 48.6389 0H21.36C19.5868 0 17.8774 0.610095 16.5093 1.72263H5.93989C2.66452 1.72263 0 4.40608 0 7.70414V99.0169C0 102.315 2.66452 104.998 5.93989 104.998H64.0601C67.3347 104.998 70 102.315 70 99.0169V7.70414C70 4.40608 67.3355 1.72263 64.0601 1.72263H64.059ZM56.1511 9.41655H62.3531V92.9988H7.64536V9.41655H13.8474C14.615 12.8999 17.7226 15.4436 21.3596 15.4436H48.6385C52.2763 15.4436 55.3846 12.9 56.1515 9.41655H56.1511ZM21.3592 1.66694H48.6381C50.1117 1.66694 51.5304 2.20453 52.6312 3.18009L53.1849 2.55535V2.55755L52.6334 3.1801C53.9247 4.32339 54.6652 5.96836 54.6652 7.69314L54.6659 7.74954C54.6659 7.99709 54.6512 8.24318 54.6219 8.48268C54.2572 11.5003 51.685 13.7765 48.6389 13.7765H21.36C18.314 13.7765 15.7417 11.5008 15.377 8.48194C15.3477 8.24318 15.3331 7.99709 15.3331 7.74954L15.3338 7.69387C15.3338 5.96905 16.0743 4.32324 17.3655 3.18083L16.814 2.55828V2.55609L17.3677 3.18082C18.4678 2.2038 19.8865 1.66694 21.3601 1.66694H21.3592Z" fill="#006595"/>
<path d="M40.9583 27.5262V18.916C40.9583 18.456 40.5855 18.0825 40.1248 18.0825H11.0835C10.6235 18.0825 10.25 18.4553 10.25 18.916V27.5262C10.25 27.9862 10.6228 28.3597 11.0835 28.3597H40.1248C40.5848 28.359 40.9576 27.9862 40.9576 27.5262H40.9583Z" fill="#006595"/>
<path d="M51.6544 18.0826C51.3614 18.0826 51.0897 18.2364 50.9388 18.4884L50.7645 18.7806C48.7811 22.1013 46.7978 25.4228 44.8115 28.7428C42.5204 32.58 43.4221 37.4806 46.9084 40.1406C48.3198 41.2187 49.9603 41.7885 51.6538 41.7885C53.3472 41.7885 54.9877 41.2187 56.3991 40.1406C59.8862 37.4798 60.7877 32.58 58.4961 28.7421C56.4528 25.3261 54.4107 21.9073 52.3695 18.4883C52.22 18.2363 51.9483 18.0825 51.6546 18.0825L51.6544 18.0826Z" fill="#006595"/>
<path d="M40.1257 33.5818H12.7925C12.3325 33.5818 11.959 33.9546 11.959 34.4153C11.959 34.8752 12.3318 35.2487 12.7925 35.2487H40.1257C40.5857 35.2487 40.9592 34.8759 40.9592 34.4153C40.9592 33.9553 40.5864 33.5818 40.1257 33.5818Z" fill="#006595"/>
<path d="M40.1257 41.3328H12.7925C12.3325 41.3328 11.959 41.7056 11.959 42.1662C11.959 42.6262 12.3318 42.9997 12.7925 42.9997H40.1257C40.5857 42.9997 40.9592 42.6269 40.9592 42.1662C40.9592 41.7056 40.5864 41.3328 40.1257 41.3328Z" fill="#006595"/>
<path d="M40.9592 49.9155C40.9592 49.4556 40.5864 49.082 40.1257 49.082H12.7925C12.3325 49.082 11.959 49.4548 11.959 49.9155C11.959 50.3755 12.3318 50.749 12.7925 50.749H40.1257C40.5864 50.749 40.9592 50.3755 40.9592 49.9155Z" fill="#006595"/>
<path d="M48.3204 70.6209C47.8663 70.6963 47.5594 71.1255 47.6349 71.5796C47.7682 72.3853 47.8363 73.2085 47.8363 74.0266C47.8363 82.1139 41.3127 88.6932 33.295 88.6932C25.2765 88.6932 18.7529 82.1132 18.7529 74.0266C18.7529 65.9393 25.2765 59.3601 33.2942 59.3601C35.5618 59.3601 37.7356 59.8728 39.754 60.8842C40.1649 61.09 40.6666 60.9238 40.8724 60.5129C41.079 60.1013 40.912 59.6003 40.5011 59.3945C38.2489 58.2659 35.824 57.6938 33.2941 57.6938C24.3572 57.6938 17.0859 65.0208 17.0859 74.0265C17.0859 83.0329 24.3565 90.3591 33.2941 90.3591C42.2309 90.3591 49.5022 83.0321 49.5022 74.0265C49.5022 73.1168 49.4268 72.2021 49.2788 71.307C49.2034 70.8529 48.7742 70.5475 48.3201 70.6208L48.3204 70.6209Z" fill="#006595"/>
<path d="M52.0831 56.8325H46.9585C46.689 56.8325 46.437 56.9621 46.2803 57.1811L31.8284 77.4158L28.9507 69.4391C28.8313 69.1088 28.5179 68.8883 28.167 68.8883H23.0424C22.7721 68.8883 22.5187 69.0194 22.3627 69.2399C22.2067 69.4603 22.1664 69.7423 22.2558 69.9979L27.3804 84.635C27.4976 84.969 27.8133 85.1931 28.167 85.1931H34.1465C34.4241 85.1931 34.6833 85.0547 34.8379 84.8247L52.7753 58.1308C52.9467 57.8752 52.9635 57.5456 52.8192 57.2739C52.6742 57.0022 52.3915 56.8323 52.0832 56.8323L52.0831 56.8325Z" fill="#006595"/>
</g>
</svg>
