<svg width="30" height="30" viewBox="0 0 30 30" fill="none" xmlns="http://www.w3.org/2000/svg">
<path d="M27.5663 8.39343C27.6812 8.39343 27.7915 8.34853 27.8727 8.26861C27.9539 8.18869 27.9996 8.08023 27.9996 7.9672V5.40983C27.9996 5.2968 27.9539 5.18834 27.8727 5.10842C27.7914 5.0285 27.6812 4.9836 27.5663 4.9836H19.4355C18.9688 3.80481 18.0374 2.86175 16.8527 2.36932C15.6682 1.87689 14.3314 1.87689 13.1469 2.36932C11.9622 2.86175 11.0308 3.80481 10.5642 4.9836H2.43333C2.19403 4.9836 2 5.17445 2 5.40983V7.9672C2 8.08023 2.04566 8.18869 2.1269 8.26861C2.20815 8.34853 2.31842 8.39343 2.43333 8.39343H3.73333V24.5902H2.43333C2.19403 24.5902 2 24.781 2 25.0164V27.5738C2 27.6868 2.04566 27.7953 2.1269 27.8752C2.20815 27.9551 2.31842 28 2.43333 28H27.5667C27.6816 28 27.7918 27.9551 27.8731 27.8752C27.9543 27.7953 28 27.6868 28 27.5738V25.0164C28 24.9034 27.9543 24.7949 27.8731 24.715C27.7918 24.6351 27.6816 24.5902 27.5667 24.5902H26.2667V8.39343H27.5663ZM19.687 5.83606H27.1329V7.54097H19.687C19.7017 7.46391 19.7091 7.38532 19.7199 7.30731C19.7273 7.25232 19.7373 7.19771 19.7429 7.14233C19.7576 6.99201 19.7663 6.84074 19.7663 6.68851C19.7663 6.53629 19.7576 6.38501 19.7429 6.2345C19.7373 6.17913 19.7273 6.12452 19.7199 6.06953C19.7091 5.9917 19.7017 5.91312 19.687 5.83606ZM14.9997 2.85245C15.8298 2.8534 16.6381 3.11446 17.3072 3.59779C17.9762 4.0811 18.4714 4.76157 18.7208 5.54018C18.7722 5.70496 18.8119 5.87298 18.8399 6.04328C18.8473 6.0859 18.8539 6.12852 18.8599 6.17114C18.8848 6.34259 18.8982 6.51536 18.8997 6.68851C18.8982 6.86224 18.8848 7.03559 18.8599 7.20759C18.8539 7.25021 18.8473 7.29284 18.8399 7.33546C18.8119 7.50557 18.7722 7.67378 18.7208 7.83855C18.3871 8.88435 17.6144 9.73964 16.5978 10.1889C15.5815 10.6382 14.418 10.6382 13.4016 10.1889C12.385 9.73965 11.6124 8.88435 11.2787 7.83855C11.2272 7.67377 11.1876 7.50557 11.1595 7.33546C11.1522 7.29284 11.1456 7.25021 11.1396 7.20759C11.1146 7.03558 11.1013 6.86223 11.0997 6.68851C11.1013 6.51479 11.1146 6.34144 11.1396 6.16944C11.1456 6.12682 11.1522 6.08419 11.1595 6.04157C11.1876 5.87146 11.2272 5.70325 11.2787 5.53847C11.5284 4.76006 12.0237 4.08013 12.6928 3.59706C13.3618 3.11412 14.1698 2.85323 14.9998 2.8525L14.9997 2.85245ZM2.86637 5.83606H10.3123C10.2976 5.91312 10.2902 5.9917 10.2794 6.06972C10.272 6.12471 10.262 6.17932 10.2564 6.23469C10.2417 6.38501 10.233 6.53629 10.233 6.68851C10.233 6.84074 10.2417 6.99201 10.2564 7.14252C10.262 7.1979 10.272 7.25251 10.2794 7.3075C10.2902 7.38551 10.2976 7.46391 10.3123 7.54116L2.86637 7.54097V5.83606ZM27.133 27.1475H2.86637V25.4426H27.133V27.1475ZM17.5997 24.5902H12.3997V18.1967H17.5997V24.5902ZM25.3997 24.5902H18.4664V17.7705C18.4664 17.6575 18.4207 17.549 18.3395 17.4691C18.2582 17.3892 18.1479 17.3443 18.033 17.3443H11.9664C11.7271 17.3443 11.533 17.5351 11.533 17.7705V24.5902H4.5997V8.39343H10.5564C11.0018 9.59677 11.9315 10.5662 13.127 11.0734C14.3224 11.5807 15.6773 11.5807 16.8726 11.0734C18.0682 10.5663 18.9979 9.59681 19.4432 8.39343H25.4L25.3997 24.5902Z" fill="#01CD74" stroke="#01CD74" stroke-width="0.3"/>
<path d="M9.52414 12.6229H6.8684C6.62398 12.6229 6.42578 12.8211 6.42578 13.0655V16.6065C6.42578 16.7239 6.47242 16.8365 6.55541 16.9195C6.6384 17.0025 6.75103 17.0492 6.8684 17.0492H9.52414C9.64152 17.0492 9.75415 17.0025 9.83714 16.9195C9.92013 16.8365 9.96677 16.7239 9.96677 16.6065V13.0655C9.96677 12.9482 9.92013 12.8355 9.83714 12.7526C9.75415 12.6696 9.64152 12.6229 9.52414 12.6229ZM9.08152 16.1639H7.31103V13.5082H9.08152V16.1639Z" fill="#01CD74"/>
<path d="M21.0325 17.0492H23.6882C23.8056 17.0492 23.9182 17.0025 24.0012 16.9195C24.0842 16.8365 24.1308 16.7239 24.1308 16.6065V13.0655C24.1308 12.9482 24.0842 12.8355 24.0012 12.7526C23.9182 12.6696 23.8056 12.6229 23.6882 12.6229H21.0325C20.788 12.6229 20.5898 12.8211 20.5898 13.0655V16.6065C20.5898 16.7239 20.6365 16.8365 20.7195 16.9195C20.8025 17.0025 20.9151 17.0492 21.0325 17.0492ZM21.4751 13.5082H23.2456V16.1639H21.4751V13.5082Z" fill="#01CD74"/>
<path d="M14.75 4C14.0207 4 13.3212 4.28972 12.8054 4.80544C12.2897 5.32116 12 6.02066 12 6.75C12 7.47934 12.2897 8.17884 12.8054 8.69456C13.3212 9.21028 14.0207 9.5 14.75 9.5C15.4793 9.5 16.1788 9.21028 16.6946 8.69456C17.2103 8.17884 17.5 7.47934 17.5 6.75C17.4992 6.02095 17.2091 5.32193 16.6936 4.80638C16.1781 4.29084 15.4791 4.00085 14.75 4ZM16.2308 7.38462H15.3846V8.23077H14.1154V7.38462H13.2692V6.11538H14.1154V5.26923H15.3846V6.11538H16.2308V7.38462Z" fill="#01CD74"/>
</svg>
