<svg width="29" height="29" viewBox="0 0 29 29" fill="none" xmlns="http://www.w3.org/2000/svg">
<path d="M0 0H19C24.5228 0 29 4.47715 29 10V29H10C4.47715 29 0 24.5228 0 19V0Z" fill="#003987"/>
<path d="M14.4915 6C9.7995 6 6 9.808 6 14.5C6 19.192 9.7995 23 14.4915 23C19.192 23 23 19.192 23 14.5C23 9.808 19.192 6 14.4915 6ZM14.5 21.3C10.743 21.3 7.7 18.257 7.7 14.5C7.7 10.743 10.743 7.7 14.5 7.7C18.257 7.7 21.3 10.743 21.3 14.5C21.3 18.257 18.257 21.3 14.5 21.3Z" fill="white"/>
<path d="M14.9234 10.25H13.6484V15.35L18.1109 18.0275L18.7484 16.982L14.9234 14.7125V10.25Z" fill="white"/>
</svg>
