<?xml version="1.0" encoding="UTF-8"?><svg id="Layer_1" xmlns="http://www.w3.org/2000/svg" xmlns:xlink="http://www.w3.org/1999/xlink" viewBox="0 0 348 172.3"><defs><style>.cls-1{fill:url(#linear-gradient-2);}.cls-2{fill:url(#linear-gradient-6);}.cls-3{fill:#ff0b00;}.cls-4{fill:url(#linear-gradient-10);}.cls-5{fill:#01cd74;}.cls-6{fill:url(#linear-gradient-5);}.cls-7{fill:#fff200;}.cls-8{fill:url(#linear-gradient-7);}.cls-9{fill:url(#linear-gradient-9);}.cls-10{fill:#adcad8;}.cls-11{fill:url(#linear-gradient-3);}.cls-12{fill:#f90;}.cls-13{fill:url(#linear-gradient);}.cls-14{fill:url(#linear-gradient-4);}.cls-15{fill:url(#linear-gradient-8);}</style><linearGradient id="linear-gradient" x1="260.78" y1="25.16" x2="316.04" y2="96.76" gradientTransform="matrix(1, 0, 0, 1, 0, 0)" gradientUnits="userSpaceOnUse"><stop offset="0" stop-color="#01cd74"/><stop offset="1" stop-color="#3661ed"/></linearGradient><linearGradient id="linear-gradient-2" x1="77.55" y1="32.15" x2="114.85" y2="103.27" gradientTransform="matrix(1, 0, 0, 1, 0, 0)" gradientUnits="userSpaceOnUse"><stop offset="0" stop-color="#01cd74"/><stop offset="1" stop-color="#3661ed"/></linearGradient><linearGradient id="linear-gradient-3" x1="279.23" y1="63.47" x2="317.83" y2="63.47" gradientTransform="matrix(1, 0, 0, 1, 0, 0)" gradientUnits="userSpaceOnUse"><stop offset=".09" stop-color="#000" stop-opacity=".6"/><stop offset=".86" stop-color="#848484" stop-opacity="0"/></linearGradient><linearGradient id="linear-gradient-4" x1="99.74" y1="95.48" x2="117.16" y2="95.48" xlink:href="#linear-gradient-3"/><linearGradient id="linear-gradient-5" x1="41.5" y1="25.82" x2="85.42" y2="104.97" xlink:href="#linear-gradient-2"/><linearGradient id="linear-gradient-6" x1="40.1" y1="81.74" x2="62.23" y2="81.74" xlink:href="#linear-gradient-3"/><linearGradient id="linear-gradient-7" x1="216.94" y1="27.25" x2="262.56" y2="100.44" gradientTransform="matrix(1, 0, 0, 1, 0, 0)" gradientUnits="userSpaceOnUse"><stop offset="0" stop-color="#01cd74"/><stop offset="1" stop-color="#3661ed"/></linearGradient><linearGradient id="linear-gradient-8" x1="216.7" y1="81.74" x2="238.82" y2="81.74" xlink:href="#linear-gradient-3"/><linearGradient id="linear-gradient-9" x1="242.96" y1="-1102.08" x2="251.44" y2="-1090.75" gradientTransform="translate(-750.03 707.85) rotate(41.55)" gradientUnits="userSpaceOnUse"><stop offset="0" stop-color="#01cd74"/><stop offset="1" stop-color="#3661a9"/></linearGradient><linearGradient id="linear-gradient-10" x1="141.38" y1="56.01" x2="165.04" y2="98.28" gradientTransform="matrix(1, 0, 0, 1, 0, 0)" xlink:href="#linear-gradient-9"/></defs><g><polygon class="cls-13" points="318.69 35.72 311.67 26.85 279.23 52.52 279.23 26.18 267.92 26.18 267.92 61.48 267.91 61.49 267.92 62.32 267.92 98.89 279.23 98.89 279.23 75.57 311.78 100.09 318.59 91.06 282.83 64.11 318.69 35.72"/><polygon class="cls-1" points="124.7 89.95 99.74 89.88 99.74 26.18 88.43 26.18 88.43 89.84 88.4 89.84 88.35 101.04 88.43 101.04 88.43 101.05 90.83 101.05 124.65 101.15 124.7 89.95"/><polygon class="cls-11" points="310.94 99.47 279.23 75.57 279.23 52.52 310.87 27.48 317.83 36.27 282.68 64.1 317.71 90.49 310.94 99.47"/><polygon class="cls-14" points="117.14 101.09 99.74 101.07 99.74 89.88 117.16 89.95 117.14 101.09"/><path class="cls-6" d="M66.21,100.04c-20.35,0-36.9-16.55-36.9-36.9S45.86,26.23,66.21,26.23c5.46,0,10.73,1.17,15.64,3.47l-4.8,10.25c-3.4-1.59-7.05-2.4-10.84-2.4-14.11,0-25.58,11.48-25.58,25.58s11.48,25.59,25.58,25.59c3.77,0,7.39-.8,10.77-2.37l4.78,10.26c-4.89,2.28-10.12,3.43-15.55,3.43Z"/><path class="cls-2" d="M40.62,63.63l.11,26.21s7.92,8.5,21.64,10.01c.96-8.97,1.2-11.26,1.2-11.26,0,0-8.74-.48-15.83-7.75-.21-.22-.42-.44-.63-.67-2.36-2.63-6.2-8.25-6.49-16.53Z"/><path class="cls-8" d="M242.8,100.04c-20.35,0-36.9-16.55-36.9-36.9s16.55-36.9,36.9-36.9c5.46,0,10.73,1.17,15.64,3.47l-4.8,10.25c-3.4-1.59-7.05-2.4-10.84-2.4-14.11,0-25.59,11.48-25.59,25.58s11.48,25.59,25.59,25.59c3.77,0,7.39-.8,10.78-2.37l4.77,10.26c-4.89,2.28-10.12,3.43-15.55,3.43Z"/><path class="cls-15" d="M217.21,63.63l.11,26.21s7.92,8.5,21.64,10.01c.96-8.97,1.2-11.26,1.2-11.26,0,0-8.74-.48-15.83-7.75-.21-.22-.42-.44-.63-.67-2.36-2.63-6.2-8.25-6.49-16.53Z"/><path class="cls-7" d="M164.1,88.76l-.02,11c-.08,0-.17,0-.25,0-3.86,.04-7.63-.55-11.19-1.65,2.76-2.57,5.89-5.81,8.62-9.45,.86,.09,1.73,.12,2.59,.1,.09,0,.17,0,.25,0Z"/><path class="cls-12" d="M199.87,58.06l.04,.25c.19,1.41,.28,2.82,.29,4.2,.01,.09,.01,.17,0,.25l-11-.03c0-.08,0-.17,0-.25-.01-.9-.08-1.8-.2-2.71l-.04-.25c-1.75-12.59-12.41-21.81-24.75-22.13l.03-11.01c17.75,.35,33.13,13.58,35.62,31.68Z"/><path class="cls-7" d="M200.2,62.76c.17,18.18-13.23,34.12-31.67,36.65l-.25,.04c-1.41,.18-2.81,.28-4.2,.3l.02-11c.91-.02,1.81-.08,2.72-.21l.25-.04c12.94-1.8,22.31-13.01,22.13-25.78l11,.03Z"/><path class="cls-3" d="M164.25,26.38l-.03,11.01c-.08-.01-.17,0-.25,0-1.24-.02-2.48,.04-3.74,.21l-.25,.03c-12.5,1.74-21.66,12.32-22.12,24.53h-11.01c.43-17.66,13.63-32.94,31.67-35.43l.25-.04c1.76-.23,3.5-.33,5.23-.31h.25Z"/><path class="cls-7" d="M161.26,88.65c-2.73,3.64-5.86,6.89-8.61,9.45-.81-.24-1.6-.53-2.38-.83-.2-.08-.4-.16-.6-.24,.59-.52,1.21-1.08,1.85-1.68,2.14-1.99,4.53-4.42,6.73-7.15,.99,.22,1.99,.36,3.01,.45Z"/><path class="cls-5" d="M138.35,68.18h-11.15s-.01-.03-.01-.04h0c-.12-.84-.25-1.87-.32-2.98h11.07c.03,.39,.07,.8,.12,1.21,0,.09,.02,.18,.03,.28,.08,.5,.16,1.01,.27,1.53Z"/><path class="cls-5" d="M158.25,88.2c-2.2,2.73-4.59,5.16-6.73,7.15-.64,.6-1.26,1.16-1.85,1.68-.52-.21-1.04-.44-1.54-.68-10.05-4.67-17.8-13.78-20.38-25.17h11.41c2.42,7.29,7.95,12.98,14.86,15.74,.67,.27,1.37,.52,2.07,.73,.71,.22,1.43,.4,2.16,.55Z"/><ellipse class="cls-9" cx="162.23" cy="50.77" rx="4.86" ry="5.37" transform="translate(18.93 142.21) rotate(-49.92)"/><path class="cls-4" d="M167.13,71.2c-.4,2.24-1.87,5.71-3.96,9.69-1.04,1.98-2.29,3.9-3.66,5.7-.41,.55-.83,1.09-1.26,1.61-2.2,2.73-4.59,5.16-6.73,7.15-.64,.6-1.26,1.16-1.85,1.68-2.71,2.39-4.7,3.83-4.86,3.94,1.14-1.5,2.25-3.04,3.32-4.62,.21-.31,.42-.61,.62-.92,.19-.29,.39-.57,.57-.85,1.75-2.65,3.31-5.21,4.7-7.66,.24-.42,.47-.84,.7-1.26,4.23-7.72,6.48-14.09,6.28-17.83-.07-1.37-.2-5.98-10.89-5.78,0,0-12.05,.05-12.3,.05l4.87-1.37c.57-.14,14.84-3.73,19.94-2.09,4.94,1.57,5.4,7.57,4.51,12.56Z"/></g><g><polygon class="cls-10" points="61.51 113.67 61.51 127.62 42.87 127.62 42.87 113.67 38.23 113.67 38.23 146.12 42.87 146.12 42.87 131.65 61.51 131.65 61.51 146.12 66.14 146.12 66.14 113.67 61.51 113.67"/><polygon class="cls-10" points="98.36 142.09 98.36 131.61 114.63 131.61 114.63 127.67 98.36 127.67 98.36 117.7 116.63 117.7 116.63 113.67 93.73 113.67 93.73 146.12 117.28 146.12 117.28 142.09 98.36 142.09"/><path class="cls-10" d="M166.88,146.12h4.87l-14.74-32.45h-4.59l-14.7,32.45h4.78l3.57-8.11h17.26l3.57,8.11Zm-19.19-11.82l7-15.92,7,15.92h-14Z"/><polygon class="cls-10" points="199.06 142.09 199.06 113.67 194.42 113.67 194.42 146.12 216.63 146.12 216.63 142.09 199.06 142.09"/><polygon class="cls-10" points="232.11 113.67 232.11 117.7 243.24 117.7 243.24 146.12 247.83 146.12 247.83 117.7 258.96 117.7 258.96 113.67 232.11 113.67"/><polygon class="cls-10" points="305.13 113.67 305.13 127.62 286.49 127.62 286.49 113.67 281.86 113.67 281.86 146.12 286.49 146.12 286.49 131.65 305.13 131.65 305.13 146.12 309.77 146.12 309.77 113.67 305.13 113.67"/></g></svg>