<svg width="36" height="36" viewBox="0 0 36 36" fill="none" xmlns="http://www.w3.org/2000/svg">
<circle cx="18" cy="18" r="18" fill="#2196F3"/>
<path d="M29 18C29 16.5555 28.7155 15.1251 28.1627 13.7905C27.6099 12.4559 26.7996 11.2433 25.7782 10.2218C24.7567 9.20038 23.5441 8.39013 22.2095 7.83732C20.8749 7.28452 19.4445 7 18 7L18 18H29Z" fill="#FF9900"/>
<path d="M18 29C19.4445 29 20.8749 28.7155 22.2095 28.1627C23.5441 27.6099 24.7567 26.7996 25.7782 25.7782C26.7996 24.7567 27.6099 23.5441 28.1627 22.2095C28.7155 20.8749 29 19.4445 29 18L18 18L18 29Z" fill="#FFF200"/>
<path d="M7 18C7 19.4445 7.28452 20.8749 7.83733 22.2095C8.39013 23.5441 9.20038 24.7567 10.2218 25.7782C11.2433 26.7996 12.4559 27.6099 13.7905 28.1627C15.1251 28.7155 16.5555 29 18 29L18 18L7 18Z" fill="#01CD74"/>
<path d="M18 7C16.5555 7 15.1251 7.28452 13.7905 7.83733C12.4559 8.39013 11.2433 9.20038 10.2218 10.2218C9.20038 11.2433 8.39013 12.4559 7.83732 13.7905C7.28452 15.1251 7 16.5555 7 18L18 18L18 7Z" fill="#FF0B00"/>
</svg>
