<svg width="17" height="26" viewBox="0 0 17 26" fill="none" xmlns="http://www.w3.org/2000/svg">
<path d="M4.14941 1.87826C4.14941 2.4494 4.61401 2.91399 5.18515 2.91399H11.8159C12.3871 2.91399 12.8517 2.4494 12.8517 1.87826L12.8515 1.87167C12.8515 1.30053 12.3869 0.835938 11.8158 0.835938L5.18497 0.836115C4.61401 0.836115 4.14942 1.30071 4.14942 1.87167L4.14941 1.87826Z" fill="#757575"/>
<path d="M15.5572 0.418352H12.9901C12.6581 0.148166 12.2427 0 11.8123 0H5.18743C4.7568 0 4.34166 0.148166 4.00939 0.418352H1.44255C0.647097 0.418352 0 1.07005 0 1.87101V24.047C0 24.8479 0.647097 25.4994 1.44255 25.4994H15.5575C16.3527 25.4994 17 24.8479 17 24.047V1.87101C17 1.07005 16.3529 0.418352 15.5575 0.418352H15.5572ZM13.6367 2.28688H15.1429V22.5854H1.85673V2.28688H3.36293C3.54935 3.13282 4.30405 3.7506 5.18734 3.7506H11.8122C12.6957 3.7506 13.4506 3.13287 13.6368 2.28688H13.6367ZM5.18724 0.404828H11.8121C12.17 0.404828 12.5145 0.535386 12.7819 0.772308L12.9163 0.620586V0.62112L12.7824 0.772309C13.096 1.04997 13.2758 1.44946 13.2758 1.86833L13.276 1.88203C13.276 1.94215 13.2724 2.00191 13.2653 2.06008C13.1767 2.79292 12.5521 3.34571 11.8123 3.34571H5.18744C4.44768 3.34571 3.82298 2.79306 3.73442 2.0599C3.7273 2.00191 3.72375 1.94215 3.72375 1.88203L3.72392 1.86851C3.72392 1.44963 3.90375 1.04993 4.21734 0.772487L4.0834 0.621297V0.620764L4.21787 0.772486C4.48503 0.535208 4.82959 0.404828 5.18745 0.404828H5.18724Z" fill="#757575"/>
<path d="M9.94699 6.68507V4.59402C9.94699 4.48232 9.85645 4.3916 9.74457 4.3916H2.69167C2.57997 4.3916 2.48926 4.48214 2.48926 4.59402V6.68507C2.48926 6.79677 2.57979 6.88749 2.69167 6.88749H9.74457C9.85628 6.88731 9.94681 6.79677 9.94681 6.68507H9.94699Z" fill="#757575"/>
<path d="M12.5447 4.39162C12.4735 4.39162 12.4075 4.42897 12.3709 4.49016L12.3285 4.56113C11.8469 5.3676 11.3652 6.17425 10.8828 6.98054C10.3264 7.91241 10.5454 9.10256 11.3921 9.74856C11.7348 10.0104 12.1332 10.1488 12.5445 10.1488C12.9558 10.1488 13.3542 10.0104 13.697 9.74856C14.5438 9.10237 14.7628 7.91241 14.2062 6.98036C13.71 6.15076 13.2141 5.32047 12.7183 4.49014C12.682 4.42895 12.616 4.3916 12.5447 4.3916L12.5447 4.39162Z" fill="#757575"/>
<path d="M9.74479 8.15552H3.10671C2.99501 8.15552 2.9043 8.24605 2.9043 8.35793C2.9043 8.46964 2.99483 8.56035 3.10671 8.56035H9.74479C9.85649 8.56035 9.94721 8.46981 9.94721 8.35793C9.94721 8.24623 9.85667 8.15552 9.74479 8.15552Z" fill="#757575"/>
<path d="M9.74479 10.0381H3.10671C2.99501 10.0381 2.9043 10.1286 2.9043 10.2405C2.9043 10.3522 2.99483 10.4429 3.10671 10.4429H9.74479C9.85649 10.4429 9.94721 10.3524 9.94721 10.2405C9.94721 10.1286 9.85667 10.0381 9.74479 10.0381Z" fill="#757575"/>
<path d="M9.94721 12.1223C9.94721 12.0106 9.85667 11.9199 9.74479 11.9199H3.10671C2.99501 11.9199 2.9043 12.0105 2.9043 12.1223C2.9043 12.234 2.99483 12.3248 3.10671 12.3248H9.74479C9.85667 12.3248 9.94721 12.234 9.94721 12.1223Z" fill="#757575"/>
<path d="M11.7349 17.1509C11.6246 17.1692 11.5501 17.2734 11.5684 17.3837C11.6008 17.5794 11.6174 17.7793 11.6174 17.978C11.6174 19.9421 10.0331 21.5399 8.08589 21.5399C6.13855 21.5399 4.55425 19.9419 4.55425 17.978C4.55425 16.0139 6.13855 14.4161 8.08571 14.4161C8.63641 14.4161 9.16434 14.5406 9.65452 14.7863C9.75431 14.8363 9.87615 14.7959 9.92613 14.6961C9.97629 14.5961 9.93574 14.4745 9.83595 14.4245C9.28898 14.1504 8.70008 14.0115 8.08568 14.0115C5.9153 14.0115 4.14941 15.7909 4.14941 17.978C4.14941 20.1652 5.91512 21.9445 8.08568 21.9445C10.2561 21.9445 12.0219 20.1651 12.0219 17.978C12.0219 17.7571 12.0036 17.5349 11.9677 17.3175C11.9494 17.2073 11.8451 17.1331 11.7349 17.1509L11.7349 17.1509Z" fill="#757575"/>
<path d="M12.6487 13.8021H11.4041C11.3387 13.8021 11.2775 13.8335 11.2394 13.8867L7.7297 18.8008L7.03083 16.8637C7.00184 16.7834 6.92571 16.7299 6.84051 16.7299H5.59595C5.53031 16.7299 5.46877 16.7617 5.43088 16.8153C5.393 16.8688 5.38321 16.9373 5.40492 16.9994L6.64948 20.5541C6.67793 20.6352 6.7546 20.6896 6.84051 20.6896H8.29266C8.36007 20.6896 8.42304 20.656 8.46057 20.6002L12.8168 14.1174C12.8584 14.0553 12.8625 13.9752 12.8275 13.9093C12.7923 13.8433 12.7236 13.802 12.6487 13.802L12.6487 13.8021Z" fill="#757575"/>
</svg>
