<svg width="23" height="24" viewBox="0 0 23 24" fill="none" xmlns="http://www.w3.org/2000/svg">
<path d="M21.8695 3.59284H16.4727V2.87427C16.4727 1.29337 15.2013 0 13.6472 0H9.35248C7.79838 0 6.52693 1.29337 6.52693 2.87427V3.59284H1.13012C0.508499 3.59284 0 4.1101 0 4.74244C0 5.37478 0.508499 5.89205 1.13012 5.89205H2.71238L3.16451 19.5448C3.24927 22.0454 5.22712 24 7.6855 24H15.3145C17.7727 24 19.7507 22.0456 19.8355 19.5448L20.2876 5.89205H21.8699C22.4915 5.89205 23 5.37478 23 4.74244C23 4.1101 22.4912 3.59284 21.8695 3.59284ZM8.78722 2.87427C8.78722 2.55809 9.04148 2.29947 9.35228 2.29947H13.6472C13.958 2.29947 14.2122 2.55811 14.2122 2.87427V3.59284H8.78717L8.78722 2.87427ZM9.23936 17.9929C9.23936 18.6253 8.73086 19.1425 8.10923 19.1425C7.48761 19.1425 6.97911 18.6253 6.97911 17.9929L6.97892 9.39886C6.97892 8.76652 7.48741 8.24926 8.10904 8.24926C8.73066 8.24926 9.23916 8.76652 9.23916 9.39886L9.23936 17.9929ZM12.63 17.9929C12.63 18.6253 12.1215 19.1425 11.4998 19.1425C10.8782 19.1425 10.3697 18.6253 10.3697 17.9929V9.39886C10.3697 8.76652 10.8782 8.24926 11.4998 8.24926C12.1215 8.24926 12.63 8.76652 12.63 9.39886V17.9929ZM16.0208 17.9929C16.0208 18.6253 15.5123 19.1425 14.8907 19.1425C14.269 19.1425 13.7605 18.6253 13.7605 17.9929L13.7603 9.39886C13.7603 8.76652 14.2688 8.24926 14.8905 8.24926C15.5121 8.24926 16.0206 8.76652 16.0206 9.39886L16.0208 17.9929Z" fill="#94A7B6"/>
</svg>
