<svg width="24" height="24" viewBox="0 0 24 24" fill="none" xmlns="http://www.w3.org/2000/svg">
<path d="M0.5 4C0.5 2.067 2.067 0.5 4 0.5H20C21.933 0.5 23.5 2.067 23.5 4V20C23.5 21.933 21.933 23.5 20 23.5H4C2.067 23.5 0.5 21.933 0.5 20V4Z" fill="#EFF7FF" stroke="#CFE7FF"/>
<path d="M14.8571 9.66667V17.4444H9.14286V9.66667H14.8571ZM13.7857 5H10.2143L9.5 5.77778H7V7.33333H17V5.77778H14.5L13.7857 5ZM16.2857 8.11111H7.71429V17.4444C7.71429 18.3 8.35714 19 9.14286 19H14.8571C15.6429 19 16.2857 18.3 16.2857 17.4444V8.11111Z" fill="#A1A1A1"/>
</svg>
