<svg width="31" height="30" viewBox="0 0 31 30" fill="none" xmlns="http://www.w3.org/2000/svg">
<path d="M30.2109 29.7029H0.751515C0.338182 29.7029 0 29.3647 0 28.9514V8.32232C0 7.90898 0.338182 7.5708 0.751515 7.5708H4.73455C5.14788 7.5708 5.48606 7.90898 5.48606 8.32232C5.48606 8.73565 5.14788 9.07383 4.73455 9.07383H1.50303V28.1623H29.497V9.07383H26.2655C25.8521 9.07383 25.5139 8.73565 25.5139 8.32232C25.5139 7.90898 25.8521 7.5708 26.2655 7.5708H30.2485C30.6618 7.5708 31 7.90898 31 8.32232V28.9138C30.9624 29.3647 30.6242 29.7029 30.2109 29.7029Z" fill="#2196F3"/>
<path d="M8.45464 13.583C8.04131 13.583 7.70312 13.2448 7.70312 12.8315V0.919972C7.70312 0.506639 8.04131 0.168457 8.45464 0.168457H22.508C22.9213 0.168457 23.2595 0.506639 23.2595 0.919972V12.7188C23.2595 13.1321 22.9213 13.4703 22.508 13.4703C22.0946 13.4703 21.7565 13.1321 21.7565 12.7188V1.67149H9.20616V12.8315C9.20616 13.2448 8.86797 13.583 8.45464 13.583Z" fill="#2196F3"/>
<path d="M30.1357 12.9442H26.2278C25.8145 12.9442 25.4763 12.606 25.4763 12.1927C25.4763 11.7793 25.8145 11.4412 26.2278 11.4412H30.1357C30.549 11.4412 30.8872 11.7793 30.8872 12.1927C30.8872 12.606 30.549 12.9442 30.1357 12.9442Z" fill="#2196F3"/>
<path d="M4.73455 12.9442H0.751515C0.338182 12.9442 0 12.606 0 12.1927C0 11.7793 0.338182 11.4412 0.751515 11.4412H4.73455C5.14788 11.4412 5.48606 11.7793 5.48606 12.1927C5.48606 12.606 5.14788 12.9442 4.73455 12.9442Z" fill="#2196F3"/>
<path d="M26.2278 26.0206H4.73443C4.32109 26.0206 3.98291 25.6824 3.98291 25.2691V0.919972C3.98291 0.506639 4.32109 0.168457 4.73443 0.168457H26.2278C26.6411 0.168457 26.9793 0.506639 26.9793 0.919972V25.2315C26.9793 25.6824 26.6411 26.0206 26.2278 26.0206ZM5.48594 24.5175H25.4762V1.67149H5.48594V24.5175Z" fill="#2196F3"/>
<path d="M19.2764 6.40635H11.6861C11.2728 6.40635 10.9346 6.06817 10.9346 5.65484C10.9346 5.2415 11.2728 4.90332 11.6861 4.90332H19.2388C19.6521 4.90332 19.9903 5.2415 19.9903 5.65484C19.9903 6.06817 19.6897 6.40635 19.2764 6.40635Z" fill="#2196F3"/>
<path d="M19.2764 10.2762H11.6861C11.2728 10.2762 10.9346 9.93804 10.9346 9.52471C10.9346 9.11138 11.2728 8.77319 11.6861 8.77319H19.2388C19.6521 8.77319 19.9903 9.11138 19.9903 9.52471C19.9903 9.93804 19.6897 10.2762 19.2764 10.2762Z" fill="#2196F3"/>
<path d="M26.2278 26.0205H4.73443C4.32109 26.0205 3.98291 25.6823 3.98291 25.269V11.8169C3.98291 11.5914 4.09564 11.366 4.28352 11.2157C4.47139 11.0654 4.73442 11.0278 4.95988 11.1029L5.33564 11.2157C7.77806 11.9296 11.4605 13.0193 14.955 13.0193C19.1635 13.0569 23.7853 11.6666 26.0023 10.9902C26.2278 10.9151 26.4908 10.9526 26.6787 11.1029C26.8665 11.2532 26.9793 11.4787 26.9793 11.7042V25.2314C26.9793 25.6823 26.6411 26.0205 26.2278 26.0205ZM5.48594 24.5175H25.4762V12.7187C22.9587 13.4326 18.8253 14.5599 14.9175 14.5223C11.4981 14.4848 7.96594 13.5454 5.44836 12.8314V24.5175H5.48594Z" fill="#2196F3"/>
<path d="M15.481 23.0148C14.6168 23.0148 13.8277 22.5639 13.3768 21.8124C12.9258 21.0608 12.9258 20.159 13.3768 19.4075L14.8046 16.9275C14.9549 16.7021 15.1804 16.5518 15.4434 16.5518C15.7065 16.5518 15.9695 16.7021 16.0822 16.9275L17.5101 19.4075C17.961 20.159 17.961 21.0608 17.5101 21.8124C17.1343 22.5639 16.3452 23.0148 15.481 23.0148ZM14.6919 20.159C14.4665 20.5724 14.6168 20.9105 14.6919 21.0608C14.7671 21.2112 14.9925 21.5118 15.481 21.5118C15.9695 21.5118 16.1949 21.2112 16.2701 21.0608C16.3452 20.9105 16.4955 20.5724 16.2701 20.159L15.481 18.8063L14.6919 20.159Z" fill="#2196F3"/>
</svg>
