<svg width="60" height="60" viewBox="0 0 60 60" fill="none" xmlns="http://www.w3.org/2000/svg">
<path d="M44.8125 28.3125H7.6875C6.75938 28.3125 6 29.0719 6 30V46.875C6 47.8031 6.75938 48.5625 7.6875 48.5625H44.8125C45.7423 48.5625 46.5 47.8031 46.5 46.875V30C46.5 29.0719 45.7423 28.3125 44.8125 28.3125ZM15.6002 43.5H12.3889C11.9434 43.5 11.4574 43.2553 11.4574 42.663V35.0001C11.4574 34.5141 11.9434 34.1631 12.3889 34.1631H15.4787C21.6448 34.1631 21.5098 43.5 15.6002 43.5ZM26.6719 43.635C24.1761 43.743 21.5841 42.0825 21.5841 38.7767C21.5841 35.4574 24.1744 33.8256 26.6719 33.8256C29.0327 33.9454 31.5032 35.5789 31.5032 38.7767C31.5032 41.9762 29.0344 43.635 26.6719 43.635ZM41.0258 42.5415C40.0791 43.4207 38.9468 43.5962 37.8263 43.5962C34.5626 43.5962 33.0894 41.3687 33.0894 38.7649C33.0894 36.1611 34.7246 33.9217 37.8263 33.9217C39.0024 33.9217 39.9323 34.2727 40.9178 35.1232C41.2806 35.4591 41.3228 36.0531 40.9566 36.4311C40.5938 36.7534 40.0403 36.7146 39.7146 36.3906C39.1644 35.8101 38.5974 35.6497 37.8263 35.6497C35.7506 35.6497 34.7516 37.1213 34.7516 38.7666C34.7516 40.4406 35.7371 41.9779 37.8263 41.9779C38.5974 41.9779 39.3129 41.6657 39.9323 41.1139C40.3508 40.7899 40.9313 40.9502 41.1743 41.2759C41.3886 41.5695 41.4966 42.069 41.0258 42.5415Z" fill="#747474"/>
<path d="M26.5252 35.5803C25.0132 35.5803 23.3679 36.6468 23.3679 38.7781C23.3679 40.8976 25.0149 41.9776 26.5252 41.9776C28.0777 41.9776 29.7365 40.8976 29.7365 38.7781C29.7365 36.6451 28.0777 35.5803 26.5252 35.5803Z" fill="#747474"/>
<path d="M15.4791 35.8083H13.2397V41.853H15.4791C19.1224 41.853 19.2844 35.8083 15.4791 35.8083Z" fill="#747474"/>
<path d="M51.5623 15.8014L40.4484 4.6875C39.473 3.70875 37.7585 3 36.3748 3H17.8123C15.0211 3 12.7498 5.27137 12.7498 8.0625V24.9375C12.7498 25.8707 13.5041 26.625 14.4373 26.625C15.3704 26.625 16.1248 25.8707 16.1248 24.9375V8.0625C16.1248 7.13269 16.8808 6.375 17.8123 6.375H32.9998C34.8644 6.375 36.3748 7.887 36.3748 9.75V16.0781C36.3748 18.1673 38.0859 19.875 40.1716 19.875H46.4998C48.3644 19.875 49.8748 21.387 49.8748 23.25V51.9375C49.8748 52.8673 49.1204 53.625 48.1873 53.625H17.8123C16.8808 53.625 16.1248 52.8673 16.1248 51.9375C16.1248 51.0043 15.3704 50.25 14.4373 50.25C13.5041 50.25 12.7498 51.0043 12.7498 51.9375C12.7498 54.7286 15.0211 57 17.8123 57H48.1873C50.9784 57 53.2498 54.7286 53.2498 51.9375V19.875C53.2498 18.4929 52.541 16.7784 51.5623 15.8014Z" fill="#747474"/>
</svg>
