<svg width="30" height="30" viewBox="0 0 30 30" fill="none" xmlns="http://www.w3.org/2000/svg">
<path d="M22.1742 19.9463C21.9318 19.7696 21.6895 19.593 21.4067 19.3721L20.5181 18.798C20.2757 18.6655 20.0334 18.533 19.7506 18.3564L19.4679 18.1797C19.2255 18.0472 18.9428 17.8706 18.66 17.7381C18.2965 17.5614 17.9734 17.3848 17.6098 17.2964L17.1655 17.1639L16.9635 17.5173C16.7616 17.8264 14.9035 19.7696 13.1263 21.5362C11.349 19.7255 9.49095 17.8264 9.28898 17.5173L9.08702 17.1639L8.6427 17.3406C8.31956 17.4289 7.99643 17.5614 7.63289 17.7822C7.35015 17.9147 7.0674 18.0914 6.78465 18.2239L6.46151 18.4005C6.38073 18.4447 6.29994 18.4889 6.21916 18.533L5.29013 19.1072C4.88621 19.3721 4.48228 19.6371 4.15914 19.9021C3.39169 20.5204 2.66462 21.1829 2.30109 22.0662C1.97795 22.8611 1.97795 23.7886 2.01835 24.5835V24.8927C2.01835 24.981 2.01835 25.9526 2.01835 27.2775C2.01835 28.205 2.70502 28.9999 3.59365 28.9999H22.6589C23.5071 28.9999 24.2342 28.2491 24.2342 27.2775C24.2342 26.3059 24.2342 24.981 24.2342 24.8927V24.6277C24.2746 23.8327 24.2746 22.9053 23.9514 22.1103C23.5879 21.1829 22.8608 20.5204 22.1742 19.9463ZM19.4275 22.9494C19.6698 23.0819 19.8718 23.3469 19.9526 23.6561C20.0334 23.9652 20.0334 24.2744 19.8718 24.5393C19.7506 24.8043 19.5083 25.0252 19.2255 25.1135C18.9428 25.2018 18.66 25.2018 18.4177 25.0252C18.1753 24.8927 17.9734 24.6277 17.8926 24.3185C17.8118 24.0094 17.8118 23.7002 17.9734 23.4352C18.0945 23.1703 18.3369 22.9494 18.6196 22.8611C18.7408 22.8169 18.8216 22.8169 18.9428 22.8169C19.1043 22.8169 19.2659 22.8611 19.4275 22.9494ZM23.2244 24.5393V24.8043C23.2244 24.8485 23.2244 25.2018 23.2244 27.2334C23.2244 27.5867 22.982 27.8517 22.6589 27.8517H3.59365C3.27051 27.8517 3.02816 27.5867 3.02816 27.2334C3.02816 25.6876 3.02816 24.8927 3.02816 24.8043V24.4952C2.98776 23.8327 2.98776 23.0819 3.23012 22.5078C3.51287 21.8453 4.11875 21.3154 4.72464 20.8296C5.00739 20.5646 5.37092 20.3438 5.73445 20.0788L6.21916 19.7696C6.29994 20.1671 6.38073 20.6087 6.50191 21.0062C6.25955 21.1387 6.05759 21.2712 5.89602 21.492C5.69406 21.7128 5.49209 21.9778 5.37092 22.287C5.12856 22.8611 5.04778 23.5236 5.16896 24.1419L5.69406 26.5709L7.26936 26.1734C7.55211 26.0851 7.71368 25.8201 7.63289 25.511C7.55211 25.2018 7.30975 25.0252 7.02701 25.1135L6.42112 25.246L6.13837 23.8769C6.05759 23.4794 6.09798 23.1261 6.25955 22.7728C6.34034 22.5961 6.46151 22.4195 6.58269 22.287C6.78465 22.0662 7.02701 21.9337 7.30975 21.8453C7.5925 21.757 7.87525 21.8012 8.1176 21.8895C8.23878 21.9337 8.35996 21.9778 8.48113 22.0662C8.52153 22.1103 8.56192 22.1103 8.60231 22.1545C8.88506 22.3753 9.08702 22.7286 9.16781 23.0819L9.45055 24.451L8.84467 24.5835C8.56192 24.6718 8.40035 24.9368 8.48113 25.246C8.56192 25.5551 8.80427 25.7318 9.08702 25.6435L10.6623 25.246L10.1372 22.8169C10.016 22.1987 9.69291 21.6245 9.24859 21.2712C9.16781 21.1829 9.08702 21.1387 9.00624 21.0945C8.84467 20.9621 8.6427 20.8737 8.40035 20.7854C8.1176 20.7412 7.79446 20.7412 7.47132 20.7412C7.30975 20.2996 7.22897 19.8138 7.14818 19.3721C7.14818 19.328 7.14818 19.328 7.10779 19.2838L7.18858 19.2397C7.43093 19.1072 7.71368 18.9305 7.99643 18.798C8.23878 18.6655 8.44074 18.5772 8.6831 18.4889C9.53134 19.4605 11.9549 21.9337 12.7627 22.7286L13.0859 23.0819L13.409 22.7286C14.2169 21.9337 16.6404 19.4605 17.4886 18.4889C17.6906 18.5772 17.933 18.6655 18.1753 18.798C18.4177 18.9305 18.7004 19.063 18.9428 19.1955L19.2255 19.3721C19.4275 19.5046 19.6294 19.593 19.8314 19.7255C19.7102 20.4321 19.5083 21.0945 19.1851 21.757C18.862 21.7128 18.5389 21.7128 18.2561 21.8453C17.731 22.022 17.2867 22.4195 17.0443 22.9936C16.802 23.5236 16.7616 24.1419 16.9232 24.716C17.0847 25.2901 17.4483 25.7759 17.9734 26.0409C18.2561 26.2176 18.5792 26.3059 18.9428 26.3059C19.1447 26.3059 19.3871 26.2618 19.5891 26.2176C20.1142 26.0409 20.5585 25.6435 20.8008 25.0693C21.0432 24.5393 21.0836 23.9211 20.922 23.3469C20.8008 22.9053 20.5181 22.5078 20.1949 22.1987C20.4777 21.5804 20.6797 20.9621 20.8008 20.2996L20.8816 20.3438C21.124 20.5204 21.3663 20.6971 21.5683 20.8296C22.1742 21.3154 22.7801 21.8453 23.0628 22.5078C23.2648 23.0819 23.2648 23.8327 23.2244 24.5393Z" fill="#01CD74"/>
<path d="M7.22938 9.92118C7.22938 10.0978 7.26978 10.3187 7.31017 10.4953C7.31017 10.5836 7.35056 10.672 7.35056 10.7603C7.43135 11.6436 7.83527 12.3061 8.44116 12.6594C8.44116 12.6594 8.44116 12.7035 8.48155 12.7035C8.84508 14.2934 9.61254 15.4859 10.7031 16.325C10.8243 16.4133 10.9859 16.5458 11.1474 16.6342C11.3494 16.7666 11.6322 16.855 11.8745 16.9875H11.9149C12.1169 17.0758 12.3188 17.1641 12.5612 17.2083C12.7228 17.2525 12.9247 17.2525 13.0863 17.2525C13.1267 17.2525 13.1671 17.2525 13.2075 17.2525C13.4094 17.2525 13.571 17.2525 13.7326 17.2083C13.9345 17.1641 14.1365 17.12 14.3385 16.9875H14.3788C14.6616 16.8991 14.9039 16.7666 15.1463 16.6342C15.3079 16.5458 15.429 16.4575 15.5906 16.325C16.1965 15.8834 16.6812 15.3092 17.0851 14.6468C17.2467 14.3376 17.4083 14.0285 17.5698 13.5868C17.6102 13.4543 17.6506 13.2777 17.691 13.1452C17.7314 12.9685 17.7718 12.836 17.8122 12.7477C17.893 12.6594 17.9738 12.5269 18.0949 12.4385C18.1757 12.3944 18.2161 12.3061 18.2969 12.2619C18.7816 11.7761 18.9028 11.2019 18.9432 10.7161C18.9432 10.6278 18.9836 10.5395 18.9836 10.4512C19.024 10.2745 19.024 10.0537 19.0644 9.87702C19.0644 9.70036 19.0644 9.56787 19.0644 9.43538V9.39121C19.1048 8.86124 18.822 8.24294 18.2969 8.06628V8.02212V7.8013C18.2969 7.62464 18.3373 7.40382 18.3777 7.27133C18.4989 6.74136 18.5797 6.21138 18.5797 5.68141C18.62 3.91484 17.8122 2.45742 16.3581 1.75079C16.1965 1.66246 16.0349 1.6183 15.8734 1.52997C15.0251 1.17666 14.0961 1 13.1267 1C12.9247 1 12.7228 1 12.5208 1C11.9553 1.04416 11.1878 1.08833 10.5012 1.44164C10.4204 1.48581 10.3396 1.52997 10.2992 1.57414C10.0569 1.75079 9.8145 2.01578 9.65293 2.28076C9.61254 2.32493 9.57214 2.36909 9.57214 2.41326C9.49136 2.54575 9.45097 2.58991 9.37018 2.67824C9.20861 2.81074 9.08743 2.89906 8.92587 2.98739C8.64312 3.11989 8.40076 3.34071 8.23919 3.64986C8.03723 4.13566 7.91605 4.66564 7.87566 5.28393C7.83527 5.90223 7.87566 6.52053 7.91605 7.00634C7.91605 7.22716 7.95645 7.44798 7.99684 7.71297C8.03723 7.84546 8.03723 7.97796 8.07762 8.15461C8.07762 8.15461 8.07762 8.15461 8.03723 8.15461C7.47174 8.28711 7.18899 8.94957 7.22938 9.52371V9.56787C7.22938 9.61204 7.22938 9.74453 7.22938 9.92118ZM8.27959 9.17039C8.31998 9.17039 8.36037 9.17039 8.36037 9.17039C8.40076 9.17039 8.44116 9.17039 8.48155 9.17039C8.52194 9.17039 8.56233 9.17039 8.60273 9.17039H8.68351L8.7643 9.12623C8.96626 8.99374 9.08743 8.77291 9.08743 8.50793C9.08743 8.15461 9.04704 7.8013 8.96626 7.49215C8.92587 7.31549 8.88547 7.13883 8.88547 6.96218C8.84508 6.52053 8.84508 5.9464 8.84508 5.37226C8.84508 4.93062 8.92586 4.57731 9.04704 4.31232C9.08743 4.22399 9.16822 4.17983 9.249 4.13566C9.49136 4.04734 9.69332 3.87068 9.89528 3.69402C10.1376 3.4732 10.2184 3.34071 10.2992 3.16405L10.38 3.03156C10.5012 2.8549 10.6223 2.72241 10.7435 2.63408C10.7839 2.58991 10.8243 2.58991 10.8647 2.54575C11.309 2.32493 11.8745 2.2366 12.5208 2.19244C12.6824 2.19244 12.8843 2.19244 13.0459 2.19244C13.8941 2.19244 14.702 2.36909 15.429 2.67824C15.5502 2.72241 15.7118 2.81074 15.833 2.8549C16.9236 3.38487 17.4891 4.44481 17.4487 5.76974C17.4487 6.21139 17.3679 6.65303 17.2871 7.13883C17.2467 7.35966 17.2063 7.62464 17.2063 7.84546L17.1659 8.11045C17.1255 8.33127 17.0851 8.55209 17.1659 8.81708C17.3275 9.25872 17.7314 9.25872 17.8526 9.25872C17.893 9.30288 17.9334 9.39121 17.9334 9.47954V9.56787V9.61203C17.9334 9.74453 17.9334 9.83286 17.9334 9.96535C17.9334 10.142 17.893 10.2745 17.893 10.4512C17.893 10.5395 17.8526 10.672 17.8526 10.7603C17.8122 11.1578 17.7314 11.4228 17.5295 11.5994C17.4891 11.6436 17.4083 11.6878 17.3679 11.7319C17.2467 11.8644 17.0851 11.9969 16.9236 12.1736C16.7216 12.4385 16.6408 12.7477 16.6004 13.0127C16.56 13.101 16.56 13.1893 16.5196 13.2777C16.3985 13.631 16.2773 13.896 16.1157 14.161C15.7926 14.6909 15.3887 15.1767 14.9443 15.53C14.8232 15.6184 14.702 15.7067 14.5808 15.7509C14.4192 15.8392 14.2173 15.9275 13.9749 16.0159C13.9345 16.0159 13.8941 16.06 13.8941 16.06C13.773 16.1042 13.6114 16.1925 13.4902 16.1925C13.369 16.2367 13.2075 16.2367 13.0863 16.2367C12.9651 16.2367 12.8035 16.2367 12.6824 16.1925C12.5208 16.1483 12.3996 16.1042 12.238 16.06L12.1573 16.0159C11.9149 15.9275 11.7129 15.8392 11.5514 15.7509C11.4302 15.6625 11.309 15.5742 11.1878 15.53C10.2992 14.8676 9.69332 13.896 9.41057 12.571C9.32979 12.2177 9.16822 12.0411 9.00665 11.9086L8.92587 11.8644C8.48155 11.5994 8.36037 11.0695 8.31998 10.7603C8.31998 10.672 8.27959 10.5395 8.27959 10.4512C8.23919 10.2745 8.23919 10.142 8.23919 9.96535C8.23919 9.83286 8.23919 9.74453 8.23919 9.61203V9.47954C8.23919 9.30288 8.27959 9.17039 8.27959 9.17039Z" fill="#01CD74"/>
<path d="M24 10C22.9391 10 21.9217 10.4214 21.1716 11.1716C20.4214 11.9217 20 12.9391 20 14C20 15.0609 20.4214 16.0783 21.1716 16.8284C21.9217 17.5786 22.9391 18 24 18C25.0609 18 26.0783 17.5786 26.8284 16.8284C27.5786 16.0783 28 15.0609 28 14C27.9988 12.9396 27.5769 11.9228 26.8271 11.1729C26.0772 10.423 25.0605 10.0012 24 10V10ZM26.1538 14.9231H24.9231V16.1538H23.0769V14.9231H21.8462V13.0769H23.0769V11.8462H24.9231V13.0769H26.1538V14.9231Z" fill="#01CD74"/>
</svg>
