<svg width="24" height="24" viewBox="0 0 24 24" fill="none" xmlns="http://www.w3.org/2000/svg">
<path d="M12 0C5.4 0 0 5.4 0 12C0 18.6 5.4 24 12 24C18.6 24 24 18.6 24 12C24 5.4 18.6 0 12 0ZM12 21.6C6.72 21.6 2.4 17.28 2.4 12C2.4 6.72 6.72 2.4 12 2.4C17.28 2.4 21.6 6.72 21.6 12C21.6 17.28 17.28 21.6 12 21.6Z" fill="#757575"/>
<path d="M15.9598 12.3602L13.1998 15.1203V6.00029C13.1998 5.28025 12.7199 4.80029 11.9998 4.80029C11.2798 4.80029 10.7998 5.28025 10.7998 6.00029V15.1203L8.03993 12.3604C7.55997 11.8804 6.83993 11.8804 6.35997 12.3604C5.88001 12.8403 5.88001 13.5604 6.35997 14.0403L11.16 18.8403C11.76 19.4403 12.6001 19.0804 12.8399 18.8403L17.6399 14.0403C18.1199 13.5604 18.1199 12.8403 17.6399 12.3604C17.1598 11.8803 16.3199 11.8803 15.9598 12.3602L15.9598 12.3602Z" fill="#757575"/>
</svg>
