<svg width="24" height="24" viewBox="0 0 24 24" fill="none" xmlns="http://www.w3.org/2000/svg">
<path d="M0.5 4C0.5 2.067 2.067 0.5 4 0.5H20C21.933 0.5 23.5 2.067 23.5 4V20C23.5 21.933 21.933 23.5 20 23.5H4C2.067 23.5 0.5 21.933 0.5 20V4Z" fill="#EFF7FF" stroke="#CFE7FF"/>
<path d="M6.09375 18.019H8.55391L15.8097 10.6926L13.3496 8.2085L6.09375 15.5349V18.019ZM7.40584 16.0848L13.3496 10.0832L13.9531 10.6926L8.0094 16.6942H7.40584V16.0848Z" fill="#A1A1A1"/>
<path d="M16.1771 6.28751C15.9212 6.02916 15.5079 6.02916 15.2521 6.28751L14.0515 7.49975L16.5117 9.98384L17.7122 8.7716C17.9681 8.51326 17.9681 8.09593 17.7122 7.83758L16.1771 6.28751Z" fill="#A1A1A1"/>
</svg>
