<svg width="22" height="22" viewBox="0 0 22 22" fill="none" xmlns="http://www.w3.org/2000/svg">
<path d="M14.5337 7.14408C14.5337 7.24847 14.5752 7.34858 14.649 7.42239C14.7228 7.4962 14.8229 7.53767 14.9273 7.53767H15.8089C15.9133 7.53767 16.0134 7.4962 16.0872 7.42239C16.161 7.34858 16.2025 7.24847 16.2025 7.14408C16.2025 7.03969 16.161 6.93958 16.0872 6.86577C16.0134 6.79196 15.9133 6.75049 15.8089 6.75049H14.9273C14.8229 6.75049 14.7228 6.79196 14.649 6.86577C14.5752 6.93958 14.5337 7.03969 14.5337 7.14408Z" fill="#01CD74"/>
<path d="M8.48572 7.14408C8.48572 7.24847 8.52719 7.34858 8.601 7.42239C8.67481 7.4962 8.77492 7.53767 8.87931 7.53767H9.76095C9.86534 7.53767 9.96545 7.4962 10.0393 7.42239C10.1131 7.34858 10.1545 7.24847 10.1545 7.14408C10.1545 7.03969 10.1131 6.93958 10.0393 6.86577C9.96545 6.79196 9.86534 6.75049 9.76095 6.75049H8.87931C8.77492 6.75049 8.67481 6.79196 8.601 6.86577C8.52719 6.93958 8.48572 7.03969 8.48572 7.14408Z" fill="#01CD74"/>
<path d="M12.7374 4.56088V3.67924C12.7374 3.57485 12.696 3.47474 12.6222 3.40092C12.5483 3.32711 12.4482 3.28564 12.3438 3.28564C12.2395 3.28564 12.1393 3.32711 12.0655 3.40092C11.9917 3.47474 11.9503 3.57485 11.9503 3.67924V4.56088C11.9503 4.66527 11.9917 4.76538 12.0655 4.83919C12.1393 4.913 12.2395 4.95447 12.3438 4.95447C12.4482 4.95447 12.5483 4.913 12.6222 4.83919C12.696 4.76538 12.7374 4.66527 12.7374 4.56088Z" fill="#01CD74"/>
<path d="M14.5212 4.4167L13.8915 5.04644C13.8176 5.12035 13.7761 5.22058 13.7761 5.3251C13.7761 5.42962 13.8176 5.52986 13.8915 5.60377C13.9654 5.67767 14.0656 5.71919 14.1701 5.71919C14.2747 5.71919 14.3749 5.67767 14.4488 5.60377L15.0786 4.97402C15.1525 4.90011 15.194 4.79988 15.194 4.69536C15.194 4.59084 15.1525 4.4906 15.0786 4.4167C15.0047 4.34279 14.9044 4.30127 14.7999 4.30127C14.6954 4.30127 14.5951 4.34279 14.5212 4.4167Z" fill="#01CD74"/>
<path d="M10.518 5.71186C10.596 5.712 10.6722 5.68899 10.7371 5.64575C10.8019 5.60251 10.8525 5.54099 10.8823 5.46898C10.9122 5.39698 10.92 5.31773 10.9047 5.24129C10.8895 5.16485 10.8519 5.09465 10.7967 5.0396L10.167 4.40986C10.1304 4.37326 10.0869 4.34424 10.0391 4.32443C9.99129 4.30463 9.94004 4.29443 9.88829 4.29443C9.83654 4.29443 9.78529 4.30463 9.73748 4.32443C9.68967 4.34424 9.64622 4.37326 9.60963 4.40986C9.57303 4.44645 9.54401 4.4899 9.5242 4.53771C9.5044 4.58552 9.4942 4.63677 9.4942 4.68852C9.4942 4.74027 9.5044 4.79152 9.5242 4.83933C9.54401 4.88715 9.57303 4.93059 9.60963 4.96718L10.2394 5.59693C10.2759 5.63353 10.3194 5.66252 10.3672 5.68225C10.415 5.70197 10.4663 5.71204 10.518 5.71186Z" fill="#01CD74"/>
<path d="M5.78718 10.2505C5.57841 10.2505 5.37819 10.3334 5.23056 10.4811C5.08293 10.6287 5 10.8289 5 11.0377V17.9271C5 18.1359 5.08293 18.3361 5.23056 18.4837C5.37819 18.6313 5.57841 18.7143 5.78718 18.7143H8.06686C8.26643 18.7148 8.45873 18.6394 8.60487 18.5035C8.75101 18.3676 8.84007 18.1813 8.85404 17.9822L9.3421 18.275C9.8067 18.5539 10.3383 18.7014 10.8802 18.7017H14.2069C14.6092 18.706 15.0081 18.6266 15.3782 18.4687C16.4409 17.9964 16.6078 17.1667 16.5291 16.6157C16.8019 16.3865 16.9974 16.0789 17.089 15.7346C17.1805 15.3903 17.1637 15.0261 17.0407 14.6918C17.3042 14.3731 17.4439 13.9701 17.4343 13.5567C17.4171 13.2328 17.3049 12.9212 17.1116 12.6608C17.2323 12.3828 17.2625 12.0738 17.1977 11.7777C17.133 11.4815 16.9768 11.2133 16.7511 11.0109C16.7185 10.9805 16.6844 10.9516 16.6487 10.9243C16.4697 10.7912 16.2631 10.6997 16.0442 10.6567H16.0268C14.983 10.4347 14.2809 10.4205 13.2481 10.4205C13.2087 10.1828 13.2103 9.68373 13.522 8.74383C13.8101 7.87321 13.785 7.15372 13.4465 6.60427C13.3069 6.38459 13.1207 6.19825 12.9012 6.05842C12.6816 5.91859 12.4341 5.82868 12.176 5.79505H12.1271C11.9464 5.79191 11.7696 5.84765 11.6233 5.95387C11.477 6.06009 11.3693 6.21102 11.3163 6.38386C11.3108 6.40242 11.3066 6.42136 11.3038 6.44054L11.1857 7.29069C11.1501 7.54608 11.0758 7.79454 10.9653 8.0275L9.81755 10.4378C9.73169 10.6366 9.59936 10.8118 9.4317 10.9488C9.26403 11.0858 9.06593 11.1805 8.85404 11.225V11.0377C8.85404 10.8289 8.77111 10.6287 8.62348 10.4811C8.47586 10.3334 8.27563 10.2505 8.06686 10.2505H5.78718ZM5.78718 17.9271V11.0377H8.06686V17.9271H5.78718ZM8.93591 12.0169C9.28477 11.9557 9.61287 11.8085 9.89051 11.5886C10.1682 11.3687 10.3866 11.083 10.526 10.7574L11.6643 8.35339C11.809 8.04773 11.9062 7.72175 11.9524 7.38673L12.0736 6.59168C12.0793 6.58617 12.0864 6.58236 12.0941 6.58066C12.2314 6.60241 12.3627 6.65258 12.4795 6.72794C12.5963 6.8033 12.6962 6.9022 12.7726 7.01833C12.9805 7.35524 12.9805 7.86691 12.7726 8.49666C12.4672 9.41608 12.3727 10.1419 12.4892 10.6551C12.5251 10.8133 12.614 10.9545 12.7411 11.0553C12.8683 11.1561 13.026 11.2104 13.1883 11.2093C14.2289 11.2093 14.8713 11.2187 15.8647 11.4281H15.8804C15.9854 11.4471 16.0848 11.489 16.1717 11.5509L16.2221 11.5934C16.6251 11.9571 16.3701 12.4231 16.3165 12.5097C16.2662 12.5885 16.2455 12.6825 16.2582 12.7751C16.2709 12.8677 16.3161 12.9528 16.3858 13.0151C16.5391 13.1702 16.6332 13.374 16.6519 13.5913C16.6473 13.7363 16.6135 13.8789 16.5527 14.0107C16.4918 14.1424 16.4051 14.2605 16.2976 14.358C16.2387 14.4203 16.2017 14.5002 16.1923 14.5854C16.183 14.6707 16.2017 14.7567 16.2457 14.8303C16.263 14.8602 16.6676 15.564 15.8663 16.1528C15.7991 16.2033 15.7496 16.2737 15.7247 16.354C15.6999 16.4342 15.7009 16.5203 15.7277 16.5999C15.7702 16.7259 15.9371 17.3713 15.0728 17.7508C14.7988 17.8653 14.5038 17.9211 14.2069 17.9145H10.874C10.4751 17.9139 10.0839 17.8051 9.74198 17.5996L8.85404 17.0675V12.0295L8.93591 12.0169Z" fill="#01CD74"/>
<path d="M11.8572 6.28564H12.2857H12.7143L13.1429 7.14279V7.99993L12.7143 9.28564V10.5714C13.1429 10.7142 14.2572 10.9999 15.2857 10.9999C16.5714 10.9999 16.5714 11.8571 16.5714 12.7142C17.2572 13.3999 16.8572 14.1428 16.5714 14.4285V14.8571C16.5714 15.5428 16.2857 15.9999 16.1429 16.1428V16.5714C16.1429 17.5999 15.2857 18.1428 14.8572 18.2856H13.5714H11.8572H10.1429L8.42858 17.4285V17.8571L8.00001 18.2856H6.71429V16.9999V14.4285V10.5714H8.00001L8.42858 10.9999V12.2856L8.85715 11.8571L10.1429 10.9999L11 9.28564L11.4286 7.57136L11.8572 6.28564Z" fill="#01CD74"/>
</svg>
