<svg width="22" height="22" viewBox="0 0 22 22" fill="none" xmlns="http://www.w3.org/2000/svg">
<path d="M5.45724 16.5457C5.43163 16.4637 5.4179 16.3761 5.4179 16.286C5.4179 15.9761 5.58229 15.6923 5.84612 15.5338V11.8803C5.84612 9.22901 8.01983 7.05566 10.6707 7.05566C13.3224 7.05566 15.4954 9.22864 15.4954 11.8803V15.5338C15.7596 15.6919 15.9236 15.9772 15.9236 16.2867C15.9236 16.3765 15.9095 16.4637 15.8839 16.5454C16.282 16.5832 16.5952 16.9205 16.5952 17.3272V18.7142H4.74664V17.3272C4.74664 16.9205 5.05982 16.5836 5.45724 16.5457ZM15.2252 16.542C15.3057 16.486 15.3581 16.3928 15.3581 16.2867C15.3581 16.1153 15.2193 15.9754 15.0475 15.9754H6.294C6.12293 15.9754 5.98341 16.1149 5.98341 16.286C5.98341 16.3917 6.03647 16.4856 6.11737 16.542H15.2252ZM6.41162 15.4099H14.9299V11.8803C14.9299 9.53774 13.0133 7.62117 10.6707 7.62117C8.32708 7.62117 6.41162 9.53662 6.41162 11.8803V15.4099Z" fill="#F44336"/>
<path d="M7.83173 11.2449C7.80316 11.3978 7.65548 11.4987 7.5026 11.4702C7.34972 11.4416 7.24879 11.2939 7.27736 11.141C7.58164 9.5165 9.0173 8.32129 10.6708 8.32129C10.8266 8.32129 10.9535 8.44819 10.9535 8.60404C10.9535 8.75989 10.8266 8.8868 10.6708 8.8868C9.28595 8.8868 8.08629 9.88386 7.83173 11.2449Z" fill="white"/>
<path d="M10.3564 2.74301C10.3564 2.56972 10.4975 2.42871 10.6707 2.42871C10.844 2.42871 10.985 2.56972 10.985 2.74301V5.24511C10.985 5.4184 10.844 5.55941 10.6707 5.55941C10.4975 5.55941 10.3564 5.4184 10.3564 5.24511V2.74301Z" fill="#F44336"/>
<path d="M16.6605 5.0933C16.783 4.97085 16.9826 4.97085 17.1051 5.0933C17.2275 5.21576 17.2275 5.41539 17.1051 5.53784L15.3358 7.30709C15.2134 7.42955 15.0137 7.42955 14.8913 7.30709C14.7688 7.18464 14.7688 6.98501 14.8913 6.86256L16.6605 5.0933Z" fill="#F44336"/>
<path d="M19.4558 11.2139C19.6291 11.2139 19.7701 11.3549 19.7701 11.5282C19.7701 11.7015 19.6291 11.8425 19.4558 11.8425H16.9537C16.7804 11.8425 16.6394 11.7015 16.6394 11.5282C16.6394 11.3549 16.7804 11.2139 16.9537 11.2139H19.4558Z" fill="#F44336"/>
<path d="M4.23643 5.53784C4.11398 5.41539 4.11398 5.21576 4.23643 5.0933C4.35888 4.97085 4.55852 4.97085 4.68097 5.0933L6.45022 6.86256C6.57267 6.98501 6.57267 7.18464 6.45022 7.30709C6.32777 7.42955 6.12813 7.42955 6.00568 7.30709L4.23643 5.53784Z" fill="#F44336"/>
<path d="M1.88571 11.8425C1.71242 11.8425 1.57141 11.7015 1.57141 11.5282C1.57141 11.3549 1.71242 11.2139 1.88571 11.2139H4.38781C4.5611 11.2139 4.70211 11.3549 4.70211 11.5282C4.70211 11.7015 4.5611 11.8425 4.38781 11.8425H1.88571Z" fill="#F44336"/>
<path d="M15.3127 13.1164V15.661H6.15186V14.1342V11.5896L6.66079 9.55381L8.1876 8.027L9.20547 7.51807H10.7323L13.277 8.027L14.8038 10.0627L15.3127 13.1164Z" fill="#F44336"/>
</svg>
