<svg width="32" height="32" viewBox="0 0 32 32" fill="none" xmlns="http://www.w3.org/2000/svg">
<path d="M21.4984 2.41733C21.4135 2.33312 21.2983 2.2858 21.1782 2.2858H8.50127C7.66107 2.2868 6.85539 2.61823 6.26138 3.20771C5.66717 3.79696 5.33307 4.5962 5.33203 5.42968V26.0895C5.33304 26.9229 5.66715 27.7222 6.26138 28.3114C6.85539 28.9009 7.66107 29.2323 8.50127 29.2333H23.8947C24.7349 29.2323 25.5406 28.9009 26.1346 28.3114C26.7288 27.7222 27.0629 26.9229 27.0639 26.0895V8.12443C27.0639 8.00534 27.0162 7.89105 26.9313 7.80684L21.4984 2.41733ZM21.631 3.81922L25.5181 7.67528H23.8947C23.2946 7.67468 22.7192 7.43789 22.2947 7.01684C21.8703 6.59579 21.6316 6.02496 21.631 5.42965V3.81922ZM8.50127 3.18402H20.7255V5.42965C20.7265 6.26313 21.0606 7.06237 21.6548 7.65162C22.2488 8.24108 23.0545 8.57251 23.8947 8.57353H26.1584V21.1491H6.23753V5.42965C6.23813 4.83434 6.47684 4.26352 6.90128 3.84247C7.32573 3.42142 7.90116 3.18464 8.50127 3.18402ZM23.8947 28.3351H8.50127C7.90116 28.3345 7.32573 28.0977 6.90128 27.6766C6.47684 27.2556 6.23815 26.6848 6.23753 26.0894V22.0473H26.1584V26.0894C26.1578 26.6848 25.9191 27.2556 25.4947 27.6766C25.0702 28.0977 24.4948 28.3345 23.8947 28.3351Z" fill="#424242"/>
<path d="M13.8781 22.8587H13.0089C12.7688 22.8587 12.5742 23.0663 12.5742 23.3223V27.0312C12.5742 27.2872 12.7688 27.4948 13.0089 27.4948C13.2489 27.4948 13.4435 27.2872 13.4435 27.0312V25.6404H13.8781C14.344 25.6404 14.7744 25.3753 15.0074 24.945C15.2403 24.5147 15.2403 23.9844 15.0074 23.5541C14.7744 23.1238 14.344 22.8587 13.8781 22.8587ZM13.8781 24.7132H13.4435V23.7859H13.8781C14.1182 23.7859 14.3128 23.9935 14.3128 24.2495C14.3128 24.5056 14.1182 24.7132 13.8781 24.7132Z" fill="#424242"/>
<path d="M11.2232 22.8587C10.9566 22.8587 10.7403 23.0663 10.7403 23.3223V26.104C10.7403 26.36 10.5241 26.5676 10.2574 26.5676C9.9907 26.5676 9.77446 26.36 9.77446 26.104C9.77446 25.848 9.55821 25.6404 9.29152 25.6404C9.02484 25.6404 8.80859 25.848 8.80859 26.104C8.80859 26.601 9.08477 27.06 9.53299 27.3086C9.98121 27.5569 10.5336 27.5569 10.9818 27.3086C11.43 27.06 11.7062 26.601 11.7062 26.104V23.3223C11.7062 23.1994 11.6553 23.0814 11.5647 22.9945C11.4742 22.9076 11.3513 22.8587 11.2232 22.8587Z" fill="#424242"/>
<path d="M18.4693 23.7859C18.736 23.7859 18.9523 23.5783 18.9523 23.3223C18.9523 23.0663 18.736 22.8587 18.4693 22.8587H16.5376C16.2709 22.8587 16.0547 23.0663 16.0547 23.3223V27.0312C16.0547 27.1542 16.1056 27.2721 16.1961 27.3591C16.2867 27.446 16.4096 27.4948 16.5376 27.4948H18.4693C18.736 27.4948 18.9523 27.2872 18.9523 27.0312C18.9523 26.7752 18.736 26.5676 18.4693 26.5676H17.0205V25.6404H17.5035C17.7702 25.6404 17.9864 25.4328 17.9864 25.1768C17.9864 24.9208 17.7702 24.7132 17.5035 24.7132H17.0205V23.7859H18.4693Z" fill="#424242"/>
<path d="M22.8627 24.7132H21.9935C21.7534 24.7132 21.5588 24.9208 21.5588 25.1768C21.5588 25.4328 21.7534 25.6404 21.9935 25.6404H22.3765C22.2541 26.1746 21.929 26.5676 21.5588 26.5676C21.0877 26.5676 20.6895 25.9308 20.6895 25.1768C20.6895 24.4228 21.0877 23.786 21.5588 23.786C21.6452 23.7864 21.7303 23.8073 21.8082 23.8472C22.0253 23.9565 22.2843 23.8572 22.3866 23.6256C22.489 23.394 22.3959 23.1176 22.1788 23.0085C21.9851 22.91 21.7734 22.8589 21.5589 22.8587C20.6001 22.8587 19.8203 23.8985 19.8203 25.1768C19.8203 26.455 20.6001 27.4948 21.5589 27.4948C22.5176 27.4948 23.2974 26.455 23.2974 25.1768C23.2974 25.0538 23.2516 24.9359 23.1701 24.8489C23.0886 24.762 22.978 24.7132 22.8627 24.7132Z" fill="#424242"/>
<path d="M13.8781 11.2683C14.2239 11.2683 14.5557 11.1309 14.8002 10.8864C15.0446 10.6419 15.182 10.3101 15.182 9.9644C15.182 9.61868 15.0447 9.28681 14.8002 9.04237C14.5557 8.79793 14.2239 8.66051 13.8781 8.66051C13.5324 8.66051 13.2005 8.79788 12.9561 9.04237C12.7116 9.28686 12.5742 9.61868 12.5742 9.9644C12.5746 10.3102 12.7122 10.6416 12.9565 10.8861C13.201 11.1304 13.5324 11.2679 13.8782 11.2683L13.8781 11.2683ZM13.8781 9.52974C14.0539 9.52974 14.2125 9.63568 14.2796 9.79809C14.3469 9.96049 14.3099 10.1473 14.1855 10.2717C14.0611 10.3961 13.8743 10.4332 13.7118 10.3658C13.5494 10.2987 13.4435 10.1402 13.4435 9.96438C13.4437 9.72436 13.6381 9.52993 13.8781 9.52974Z" fill="#424242"/>
<path d="M10.4137 18.5126H21.9834C22.1415 18.5126 22.2877 18.4277 22.3676 18.2895C22.4472 18.1512 22.4488 17.9804 22.3711 17.841L18.3662 10.6292C18.2876 10.4871 18.1392 10.3994 17.9785 10.3994C17.8178 10.3994 17.6694 10.4871 17.5907 10.6292L15.1222 15.0746L13.8933 13.2962H13.8931C13.8099 13.1757 13.6738 13.104 13.5286 13.104C13.3834 13.104 13.2473 13.1757 13.164 13.2962L10.0491 17.8036C9.95397 17.9412 9.94245 18.1211 10.0191 18.2702C10.0956 18.4191 10.2478 18.5126 10.4137 18.5126ZM17.9785 11.7696L21.2225 17.6112H16.8751L15.6882 15.8935L17.9785 11.7696ZM13.5286 14.3406L15.7889 17.6113H11.2682L13.5286 14.3406Z" fill="#424242"/>
</svg>
