<svg width="60" height="60" viewBox="0 0 60 60" fill="none" xmlns="http://www.w3.org/2000/svg">
<path d="M54.7552 18.8887L39.2823 3.24796C39.1253 3.08982 38.9138 3 38.6924 3H21.1658C17.0867 3 13.7682 6.35516 13.7682 10.4779V25.2761H7.27506C6.02059 25.2761 5 26.3076 5 27.5755V40.7928C5 42.0607 6.02059 43.0922 7.27506 43.0922H13.7677V49.5227C13.7682 53.6448 17.0862 57 21.1658 57H47.6024C51.6815 57 55 53.6448 55 49.5221V19.486C54.9995 19.2623 54.9117 19.0468 54.7552 18.8887ZM12.7967 37.1517C12.6451 36.7109 12.8768 36.2309 13.3124 36.0789C13.7486 35.9268 14.2234 36.1599 14.3739 36.6007C14.6318 37.3567 15.3362 37.8653 16.1261 37.8653C17.1489 37.8653 17.9803 37.0244 17.9803 35.9912V29.6622C17.9803 29.1961 18.3538 28.8186 18.815 28.8186C19.2751 28.8186 19.6486 29.1961 19.6486 29.6622V35.9912C19.6486 37.954 18.0686 39.5519 16.1256 39.5519C14.6247 39.5525 13.2868 38.5871 12.7967 37.1517ZM53.3312 49.5221C53.3312 52.7158 50.7612 55.3133 47.6024 55.3133H21.1658C18.007 55.3133 15.437 52.7158 15.437 49.5221V43.0917H42.9225C44.177 43.0917 45.1976 42.0602 45.1976 40.7923V27.5755C45.1976 26.3076 44.177 25.2761 42.9225 25.2761H15.4365V10.4779C15.4365 7.28418 18.0065 4.68667 21.1653 4.68667H37.8572V17.7966C37.8572 19.1928 38.9803 20.329 40.3596 20.329H53.3306L53.3312 49.5221ZM21.5714 38.7083V29.6622C21.5714 29.1961 21.9449 28.8186 22.405 28.8186H25.0944C27.0364 28.8186 28.6174 30.4166 28.6174 32.3793V32.4934C28.6174 34.4572 27.0364 36.0541 25.0944 36.0541H23.2392V38.7089C23.2392 39.175 22.8668 39.5525 22.4056 39.5525C21.9449 39.5525 21.5714 39.1745 21.5714 38.7083ZM32.7112 37.8658H35.1427C35.4955 37.8658 35.7811 37.576 35.7811 37.2206V35.4441H33.927C33.4657 35.4441 33.0934 35.0666 33.0934 34.6016C33.0934 34.1354 33.4657 33.758 33.927 33.758H36.6164C37.0765 33.758 37.45 34.1354 37.45 34.6016V37.2206C37.45 38.5061 36.4146 39.5525 35.1427 39.5525H32.7112C31.4393 39.5525 30.404 38.5061 30.404 37.2206V31.1483C30.404 29.8639 31.4393 28.8186 32.7112 28.8186H35.1427C36.4146 28.8186 37.45 29.8639 37.45 31.1483C37.45 31.6134 37.0765 31.9908 36.6164 31.9908C36.1551 31.9908 35.7817 31.6134 35.7817 31.1483C35.7817 30.7929 35.496 30.5047 35.1433 30.5047H32.7117C32.359 30.5047 32.0733 30.7929 32.0733 31.1483V37.22C32.0722 37.576 32.3585 37.8658 32.7112 37.8658ZM25.0944 34.3674H23.2392V30.5053H25.0944C26.1172 30.5053 26.9486 31.3461 26.9486 32.3793V32.4934C26.9486 33.5271 26.1172 34.3674 25.0944 34.3674Z" fill="#747474"/>
</svg>
