<svg width="60" height="60" viewBox="0 0 60 60" fill="none" xmlns="http://www.w3.org/2000/svg">
<path d="M50.7944 20.2406L37.7971 7.20663C37.6653 7.07485 37.4876 7 37.3016 7H22.5793C19.1529 7 16.3653 9.79597 16.3653 13.2316V25.5634H10.911C9.85729 25.5634 9 26.423 9 27.4796V38.494C9 39.5506 9.85729 40.4102 10.911 40.4102H16.3648V45.7689C16.3653 49.204 19.1524 52 22.5793 52H44.786C48.2124 52 51 49.204 51 45.7684V20.7383C50.9995 20.5519 50.9258 20.3723 50.7944 20.2406ZM15.5492 35.4597C15.4219 35.0924 15.6165 34.6924 15.9824 34.5657C16.3488 34.439 16.7477 34.6332 16.8741 35.0006C17.0907 35.6306 17.6824 36.0544 18.346 36.0544C19.2051 36.0544 19.9035 35.3537 19.9035 34.4927V29.2185C19.9035 28.8301 20.2172 28.5155 20.6046 28.5155C20.9911 28.5155 21.3048 28.8301 21.3048 29.2185V34.4927C21.3048 36.1283 19.9776 37.4599 18.3455 37.4599C17.0847 37.4604 15.9609 36.6559 15.5492 35.4597ZM49.5982 45.7684C49.5982 48.4298 47.4394 50.5944 44.786 50.5944H22.5793C19.9259 50.5944 17.7671 48.4298 17.7671 45.7684V40.4097H40.8549C41.9087 40.4097 42.766 39.5502 42.766 38.4936V27.4796C42.766 26.423 41.9087 25.5634 40.8549 25.5634H17.7666V13.2316C17.7666 10.5702 19.9254 8.40556 22.5788 8.40556H36.6001V19.3305C36.6001 20.494 37.5434 21.4409 38.7021 21.4409H49.5977L49.5982 45.7684ZM22.92 36.7569V29.2185C22.92 28.8301 23.2337 28.5155 23.6202 28.5155H25.8793C27.5106 28.5155 28.8386 29.8471 28.8386 31.4828V31.5778C28.8386 33.2143 27.5106 34.5451 25.8793 34.5451H24.3209V36.7574C24.3209 37.1459 24.0081 37.4604 23.6207 37.4604C23.2337 37.4604 22.92 37.1454 22.92 36.7569ZM32.2774 36.0548H34.3199C34.6162 36.0548 34.8562 35.8133 34.8562 35.5171V34.0367H33.2986C32.9112 34.0367 32.5984 33.7222 32.5984 33.3346C32.5984 32.9462 32.9112 32.6316 33.2986 32.6316H35.5577C35.9443 32.6316 36.258 32.9462 36.258 33.3346V35.5171C36.258 36.5884 35.3883 37.4604 34.3199 37.4604H32.2774C31.209 37.4604 30.3393 36.5884 30.3393 35.5171V30.4569C30.3393 29.3866 31.209 28.5155 32.2774 28.5155H34.3199C35.3883 28.5155 36.258 29.3866 36.258 30.4569C36.258 30.8445 35.9443 31.159 35.5577 31.159C35.1703 31.159 34.8566 30.8445 34.8566 30.4569C34.8566 30.1608 34.6166 29.9206 34.3203 29.9206H32.2779C31.9816 29.9206 31.7416 30.1608 31.7416 30.4569V35.5167C31.7407 35.8133 31.9811 36.0548 32.2774 36.0548ZM25.8793 33.1395H24.3209V29.9211H25.8793C26.7384 29.9211 27.4368 30.6218 27.4368 31.4828V31.5778C27.4368 32.4392 26.7384 33.1395 25.8793 33.1395Z" fill="#747474"/>
</svg>
