<svg width="24" height="24" viewBox="0 0 24 24" fill="none" xmlns="http://www.w3.org/2000/svg">
<path fill-rule="evenodd" clip-rule="evenodd" d="M11.5 7.29175C9.98128 7.29175 8.75 8.52302 8.75 10.0418C8.75 11.5605 9.98128 12.7918 11.5 12.7918C13.0188 12.7918 14.25 11.5605 14.25 10.0418C14.25 8.52302 13.0188 7.29175 11.5 7.29175ZM9.66667 10.0418C9.66667 9.02924 10.4875 8.20842 11.5 8.20842C12.5126 8.20842 13.3334 9.02924 13.3334 10.0418C13.3334 11.0543 12.5126 11.8751 11.5 11.8751C10.4875 11.8751 9.66667 11.0543 9.66667 10.0418Z" fill="#4CAF50"/>
<path fill-rule="evenodd" clip-rule="evenodd" d="M11.5 5C8.46245 5 6 7.46245 6 10.5C6 11.1398 6.22252 11.8376 6.54243 12.5207C6.86552 13.2106 7.30605 13.9227 7.78167 14.601C8.73323 15.9579 9.85246 17.2174 10.5348 17.9487C11.0598 18.5112 11.9402 18.5112 12.4652 17.9487C13.1476 17.2175 14.2668 15.958 15.2183 14.601C15.6939 13.9227 16.1345 13.2106 16.4576 12.5207C16.7775 11.8376 17 11.1397 17 10.5C17 7.46245 14.5376 5 11.5 5H11.5ZM6.91667 10.5C6.91667 7.96876 8.96876 5.91667 11.5 5.91667C14.0313 5.91667 16.0834 7.96876 16.0834 10.5C16.0834 10.9448 15.9235 11.5 15.6275 12.1318C15.3348 12.7568 14.926 13.4214 14.4679 14.0748C13.5517 15.3812 12.4651 16.6051 11.7951 17.3232C11.6326 17.4974 11.3676 17.4974 11.205 17.3232C10.535 16.6052 9.44842 15.3813 8.53227 14.0748C8.07414 13.4215 7.66531 12.7569 7.37263 12.1318C7.07665 11.5 6.91675 10.9448 6.91675 10.5H6.91667Z" fill="#4CAF50"/>
</svg>
