<svg width="28" height="28" viewBox="0 0 28 28" fill="none" xmlns="http://www.w3.org/2000/svg">
<path d="M23.3081 18.8508V18.0838C23.3081 17.6312 22.9399 17.2628 22.4871 17.2628H22.3139V5.78564C22.3139 3.53676 20.4843 1.70703 18.2047 1.70703C16.0878 1.70703 14.3436 3.3284 14.1459 5.39431H11.7624V5.15612C11.7624 3.25432 10.2149 1.70704 8.31289 1.70704C6.4109 1.70704 4.86362 3.25451 4.86362 5.15612V18.2817H4.59891C4.18767 18.2817 3.85288 18.6165 3.85288 19.028V19.9273C3.0247 20.4468 2.51123 21.446 2.51123 22.7026C2.51123 24.5364 3.63796 26.5791 5.25493 26.5791C6.8719 26.5791 7.99864 24.5362 7.99864 22.7026C7.99864 21.4442 7.48367 20.4439 6.65329 19.9249C6.60115 19.6686 6.9363 18.282 5.90726 18.282H5.64639V5.15636C5.64639 3.68625 6.84243 2.49002 8.31291 2.49002C9.78321 2.49002 10.9796 3.68607 10.9796 5.15636V5.39454H9.08578C8.13743 5.39454 7.36578 6.16633 7.36578 7.11468V16.5012C7.36578 17.4496 8.13743 18.2214 9.08578 18.2214H16.8023C17.7508 18.2214 18.5224 17.4496 18.5224 16.5012L18.5223 7.11468C18.5223 6.16633 17.7506 5.39454 16.8021 5.39454H14.9341C15.1288 3.76146 16.522 2.4902 18.235 2.4902C20.0524 2.4902 21.5308 3.96869 21.5308 5.78601V17.2631H21.3565C20.9037 17.2631 20.5355 17.6316 20.5355 18.0842V18.8527C18.9688 19.4225 17.8449 20.9221 17.8449 22.6836C17.8449 24.9308 19.675 26.7592 21.9243 26.7592C24.1715 26.7592 26 24.931 26 22.6836C25.9998 20.9208 24.8751 19.4201 23.3079 18.8512L23.3081 18.8508ZM7.21568 22.7026C7.21568 24.2929 6.26274 25.7963 5.25496 25.7963C4.24713 25.7963 3.29424 24.2929 3.29424 22.7026C3.29424 21.146 4.20381 20.3176 5.25496 20.3176C6.30409 20.3178 7.21568 21.1452 7.21568 22.7026ZM5.87033 19.6034C5.44848 19.5083 5.0045 19.5206 4.63588 19.6044V19.0645H5.87033V19.6034ZM8.14862 16.5008V7.11426C8.14862 6.59747 8.56883 6.17687 9.08582 6.17687H11.9565C11.6376 6.55683 11.4446 7.04584 11.4446 7.57944V16.0354C11.4446 16.5691 11.6374 17.0581 11.9565 17.438H9.08582C8.56884 17.438 8.14862 17.0174 8.14862 16.5006V16.5008ZM17.7398 7.11426V16.5008C17.7398 17.0176 17.3193 17.4382 16.8024 17.4382H13.6303C12.8568 17.4382 12.2276 16.8091 12.2276 16.0356V7.57963C12.2276 6.80634 12.8567 6.17706 13.6303 6.17706H16.8024C17.3192 6.17724 17.7398 6.59763 17.7398 7.11445V7.11426ZM21.3186 18.6481V18.0835C21.3186 18.0636 21.3367 18.0453 21.3569 18.0453H22.4873C22.5123 18.0453 22.5255 18.0643 22.5255 18.0835V18.6477C22.1432 18.5901 21.6831 18.5932 21.3186 18.6481L21.3186 18.6481ZM21.9246 25.9754C20.1067 25.9754 18.628 24.4984 18.628 22.6827C18.628 20.8377 20.1442 19.3891 21.9172 19.3865C21.9183 19.3865 21.9192 19.3863 21.9203 19.3863C23.7025 19.3854 25.2174 20.8365 25.2174 22.6827C25.2172 24.4984 23.7402 25.9754 21.9245 25.9754L21.9246 25.9754Z" fill="#424242" stroke="#424242" stroke-width="0.2"/>
<path d="M21.5171 24.2617H22.2999V25.2468H21.5171V24.2617Z" fill="#424242" stroke="#424242" stroke-width="0.2"/>
<path d="M23.4469 24.7773L22.7505 24.0809L23.304 23.5273L24.0005 24.2238L23.4469 24.7773Z" fill="#424242" stroke="#424242" stroke-width="0.2"/>
<path d="M23.4985 22.3047H24.4835V23.0875H23.4985V22.3047Z" fill="#424242" stroke="#424242" stroke-width="0.2"/>
<path d="M23.4658 20.6055L24.0193 21.159L23.3231 21.8553L22.7695 21.3017L23.4658 20.6055Z" fill="#424242" stroke="#424242" stroke-width="0.2"/>
<path d="M21.5444 20.1211H22.3272V21.1062H21.5444V20.1211Z" fill="#424242" stroke="#424242" stroke-width="0.2"/>
<path d="M20.5407 21.832L19.8442 21.1356L20.3978 20.582L21.0942 21.2785L20.5407 21.832Z" fill="#424242" stroke="#424242" stroke-width="0.2"/>
<path d="M19.3623 22.2734H20.347V23.0562H19.3623V22.2734Z" fill="#424242" stroke="#424242" stroke-width="0.2"/>
<path d="M20.3792 24.7576L19.8257 24.2041L20.5219 23.5078L21.0755 24.0614L20.3792 24.7576Z" fill="#424242" stroke="#424242" stroke-width="0.2"/>
</svg>
