<svg width="60" height="60" viewBox="0 0 60 60" fill="none" xmlns="http://www.w3.org/2000/svg">
<path d="M33.3471 31.5896C33.3471 30.658 32.7017 30.1021 31.5604 30.1021C31.0941 30.1021 30.779 30.1474 30.6135 30.1922V33.1813C30.809 33.2266 31.0493 33.2414 31.3797 33.2414C32.5963 33.242 33.3471 32.626 33.3471 31.5896Z" fill="#747474"/>
<path d="M39.8656 32.3711L38.5583 34.504V34.5341H40.7514V32.3711C40.7514 31.7852 40.7819 31.1845 40.8273 30.5532H40.7672C40.451 31.1845 40.1966 31.7551 39.8656 32.3711Z" fill="#747474"/>
<path d="M37.9043 6.59857C36.6684 5.36267 35.7924 5 34.0453 5H11.8909C9.45653 5 8.5 5.95653 8.5 8.39093V52.6091C8.5 55.0435 9.45653 56 11.8909 56H47.6091C50.0435 56 51 55.0435 51 52.6091V21.9541C51 20.2065 50.6373 19.331 49.4014 18.0951L37.9043 6.59857ZM48.0341 52.1302C48.0341 52.7796 47.7785 53.0341 47.1297 53.0341H12.3703C11.7209 53.0341 11.4659 52.7791 11.4659 52.1302V41.1607H48.0341V52.1302ZM15.4133 38.575L16.0593 28.4504H19.1086L20.1002 31.8305C20.4159 33.0018 20.7309 34.2638 20.9565 35.4504H21.0018C21.2868 34.2791 21.6325 32.9418 21.9629 31.8152L23.0446 28.4504H26.0338L26.5897 38.575H24.3519L24.2012 34.6996C24.1559 33.4829 24.1111 32.0102 24.1111 30.5385H24.0658C23.7501 31.8305 23.3291 33.2727 22.9387 34.4593L21.7073 38.4101H19.92L18.8383 34.4893C18.5079 33.3027 18.1622 31.8606 17.922 30.5385H17.8919C17.8319 31.9059 17.7865 33.4676 17.7112 34.7296L17.5315 38.575H15.4133ZM28.3452 38.575V28.5852C29.0513 28.4651 30.043 28.375 31.4398 28.375C32.8519 28.375 33.8589 28.6453 34.5344 29.1865C35.1804 29.697 35.6161 30.5385 35.6161 31.5302C35.6161 32.5219 35.2858 33.3628 34.684 33.9334C33.9031 34.6695 32.7465 34.9999 31.3945 34.9999C31.0936 34.9999 30.8233 34.9846 30.613 34.9546V38.575H28.3452ZM44.0867 34.5341V36.2466H42.9154V38.575H40.7518V36.2466H36.4253V34.7591L40.1211 28.8102H42.9154V34.5335L44.0867 34.5341ZM48.0341 25.7893H11.4659V8.86977C11.4659 8.22037 11.7209 7.96593 12.3703 7.96593H34.9497C35.2739 7.96593 35.4019 8.09343 35.4019 8.41757V17.2071C35.4019 19.6415 36.3585 20.5981 38.7923 20.5981H47.5819C47.9066 20.5981 48.0341 20.7261 48.0341 21.0503V25.7893Z" fill="#747474"/>
</svg>
