<svg width="23" height="21" viewBox="0 0 23 21" fill="none" xmlns="http://www.w3.org/2000/svg">
<g clip-path="url(#clip0_25553_1344)">
<path d="M11.22 7.39005C9.20005 7.39005 7.55005 5.74005 7.55005 3.72005C7.55005 1.70005 9.20005 0.0500488 11.22 0.0500488C13.24 0.0500488 14.89 1.70005 14.89 3.72005C14.89 5.74005 13.24 7.39005 11.22 7.39005ZM11.22 1.45005C9.97005 1.45005 8.95005 2.47005 8.95005 3.72005C8.95005 4.97005 9.97005 5.99005 11.22 5.99005C12.47 5.99005 13.49 4.97005 13.49 3.72005C13.49 2.47005 12.47 1.45005 11.22 1.45005Z" fill="#424242"/>
<path d="M11.22 6.73995C12.8879 6.73995 14.24 5.38785 14.24 3.71995C14.24 2.05205 12.8879 0.699951 11.22 0.699951C9.55205 0.699951 8.19995 2.05205 8.19995 3.71995C8.19995 5.38785 9.55205 6.73995 11.22 6.73995Z" stroke="#424242" stroke-width="1.4" stroke-miterlimit="10"/>
<path d="M7.52995 7.10994C7.09995 7.33994 6.60995 7.47994 6.08995 7.47994C4.41995 7.47994 3.06995 6.12994 3.06995 4.45994C3.06995 2.78994 4.41995 1.43994 6.08995 1.43994C6.25995 1.43994 6.41995 1.44994 6.57995 1.47994" stroke="#424242" stroke-width="1.4" stroke-miterlimit="10" stroke-linecap="round"/>
<path d="M5.03995 9.80005C2.60995 10.01 0.699951 12.04 0.699951 14.53V17.35" stroke="#424242" stroke-width="1.4" stroke-miterlimit="10" stroke-linecap="round"/>
<path d="M14.89 7.10994C15.32 7.33994 15.81 7.47994 16.33 7.47994C18 7.47994 19.35 6.12994 19.35 4.45994C19.35 2.78994 18 1.43994 16.33 1.43994C16.16 1.43994 16 1.44994 15.84 1.47994" stroke="#424242" stroke-width="1.4" stroke-miterlimit="10" stroke-linecap="round"/>
<path d="M17.38 9.80005C19.81 10.01 21.72 12.04 21.72 14.53V17.35" stroke="#424242" stroke-width="1.4" stroke-miterlimit="10" stroke-linecap="round"/>
<path d="M16.48 19.37V14.29C16.48 11.35 14.1 8.96997 11.16 8.96997C8.21997 8.96997 5.83997 11.35 5.83997 14.29V19.37" stroke="#424242" stroke-width="1.4" stroke-miterlimit="10" stroke-linecap="round"/>
</g>
<defs>
<clipPath id="clip0_25553_1344">
<rect width="22.42" height="20.07" fill="white"/>
</clipPath>
</defs>
</svg>
