<svg width="24" height="24" viewBox="0 0 24 24" fill="none" xmlns="http://www.w3.org/2000/svg">
<path d="M19.0131 22.4003H1.58443V4.80199H12.0575L13.6419 3.20215H1.58443C1.16421 3.20215 0.761205 3.3707 0.464068 3.67073C0.16693 3.97076 0 4.37769 0 4.80199V22.4003C0 22.8246 0.16693 23.2315 0.464068 23.5315C0.761205 23.8315 1.16421 24.0001 1.58443 24.0001H19.0131C19.4333 24.0001 19.8363 23.8315 20.1335 23.5315C20.4306 23.2315 20.5975 22.8246 20.5975 22.4003V10.4014L19.0131 12.0013V22.4003Z" fill="#5E7E9B"/>
<path d="M23.3939 3.07419L20.7242 0.378457C20.6057 0.258493 20.4649 0.163314 20.3099 0.0983712C20.155 0.0334287 19.9888 0 19.821 0C19.6532 0 19.4871 0.0334287 19.3321 0.0983712C19.1772 0.163314 19.0364 0.258493 18.9179 0.378457L8.05666 11.4094L7.17731 15.257C7.13984 15.4435 7.14378 15.6361 7.18884 15.8209C7.23389 16.0057 7.31895 16.1781 7.43788 16.3257C7.55682 16.4733 7.70668 16.5925 7.87668 16.6747C8.04669 16.7568 8.23261 16.7999 8.42108 16.8008C8.51849 16.8117 8.61679 16.8117 8.7142 16.8008L12.5564 15.9449L23.3939 4.89801C23.5127 4.77838 23.607 4.63625 23.6713 4.47976C23.7356 4.32328 23.7687 4.15552 23.7687 3.9861C23.7687 3.81668 23.7356 3.64892 23.6713 3.49244C23.607 3.33596 23.5127 3.19383 23.3939 3.07419ZM11.7325 14.4651L8.83303 15.113L9.50641 12.2093L17.6821 3.89811L19.9161 6.15389L11.7325 14.4651ZM20.8113 5.24998L18.5773 2.9942L19.8052 1.73032L22.0551 4.0021L20.8113 5.24998Z" fill="#5E7E9B"/>
</svg>
