<svg width="30" height="30" viewBox="0 0 30 30" fill="none" xmlns="http://www.w3.org/2000/svg">
<path d="M17.2291 25.5216C16.2847 25.5216 15.0278 25.2854 13.7326 24.3668C13.7262 24.3604 13.7198 24.354 13.7072 24.3476C13.6817 24.3283 11.0785 22.1463 7.5115 23.3075C7.34567 23.365 7.16702 23.2693 7.10954 23.1034C7.05206 22.9376 7.1478 22.7589 7.31363 22.7015C9.36167 22.038 11.0973 22.3824 12.1946 22.7972C13.3112 23.212 14.0068 23.7669 14.1087 23.8563C16.3993 25.4769 18.524 24.7113 18.6134 24.6794C18.6198 24.673 18.6326 24.673 18.6452 24.6666L27.6095 22.2675C28.2923 22.0824 28.7006 21.3742 28.522 20.6915C28.4327 20.3596 28.2222 20.0854 27.9222 19.913C27.6224 19.7407 27.2777 19.6961 26.946 19.7854L19.6152 21.7381C19.443 21.7828 19.2707 21.6806 19.2261 21.5148C19.1814 21.3426 19.2836 21.1703 19.4494 21.1257L26.7807 19.1605C27.2784 19.0265 27.7951 19.0966 28.2417 19.352C28.6884 19.6072 29.0074 20.0219 29.1414 20.5196C29.4158 21.5468 28.8033 22.5997 27.7823 22.8741L18.8308 25.2732C18.7094 25.3175 18.1034 25.5216 17.2292 25.5216L17.2291 25.5216Z" fill="#01CD74" stroke="#01CD74" stroke-width="0.2"/>
<path d="M17.67 23.1867C17.2872 23.1867 16.9043 23.091 16.5534 22.8869L11.9594 20.2326C11.8062 20.1432 11.7553 19.9518 11.8446 19.7988C11.934 19.6456 12.1254 19.5947 12.2784 19.684L16.8725 22.3383C17.6382 22.7785 18.6207 22.517 19.0674 21.7513C19.5076 20.9856 19.246 20.0031 18.4804 19.5564C17.6636 19.0844 16.9044 18.5993 16.1705 18.1273C12.8016 15.9707 10.1471 14.2607 5.65524 16.2386C5.49582 16.3087 5.30435 16.2386 5.23406 16.0728C5.16396 15.9134 5.23406 15.7219 5.39989 15.6516C10.2044 13.5397 13.1265 15.4155 16.5145 17.5913C17.242 18.0571 17.9948 18.542 18.7987 19.0015C19.8706 19.6203 20.2407 20.9922 19.6219 22.0641C19.2011 22.7783 18.4418 23.1867 17.6698 23.1867L17.67 23.1867Z" fill="#01CD74" stroke="#01CD74" stroke-width="0.2"/>
<path d="M4.14328 26C4.0858 26 4.03473 25.9872 3.98386 25.9553C3.91376 25.9107 3.85628 25.8406 3.83705 25.7638L1.0105 15.2296C0.965842 15.0574 1.06798 14.8851 1.23382 14.8405L4.95362 13.8451C5.03653 13.8258 5.11945 13.8322 5.19616 13.8769C5.26626 13.9216 5.32374 13.9917 5.34296 14.0684L8.1631 24.6026C8.20777 24.7749 8.10562 24.9471 7.93979 24.9918L4.22619 25.9936C4.20076 26 4.16871 26 4.14328 26H4.14328ZM1.71229 15.3704L4.36662 25.2919L7.47393 24.4623L4.8196 14.5408L1.71229 15.3704Z" fill="#01CD74" stroke="#01CD74" stroke-width="0.2"/>
<path d="M28.0505 17.3484H16.821C16.6424 17.3484 16.502 17.208 16.502 17.0294V15.5938C16.502 13.3414 17.7589 11.3124 19.7815 10.2918C19.9283 10.2153 20.1134 10.2664 20.1963 10.413C20.6748 11.2105 21.5108 11.6828 22.4359 11.6828C23.3609 11.6828 24.1969 11.2107 24.6754 10.413C24.7583 10.2662 24.9434 10.2151 25.0902 10.2918C27.1128 11.3126 28.3698 13.3416 28.3698 15.5938V17.0294C28.3698 17.2016 28.2294 17.3484 28.0507 17.3484H28.0505ZM17.1399 16.7104H27.7377V15.5938C27.7377 13.6798 26.7169 11.9377 25.058 10.9936C24.452 11.8168 23.4756 12.3207 22.442 12.3207C21.4083 12.3207 20.4322 11.8166 19.8259 10.9936C18.167 11.9443 17.1462 13.6798 17.1462 15.5938V16.7104H17.1399Z" fill="#01CD74" stroke="#01CD74" stroke-width="0.2"/>
<path d="M22.4362 10.4955C20.6433 10.4955 19.1885 9.04066 19.1885 7.24774C19.1885 5.45483 20.6433 4 22.4362 4C24.2291 4 25.684 5.45483 25.684 7.24774C25.684 9.04086 24.2291 10.4955 22.4362 10.4955V10.4955ZM22.4362 4.63823C21.0006 4.63823 19.8266 5.80583 19.8266 7.24785C19.8266 8.68345 20.9942 9.85747 22.4362 9.85747C23.8782 9.85747 25.0458 8.68986 25.0458 7.24785C25.0458 5.81224 23.8782 4.63823 22.4362 4.63823V4.63823Z" fill="#01CD74" stroke="#01CD74" stroke-width="0.2"/>
<path d="M12 5C10.9391 5 9.92169 5.42142 9.17155 6.17155C8.42142 6.92169 8 7.93915 8 9C8 10.0609 8.42142 11.0783 9.17155 11.8284C9.92169 12.5786 10.9391 13 12 13C13.0609 13 14.0783 12.5786 14.8284 11.8284C15.5786 11.0783 16 10.0609 16 9C15.9988 7.93957 15.5769 6.92281 14.8271 6.17292C14.0772 5.42303 13.0605 5.00123 12 5V5ZM14.1538 9.92308H12.9231V11.1538H11.0769V9.92308H9.84615V8.07692H11.0769V6.84615H12.9231V8.07692H14.1538V9.92308Z" fill="#01CD74"/>
</svg>
