<svg width="32" height="32" viewBox="0 0 32 32" fill="none" xmlns="http://www.w3.org/2000/svg">
<path d="M8.20764 2.28577C7.04195 2.28577 6.09375 3.23143 6.09375 4.39384V27.6063C6.09375 28.7687 7.04195 29.7143 8.20749 29.7143H24.0238C25.1895 29.7143 26.1377 28.7687 26.1377 27.6063V10.0744C26.1377 9.93809 26.0849 9.80701 25.9901 9.70856L19.0021 2.44766C18.9027 2.34435 18.7654 2.2859 18.6219 2.2859H8.20729L8.20764 2.28577ZM8.20764 3.3406H17.6981V10.1978C17.6981 10.4891 17.9342 10.7252 18.2255 10.7252H25.0828V27.6059C25.0828 28.1865 24.6078 28.6592 24.024 28.6592H8.20774C7.62383 28.6592 7.14883 28.1867 7.14883 27.6059V4.39345C7.14883 3.81281 7.62381 3.34015 8.20774 3.34015L8.20764 3.3406ZM18.753 3.70975L24.4892 9.67019H18.753V3.70975ZM15.9012 10.1574C15.7705 10.1558 15.6239 10.1723 15.4602 10.2133C15.047 10.3166 14.382 10.7201 14.5718 12.2624C14.6557 12.9438 14.9052 13.8118 15.275 14.7464C15.0761 15.3694 14.8547 16.0207 14.6371 16.6609C14.432 17.2641 14.2198 17.8878 14.031 18.4756H14.0308C13.8794 18.9473 13.7405 19.3931 13.6094 19.8147C13.4257 20.4055 13.2591 20.9408 13.0956 21.4255C10.2755 23.0268 9.14876 24.4136 9.07986 25.2669C9.0517 25.6135 9.18724 25.9149 9.45153 26.0933C9.58416 26.1828 9.77427 26.2586 10.0386 26.2586C10.3042 26.2586 10.6448 26.1821 11.0767 25.9661C12.5989 25.2049 13.3176 23.9464 13.9586 22.1529C14.5003 21.8566 15.1139 21.5469 15.8091 21.226C16.9055 20.7201 17.8391 20.4077 18.6234 20.224C19.5304 21.1767 20.4899 21.802 21.3902 21.802C22.3694 21.802 23.0602 21.4783 23.2852 20.9142C23.4511 20.4982 23.3244 20.0357 22.9462 19.677C22.409 19.1676 21.4535 18.9065 20.2575 18.9407C19.8604 18.9521 19.4405 18.997 19.0018 19.0741C18.0078 17.881 17.0427 16.2242 16.3943 14.699C17.0588 12.5546 17.3016 11.1534 16.6957 10.4953C16.5442 10.3308 16.2935 10.1621 15.9011 10.1572L15.9012 10.1574ZM15.8934 11.2112C15.9113 11.2114 15.9204 11.2124 15.9208 11.2112C15.9396 11.2343 16.1323 11.5157 15.7858 12.9674C15.7072 12.6684 15.6503 12.388 15.619 12.1336C15.5412 11.5004 15.653 11.2526 15.7159 11.2369C15.8056 11.2145 15.8627 11.2114 15.8932 11.2114L15.8934 11.2112ZM15.9134 16.1797C16.4587 17.2844 17.1304 18.3955 17.8625 19.3354C17.0679 19.5573 16.2292 19.87 15.3672 20.2678C15.0415 20.4181 14.7303 20.5675 14.4338 20.7153C14.4938 20.5242 14.5547 20.3282 14.6173 20.1279C14.7474 19.7094 14.8852 19.2665 15.0357 18.7983H15.0355C15.2218 18.2188 15.4325 17.5994 15.6362 17.0003C15.7323 16.7179 15.8249 16.4445 15.9136 16.1793L15.9134 16.1797ZM20.3395 19.9942C21.2864 19.9789 21.8027 20.1906 21.962 20.27C22.1866 20.3822 22.2726 20.4908 22.2956 20.5352C22.2391 20.597 21.9938 20.7469 21.3903 20.7469C20.9417 20.7469 20.4327 20.4731 19.9071 20.0158C20.0601 20.0032 20.2042 19.9964 20.3393 19.9942H20.3395ZM12.4493 23.0593C12.0022 23.9654 11.461 24.5945 10.605 25.0225C10.4169 25.1167 10.2777 25.1623 10.1809 25.184C10.3427 24.8291 10.9342 24.0675 12.4493 23.0593Z" fill="#424242"/>
</svg>
