<svg width="46" height="46" viewBox="0 0 46 46" fill="none" xmlns="http://www.w3.org/2000/svg">
<path fill-rule="evenodd" clip-rule="evenodd" d="M22.6139 32.2808C22.179 32.2808 21.8981 32.3192 21.7317 32.3574V37.9965C21.8983 38.0349 22.1669 38.0349 22.4096 38.0349C24.1737 38.0473 25.3249 37.0762 25.3249 35.0173C25.3373 33.2266 24.289 32.2808 22.6139 32.2808V32.2808Z" fill="#747474"/>
<path fill-rule="evenodd" clip-rule="evenodd" d="M15.0815 32.2559C14.6856 32.2559 14.417 32.2938 14.276 32.332V34.8771C14.4423 34.9153 14.6471 34.9284 14.9273 34.9284C15.9639 34.9284 16.6029 34.4037 16.6029 33.5216C16.6031 32.729 16.0529 32.2559 15.0815 32.2559V32.2559Z" fill="#747474"/>
<path d="M36.2811 13.6834C36.2791 13.5173 36.2263 13.3532 36.1122 13.2233L29.1255 5.24298C29.124 5.2407 29.1215 5.23995 29.12 5.23792C29.0782 5.1914 29.0305 5.15322 28.9791 5.11934C28.9637 5.10948 28.9478 5.10063 28.9318 5.09153C28.8873 5.06751 28.8408 5.04753 28.7918 5.03287C28.7791 5.02908 28.7667 5.02377 28.7536 5.02023C28.701 5.00759 28.6461 5 28.5913 5H11.421C10.6374 5 10 5.63767 10 6.42097V39.8133C10 40.5971 10.6374 41.2343 11.421 41.2343H34.8666C35.6501 41.2343 36.2878 40.5971 36.2878 39.8133V13.763C36.2876 13.7362 36.2835 13.7102 36.2808 13.6834L36.2811 13.6834ZM17.7405 35.5161C17.0758 36.1426 16.0913 36.4243 14.94 36.4243C14.6847 36.4243 14.4538 36.4111 14.2755 36.3861V39.4674H12.3448V30.9635C12.9453 30.8616 13.7898 30.7845 14.9792 30.7845C16.1809 30.7845 17.0379 31.0148 17.613 31.475C18.1632 31.9099 18.5329 32.6259 18.5329 33.4697C18.5329 34.3139 18.2522 35.0299 17.7405 35.5156L17.7405 35.5161ZM25.9629 38.4447C25.0562 39.1989 23.6752 39.557 21.9877 39.557C20.9774 39.557 20.2616 39.493 19.7748 39.4293V30.9636C20.4911 30.8491 21.4248 30.7846 22.4094 30.7846C24.0451 30.7846 25.1067 31.0789 25.9384 31.7052C26.8337 32.3704 27.3965 33.4316 27.3965 34.9532C27.3957 36.603 26.7947 37.7411 25.9629 38.4445V38.4447ZM33.9438 32.4473H30.6313V34.4165H33.7259V36.0026H30.6313V39.4675H28.6756V30.8496H33.9438V32.4473ZM11.4212 29.127V6.42118H27.8808V13.6914C27.8808 14.0835 28.1986 14.4019 28.5913 14.4019H34.8668L34.8676 29.1268L11.4212 29.127Z" fill="#747474"/>
<path d="M30.4336 20.2715C30.3922 20.2677 29.3909 20.1762 27.8541 20.1762C27.3727 20.1762 26.8877 20.1858 26.4089 20.2037C23.374 17.9261 20.8883 15.647 19.5574 14.3696C19.5817 14.229 19.5984 14.1178 19.606 14.0323C19.7817 12.1795 19.5865 10.9287 19.028 10.3145C18.6624 9.91325 18.1256 9.77975 17.5655 9.93272C17.2179 10.0237 16.5742 10.361 16.3678 11.0478C16.1405 11.8068 16.5061 12.7277 17.4671 13.7959C17.4823 13.8121 17.8085 14.1537 18.4009 14.7327C18.0158 16.5689 17.0078 20.5314 16.5188 22.434C15.3698 23.0479 14.4126 23.7872 13.6718 24.6355L13.6232 24.6912L13.5919 24.7577C13.5155 24.918 13.1507 25.7503 13.4245 26.4188C13.5496 26.7227 13.784 26.9447 14.1024 27.0613L14.1876 27.0843C14.1876 27.0843 14.2645 27.1007 14.4 27.1007C14.9926 27.1007 16.4556 26.7895 17.2404 23.8975L17.4306 23.1648C20.1698 21.8333 23.5939 21.404 26.0756 21.2841C27.3522 22.231 28.6225 23.1005 29.8533 23.8707L29.8935 23.894C29.9532 23.9246 30.493 24.1911 31.1251 24.1916C32.0285 24.1916 32.6884 23.6373 32.9339 22.6712L32.9463 22.605C33.015 22.053 32.8762 21.5552 32.5452 21.1663C31.8481 20.3466 30.5501 20.2753 30.4333 20.2712L30.4336 20.2715ZM14.4219 26.0348C14.4164 26.0282 14.4139 26.0221 14.4111 26.015C14.3522 25.8732 14.4227 25.5291 14.5269 25.277C14.9736 24.7774 15.51 24.3187 16.1289 23.9058C15.5261 25.857 14.6497 26.0257 14.422 26.0348L14.4219 26.0348ZM18.2487 13.0718C17.3233 12.0414 17.337 11.5307 17.3868 11.3587C17.4687 11.0713 17.8374 10.9625 17.8406 10.9615C18.0262 10.9112 18.139 10.9211 18.2394 11.0313C18.4664 11.2806 18.6614 12.0333 18.5845 13.4139C18.3658 13.1942 18.2487 13.0718 18.2487 13.0718L18.2487 13.0718ZM17.7706 21.8456L17.7865 21.7847L17.7845 21.7854C18.248 19.97 18.9162 17.3122 19.3005 15.605L19.3144 15.6181L19.3157 15.61C20.5592 16.7809 22.4656 18.4934 24.7483 20.2744L24.7228 20.2757L24.7604 20.304C22.61 20.4858 20.0417 20.9096 17.7705 21.8456L17.7706 21.8456ZM31.8929 22.441C31.729 23.0428 31.414 23.1249 31.1253 23.1249C30.7902 23.1249 30.4676 22.9856 30.394 22.9518C29.5559 22.4266 28.6985 21.8539 27.8333 21.2415H27.854C29.3374 21.2415 30.3253 21.3315 30.3642 21.3343C30.612 21.3437 31.396 21.4595 31.7338 21.8567C31.8663 22.0122 31.9172 22.1985 31.8929 22.441L31.8929 22.441Z" fill="#747474"/>
</svg>
