<svg width="24" height="24" viewBox="0 0 24 24" fill="none" xmlns="http://www.w3.org/2000/svg">
<path d="M20.9994 16.2252V19.0854C21.0005 19.3509 20.946 19.6138 20.8394 19.8571C20.7328 20.1004 20.5765 20.3188 20.3804 20.4983C20.1844 20.6778 19.9529 20.8144 19.7009 20.8995C19.4489 20.9846 19.1818 21.0162 18.9168 20.9923C15.9772 20.6735 13.1534 19.671 10.6725 18.0653C8.36425 16.6014 6.4073 14.6484 4.94057 12.3447C3.32607 9.85744 2.32133 7.02557 2.00775 4.07855C1.98388 3.8149 2.01528 3.54917 2.09994 3.2983C2.18461 3.04742 2.32069 2.81688 2.49952 2.62136C2.67835 2.42585 2.89601 2.26963 3.13865 2.16267C3.38128 2.05571 3.64358 2.00034 3.90883 2.00009H6.77477C7.2384 1.99554 7.68786 2.15939 8.03938 2.4611C8.39091 2.76282 8.62052 3.18181 8.6854 3.63998C8.80637 4.55533 9.0307 5.45408 9.35413 6.31909C9.48266 6.66035 9.51047 7.03122 9.43428 7.38777C9.35809 7.74431 9.18108 8.07159 8.92423 8.33082L7.71098 9.54166C9.07093 11.9286 11.0512 13.9049 13.4429 15.2622L14.6561 14.0513C14.9159 13.795 15.2438 13.6184 15.601 13.5423C15.9583 13.4663 16.3299 13.494 16.6718 13.6223C17.5386 13.9451 18.4391 14.169 19.3563 14.2897C19.8203 14.355 20.2441 14.5883 20.5471 14.9452C20.8501 15.302 21.011 15.7576 20.9994 16.2252Z" stroke="#2196F3" stroke-width="1.4" stroke-linecap="round" stroke-linejoin="round"/>
</svg>
