<svg width="30" height="30" viewBox="0 0 30 30" fill="none" xmlns="http://www.w3.org/2000/svg">
<path d="M24.9997 10.9998C24.9997 5.47344 20.5261 1 14.9998 1C9.47359 1 5 5.4738 5 10.9998C5 13.9822 6.31572 16.6575 8.37715 18.4999L5.43856 26.7458C5.3069 27.1405 5.70166 27.4915 6.05261 27.2722L8.9912 25.6056L10.2193 28.7634C10.351 29.1582 10.921 29.1144 11.0526 28.7634L13.8598 20.9564C14.2545 21.0002 14.6493 21.044 15.0002 21.044C15.2633 21.044 15.5266 21.044 15.7897 21.0002L18.5528 28.7633C18.6845 29.1581 19.2107 29.1581 19.3861 28.7633L20.6142 25.6054L23.5528 27.2721C23.9476 27.4914 24.3862 27.0528 24.1669 26.658L21.3597 18.7197C23.5966 16.9214 25 14.1583 25 11L24.9997 10.9998ZM12.9384 20.8245L10.6138 27.3599L9.60499 24.8161C9.51736 24.553 9.21024 24.4651 8.99094 24.5968L6.62262 25.9565L9.07882 19.1146C10.1753 19.9039 11.5348 20.5179 12.9384 20.8249V20.8245ZM22.9821 25.9561L20.6138 24.5963C20.4822 24.5525 20.3507 24.5087 20.2629 24.5525C20.1312 24.5963 20.0436 24.6842 19.9998 24.8156L18.9909 27.3594L16.6664 20.8684C18.0262 20.6492 19.3857 20.1227 20.6138 19.2894L22.9821 25.9561ZM14.9993 20.1666C9.9993 20.1666 5.8767 16.0875 5.8767 11.0439C5.8767 5.95609 9.95573 1.87685 14.9993 1.87685C20.0429 1.87685 24.122 5.95588 24.122 10.9995C24.122 16.0873 19.9553 20.1666 14.9993 20.1666Z" fill="#01CD74"/>
<path d="M14.9999 3.10498C10.6139 3.10498 7.06152 6.65763 7.06152 11.0433C7.06152 15.4291 10.6142 18.9817 14.9999 18.9817C19.3856 18.9817 22.9382 15.4291 22.9382 11.0433C22.9382 6.65763 19.3856 3.10498 14.9999 3.10498V3.10498ZM14.9999 18.0616C11.0963 18.0616 7.93822 14.9037 7.93822 10.9999C7.93822 7.14017 11.0961 3.9822 14.9999 3.9822C18.9037 3.9822 22.0615 7.14007 22.0615 11.0439C22.0615 14.9034 18.9037 18.0616 14.9999 18.0616Z" fill="#01CD74"/>
<path d="M15 6C13.6739 6 12.4021 6.52677 11.4644 7.46444C10.5268 8.40211 10 9.67393 10 11C10 12.3261 10.5268 13.5979 11.4644 14.5356C12.4021 15.4732 13.6739 16 15 16C16.3261 16 17.5979 15.4732 18.5356 14.5356C19.4732 13.5979 20 12.3261 20 11C19.9985 9.67446 19.4712 8.40352 18.5338 7.46615C17.5965 6.52879 16.3256 6.00154 15 6V6ZM17.6923 12.1538H16.1538V13.6923H13.8462V12.1538H12.3077V9.84615H13.8462V8.30769H16.1538V9.84615H17.6923V12.1538Z" fill="#01CD74"/>
</svg>
