<svg width="115" height="18" viewBox="0 0 115 18" fill="none" xmlns="http://www.w3.org/2000/svg">
<rect x="0.5" y="0.5" width="114" height="17" rx="3.5" fill="#E3E3E3"/>
<path d="M8.076 8.536H10.308C10.956 8.544 11.428 8.412 11.724 8.14C12.028 7.868 12.18 7.476 12.18 6.964C12.18 6.452 12.028 6.064 11.724 5.8C11.428 5.528 10.956 5.392 10.308 5.392H8.076V8.536ZM6.936 4.432H10.692C11.556 4.432 12.208 4.656 12.648 5.104C13.096 5.544 13.32 6.164 13.32 6.964C13.32 7.764 13.096 8.388 12.648 8.836C12.208 9.284 11.556 9.504 10.692 9.496H8.076V13H6.936V4.432ZM14.5133 6.796H15.4733V8.104H15.4973C15.7453 7.6 16.0493 7.228 16.4093 6.988C16.7693 6.748 17.2253 6.636 17.7773 6.652V7.732C17.3693 7.732 17.0213 7.788 16.7333 7.9C16.4453 8.012 16.2133 8.176 16.0373 8.392C15.8613 8.608 15.7333 8.872 15.6533 9.184C15.5733 9.488 15.5333 9.84 15.5333 10.24V13H14.5133V6.796ZM19.6253 5.68H18.6053V4.432H19.6253V5.68ZM18.6053 6.796H19.6253V13H18.6053V6.796ZM21.2055 6.796H22.1655V7.708H22.1895C22.6535 7.004 23.3215 6.652 24.1935 6.652C24.5775 6.652 24.9255 6.732 25.2375 6.892C25.5495 7.052 25.7695 7.324 25.8975 7.708C26.1055 7.372 26.3775 7.112 26.7135 6.928C27.0575 6.744 27.4335 6.652 27.8415 6.652C28.1535 6.652 28.4335 6.688 28.6815 6.76C28.9375 6.824 29.1535 6.928 29.3295 7.072C29.5135 7.216 29.6535 7.404 29.7495 7.636C29.8535 7.86 29.9055 8.132 29.9055 8.452V13H28.8855V8.932C28.8855 8.74 28.8695 8.56 28.8375 8.392C28.8055 8.224 28.7455 8.08 28.6575 7.96C28.5695 7.832 28.4455 7.732 28.2855 7.66C28.1335 7.588 27.9335 7.552 27.6855 7.552C27.1815 7.552 26.7855 7.696 26.4975 7.984C26.2095 8.272 26.0655 8.656 26.0655 9.136V13H25.0455V8.932C25.0455 8.732 25.0255 8.548 24.9855 8.38C24.9535 8.212 24.8935 8.068 24.8055 7.948C24.7175 7.82 24.5975 7.724 24.4455 7.66C24.3015 7.588 24.1135 7.552 23.8815 7.552C23.5855 7.552 23.3295 7.612 23.1135 7.732C22.9055 7.852 22.7335 7.996 22.5975 8.164C22.4695 8.332 22.3735 8.508 22.3095 8.692C22.2535 8.868 22.2255 9.016 22.2255 9.136V13H21.2055V6.796ZM36.932 12.976C36.756 13.08 36.512 13.132 36.2 13.132C35.936 13.132 35.724 13.06 35.564 12.916C35.412 12.764 35.336 12.52 35.336 12.184C35.056 12.52 34.728 12.764 34.352 12.916C33.984 13.06 33.584 13.132 33.152 13.132C32.872 13.132 32.604 13.1 32.348 13.036C32.1 12.972 31.884 12.872 31.7 12.736C31.516 12.6 31.368 12.424 31.256 12.208C31.152 11.984 31.1 11.716 31.1 11.404C31.1 11.052 31.16 10.764 31.28 10.54C31.4 10.316 31.556 10.136 31.748 10C31.948 9.856 32.172 9.748 32.42 9.676C32.676 9.604 32.936 9.544 33.2 9.496C33.48 9.44 33.744 9.4 33.992 9.376C34.248 9.344 34.472 9.304 34.664 9.256C34.856 9.2 35.008 9.124 35.12 9.028C35.232 8.924 35.288 8.776 35.288 8.584C35.288 8.36 35.244 8.18 35.156 8.044C35.076 7.908 34.968 7.804 34.832 7.732C34.704 7.66 34.556 7.612 34.388 7.588C34.228 7.564 34.068 7.552 33.908 7.552C33.476 7.552 33.116 7.636 32.828 7.804C32.54 7.964 32.384 8.272 32.36 8.728H31.34C31.356 8.344 31.436 8.02 31.58 7.756C31.724 7.492 31.916 7.28 32.156 7.12C32.396 6.952 32.668 6.832 32.972 6.76C33.284 6.688 33.616 6.652 33.968 6.652C34.248 6.652 34.524 6.672 34.796 6.712C35.076 6.752 35.328 6.836 35.552 6.964C35.776 7.084 35.956 7.256 36.092 7.48C36.228 7.704 36.296 7.996 36.296 8.356V11.548C36.296 11.788 36.308 11.964 36.332 12.076C36.364 12.188 36.46 12.244 36.62 12.244C36.708 12.244 36.812 12.224 36.932 12.184V12.976ZM35.276 9.796C35.148 9.892 34.98 9.964 34.772 10.012C34.564 10.052 34.344 10.088 34.112 10.12C33.888 10.144 33.66 10.176 33.428 10.216C33.196 10.248 32.988 10.304 32.804 10.384C32.62 10.464 32.468 10.58 32.348 10.732C32.236 10.876 32.18 11.076 32.18 11.332C32.18 11.5 32.212 11.644 32.276 11.764C32.348 11.876 32.436 11.968 32.54 12.04C32.652 12.112 32.78 12.164 32.924 12.196C33.068 12.228 33.22 12.244 33.38 12.244C33.716 12.244 34.004 12.2 34.244 12.112C34.484 12.016 34.68 11.9 34.832 11.764C34.984 11.62 35.096 11.468 35.168 11.308C35.24 11.14 35.276 10.984 35.276 10.84V9.796ZM37.8453 6.796H38.8053V8.104H38.8293C39.0773 7.6 39.3813 7.228 39.7413 6.988C40.1013 6.748 40.5573 6.636 41.1093 6.652V7.732C40.7013 7.732 40.3533 7.788 40.0653 7.9C39.7773 8.012 39.5453 8.176 39.3693 8.392C39.1933 8.608 39.0653 8.872 38.9853 9.184C38.9053 9.488 38.8653 9.84 38.8653 10.24V13H37.8453V6.796ZM44.3134 13.828C44.1934 14.132 44.0734 14.388 43.9534 14.596C43.8414 14.804 43.7134 14.972 43.5694 15.1C43.4334 15.236 43.2774 15.332 43.1014 15.388C42.9334 15.452 42.7374 15.484 42.5134 15.484C42.3934 15.484 42.2734 15.476 42.1534 15.46C42.0334 15.444 41.9174 15.416 41.8054 15.376V14.44C41.8934 14.48 41.9934 14.512 42.1054 14.536C42.2254 14.568 42.3254 14.584 42.4054 14.584C42.6134 14.584 42.7854 14.532 42.9214 14.428C43.0654 14.332 43.1734 14.192 43.2454 14.008L43.6654 12.964L41.2054 6.796H42.3574L44.1694 11.872H44.1934L45.9334 6.796H47.0134L44.3134 13.828ZM57.4092 7.012C57.2812 6.404 56.9972 5.948 56.5572 5.644C56.1252 5.34 55.6092 5.188 55.0092 5.188C54.4972 5.188 54.0572 5.284 53.6892 5.476C53.3292 5.668 53.0292 5.928 52.7892 6.256C52.5572 6.576 52.3852 6.944 52.2732 7.36C52.1612 7.776 52.1052 8.208 52.1052 8.656C52.1052 9.144 52.1612 9.608 52.2732 10.048C52.3852 10.48 52.5572 10.86 52.7892 11.188C53.0292 11.508 53.3332 11.764 53.7012 11.956C54.0692 12.148 54.5092 12.244 55.0212 12.244C55.3972 12.244 55.7292 12.184 56.0172 12.064C56.3132 11.936 56.5652 11.764 56.7732 11.548C56.9892 11.324 57.1572 11.06 57.2772 10.756C57.3972 10.452 57.4692 10.124 57.4932 9.772H58.6332C58.5212 10.852 58.1492 11.692 57.5172 12.292C56.8852 12.892 56.0212 13.192 54.9252 13.192C54.2612 13.192 53.6812 13.08 53.1852 12.856C52.6892 12.624 52.2772 12.308 51.9492 11.908C51.6212 11.508 51.3732 11.036 51.2052 10.492C51.0452 9.948 50.9652 9.364 50.9652 8.74C50.9652 8.116 51.0532 7.532 51.2292 6.988C51.4052 6.436 51.6612 5.956 51.9972 5.548C52.3412 5.14 52.7652 4.82 53.2692 4.588C53.7812 4.348 54.3652 4.228 55.0212 4.228C55.4692 4.228 55.8932 4.288 56.2932 4.408C56.6932 4.528 57.0492 4.704 57.3612 4.936C57.6732 5.168 57.9332 5.46 58.1412 5.812C58.3492 6.156 58.4852 6.556 58.5492 7.012H57.4092ZM60.6214 9.904C60.6214 10.28 60.6694 10.616 60.7654 10.912C60.8694 11.2 61.0094 11.444 61.1854 11.644C61.3614 11.836 61.5654 11.984 61.7974 12.088C62.0374 12.192 62.2894 12.244 62.5534 12.244C62.8174 12.244 63.0654 12.192 63.2974 12.088C63.5374 11.984 63.7454 11.836 63.9214 11.644C64.0974 11.444 64.2334 11.2 64.3294 10.912C64.4334 10.616 64.4854 10.28 64.4854 9.904C64.4854 9.528 64.4334 9.196 64.3294 8.908C64.2334 8.612 64.0974 8.364 63.9214 8.164C63.7454 7.964 63.5374 7.812 63.2974 7.708C63.0654 7.604 62.8174 7.552 62.5534 7.552C62.2894 7.552 62.0374 7.604 61.7974 7.708C61.5654 7.812 61.3614 7.964 61.1854 8.164C61.0094 8.364 60.8694 8.612 60.7654 8.908C60.6694 9.196 60.6214 9.528 60.6214 9.904ZM59.5414 9.904C59.5414 9.448 59.6054 9.024 59.7334 8.632C59.8614 8.232 60.0534 7.888 60.3094 7.6C60.5654 7.304 60.8814 7.072 61.2574 6.904C61.6334 6.736 62.0654 6.652 62.5534 6.652C63.0494 6.652 63.4814 6.736 63.8494 6.904C64.2254 7.072 64.5414 7.304 64.7974 7.6C65.0534 7.888 65.2454 8.232 65.3734 8.632C65.5014 9.024 65.5654 9.448 65.5654 9.904C65.5654 10.36 65.5014 10.784 65.3734 11.176C65.2454 11.568 65.0534 11.912 64.7974 12.208C64.5414 12.496 64.2254 12.724 63.8494 12.892C63.4814 13.052 63.0494 13.132 62.5534 13.132C62.0654 13.132 61.6334 13.052 61.2574 12.892C60.8814 12.724 60.5654 12.496 60.3094 12.208C60.0534 11.912 59.8614 11.568 59.7334 11.176C59.6054 10.784 59.5414 10.36 59.5414 9.904ZM66.768 6.796H67.728V7.78H67.752C68.176 7.028 68.848 6.652 69.768 6.652C70.176 6.652 70.516 6.708 70.788 6.82C71.06 6.932 71.28 7.088 71.448 7.288C71.616 7.488 71.732 7.728 71.796 8.008C71.868 8.28 71.904 8.584 71.904 8.92V13H70.884V8.8C70.884 8.416 70.772 8.112 70.548 7.888C70.324 7.664 70.016 7.552 69.624 7.552C69.312 7.552 69.04 7.6 68.808 7.696C68.584 7.792 68.396 7.928 68.244 8.104C68.092 8.28 67.976 8.488 67.896 8.728C67.824 8.96 67.788 9.216 67.788 9.496V13H66.768V6.796ZM74.06 11.044C74.068 11.268 74.12 11.46 74.216 11.62C74.312 11.772 74.436 11.896 74.588 11.992C74.748 12.08 74.924 12.144 75.116 12.184C75.316 12.224 75.52 12.244 75.728 12.244C75.888 12.244 76.056 12.232 76.232 12.208C76.408 12.184 76.568 12.14 76.712 12.076C76.864 12.012 76.988 11.92 77.084 11.8C77.18 11.672 77.228 11.512 77.228 11.32C77.228 11.056 77.128 10.856 76.928 10.72C76.728 10.584 76.476 10.476 76.172 10.396C75.876 10.308 75.552 10.232 75.2 10.168C74.848 10.096 74.52 10 74.216 9.88C73.92 9.752 73.672 9.576 73.472 9.352C73.272 9.128 73.172 8.816 73.172 8.416C73.172 8.104 73.24 7.836 73.376 7.612C73.52 7.388 73.7 7.208 73.916 7.072C74.14 6.928 74.388 6.824 74.66 6.76C74.94 6.688 75.216 6.652 75.488 6.652C75.84 6.652 76.164 6.684 76.46 6.748C76.756 6.804 77.016 6.908 77.24 7.06C77.472 7.204 77.656 7.404 77.792 7.66C77.928 7.908 78.008 8.22 78.032 8.596H77.012C76.996 8.396 76.944 8.232 76.856 8.104C76.768 7.968 76.656 7.86 76.52 7.78C76.384 7.7 76.232 7.644 76.064 7.612C75.904 7.572 75.74 7.552 75.572 7.552C75.42 7.552 75.264 7.564 75.104 7.588C74.952 7.612 74.812 7.656 74.684 7.72C74.556 7.776 74.452 7.856 74.372 7.96C74.292 8.056 74.252 8.184 74.252 8.344C74.252 8.52 74.312 8.668 74.432 8.788C74.56 8.9 74.72 8.996 74.912 9.076C75.104 9.148 75.32 9.212 75.56 9.268C75.8 9.316 76.04 9.368 76.28 9.424C76.536 9.48 76.784 9.548 77.024 9.628C77.272 9.708 77.488 9.816 77.672 9.952C77.864 10.08 78.016 10.244 78.128 10.444C78.248 10.644 78.308 10.892 78.308 11.188C78.308 11.564 78.228 11.876 78.068 12.124C77.916 12.372 77.712 12.572 77.456 12.724C77.208 12.876 76.924 12.98 76.604 13.036C76.292 13.1 75.98 13.132 75.668 13.132C75.324 13.132 74.996 13.096 74.684 13.024C74.372 12.952 74.096 12.836 73.856 12.676C73.616 12.508 73.424 12.292 73.28 12.028C73.136 11.756 73.056 11.428 73.04 11.044H74.06ZM84.572 13H83.612V12.016H83.588C83.372 12.4 83.096 12.684 82.76 12.868C82.424 13.044 82.028 13.132 81.572 13.132C81.164 13.132 80.824 13.08 80.552 12.976C80.28 12.864 80.06 12.708 79.892 12.508C79.724 12.308 79.604 12.072 79.532 11.8C79.468 11.52 79.436 11.212 79.436 10.876V6.796H80.456V10.996C80.456 11.38 80.568 11.684 80.792 11.908C81.016 12.132 81.324 12.244 81.716 12.244C82.028 12.244 82.296 12.196 82.52 12.1C82.752 12.004 82.944 11.868 83.096 11.692C83.248 11.516 83.36 11.312 83.432 11.08C83.512 10.84 83.552 10.58 83.552 10.3V6.796H84.572V13ZM86.1639 4.432H87.1839V13H86.1639V4.432ZM90.1801 6.796H91.4161V7.696H90.1801V11.548C90.1801 11.668 90.1881 11.764 90.2041 11.836C90.2281 11.908 90.2681 11.964 90.3241 12.004C90.3801 12.044 90.4561 12.072 90.5521 12.088C90.6561 12.096 90.7881 12.1 90.9481 12.1H91.4161V13H90.6361C90.3721 13 90.1441 12.984 89.9521 12.952C89.7681 12.912 89.6161 12.844 89.4961 12.748C89.3841 12.652 89.3001 12.516 89.2441 12.34C89.1881 12.164 89.1601 11.932 89.1601 11.644V7.696H88.1041V6.796H89.1601V4.936H90.1801V6.796ZM98.0453 12.976C97.8693 13.08 97.6253 13.132 97.3133 13.132C97.0493 13.132 96.8373 13.06 96.6773 12.916C96.5253 12.764 96.4493 12.52 96.4493 12.184C96.1693 12.52 95.8413 12.764 95.4653 12.916C95.0973 13.06 94.6973 13.132 94.2653 13.132C93.9853 13.132 93.7173 13.1 93.4613 13.036C93.2133 12.972 92.9973 12.872 92.8133 12.736C92.6293 12.6 92.4813 12.424 92.3693 12.208C92.2653 11.984 92.2133 11.716 92.2133 11.404C92.2133 11.052 92.2733 10.764 92.3933 10.54C92.5133 10.316 92.6693 10.136 92.8613 10C93.0613 9.856 93.2853 9.748 93.5333 9.676C93.7893 9.604 94.0493 9.544 94.3133 9.496C94.5933 9.44 94.8573 9.4 95.1053 9.376C95.3613 9.344 95.5853 9.304 95.7773 9.256C95.9693 9.2 96.1213 9.124 96.2333 9.028C96.3453 8.924 96.4013 8.776 96.4013 8.584C96.4013 8.36 96.3573 8.18 96.2693 8.044C96.1893 7.908 96.0813 7.804 95.9453 7.732C95.8173 7.66 95.6693 7.612 95.5013 7.588C95.3413 7.564 95.1813 7.552 95.0213 7.552C94.5893 7.552 94.2293 7.636 93.9413 7.804C93.6533 7.964 93.4973 8.272 93.4733 8.728H92.4533C92.4693 8.344 92.5493 8.02 92.6933 7.756C92.8373 7.492 93.0293 7.28 93.2693 7.12C93.5093 6.952 93.7813 6.832 94.0853 6.76C94.3973 6.688 94.7293 6.652 95.0813 6.652C95.3613 6.652 95.6373 6.672 95.9093 6.712C96.1893 6.752 96.4413 6.836 96.6653 6.964C96.8893 7.084 97.0693 7.256 97.2053 7.48C97.3413 7.704 97.4093 7.996 97.4093 8.356V11.548C97.4093 11.788 97.4213 11.964 97.4453 12.076C97.4773 12.188 97.5733 12.244 97.7333 12.244C97.8213 12.244 97.9253 12.224 98.0453 12.184V12.976ZM96.3893 9.796C96.2613 9.892 96.0933 9.964 95.8853 10.012C95.6773 10.052 95.4573 10.088 95.2253 10.12C95.0013 10.144 94.7733 10.176 94.5413 10.216C94.3093 10.248 94.1013 10.304 93.9173 10.384C93.7333 10.464 93.5813 10.58 93.4613 10.732C93.3493 10.876 93.2933 11.076 93.2933 11.332C93.2933 11.5 93.3253 11.644 93.3893 11.764C93.4613 11.876 93.5493 11.968 93.6533 12.04C93.7653 12.112 93.8933 12.164 94.0373 12.196C94.1813 12.228 94.3333 12.244 94.4933 12.244C94.8293 12.244 95.1173 12.2 95.3573 12.112C95.5973 12.016 95.7933 11.9 95.9453 11.764C96.0973 11.62 96.2093 11.468 96.2813 11.308C96.3533 11.14 96.3893 10.984 96.3893 10.84V9.796ZM98.9946 6.796H99.9546V7.78H99.9786C100.403 7.028 101.075 6.652 101.995 6.652C102.403 6.652 102.743 6.708 103.015 6.82C103.287 6.932 103.507 7.088 103.675 7.288C103.843 7.488 103.959 7.728 104.023 8.008C104.095 8.28 104.131 8.584 104.131 8.92V13H103.111V8.8C103.111 8.416 102.999 8.112 102.775 7.888C102.551 7.664 102.243 7.552 101.851 7.552C101.539 7.552 101.267 7.6 101.035 7.696C100.811 7.792 100.623 7.928 100.471 8.104C100.319 8.28 100.203 8.488 100.123 8.728C100.051 8.96 100.015 9.216 100.015 9.496V13H98.9946V6.796ZM107.079 6.796H108.315V7.696H107.079V11.548C107.079 11.668 107.087 11.764 107.103 11.836C107.127 11.908 107.167 11.964 107.223 12.004C107.279 12.044 107.355 12.072 107.451 12.088C107.555 12.096 107.687 12.1 107.847 12.1H108.315V13H107.535C107.271 13 107.043 12.984 106.851 12.952C106.667 12.912 106.515 12.844 106.395 12.748C106.283 12.652 106.199 12.516 106.143 12.34C106.087 12.164 106.059 11.932 106.059 11.644V7.696H105.003V6.796H106.059V4.936H107.079V6.796Z" fill="#676767"/>
<rect x="0.5" y="0.5" width="114" height="17" rx="3.5" stroke="#CDCDCD"/>
</svg>
