<svg width="24" height="24" viewBox="0 0 24 24" fill="none" xmlns="http://www.w3.org/2000/svg">
<path d="M7.10761 3C5.86414 3 4.53931 3.5533 3.48347 4.51073C2.42763 5.46815 1.64112 6.85377 1.59506 8.49648C1.56806 9.45937 1.75743 10.4042 2.09328 11.301H1.2013C1.13315 11.3 1.06549 11.3126 1.00225 11.338C0.939009 11.3634 0.881449 11.4012 0.832915 11.449C0.784382 11.4969 0.745843 11.5539 0.719538 11.6168C0.693233 11.6796 0.679688 11.7471 0.679688 11.8153C0.679688 11.8834 0.693233 11.9509 0.719538 12.0138C0.745843 12.0766 0.784382 12.1337 0.832915 12.1815C0.881449 12.2294 0.939009 12.2671 1.00225 12.2925C1.06549 12.3179 1.13315 12.3305 1.2013 12.3296H7.29243C7.38271 12.3312 7.47182 12.309 7.55081 12.2653C7.6298 12.2216 7.69589 12.1578 7.74244 12.0804L9.0362 9.8706L11.005 15.5117C11.0399 15.6108 11.1042 15.6968 11.1894 15.7581C11.2746 15.8195 11.3765 15.8534 11.4815 15.8551C11.5865 15.8569 11.6895 15.8264 11.7767 15.7679C11.8639 15.7094 11.9311 15.6256 11.9693 15.5278L13.705 11.076L14.5568 14.2823C14.5853 14.384 14.6444 14.4745 14.7262 14.5414C14.8079 14.6083 14.9082 14.6485 15.0136 14.6564C15.1189 14.6643 15.2242 14.6396 15.315 14.5856C15.4058 14.5316 15.4777 14.4509 15.5211 14.3546L16.405 12.3296H17.8916C17.9598 12.3305 18.0275 12.3179 18.0907 12.2925C18.1539 12.2671 18.2115 12.2294 18.26 12.1815C18.3086 12.1337 18.3471 12.0766 18.3734 12.0138C18.3997 11.9509 18.4133 11.8834 18.4133 11.8153C18.4133 11.7471 18.3997 11.6796 18.3734 11.6168C18.3471 11.5539 18.3086 11.4969 18.26 11.449C18.2115 11.4012 18.1539 11.3634 18.0907 11.338C18.0275 11.3126 17.9598 11.3 17.8916 11.301H16.0675C15.9678 11.3024 15.8707 11.3328 15.7879 11.3884C15.7052 11.4441 15.6404 11.5226 15.6014 11.6144L15.1675 12.6028L14.2916 9.30006C14.263 9.19652 14.2026 9.10454 14.119 9.03704C14.0355 8.96954 13.9328 8.92991 13.8256 8.9237C13.7183 8.9175 13.6118 8.94504 13.521 9.00245C13.4302 9.05986 13.3597 9.14426 13.3193 9.24381L11.5193 13.8564L9.63888 8.48041C9.59885 8.36591 9.51963 8.26924 9.41524 8.20749C9.31084 8.14573 9.18797 8.12286 9.06834 8.14291C8.99485 8.15627 8.92516 8.18547 8.8641 8.22849C8.80304 8.27151 8.75208 8.32731 8.71477 8.39202L7.00314 11.301H3.21025C2.81762 10.3914 2.59733 9.4669 2.62364 8.52862C2.66101 7.19566 3.29376 6.07281 4.17455 5.27413C5.05533 4.47544 6.18449 4.02858 7.10761 4.02858C8.84901 4.02858 9.92493 4.68301 10.6032 5.33842C11.2814 5.99382 11.5193 6.61611 11.5193 6.61611C11.5558 6.71451 11.6216 6.79937 11.7078 6.85929C11.794 6.91922 11.8964 6.95133 12.0014 6.95133C12.1064 6.95133 12.2088 6.91922 12.295 6.85929C12.3812 6.79937 12.447 6.71451 12.4836 6.61611C12.4836 6.61611 12.7214 5.99382 13.3996 5.33842C14.0779 4.68301 15.1538 4.02858 16.8952 4.02858C17.8183 4.02858 18.9475 4.47544 19.8283 5.27413C20.7091 6.07281 21.3418 7.19566 21.3792 8.52862C21.4054 9.4627 21.1827 10.3963 20.7926 11.301H19.9167C19.8485 11.3 19.7809 11.3126 19.7176 11.338C19.6544 11.3634 19.5968 11.4012 19.5483 11.449C19.4997 11.4969 19.4612 11.5539 19.4349 11.6168C19.4086 11.6796 19.395 11.7471 19.395 11.8153C19.395 11.8834 19.4086 11.9509 19.4349 12.0138C19.4612 12.0766 19.4997 12.1337 19.5483 12.1815C19.5968 12.2294 19.6544 12.2671 19.7176 12.2925C19.7809 12.3179 19.8485 12.3305 19.9167 12.3296H20.2702C19.9729 12.8408 19.6323 13.3387 19.2497 13.8242C17.9529 15.4697 16.2619 16.9228 14.8139 18.0028C14.7587 18.0426 14.7119 18.0929 14.6763 18.1509C14.6406 18.2089 14.6168 18.2733 14.6063 18.3406C14.5957 18.4078 14.5986 18.4764 14.6148 18.5425C14.631 18.6086 14.6601 18.6709 14.7005 18.7256C14.7409 18.7804 14.7918 18.8266 14.8502 18.8616C14.9086 18.8965 14.9733 18.9195 15.0407 18.9293C15.1081 18.9391 15.1767 18.9353 15.2426 18.9184C15.3085 18.9014 15.3704 18.8716 15.4247 18.8305C16.9179 17.7167 18.6701 16.2222 20.0533 14.4671C20.5855 13.7917 21.0655 13.0803 21.4515 12.3296H22.8015C22.8697 12.3305 22.9373 12.3179 23.0006 12.2925C23.0638 12.2671 23.1214 12.2294 23.1699 12.1815C23.2184 12.1337 23.257 12.0766 23.2833 12.0138C23.3096 11.9509 23.3231 11.8834 23.3231 11.8153C23.3231 11.7471 23.3096 11.6796 23.2833 11.6168C23.257 11.5539 23.2184 11.4969 23.1699 11.449C23.1214 11.4012 23.0638 11.3634 23.0006 11.338C22.9373 11.3126 22.8697 11.3 22.8015 11.301H21.9095C22.2471 10.4037 22.4348 9.46194 22.4078 8.49648C22.3617 6.85377 21.5752 5.46815 20.5193 4.51073C19.4635 3.5533 18.1387 3 16.8952 3C14.887 3 13.5157 3.79585 12.6844 4.59912C12.3665 4.90632 12.1824 5.19051 12.0014 5.45895C11.8204 5.19051 11.6363 4.90632 11.3184 4.59912C10.4871 3.79585 9.11577 3 7.10761 3ZM4.35133 13.6072C4.2523 13.6044 4.15454 13.6301 4.06981 13.6815C3.98507 13.7328 3.91697 13.8075 3.87368 13.8966C3.83039 13.9858 3.81377 14.0855 3.8258 14.1838C3.83783 14.2822 3.87801 14.3749 3.94151 14.451C6.95375 18.2865 11.7523 20.9359 11.7523 20.9359C11.8716 21.002 12.0124 21.0179 12.1435 20.9802C12.2746 20.9426 12.3853 20.8543 12.4514 20.735C12.5175 20.6156 12.5334 20.4749 12.4958 20.3438C12.4581 20.2127 12.3699 20.1019 12.2505 20.0359C12.2505 20.0359 7.5691 17.4119 4.74509 13.8162C4.69933 13.754 4.64018 13.703 4.57202 13.6668C4.50386 13.6307 4.42843 13.6103 4.35133 13.6072V13.6072Z" fill="white"/>
</svg>
