<svg width="36" height="36" viewBox="0 0 36 36" fill="none" xmlns="http://www.w3.org/2000/svg">
<path d="M10.6604 4.5C8.79523 4.5 6.80798 5.32996 5.22422 6.76609C3.64046 8.20223 2.4607 10.2807 2.39161 12.7447C2.35111 14.1891 2.63517 15.6062 3.13894 16.9515H1.80098C1.69875 16.95 1.59726 16.9689 1.5024 17.007C1.40754 17.0451 1.3212 17.1017 1.2484 17.1735C1.1756 17.2453 1.11779 17.3308 1.07833 17.4251C1.03887 17.5194 1.01855 17.6207 1.01855 17.7229C1.01855 17.8251 1.03887 17.9263 1.07833 18.0207C1.11779 18.115 1.1756 18.2005 1.2484 18.2723C1.3212 18.3441 1.40754 18.4007 1.5024 18.4388C1.59726 18.4769 1.69875 18.4958 1.80098 18.4943H10.9377C11.0731 18.4968 11.2067 18.4635 11.3252 18.3979C11.4437 18.3323 11.5429 18.2367 11.6127 18.1207L13.5533 14.8059L16.5065 23.2676C16.5588 23.4162 16.6553 23.5451 16.7831 23.6372C16.9109 23.7293 17.0638 23.7801 17.2213 23.7827C17.3788 23.7853 17.5333 23.7397 17.6641 23.6519C17.7949 23.5641 17.8957 23.4384 17.9529 23.2917L20.5565 16.614L21.8342 21.4234C21.877 21.576 21.9657 21.7117 22.0883 21.8121C22.2108 21.9125 22.3614 21.9727 22.5194 21.9846C22.6774 21.9964 22.8353 21.9593 22.9715 21.8783C23.1077 21.7973 23.2156 21.6764 23.2806 21.5319L24.6066 18.4943H26.8365C26.9387 18.4958 27.0402 18.4769 27.1351 18.4388C27.2299 18.4007 27.3163 18.3441 27.3891 18.2723C27.4619 18.2005 27.5197 18.115 27.5591 18.0207C27.5986 17.9263 27.6189 17.8251 27.6189 17.7229C27.6189 17.6207 27.5986 17.5194 27.5591 17.4251C27.5197 17.3308 27.4619 17.2453 27.3891 17.1735C27.3163 17.1017 27.2299 17.0451 27.1351 17.007C27.0402 16.9689 26.9387 16.95 26.8365 16.9515H24.1003C23.9507 16.9536 23.805 16.9992 23.6809 17.0827C23.5568 17.1661 23.4596 17.2839 23.4012 17.4216L22.7503 18.9042L21.4364 13.9501C21.3935 13.7948 21.3029 13.6568 21.1776 13.5556C21.0522 13.4543 20.8983 13.3949 20.7374 13.3856C20.5765 13.3762 20.4168 13.4176 20.2806 13.5037C20.1444 13.5898 20.0385 13.7164 19.9779 13.8657L17.2779 20.7845L14.4573 12.7206C14.3973 12.5489 14.2785 12.4039 14.1219 12.3112C13.9653 12.2186 13.781 12.1843 13.6015 12.2144C13.4913 12.2344 13.3868 12.2782 13.2952 12.3427C13.2036 12.4073 13.1271 12.491 13.0712 12.588L10.5037 16.9515H4.8144C4.22545 15.5871 3.89502 14.2003 3.93448 12.7929C3.99054 10.7935 4.93967 9.10922 6.26084 7.91119C7.58202 6.71316 9.27576 6.04287 10.6604 6.04287C13.2725 6.04287 14.8864 7.02451 15.9038 8.00762C16.9212 8.99074 17.2779 9.92416 17.2779 9.92416C17.3327 10.0718 17.4314 10.1991 17.5607 10.2889C17.69 10.3788 17.8437 10.427 18.0011 10.427C18.1586 10.427 18.3123 10.3788 18.4416 10.2889C18.5708 10.1991 18.6695 10.0718 18.7244 9.92416C18.7244 9.92416 19.0811 8.99074 20.0985 8.00762C21.1158 7.02451 22.7297 6.04287 25.3418 6.04287C26.7265 6.04287 28.4202 6.71316 29.7414 7.91119C31.0626 9.10922 32.0117 10.7935 32.0678 12.7929C32.1071 14.1941 31.7731 15.5944 31.1879 16.9515H29.874C29.7718 16.95 29.6703 16.9689 29.5754 17.007C29.4806 17.0451 29.3942 17.1017 29.3214 17.1735C29.2486 17.2453 29.1908 17.3308 29.1514 17.4251C29.1119 17.5194 29.0916 17.6207 29.0916 17.7229C29.0916 17.8251 29.1119 17.9263 29.1514 18.0207C29.1908 18.115 29.2486 18.2005 29.3214 18.2723C29.3942 18.3441 29.4806 18.4007 29.5754 18.4388C29.6703 18.4769 29.7718 18.4958 29.874 18.4943H30.4044C29.9584 19.2612 29.4475 20.0081 28.8736 20.7363C26.9284 23.2045 24.3918 25.3841 22.2199 27.0042C22.1371 27.0639 22.0669 27.1394 22.0134 27.2263C21.9599 27.3133 21.9243 27.41 21.9085 27.5108C21.8926 27.6117 21.897 27.7147 21.9213 27.8138C21.9455 27.913 21.9892 28.0063 22.0498 28.0885C22.1104 28.1706 22.1868 28.2399 22.2743 28.2923C22.3619 28.3448 22.459 28.3793 22.5601 28.3939C22.6611 28.4086 22.764 28.403 22.8629 28.3776C22.9618 28.3521 23.0546 28.3073 23.136 28.2458C25.3759 26.575 28.0042 24.3333 30.0789 21.7006C30.8772 20.6876 31.5972 19.6204 32.1763 18.4943H34.2013C34.3035 18.4958 34.405 18.4769 34.4999 18.4388C34.5947 18.4007 34.6811 18.3441 34.7539 18.2723C34.8267 18.2005 34.8845 18.115 34.9239 18.0207C34.9634 17.9263 34.9837 17.8251 34.9837 17.7229C34.9837 17.6207 34.9634 17.5194 34.9239 17.4251C34.8845 17.3308 34.8267 17.2453 34.7539 17.1735C34.6811 17.1017 34.5947 17.0451 34.4999 17.007C34.405 16.9689 34.3035 16.95 34.2013 16.9515H32.8633C33.3697 15.6056 33.6513 14.1929 33.6107 12.7447C33.5416 10.2807 32.3618 8.20223 30.778 6.76609C29.1943 5.32996 27.207 4.5 25.3418 4.5C22.3296 4.5 20.2726 5.69377 19.0257 6.89868C18.5488 7.35948 18.2727 7.78577 18.0011 8.18843C17.7296 7.78577 17.4534 7.35948 16.9766 6.89868C15.7297 5.69377 13.6727 4.5 10.6604 4.5ZM6.52602 20.4109C6.37747 20.4065 6.23083 20.4452 6.10373 20.5222C5.97663 20.5992 5.87447 20.7113 5.80954 20.845C5.74461 20.9787 5.71968 21.1282 5.73772 21.2757C5.75577 21.4233 5.81604 21.5624 5.91128 21.6765C10.4296 27.4297 17.6275 31.4038 17.6275 31.4038C17.8065 31.5029 18.0175 31.5269 18.2142 31.4703C18.4109 31.4138 18.577 31.2815 18.6761 31.1025C18.7752 30.9235 18.7992 30.7124 18.7427 30.5157C18.6861 30.3191 18.5538 30.1529 18.3748 30.0538C18.3748 30.0538 11.3527 26.1179 7.11665 20.7243C7.04802 20.6311 6.95929 20.5545 6.85705 20.5003C6.75481 20.446 6.64167 20.4155 6.52602 20.4109Z" fill="#424242"/>
</svg>
