<svg width="36" height="36" viewBox="0 0 36 36" fill="none" xmlns="http://www.w3.org/2000/svg">
<path d="M10.6614 4.5C8.7962 4.5 6.80896 5.32996 5.2252 6.76609C3.64144 8.20223 2.46168 10.2807 2.39258 12.7447C2.35209 14.1891 2.63614 15.6062 3.13991 16.9515H1.80195C1.69973 16.95 1.59824 16.9689 1.50338 17.007C1.40851 17.0451 1.32217 17.1017 1.24937 17.1735C1.17657 17.2453 1.11876 17.3308 1.07931 17.4251C1.03985 17.5194 1.01953 17.6207 1.01953 17.7229C1.01953 17.8251 1.03985 17.9263 1.07931 18.0207C1.11876 18.115 1.17657 18.2005 1.24937 18.2723C1.32217 18.3441 1.40851 18.4007 1.50338 18.4388C1.59824 18.4769 1.69973 18.4958 1.80195 18.4943H10.9386C11.0741 18.4968 11.2077 18.4635 11.3262 18.3979C11.4447 18.3323 11.5438 18.2367 11.6137 18.1207L13.5543 14.8059L16.5075 23.2676C16.5598 23.4162 16.6563 23.5451 16.7841 23.6372C16.9119 23.7293 17.0648 23.7801 17.2223 23.7827C17.3798 23.7853 17.5343 23.7397 17.6651 23.6519C17.7959 23.5641 17.8966 23.4384 17.9539 23.2917L20.5575 16.614L21.8352 21.4234C21.8779 21.576 21.9666 21.7117 22.0892 21.8121C22.2118 21.9125 22.3624 21.9727 22.5204 21.9846C22.6784 21.9964 22.8362 21.9593 22.9724 21.8783C23.1086 21.7973 23.2166 21.6764 23.2816 21.5319L24.6075 18.4943H26.8375C26.9397 18.4958 27.0412 18.4769 27.136 18.4388C27.2309 18.4007 27.3172 18.3441 27.39 18.2723C27.4628 18.2005 27.5207 18.115 27.5601 18.0207C27.5996 17.9263 27.6199 17.8251 27.6199 17.7229C27.6199 17.6207 27.5996 17.5194 27.5601 17.4251C27.5207 17.3308 27.4628 17.2453 27.39 17.1735C27.3172 17.1017 27.2309 17.0451 27.136 17.007C27.0412 16.9689 26.9397 16.95 26.8375 16.9515H24.1013C23.9517 16.9536 23.806 16.9992 23.6819 17.0827C23.5578 17.1661 23.4606 17.2839 23.4022 17.4216L22.7513 18.9042L21.4374 13.9501C21.3944 13.7948 21.3039 13.6568 21.1786 13.5556C21.0532 13.4543 20.8993 13.3949 20.7384 13.3856C20.5775 13.3762 20.4177 13.4176 20.2815 13.5037C20.1453 13.5898 20.0395 13.7164 19.9789 13.8657L17.2789 20.7845L14.4583 12.7206C14.3983 12.5489 14.2795 12.4039 14.1229 12.3112C13.9663 12.2186 13.782 12.1843 13.6025 12.2144C13.4923 12.2344 13.3877 12.2782 13.2961 12.3427C13.2046 12.4073 13.1281 12.491 13.0722 12.588L10.5047 16.9515H4.81538C4.22643 15.5871 3.89599 14.2003 3.93546 12.7929C3.99152 10.7935 4.94064 9.10922 6.26182 7.91119C7.58299 6.71316 9.27674 6.04287 10.6614 6.04287C13.2735 6.04287 14.8874 7.02451 15.9048 8.00762C16.9221 8.99074 17.2789 9.92416 17.2789 9.92416C17.3337 10.0718 17.4324 10.1991 17.5617 10.2889C17.691 10.3788 17.8447 10.427 18.0021 10.427C18.1596 10.427 18.3133 10.3788 18.4425 10.2889C18.5718 10.1991 18.6705 10.0718 18.7253 9.92416C18.7253 9.92416 19.0821 8.99074 20.0994 8.00762C21.1168 7.02451 22.7307 6.04287 25.3428 6.04287C26.7275 6.04287 28.4212 6.71316 29.7424 7.91119C31.0636 9.10922 32.0127 10.7935 32.0688 12.7929C32.108 14.1941 31.7741 15.5944 31.1888 16.9515H29.875C29.7728 16.95 29.6713 16.9689 29.5764 17.007C29.4816 17.0451 29.3952 17.1017 29.3224 17.1735C29.2496 17.2453 29.1918 17.3308 29.1523 17.4251C29.1129 17.5194 29.0926 17.6207 29.0926 17.7229C29.0926 17.8251 29.1129 17.9263 29.1523 18.0207C29.1918 18.115 29.2496 18.2005 29.3224 18.2723C29.3952 18.3441 29.4816 18.4007 29.5764 18.4388C29.6713 18.4769 29.7728 18.4958 29.875 18.4943H30.4054C29.9594 19.2612 29.4484 20.0081 28.8745 20.7363C26.9294 23.2045 24.3928 25.3841 22.2209 27.0042C22.138 27.0639 22.0679 27.1394 22.0144 27.2263C21.9609 27.3133 21.9252 27.41 21.9094 27.5108C21.8936 27.6117 21.898 27.7147 21.9222 27.8138C21.9465 27.913 21.9902 28.0063 22.0508 28.0885C22.1114 28.1706 22.1877 28.2399 22.2753 28.2923C22.3629 28.3448 22.46 28.3793 22.561 28.3939C22.6621 28.4086 22.765 28.403 22.8639 28.3776C22.9627 28.3521 23.0556 28.3073 23.137 28.2458C25.3768 26.575 28.0052 24.3333 30.0799 21.7006C30.8782 20.6876 31.5982 19.6204 32.1772 18.4943H34.2023C34.3045 18.4958 34.406 18.4769 34.5008 18.4388C34.5957 18.4007 34.682 18.3441 34.7548 18.2723C34.8276 18.2005 34.8855 18.115 34.9249 18.0207C34.9644 17.9263 34.9847 17.8251 34.9847 17.7229C34.9847 17.6207 34.9644 17.5194 34.9249 17.4251C34.8855 17.3308 34.8276 17.2453 34.7548 17.1735C34.682 17.1017 34.5957 17.0451 34.5008 17.007C34.406 16.9689 34.3045 16.95 34.2023 16.9515H32.8643C33.3706 15.6056 33.6522 14.1929 33.6116 12.7447C33.5425 10.2807 32.3628 8.20223 30.779 6.76609C29.1953 5.32996 27.208 4.5 25.3428 4.5C22.3306 4.5 20.2736 5.69377 19.0267 6.89868C18.5498 7.35948 18.2737 7.78577 18.0021 8.18843C17.7306 7.78577 17.4544 7.35948 16.9775 6.89868C15.7306 5.69377 13.6737 4.5 10.6614 4.5ZM6.527 20.4109C6.37845 20.4065 6.23181 20.4452 6.10471 20.5222C5.97761 20.5992 5.87545 20.7113 5.81052 20.845C5.74559 20.9787 5.72065 21.1282 5.7387 21.2757C5.75675 21.4233 5.81702 21.5624 5.91226 21.6765C10.4306 27.4297 17.6284 31.4038 17.6284 31.4038C17.8075 31.5029 18.0185 31.5269 18.2152 31.4703C18.4119 31.4138 18.578 31.2815 18.6771 31.1025C18.7762 30.9235 18.8001 30.7124 18.7436 30.5157C18.6871 30.3191 18.5548 30.1529 18.3758 30.0538C18.3758 30.0538 11.3536 26.1179 7.11763 20.7243C7.04899 20.6311 6.96027 20.5545 6.85803 20.5003C6.75579 20.446 6.64265 20.4155 6.527 20.4109Z" fill="white"/>
</svg>
