<svg width="41" height="41" viewBox="0 0 41 41" fill="none" xmlns="http://www.w3.org/2000/svg">
<circle cx="20.5" cy="20.5" r="20.5" fill="#F44336"/>
<path d="M12.6686 26.0273H12.6021C11.6391 26.0273 10.8045 26.9288 10.8045 27.9538V29.2673C10.8045 29.6042 11.0566 29.8802 11.3788 29.8802H28.6215C28.9436 29.8802 29.1957 29.6042 29.1957 29.2673V27.9538C29.1957 26.9288 28.3611 26.0273 27.3982 26.0273H27.3317V20.448C27.3317 16.108 24.0504 12.5795 20.0001 12.5795C15.9498 12.5795 12.6686 16.108 12.6686 20.448V26.0273ZM26.2996 20.448V26.0273H13.7589V20.448C13.7589 16.7816 16.5362 13.7428 20.0001 13.7428C23.4646 13.7428 26.2996 16.7822 26.2996 20.448ZM11.8948 27.9538C11.8948 27.5402 12.2252 27.1907 12.6021 27.1907H27.3982C27.775 27.1907 28.1054 27.5402 28.1054 27.9538V28.7169H11.8948V27.9538Z" fill="white" stroke="white" stroke-width="0.1"/>
<path d="M20.5743 15.8195C20.5743 15.4826 20.3221 15.2066 20 15.2066C17.3477 15.2066 15.115 17.6092 15.115 20.4481C15.115 20.785 15.3671 21.061 15.6893 21.061C15.8237 21.061 15.9532 20.9893 16.0476 20.8794C16.1425 20.769 16.2053 20.6168 16.2053 20.4481C16.2053 18.2206 17.9338 16.3699 20 16.3699C20.3184 16.3699 20.5743 16.0977 20.5743 15.8195Z" fill="white" stroke="white" stroke-width="0.1"/>
<path d="M20 6.95C19.674 6.95 19.4839 7.23029 19.4839 7.50038V10.1899C19.4839 10.46 19.674 10.7403 20 10.7403C20.3184 10.7403 20.5742 10.4682 20.5742 10.1899V7.50038C20.5742 7.22216 20.3184 6.95 20 6.95Z" fill="white" stroke="white" stroke-width="0.1"/>
<path d="M24.2286 11.9853L24.2286 11.9855L24.2326 11.9872C24.3861 12.0532 24.5431 12.0712 24.6796 12.0367C24.8168 12.002 24.9311 11.9147 24.9961 11.7759L26.2174 9.46542C26.4084 9.1887 26.2791 8.84744 26.0276 8.70952C25.8984 8.60732 25.751 8.58961 25.6199 8.63359C25.4897 8.67728 25.3782 8.78071 25.3147 8.916L24.0341 11.166L24.0339 11.1659L24.0322 11.1696C23.969 11.3054 23.9538 11.4729 23.9849 11.623C24.0159 11.7728 24.0949 11.9135 24.2286 11.9853Z" fill="white" stroke="white" stroke-width="0.1"/>
<path d="M29.7045 13.2105L29.7045 13.2104L29.7022 13.2119L27.548 14.5247C27.415 14.5967 27.3364 14.737 27.3054 14.8863C27.2744 15.0365 27.2895 15.2039 27.3528 15.3397L27.3521 15.3401L27.3571 15.3473C27.5457 15.6173 27.8644 15.688 28.1208 15.5503L28.1208 15.5504L28.1237 15.5487L30.2207 14.2352L30.2209 14.2355L30.2256 14.2317C30.4703 14.0346 30.6018 13.6986 30.4725 13.4211L30.4732 13.4208L30.4682 13.4136C30.2796 13.1436 29.9609 13.0729 29.7045 13.2105Z" fill="white" stroke="white" stroke-width="0.1"/>
<path d="M32.0501 19.885C32.0501 19.5439 31.794 19.3346 31.5341 19.3346H29.0293C28.7694 19.3346 28.5132 19.5439 28.5132 19.885C28.5132 20.0538 28.5761 20.206 28.6709 20.3164C28.7654 20.4262 28.8948 20.498 29.0293 20.498H31.5341C31.6685 20.498 31.798 20.4262 31.8924 20.3164C31.9873 20.206 32.0501 20.0538 32.0501 19.885Z" fill="white" stroke="white" stroke-width="0.1"/>
<path d="M13.7798 9.46049L13.7797 9.46052L13.7809 9.46275L15.0036 11.7759C15.0699 11.9172 15.2007 12.003 15.3426 12.0368C15.4846 12.0707 15.6429 12.0541 15.7711 11.9853C15.9048 11.9135 15.9838 11.7728 16.0148 11.623C16.0459 11.4729 16.0307 11.3054 15.9675 11.1696L15.9676 11.1696L15.9661 11.1669L14.7428 8.91513L14.7431 8.91498L14.7399 8.91037C14.6477 8.77845 14.5229 8.67645 14.3863 8.63331C14.249 8.58997 14.1017 8.607 13.9721 8.70953C13.7122 8.85233 13.6565 9.1957 13.7798 9.46049Z" fill="white" stroke="white" stroke-width="0.1"/>
<path d="M9.77466 14.2317L9.77444 14.232L9.77948 14.2352L11.8766 15.5487L11.8765 15.5488L11.8795 15.5503C12.0076 15.6191 12.1659 15.6357 12.3079 15.6018C12.4503 15.5679 12.5814 15.4817 12.6475 15.3397C12.7107 15.2039 12.7259 15.0365 12.6948 14.8863C12.6639 14.737 12.5853 14.5967 12.4523 14.5247L10.2981 13.2119L10.2981 13.2118L10.2957 13.2105C10.0437 13.0752 9.71997 13.1392 9.58779 13.4172C9.39551 13.697 9.53172 14.0361 9.77466 14.2317Z" fill="white" stroke="white" stroke-width="0.1"/>
<path d="M7.95 19.885C7.95 20.0538 8.01283 20.206 8.10772 20.3164C8.20216 20.4262 8.33158 20.498 8.46602 20.498H10.9709C11.1053 20.498 11.2347 20.4262 11.3292 20.3164C11.4241 20.206 11.4869 20.0538 11.4869 19.885C11.4869 19.5439 11.2307 19.3346 10.9709 19.3346H8.46602C8.20615 19.3346 7.95 19.5439 7.95 19.885Z" fill="white" stroke="white" stroke-width="0.1"/>
</svg>
