<svg width="24" height="24" viewBox="0 0 24 24" fill="none" xmlns="http://www.w3.org/2000/svg">
<path d="M5.11426 13.1332C6.64089 13.1332 7.88233 11.8923 7.88233 10.3664C7.88233 8.84047 6.64089 7.5979 5.11426 7.5979C3.58764 7.5979 2.34619 8.84047 2.34619 10.3664C2.34619 11.8923 3.58935 13.1332 5.11426 13.1332ZM5.11426 8.84389C5.95271 8.84389 6.63576 9.52662 6.63576 10.3647C6.63576 11.2027 5.95271 11.8855 5.11426 11.8855C4.27582 11.8855 3.59276 11.2027 3.59276 10.3647C3.59276 9.52662 4.27582 8.84389 5.11426 8.84389Z" fill="#3F51B5"/>
<path d="M21.5364 10.3669C21.5364 8.84096 20.2949 7.6001 18.7683 7.6001C17.2417 7.6001 15.9985 8.84096 15.9985 10.3669C15.9985 11.8928 17.24 13.1336 18.7666 13.1336C20.2932 13.1336 21.5364 11.8911 21.5364 10.3669ZM17.2451 10.3669C17.2451 9.52881 17.9282 8.84608 18.7666 8.84608C19.6051 8.84608 20.2881 9.52881 20.2881 10.3669C20.2881 11.2049 19.6051 11.8876 18.7666 11.8876C17.9282 11.8876 17.2451 11.2049 17.2451 10.3669Z" fill="#3F51B5"/>
<path d="M14.7229 8.22136C14.7229 6.69545 13.4815 5.45459 11.9548 5.45459C10.4282 5.45459 9.18506 6.69545 9.18506 8.22136C9.18506 9.74726 10.4265 10.9881 11.9531 10.9881C13.4798 10.9881 14.7229 9.74726 14.7229 8.22136ZM10.4316 8.22136C10.4316 7.3833 11.1147 6.70057 11.9531 6.70057C12.7916 6.70057 13.4746 7.3833 13.4746 8.22136C13.4746 9.05941 12.7916 9.74214 11.9531 9.74214C11.1147 9.74214 10.4316 9.06111 10.4316 8.22136Z" fill="#3F51B5"/>
<path d="M18.7686 14.0061V15.2521C20.3003 15.2521 21.5452 16.4981 21.5452 18.0274C21.5452 18.3722 21.8235 18.6504 22.1685 18.6504C22.5134 18.6504 22.7917 18.3722 22.7917 18.0274C22.7917 16.9538 22.3734 15.9434 21.6135 15.1838C20.8536 14.4243 19.8427 14.0061 18.7686 14.0061Z" fill="#3F51B5"/>
<path d="M19.1183 17.4966H15.966V15.9109C15.966 14.8373 15.5476 13.8269 14.7877 13.0674C14.0278 12.3078 13.0169 11.8896 11.9428 11.8896C10.8687 11.8896 9.8578 12.3078 9.09791 13.0674C8.33801 13.8269 7.91964 14.8373 7.91964 15.9109V17.4966H2.38862C2.63794 16.2199 3.76497 15.2521 5.114 15.2521C5.45894 15.2521 5.73729 14.9739 5.73729 14.6291C5.73729 14.2843 5.45894 14.0061 5.114 14.0061C4.0399 14.0061 3.02898 14.4243 2.26909 15.1838C1.50919 15.9434 1.09082 16.9538 1.09082 18.0274C1.09082 18.0769 1.09594 18.1247 1.1079 18.1708C1.13522 18.49 1.40161 18.7409 1.72947 18.7409H19.12C19.4649 18.7409 19.7433 18.4626 19.7433 18.1179C19.7433 17.7731 19.4632 17.4966 19.1183 17.4966ZM14.7194 17.4966H9.16451V15.9109C9.16451 14.3799 10.4111 13.1356 11.9411 13.1356C13.4712 13.1356 14.7177 14.3816 14.7177 15.9109V17.4966H14.7194Z" fill="#3F51B5"/>
</svg>
