<svg width="237" height="111" viewBox="0 0 237 111" fill="none" xmlns="http://www.w3.org/2000/svg">
<g filter="url(#filter0_d_9172_56361)">
<rect x="30" y="30" width="177" height="51" rx="25.5" fill="#01CD74"/>
</g>
<path d="M124.02 52.91H125.64C125.616 52.202 125.478 51.596 125.226 51.092C124.986 50.576 124.65 50.15 124.218 49.814C123.798 49.478 123.306 49.232 122.742 49.076C122.178 48.92 121.566 48.842 120.906 48.842C120.318 48.842 119.742 48.92 119.178 49.076C118.626 49.22 118.128 49.448 117.684 49.76C117.252 50.06 116.904 50.45 116.64 50.93C116.376 51.398 116.244 51.956 116.244 52.604C116.244 53.192 116.358 53.684 116.586 54.08C116.826 54.464 117.138 54.782 117.522 55.034C117.918 55.274 118.362 55.472 118.854 55.628C119.346 55.772 119.844 55.904 120.348 56.024C120.864 56.132 121.368 56.24 121.86 56.348C122.352 56.456 122.79 56.6 123.174 56.78C123.57 56.948 123.882 57.17 124.11 57.446C124.35 57.722 124.47 58.082 124.47 58.526C124.47 58.994 124.374 59.378 124.182 59.678C123.99 59.978 123.738 60.218 123.426 60.398C123.114 60.566 122.76 60.686 122.364 60.758C121.98 60.83 121.596 60.866 121.212 60.866C120.732 60.866 120.264 60.806 119.808 60.686C119.352 60.566 118.95 60.38 118.602 60.128C118.266 59.876 117.99 59.558 117.774 59.174C117.57 58.778 117.468 58.31 117.468 57.77H115.848C115.848 58.55 115.986 59.228 116.262 59.804C116.55 60.368 116.934 60.836 117.414 61.208C117.906 61.568 118.47 61.838 119.106 62.018C119.754 62.198 120.438 62.288 121.158 62.288C121.746 62.288 122.334 62.216 122.922 62.072C123.522 61.94 124.062 61.724 124.542 61.424C125.022 61.112 125.412 60.716 125.712 60.236C126.024 59.744 126.18 59.156 126.18 58.472C126.18 57.836 126.06 57.308 125.82 56.888C125.592 56.468 125.28 56.12 124.884 55.844C124.5 55.568 124.062 55.352 123.57 55.196C123.078 55.028 122.574 54.884 122.058 54.764C121.554 54.644 121.056 54.536 120.564 54.44C120.072 54.332 119.628 54.2 119.232 54.044C118.848 53.888 118.536 53.69 118.296 53.45C118.068 53.198 117.954 52.874 117.954 52.478C117.954 52.058 118.032 51.71 118.188 51.434C118.356 51.146 118.572 50.918 118.836 50.75C119.112 50.582 119.424 50.462 119.772 50.39C120.12 50.318 120.474 50.282 120.834 50.282C121.722 50.282 122.448 50.492 123.012 50.912C123.588 51.32 123.924 51.986 124.02 52.91ZM128.33 49.148V62H130.04V49.148H128.33ZM142.528 60.398L142.978 62H144.058V55.232H138.424V56.672H142.528C142.552 57.26 142.474 57.812 142.294 58.328C142.114 58.832 141.844 59.276 141.484 59.66C141.136 60.032 140.704 60.326 140.188 60.542C139.672 60.758 139.078 60.866 138.406 60.866C137.686 60.866 137.05 60.728 136.498 60.452C135.958 60.164 135.502 59.786 135.13 59.318C134.758 58.838 134.476 58.292 134.284 57.68C134.092 57.056 133.996 56.408 133.996 55.736C133.996 55.052 134.08 54.386 134.248 53.738C134.416 53.078 134.674 52.496 135.022 51.992C135.382 51.476 135.838 51.062 136.39 50.75C136.954 50.438 137.626 50.282 138.406 50.282C138.886 50.282 139.336 50.342 139.756 50.462C140.188 50.57 140.572 50.738 140.908 50.966C141.244 51.194 141.526 51.488 141.754 51.848C141.982 52.196 142.138 52.616 142.222 53.108H143.932C143.812 52.352 143.584 51.71 143.248 51.182C142.924 50.642 142.516 50.198 142.024 49.85C141.544 49.502 140.992 49.25 140.368 49.094C139.756 48.926 139.102 48.842 138.406 48.842C137.386 48.842 136.492 49.034 135.724 49.418C134.968 49.79 134.332 50.294 133.816 50.93C133.312 51.566 132.928 52.31 132.664 53.162C132.412 54.002 132.286 54.89 132.286 55.826C132.286 56.666 132.424 57.476 132.7 58.256C132.976 59.036 133.378 59.726 133.906 60.326C134.434 60.926 135.076 61.406 135.832 61.766C136.588 62.114 137.446 62.288 138.406 62.288C139.162 62.288 139.912 62.144 140.656 61.856C141.4 61.556 142.024 61.07 142.528 60.398ZM146.556 49.148V62H148.176V51.686H148.212L154.926 62H156.798V49.148H155.178V59.57H155.142L148.374 49.148H146.556ZM164.646 49.148V62H166.356V49.148H164.646ZM169.214 49.148V62H170.834V51.686H170.87L177.584 62H179.456V49.148H177.836V59.57H177.8L171.032 49.148H169.214Z" fill="white"/>
<line x1="55" y1="55" x2="93" y2="55" stroke="white" stroke-width="2" stroke-linecap="round"/>
<line x1="55" y1="55" x2="80" y2="55" stroke="white" stroke-width="2" stroke-linecap="round"/>
<path d="M86 46L94 55L86 64" stroke="white" stroke-width="2" stroke-linecap="round" stroke-linejoin="round"/>
<defs>
<filter id="filter0_d_9172_56361" x="0" y="0" width="237" height="111" filterUnits="userSpaceOnUse" color-interpolation-filters="sRGB">
<feFlood flood-opacity="0" result="BackgroundImageFix"/>
<feColorMatrix in="SourceAlpha" type="matrix" values="0 0 0 0 0 0 0 0 0 0 0 0 0 0 0 0 0 0 127 0" result="hardAlpha"/>
<feOffset/>
<feGaussianBlur stdDeviation="15"/>
<feComposite in2="hardAlpha" operator="out"/>
<feColorMatrix type="matrix" values="0 0 0 0 0 0 0 0 0 0 0 0 0 0 0 0 0 0 0.05 0"/>
<feBlend mode="normal" in2="BackgroundImageFix" result="effect1_dropShadow_9172_56361"/>
<feBlend mode="normal" in="SourceGraphic" in2="effect1_dropShadow_9172_56361" result="shape"/>
</filter>
</defs>
</svg>
