<svg width="27" height="27" viewBox="0 0 27 27" fill="none" xmlns="http://www.w3.org/2000/svg">
<path fill-rule="evenodd" clip-rule="evenodd" d="M22.875 1H4.125C2.40625 1 1 2.40625 1 4.125V22.875C1 24.5938 2.40625 26 4.125 26H22.875C24.5938 26 26 24.5938 26 22.875V4.125C26 2.40625 24.5938 1 22.875 1ZM24.75 22.875C24.75 23.9297 23.9297 24.75 22.875 24.75H4.125C3.07031 24.75 2.25 23.9297 2.25 22.875V4.125C2.25 3.07031 3.07031 2.25 4.125 2.25H22.875C23.9297 2.25 24.75 3.07031 24.75 4.125V22.875Z" fill="#2196F3"/>
<path fill-rule="evenodd" clip-rule="evenodd" d="M6.46875 11.9375H11.1562C11.5859 11.9375 11.9375 11.5859 11.9375 11.1562V6.46875C11.9375 6.03906 11.5859 5.6875 11.1562 5.6875H6.46875C6.03906 5.6875 5.6875 6.03906 5.6875 6.46875V11.1562C5.6875 11.5859 6.03906 11.9375 6.46875 11.9375ZM7.25 7.25H10.375V10.375H7.25V7.25Z" fill="#2196F3"/>
<path fill-rule="evenodd" clip-rule="evenodd" d="M20.9219 5.6875H15.4531C15.2187 5.6875 15.0625 5.84375 15.0625 6.07812V6.85938C15.0625 7.09375 15.2187 7.25 15.4531 7.25H20.9219C21.1563 7.25 21.3125 7.09375 21.3125 6.85938V6.07812C21.3125 5.84375 21.1563 5.6875 20.9219 5.6875Z" fill="#2196F3"/>
<path fill-rule="evenodd" clip-rule="evenodd" d="M20.9219 10.375H15.4531C15.2187 10.375 15.0625 10.5312 15.0625 10.7656V11.5469C15.0625 11.7813 15.2187 11.9375 15.4531 11.9375H20.9219C21.1563 11.9375 21.3125 11.7813 21.3125 11.5469V10.7656C21.3125 10.5312 21.1563 10.375 20.9219 10.375Z" fill="#2196F3"/>
<path fill-rule="evenodd" clip-rule="evenodd" d="M20.9219 15.0625H6.07812C5.84375 15.0625 5.6875 15.2187 5.6875 15.4531V16.2344C5.6875 16.4688 5.84375 16.625 6.07812 16.625H20.9219C21.1563 16.625 21.3125 16.4688 21.3125 16.2344V15.4531C21.3125 15.2187 21.1563 15.0625 20.9219 15.0625Z" fill="#2196F3"/>
<path fill-rule="evenodd" clip-rule="evenodd" d="M20.9219 19.75H6.07812C5.84375 19.75 5.6875 19.9062 5.6875 20.1406V20.9219C5.6875 21.1563 5.84375 21.3125 6.07812 21.3125H20.9219C21.1563 21.3125 21.3125 21.1563 21.3125 20.9219V20.1406C21.3125 19.9062 21.1563 19.75 20.9219 19.75Z" fill="#2196F3"/>
</svg>
