<svg width="26" height="24" viewBox="0 0 26 24" fill="none" xmlns="http://www.w3.org/2000/svg">
<path d="M24.1763 6.19687L24.1762 6.1969L18.891 9.05925V7.52167V7.5215C18.8893 6.0456 17.6838 4.85167 16.1988 4.85H16.1986L3.54237 4.85L3.5422 4.85C2.05718 4.85167 0.851685 6.0456 0.85 7.5215V7.52167L0.85 17.4783L0.85 17.4785C0.851685 18.9544 2.05718 20.1483 3.5422 20.15H3.54237L16.1986 20.15L16.1988 20.15C17.6838 20.1483 18.8893 18.9544 18.891 17.4785V17.4783V15.9733L24.1764 18.8356C24.3801 18.9459 24.6273 18.9416 24.827 18.8241L24.8271 18.8241C25.027 18.7063 25.15 18.4925 25.15 18.261V6.77147C25.15 6.53975 25.0267 6.32611 24.827 6.20859L24.7509 6.33786L24.8269 6.20855C24.6272 6.09116 24.3802 6.08653 24.1763 6.19687ZM17.5736 17.4784C17.5729 18.2298 16.9587 18.8406 16.198 18.8415H3.54255C2.78197 18.8406 2.1679 18.2298 2.16695 17.4784C2.16695 17.4784 2.16695 17.4784 2.16695 17.4783V7.52185C2.16695 7.52182 2.16695 7.52178 2.16695 7.52175C2.1679 6.77056 2.78193 6.15961 3.54245 6.15867C3.54248 6.15867 3.54252 6.15867 3.54255 6.15867H16.1984C16.1985 6.15867 16.1985 6.15867 16.1985 6.15867C16.9589 6.15961 17.5732 6.77063 17.574 7.52185L17.5736 17.4784ZM18.891 10.5496L23.833 7.87336V17.1593L18.891 14.483V10.5496Z" fill="#2196F3" stroke="#2196F3" stroke-width="0.3"/>
</svg>
