<svg width="26" height="24" viewBox="0 0 26 24" fill="none" xmlns="http://www.w3.org/2000/svg">
<path d="M24.7769 5.98331L24.7769 5.98329C24.607 5.88024 24.3967 5.87618 24.2232 5.97303L24.2232 5.97304L18.791 9.00992V7.24803V7.24798C18.7894 5.78458 17.6308 4.59668 16.1987 4.59502H16.1986L3.54237 4.59502L3.54231 4.59502C2.11017 4.59668 0.951618 5.78458 0.95 7.24798V7.24803L0.95 17.5259L0.95 17.5259C0.951618 18.9893 2.11017 20.1772 3.54231 20.1789H3.54237H16.1986H16.1987C17.6308 20.1772 18.7894 18.9893 18.791 17.5259V17.5259V15.7975L24.2234 18.8344C24.3967 18.9313 24.6072 18.9275 24.7769 18.8244L24.7769 18.8243C24.9467 18.7211 25.05 18.5345 25.05 18.3338V6.47364C25.05 6.27268 24.9464 6.0863 24.7769 5.98331ZM17.6736 17.526C17.6729 18.3618 17.0117 19.0369 16.1982 19.0379H3.54243C2.72894 19.0369 2.06791 18.3618 2.06695 17.526V7.24809C2.06791 6.4125 2.72895 5.73721 3.54243 5.73623H16.1986C17.0119 5.73721 17.6731 6.4125 17.674 7.24809L17.6736 17.526ZM18.791 10.3107L23.9331 7.43637V17.3713L18.791 14.4968V10.3107Z" fill="#2196F3" stroke="#2196F3" stroke-width="0.1"/>
</svg>
