<svg width="33" height="25" viewBox="0 0 33 25" fill="none" xmlns="http://www.w3.org/2000/svg">
<path d="M26.0211 13.6055L26.0943 13.5323V13.4288V3.99989C26.0943 2.12197 24.5793 0.606934 22.7014 0.606934H4.14296C2.26503 0.606934 0.75 2.12197 0.75 3.99989V21.2487C0.75 23.1094 2.26593 24.6215 4.14027 24.6417L4.14027 24.6417H4.14296H22.7014C23.5283 24.6417 24.3159 24.3395 24.9038 23.8327L25.1272 23.6401L24.9006 23.4513C24.7907 23.3597 24.6851 23.2679 24.5772 23.1741L24.5763 23.1733C24.4693 23.0803 24.3601 22.9853 24.2458 22.8901L24.0927 22.7625L23.9343 22.8833C23.5834 23.1506 23.1686 23.2998 22.7014 23.2998H4.14296C3.00888 23.2998 2.09186 22.3828 2.09186 21.2487V3.99989C2.09186 2.86581 3.00888 1.9488 4.14296 1.9488H22.6827C23.8167 1.9488 24.7337 2.86581 24.7337 3.99989V13.4288V13.5238L24.7969 13.5948C24.8387 13.6419 24.8784 13.6854 24.9165 13.727C25.0255 13.8464 25.1203 13.9503 25.2092 14.0772L25.414 14.3698L25.6188 14.0772C25.7392 13.9054 25.8785 13.7482 26.0211 13.6055Z" fill="#2196F3" stroke="#2196F3" stroke-width="0.5"/>
<path d="M11.2979 16.1902L11.2985 16.1919C11.3892 16.4337 11.6285 16.6161 11.9068 16.6161H11.9069H11.907H11.9071H11.9072H11.9073H11.9074H11.9075H11.9077H11.9078H11.9079H11.908H11.9081H11.9082H11.9083H11.9084H11.9085H11.9086H11.9087H11.9088H11.9089H11.909H11.9091H11.9092H11.9093H11.9094H11.9095H11.9096H11.9097H11.9098H11.9099H11.91H11.9101H11.9102H11.9103H11.9104H11.9105H11.9106H11.9106H11.9107H11.9108H11.9109H11.911H11.9111H11.9112H11.9113H11.9114H11.9115H11.9116H11.9116H11.9117H11.9118H11.9119H11.912H11.9121H11.9122H11.9123H11.9123H11.9124H11.9125H11.9126H11.9127H11.9128H11.9128H11.9129H11.913H11.9131H11.9132H11.9133H11.9133H11.9134H11.9135H11.9136H11.9136H11.9137H11.9138H11.9139H11.914H11.914H11.9141H11.9142H11.9143H11.9143H11.9144H11.9145H11.9146H11.9146H11.9147H11.9148H11.9148H11.9149H11.915H11.9151H11.9151H11.9152H11.9153H11.9153H11.9154H11.9155H11.9155H11.9156H11.9157H11.9157H11.9158H11.9159H11.9159H11.916H11.9161H11.9161H11.9162H11.9163H11.9163H11.9164H11.9164H11.9165H11.9166H11.9166H11.9167H11.9167H11.9168H11.9169H11.9169H11.917H11.917H11.9171H11.9171H11.9172H11.9173H11.9173H11.9174H11.9174H11.9175H11.9175H11.9176H11.9176H11.9177H11.9177H11.9178H11.9178H11.9179H11.9179H11.918H11.918H11.9181H11.9181H11.9182H11.9182H11.9183H11.9183H11.9184H11.9184H11.9185H11.9185H11.9185H11.9186H11.9186H11.9187H11.9187H11.9188H11.9188H11.9188H11.9189H11.9189H11.919H11.919H11.919H11.9191H11.9191H11.9192H11.9192H11.9192H11.9193H11.9193H11.9193H11.9194H11.9194H11.9194H11.9195H11.9195H11.9195H11.9196H11.9196H11.9196H11.9197H11.9197H11.9197H11.9198H11.9198H11.9198H11.9199H11.9199H11.9199H11.9199H11.92H11.92H11.92H11.92H11.9201H11.9201H11.9201H11.9201H11.9202H11.9202H11.9202H11.9202H11.9203H11.9203H11.9203H11.9203H11.9203H11.9204H11.9204H11.9204H11.9204H11.9204H11.9205H11.9205H11.9205H11.9205H11.9205H11.9205H11.9206H11.9206H11.9206H11.9206H11.9206H11.9206H11.9206H11.9207H11.9207H11.9207H11.9207H11.9207H11.9207H11.9207H11.9207H11.9207H11.9207H11.9207H11.9208H11.9208H11.9208H11.9208H11.9208H11.9208H11.9208V16.5064L11.9317 16.6148C12.2065 16.5873 12.4464 16.417 12.5368 16.1458L12.5371 16.1459L12.5404 16.134L15.0288 7.2258L15.4197 9.91039L15.4194 9.91044L15.422 9.92339C15.4804 10.2156 15.7421 10.4611 16.06 10.4611H21.6163C21.9644 10.4611 22.2476 10.162 22.2768 9.84087L22.2779 9.82957V9.81823C22.2779 9.45566 21.9976 9.17536 21.635 9.17536H16.6314L15.877 4.03853L15.8774 4.03848L15.8748 4.02583C15.8153 3.72789 15.5736 3.51867 15.2804 3.48935L15.2804 3.48934L15.2782 3.48914C15.123 3.47503 14.9739 3.50986 14.8503 3.59644C14.7276 3.68233 14.6463 3.80756 14.6045 3.94689L14.6045 3.94688L14.6031 3.95156L11.8364 13.8702L9.89638 8.60925L9.8959 8.60797C9.80523 8.36619 9.56596 8.18384 9.28766 8.18384H1.84184C1.47928 8.18384 1.19897 8.46414 1.19897 8.82671C1.19897 9.18927 1.47928 9.46957 1.84184 9.46957H8.83246L11.2979 16.1902Z" fill="#2196F3" stroke="#2196F3" stroke-width="0.5"/>
<path d="M22.7669 22.9403L22.767 22.9403L22.7664 22.9397L22.7645 22.9381L22.7531 22.928C21.364 21.6998 20.1414 20.6188 19.2865 19.5486L19.2865 19.5486C18.3193 18.3377 17.8535 17.1682 17.8535 15.8797C17.8535 14.6408 18.2631 13.4867 19.0191 12.6359L19.0191 12.6359C19.7854 11.7736 20.8402 11.2966 21.9856 11.2966C22.8467 11.2966 23.6361 11.5805 24.3255 12.1337L24.3255 12.1337C24.5882 12.3445 24.8308 12.5899 25.0518 12.867C25.2728 12.59 25.5154 12.3445 25.7782 12.1336M22.7669 22.9403L24.3466 24.3499C24.5405 24.526 24.7908 24.6242 25.0518 24.6242C25.3127 24.6242 25.5631 24.526 25.7569 24.3501C26.3182 23.8409 26.8591 23.3625 27.3376 22.9395L27.3376 22.9395L27.352 22.9268C28.7404 21.6992 29.9625 20.6185 30.8172 19.5485C31.7844 18.3377 32.2501 17.1681 32.2501 15.8797C32.2501 14.6409 31.8406 13.4867 31.0846 12.6359L31.0846 12.6359C30.3183 11.7736 29.2634 11.2966 28.1181 11.2966C27.257 11.2966 26.4676 11.5804 25.7782 12.1336M22.7669 22.9403L22.7688 22.9419M22.7669 22.9403L22.7688 22.9419M25.7782 12.1336L25.9346 12.3286M25.7782 12.1336L25.9346 12.3286M25.9346 12.3286C25.6717 12.5396 25.4287 12.7886 25.2079 13.0729L28.1181 11.5466C27.3159 11.5466 26.5813 11.8098 25.9346 12.3286ZM22.7688 22.9419C23.2464 23.3642 23.7865 23.8418 24.3465 24.3499L22.7688 22.9419ZM30.2993 13.3744C29.7359 12.7404 28.9612 12.3912 28.1181 12.3912C27.5004 12.3912 26.9333 12.595 26.4325 12.9967C25.9863 13.3548 25.6754 13.8076 25.4932 14.1244C25.3994 14.2873 25.2345 14.3846 25.0518 14.3846L30.2993 13.3744ZM30.2993 13.3744C30.8711 14.0181 31.1861 14.9078 31.1861 15.8797C31.1861 16.9053 30.8188 17.8225 29.9952 18.8536C29.1998 19.8495 28.0172 20.8953 26.6478 22.1062L26.644 22.1095M30.2993 13.3744L26.589 13.1916C27.0473 12.824 27.5597 12.6412 28.1181 12.6412C28.8892 12.6412 29.5961 12.9595 30.1124 13.5405C30.6383 14.1324 30.9361 14.9605 30.9361 15.8797C30.9361 16.834 30.5983 17.6979 29.7998 18.6976C29.0203 19.6737 27.8553 20.7047 26.4784 21.9222M26.644 22.1095L26.4785 21.9222C26.4785 21.9222 26.4784 21.9222 26.4784 21.9222M26.644 22.1095C26.1638 22.534 25.6195 23.0152 25.0506 23.5293L26.644 22.1095ZM26.4784 21.9222C26.0456 22.3048 25.56 22.7342 25.0509 23.1924M26.4784 21.9222L25.0509 23.1924M25.0509 23.1924C24.5446 22.7351 24.0598 22.3064 23.628 21.9246L23.6259 21.9228L23.6244 21.9215C22.2479 20.7044 21.0832 19.6734 20.3038 18.6976L20.3038 18.6976C19.5052 17.6979 19.1674 16.834 19.1674 15.8797C19.1674 14.9605 19.4653 14.1324 19.9912 13.5405L25.0509 23.1924ZM25.7099 14.2491C25.8839 13.9466 26.1763 13.5229 26.589 13.1917L19.9912 13.5405C20.5076 12.9595 21.2144 12.6412 21.9856 12.6412C22.5439 12.6412 23.0564 12.824 23.5146 13.1917C23.9274 13.5229 24.2198 13.9466 24.3937 14.249L24.3937 14.2491C24.5305 14.4868 24.7765 14.6346 25.0518 14.6346C25.3271 14.6346 25.5731 14.4868 25.7099 14.2491L25.7099 14.2491Z" fill="#2196F3" stroke="#2196F3" stroke-width="0.5"/>
</svg>
