<svg width="47" height="44" viewBox="0 0 47 44" fill="none" xmlns="http://www.w3.org/2000/svg">
<g clip-path="url(#clip0_7307_17463)">
<path d="M21.8565 1.28892C22.6021 0.0534348 24.3982 0.0534329 25.1438 1.28892L31.4478 11.7349C31.7157 12.1787 32.1526 12.4952 32.6586 12.6121L44.569 15.3629C45.9777 15.6883 46.5327 17.3918 45.5848 18.4807L37.5705 27.6875C37.23 28.0787 37.0631 28.5909 37.1081 29.107L38.1651 41.253C38.2901 42.6896 36.837 43.7424 35.5056 43.1799L24.2485 38.4241C23.7702 38.222 23.2302 38.222 22.7518 38.4241L11.4947 43.1799C10.1633 43.7424 8.71022 42.6896 8.83525 41.253L9.89227 29.107C9.93721 28.5909 9.77031 28.0787 9.4298 27.6875L1.41548 18.4807C0.467599 17.3918 1.02264 15.6883 2.43133 15.3629L14.3417 12.6121C14.8478 12.4952 15.2847 12.1787 15.5525 11.7349L21.8565 1.28892Z" fill="url(#paint0_linear_7307_17463)"/>
<g filter="url(#filter0_d_7307_17463)">
<path d="M22.6785 3.7531C23.0513 3.13536 23.9493 3.13536 24.3221 3.7531L30.3946 13.8154C30.5285 14.0373 30.7469 14.1956 31 14.254L42.4729 16.9038C43.1773 17.0665 43.4548 17.9183 42.9808 18.4627L35.2609 27.3313C35.0906 27.5269 35.0072 27.783 35.0296 28.0411L36.0479 39.741C36.1103 40.4593 35.3838 40.9857 34.7181 40.7045L23.8745 36.1233C23.6353 36.0223 23.3653 36.0223 23.1261 36.1233L12.2825 40.7045C11.6168 40.9857 10.8902 40.4593 10.9527 39.741L11.971 28.0411C11.9934 27.783 11.91 27.5269 11.7397 27.3313L4.01975 18.4627C3.54581 17.9183 3.82334 17.0665 4.52767 16.9038L16.0006 14.254C16.2537 14.1956 16.4721 14.0373 16.606 13.8154L22.6785 3.7531Z" fill="url(#paint1_linear_7307_17463)"/>
</g>
<mask id="mask0_7307_17463" style="mask-type:alpha" maskUnits="userSpaceOnUse" x="3" y="3" width="28" height="30">
<path d="M24.6991 4.3043L30.4542 13.8695C24.2195 16.2608 18.2246 19.3695 9.83173 32.7608L11.0307 26.5434L6.23479 21.0434C5.7552 20.4854 4.60419 19.1304 3.83687 18.1739C3.64503 17.4087 4.07666 17.0579 4.31646 16.9782L5.27566 16.7391L13.4287 14.826L16.0665 14.1087L17.0257 13.1521L19.4236 9.08692C20.3029 7.65213 22.2052 4.54344 22.7808 3.58691C23.3563 3.01299 23.9797 3.34778 24.2195 3.58691L24.6991 4.3043Z" fill="#D9D9D9"/>
</mask>
<g mask="url(#mask0_7307_17463)">
<path d="M22.6775 3.7531C23.0503 3.13536 23.9484 3.13536 24.3211 3.7531L30.3936 13.8154C30.5275 14.0373 30.746 14.1956 30.999 14.254L42.4719 16.9038C43.1763 17.0665 43.4538 17.9183 42.9799 18.4627L35.2599 27.3313C35.0896 27.5269 35.0062 27.783 35.0287 28.0411L36.0469 39.741C36.1094 40.4593 35.3828 40.9857 34.7171 40.7045L23.8735 36.1233C23.6343 36.0223 23.3643 36.0223 23.1251 36.1233L12.2815 40.7045C11.6158 40.9857 10.8893 40.4593 10.9518 39.741L11.97 28.0411C11.9924 27.783 11.909 27.5269 11.7387 27.3313L4.01878 18.4627C3.54483 17.9183 3.82236 17.0665 4.5267 16.9038L15.9997 14.254C16.2527 14.1956 16.4711 14.0373 16.605 13.8154L22.6775 3.7531Z" fill="url(#paint2_linear_7307_17463)"/>
<g opacity="0.6" filter="url(#filter1_f_7307_17463)">
<path d="M23.8551 7.84069C25.0573 5.96257 25.4367 3.82032 24.7025 3.05584C23.9683 2.29136 22.3986 3.19415 21.1963 5.07227C19.9941 6.95038 19.6147 9.09263 20.3489 9.85711C21.0831 10.6216 22.6529 9.71881 23.8551 7.84069Z" fill="white"/>
</g>
<g filter="url(#filter2_f_7307_17463)">
<path d="M23.1489 7.10593C23.713 6.22464 23.8911 5.21941 23.5466 4.86069C23.2021 4.50196 22.4655 4.92559 21.9013 5.80687C21.3372 6.68816 21.1592 7.69339 21.5037 8.05211C21.8482 8.41084 22.5848 7.98722 23.1489 7.10593Z" fill="white"/>
</g>
<g opacity="0.6" filter="url(#filter3_f_7307_17463)">
<path d="M5.8103 18.3304C9.87419 18.1762 14.2423 16.743 15.5667 15.129C16.8911 13.5151 14.6703 12.3317 10.6064 12.4858C6.54249 12.64 2.17441 14.0732 0.850003 15.6872C-0.474401 17.3011 1.7464 18.4845 5.8103 18.3304Z" fill="white"/>
</g>
<g filter="url(#filter4_f_7307_17463)">
<path d="M7.08316 16.7795C8.9901 16.7072 11.0398 16.0346 11.6612 15.2773C12.2827 14.52 11.2406 13.9647 9.33368 14.037C7.42674 14.1093 5.37706 14.7819 4.7556 15.5392C4.13414 16.2965 5.17622 16.8518 7.08316 16.7795Z" fill="white"/>
</g>
</g>
<g style="mix-blend-mode:overlay">
<path d="M18.1329 23.9283L14.3115 29.6522H17.0126L19.4527 25.872L21.8469 29.6522H24.7167L20.8954 23.9436L24.4098 18.7249H21.7701L19.5448 22.2142L17.3963 18.7249H14.6031L18.1329 23.9283ZM28.093 23.8671V20.592H29.9653C30.2416 20.592 30.5075 20.6124 30.7633 20.6532C31.0191 20.694 31.2442 20.7756 31.4386 20.8981C31.633 21.0103 31.7865 21.1735 31.899 21.3878C32.0218 21.6021 32.0832 21.8827 32.0832 22.2295C32.0832 22.5764 32.0218 22.857 31.899 23.0713C31.7865 23.2855 31.633 23.4539 31.4386 23.5763C31.2442 23.6886 31.0191 23.7651 30.7633 23.8059C30.5075 23.8467 30.2416 23.8671 29.9653 23.8671H28.093ZM25.6835 18.7249V29.6522H28.093V25.7342H30.6252C31.3107 25.7342 31.8939 25.6373 32.3747 25.4435C32.8556 25.2394 33.2444 24.9741 33.5411 24.6476C33.8481 24.3211 34.068 23.9488 34.2011 23.5304C34.3443 23.1019 34.4159 22.6683 34.4159 22.2295C34.4159 21.7806 34.3443 21.347 34.2011 20.9287C34.068 20.5103 33.8481 20.138 33.5411 19.8115C33.2444 19.485 32.8556 19.2248 32.3747 19.0309C31.8939 18.8269 31.3107 18.7249 30.6252 18.7249H25.6835Z" fill="black"/>
</g>
<path opacity="0.8" d="M18.1329 23.9283L14.3115 29.6522H17.0126L19.4527 25.872L21.8469 29.6522H24.7167L20.8954 23.9436L24.4098 18.7249H21.7701L19.5448 22.2142L17.3963 18.7249H14.6031L18.1329 23.9283ZM28.093 23.8671V20.592H29.9653C30.2416 20.592 30.5075 20.6124 30.7633 20.6532C31.0191 20.694 31.2442 20.7756 31.4386 20.8981C31.633 21.0103 31.7865 21.1735 31.899 21.3878C32.0218 21.6021 32.0832 21.8827 32.0832 22.2295C32.0832 22.5764 32.0218 22.857 31.899 23.0713C31.7865 23.2855 31.633 23.4539 31.4386 23.5763C31.2442 23.6886 31.0191 23.7651 30.7633 23.8059C30.5075 23.8467 30.2416 23.8671 29.9653 23.8671H28.093ZM25.6835 18.7249V29.6522H28.093V25.7342H30.6252C31.3107 25.7342 31.8939 25.6373 32.3747 25.4435C32.8556 25.2394 33.2444 24.9741 33.5411 24.6476C33.8481 24.3211 34.068 23.9488 34.2011 23.5304C34.3443 23.1019 34.4159 22.6683 34.4159 22.2295C34.4159 21.7806 34.3443 21.347 34.2011 20.9287C34.068 20.5103 33.8481 20.138 33.5411 19.8115C33.2444 19.485 32.8556 19.2248 32.3747 19.0309C31.8939 18.8269 31.3107 18.7249 30.6252 18.7249H25.6835Z" fill="#655416"/>
<g opacity="0.8">
<g opacity="0.6" filter="url(#filter5_f_7307_17463)">
<path d="M24.5931 19.9201C27.7375 18.1692 29.9742 15.3907 29.5891 13.714C29.2039 12.0373 26.3427 12.0975 23.1983 13.8483C20.0539 15.5992 17.8171 18.3778 18.2023 20.0544C18.5874 21.7311 21.4487 21.6709 24.5931 19.9201Z" fill="white"/>
</g>
<g filter="url(#filter6_f_7307_17463)">
<path d="M24.2225 18.3085C25.698 17.487 26.7476 16.1832 26.5669 15.3964C26.3861 14.6096 25.0435 14.6379 23.5681 15.4594C22.0926 16.281 21.043 17.5848 21.2237 18.3716C21.4045 19.1583 22.7471 19.1301 24.2225 18.3085Z" fill="white"/>
</g>
</g>
<g filter="url(#filter7_f_7307_17463)">
<path d="M24.5861 17.1987C25.0679 16.9305 25.4106 16.5047 25.3516 16.2478C25.2926 15.9909 24.8542 16.0001 24.3724 16.2684C23.8906 16.5367 23.5478 16.9624 23.6069 17.2193C23.6659 17.4762 24.1043 17.467 24.5861 17.1987Z" fill="white"/>
</g>
</g>
<defs>
<filter id="filter0_d_7307_17463" x="-0.21582" y="1.28979" width="47.4326" height="45.4917" filterUnits="userSpaceOnUse" color-interpolation-filters="sRGB">
<feFlood flood-opacity="0" result="BackgroundImageFix"/>
<feColorMatrix in="SourceAlpha" type="matrix" values="0 0 0 0 0 0 0 0 0 0 0 0 0 0 0 0 0 0 127 0" result="hardAlpha"/>
<feOffset dy="2"/>
<feGaussianBlur stdDeviation="2"/>
<feComposite in2="hardAlpha" operator="out"/>
<feColorMatrix type="matrix" values="0 0 0 0 0 0 0 0 0 0 0 0 0 0 0 0 0 0 0.25 0"/>
<feBlend mode="normal" in2="BackgroundImageFix" result="effect1_dropShadow_7307_17463"/>
<feBlend mode="normal" in="SourceGraphic" in2="effect1_dropShadow_7307_17463" result="shape"/>
</filter>
<filter id="filter1_f_7307_17463" x="15.9746" y="-1.21606" width="13.1025" height="15.345" filterUnits="userSpaceOnUse" color-interpolation-filters="sRGB">
<feFlood flood-opacity="0" result="BackgroundImageFix"/>
<feBlend mode="normal" in="SourceGraphic" in2="BackgroundImageFix" result="shape"/>
<feGaussianBlur stdDeviation="2" result="effect1_foregroundBlur_7307_17463"/>
</filter>
<filter id="filter2_f_7307_17463" x="17.3281" y="0.733154" width="10.3936" height="11.4465" filterUnits="userSpaceOnUse" color-interpolation-filters="sRGB">
<feFlood flood-opacity="0" result="BackgroundImageFix"/>
<feBlend mode="normal" in="SourceGraphic" in2="BackgroundImageFix" result="shape"/>
<feGaussianBlur stdDeviation="2" result="effect1_foregroundBlur_7307_17463"/>
</filter>
<filter id="filter3_f_7307_17463" x="-3.5332" y="8.47241" width="23.4824" height="13.8713" filterUnits="userSpaceOnUse" color-interpolation-filters="sRGB">
<feFlood flood-opacity="0" result="BackgroundImageFix"/>
<feBlend mode="normal" in="SourceGraphic" in2="BackgroundImageFix" result="shape"/>
<feGaussianBlur stdDeviation="2" result="effect1_foregroundBlur_7307_17463"/>
</filter>
<filter id="filter4_f_7307_17463" x="0.576172" y="10.0308" width="15.2646" height="10.7551" filterUnits="userSpaceOnUse" color-interpolation-filters="sRGB">
<feFlood flood-opacity="0" result="BackgroundImageFix"/>
<feBlend mode="normal" in="SourceGraphic" in2="BackgroundImageFix" result="shape"/>
<feGaussianBlur stdDeviation="2" result="effect1_foregroundBlur_7307_17463"/>
</filter>
<filter id="filter5_f_7307_17463" x="14.1592" y="8.49487" width="19.4727" height="16.7788" filterUnits="userSpaceOnUse" color-interpolation-filters="sRGB">
<feFlood flood-opacity="0" result="BackgroundImageFix"/>
<feBlend mode="normal" in="SourceGraphic" in2="BackgroundImageFix" result="shape"/>
<feGaussianBlur stdDeviation="2" result="effect1_foregroundBlur_7307_17463"/>
</filter>
<filter id="filter6_f_7307_17463" x="17.2031" y="10.8242" width="13.3838" height="12.1194" filterUnits="userSpaceOnUse" color-interpolation-filters="sRGB">
<feFlood flood-opacity="0" result="BackgroundImageFix"/>
<feBlend mode="normal" in="SourceGraphic" in2="BackgroundImageFix" result="shape"/>
<feGaussianBlur stdDeviation="2" result="effect1_foregroundBlur_7307_17463"/>
</filter>
<filter id="filter7_f_7307_17463" x="21.6006" y="14.061" width="5.75781" height="5.34497" filterUnits="userSpaceOnUse" color-interpolation-filters="sRGB">
<feFlood flood-opacity="0" result="BackgroundImageFix"/>
<feBlend mode="normal" in="SourceGraphic" in2="BackgroundImageFix" result="shape"/>
<feGaussianBlur stdDeviation="1" result="effect1_foregroundBlur_7307_17463"/>
</filter>
<linearGradient id="paint0_linear_7307_17463" x1="10.791" y1="2.08581" x2="36.3365" y2="47.6786" gradientUnits="userSpaceOnUse">
<stop stop-color="#EDCE1D"/>
<stop offset="1" stop-color="#DB6F05"/>
</linearGradient>
<linearGradient id="paint1_linear_7307_17463" x1="24.4595" y1="17.6956" x2="39.2811" y2="34.2366" gradientUnits="userSpaceOnUse">
<stop stop-color="#FFF6A0"/>
<stop offset="1" stop-color="#FFAA01"/>
</linearGradient>
<linearGradient id="paint2_linear_7307_17463" x1="10.7901" y1="10.7608" x2="19.3912" y2="22.74" gradientUnits="userSpaceOnUse">
<stop stop-color="#FCFAD9"/>
<stop offset="1" stop-color="#E9DC27"/>
</linearGradient>
<clipPath id="clip0_7307_17463">
<rect width="47" height="44" fill="white"/>
</clipPath>
</defs>
</svg>
