<svg width="53" height="48" viewBox="0 0 53 48" fill="none" xmlns="http://www.w3.org/2000/svg">
<g clip-path="url(#clip0_12326_20180)">
<path d="M24.6482 1.40538C25.489 0.0575823 27.5144 0.0575802 28.3552 1.40538L35.4639 12.801C35.766 13.2852 36.2587 13.6305 36.8293 13.758L50.2602 16.7589C51.8487 17.1138 52.4746 18.9722 51.4057 20.1601L42.3683 30.2038C41.9843 30.6306 41.7961 31.1893 41.8468 31.7523L43.0387 45.0026C43.1797 46.5697 41.5411 47.7182 40.0397 47.1046L27.3456 41.9165C26.8062 41.696 26.1972 41.696 25.6578 41.9165L12.9637 47.1046C11.4623 47.7182 9.82368 46.5697 9.96467 45.0026L11.1566 31.7523C11.2073 31.1893 11.0191 30.6306 10.6351 30.2038L1.5977 20.1601C0.528809 18.9722 1.15471 17.1138 2.74323 16.7589L16.1741 13.758C16.7447 13.6305 17.2374 13.2852 17.5395 12.801L24.6482 1.40538Z" fill="url(#paint0_linear_12326_20180)"/>
<g filter="url(#filter0_d_12326_20180)">
<path d="M25.5759 4.09527C25.9962 3.42137 27.009 3.42137 27.4293 4.09527L34.277 15.0723C34.428 15.3144 34.6743 15.4871 34.9597 15.5508L47.8972 18.4415C48.6915 18.619 49.0044 19.5482 48.47 20.1421L39.7645 29.817C39.5725 30.0303 39.4785 30.3097 39.5038 30.5912L40.652 43.3548C40.7224 44.1384 39.9032 44.7126 39.1524 44.4059L26.9245 39.4082C26.6548 39.298 26.3504 39.298 26.0806 39.4082L13.8527 44.4059C13.102 44.7126 12.2827 44.1384 12.3532 43.3548L13.5014 30.5912C13.5267 30.3097 13.4327 30.0303 13.2406 29.817L4.53518 20.1421C4.00073 19.5482 4.31369 18.619 5.10794 18.4415L18.0455 15.5508C18.3309 15.4871 18.5772 15.3144 18.7282 15.0723L25.5759 4.09527Z" fill="url(#paint1_linear_12326_20180)"/>
</g>
<mask id="mask0_12326_20180" style="mask-type:alpha" maskUnits="userSpaceOnUse" x="4" y="3" width="31" height="33">
<path d="M27.8529 4.69471L34.3427 15.1295C27.3121 17.7382 20.5518 21.1295 11.0875 35.7382L12.4396 28.9556L7.03139 22.9556C6.49057 22.3469 5.19262 20.8686 4.32735 19.8252C4.11102 18.9904 4.59775 18.6078 4.86816 18.5208L5.94981 18.2599L15.1437 16.173L18.1182 15.3904L19.1998 14.3469L21.9039 9.91211C22.8954 8.34689 25.0406 4.95559 25.6896 3.9121C26.3386 3.28601 27.0416 3.65123 27.3121 3.9121L27.8529 4.69471Z" fill="#D9D9D9"/>
</mask>
<g mask="url(#mask0_12326_20180)">
<path d="M25.5719 4.09527C25.9923 3.42137 27.0051 3.42137 27.4254 4.09527L34.2731 15.0723C34.4241 15.3144 34.6704 15.4871 34.9558 15.5508L47.8933 18.4415C48.6876 18.619 49.0005 19.5482 48.4661 20.1421L39.7606 29.817C39.5686 30.0303 39.4745 30.3097 39.4999 30.5912L40.6481 43.3548C40.7185 44.1384 39.8992 44.7126 39.1485 44.4059L26.9206 39.4082C26.6509 39.298 26.3464 39.298 26.0767 39.4082L13.8488 44.4059C13.0981 44.7126 12.2788 44.1384 12.3493 43.3548L13.4975 30.5912C13.5228 30.3097 13.4288 30.0303 13.2367 29.817L4.53127 20.1421C3.99683 19.5482 4.30978 18.619 5.10403 18.4415L18.0416 15.5508C18.327 15.4871 18.5733 15.3144 18.7243 15.0723L25.5719 4.09527Z" fill="url(#paint2_linear_12326_20180)"/>
<g opacity="0.6" filter="url(#filter1_f_12326_20180)">
<path d="M26.8982 8.55251C28.2539 6.50365 28.6817 4.16665 27.8538 3.33267C27.0259 2.49869 25.2557 3.48355 23.9 5.5324C22.5443 7.58126 22.1165 9.91826 22.9444 10.7522C23.7723 11.5862 25.5425 10.6014 26.8982 8.55251Z" fill="white"/>
</g>
<g filter="url(#filter2_f_12326_20180)">
<path d="M26.1056 7.75059C26.7417 6.78918 26.9425 5.69257 26.554 5.30124C26.1655 4.9099 25.3349 5.37204 24.6987 6.33344C24.0626 7.29485 23.8618 8.39146 24.2503 8.78279C24.6388 9.17413 25.4694 8.712 26.1056 7.75059Z" fill="white"/>
</g>
<g opacity="0.6" filter="url(#filter3_f_12326_20180)">
<path d="M6.55341 19.9972C11.1361 19.8291 16.0618 18.2655 17.5553 16.5048C19.0488 14.7442 16.5445 13.4532 11.9618 13.6214C7.37907 13.7895 2.45336 15.3531 0.959885 17.1137C-0.533591 18.8743 1.97071 20.1653 6.55341 19.9972Z" fill="white"/>
</g>
<g filter="url(#filter4_f_12326_20180)">
<path d="M7.9886 18.306C10.139 18.2271 12.4503 17.4934 13.1511 16.6672C13.8519 15.8411 12.6768 15.2353 10.5264 15.3142C8.37604 15.3931 6.0647 16.1268 5.3639 16.9529C4.66311 17.7791 5.83822 18.3849 7.9886 18.306Z" fill="white"/>
</g>
</g>
<g style="mix-blend-mode:overlay">
<path d="M20.4498 26.1023L16.1406 32.3465H19.1865L21.9382 28.2227L24.6379 32.3465H27.8742L23.565 26.119L27.5281 20.4258H24.5514L22.042 24.2324L19.6192 20.4258H16.4694L20.4498 26.1023ZM31.6814 26.0355V22.4627H33.7928C34.1043 22.4627 34.4042 22.4849 34.6927 22.5294C34.9811 22.5739 35.2349 22.663 35.4542 22.7966C35.6733 22.919 35.8464 23.0971 35.9733 23.3308C36.1118 23.5646 36.181 23.8707 36.181 24.2491C36.181 24.6275 36.1118 24.9336 35.9733 25.1673C35.8464 25.4011 35.6733 25.5847 35.4542 25.7183C35.2349 25.8408 34.9811 25.9242 34.6927 25.9687C34.4042 26.0132 34.1043 26.0355 33.7928 26.0355H31.6814ZM28.9644 20.4258V32.3465H31.6814V28.0724H34.5369C35.3099 28.0724 35.9676 27.9666 36.5098 27.7552C37.052 27.5325 37.4905 27.2432 37.8251 26.887C38.1712 26.5308 38.4192 26.1246 38.5693 25.6682C38.7307 25.2007 38.8115 24.7277 38.8115 24.2491C38.8115 23.7593 38.7307 23.2863 38.5693 22.83C38.4192 22.3736 38.1712 21.9674 37.8251 21.6112C37.4905 21.255 37.052 20.9712 36.5098 20.7597C35.9676 20.5371 35.3099 20.4258 34.5369 20.4258H28.9644Z" fill="black"/>
</g>
<path opacity="0.8" d="M20.4498 26.1023L16.1406 32.3465H19.1865L21.9382 28.2227L24.6379 32.3465H27.8742L23.565 26.119L27.5281 20.4258H24.5514L22.042 24.2324L19.6192 20.4258H16.4694L20.4498 26.1023ZM31.6814 26.0355V22.4627H33.7928C34.1043 22.4627 34.4042 22.4849 34.6927 22.5294C34.9811 22.5739 35.2349 22.663 35.4542 22.7966C35.6733 22.919 35.8464 23.0971 35.9733 23.3308C36.1118 23.5646 36.181 23.8707 36.181 24.2491C36.181 24.6275 36.1118 24.9336 35.9733 25.1673C35.8464 25.4011 35.6733 25.5847 35.4542 25.7183C35.2349 25.8408 34.9811 25.9242 34.6927 25.9687C34.4042 26.0132 34.1043 26.0355 33.7928 26.0355H31.6814ZM28.9644 20.4258V32.3465H31.6814V28.0724H34.5369C35.3099 28.0724 35.9676 27.9666 36.5098 27.7552C37.052 27.5325 37.4905 27.2432 37.8251 26.887C38.1712 26.5308 38.4192 26.1246 38.5693 25.6682C38.7307 25.2007 38.8115 24.7277 38.8115 24.2491C38.8115 23.7593 38.7307 23.2863 38.5693 22.83C38.4192 22.3736 38.1712 21.9674 37.8251 21.6112C37.4905 21.255 37.052 20.9712 36.5098 20.7597C35.9676 20.5371 35.3099 20.4258 34.5369 20.4258H28.9644Z" fill="#655416"/>
<g opacity="0.8">
<g opacity="0.6" filter="url(#filter5_f_12326_20180)">
<path d="M27.7352 21.7317C31.281 19.8217 33.8034 16.7905 33.3691 14.9614C32.9347 13.1324 29.7082 13.198 26.1624 15.108C22.6166 17.018 20.0943 20.0492 20.5286 21.8783C20.9629 23.7073 24.1895 23.6417 27.7352 21.7317Z" fill="white"/>
</g>
<g filter="url(#filter6_f_12326_20180)">
<path d="M27.3171 19.9736C28.9809 19.0773 30.1645 17.655 29.9607 16.7967C29.7569 15.9384 28.2429 15.9692 26.579 16.8655C24.9152 17.7617 23.7316 19.1841 23.9354 20.0423C24.1392 20.9006 25.6532 20.8698 27.3171 19.9736Z" fill="white"/>
</g>
</g>
<g filter="url(#filter7_f_12326_20180)">
<path d="M27.7247 18.7584C28.268 18.4658 28.6545 18.0013 28.588 17.7211C28.5214 17.4408 28.027 17.4509 27.4837 17.7435C26.9404 18.0362 26.5539 18.5006 26.6205 18.7809C26.687 19.0612 27.1814 19.0511 27.7247 18.7584Z" fill="white"/>
</g>
</g>
<defs>
<filter id="filter0_d_12326_20180" x="0.269531" y="1.58984" width="52.4648" height="48.8984" filterUnits="userSpaceOnUse" color-interpolation-filters="sRGB">
<feFlood flood-opacity="0" result="BackgroundImageFix"/>
<feColorMatrix in="SourceAlpha" type="matrix" values="0 0 0 0 0 0 0 0 0 0 0 0 0 0 0 0 0 0 127 0" result="hardAlpha"/>
<feOffset dy="2"/>
<feGaussianBlur stdDeviation="2"/>
<feComposite in2="hardAlpha" operator="out"/>
<feColorMatrix type="matrix" values="0 0 0 0 0 0 0 0 0 0 0 0 0 0 0 0 0 0 0.25 0"/>
<feBlend mode="normal" in2="BackgroundImageFix" result="effect1_dropShadow_12326_20180"/>
<feBlend mode="normal" in="SourceGraphic" in2="effect1_dropShadow_12326_20180" result="shape"/>
</filter>
<filter id="filter1_f_12326_20180" x="18.5234" y="-0.964844" width="13.7539" height="16.0156" filterUnits="userSpaceOnUse" color-interpolation-filters="sRGB">
<feFlood flood-opacity="0" result="BackgroundImageFix"/>
<feBlend mode="normal" in="SourceGraphic" in2="BackgroundImageFix" result="shape"/>
<feGaussianBlur stdDeviation="2" result="effect1_foregroundBlur_12326_20180"/>
</filter>
<filter id="filter2_f_12326_20180" x="20.0508" y="1.16016" width="10.7031" height="11.7617" filterUnits="userSpaceOnUse" color-interpolation-filters="sRGB">
<feFlood flood-opacity="0" result="BackgroundImageFix"/>
<feBlend mode="normal" in="SourceGraphic" in2="BackgroundImageFix" result="shape"/>
<feGaussianBlur stdDeviation="2" result="effect1_foregroundBlur_12326_20180"/>
</filter>
<filter id="filter3_f_12326_20180" x="-3.47266" y="9.60547" width="25.4609" height="14.4062" filterUnits="userSpaceOnUse" color-interpolation-filters="sRGB">
<feFlood flood-opacity="0" result="BackgroundImageFix"/>
<feBlend mode="normal" in="SourceGraphic" in2="BackgroundImageFix" result="shape"/>
<feGaussianBlur stdDeviation="2" result="effect1_foregroundBlur_12326_20180"/>
</filter>
<filter id="filter4_f_12326_20180" x="1.16016" y="11.3086" width="16.1953" height="11.0039" filterUnits="userSpaceOnUse" color-interpolation-filters="sRGB">
<feFlood flood-opacity="0" result="BackgroundImageFix"/>
<feBlend mode="normal" in="SourceGraphic" in2="BackgroundImageFix" result="shape"/>
<feGaussianBlur stdDeviation="2" result="effect1_foregroundBlur_12326_20180"/>
</filter>
<filter id="filter5_f_12326_20180" x="16.4805" y="9.63281" width="20.9375" height="17.5742" filterUnits="userSpaceOnUse" color-interpolation-filters="sRGB">
<feFlood flood-opacity="0" result="BackgroundImageFix"/>
<feBlend mode="normal" in="SourceGraphic" in2="BackgroundImageFix" result="shape"/>
<feGaussianBlur stdDeviation="2" result="effect1_foregroundBlur_12326_20180"/>
</filter>
<filter id="filter6_f_12326_20180" x="19.9141" y="12.1719" width="14.0703" height="12.4961" filterUnits="userSpaceOnUse" color-interpolation-filters="sRGB">
<feFlood flood-opacity="0" result="BackgroundImageFix"/>
<feBlend mode="normal" in="SourceGraphic" in2="BackgroundImageFix" result="shape"/>
<feGaussianBlur stdDeviation="2" result="effect1_foregroundBlur_12326_20180"/>
</filter>
<filter id="filter7_f_12326_20180" x="24.6133" y="15.5156" width="5.98047" height="5.46875" filterUnits="userSpaceOnUse" color-interpolation-filters="sRGB">
<feFlood flood-opacity="0" result="BackgroundImageFix"/>
<feBlend mode="normal" in="SourceGraphic" in2="BackgroundImageFix" result="shape"/>
<feGaussianBlur stdDeviation="1" result="effect1_foregroundBlur_12326_20180"/>
</filter>
<linearGradient id="paint0_linear_12326_20180" x1="12.1701" y1="2.27471" x2="39.5491" y2="52.7862" gradientUnits="userSpaceOnUse">
<stop stop-color="#EDCE1D"/>
<stop offset="1" stop-color="#DB6F05"/>
</linearGradient>
<linearGradient id="paint1_linear_12326_20180" x1="27.5842" y1="19.3053" x2="43.6861" y2="37.8804" gradientUnits="userSpaceOnUse">
<stop stop-color="#FFF6A0"/>
<stop offset="1" stop-color="#FFAA01"/>
</linearGradient>
<linearGradient id="paint2_linear_12326_20180" x1="12.1671" y1="11.7401" x2="21.4467" y2="25.0997" gradientUnits="userSpaceOnUse">
<stop stop-color="#FCFAD9"/>
<stop offset="1" stop-color="#E9DC27"/>
</linearGradient>
<clipPath id="clip0_12326_20180">
<rect width="53" height="48" fill="white"/>
</clipPath>
</defs>
</svg>
