<svg width="53" height="51" viewBox="0 0 53 51" fill="none" xmlns="http://www.w3.org/2000/svg">
<g filter="url(#filter0_d_11789_14097)">
<path d="M24.3015 9.73175C25.0841 8.47312 26.9159 8.47312 27.6985 9.73175L31.6013 16.0088C31.8766 16.4517 32.314 16.7694 32.8202 16.8945L39.9961 18.6665C41.435 19.0218 42.001 20.764 41.0458 21.8972L36.282 27.5487C35.9459 27.9474 35.7788 28.4616 35.8164 28.9817L36.3485 36.3539C36.4552 37.8322 34.9733 38.9089 33.6004 38.3506L26.7534 35.5664C26.2703 35.3699 25.7297 35.3699 25.2466 35.5664L18.3996 38.3506C17.0267 38.9089 15.5448 37.8322 15.6515 36.3539L16.1836 28.9817C16.2211 28.4616 16.0541 27.9474 15.718 27.5487L10.9542 21.8972C9.99897 20.764 10.565 19.0218 12.0039 18.6665L19.1798 16.8945C19.686 16.7694 20.1234 16.4517 20.3987 16.0088L24.3015 9.73175Z" fill="#0D7F70"/>
<path d="M31.309 37.4112L33.6193 38.3506C34.9922 38.9089 36.4742 37.8322 36.3675 36.3539L35.8353 28.9817C35.7978 28.4616 35.9648 27.9474 36.3009 27.5487L41.0647 21.8972C42.02 20.764 41.4539 19.0218 40.015 18.6665L32.8392 16.8945C32.3329 16.7694 31.8955 16.4517 31.6202 16.0088L27.7174 9.73175C26.9348 8.47312 25.103 8.47312 24.3204 9.73175L20.4177 16.0088C20.1423 16.4517 19.7049 16.7694 19.1987 16.8945L12.0228 18.6665C10.584 19.0218 10.0179 20.764 10.9731 21.8972L15.7369 27.5487C16.073 27.9474 16.2401 28.4616 16.2025 28.9817L15.6704 36.3539C15.5637 37.8322 17.0457 38.9089 18.4186 38.3506L25.2655 35.5664C25.7486 35.3699 26.2893 35.3699 26.7723 35.5664L27.3692 35.8091" stroke="#443F89" stroke-linecap="round" stroke-linejoin="round"/>
<path d="M19.168 21.432H20.956L22.9 24.456L24.928 21.432H26.608L23.776 25.56L26.812 30H24.988L22.852 26.724L20.68 30H18.964L22 25.56L19.168 21.432ZM27.6933 21.432H31.4733C32.0813 21.432 32.5773 21.52 32.9613 21.696C33.3453 21.872 33.6413 22.092 33.8493 22.356C34.0573 22.62 34.1973 22.908 34.2693 23.22C34.3493 23.532 34.3893 23.82 34.3893 24.084C34.3893 24.348 34.3493 24.636 34.2693 24.948C34.1973 25.252 34.0573 25.536 33.8493 25.8C33.6413 26.064 33.3453 26.284 32.9613 26.46C32.5773 26.628 32.0813 26.712 31.4733 26.712H29.1933V30H27.6933V21.432ZM29.1933 25.488H31.3893C31.5573 25.488 31.7293 25.464 31.9053 25.416C32.0813 25.368 32.2413 25.292 32.3853 25.188C32.5373 25.076 32.6573 24.932 32.7453 24.756C32.8413 24.572 32.8893 24.344 32.8893 24.072C32.8893 23.792 32.8493 23.56 32.7693 23.376C32.6893 23.192 32.5813 23.048 32.4453 22.944C32.3093 22.832 32.1533 22.756 31.9773 22.716C31.8013 22.676 31.6133 22.656 31.4133 22.656H29.1933V25.488Z" fill="white"/>
</g>
<defs>
<filter id="filter0_d_11789_14097" x="0.000488281" y="0.289062" width="52.0366" height="50.7109" filterUnits="userSpaceOnUse" color-interpolation-filters="sRGB">
<feFlood flood-opacity="0" result="BackgroundImageFix"/>
<feColorMatrix in="SourceAlpha" type="matrix" values="0 0 0 0 0 0 0 0 0 0 0 0 0 0 0 0 0 0 127 0" result="hardAlpha"/>
<feOffset dy="2"/>
<feGaussianBlur stdDeviation="5"/>
<feComposite in2="hardAlpha" operator="out"/>
<feColorMatrix type="matrix" values="0 0 0 0 0 0 0 0 0 0 0 0 0 0 0 0 0 0 0.15 0"/>
<feBlend mode="normal" in2="BackgroundImageFix" result="effect1_dropShadow_11789_14097"/>
<feBlend mode="normal" in="SourceGraphic" in2="effect1_dropShadow_11789_14097" result="shape"/>
</filter>
</defs>
</svg>
