<svg width="45" height="45" viewBox="0 0 45 45" fill="none" xmlns="http://www.w3.org/2000/svg">
<rect width="45" height="45" rx="10" fill="white" fill-opacity="0.2"/>
<rect x="0.5" y="0.5" width="44" height="44" rx="9.5" stroke="white" stroke-opacity="0.2"/>
<path d="M11.9434 10.7305H22.0351C22.7584 10.7305 23.3417 11.3021 23.3417 12.0021V17.8821C23.3417 18.5821 22.7584 19.1538 22.0351 19.1538H11.9434C11.2201 19.1538 10.6367 18.5821 10.6367 17.8821V12.0138C10.6367 11.3138 11.2201 10.7421 11.9434 10.7421V10.7305Z" stroke="#A5DAD8" stroke-width="1.5" stroke-miterlimit="10"/>
<path d="M26.0596 20.8329V12.0129C26.0596 11.3129 26.5612 10.7412 27.1679 10.7412H32.2779C32.8846 10.7412 33.3862 11.3129 33.3862 12.0129V20.8445C33.3862 21.5445 32.8846 22.1162 32.2779 22.1162H27.1679C26.5612 22.1162 26.0596 21.5445 26.0596 20.8445V20.8329Z" stroke="#A5DAD8" stroke-width="1.5" stroke-miterlimit="10"/>
<path d="M32.08 33.27H21.9883C21.265 33.27 20.6816 32.6983 20.6816 31.9983V26.1183C20.6816 25.4183 21.265 24.8467 21.9883 24.8467H32.08C32.8033 24.8467 33.3866 25.4183 33.3866 26.1183V31.9983C33.3866 32.6983 32.8033 33.27 32.08 33.27Z" stroke="#A5DAD8" stroke-width="1.5" stroke-miterlimit="10"/>
<path d="M17.9633 23.1662V31.9979C17.9633 32.6979 17.4617 33.2695 16.855 33.2695H11.7333C11.1267 33.2695 10.625 32.6979 10.625 31.9979V23.1662C10.625 22.4662 11.1267 21.8945 11.7333 21.8945H16.8433C17.45 21.8945 17.9517 22.4662 17.9517 23.1662H17.9633Z" stroke="#A5DAD8" stroke-width="1.5" stroke-miterlimit="10"/>
</svg>
