<svg width="45" height="45" viewBox="0 0 45 45" fill="none" xmlns="http://www.w3.org/2000/svg">
<rect width="45" height="45" rx="10" fill="white" fill-opacity="0.2"/>
<rect x="0.5" y="0.5" width="44" height="44" rx="9.5" stroke="white" stroke-opacity="0.2"/>
<path d="M32.1151 12.2354H24.9984C24.3219 12.2354 23.7734 12.7838 23.7734 13.4604V22.152C23.7734 22.8286 24.3219 23.377 24.9984 23.377H32.1151C32.7917 23.377 33.3401 22.8286 33.3401 22.152V13.4604C33.3401 12.7838 32.7917 12.2354 32.1151 12.2354Z" stroke="#A5DAD8" stroke-width="1.5" stroke-miterlimit="10"/>
<path d="M18.1619 10.6484H12.5386C11.5119 10.6484 10.6836 11.4767 10.6836 12.5034V19.9351C10.6836 20.9617 11.5119 21.7901 12.5386 21.7901H15.2453V21.8367C15.2453 22.6184 15.8753 23.2484 16.6569 23.2484H19.3403C20.3786 23.2484 21.2303 22.4084 21.2303 21.3584V13.7167C21.2303 12.0134 19.8536 10.6367 18.1503 10.6367L18.1619 10.6484Z" stroke="#A5DAD8" stroke-width="1.5" stroke-miterlimit="10"/>
<path d="M30.4543 15H26.5457C26.2443 15 26 15.1891 26 15.4224V17.5776C26 17.8109 26.2443 18 26.5457 18H30.4543C30.7557 18 31 17.8109 31 17.5776V15.4224C31 15.1891 30.7557 15 30.4543 15Z" stroke="#A5DAD8" stroke-width="1.5" stroke-miterlimit="10"/>
<path d="M27.2379 21.218C27.5278 21.218 27.7629 20.9829 27.7629 20.693C27.7629 20.403 27.5278 20.168 27.2379 20.168C26.9479 20.168 26.7129 20.403 26.7129 20.693C26.7129 20.9829 26.9479 21.218 27.2379 21.218Z" fill="#A5DAD8"/>
<path d="M29.8629 21.218C30.1528 21.218 30.3879 20.9829 30.3879 20.693C30.3879 20.403 30.1528 20.168 29.8629 20.168C29.5729 20.168 29.3379 20.403 29.3379 20.693C29.3379 20.9829 29.5729 21.218 29.8629 21.218Z" fill="#A5DAD8"/>
<path d="M12.7246 21.79V29.385C12.7246 31.52 14.4746 33.2817 16.6213 33.2817H16.7963C18.9313 33.2817 20.6929 31.5317 20.6929 29.385V28.9534V27.8334" stroke="#A5DAD8" stroke-width="1.5" stroke-miterlimit="10"/>
<path d="M20.6934 27.833C20.6934 27.0864 21.3117 26.468 22.0584 26.468C22.805 26.468 23.4234 27.0864 23.4234 27.833V29.4197V29.828V30.703C23.4234 32.1147 24.5784 33.2697 25.99 33.2697C27.4017 33.2697 28.5567 32.1147 28.5567 30.703V23.248" stroke="#A5DAD8" stroke-width="1.5" stroke-miterlimit="10"/>
<path d="M15.2452 21.7899V18.2665C15.2452 18.2665 15.0585 16.9599 16.9835 16.9599C18.9085 16.9599 21.2302 16.6682 21.2302 14.5332" stroke="#A5DAD8" stroke-width="1.5" stroke-miterlimit="10"/>
<path d="M16.9836 16.9484V15.7C16.9836 15.7 17.1003 14.3934 15.2453 14.3934H13.0636C13.0636 14.3934 10.6836 14.5334 10.6836 12.8184" stroke="#A5DAD8" stroke-width="1.5" stroke-miterlimit="10"/>
</svg>
