<svg width="45" height="45" viewBox="0 0 45 45" fill="none" xmlns="http://www.w3.org/2000/svg">
<rect width="45" height="45" rx="10" fill="white" fill-opacity="0.2"/>
<rect x="0.5" y="0.5" width="44" height="44" rx="9.5" stroke="white" stroke-opacity="0.2"/>
<path d="M16.9718 20.4098V21.1915H16.1901V20.4098H16.9718ZM17.4734 19.2432H15.6884C15.3268 19.2432 15.0234 19.5348 15.0234 19.9082V21.6932C15.0234 22.0548 15.3151 22.3582 15.6884 22.3582H17.4734C17.8351 22.3582 18.1384 22.0665 18.1384 21.6932V19.9082C18.1384 19.5465 17.8468 19.2432 17.4734 19.2432Z" fill="#A5DAD8"/>
<path d="M22.7354 20.4098V21.1915H21.9538V20.4098H22.7354ZM23.2371 19.2432H21.4521C21.0904 19.2432 20.7871 19.5348 20.7871 19.9082V21.6932C20.7871 22.0548 21.0788 22.3582 21.4521 22.3582H23.2371C23.5988 22.3582 23.9021 22.0665 23.9021 21.6932V19.9082C23.9021 19.5465 23.6104 19.2432 23.2371 19.2432Z" fill="#A5DAD8"/>
<path d="M28.4864 20.4098V21.1915H27.7048V20.4098H28.4864ZM28.9881 19.2432H27.2031C26.8414 19.2432 26.5381 19.5348 26.5381 19.9082V21.6932C26.5381 22.0548 26.8298 22.3582 27.2031 22.3582H28.9881C29.3498 22.3582 29.6531 22.0665 29.6531 21.6932V19.9082C29.6531 19.5465 29.3614 19.2432 28.9881 19.2432Z" fill="#A5DAD8"/>
<path d="M16.9718 24.7965V25.5782H16.1901V24.7965H16.9718ZM17.4734 23.6299H15.6884C15.3268 23.6299 15.0234 23.9215 15.0234 24.2949V26.0799C15.0234 26.4415 15.3151 26.7449 15.6884 26.7449H17.4734C17.8351 26.7449 18.1384 26.4532 18.1384 26.0799V24.2949C18.1384 23.9332 17.8468 23.6299 17.4734 23.6299Z" fill="#A5DAD8"/>
<path d="M22.7354 24.7965V25.5782H21.9538V24.7965H22.7354ZM23.2371 23.6299H21.4521C21.0904 23.6299 20.7871 23.9215 20.7871 24.2949V26.0799C20.7871 26.4415 21.0788 26.7449 21.4521 26.7449H23.2371C23.5988 26.7449 23.9021 26.4532 23.9021 26.0799V24.2949C23.9021 23.9332 23.6104 23.6299 23.2371 23.6299Z" fill="#A5DAD8"/>
<path d="M28.4864 24.7965V25.5782H27.7048V24.7965H28.4864ZM28.9881 23.6299H27.2031C26.8414 23.6299 26.5381 23.9215 26.5381 24.2949V26.0799C26.5381 26.4415 26.8298 26.7449 27.2031 26.7449H28.9881C29.3498 26.7449 29.6531 26.4532 29.6531 26.0799V24.2949C29.6531 23.9332 29.3614 23.6299 28.9881 23.6299Z" fill="#A5DAD8"/>
<path d="M16.9718 29.195V29.9767H16.1901V29.195H16.9718ZM17.4734 28.0283H15.6884C15.3268 28.0283 15.0234 28.32 15.0234 28.6933V30.4783C15.0234 30.84 15.3151 31.1433 15.6884 31.1433H17.4734C17.8351 31.1433 18.1384 30.8517 18.1384 30.4783V28.6933C18.1384 28.3317 17.8468 28.0283 17.4734 28.0283Z" fill="#A5DAD8"/>
<path d="M28.4864 29.195V29.9767H27.7048V29.195H28.4864ZM28.9881 28.0283H27.2031C26.8414 28.0283 26.5381 28.32 26.5381 28.6933V30.4783C26.5381 30.84 26.8298 31.1433 27.2031 31.1433H28.9881C29.3498 31.1433 29.6531 30.8517 29.6531 30.4783V28.6933C29.6531 28.3317 29.3614 28.0283 28.9881 28.0283Z" fill="#A5DAD8"/>
<path d="M29.8169 12.792H26.3519V15.4053C26.3519 16.0587 25.8153 16.5953 25.1619 16.5953H19.5036C18.8503 16.5953 18.3136 16.0587 18.3136 15.4053V12.792H14.8486C13.5069 12.792 12.4336 13.877 12.4336 15.207V31.867C12.4336 33.2087 13.5186 34.282 14.8486 34.282H19.7486V30.3737C19.7486 29.8253 20.1919 29.382 20.7403 29.382H23.9369C24.4853 29.382 24.9286 29.8253 24.9286 30.3737V34.282H29.8286C31.1703 34.282 32.2436 33.197 32.2436 31.867V15.2187C32.2436 13.877 31.1586 12.8037 29.8286 12.8037L29.8169 12.792Z" stroke="#A5DAD8" stroke-width="1.5" stroke-miterlimit="10"/>
<path d="M20.623 12.792H24.053" stroke="#A5DAD8" stroke-width="1.5" stroke-miterlimit="10" stroke-linecap="round"/>
<path d="M22.3379 14.5071V11.0771" stroke="#A5DAD8" stroke-width="1.5" stroke-miterlimit="10" stroke-linecap="round"/>
</svg>
