<svg width="38" height="38" viewBox="0 0 38 38" fill="none" xmlns="http://www.w3.org/2000/svg">
<rect width="38" height="38" rx="8" fill="white" fill-opacity="0.2"/>
<rect x="0.5" y="0.5" width="37" height="37" rx="7.5" stroke="white" stroke-opacity="0.2"/>
<path d="M15.9996 8.71394C13.8578 8.71394 12.1165 10.4868 12.1165 12.6435C12.1165 14.8 13.8578 16.5729 15.9996 16.5729C18.0944 16.5729 19.7945 14.8743 19.8688 12.7824V12.7822C19.8782 12.7366 19.8829 12.69 19.8829 12.6435C19.8829 12.5974 19.8782 12.5515 19.8693 12.5063C19.7957 10.4136 18.0951 8.71387 15.9997 8.71387L15.9996 8.71394ZM15.9996 10.1042C17.3794 10.1042 18.4926 11.2275 18.4926 12.6435C18.4926 14.0595 17.3793 15.1826 15.9996 15.1826C14.6201 15.1826 13.5068 14.0595 13.5068 12.6435C13.5068 11.2275 14.6201 10.1042 15.9996 10.1042ZM24.5525 13.815C22.888 13.8152 21.5389 15.2041 21.5389 16.8805C21.5389 18.5573 22.8882 19.946 24.5527 19.946C26.1703 19.946 27.4794 18.6321 27.5527 17.0196V17.0181C27.5619 16.9729 27.5666 16.9268 27.5666 16.8805C27.5666 16.8348 27.5621 16.7892 27.5532 16.7444C27.4811 15.1307 26.1712 13.8151 24.5527 13.8149L24.5525 13.815ZM24.5527 15.2052C25.4494 15.2052 26.1766 15.9388 26.1766 16.8805C26.1766 17.8222 25.4495 18.5558 24.5527 18.5558C23.6562 18.5558 22.9291 17.8222 22.9291 16.8805C22.9291 15.939 23.6562 15.2052 24.5527 15.2052ZM15.9953 18.4726C13.6631 18.4882 11.8164 19.5626 10.6016 21.0748C9.38669 22.587 8.76337 24.5176 8.71417 26.3649V26.3832C8.71417 26.7495 8.68822 27.4722 9.11823 28.155C9.54824 28.8378 10.4494 29.3318 11.7858 29.3318H20.2143C20.4965 29.3318 20.7589 29.3094 21.0021 29.2683C21.1533 29.2869 21.3144 29.2974 21.4874 29.2974H27.6187C28.6324 29.2974 29.3727 28.9027 29.7204 28.3459C30.0681 27.789 30.0419 27.2185 30.0419 26.9502V26.9319C30.0052 25.54 29.5421 24.0903 28.629 22.9453C27.7162 21.8002 26.3118 20.9787 24.5578 20.9668H24.5484H24.5482C23.5262 20.9737 22.6183 21.2541 21.8619 21.7148C21.7185 21.4946 21.5643 21.2807 21.399 21.0749C20.1841 19.5627 18.3372 18.4883 16.0048 18.4727H15.9956L15.9953 18.4726ZM16 19.863C17.9191 19.8774 19.321 20.7088 20.3146 21.9455C21.1444 22.9785 21.6608 24.3079 21.8331 25.6236C21.8362 25.6465 21.8391 25.6695 21.8418 25.6923C21.8458 25.7254 21.8499 25.7583 21.8534 25.7912C21.8592 25.846 21.8648 25.9009 21.8695 25.9554C21.8711 25.9736 21.8722 25.9917 21.8738 26.01C21.8776 26.0572 21.8809 26.1044 21.8836 26.1517C21.8848 26.1698 21.8859 26.1879 21.8868 26.2058C21.8901 26.2684 21.893 26.3311 21.8948 26.3935V26.3944C21.8948 26.4391 21.8944 26.4846 21.8933 26.53V26.5342C21.8856 26.8569 21.8472 27.1891 21.7053 27.4142C21.644 27.5115 21.5657 27.6095 21.4373 27.6943C21.3109 27.7708 21.135 27.8354 20.8766 27.8851C20.8493 27.8902 20.8225 27.8972 20.7959 27.9057C20.6336 27.9283 20.4421 27.941 20.2142 27.941H11.7856C10.7457 27.941 10.4586 27.6746 10.2944 27.4141C10.132 27.156 10.1056 26.757 10.1049 26.3937C10.1481 24.8406 10.6927 23.1812 11.6851 21.9455C12.6787 20.7087 14.0808 19.8774 16 19.8631L16 19.863ZM24.5523 22.3574H24.5525C25.8901 22.3679 26.8486 22.9427 27.5417 23.8119C28.2337 24.6802 28.6199 25.8604 28.6505 26.9603C28.6494 27.2249 28.6239 27.476 28.5409 27.6093C28.4565 27.7442 28.333 27.9071 27.6185 27.9071H23.0181C23.3059 27.3032 23.2857 26.7055 23.2857 26.3833C23.2859 26.3773 23.2859 26.371 23.2857 26.365C23.2553 25.2172 23.0031 24.0377 22.5255 22.9461C23.0826 22.5859 23.7426 22.364 24.5523 22.3575L24.5523 22.3574Z" fill="#A5DAD8"/>
</svg>
