<svg width="38" height="38" viewBox="0 0 38 38" fill="none" xmlns="http://www.w3.org/2000/svg">
<rect width="38" height="38" rx="8" fill="white" fill-opacity="0.2"/>
<rect x="0.5" y="0.5" width="37" height="37" rx="7.5" stroke="white" stroke-opacity="0.2"/>
<path d="M18.9999 23.3699C21.4134 23.3699 23.3699 21.4134 23.3699 18.9999C23.3699 16.5864 21.4134 14.6299 18.9999 14.6299C16.5864 14.6299 14.6299 16.5864 14.6299 18.9999C14.6299 21.4134 16.5864 23.3699 18.9999 23.3699Z" stroke="#A5DAD8" stroke-width="1.5" stroke-miterlimit="10"/>
<path d="M28.7897 17.6398V20.4498C28.7897 20.8898 28.4297 21.2498 27.9897 21.2498H26.3797C26.2297 21.7598 26.0297 22.2498 25.7797 22.7098L26.9097 23.8398C27.2197 24.1498 27.2197 24.6598 26.9097 24.9698L24.9297 26.9498C24.6197 27.2598 24.1097 27.2598 23.7997 26.9498L22.6497 25.7998C22.1997 26.0498 21.7097 26.2498 21.2097 26.3998V28.0298C21.2097 28.4698 20.8497 28.8298 20.4097 28.8298H17.5997C17.1597 28.8298 16.7997 28.4698 16.7997 28.0298V26.3998C16.2897 26.2498 15.8097 26.0498 15.3497 25.8098L14.2097 26.9498C13.8997 27.2598 13.3897 27.2598 13.0797 26.9498L11.0997 24.9698C10.7797 24.6598 10.7797 24.1498 11.0997 23.8398L12.2297 22.7098C11.9797 22.2498 11.7797 21.7598 11.6297 21.2498H10.0197C9.57973 21.2498 9.21973 20.8898 9.21973 20.4498V17.6398C9.21973 17.1998 9.57973 16.8398 10.0197 16.8398H11.5997C11.7497 16.3198 11.9497 15.8198 12.1997 15.3498L11.0997 14.2498C10.7797 13.9398 10.7797 13.4298 11.0997 13.1198L13.0797 11.1398C13.3897 10.8198 13.8997 10.8198 14.2097 11.1398L15.2897 12.2198C15.7697 11.9698 16.2697 11.7598 16.7997 11.5998V10.0598C16.7997 9.61977 17.1597 9.25977 17.5997 9.25977H20.4097C20.8497 9.25977 21.2097 9.61977 21.2097 10.0598V11.5998C21.7397 11.7598 22.2397 11.9698 22.7097 12.2298L23.7997 11.1398C24.1097 10.8198 24.6197 10.8198 24.9297 11.1398L26.9097 13.1198C27.2197 13.4298 27.2197 13.9398 26.9097 14.2498L25.8097 15.3498C26.0597 15.8198 26.2597 16.3198 26.4097 16.8398H27.9897C28.4297 16.8398 28.7897 17.1998 28.7897 17.6398Z" stroke="#A5DAD8" stroke-width="1.5" stroke-miterlimit="10"/>
</svg>
