<svg width="38" height="38" viewBox="0 0 38 38" fill="none" xmlns="http://www.w3.org/2000/svg">
<rect width="38" height="38" rx="8" fill="#01CD74"/>
<rect x="0.5" y="0.5" width="37" height="37" rx="7.5" stroke="white" stroke-opacity="0.2"/>
<path d="M10.3798 9.33984H19.0298C19.6498 9.33984 20.1498 9.82984 20.1498 10.4298V15.4698C20.1498 16.0698 19.6498 16.5598 19.0298 16.5598H10.3798C9.75977 16.5598 9.25977 16.0698 9.25977 15.4698V10.4398C9.25977 9.83984 9.75977 9.34984 10.3798 9.34984V9.33984Z" stroke="white" stroke-width="1.5" stroke-miterlimit="10"/>
<path d="M22.4805 17.9996V10.4396C22.4805 9.83961 22.9105 9.34961 23.4305 9.34961H27.8105C28.3305 9.34961 28.7605 9.83961 28.7605 10.4396V18.0096C28.7605 18.6096 28.3305 19.0996 27.8105 19.0996H23.4305C22.9105 19.0996 22.4805 18.6096 22.4805 18.0096V17.9996Z" stroke="white" stroke-width="1.5" stroke-miterlimit="10"/>
<path d="M27.6401 28.6604H18.9901C18.3701 28.6604 17.8701 28.1704 17.8701 27.5704V22.5304C17.8701 21.9304 18.3701 21.4404 18.9901 21.4404H27.6401C28.2601 21.4404 28.7601 21.9304 28.7601 22.5304V27.5704C28.7601 28.1704 28.2601 28.6604 27.6401 28.6604Z" stroke="white" stroke-width="1.5" stroke-miterlimit="10"/>
<path d="M15.54 20.0002V27.5702C15.54 28.1702 15.11 28.6602 14.59 28.6602H10.2C9.68 28.6602 9.25 28.1702 9.25 27.5702V20.0002C9.25 19.4002 9.68 18.9102 10.2 18.9102H14.58C15.1 18.9102 15.53 19.4002 15.53 20.0002H15.54Z" stroke="white" stroke-width="1.5" stroke-miterlimit="10"/>
</svg>
