<svg width="38" height="38" viewBox="0 0 38 38" fill="none" xmlns="http://www.w3.org/2000/svg">
<rect width="38" height="38" rx="8" fill="#01CD74"/>
<rect x="0.5" y="0.5" width="37" height="37" rx="7.5" stroke="white" stroke-opacity="0.2"/>
<path d="M20.6101 11.4297H11.6201C10.6315 11.4297 9.83008 12.2311 9.83008 13.2197V27.0397C9.83008 28.0283 10.6315 28.8297 11.6201 28.8297H20.6101C21.5987 28.8297 22.4001 28.0283 22.4001 27.0397V13.2197C22.4001 12.2311 21.5987 11.4297 20.6101 11.4297Z" stroke="white" stroke-width="1.5" stroke-miterlimit="10"/>
<path d="M15.6797 11.4496L21.3897 9.31961C22.3097 8.97961 23.3497 9.44961 23.6897 10.3696L28.5097 23.3196C28.8497 24.2396 28.3797 25.2796 27.4597 25.6196L22.1797 27.5796" stroke="white" stroke-width="1.5" stroke-miterlimit="10"/>
<path d="M12.1426 15.5713H19.8569" stroke="white" stroke-width="1.5" stroke-miterlimit="10" stroke-linecap="round"/>
<path d="M12.1426 18.1426H19.8569" stroke="white" stroke-width="1.5" stroke-miterlimit="10" stroke-linecap="round"/>
<path d="M12.1426 20.7139H19.8569" stroke="white" stroke-width="1.5" stroke-miterlimit="10" stroke-linecap="round"/>
<path d="M12.1426 23.2861L17.2854 23.2861" stroke="white" stroke-width="1.5" stroke-miterlimit="10" stroke-linecap="round"/>
</svg>
